<?xml version="1.0" encoding="UTF-8"?>
<svg viewBox="0 0 484.7113 245.34927" xmlns="http://www.w3.org/2000/svg" xmlns:xlink="http://www.w3.org/1999/xlink">
 <defs>
  <linearGradient id="a">
   <stop stop-color="#b8b8b8" offset="0"/>
   <stop stop-color="#e3e3e3" offset=".5"/>
   <stop stop-color="#b9b9b9" offset="1"/>
  </linearGradient>
  <linearGradient id="b" x1="125.89" x2="569.35" y1="286.38" y2="130.07" gradientUnits="userSpaceOnUse">
   <stop stop-color="#867850" offset="0"/>
   <stop stop-color="#a08872" offset=".35474"/>
   <stop stop-color="#867850" offset="1"/>
  </linearGradient>
  <linearGradient id="e" x1="412.44" x2="411.64" y1="330.39" y2="335.09" gradientTransform="matrix(-.96884 -.24771 .24771 -.96884 748.05 756.69)" gradientUnits="userSpaceOnUse" xlink:href="#a"/>
  <linearGradient id="d" x1="412.44" x2="411.64" y1="330.39" y2="335.09" gradientTransform="matrix(.90747 -.42013 .42013 .90747 -96.493 204.08)" gradientUnits="userSpaceOnUse" xlink:href="#a"/>
  <linearGradient id="c" x1="412.44" x2="411.64" y1="330.39" y2="335.09" gradientUnits="userSpaceOnUse" xlink:href="#a"/>
 </defs>
 <path transform="translate(-129.82 -97.676)" d="m135.56 97.776h473.25a3.828 3.828 0 0 1 3.828 3.828v236.86a3.828 3.828 0 0 1 -3.828 3.828h-473.25a3.828 3.828 0 0 1 -3.828 -3.828v-236.86a3.828 3.828 0 0 1 3.828 -3.828" fill="url(#b)" stroke="#777" stroke-linejoin="round" stroke-width=".2"/>
 <path transform="translate(-129.82 -97.676)" d="m149.75 109.51h444.87a3.828 3.828 0 0 1 3.828 3.828v205.28a3.828 3.828 0 0 1 -3.828 3.828h-444.87a3.828 3.828 0 0 1 -3.828 -3.828v-205.28a3.828 3.828 0 0 1 3.828 -3.828" fill="#444" stroke="#777" stroke-linejoin="round" stroke-width=".2"/>
 <path transform="translate(-129.82 -97.676)" d="m397.66 328.23 30.171 3.838-0.79998 5.4618-30.018-4.881 0.64721-4.4188z" fill="url(#c)" stroke="#858585" stroke-linejoin="round" stroke-width=".1"/>
 <path transform="translate(-129.82 -97.676)" d="m402.27 334.87 28.991-9.1927 1.5687 5.2925-29.291 8.1821-1.2691-4.2818z" fill="url(#d)" stroke="#858585" stroke-linejoin="round" stroke-width=".1"/>
 <path transform="translate(-129.82 -97.676)" d="m444.09 340.19-28.28-11.192 2.128-5.0934 27.873 12.165-1.7216 4.1208z" fill="url(#e)" stroke="#858585" stroke-linejoin="round" stroke-width=".1"/>
 <path transform="matrix(.9991 .04242 -.04242 .9991 -129.82 -97.676)" d="m267.4 314.14h37.648v11.905h-37.648z" fill="#493a3d" stroke="#858585" stroke-linejoin="round" stroke-width=".1"/>
 <path transform="translate(-129.82 -97.676)" d="m129.92 335.71h484.51v7.218h-484.51z" fill="#60553f" stroke="#777" stroke-linejoin="round" stroke-width=".2"/>
 <path transform="translate(-129.82 -97.676)" d="m185.91 231.55c1.2964-3.9499 2.2138-7.7938 3.706-11.746 1.4348-3.7765 2.0526-7.8894 4.4246-11.238 1.2508-2.6475 2.1892-5.5594 3.6403-8.1739 1.7745-2.143 1.3987-5.5777 3.8257-7.1497 1.1843-3.7604 3.4342-6.7552 4.8427-10.369 1.7681-3.2425 2.5084-5.6247 4.445-8.7275 1.5863-2.4833 2.1475-5.0978 3.8046-7.5274 1.456-3.0563 2.3662-5.8244 3.1618-9.1554 0.84527-1.0834 1.1928-4.4902 1.4152-1.1434 0.042 3.0592-0.51172 6.2238 0.89339 9.0289 0.67276 3.1044 0.88368 6.3346 2.0761 9.1236 1.4841 2.9249 2.3275 6.1067 2.9372 9.2975 0.88876 2.946 1.315 6.064 2.406 8.6219 0.097 3.2936 1.4742 6.3897 1.671 9.6856 0.81893 4.6085 2.3673 9.0871 3.6979 13.531 1.1894 2.7172 1.9266 5.6415 2.689 8.501 0.0612 2.9736 1.541 5.3535 2.2956 8.0502l-2e-3 0.0839" fill="none" stroke="#c8cbcb" stroke-linecap="round" stroke-linejoin="round" stroke-width="2.6"/>
 <path transform="translate(-129.82 -97.676)" d="m194.91 202.47c4.3458-0.13601 8.4814-1.1567 12.94-0.6789 3.3168 0.39762 6.1474-1.5274 9.5303-0.63848 4.1055 0.42993 7.6076-0.9976 11.612-0.70148 2.1618-0.65546 4.0251-1.1591 6.0778-1.4432" fill="none" stroke="#c8cbcb" stroke-linecap="round" stroke-linejoin="round" stroke-width="2.6"/>
 <path d="m148.92 119.03c6.6543-0.0592 13.298-0.50354 19.953-0.5051 2.9899 2.0326 7.0754 0.67965 10.369 2.1116 5.3144 1.3957 10.455 4.414 13.04 8.982 1.6614 4.515-3.5177 6.9217-7.1494 8.4913-3.5445 2.0838-7.427 3.5908-11.352 4.9419-1.0005 0.58831-5.3321 0.7159-4.6515 1.4633 4.11-0.14947 8.2542 0.12837 12.289 0.8821 4.4686 0.89874 6.7806 4.9413 8.832 8.2772 2.2444 3.8825 2.6627 8.4219 2.0651 12.699-1.2349 3.5877-2.7287 7.3016-5.8527 9.902-3.5178 3.3572-8.4495 5.0731-13.443 5.5097-3.3286 0.45805-6.7381 0.65739-10.078 0.175-5.4244-2.443-11.134-4.4059-16.063-7.6738-1.3966-0.92204-2.8951-1.6761-4.401-2.3784m16.641-56.794c-0.23608 5.872 1.7923 11.55 2.6882 17.31 0.77644 3.6746 1.323 7.4306 2.1941 11.06-0.33537 3.5235 0.48337 7.129-0.54961 10.593-0.26233 3.8146-1.5249 7.523-1.2685 11.377-0.73155 3.8828-1.3512 7.7728-1.765 11.693-0.2903 1.6757-0.65531 3.3457-0.7623 5.0427" fill="none" stroke="#8281c6" stroke-linecap="round" stroke-linejoin="round" stroke-width="3.1"/>
 <path d="m269.77 75.945c-2.5224-1.9936-5.552-3.5112-8.6285-4.3567-6.2616-0.97828-13.121-3.01-19.079 0.22315-5.0985 2.159-10.1 4.8968-13.606 9.3056-3.6356 3.5156-5.07 8.4886-7.1579 12.943-0.4518 4.7788-1.296 9.8152 0.70497 14.376 0.95204 3.7604 2.257 7.457 4.3365 10.773 2.8236 2.8611 5.2906 6.2068 8.5158 8.6674 5.866 4.127 12.62 7.1022 19.814 7.7806 3.4376 0.22403 7.2123 1.5412 10.332-0.5822 4.4666-2.1103 8.9016-4.5124 12.329-8.1585-1.3883-0.26437 1.8-0.85391 1.2515-1.5213" fill="none" stroke="#bb4c4c" stroke-linecap="round" stroke-width="3.2"/>
</svg>
