<?xml version="1.0" encoding="UTF-8"?>
<svg width="332.98" height="352.14" enable-background="new 0 0 332.976 352.138" viewBox="0 0 332.976 352.138" xmlns="http://www.w3.org/2000/svg">
 <g fill-rule="evenodd">
  <path d="m38.156 309.11 50.425-9.245 50.762 10.757h50.594v10.759l55.298-4.54h6.22v7.564h66.058-83.032l-78.16 27.733-79.84-30.758-12.271-4.54h-33.785l-4.539-4.705-7.732-9.245h-7.732l6.219 6.219 16.81-3.025h9.244v1.512l-4.538 1.52z" fill="#bfe347"/>
  <path d="m120.35,2.857h2.018l2.522-2.519 1.512,2.519 3.866,1.01 2.691,3.698 3.863.672 14.288-1.345h14.288l13.615-1.849 2.857,1.177 2.689-2.69 2.521,1.514 .504-1.007v-1.347l-.335-1.177h9.749l4.032,3.529 4.876,1.681 5.042.503 .335-.166v-.841l.673.335 .503.672 .842.842-.504,1.008h5.716l6.219-.167 5.713-.337v.168h.338l.169.336 6.554-.839 6.723.335 6.389-.335 49.752-3.362 2.353-1.512 2.019,2.016 2.689-.673 1.008-.335v1.345l.169.673-.504.838-1.177.673-1.178-.673 .169,5.884 4.538,4.371 3.193,4.537-.336,1.01-.337,1.008h-1.175l-1.011-.839-1.176,1.008-1.008.169-.169,1.68-1.681,1.849 1.177,1.681v1.176l.169,1.514-1.346.335h-.504l.84,10.086 1.849,10.59 1.514,10.421 .673,5.546 1.681,5.212 1.008,5.378-1.681.169 1.009,1.849v1.008l1.343,18.993 3.364,19.162 .672,19.499 .504,4.033 .841,4.54-2.017,3.698-2.188-3.194 .842-4.706-1.346-3.698-2.016,27.564-2.354,28.071 .169,28.069 1.514.672 1.344,1.514 1.848-.338 .842,1.011-1.177,13.781 1.85,9.749-.842,14.121 .169,18.655-2.857.842 3.699,2.69-3.026.672-.842.503-.504-1.176-.671-.169-7.396-.841-7.899,1.176-7.229.169-.839-1.345-3.531,1.01 .671-2.521 .504-.842-1.175.169-.168-.338-19.161.169-.338,1.01-.673,1.008-1.008.169-6.05-1.849-7.229-.169-6.22-.169-10.42-.335-11.26-.169-9.918-.672-2.354-.168-1.678,1.514-2.188-1.345-.839-1.514-1.009-2.185-2.018.336-6.724-.336-6.723.336-6.723-1.008-.335,1.176-.338,1.515h-1.346l-2.688-.673-3.53-1.346-2.354,1.85-.166-.504-1.011-.842-.84.504-1.343.169 .839,2.353-1.512.168-8.237-1.514-7.396.841-8.741-.841-20.673-2.185-20.676-.504-20.842-.503-.337.839h-1.681l-.672-.336-.673-.337-.335-.673v-1.342l-3.025.335-3.698.337-2.859,1.176-1.177.167-.503-1.177 .336-.838v-1.177l-15.464-2.521-18.154.167-15.128,2.522-2.185-46.896-.336-16.137 .336-14.959-.168-15.63 .168-16.305-1.85-17.481-.336-17.145-.503-10.59 1.513-12.773-2.353-10.086-.336-1.008 .504-1.346-1.009-.672 1.177-6.892-.672-7.731-1.513-7.06 .336-.673-.842-1.177 1.178-.166-1.178-9.245-1.176-9.75-2.017-9.076-.336-.335 .504-.338-.336-.335-1.279-.49 1.681-4.368 .673-5.043 .84-4.875h-.673l-.84-.337 .336-.672 1.176-.168 1.008-2.016 1.009,1.512 14.455-.673-.504-4.202-.336.169-.169-.337-.167-.167 2.354-1.849 .336-4.875 3.53,1.177 3.698,1.511 4.538-.672 3.866,1.01 4.707,1.007 5.21.338 5.043-.169 .504,1.681 1.009,2.186 1.849.839v1.681l-1.681,1.849 1.008,2.017 11.936-.335 13.447.673 11.597-2.355 .672.672 3.363-2.857 4.537-3.362 2.352-3.698 .842-5.378-.504-5.378-.673-5.211 2.185.338 2.691-.338 2.34-.505 1.683,1.514 2.016.673 2.02.67z" fill="#282420"/>
  <path d="m111.95,1.849 .84,4.37-.84,5.547v5.043l-.84.503h-2.018l-.335-.672 1.176-4.706-1.007-5.38-.169-4.705h3.19z" fill="#a8c0aa"/>
  <path d="m192.46,2.521 .673,4.37-.335,5.212-.673,4.368-1.513-.167-1.346.335-1.343.504-.338-4.874 .673-4.875 .169-4.874h4.03z" fill="#a8c0aa"/>
  <path d="m119.34,4.706-.167,1.514 1.344,2.521-1.682.504 .338-.672h-2.018l-.335,1.176-.673.338 .335-7.396 1.177.335 .841.337 .84,1.343z" fill="#5a8263"/>
  <path d="m123.71,8.74-.842.504-.842-.335-.839.167-.168-1.681-.336-1.511 .167-1.683 .672-.504h1.008l.673-.335 .51,5.378z" fill="#a8c0aa"/>
  <path d="m210.95,8.74-2.185.673-3.193-.841-2.521.168-4.203-1.514 .504,5.381-1.679,1.849v.335-.673l-.169.169h-.504l-.169.335v.506l.338.167v.337l-.338.169-.166.335v-4.202l.166-4.202 .338-4.204 4.37,2.355 4.369,2.353 5.04.504z" fill="#5a8263"/>
  <path d="m133.63,8.237-6.724.335v-4.201l2.521.672 1.849,2.184 2.35,1.01z" fill="#5a8263"/>
  <path d="m303.9,13.784 1.011,2.018 1.512,1.68 1.176,1.849-10.756,1.008-41.518-.672-19.667,1.345-19.665,3.867-19.834-.338 2.354-4.537 2.354-4.202 1.512-4.876 .673-.335 8.572.169 6.723-.504 8.068-.673-.169.839 .169,1.345 1.177.168 3.024.335 2.856-1.176h3.027l11.43-.169 38.826-3.025 4.875-.167 5.212-.337 4.873.169 2.2,6.219z" fill="#fab1d7"/>
  <path d="m186.91,9.244 .169,3.363-.335,3.529-.338,2.857 1.008.169 1.011-1.008 1.177-.169 2.352-.169v.504l-3.193,3.028-2.856,3.529-3.193,2.856-22.522.842-23.029,2.184-22.525,1.682-7.563.839-7.9-.504-8.235.841 5.209-4.035 1.681.337 .168-1.683 .842-.673 9.413-7.058 2.353.169 2.855-.169 2.187-1.345 .839-2.353-2.184-4.202 3.195-1.683 6.219.506 5.377-.506 6.388-.335 11.429-1.177 11.934-1.514 11.261,1.683 5.211-.842 5.043-.168 5.209.504 1.34.171z" fill="#f74377"/>
  <path d="m294.32,15.295-.169.506-.166-.169-.338-.168-.673-1.177-1.848-1.345 .337-1.345 1.176.841 1.008,1.514 .67,1.343z" fill="#ba3d9b"/>
  <path d="m273.64,17.481v.169h-.504l-1.007-1.683-.338-2.353 .169-1.68 1.176,1.345-.335,2.521 .84,1.681z" fill="#ba3d9b"/>
  <path d="m247.42,15.128 .84,1.177-1.178,1.007-.839.338-1.177-.338-1.514-.503-.169-1.514v-1.008l-.335-1.514 1.176-.504 2.691-.504-1.346,3.698 1.86-.335z" fill="#ba3d9b"/>
  <path d="m256.66,14.288v1.008l.337,1.176-1.177.672-1.008.168-.338-.672-.67-.504 .166-1.514-.504-1.343 1.515-1.01 .839.337 .84.503v1.179z" fill="#ba3d9b"/>
  <path d="m238.01,18.154-.504.504h-.842l-.335-.338-1.513-1.008 .336-2.352v-1.515l.673-1.007 2.522.841-.842,2.856 .49,2.019z" fill="#ba3d9b"/>
  <path d="m297.01,16.64-1.346-.504 .169-1.849 .166-1.177 .504-.672 .169,1.514 .338,1.512v1.176z" fill="#ba3d9b"/>
  <path d="m278.68,17.313-.335.338-1.513-1.179-.335-2.184-.169-1.68h.504l1.85,4.705z" fill="#ba3d9b"/>
  <path d="m288.27,15.128-.338-.672-2.185-.673 1.346-1.176 1.681,2.015-.5.506z" fill="#ba3d9b"/>
  <path d="m284.74,16.64-1.008-.168-.673-1.343-.504-.841 .335-1.177 .842,1.008 .673,1.177 .33,1.344z" fill="#ba3d9b"/>
  <path d="m228.93,15.128 .169,1.512-.338,1.345-1.008,1.008-.84.169-.504-.673-.504-.504-.169-1.345-.335-2.018 1.512-.839 .84-.169 .841.842 .34.672z" fill="#ba3d9b"/>
  <path d="m263.22,15.128 .504,1.008-.335,1.514-1.177.335-1.008.169-.337-1.01-.335-.672 .335-.839-.673-1.176 1.01-.673 1.177-.169 .166.842 .67.671z" fill="#ba3d9b"/>
  <path d="m209.94,15.968-.673,1.849-.842,2.69-2.352.335-1.681-1.849 2.352-2.184 .338-2.018 .839-1.849 1.85,1.68 .16,1.346z" fill="#ba3d9b"/>
  <path d="m216.16,15.801-1.511,1.176 1.68,4.875-3.36-1.682-1.848-1.85 1.848-2.184 .504-1.68 1.177-1.177 1.176,1.343 .33,1.179z" fill="#ba3d9b"/>
  <path d="m223.22,17.313-.504.504 .169,1.01-1.011.504-.672-.168-1.007-.169-.169-1.008 .169-1.514 .167-1.343 1.008-1.176 1.85.166-.673,2.018 .66,1.176z" fill="#ba3d9b"/>
  <path d="m127.41,15.295-.169,1.514-3.528,4.371-2.356,5.209-3.359,4.204-.673.167-.504-.335-.338-.672 2.018-5.212 3.362-4.874 2.688-4.875 .842-1.177 1.848.673 .17,1.007z" fill="#fab1d7"/>
  <path d="m56.14,18.826 .336.84 .672.672 .336.842-4.202,1.176-4.371-3.026-4.203.84-4.705.337-4.876-.673-4.202-1.514-1.177-2.184 9.245-.168 7.732,3.531 9.415-.673z" fill="#5a8263"/>
  <path d="m134.13,17.985-.84,3.529-2.184,3.194 .335,3.529-.673.338-.504-.169-.672-.504-2.017-3.698 3.024-3.529 .842-3.532 .842-1.343 1.68,1.176 .17,1.009z" fill="#fab1d7"/>
  <path d="m142.54,18.993 .338,3.025-1.682,2.187 .671,3.194-.503.504h-1.175l-.504-.504-2.353-3.194 3.697-3.698-2.186-3.025 1.177-1.345 2.521,1.008v1.848z" fill="#fab1d7"/>
  <path d="m162.37,18.993-.169,1.683v1.849l1.009,1.176 .335.673-.671.335-.504.169h-1.176l-1.177-.673-.504-1.177v-2.186l-.842-2.184 .842-1.849 1.177.168 1.511.673 .17,1.343z" fill="#fab1d7"/>
  <path d="m196.16,17.816-.335,2.521-3.698,1.345 1.346,3.025-1.346,1.176 1.346,1.849 .335,1.346-3.193,4.202-1.85,4.875-2.185,4.708-1.68-2.522-5.212-2.186 1.177-3.865-1.346-1.177 4.035-4.876 5.21-4.706 4.708-4.706 .673-.841 1.176.335 .83-.503z" fill="#fff08d"/>
  <path d="m152.45,20.003 .337.839-.841,1.01 .504,1.008h.672l-1.176.841 1.68,2.353-2.018.169-1.177.167-.838-1.176-.338-.839-.839-1.849 1.849-2.354-1.849-1.177v-.839l.839.166 .673-.335h1.01l1.681.504-.15,1.512z" fill="#fab1d7"/>
  <path d="m29.919,20.003 1.008,4.537 .167,6.053 .169,4.874 1.176.504-1.009,1.345 .673.84-2.017-.336-.336,2.354-2.017-.504-.84-1.85v-11.935l.504-.168 1.009.506 .169-.841-.169-.169 .169-.839h-1.849l.167-1.514-1.176-2.018 1.008-.672 1.176.168 .84-.672 1.178.337z" fill="#c7d8c9"/>
  <path d="m305.41,23.364 .335,1.682-.67,1.177-.507,1.342-.839-.335-21.853-.335-22.355,2.185h-21.684l-13.446,1.008-13.783,1.01-13.443.169-.338-1.514h2.354l-.672-1.515-.84-1.008h-.673v-1.176l4.032-.504 4.036-.168h4.201l.335,1.176-.335.504 1.008.841h1.346l1.68.335 1.008-1.008 14.288-.841 13.782-2.857 14.12-.504 43.197.504 5.71-.168z" fill="#5a8263"/>
  <path d="m57.318,25.716 .335-.167 .169-.168h.504v2.521l-5.211.169-5.042.504-4.706.335-1.009.673 .504,1.176-.672.672-7.06,6.051-1.512.169-.673-1.346 1.513.842 .504-.673 1.009-1.008-.336-1.514-.505-1.176 3.698-3.194 4.54-2.522 4.37-2.016 3.361-.506 2.521.673h3.363l.335.505z" fill="#a8c0aa"/>
  <path d="m25.045,25.716 .84,3.532-1.008,4.37 .335,3.865-5.042,1.01-5.546-.337-4.876.168-.671.338-1.009-.338-.672.338 2.688-11.935 4.54-1.177 5.714.504 4.707-.338z" fill="#fbc0df"/>
  <path d="m177.33,33.114-9.748.335-9.917.504-9.75-.504-6.052,1.515-7.73-1.179-6.556.672-9.245,1.849-10.591-.839-9.41,1.345-.506-.337-.167-.673-.673.169v.841h-2.858l-3.026-.337-3.025.673 .673-.673 .337-1.176h1.008l18.489-1.681 18.994.335 18.154-2.687 12.29-.338 10.252-1.176 12.104-.504v.335l-3.02,3.531z" fill="#65007d"/>
  <path d="m93.961,29.583-2.018,1.514-1.849,3.698-2.856-.673-.338.169-.335.166v.338l.167.169-1.177.503-1.007-1.176-.842-.842-5.546,1.008-39.164,2.691-1.176-.169 5.547-4.875 16.64-1.176 16.976-.335 16.978-1.01z" fill="#fbc0df"/>
  <path d="m301.88,31.266 3.361,14.622 .673,16.471 3.865,14.625-1.849,1.343h-58.829l-8.572.338h-8.741l-8.237.503-1.177,1.176-14.958-.504-15.96-.84-14.455.503-1.512-.838 1.345-1.85-.168-1.345 2.521-14.623 6.892-12.942 6.051-13.28 .335,1.008 .169,1.179 1.177.503 1.01-.168 1.177-.504 .504-1.01 7.227-.839 42.86-2.353 17.984.335 18.321-3.025 18.99,1.515z" fill="#f552a7"/>
  <path d="m147.75,37.819 27.735-.672 .673,1.008-1.177,1.176 .166,1.179-1.007,8.738-.335,9.245-1.18,8.574-1.512-1.01-2.858-.169-1.68.841-21.18.169-22.522,1.681-21.348,1.176-5.041-.335-5.38,1.345-4.874-1.345 1.849-6.219 1.849-6.219 2.187-6.051 .166-4.37 1.683-3.532 .504-4.202 1.008-.504h1.849l1.01.504 .673-.335 10.587-.504 9.414.167 9.917-2.016 17.482.672 1.35,1.008z" fill="#d5228d"/>
  <path d="m86.228,36.812-.169.67-.838.337 .334.842 1.849,1.008 1.85-1.85 2.017.842v.504h1.346v2.856l-1.177,3.025-.672,2.859-1.514-.337-2.016.168-1.345-.841-4.37,1.681-4.875-.336-4.539.336-12.271,2.186-13.11-.169-12.271,1.849 .335-4.202-2.353-3.529 1.177-4.035 15.969-1.68 17.313-.841 15.801-1.177 1.007.673 1.011-1.512 1.511.673z" fill="#a8c0aa"/>
  <path d="m239.86,38.827-.842,4.54-2.688,3.529-1.344,4.202-.504.337-.673.168-.673.167-1.008-1.345 1.343-1.343v-1.346l1.515-3.698 1.008-3.698 2.186-3.025 .839.167 .338.673 .48.672z" fill="#fed95e"/>
  <path d="m283.73,46.057-.504.504-.673-.338-.335.169-1.514-2.184-.335-2.521-.169-2.69v-1.177l1.68-1.007 .842,1.343 .504,1.176 .5,6.725z" fill="#fed95e"/>
  <path d="m292.3,38.492 .336,2.353-.84,2.184-.673,2.018h-.504l-.335.338h-.506l-.504-2.521 .504-3.026 1.176-2.354 .673-.167 .337.673 .32.502z" fill="#fed95e"/>
  <path d="m140.02,41.014 5.715,2.857 .842,1.176-1.515,6.051v6.557l-1.345,6.05-2.688,1.514-3.027-2.859-2.688,1.515-5.212-1.011-3.36,3.026-5.38-.839-.671-.504-.167-.672 .167-.673 1.009-.842-.841-11.597-2.183-.841-2.522,3.025-1.68-2.688 .166-.672 4.875-2.187 4.708-2.521 4.37-3.36 2.688-.337 2.354-1.343 2.016-1.682 1.849.337 1.01,2.018 1.5.502z" fill="#282420"/>
  <path d="m276.84,39.331-.673,2.69 1.009,3.025-.671,2.186-.842.504-1.346-.672v-1.177l-1.008-2.353 .169-3.362 1.346-2.018 1.177-.504 .335,1.01 .5.671z" fill="#fed95e"/>
  <path d="m197.84,40.004-1.344,3.531-1.177,3.53-2.69,3.025-1.681-.335 1.008-3.698 1.346-3.698 1.68-3.532 .842-1.345 1.85,1.345 .16,1.177z" fill="#feb835"/>
  <path d="m263.56,39.165-.168,3.194-.169,3.698-.167,3.529-.672.169h-.169l-.673-.169-2.184-3.363 1.849-4.033 .335-3.529 .673-.842 .841.842 .51.504z" fill="#fed95e"/>
  <path d="m255.32,48.072 .169.504-.673.168-.169.504h-1.008l-.338-1.343v-.841l-.839-8.068 .335-.504 .673-.169 .504.338 2.522,2.353-1.177,4.033v3.025z" fill="#fed95e"/>
  <path d="m246.41,40.341-.673,3.194-1.18,2.688-.504,3.194-.166.504-.672.337-.673-.168-1.177-1.008v-1.683l.336-1.343 1.008-2.355 .337-2.857 1.345-2.018h1.177l.169.842 .66.673z" fill="#fed95e"/>
  <path d="m270.45,47.905 .167.335-.504.169-.169.167-2.184-1.008-.169-2.857 .169-2.69 .169-1.007 .166-1.177 1.011-.841 3.696,1.514-3.361,4.202 .99,3.193z" fill="#fed95e"/>
  <path d="m84.548,41.518 .673.841 .838,1.008-.67,1.007-1.849,1.176-2.018.672-2.186.504-2.688-1.176 1.512-3.191-.167-2.018 .335-1.176 1.514-.338 .839.842 1.514.504 .672,1.345h1.681z" fill="#325d3d"/>
  <path d="m139.34,42.021 4.37,2.187-.839,5.209-2.018-.841-1.175-2.52-2.187-1.179-2.015-.504-1.346-1.849-1.682-.839 1.345-.506 1.009-2.015 1.511.504 3.02,2.353z" fill="#f552a7"/>
  <path d="m185.73,45.046-2.856,5.378-1.345,5.884-2.691,5.378-1.511,4.371-.672,4.708-1.346,4.37-1.008-4.708 3.361-1.008-1.85-4.202 .842-2.69 .504-7.227 1.513-7.565-.505-7.732 2.689,1.514 1.346,4.539 3.55-1.01z" fill="#fff08d"/>
  <path d="m223.39,44.374 3.698,4.539-6.725,2.857-1.344,3.698-.169,5.546-.504,6.723 1.85,5.715 .167,1.176-1.009.338-.673.504h-5.041l-5.882,1.008-5.546-.336-.507-1.514-1.681.673-1.008.169 1.512-6.388-1.177-7.228-1.175-6.388-.337-.673-.505,1.179-.335-.841 .673-2.187 2.521-.67 1.346-2.018 1.177-1.849 3.192-1.177-.505-2.354 3.866-.167 3.025-1.849 2.353-2.859 3.36.841 2.019,2.69 3.36.842z" fill="#282420"/>
  <path d="m154.13,46.896-.335.673-.841-.336-.504-.168-.842-2.353 1.346-2.69 1.514-1.848 1.679,2.017-1.848,2.521-.18,2.184z" fill="#f552a7"/>
  <path d="m103.04,42.19v2.521l-.673,2.184-1.68,1.514-3.362-1.345 3.531-3.53-.337-2.521 1.008-1.514 1.345,1.849 .16.842z" fill="#f552a7"/>
  <path d="m32.104,43.871 1.009,8.74-2.689.169-2.69-1.177-3.193,1.008-1.009,1.346-1.009,4.874-2.689-2.856-3.866,1.512-2.186-4.033-3.529.166-1.848-11.599 7.731-.503 7.732-.504h7.227l1.009,2.857z" fill="#a8c0aa"/>
  <path d="m166.4,42.694-.166,1.177 .504,1.68-1.177.506-1.345.166-.335-1.68-.169-1.008-.504-1.01 .335-1.007 1.008-.841 1.179.168 .166,1.008 .52.841z" fill="#f552a7"/>
  <path d="m108.42,42.694v1.68l-.335,1.514-1.176,1.008-1.513-1.008 .84-2.521-.167-1.346 .671-1.848 1.514,1.345 .18,1.176z" fill="#f552a7"/>
  <path d="m113.96,42.19-.504,1.681-.167,1.514-1.344,1.342-1.513.169 .338-2.184 .335-.841-.169-1.346 2.353-3.529 .66,3.194z" fill="#f552a7"/>
  <path d="m160.02,42.863-.673,1.345 1.008,1.512-1.346.841-1.176.166-.335-1.176-.169-.672 .169-1.343-.673-1.682 1.008-.839 1.345-.337 .504,1.345 .34.84z" fill="#f552a7"/>
  <path d="m67.906,42.863 1.009,2.184-2.017,1.514-1.345,1.176-1.345.336-1.513.672-1.512-.504-1.176-1.68-.505-1.849 .336-2.187 1.345-1.68 2.016,1.514 1.682-.841 1.345-.169 1.007.504 .673,1.01z" fill="#325d3d"/>
  <path d="m216.32,44.039 1.177,1.512 1.515.506 1.512.839-1.008,1.849-1.177,2.018-1.681,1.514-1.011-.169-2.688-2.017-2.354-2.018-1.847-2.688 2.016-.673 1.849-1.514 1.849-1.68 2.187-.169-1.177,1.514 .83,1.176z" fill="#fab1d7"/>
  <path d="m22.356,45.888-.336,2.185 1.344,2.858-2.186,1.511-1.344-.335-1.512,1.85-1.009-1.681-1.009-2.018 .505-2.522-.505-2.186-.167-.839 .167-1.683 1.346-.166 1.848.166 2.186.842 .672,2.018z" fill="#325d3d"/>
  <path d="m50.257,45.046-.504,1.345v1.681l-1.513.337-2.185-.337-3.194-.336-.672-2.69v-.839l.505-1.179 1.009-.166 2.017.672 3.698-1.514 .839,3.026z" fill="#325d3d"/>
  <path d="m129.93,44.374 3.865,2.521-5.044,1.01-3.697-.337-4.706.337 7.899-5.042 1.346-.673-.169,1.681 .5.503z" fill="#ffde1e"/>
  <path d="m210.27,52.442-3.697-.672-3.192,1.849-3.363.338 5.044-6.051 2.017.839 1.512,2.187 1.68,1.51z" fill="#ffde1e"/>
  <path d="m135.64,50.258 .337,2.353 .839,1.849-.335,2.521-4.37.504 .672-.504-.672-1.008v-.672l.672-.673 2.185,1.345-.167-1.849-.84-.506-.842-.166-1.007.166-.335-2.521h-1.515l-.672,1.179 1.849,2.688-2.857-.839-.169.335-.673.168 .336.504 .505.504 1.176-.168 .673-.167 .504.672-.338.839 .169.673-3.53.504-.167-7.396 2.858-.672 2.857.169 2.88.168z" fill="#81017e"/>
  <path d="m125.22,50.593 .504,3.867-.166,4.033 .504,3.531-.842-.168-2.691,1.176 .507-2.018-.507-3.698-.166-3.36 .166-3.363h2.703z" fill="#fab1d7"/>
  <path d="m153.3,51.77-.672,3.698-1.85,3.025-.841,3.194-.504.337h-1.008l-.336-.337-.673-1.177 .504-1.511 .169-1.01 1.175-2.521 .338-3.192 2.015-2.018 1.346-.672-.167,1.68 .5.504z" fill="#fab1d7"/>
  <path d="m158,51.603 .504,2.688-2.354,2.859 1.177,2.521-.169.838-.67.673-.841-.504-3.193-2.186 2.689-4.369 .167-2.858 .84-1.511 1.346,1.176 .49.673z" fill="#fab1d7"/>
  <path d="m139.34,51.097 1.177,9.245-2.688.168-2.858-.503-2.522,1.176-4.874.168-.336-.337 .336-.838-.167-.504 9.749-1.179 1.849-2.688-2.691-2.352 .842-2.69 .673.335 .838-.167 .67.166z" fill="#fab1d7"/>
  <path d="m164.22,59.838 .168.672-.672.169-.336.168-4.034-1.01 1.346-5.209-.504-3.194 .166-1.176 1.514.504 .504.168 1.848,2.522-1.177,3.698 1.17,2.688z" fill="#fab1d7"/>
  <path d="m168.25,53.115-.335,1.849 .335,2.018-1.68,1.008h-.68l-.673-.504v-.673l-.335-2.018 .335-1.849 1.011-1.511h.839l1.01.841 .15.839z" fill="#fab1d7"/>
  <path d="m89.59,52.442-1.514,5.884-1.68,5.713-2.353,5.547-1.01-.335-1.008.335-.841.337-.504.841v.67l.337.842 1.008.672 .841.338 .839.504 1.177,4.033-.335,4.875 .841,4.371-.841-.673-20.003.169-21.011,1.008-21.347-.504-1.177.841v1.68l.336,1.176-2.521.337-2.353.839-2.69-.335-1.007-5.546v-6.724l-.168-5.546h.672l-.672-1.177 .505-.337 4.369-6.051 4.875-5.715 3.025-6.386 .673-.168 .503-.338 .672.169 .336,1.007 .504,1.01 1.176.504 8.573.169 7.396-2.186h8.909l10.084-.839 10.253-2.355 10.421,1.683 1.514-.169 1.514-.335 1.682.165z" fill="#f781bf"/>
  <path d="m105.89,60.342-.504,1.179 .84,1.68-1.175.673-1.345.166-.673-1.008 .169-1.345 .672-2.184 .167-2.859 1.514-1.68 1.848,1.176-1.344,2.522-.19,1.68z" fill="#fab1d7"/>
  <path d="m100.18,56.309-.672,2.354-.841,2.858-1.681,2.015h-.841l-.335-.673v-.839l.504-2.521 .504-2.69 2.187-1.68h.67l.337.504 .17.672z" fill="#fab1d7"/>
  <path d="m110.77,57.822-.169,2.016 .839,2.69-2.015,1.177-2.858-1.514 2.017-3.865-.169-2.521 1.177-1.68 1.01,2.519 .17,1.178z" fill="#fab1d7"/>
  <path d="m215.32,57.316v9.413l.839,4.875-3.528,1.177-4.368.337-3.697-.504-.504-5.042-.338-6.051 .504-5.212 2.186-2.352 3.192,2.687 2.521-1.176 1.345.168 1.512.503 .35,1.177z" fill="#81017e"/>
  <path d="m189.43,56.478-.169,5.378-4.202,4.37-.839,5.547-.169.504-.672.168-.504.169 2.018-5.211 2.688-5.715 1.84-5.21z" fill="#fff08d"/>
  <path d="m202.88,56.644 .169,4.877v11.598l-.839.335-.673.504-.842-.166 .335-5.884-.67-4.706-.673-5.715 1.177.337 .673-1.514 1.33.334z" fill="#e19f75"/>
  <path d="m208.59,56.813 .504.842-.839,1.511 1.008.506 1.343.335 1.683-1.008 .672,1.68v.168h-3.866l-.166,2.353v3.529l3.191-.335 .169.167-2.69.337v1.345l.338,2.185-.673,1.345-.504-1.345 .169-1.849-.673-1.512-.673.166-.842.504-.839-.166-.168-1.514 1.849.337 .673-.506 .166-1.512v-2.018l-.839-1.345-.338.337-.671-.168h-.504l-.336-.335 .168-.841h.839l.842.169 .839-1.177-2.016-2.018 2.19-.167z" fill="#fab1d7"/>
  <path d="m115.14,58.493 .841,1.514-1.345,1.176-.335,1.176-.673.338h-.504l-.504-.506-.84-2.015 .504-1.683 1.175-1.512 1.177-.169v1.177l.5.504z" fill="#fab1d7"/>
  <path d="m285.07,59.503 .169,2.521 1.512,2.522v2.353l-.504.335-.504-.166h-.504l-2.354-2.187-.335-3.025-.842-2.69-.335-.672 .842-.504 .504-.167 1.008.336 .84.335 .5,1.009z" fill="#fff08d"/>
  <path d="m275.83,64.546 .335,1.176 .842,1.008v1.514l-2.354,1.177-.673-2.858-.842-1.343-.503-2.355-1.85-2.856 1.85-2.018h3.529l-2.016,4.539 1.68,2.016z" fill="#fff08d"/>
  <path d="m35.466,58.83-.504,2.353-5.042,7.733-4.538,7.899-5.38,7.564v-1.178l4.203-8.404 3.529-8.909 5.883-7.73 .84-.169 .504.337 .505.504z" fill="#fcd0e7"/>
  <path d="m240.86,66.395-.839,2.521-.504,3.025-1.85,1.85-2.019-.169 .169-2.018 .839-2.184 .504-2.018 .673-2.856 .169-2.69-.169-2.69 .673-.839 1.346-.672 .841,1.008 1.512,2.186-1.177,3.026-.16,2.52z" fill="#fff08d"/>
  <path d="m44.71,58.493 .505,3.362-2.018,2.856-1.176,2.859-2.689,5.377-2.857,5.378-2.354,5.38h-.671l-.336-4.539 2.689-3.867 1.513-4.033 5.883-11.935 .505-.504 .335-.504 .671.17z" fill="#fcd0e7"/>
  <path d="m296.17,66.729-.335.338-.507-.169h-.673l-2.184-1.68 1.176-3.363-.673-2.184 .504-1.01 1.011.337 .839.504 1.346,1.849-.504,3.025v2.353z" fill="#fff08d"/>
  <path d="m192.46,59.503-.839,4.371-2.017,4.033-.504,4.539h-.504l.335-4.035 1.513-3.864 .504-4.204 1.346-1.008 .16.168z" fill="#fff08d"/>
  <path d="m250.62,60.848 .335,4.537-2.017,3.025 1.344,4.371-.672.672-1.176-.166-.504-.506-2.019-2.353 1.515-3.36-.169-3.028 .673-1.512-.842-2.018 1.011-1.176 1.175-.504 1.008,1.177 .35.841z" fill="#fff08d"/>
  <path d="m51.938,61.687-3.362,5.042-1.512,5.884-2.69,5.378-1.008.841-.169-7.229 2.69-6.386 4.706-5.38 1.345-.504-.336,1.68 .336.674z" fill="#fcd0e7"/>
  <path d="m61.183,64.04-2.689,5.38-2.185,5.715-2.018,5.547-1.008.335 .335-1.176-.335-.504 .84-6.892 3.361-5.715 3.025-5.882 .84.673 .169,1.511-.335,1.008z" fill="#fcd0e7"/>
  <path d="m257.34,69.251 .335,1.008 .169,1.01 .335,1.008h-.67l-.842.841-.504-.841-2.352-2.857 .335-4.202 .335-3.531 .338-.504 .84-.335 .672.335 1.513,2.521-1.177,2.69 .66,2.857z" fill="#fff08d"/>
  <path d="m262.55,68.075 .506,1.176 .336,1.68-.169,1.01-.504.336-.504-.169h-.504l-2.521-2.521 .169-4.033-.169-3.195 .335-.672 .504-1.345 1.01.841 1.681,2.018-.673,2.353 .49,2.521z" fill="#fff08d"/>
  <path d="m75.303,62.697-.168,3.865-2.018,3.531-.839,3.698-.504,2.521-.841,2.521-.168,2.519-.504.507-.335.672-.673-.337-1.514-1.346 .167-1.511 .336-1.849 1.177-5.211 1.682-5.043 1.849-4.875 .504-1.511 1.681.839 .168,1.01z" fill="#fcd0e7"/>
  <path d="m269.44,70.259-.335.506-.842.335-.673-.504-2.019-2.186-.166-3.36 .166-2.859 .507-.839 .839.335 .673.504 1.011,2.521 .335,2.859 .5,2.688z" fill="#fff08d"/>
  <path d="m67.233,64.04-.671,6.557-1.681,6.05-2.689,5.547-.841.337-.335-.841 .167-.504 1.009-6.388 2.017-5.882 1.849-5.884 .673-.169 .503.673v.504z" fill="#fcd0e7"/>
  <path d="m193.97,63.874 .335,1.007-.673,1.008-.166,1.01v2.185l.673,2.186-.507,2.184h-.335l.504-3.36-2.689-3.867 2.88-2.353z" fill="#fff08d"/>
  <path d="m174.31,79.168-1.01,1.176 1.177,13.615 1.514,14.456-.842,13.615-.166-.168-.169-.168-.169.168-1.176,2.353 1.345,2.69-.504,2.353 .167,17.481-.335,15.968-.504,16.976 .672,13.111 .167,13.952-.335,13.278-1.515.673 1.18,2.353-.673,1.345-1.345,16.471 .673,18.827-1.011,17.313-6.723,3.025-6.892-2.353-7.899.672-4.37-.337 .842-2.353-.169-3.025-2.018-1.681-.673-.337-.504.673-.335.503-.169,5.715-2.184.169-2.521-.169-2.187-.503-.166-11.767-.338-11.431 1.007-11.766 .842-1.008-1.008-1.008-.337-1.01-2.687-2.015-2.691,3.529-2.857-.337-4.204-.504-4.032-.839-4.036-1.01-2.688,2.017 3.026,3.194-.504,3.026-.338,9.413 .842,11.094-1.346,9.244h-2.855l-2.86.335-2.521-.672 .673-7.9-.504-8.403 1.007-8.572h1.009l2.018.504 .166-1.849-2.522-2.353 3.364-3.363-1.849-2.353-3.362-.169v-2.856l-1.177-3.532-3.026-1.342-4.033-2.69-4.708,2.353-3.361,2.353-.672,1.177-1.177,1.176 .673,1.514 .672,1.176h-.324l.169-.504-.673-.168-.169-.335-.673.167v.673l-.166.506-.506-.506 .506-13.109 14.119-2.522 15.464,1.008h14.96l11.763.503 12.104.842 11.263,1.68 1.177,1.514 1.177-2.017 1.511.335 1.848-3.192-2.521-3.531 .672-3.361 .84-3.194-.335-3.025 .335-3.529-.335-1.01-1.009-.673-.84-.167-8.74.336-8.741-.842-9.245-.335-.338-8.909-.671-10.252 .84-8.741h1.177l.841-.842 .504-.838 .504-2.521-2.857.169-1.009-1.515-3.026-2.183-2.688-2.522-2.689-2.186-.504-.839-.168-1.179-1.177-.504-4.203,2.354-5.042,1.345-3.193,4.202v.506l.504-.168 .336.168 .169-.168v.841l.671.671 .671-.167 3.026-1.849 2.69-2.522 3.193-1.01 6.723,5.715-6.723-.672-7.227,1.849-6.557.169-.672.673-.839.335v1.01l-.169,1.007 .673.842 1.007.335 1.011-.167 1.342,8.235-.67,10.254-.168,8.907-9.583.673-10.589.169-9.749,1.176 .504-5.884v-6.05l.338-6.219 1.511-1.176-1.511-3.025 1.849-1.346-2.018-8.74 2.521-8.907-.503-8.91-.841-4.706 1.514-4.036-.504-4.874-.841-.839-2.018-23.197 .504-23.363-3.36-23.029 10.589.338 10.757.166 11.262-1.512 16.137-1.345 16.135.169 16.472-.504 1.849-.506 2.689.672 1.512-.672 1.18,2.522-.338,3.531 .87,2.891z" fill="#feb835"/>
  <path d="m165.73,75.135-.338,8.572-1.008,8.572 1.512,8.068v.672l-.839.336-.673.168-3.193-1.345-3.19,2.35-3.193-.672 1.009-2.353 3.865.169 2.187-1.514-.504-6.892 .671-6.219v-6.723l-1.344-1.008-2.019,1.008h-1.68l-1.682-.166-1.343-.338-1.177-.839-.672,1.008 .335,7.227-1.177,6.219 .673,7.565-1.681-7.227 .504-8.909 .839-7.565 1.011,1.345 .168-1.849 .839-.169 3.193.673 3.699-.167 2.857-1.179 .84.169 1.007.337 .5.672z" fill="#fff08d"/>
  <path d="m138.5,76.479-1.176,8.236-.842,8.404 1.681,8.405-1.681,2.353-2.521-3.025-1.849,1.849h-2.522l-.842-.841v-.672l.169-.504 .673-.504 1.849-.169 1.68.504 1.177-1.176-.504-7.058 .673-7.23-.169-6.723-2.688-.335-3.531,2.184-2.353-2.857-1.008.169-1.007,7.058 1.511,5.211-1.008,6.724-.503-1.346v-18.819l3.192-1.01 4.708.841 3.361-1.345 1.344.169 1.681.168 .52,1.344z" fill="#ffffcf"/>
  <path d="m109.42,78.833-1.85,5.713 1.681,6.219-.504,5.884 .335,1.512-.504,1.849 1.514,1.177 .673,1.514-1.683.503-.839.504-8.406.841-.838-.337-.507-.504-.166-.838 1.343-2.018 3.028-.338 2.688.506 .504-.672-1.177-6.051 1.177-7.061-1.008-6.05-1.008-.504-1.176.166-.842.504-1.176,2.018 4.875.841-3.364.503-.335,2.354 .335,2.352 .338,2.187 .504.335 1.68-.335v1.345l-.839.167-2.018-.839 .335,1.849 .169.839-.335.841 .504.841-.338.504-.672-.504-.167.504v-4.201l-1.176-.168-1.176-.169-1.179-.335v-.842l1.179-.335 .838.673 1.01-.169 .334-6.892-4.202-.168v-1.008l1.512-.337 2.859,1.345-.503-2.688v-1.346l-1.683.673-.839-.673-.842-.168-.335-1.008-.672-.504-.506.504-.67,7.396v7.228l-.168,7.227-.315-7.389-.504-8.572 1.01-7.396 3.698-1.512 3.864,2.857 3.195-2.353 1.513-.169 1.346.673 .5,1.514z" fill="#ffffcf"/>
  <path d="m158,79.503-.335.841 .166,1.007v1.011l.841.335 1.177-.167 .504.839-.166,1.345-.507-1.007-1.008.335h-.841l-.673,1.849 .507,2.187-.169,2.353 .673,1.176 2.353-1.345-.335,2.018-.673-.338-1.51.169-.335.841-.507,1.176 2.018,1.511-2.018.338-.67-3.194-1.009-.673-1.008,1.68-1.177-1.007 .335-1.515 2.353.842 .505-1.345v-2.018l-.169-2.184 .335-2.018-1.007-1.176-2.186,2.69-.166-2.353 1.008-1.177 2.855,1.512-.166-2.353-.504-.338 .335-.67-.169-.337 .504-.504 .338-.168 .53-.168z" fill="#282420"/>
  <path d="m222.38,81.352-.335,1.346 1.346.169 .672.672 8.235,1.008 8.237-.504h8.235l6.221-.335h7.562l6.22.335 .169.841-1.177.839 1.008.673-1.85.673-2.857.337v2.688l3.364,1.514-4.877,3.025 3.697,1.008 1.18.169 1.177-.335 .671-1.01 1.85-.673 2.015.337 1.515-1.345 .169-.842 .335-1.345-.673-.67 1.85-.841 2.855.672-.166-3.193 7.899-.336 7.899-2.017 8.406.503 .67-.503 .842-.841v-1.007h3.697l-.169.672 .673.673h.338l1.68,14.958 1.85,14.96 1.344,15.464 .504,18.323-2.521,17.983-1.008,17.649-.504-.337-1.01-.671-.673.504-.504.504-1.345,39.835v1.345l-1.849-.673-.673.673-26.894-2.521-27.564.506-26.054-1.179-16.137-.67-14.791,1.008-15.799.168-1.01-.337-1.343-.169 .335-1.511v-23.87l-.841-24.708 .841-24.203 .338-7.229-.338-6.555 .842-6.892 1.008-.168h.504l.84-.504 .504-1.008 .338-9.582 17.313.337 18.317-1.345h17.65l54.964.169 4.539.504 5.548-.504 4.535.335 .842-.841 .839-1.343-1.008-1.01-.673-.839-81.184-.338-14.288,1.01-12.772-.506-13.953-.166-1.681.166 .842-1.849-.338-1.176 4.036.504 4.032-.335 4.035-.673 .504.504 1.008-.673 9.079.673 8.403-1.346 9.076-.335 17.48-1.176 16.472,2.018 17.481-1.85 2.856,1.008 2.857-2.184 2.354,1.68 1.681.169 1.68.166 1.346-.504h2.855l2.691-.168 2.856.337 6.892.169 .169.839 1.008.169 .672.504h1.345l1.008-1.177 .673-1.176-3.697-4.705 2.352-6.22 .842-5.211-1.512-3.194-3.193,2.521-2.187-.168-11.262-.167-1.008,2.184-2.857-2.69-1.01,2.018-.335,4.708 .673,5.209-.169,4.37-5.209.337-7.396-.672-6.22.166-2.69-4.537 2.354-6.219 .672-5.043-.504-.841h-.841l-.504-.673-6.051.506-6.388,1.512-6.051-1.345-1.514.673 .842,2.521-2.185-.672h-1.684l-.839,14.119-24.035.672-.841-4.874-.169-6.388 1.177-4.537 .503-1.345-1.176-1.346-1.177-.504-1.681-.168-1.343.503-1.177,1.011-4.203,1.176-5.713-1.008-4.54.671-1.848,5.546 1.344,6.557-.504,6.05-3.697.504h-4.369l-3.699-.504-.842-23.867 15.13-1.683 14.453,1.849h14.94z" fill="#a8c0aa"/>
  <path d="m130.77,82.698 .504.672 2.187-.839-.673,1.681-.503.335-1.011-.504-1.008.169 .504,6.05 1.011,1.007 1.511-2.352v2.017l-.841.673-1.177-.169-.504,1.177-.504,1.345 1.515,1.68-1.515.842-.504-4.202-1.176-.673-1.513,1.512-1.007-1.343 .839-1.345 2.186,1.007 .672-1.345-.503-2.184 .672-1.681-1.01-1.849-.84.167-1.344.168-.84-.503 .504-2.018 4.201,2.353-1.176-3.698 1.345-1.007-.839,2.353 .85.504z" fill="#282420"/>
  <path d="m230.44,86.396 .169,1.01-.842.839-.839.504 1.681.169 .504,1.68 .504,1.179 .169.839-1.008.672-.673.337h-.504l-.673-.337-.169.504 .673.673 .169.841v1.177l-.169,1.514-2.689-1.01 .673,1.68 .84.506v1.849l-2.017,1.681-3.194-.673-2.352,1.008 .336-3.698-6.219,2.69 2.015-4.539 3.699-1.85-2.185-1.008 2.521-3.363-2.352-1.007-.338-1.345 .673-2.353h1.85l3.023-.842 3.364-2.184 3.024,1.511 .35,1.346z" fill="#c7d8c9"/>
  <path d="m207.42,89.254v9.749l.673,4.874-15.799,1.176-.673-1.176 .504-1.849-.169-1.008-.167-3.698-.673-4.204 1.344-3.192 4.709.335 5.547-.168 4.71-.839z" fill="#025a54"/>
  <path d="m284.74,90.934 4.204.673 4.535-.673 4.709-.168-.503,4.202-.842,4.708 1.68,4.202-5.548-1.176-5.546,1.849-5.716-.841v-4.033l-.672-5.547 .506-4.371 1.343-.168 .842.841 1.01.502z" fill="#025a54"/>
  <path d="m241.54,90.766 5.212-.168 4.705-.167 5.211-.337 .169,4.035-1.513,5.043 2.017,3.864h-19.665l-.169-4.202 .169-4.202 .504-4.37 1.177-.335h1.512l.67.835z" fill="#025a54"/>
  <path d="m76.479,90.766 1.007,2.521 .673,2.521 .673,2.521-1.008-1.345-.842-4.202-3.025,1.007-2.184,2.858 4.202,2.016 .169,2.859 4.874,13.951-.337,5.546-1.177,5.38-.335,5.546v1.512l1.681-.335 .672.838 1.177-.166-.169,1.512-1.177,2.521 1.681,1.007 1.849.338 3.028,15.126-1.683,16.136-.673,15.633-.334.504-2.859,26.895-.335,27.396-.335,27.399-1.01-15.799 .337-16.305-1.01-15.967-.335-7.899-.169-8.068-1.008-7.564v-.841l.673-1.007-.506-1.01-.839-1.008-1.177-.842-1.176.507-1.01,1.512 2.353,25.718-.839,27.9 2.018,25.549-6.557,1.008-.169-.504-.166-.504v-.672l.335-.168 .673-.504 .168-.503 .168-10.253-2.859-9.582 .504-9.748-3.361-2.521 3.699-5.547-4.036-1.681-1.68-2.858-2.69-1.511h-3.026l-5.714.839-1.514,6.388-2.017,4.202 1.849,1.683-1.512,10.084 2.521,9.413 .336,10.086-7.564.166-8.404.506-7.059-1.01-2.522,1.849-5.546-2.522-.336,4.371-.671.169-.505.335-.84-.166-2.017-27.23-1.344-29.079 .84-27.398 .504-26.892-3.865-25.55 1.345-26.389 .671-5.546-2.521-5.042 .671-5.212v-2.353l3.867-.503 4.202-.842 3.867.673 .84-1.008 11.262-1.01 12.27,1.179 11.597-1.179 14.791.141z" fill="#fb805f"/>
  <path d="m81.522,92.615v-.839 .839z" fill="#fff"/>
  <path d="m249.1,95.64 4.369.506-.169,1.008-1.176-.168-3.024-.673-.337,1.345-.671,1.681 1.848,2.186-2.017.839-1.177-1.68 1.85-2.353-1.346-1.345-1.85-.336-2.689,1.681-1.008-1.849 5.716-.673 .84-1.177-.671-2.352 1.175-.504 .34,3.868z" fill="#bfe6b8"/>
  <path d="m201.87,95.809 1.514.504 1.849-1.681 .84,2.018v.504l-1.346-.841-1.68.841h-1.512l.335,5.043-.842.504-1.008-1.514 1.008-2.522-1.008-1.512-1.681.336-2.352.168-1.346-.335v-.673l1.85-.504 2.352.504 1.515-1.176 .166-1.177-.839-1.345 .839-1.01 1.515.673-1.515,2.521 1.37.671z" fill="#bfe6b8"/>
  <path d="m292.3,96.649 3.697.504v.842l-1.177.335-1.681-1.345-1.007,1.345-.169,1.176 1.007,1.681-1.175.672h-.504l-.169-1.68 .673-2.857h-1.85l-4.538-.673-.168-.168 1.512-1.177 2.188,1.512 2.015-.167 .506-4.708 2.015.504-1.848,2.522 .67,1.681z" fill="#bfe6b8"/>
  <path d="m30.928,99.338 .673-1.177 1.176-.672 1.177.672 2.354,2.018-2.69,2.353 .168,2.521-.504,5.547 .504,5.546 .336,5.716-2.017,1.512 2.017,2.186-1.177,2.019-3.865-2.019-4.034,2.185-3.867.337-.335.335-.336.169-.505.169-1.176-5.884 .504-7.059-1.008-6.219 .167-.337 .169.168h.167l1.345,5.715-.673,5.716 1.177,5.881 1.177.842 1.009-2.355 1.176,1.345 2.69-.335 2.689-.841 2.857.672 .167-1.176 .504-2.521-2.017.168-.84-6.219-.168-6.892 .335-6.554-3.361-1.177-4.538,1.511-2.522-3.194-.336-1.007 .84-.842 .84-.166 3.026.67 3.362.506 3.363.157z" fill="#fdd0bb"/>
  <path d="m75.472,101.36-1.176,8.74 .67,10.421 1.514,8.572 .503.673 1.514,1.176-1.176,1.176-1.01.169-.839.335-1.176-.67-4.876.335-5.715.672-4.707-.841-.672-.335-.84-.841 .504-.839 1.177-.841 4.202.335 5.043-.167 4.202-.841-1.681-7.73 1.008-8.406-.839-8.237-1.849-.167-2.187.335-2.017.168-3.025-.672-3.698,1.345-2.858-1.849-1.513,2.184 1.849,2.019-.671,2.352 .167,5.043 .504,6.05 .505,5.211-.505.169-1.512-7.902-.673-8.907 .673-7.733 3.026-2.015 4.538,2.015 4.034-.503 3.026-.169 2.521-1.177 3.025.169 1.01,1.19z" fill="#fdd0bb"/>
  <path d="m23.7,104.21 .672,1.514-1.008,3.363 3.026-.337 .168.169v.503l-.672.842-.673-1.01-.84.337 .169,1.681-.673,3.025 1.177,1.849 1.345-.335h1.177l1.513.335-.673,1.177-2.017-.504-1.345.338-.504,2.015 1.344,1.683-1.344,1.849-.505-5.043-.84-.841-2.185,1.68-.167-1.68 .84-.673 1.512.504 .84-.839-.336-2.187 .336-2.688-1.176-1.514-1.009-.168-1.008-.167-.842-.672-.167-.506 .336-.335 .504-.169 .673.504h1.009l.671.337 .672-1.345-.84-1.512 .167-1.179h.673z" fill="#bd0020"/>
  <path d="m86.565,105.22 .167,1.85-.167-1.85z" fill="#fff"/>
  <path d="m65.385,109.93h2.354l.84.504 .168.673-.335.504-.505.169-.167-1.008-1.513.672-.841-.168-.84,2.69 .84,2.184v2.859l.841.67 2.689-1.343-.673,2.184-1.177.169-.672-.504-.84.673v2.184l1.345,2.353-1.514,1.514-.336-1.85v-2.521l-.671-1.849h-1.682l-2.688.839-.84-1.681 1.513-.672 2.352.672 1.346-.503-.336-7.564-1.681-.336-2.017.839-1.346-.503 .504-1.681 2.69.841 1.344-.841 .169-3.529 1.68.166-.84,2.187 .839,1.02z" fill="#bd0020"/>
  <path d="m167.92,110.94 .169.336-.504.335-.338.169-18.49-2.354-20.003-.168-18.824,1.849 6.388,1.514 7.396-1.345 6.723,1.007 12.101-.335 12.104.504 11.26,2.353-1.177,1.849-1.68-2.353-1.513.337-16.137-2.186-17.816.504-16.137-.335-2.519-.673-2.691.335-2.186-1.176-2.857-.335-2.521,1.511-2.521-1.007v-.336l.337-.337 .335.169 23.868-1.177 24.204-1.849 23.04,3.22z" fill="#b84723"/>
  <path d="m170.27,121.19 2.352,1.345-2.521,1.849-.167,1.68-.671,6.555-.673,7.565 1.177,6.219 .335,1.848-1.681-.168-1.008.506-4.708-.841-4.7,1.51-4.539.839v-.673l-.67-.335h-.506l3.362-3.698 5.044-.338h5.042l.335-6.554-.673-7.564 1.514-6.554-3.194-2.018-4.539,1.514-3.193-2.355v-.166l-.336-.169v-.169l-1.008.338-1.344-.504-.337,1.342-1.008,8.069 .504,6.556-.673,8.234-.504-.672 .335-8.066-.839-7.398 1.177-8.234 5.715-3.025 6.554,3.698 6.06-.19z" fill="#fff08d"/>
  <path d="m144.55,120.52 .169,1.177-.841.841-.169,1.007-1.346,8.069-1.007,7.564 2.353,7.73-.673,3.531-4.37-3.025-2.353,1.511-1.511.673-1.848-.169-1.514-.335-.335-.673-.507-.503 .169-1.01 2.522-.672 3.193-.166 3.026-.338-.335-7.396-.507-7.396 1.177-7.396-3.192-1.345-3.531,1.683-2.857-1.345h-.672l-.673-.168-.169.841 .338,6.723-1.513,7.059 1.009,6.892-.338.504-.839-1.177 .167-7.73-.336-6.219 .673-7.733 .839-.67 .842,1.007 .841-.672 3.361-1.681 4.539,1.177 3.36-1.177h1.009l1.177-.168 .68,1.18z" fill="#fff08d"/>
  <path d="m112.28,124.22 .167.504-.336.504h-.335l-1.008,3.194 1.175,4.035-.671,3.026-.338,3.698-.335,4.539 1.681,3.192 .167,1.345-.84,1.011h-1.346l-3.529-1.179-4.705,3.698-2.69-3.53h-.16l2.017-1.511 3.026.335 2.186-.841 .671.506 .671-.337 .507-.504-1.011-6.555 1.346-6.892-.842-6.388-3.19-.504-3.698.336-3.194-.84-.337,7.228-.673,6.892 .169,6.723-1.512-6.892 1.512-7.73-.504-7.902 .672-.839 1.512.672 .842-.503 3.529-.337 3.362,1.514 3.195-1.683h1.345l1.679.506-.18,1.51z" fill="#ffffcf"/>
  <path d="m200.69,124.38 12.437.335 .673.673 .672,1.176-.504,1.011-.841,1.176-1.849,7.899 1.176,6.892 1.01,7.9-.504,1.345-1.682-.673-.839-.168-2.857-1.512-3.024,1.177-3.194-.504 .169-.841-.842.168-.335-.337 1.85-2.857 4.2,2.018 2.857-1.011v-6.385l-1.008-7.229 1.174-6.385-.501-.337-3.698.168-4.539-.337-4.032-.504h-1.18v-2.018l-1.511,1.01v-.337l.169-.336-.338-.168h-.504l-.335.168-.169.504 .335,7.228v6.725l.842,6.89-.169.169v.337h-.335l-.504-.673-.673-7.229 .166-7.899-.671-7.227 3.026.335 3.192-2.521 2.66,2.18z" fill="#ffffbf"/>
  <path d="m136.99,128.42 .842.673-.842.841v.673-.841l-.673-.673-.838.337-2.186.84 1.513,2.521-.505,2.018 .505,1.177 1.342-1.008 .673.504-.335,1.008-1.513-.336-.673,1.008v4.875l-.335.168-.336-.168-.336-.335 .336-1.514 .167-2.016-.504-1.514-1.007.169-1.515.504-.504-1.008v-.506l.842-.167 1.177.336 1.007-.504 .673-1.515-.504-2.184 .167-1.68h-3.697l.335-1.683 2.185.842 1.178-.842 .167-1.176 .169-1.681 .167-1.345 2.522.504-3.531,5.043 3.87-1.34z" fill="#282420"/>
  <path d="m294.65,125.56 1.011-.337 1.346-.671 1.008.84 1.007,1.176-1.511,1.011-.504.838-.842,5.715-.504,5.043-.338,5.715-.504,2.184 4.035-1.007-1.682,2.521-1.177,1.008-5.043-.169-5.546.842h-4.706l-.842-.504-.335-1.346 .673-.672 3.698-2.184 4.37,2.687 4.033-2.017-.167-5.713 1.176-6.219 .335-5.884-3.865-.838-4.707,2.015-3.528-2.857-.673.169-.503-.169-.507-.504 .169-.504 .169-.337 .504-.336 2.521-1.176 1.512,2.521 2.521-.673 7.38-.17z" fill="#ffffbf"/>
  <path d="m159.85,128.75 1.177.504 1.68.168 .336,1.512-.84.169-1.007-1.008-1.177.335-.169,1.849-.504,1.68 .169,2.019 2.521.168-.505,1.346-3.192-.338 1.177,2.186 .504.673-.169,1.177h-1.008l-1.176-.842 1.68-2.018-1.35-.83-.842-.169-1.679.504-.336-1.008 1.007-.673h2.354l.672-1.514-.335-2.184-.169-1.682-1.176-.839-.842,1.512-1.344-.504-.335-1.849 2.855.841 1.01-1.176 .335-1.176-1.007-1.177 1.007-1.01 .673.504-.335,1.849 .33,1.01z" fill="#282420"/>
  <path d="m257,127.58-.841,3.864 1.346,4.371-.842,3.698v9.245l.842,4.54-1.009.504 .504,1.68-1.512.169-2.188-1.177-3.025,1.346h-2.352l-3.195-.338-3.36.338-2.858-1.008-.504-.169 .169-.673v-.504l1.512-.841 4.707.169 5.043.335 4.537-1.008-.673-7.396 .842-8.74-.842-7.227-4.537,1.68-4.708-.672-4.535-1.008 .166-.338h-.335l-.169-.335-1.177.335-1.346-.166-.839.839-.505,6.723v7.229l.169,6.724-.504,1.345-.504-.506-.169-7.731 .673-7.228-.169-7.732 6.051-3.529 6.726,4.706 6.219-3.53 1.681-.168 1.512.337v1.88z" fill="#ffffbf"/>
  <path d="m278.85,126.57-.504,6.724-.169,5.884 .169,6.554h-.673l-.671-6.723 .671-6.388 .169-6.555 .504-.168 .504.168v.51z" fill="#ffffbf"/>
  <path d="m105.56,131.11 .167.504 .336.337-.169.335-2.184.168 .672,2.015-2.353,5.884 4.37-1.008-2.186,1.177-.335,1.345 .839,2.016-1.345.504-1.008-1.177 1.681-1.511-1.343-1.01-1.346.506-1.345-.506-1.007-.336 .166-1.68 3.194,1.849 .673-1.683-.335-2.184 .166-2.353-.839-1.849-1.176.167-1.345,1.345-1.176-1.007 .335-1.849 2.353,1.176 1.01-1.176 .504-1.008-.504-1.514 .504-.672 1.849.168-2.187,4.202 3.37-1.17z" fill="#282420"/>
  <path d="m204.56,137.33 .672.335 1.344-.335v.841l-1.344,1.008-1.514-1.345-1.511.841-.338,2.521 1.177,3.192-1.008,2.354-.504-.506-.507-7.562-5.378-.504v-.672l5.043-.169 .504-2.521-.504-2.69-.335-2.352 .504-.673 2.688,2.018-4.202,7.227 5.21-1z" fill="#ffffbf"/>
  <path d="m285.91,137.16 1.343.504 2.188-1.68 .841,1.68-1.683.337-1.85-.337-1.344,1.01 .336,5.209-.504.168 .335.673h-.504l-.671-6.388-1.177-.166-2.187.67-.839-1.007v-.504l1.511-.169 1.684.504 1.175-.839-.167-1.683-.169-1.849-.168-1.343 2.016.839-1.344,3.025 1.18,1.36z" fill="#ffffbf"/>
  <path d="m245.4,139.01 1.85-.335h2.017l1.681.335-.504.841-1.513-.168-1.008.337-1.008-.169h-1.346l-.504.84 .504,7.229-.169.334-.335.169-.507-.169-.504-7.73-4.873-.337v-.84l4.707-.168 .67-2.187-1.176-2.353 .672-2.018 1.515,1.849-1.011,2.355 .85,2.19z" fill="#ffffbf"/>
  <path d="m37.651,141.19-.672,2.184 1.849,25.38 .169,1.681 1.177.672-1.009,1.514h-4.202l-5.042.673-4.538.335-1.177.169-.505-.842-1.008-.335-.336-1.345 .84-1.007 1.176-.169 10.59-.673-.336-8.403-.336-8.741-1.345-8.741-4.202.336h-3.361l-3.867-.336-1.344-.503-.169-1.345-.167-1.346 1.85-2.018 2.521,2.354 2.353-.167 5.883-.337v-1.512h1.681l1.008-.504 1.346.67 .167,1.514 1.006.85z" fill="#fdd0bb"/>
  <path d="m75.976,141.02-1.68,5.882 .335,5.715-.335,5.884-.338,3.529 2.353,4.371-2.688,2.352-5.717-1.514-5.211,1.514h-6.892v-1.176l.169-.673 4.371-1.848 5.714.168 4.707.167h.168l.169-.335 .166-.169-1.007-7.227 1.176-7.396-.169-6.892-4.874-.504h-5.546l-4.875-1.008-.169,7.058 1.345,7.9-.84,6.723-.505.338-.336-1.177v-15.464l-.84-6.892 1.008-.335-.168,1.177 .336.504 2.018-4.036 5.546,2.859 3.194-.504 3.529,1.681 4.036-4.54 1.85,3.86z" fill="#fdd0bb"/>
  <path d="m18.153,143.38 .841,7.899 1.513,7.564-.673,7.9h-.168v.168h-.168l-.168-8.572-1.849-8.067-.671-8.237-.505-.167v-1.178l.505-.167 1.008.335-.167,1.514 .502,1.03z" fill="#d5228d"/>
  <path d="m63.536,145.9 .505,1.176-.673,1.849 .84,1.177h3.194l.336.337-.336.839-.336.337-.672-1.01-1.345.506-.84.167-.673,1.849v2.018l.673,2.018 .84-.169 1.514-.335 .84.672v.504l-3.025.503-1.009,2.018 2.185,2.688-1.849,1.346-.673-1.85 .84-2.521-1.177-1.512-1.68-.337-2.354,1.849-.336-1.681 1.176-1.007 1.849.335 1.514-.335-.504-1.683 1.345-2.521-1.177-1.511-1.512.167-1.849.337-1.345-.672-.169-.672 .673-.335 .336-.168 .839,1.176 1.682-1.008h1.345l.671-1.345-1.007-1.68 .672-1.514h.672z" fill="#bd0020"/>
  <path d="m26.558,146.4 .168,1.345 .167,1.345 .168,1.345 1.514.839 2.52-1.68 .169,2.184-.505,1.01v-1.514l-.839.337-.84.335-1.682-.672-.336,1.345 .336,5.884 .841,1.008 2.185-1.51-.169,1.849-4.706-1.343 3.698,5.041-2.017,1.515-.84-1.177 1.008-2.522-1.008-1.176-1.512.168-1.514.504-1.344-.504 .336-1.849 3.193,1.512 1.009-1.512-.503-2.017 .839-2.522-1.176-1.849h-1.513l-2.017,1.849-.84-1.849 1.345-.841 2.017.337 1.513-.504v-4.708h.335z" fill="#bd0020"/>
  <path d="m165.56,156.15 1.008.673-.504.672-18.489-.839-20.339-3.363-18.319,4.035v.167l16.976-1.345 14.792,2.186 16.808-.503 3.699.335 3.359,1.514 3.698.335 .169.504-.504.168-.335.337h-2.691l-3.866-1.683-3.361-.672-17.313,1.176-17.65-4.371-16.808,3.867-1.008.169 .335-1.008-.335-.337-1.345-.335-.839,1.849-1.179-1.177 2.69-2.186 4.035.841 3.192-1.345 18.322-2.857 17.313,3.53 18.48-.32z" fill="#b84723"/>
  <path d="m214.31,165.9-1.008,15.63-.169,15.129 .841,14.96-.841,1.343-2.015-.839-1.011,1.177-.839.169-.673-.169-.504-.673-5.211.504-7.563,1.345-4.371-3.026-.336-3.362 .336-4.202-.336-3.698-.839-7.564 .839-9.244-.839-7.731 .335-.168-.169-.168v-.167l1.009-.168v1.176l.841.335-.168-3.192 .504-3.532-.84-3.36 .671-1.177 1.177.504 .842-.337 .672.337 5.882,1.008 4.708-1.849 5.545.169 1.01-1.008 1.849.672 .67,1.17z" fill="#cfecc8"/>
  <path d="m165.73,168.08 .839-.169 1.01,1.01 .67.673-.166,1.176-.504.672-.506,1.007-.839,8.741-.673,8.907 1.512,8.575-1.177,2.352-2.015-2.859h-1.682l-2.688-.839-2.522,2.018-2.689-.672-.169-.507-1.343-.839 1.008-.672 2.521-1.849 3.699.672 3.024-.168-.671-7.731 1.008-7.396 .336-7.565-3.193-.672-3.53.503-2.858-1.007-1.68,5.882-.169,6.219-.335,6.723 .169,4.202-1.346-4.706 .504-6.219 .504-5.209 .504-3.531-.335-4.202 2.353-2.857 3.362,1.007 4.706,1.681 3.37-2.34z" fill="#ffffcf"/>
  <path d="m108.25,169.6 .504-.842 1.176.169 .673.335 1.681.842-.673,1.511-.335,1.177 .335,10.423-2.018,9.917 1.849,9.58-.67,1.008-1.514-.504-.842-.167-3.528-1.849-4.371.839h-3.698l-.504-.839 .504-1.179-.504-.838 3.529-.504h3.698l3.697.504 .338-.338-1.176-8.572 1.849-8.741-.673-8.234-2.354-1.514-3.026,1.849-2.521-1.177-1.008-.335-1.008-.168-.841-.337-1.849,4.708 1.849,5.715-.842,4.706-1.176,5.209 1.849-6.554-3.192-9.245 2.688-7.06 .504.506 .506-.842 .504-.168 3.194,1.514 3.529-.338 3.84-.17z" fill="#fff08d"/>
  <path d="m209.94,168.59 .166,13.952 .169,12.943 .169,13.95-4.706.337-5.378.335-5.043-.335-1.849.672-.169-10.927-.335-10.59-.673-11.598 .504-7.899 6.387.504 4.707-1.681 6.05.36z" fill="#325d3d"/>
  <path d="m293.98,170.61 .67,1.848-.166,9.749-.338,11.431-2.015,9.245-.337,2.521 .504,2.856 .504,2.353 .671.169 1.346-.169 .338.841 .673,2.857-3.867-1.68 .336,2.69h-1.346l.169-.506-.335-.335-.504-.169-14.625.841-1.177-.504-1.512-.168-.169-1.514-.168-1.008 1.007-.841 .507-.67-.169-13.784 .673-13.615-1.177-13.446 1.177-.842 6.051,2.018 7.396-2.859 5.9,2.68z" fill="#cfecc8"/>
  <path d="m257.34,169.43 .673.504v2.018l-.504,1.849 .166,26.22 .169,1.849v2.69l-2.017,1.008-.168,2.355v2.857l.841,2.184-.169.507-.168.672v.504l-7.059-.672-6.221.504-6.891-.169-1.85,1.849 1.513-3.36-.84-.504 .504-13.28-1.343-11.935 1.848-13.278 .335-1.514-1.175-3.53 2.689.504 6.219,1.346 7.059-1.85 6.39.67z" fill="#cfecc8"/>
  <path d="m253.47,173.3 1.008,9.917-1.512,11.26 1.85,9.582v7.396l-6.052-2.186-7.06,2.522-6.052-1.85v-3.192l-.671-3.866 .504-3.026-.337-7.229 .673-8.234 .673-7.902 .504-4.537 2.688,1.007 13.79.34z" fill="#325d3d"/>
  <path d="m204.22,177.16 1.01.169 1.008.338 .503,1.008-.167.841-1.177-1.01-1.512-.167-1.68-.168-.338.504v9.075l1.345.504 2.857-1.008 .168,2.187-1.68.167-2.018-1.345-1.008,1.514 .504,7.564 1.176.839 2.185-.839 1.177.673 .671.335 .338-.841 .335.506-1.68,1.008-2.521-.335-1.68.335-1.011,2.521 2.355,3.698-2.521,1.513 .335-2.521-.169-2.187v-2.856l-1.681-.673-2.183.504-1.515-1.008 .673-.842 2.521.504 1.681-.168 .169.168 .335-.504-.335-7.899-5.043.335-.169-.335-.67-.337 .504-.335 1.681-1.008 2.689,1.343 1.177-1.512-.169-3.025 .673-3.698-1.008-2.521h-1.682l-1.681.839-1.515-.671 .842-1.851 2.521.841 1.681-.504 .338-4.706 2.521.839-3.532,5.38 4.39-1.15z" fill="#cfecc8"/>
  <path d="m291.12,172.96-.169,11.767-.166,13.615-.338,12.27-5.379-.167-4.034,1.511-5.378-1.008-1.346-5.38 1.515-4.537-.842-5.715 .169-22.524 5.212.672 6.05-.166 4.71-.32z" fill="#325d3d"/>
  <path d="m102.2,177.83 .673,1.177 2.018-1.343-.169,1.849-2.522.167v7.061l.842.841 2.522-1.179-.169,2.187-.839-.504-1.01.335-.839-.169-1.011,1.01 1.346,2.184-1.514.673-.167-1.008-.337-1.176 .168-1.01h-3.7v-1.008h1.177l1.849.169 .841-1.345-.503-7.227h-1.345l-1.176.839-1.514-.166v-.842l2.018-1.008 3.529.336-.841-3.53 .168-.168v-.338l.338.169 .839.672-.673,1.345v1.01z" fill="#282420"/>
  <path d="m246.92,179.68 1.681.672 2.183-.504 1.346,1.176-.167.673 .336.841-.504.504-.169-.337-.169-.335 .169-.336-1.177-1.01-1.681.504h-1.513l-1.008,1.85 .839,2.858-.504,2.353 .673.504h4.874l.169.337 .672.167-.338.504-5.377.168-.839,2.353 .504,3.363-.169,2.69 1.008.335 1.177.169 1.344-.169v.841l-1.175.335-1.512-.335-1.011,1.008-.166,4.539-.507.167-.166-.504-.169-.335 .169-1.514 .335-1.512-.673-1.176h-1.177l-1.513.838-1.008-.838 .504-1.176 2.017.67 1.177-.838 1.346-2.69-1.346-2.521 .338-3.195-1.18-.672-3.024,1.514-.335-2.184 1.176-.337 1.849.337 1.346-.337v-2.521l.842-2.857-.842-2.187-1.515.169-2.352.504-1.511-1.008v-.337l.166-.504 .504-.166 1.682.503 1.849-.337 1.512-.335-.166-1.681-.169-2.186 .673-1.345 1.008,1.01v2.184l-.33,1.75z" fill="#cfecc8"/>
  <path d="m283.73,175.82v3.192l.84,1.179 1.85-.169 2.019-.169 1.68.673v.672l-5.715.335-.169,2.018-.335,2.018 .167,2.184 1.512.842 2.691-.338 .504,2.018-4.539-1.008-.504,3.361-.335,2.859 .335,3.194 5.547.335-1.346.841h-3.866l-1.513,2.015 1.85,2.69-1.177,2.353h-.169l-1.008-2.857 3.024-6.219-5.884,1.008v-.839l3.698.504 .338-8.741-1.515-.672-1.849,1.514h-1.343l.335-1.85h2.521l1.512-.506 .673-1.849-.335-2.688v-1.849l-1.177-.673-2.859.673 .169-1.849 1.177-.169 1.01,1.008 1.343-.67 .673-1.683-1.177-2.521 .842-1.176 .52,1.04z" fill="#cfecc8"/>
  <path d="m159.01,174.98 1.011,1.511-2.353,3.531 3.361-.841 .504.503v.337l-.504.504-.335-.335-.842.166-.673-.166-1.007,2.184 .503,2.184 .169,2.355 .673,1.008 1.681-1.176 .672,1.176v.335l-2.86.506-.838,1.343 1.849,2.018-2.02.51-.335-3.698-1.177-.167-1.178.504-.839-.672-.169-1.008 1.008-.169 .505.169 .673-.169 1.343.673v-7.564l-.839-.504-2.353,1.68 .167-2.184 1.009-.841 1.681,1.007 .504-1.343 .504-3.362h.53z" fill="#282420"/>
  <path d="m70.091,177.83 .673.169 .337.337 .335.336-1.345,8.909 1.345,9.411-.335,8.572-.672.672-1.514.169-1.009-.673v-.168l-3.361,4.539-6.556-3.025h-4.538l-.504-.336-.169-.506 .169-.504v-1.007l1.513-.337 1.007-.167h3.53l3.362,1.176 3.697-1.01 1.345.337-.169-23.197h-4.202l-3.698-1.511-4.202-.337-.504-.672v-.839l-.167-.842 .335-.335 .672-.337 .505-.168 4.538.672 4.707,1.179 4.875-.49z" fill="#fdd0bb"/>
  <path d="m138.34,176.83-.169,10.086 .672,9.245-.335,9.58h-16.137l-.504-9.076 1.177-9.245-.673-9.582 4.874-.673 5.717-1.511 5.38,1.17z" fill="#b85d26"/>
  <path d="m39.164,181.87 1.346,1.68-2.354,1.008 .167,1.849-.503,7.396-.336,8.74 1.849,7.229v.839l-.673.673h-2.352l-.673.168-1.177-.504h-3.026l-3.698.673-2.856-.506-.169-.167h-.167v-.337l.671-.335 10.253-.169-.167-3.529-1.009-3.867 .168-3.867 .335-13.446-.671-.335-4.202.166-3.026-.504-4.034-.673-.504-.839v-.673l.504-1.01 2.521-1.007 2.689,1.513 2.688-.168 3.363,1.176 2.354-3.698 2.689,2.52z" fill="#fdd0bb"/>
  <path d="m65.049,188.76h.672v1.008l-1.344.673-3.362-2.018 .671,3.194 .169,3.698 1.343.841 2.186-1.01 1.009,1.682-4.202.335-.336,1.177 .672,1.849-.841,1.345h-.336l-.671-1.68 1.007-1.683-1.176-1.008h-1.513l-1.345.504-1.513-.504-.336-.503 .842-.337 .503-.167 1.177-.506 1.849.841 .673-1.176v-5.71l-1.177-.503-2.689,1.176-.169-1.68 4.035-.504 .672-1.514-1.009-1.849 .672-1.177 1.681,1.515-2.521,5.546 4.707-1.87z" fill="#bd0020"/>
  <path d="m28.743,187.58 .336,1.68-1.345,4.034 3.698-1.346 .336-.166 .336.335 .168.169-.336,1.681v-1.346l-1.85.673-.841-.167-.336,1.512v2.353l.336,1.683 1.008.166 1.177.169 1.009.169-.336,1.007h-1.513l-1.008.168-.84,1.849 1.681,1.849-.841,1.512-1.177.337 .673-1.345-.504-.335-.169-1.01 .169-1.512-.336-1.176-1.177-.506-2.521,1.514-.336-1.514 1.177-.838 1.68.335 1.177-.839-.336-5.211-1.345-.673-1.849,2.187-.673-1.85 1.009-1.01 2.689.673 .168-1.849 .504-1.345-1.513-2.015 1.513-.673 .338.71z" fill="#bd0020"/>
  <path d="m87.573,190.27-.335,6.892 .335,4.202-.841,6.892-.673.169-.838.169-.169.839 .841,3.698-.337,5.715-.503,3.867-.169.335-.673.169 .338.504-.169-9.414 .169-9.411 1.345-8.406-.337-2.184 .673-2.355 .337-2.353h.503l.504.168v.51z" fill="#f74377"/>
  <path d="m114.97,209.1-.504,12.27-3.697.168 .335-4.371-.673-3.866 .169-4.706h1.344l2.522-.842 .51,1.35z" fill="#feb835"/>
  <path d="m109.26,208.6 .169,4.706 .672,3.529-.672,4.708h-2.858v-3.867l-.673-5.042 .505-3.867 1.007.169 .842-.504 1.01.16z" fill="#feb835"/>
  <path d="m119.84,208.6 .169,4.033-.505,4.371v3.867l.336.335 .504-.504 .169-4.202 .335-4.036 .672-3.864 2.188.166 .503,4.371-1.514,4.371v3.867h-6.892l-.335-4.54 .168-3.867 .839-4.368h3.37z" fill="#feb835"/>
  <path d="m126.9,209.77 .168,3.529-1.511,4.706 1.848,3.363h-3.697l1.511-12.774 .842-.169 1.007.169-.17,1.17z" fill="#feb835"/>
  <path d="m134.64,211.11 .504,10.927-1.512-.337-1.513.169h-1.681l-1.683-3.867 2.187-4.875-.673-4.537 1.85.166 3.193-.839-.68,3.2z" fill="#feb835"/>
  <path d="m139.51,222.04h-3.364l-.503-13.446 4.202.166-.34,13.28z" fill="#feb835"/>
  <path d="m144.55,208.76 .504,4.708-.841,4.537 .337,4.371-3.866-.167-.169-4.371 .336-4.708 .336-4.371h3.36z" fill="#feb835"/>
  <path d="m149.09,210.61-1.008,11.6 .504.504 .671-.504 1.176-13.111h2.691l-1.007,4.371v4.705l.672,4.371h.167l1.01-4.371-1.683-5.715 2.691-3.36 .335,1.848-.167,12.439-9.917-.842 .673-3.867-.338-5.377 .673-4.371 1.176.169 2.186-.504-.49,2.01z" fill="#feb835"/>
  <path d="m102.7,221.54h-3.028l-.335-3.867 .503-4.874 .673-3.698h1.514l.68,12.44z" fill="#feb835"/>
  <path d="m98.332,221.54-.842.504-1.345-.337-.839.169-1.345-4.203 2.353-3.866-.841-4.202 1.01-.337 1.176.169h1.008l-.335,12.11z" fill="#feb835"/>
  <path d="m161.03,209.77v4.37l.169,4.706-.338,4.202 .506.504 1.008-4.202v-5.043l-.336-4.537h2.016l.841.504 .335,4.537-.839,4.708-.168,4.539-5.715-.337 1.514-4.54-2.353-4.537 1.849-4.539-.169-.672 1.67.34z" fill="#feb835"/>
  <path d="m94.634,211.28-.506,3.698-.336,3.193 .336,3.867-.504.336-1.008-.167h-.673l-.841-3.7 .841-4.705v-3.867l1.008-.166 1.849-.672-.166,2.19z" fill="#feb835"/>
  <path d="m90.263,209.94 .672,4.036-.506,4.033v4.204l-.67.335-.841-.168h-.842l-.504-3.699 .842-4.37-.338-3.864 .673-.168 .504-.504 1.01.17z" fill="#feb835"/>
  <path d="m167.58,211.96-.338,4.202-.503,4.205 .503,4.033-2.353-.168 .504-4.537 .842-4.708v-4.706l1.007-.169 .338,1.008v.86z" fill="#feb835"/>
  <path d="m67.906,211.79-1.008,1.176 2.689.673-2.185.506-4.371-1.01-4.37,2.018-4.034-1.176 .336-.841-.504-.169h-.505l-.504-.504 3.194-1.176 5.21.841 4.201-.504 1.851.16z" fill="#ba3d9b"/>
  <path d="m60.343,212.8 .167-.169h.672l-.839.17z" fill="#d5228d"/>
  <path d="m37.651,214.48h.336l-2.858,1.514-4.034-.338-3.193.504-1.176.169-1.008.504-1.177-.673v-1.511l2.185.839 .671-.839 3.194-.168 3.362-.672h3.53l.168.68z" fill="#d5228d"/>
  <path d="m264.9,224.06 12.773,1.68 14.12-.503 13.111,2.353 .839.839 1.345.672 1.01-.839 1.346.672 1.176,1.007 1.681-.168 .671,13.952 .673,15.464-1.176,14.454v10.421h-19.162l.673-1.511-1.346-1.01-1.176-.335-.337.169-.504-.338-.335.338-.506-6.557 1.682-6.555-.337-6.892 1.01-4.033-3.193-4.371 3.36-2.689 .336-1.008-.84-1.345-1.008-.504h-.842l-.841-.337-.335.841-1.008-1.345 2.184-2.354-1.849-1.68-.842-.506h-.839l-.673,1.01-.673,1.008-1.175-1.512-.842-.337 .842-1.681-.673-1.68-.673-1.514-.673-.673-1.008-.672-.672.841-1.011,1.68v1.177l-.504,1.849 .169-1.512-.169-1.682-1.344-1.008-.504-.841-.839.168h-1.011l-1.681,1.346 1.85,2.017-.842,1.681-.335-2.187-1.008-2.015-2.354-.338-3.025.842 5.38,8.572-5.38-4.54-.839-.335-1.684.169-.335,1.345 .169,1.68 2.522,1.512-1.515,1.683-.338-.338-.504.338-.504-.169-1.848,1.176 1.177,1.514 .504,1.343-2.688,9.751 .673,10.083-.169,10.59-16.81-1.849-17.312.673-16.641-1.514-.673-.504-1.008-10.422 .335-10.42-1.847-10.252 1.681-.842 .67-2.018-1.343-1.345-.842-.167-.67-1.01-1.178.672-.84,1.01-1.176-1.176 2.521-2.355-2.017-1.511-3.025-2.187-.504,6.724-3.026-3.192-.169-1.345-.336-1.683-1.512-.335-1.346-.841-1.68,1.01v1.511l.166.673 .338.672-.169.673-1.346.504-.335-1.512-.336-2.017-1.85-.338-1.008-.335-1.008.673-.169,1.007-.338,1.514 1.85,2.353-1.681.672-.839-.335-1.179-1.01-.839-.169-1.01-.166-.504.504-.672.672v2.018l.841.67-1.007.338-2.188-2.187-.504,2.354-.335,1.512 1.008.673v1.176l-1.008,3.025-1.011,8.572 2.188,7.901-1.684,8.403-1.679.169-2.185-.338-2.018-.166-.338-2.522v-2.521l.338-2.353 .842-15.298-.169-14.287 .839-15.799 1.345-1.849 1.346,2.353 1.513-.169 15.296-1.176 16.638-.672h15.802l12.101-.167 13.28,2.184 13.12-.76z" fill="#fff08d"/>
  <path d="m30.759,226.24 3.363.335 3.362-3.697 3.193,2.69 .336,1.176-.84.673-.336.841-1.177,5.713 1.009,6.557 .84,5.882v1.514l-1.513.672h-1.009l-.672-.841-1.007-6.05-1.346-6.723 1.009-6.219-3.698.841-4.371-.168-3.53-1.849-.336-.673-1.008-.842 .672-.838 .168-1.01 1.009.168 .671-.503 1.849.335 1.682,1.176 1.68.84z" fill="#fdd0bb"/>
  <path d="m85.555,246.41-1.007.672 .673,1.01 .334.672 .841,8.403-1.345,8.741 .169,8.403h-1.515l-1.176-16.64 1.01-15.799 .839-16.641 1.176,1.342v19.85z" fill="#d5228d"/>
  <path d="m212.8,228.26-.169.672-.504.672-.672-.168-3.696.168-3.362.671-3.025,1.849 .504.337 3.866.169 3.529-1.345 3.697,1.68v1.849l-2.689-.169-1.343.673-.169.169-.169-.169v-.167l.673-.672h1.343l.338-1.01-3.361-1.512-4.37,2.688-3.529-2.015v-.506l2.688-2.016 3.362-.337 3.025-1.177-6.723-1.345-9.414-.839-6.22,3.361h-.672l-.673.168-.335-.335 .504-1.178 1.514-.335 1.343-.335 7.733-1.515 9.413.169 7.55,1.89z" fill="#feb835"/>
  <path d="m288.77,229.6 .673.504 4.2.167 4.707-1.177 4.034,1.345 .169.338v.839h-.673l-4.369-2.016-6.052,2.185-4.539-1.177 .673-1.176 1.681-.672h1.176l-1.68.85z" fill="#febf38"/>
  <path d="m242.88,232.29v.504l-.335.337-.169.504 2.856,1.176 3.868-1.345 2.857,1.345 .504.504 .166.673-.166.672-2.521,1.177-3.193-.335-2.857.335-.672.169-1.177.335-.673-.673-1.682-1.008 .842-1.849 .335-1.007-4.874-.673-4.537,1.68-5.043-.335-.504-.506-.504-.504 .166-1.008 3.531-2.521 3.529,1.008 4.201-.839 2.019.167 3.36-.504 .66,2.53z" fill="#fed95e"/>
  <path d="m302.05,232.46 .507.842-1.346.839-.672.337-2.521.504-2.691.335-2.185,1.01 4.372.839 .504,1.177h-1.85l-.673,1.01h-.335l-.507-.672 .507-.337 .504-.504-1.85-.839-2.858,1.008-1.176-1.514 3.361-1.681 4.372.337 3.193-1.849-1.346-1.514-2.186,1.176-1.681-.672-.504-.336 .504-.672 .504-.169 2.019.169 2.184.168 1.88.98z" fill="#febf38"/>
  <path d="m64.041,238.01v1.68l.504,1.683-.167,1.849-.842-.673-.671-.506-1.177.169-2.353,5.042 2.017,5.882-.167,5.547-.167,3.866 1.176,4.371-.672,4.035-7.228-.337v-9.749l-3.364-10.76 2.521-9.58 2.185-2.018-.336-3.529 2.186-2.353 .673-.673 1.008-.168 .84-.336 3.192.504-.167,3.698 1.009,2.36z" fill="#f0bf91"/>
  <path d="m30.087,234.98 1.513.168 2.521-1.345 1.008,1.511 .169.673-.505.168-.335.336 .335-.504-.504-.169h-.335l-1.346.169-2.688-.336v2.016l.672,1.345-1.176,2.521 1.512.842h3.53l-.672,2.183-5.379-2.687 1.849,4.033h-.504l-.168-1.346v-1.848l-1.849.506-.84.335h-1.176l-.673-.335-.167-1.179 1.512.338 .672-.338 2.185.169v-5.378l-1.176-.673-2.689,1.346-.169-1.683 1.345-.504 1.681,1.177 1.008-1.512-.167-1.01-.673-1.008 .673-1.008 1.176.167-.504,1.849 .334,1.01z" fill="#d5228d"/>
  <path d="m163.04,237.67-1.175,7.398 1.848,6.889-.673,7.901 .169,5.209-.673,5.884 1.177,4.875v1.68l-1.513.673-1.511-.673-1.011-.169v-1.176l.169-.839-1.008-.841-2.522.335 .335-2.016-.839-.841-2.017.504 .335-1.849v-1.008l.338-.842-.673-.503-.504.672 .166,1.177-1.176.504-1.008.337-1.345-.841 .337-1.177 .335-3.867-.335-5.042 1.008-4.202 .673-.673 1.176.338 .673.504 .335.169 .505-1.011-.84-1.68 .673-1.345 .504-.673 .335-1.512 1.178.336 .335-.673-.169-1.176 1.011-.335 .335.166 .504-.166 .337.166 .504-1.68-.169-2.185-.169-1.849-.335-1.176 .504-2.187-1.345-1.008-3.528.504-4.034,2.521-1.01,3.698v1.177l-.671,1.345-1.177.167-.838-.504-1.011-.167-.673-.673-.166-3.194 2.185-2.521 1.68-2.353 3.362-2.859 4.539-2.015 4.203,2.015 1.007.504 1.008.841 .34,1.01z" fill="#282420"/>
  <path d="m98.332,237.84-.338,2.859-6.723-.169 1.008-.673-.335-1.68-.169-.841 1.683-1.514 5.882-3.361-1.008,5.37z" fill="#b68066"/>
  <path d="m238.01,239.35-.169,1.511-2.688-.335-4.034,2.018-1.177-3.194 .338-2.69 3.025,1.681 1.681-.673h1.344l1.008.506 .68,1.17z" fill="#feb835"/>
  <path d="m222.71,243.05-.169,1.68-6.724-.169-.504-.503-.169-.504 .169-.672 2.185-1.176 3.362-1.177 1.85,2.52z" fill="#fed95e"/>
  <path d="m87.238,241.71h.166v.841h-.166v-.84z" fill="#fff"/>
  <path d="m108.42,243.05-.673,3.698-3.863.839-2.859-2.353-4.034,1.177-2.521-1.008-2.69.673-2.856-.169 .168-3.867 6.724-.504 5.713,1.345 6.89.17z" fill="#def025"/>
  <path d="m132.12,243.05-.335,11.766 .166,9.917-.166,11.933-4.204-.335h-5.21l-4.539-.504 .169-11.598 .672-10.589-.672-11.6 4.37,1.179 4.874.504 4.88-.68z" fill="#bf3902"/>
  <path d="m309.11,246.41 .169.841-1.011.504h-.504l-3.697-2.018-5.882,4.876-.672-5.546 1.007-1.01 3.528,1.176 5.212-2.688 1.84,3.87z" fill="#fed95e"/>
  <path d="m199.18,244.9-.337,1.008-.84.841 .505,1.177 1.008.504 .673,1.345 1.177-.504 1.849-2.018 .335,1.008-2.015,1.176 1.343,1.179 2.018,1.512 1.345,23.701-2.856.839-5.715-.839-6.892.839-5.717-1.343-.839-7.733 .673-7.396 .335-7.564 1.849-.504-1.008-3.194 2.016.673 1.684-.335-1.177-3.698 2.185,2.353 1.344.335 .335-1.176 .507-.672 .166-.335-.166-.504 .504-.338v1.346l1.176,1.345 1.008.672 1.346.673 .84-1.683 .337-.839-.169-2.018h.505l.335-.169 .36.31z" fill="#793118"/>
  <path d="m125.06,247.25-1.176,9.58 .337,1.345 1.177-.839 2.017,1.343-.169-2.184v-1.346l-.84-2.352 1.513-1.008 .673-.338 .335.673 .504.504 .337,2.186-.503,2.688 1.007,1.849 .504,1.346-1.176.504-.842.337-1.175-.169-1.007-1.345-1.346.673-.673,1.01h-1.345l-.839-.338-2.689-2.689 2.017-4.034-.337-3.529 .841-1.683-2.017-2.856 2.186-1.346 1.346-.166 1.007,1.008 .34,1.19z" fill="#f0bf91"/>
  <path d="m283.56,246.92 6.726,9.915-4.54,12.945 .169,11.429h-12.776l-2.184-10.253 3.025-10.59-.504-10.589 .673-.504-.169-1.01 .504-.672 .842.672 1.177,1.176 1.008-.67 1.513-1.01-.842-1.176 .504-1.346 1.684,1.683 1.849-2.018 1.35,2.02z" fill="#793118"/>
  <path d="m244.56,248.6-.504,4.033v3.867l.842,4.202v.841h-1.176l-.169.673 .672,2.352-2.353,3.53 3.025.337 1.008.673-.335.673v.839l-1.177,1.345-1.514-1.849h-1.345l-3.191-1.177-4.37,1.177-3.698-.335-.842.839-.84,1.345-1.345-.841-.84-1.343 .504-7.396 .673-6.726-1.85-7.058 .504-.672h5.212l5.377-.841 5.212-.503 1.008.168 1.176.504 .33,1.35z" fill="#febf38"/>
  <path d="m271.96,252.13-.335,9.917-.338,9.413 .169,9.414-2.017-.507-4.372,2.018 1.011-4.202v-6.555l.839-7.564v-6.557l.842-1.511-.504-2.353 1.681-1.01 .672-.504 .504-1.177-.84-.672 .336-1.346 1.849-.166v-1.345l2.353.673-2.353,2.352 .51,1.69z" fill="#f0bf91"/>
  <path d="m89.759,248.77-.841,1.008 .335,7.396 .506,8.403-1.345,7.229-.169,1.008 .841.335 .504.338h.839l1.345.168 .169-1.176 .504-7.564 .169-8.741-.169-6.724-1.177-1.68 3.867-.841 3.194,2.521 3.36-.841 1.011,2.187-.673,7.396 1.008,8.572-1.346,7.228h-4.874l-4.875-.169-5.043-.504-.504-8.572 .672-8.237 .169-8.738 .839-.506 .673.672 1.012-.19z" fill="#b68066"/>
  <path d="m240.86,249.78-.67,6.219 3.359,5.209-1.177,6.219-4.37-1.511-3.866,1.511-4.537-.503-.504-5.882 1.512-5.042-2.354-5.211 1.177-1.008 2.857.841 1.849-.506 2.017-.167 2.354-.506 2.35.34z" fill="#b68066"/>
  <path d="m305.75,251.96v.673l-.335.841-.673.169h-2.019l-1.68,1.176-1.512-1.514-.506-.672-.335-1.177 .335-.839 2.018-.673 3.867-.672 .82,2.68z" fill="#feb835"/>
  <path d="m183.89,252.63 .168,7.564-.504,6.892v7.227l-1.344-.673-.842,1.177-1.008.841 .504-8.237-1.346-8.74 1.346-8.066h.338v-.337l.504.168 .166,1.177 1.178.335 .83.67z" fill="#f0bf91"/>
  <path d="m305.24,259.69-1.85,1.512-3.025-.673-2.352.506-1.008-.169-.338-1.008-.504-.841 .169-.841 .335-1.008 .842-.337 2.688.841 4.539-1.68 .51,3.7z" fill="#fed95e"/>
  <path d="m125.22,267.93 .338,1.176-.169,1.177v1.176l1.177-.168 1.848.168 .504,1.345v.839l-.504,1.01h-1.008l-1.848-.672-.507,2.353-2.015-.841-.842-.84-.504-7.396 .839-1.849 2.522.839 .16,1.67z" fill="#f0bf91"/>
  <path d="m307.6,271.79-1.176,2.521-3.865-.673-2.187.338-.839-.338-.506-.839v-1.849l.506-.672 1.008-.338 2.521.504 3.193-1.512 1.35,2.86z" fill="#fed95e"/>
  <path d="m13.951,275.32 .504.839 1.681-.168-.336,1.35-4.202,1.514-2.521,4.371-4.37,1.008 .167-.839-1.008.335-.336-.672-1.682.503-.335-2.017-1.513-.49 .673-3.025 4.034-1.68 2.016-2.187 1.009-.166 1.008-1.01 1.344.672 1.009,1.346 1.513-.336 1.345.67z" fill="#62658b"/>
  <path d="m305.41,277.51-.169,1.177-1.177.672-.673.842-1.177.166-1.008-.672-.337-.84-.335-1.01 .672-1.007 .839-.504 1.18.169 2.354-.842-.15,1.84z" fill="#feb835"/>
  <path d="m46.056,280.36 2.353,3.194 2.018,3.532 1.849,3.191-2.354,1.346-1.681,2.186-2.857-.338-.167-.672 .84-.673-1.009-.166-.504.166h-.168l-.504-.166-.673-2.018-1.344-1.345-1.345-1.849-.84-1.68-1.513-1.177-.336-1.514 1.176-1.511 2.185,1.007 1.176-1.514h.84l1.177.842v-1.177l1.681.33z" fill="#d6d3e1"/>
  <path d="m81.522,287.6-.672,3.36-1.514,2.186h-2.857l-2.353.504-.842-.337 .169-.504 .169-.167 .504-.169h.504v-.674l-.673-.672-.335,1.176-.673-1.007 1.177.335-1.01-1.512 .168-.506-.504-1.512 .842-1.849-.338-1.345 1.515-1.849 2.856,1.345 1.849-1.345 2.857-.335-.839,3.192v1.67z" fill="#62658b"/>
  <path d="m25.045,286.42 .504,1.007 1.681-.672-.168,1.514-6.051,7.228-1.513-1.177-2.521-.169-1.177-1.511 .168-1.179-.84,1.345-.336-1.008 .336-3.363 2.689-1.343 1.681-2.859 2.186.338 1.008,1.68 2.353.17z" fill="#62658b"/>
  <path d="m61.856,286.08 2.185,3.025 3.529,3.025v4.035l-.84.335-.336.841v.842l-1.68.839-1.178,1.177-2.185.168 .169-.335v-.673h.504v-.168l.168-1.008h-.672l-.336,1.343-.672-2.521-.504,1.345-1.513-3.529-3.026-3.025-1.513-3.363 1.513-2.015 2.858,1.176 1.681-1.514h1.848z" fill="#9a97b9"/>
  <path d="m182.88,288.94-2.521,3.192 .673.169 .335-.841 .842-.504-.338.169 .673.169 .505-.504 .671.166-.504.504-.838,1.01-.507.839 .507-.67 .503.838h.839l-2.015,2.187-2.522,2.857-2.689,1.177-1.008-.336-2.187.167v-1.177l-.673-1.345-3.192,1.179 1.344-2.187 1.344.672 .338-.504 1.177-.504v-.337l.672-.335-.672-.338 .839-1.177 1.179-.335 .335-1.345 .673.504 .672-.672v-1.008h1.007l-.839-1.177 1.177.167 1.343-1.343 .338.839 2.019-2.521 .166,2.354h.34z" fill="#bbb8ce"/>
  <path d="m94.969,289.61-.335,2.355 2.184,3.864-3.026.506-1.345,1.342h-1.849l-1.68.169-.504.169-1.346-.169 .169-1.007 .673-.504-.169-.337-.338.168h-.166l-.506.335-.335-.335 1.514-1.01-1.345.169-.337-6.386 1.849-1.514 2.69,1.681 1.68-1.008 1.01.168 1.343.167 .169,1.18z" fill="#bbb8ce"/>
  <path d="m216.32,292.13 1.515.506-1.011,1.68 .507.839-9.076,9.582-1.011-1.177 .842-.841-1.849.169v-.169h.168l-.504-.169-1.009-.335 .169-.841-1.177-.335 .169-1.514-1.683-.504 .504-1.512h1.683l.166-1.514 .673-.168-.167-1.343h1.008v-1.011l1.68-.168v-1.02l1.681-1.345 1.008-3.025 2.69.169 3.02,4.02z" fill="#d6d3e1"/>
  <path d="m141.36,289.44v.504h.336l.505-.673 .673.673 .504.335 .166,1.514 1.683.169 1.008.503 .673,1.176-1.177,1.512-.673,1.01-7.396,6.892-.673-.672-.504,1.176-.504-.168-1.345-.673-2.017.337-.839-1.345-.338-.503-1.008.503-.504-.503v-.842l.839.504 .504-.839 .507-.337-.169-.169-.504-.673-.338.506 1.011-1.176 1.511-.842v-1.345l1.513-1.007v-1.683l1.68-.67 .335-1.514 1.683-.169 1.177-1.177 .839.673 .169-1.177 .67.17z" fill="#bbb8ce"/>
  <path d="m110.77,289.95-.169.673 .839-.169 .169.338 .673,2.519-.336,2.354v2.522l-1.344,2.353-2.522-1.345-1.849,1.176-.336-.504-.839.336-.504-.673-.338-.673 2.017-.166-1.513-.338-.839.338 .167-1.177-.335-.506 .168-1.008-.672-2.353v-1.514l-.338-.672-.166-1.343 .839-.506 2.353.168 2.354.338 2.52-.17z" fill="#bbb8ce"/>
  <path d="m201.37,292.47-.673,1.345 1.346-.506 .169.672 1.176.673-.169,3.698-4.706,1.514-1.682,2.857-.839-.169 .335-.504-.673-.672-.169.506-.166-.337-.338.168 .169-.337-1.007-.335-.842-1.514-.504-.335-.504-.673-1.009-.335v-.842l2.017-1.007-.335-.169 1.343-2.353 2.187-1.683 2.521-1.849 1.346.169 .67.673 .32,1.33z" fill="#bbb8ce"/>
  <path d="m163.04,295.5-3.193,3.194-1.177,4.202-2.522,3.025-.167-.334v-.673l-.672.166-.335.507-1.681-1.011-.169-1.345-1.849-.167-.335-.506-.507-.504 .169-.838 2.522-.169-2.857-1.345 2.016-.842-.673-1.849 2.522-.504v-1.849h.505l.167-1.008 1.344-2.186 1.515-.67 2.353,1.176 1.68,2.353 1.35,1.18z" fill="#62658b"/>
  <path d="m278.35,292.3 .673,2.521-1.009,2.353-.504,2.186-1.177.167-1.512,1.01-1.346-.337-1.177.168-1.514.335-1.008-1.007 .167-.504h1.345l-.166-1.008-1.514.67-.336-.504v-.335h.168l-.335-2.186 .167-2.354 .168-2.521 2.186-.673 1.849,1.346 1.681-.335 1.008-.169 1.346.672 .83.5z" fill="#9a97b9"/>
  <path d="m331.3,294.15 .338,1.346 .166,1.176 1.177,1.007-2.52,1.85-3.194,1.345-2.858-1.68-1.008-1.515-.673-1.68-.335-2.018 1.85-1.007 2.354.672 1.848-1.007 1.68-.672-.168,2.015 1.34.17z" fill="#62658b"/>
  <path d="m234.48,297.34 .335.335 .169.507 .504.335-1.008,2.018-2.019.504-2.184-.504-1.346-.337-2.352.337-1.011-1.514 1.011-.673 1.512.169 1.009.335-.842-.839-.167.169-1.008-.673-.169.166h-.504l1.512-.503-.335-1.008 1.344-.504 2.185-.337 1.514,1.68 1.87.32z" fill="#9a97b9"/>
  <path d="m254.14,297.34 .504,1.177-2.019,1.008-.67,1.01-3.026-.169-2.857.673-2.353-1.177-.338-1.68 3.028,1.68-1.18-1.849 .507-4.371 3.864,4.202 2.69-1.345 1.86.84z" fill="#9a97b9"/>
  <path d="m268.43,298.18-.169,3.191 .504,3.363-1.008,2.857-2.522.672-3.024.673-2.353-1.345 .673-.336 .335-.504v-.672l-.504-.503h-.338l.169.166v.337l-.673-1.849-.335-3.867-.338-2.856 .338-2.355 2.521,1.849 1.345-.504 1.68-.335 3.195-.168 .51,2.19z" fill="#9a97b9"/>
  <path d="m80.008,300.7-1.512,2.355-2.352.839-2.521.337-.506-.169 .841-.335-.335-.841-.506-.504-.336.335v-.839l-.672.839-1.008-1.345-2.019-.839-.167-2.018 1.849-1.008 2.353.839 2.018-1.345 2.352-.167 1.513,1.67 1.008,2.18z" fill="#62658b"/>
  <path d="m320.37,301.88-.337,2.184 5.212,2.522-4.371,1.008h-2.353l-2.187,2.69-2.185-1.515-2.352-2.353-1.011-3.36-.839-3.194 2.185-.672 2.186-.673 2.185-.673 2.187.169 .67,2.185 1.01,1.68z" fill="#62658b"/>
  <path d="m93.12,300.37 1.514.335 2.015-1.849 1.01,2.355-.169.166 1.346-.335-1.177,1.849 1.008.504 .841,1.849-2.353-.504-.337,1.176-1.68.169-2.354,1.008-1.849-.673-.337-.838 1.345.166 .169-.673-.673.507-.169-1.177-.841.166 .337-.335-1.177-.841 .839-.842-.839-1.176 .335-.672v-1.176h1.176l.841-.167 .841.336 .338.65z" fill="#bbb8ce"/>
  <path d="m291.12,303.06 .337,2.353 1.511,3.698-2.183,1.681-2.521.504-2.188.506-2.352-1.346 .336-.672 1.177.504 .168-1.008-.168-.169h-.505l-.335.335-1.85-.504 1.346-2.185-1.177-1.175 .335-.507-.673-.335 .504-1.345-.166-.673 1.008-.169-1.512-1.007 1.008-.335 2.689.672 3.361-.506 1.84,1.68z" fill="#62658b"/>
  <path d="m182.54,304.91 1.009.504-.504,1.344-.168.673-2.353,2.857-1.346,3.528-2.689,2.69-.335-.338-.673-1.176-.504,1.01-1.683-.504-.673-2.187-1.512.169v-.337l-.336-.839-.336.335 2.522-4.202 1.849-2.521 2.185-4.539 2.521-.166 .842,3.194 2.18.53z" fill="#9a97b9"/>
  <path d="m301.88,306.42-.338,1.01-.672,1.008h-1.343l-1.178.169h-1.512l-1.681.166h-.842l-.673-1.008-.335-.335 .673-.337-1.011-.673-.335-2.015-.168-1.179 2.353-1.008 2.522,2.018 2.353-.504 1.345.335 .503,1.177 .34,1.16z" fill="#62658b"/>
  <path d="m200.52,310.62v.841l-3.697,3.193-1.512,5.379-4.371,1.85-1.009-.84-1.85-.337-.335-1.177-.842-.673-1.007-.673-.169-1.176h1.514l.166-.336-.335-.168h-.169l.842-.673-.169-.335-.169.166h-.335l.169-.672 2.016-.167-.839-1.345h.169l.166.169h.169v-1.514l1.177.169 .673-1.683 .504-1.008h1.682l-.338-1.008 .169.166 .335-1.008 1.011-1.345 1.176-.672 3.024.168-.336,3.698 2.53,1.02z" fill="#9a97b9"/>
  <path d="m277.68,311.97-1.008,2.018 2.016,4.705-3.528.338-1.515.169-2.856,1.343-1.008-1.85 1.681-.672-.335-1.177-1.179,1.683-.167-1.346 .336-.504-2.521-1.345 2.353-2.689-.167-2.018 2.016-2.016 2.859,2.688 2.354-.673 .68,1.34z" fill="#d6d3e1"/>
 </g>
</svg>
