<?xml version="1.0" encoding="UTF-8"?>
<svg width="300" height="236" enable-background="new 0 0 513.745 412.232" viewBox="0 0 513.745 412.232" xmlns="http://www.w3.org/2000/svg">
 <g transform="matrix(1.5901 0 0 1.5901 -159.43 -121.56)">
  <path d="m118.285,98.633c.138,9.247-4.9,18.367-5.4,27.899-.446,8.522-.898,16.468-.9,25.02-.002,15.788-1.807,34.282 11.475,44.327 14.887,11.257 46.436,15.339 64.978,15.296 26.459-.061 53.757-5.576 80.354-1.843 31.34,4.399 60.462,13.217 92.681,6.471 25.47-5.333 47.543-28.943 40.315-56.625-7.602-29.118-16.161-50.526-49.788-52.444-30.375-1.733-61.522,3.395-91.386-3.379-10.451-2.37-19.164-7.613-29.631-10.817-19.676-6.022-42.531-8.309-63.015-9.924-13.317-1.05-44.684.284-49.683,15.12" fill="#cff"/>
  <path d="m176.782,199.428c50.906.139 36.325,28.63 87.184,26.298 18.293-.839 36.591-2.716 55.053-3.778 14.388-.829 28.729-1.106 43.132-1.774 9.3-.432 24.15-2.47 32.418,3.776 6.069,4.586 8.872,19.393 9.923,27.448 2.133,16.354-.389,36.262-9.717,48.827-5.68,7.651-12.124,9.878-21.759,13.697-16.498,6.539-35.405,13.215-53.165,14.245-17.034.989-34.195,2.651-51.221.854-15.264-1.611-28.495-9.032-43.3-12.62-32.654-7.913-64.565-22.839-94.26-38.698-13.279-7.091-32.206-28.471-24.682-45.174 1.396-3.1 2.6-5.448 6.497-6.103" fill="#f2cf9f"/>
  <path d="m409.038,290.493c.57-.89 1.257-1.253 2.066-1.863 .295-.224.554-.561.952-.587 .512-.033.894.324.925.799 .038.584-.366.646-.755.953-.413.326-.746.779-1.153,1.141-.848.75-1.34-.161-2.32-.1" fill="#f2cf9f"/>
  <path d="m271.909,313.364c-3.953-.184-7.028-2.319-10.664-2.897-2.279-.363-3.727.987-5.755,1.284-2.48.363-5.256-.094-7.764.03 .458,4.402 8.298,5.358 11.846,6.095 5.825,1.208 7.485,1.183 9.46-4.512" fill="#cc6635"/>
  <path d="m354.512,278.844c-6.942-.828-16.642-4.313-22.189-8.24-5.954-4.214-4.325,1.162-10.274,1.254-5.989.093-7.396-4.483-12.948-.012-4.321,3.48-6.865,2.659-12.069,3.772 .156,1.067 1.504,2.261 1.601,3.125 .067.597-.14,2.885-.03,3.367 .655,2.9 1.091,3.883 4.146,4.861 3.214,1.029 6.959.554 10.263,1.313 4.973,1.144 9.672,2.763 14.57,3.72 3.697.722 7.13,1.283 10.919.902 5.249-.527 6.926-1.93 11.092-4.528 3.718-2.32 13.192-2.94 5.744-8.713" fill="#cc6635"/>
  <path d="m266.71,252.573c-2.596,6.561-6.551,11.801-6.225,19.254-3.17,1.393-6.266-.691-9.329-1.233 3.964-5.194 7.402-15.246 10.293-20.425 1.804.7 4.081,1.348 5.672,2.404" fill="#fff" stroke="#000"/>
  <path d="m294.923,227.063c-1.291-3.656 25.762,21.799-14.896-10.995-3.144-2.535-10.432-12.881-11.815-3.388-1.025,7.03.404,14.126-1.256,20.936-1.357,5.566-3.75,11.952-6.984,16.86-1.47,2.229-4.668,4.813-2.956,7.509 1.15,1.81 5.593,2.809 7.506,3.426 2.666-4.727 5.287-10.506 6.556-15.862 1.439-6.076 4.139-12.106 5.424-18.023 2.922,1.221 5.214.079 8.149-.462 2.878-.53 11.008.287 11.008.287" fill="#fff" stroke="#000"/>
  <path d="m296.82 170.31c-1.43 3.145 5.106 7.087 3.993 11.203 2.408-1.968 7.918-2.57 10.943-2.888-1.828-3.405-6.405-5.242-6.797-9.635" fill="#fff" stroke="#000"/>
  <path d="m345.125,217.115c1.188.563 5.62,4.817 5.515,6.153-.136,1.72-6.265,4.098-7.557,4.968-2.638,1.779-5.269,3.401-7.68,5.383-.613.503-2.183,1.906-2.984,2.028-1.269.193-1.995-1.455-3.54-1.626-.002-1.662 1.943-2.85 3.042-3.916 1.594-1.547 2.682-3.243 4.178-4.691 2.959-2.863 6.419-5.508 9.246-8.299" fill="#fff" stroke="#000"/>
  <path d="m343.42 218.43c1.159 2.988 5.021 4.694 5.279 8.149-2.586 0.346-9.757 5.539-11.976 2.224-1.846-2.757 5.147-6.644 5.874-9.141" fill="#f5dab5"/>
  <path d="m273.798,147.365c-.389-9.803 15.363-6.708 20.678-4.82 8.232,2.923 9.101,10.924 10.607,18.534 .709,3.581 2.677,7.162-.523,9.857-2.448,2.062-7.538,1.373-10.515.771-7.286-1.473-11.915-7.454-15.855-13.308-2.486-3.693-6.129-7.737-5.249-11.893" fill="#fff" stroke="#000"/>
  <path d="m276.8 154.65c-0.435 3.448-4.668 4.843-5.258 7.692-0.899 4.342 6.173 1.917 6.972-0.406" fill="#fff" stroke="#000"/>
  <path d="m274.654,152.508c2.444-1.083 5.34-.949 8.069-.784 .246.225.797.914.994,1.211-2.461,1.316-6.359,2.834-8.635.43" fill="#fff" stroke="#000"/>
  <path d="m282.37 166.22c2.563-0.781 5.464-2.025 7.982-2.937-2.164 1.833-3.596 4.619-4.553 7.223" fill="#fff" stroke="#000"/>
  <path d="m286.256,168.101c-.452-.442-.888-.864-1.497-.987-.258,1.142-.779,2.362-1.373,3.401-.637,1.113-1.657,1.619-1.815,2.959 .777-.018 1.16.473 1.7,1.001 1.052-.37 1.593-1.368 1.844-2.469 .291-1.277.741-2.113 1.256-3.333" fill="#fff" stroke="#000"/>
  <path d="m281.438,173.492c-.149-.01-.298-.008-.442.017-.023.393-.028.801-.011,1.2-.015-.044-.047-.062-.093-.053-.678.725-1.558,1.39-1.739,2.401-.322,1.792 2.186-.378 2.311,1.471 .59-.813 1.021-.511 1.236-1.595 .159-.803-.271-1.722.688-2.064"/>
  <path d="m276.724,176.401c.715-1.404.453-3.293-1.105-3.835-.773-.269-2.185-.131-2.802-.728-.413-.398-.378-1.482-.61-2.17-.222-.654-.324-1.274-.789-1.772-.733-.784-1.85-.983-2.585-1.777-1.308-1.415-2.755-3.111-2.056-5.14" fill="#ccc"/>
  <path d="m269.331,166.272c.639-1.052.486-2.979-.015-4.063-.596-1.285-1.293-1.645-.923-3.1 .512-2.008.775-4.074-.156-5.978" fill="#ccc"/>
  <path d="m274.332,152.237c-3.414.674.135,4.867 2.707,2.801 3.494-2.808-3.958-4.801-3.675-2.102"/>
  <path d="m297.484,179.328c1.266,1.322 5.993.069 7.699-.221 2.817-.479 5.366-1.592 8.103-2.235 .023-.128.05-.255.08-.382 .614.622.965,3.357 1.438,4.426 .636,1.437 1.185,2.866 2.04,4.131 1.89,2.798 4.115,4.939 5.682,8.193 1.865,3.875 3.751,7.526 6.642,10.902 1.903,2.223 5.682,4.184 8.342,5.764 2.041,1.212 4.253,2.572 6.392,3.519 1.817.804 4.411.622 6.083,1.591-5.023,4.123-10.083,9.601-14.49,14.854-1.248,1.488-2.127,3.273-3.516,4.614-.635.612-1.535.829-2.113,1.435-.436.458-.618,1.427-1.076,1.754-2.408,1.72-6.063-1.919-8.047-3.52-5.204-4.198-10.816-9.081-11.157-16.322-.406-8.637-.128-17.071-3.36-25.254-.965-2.444-2.305-4.901-3.398-7.32-.643-1.421-2.02-4.803-3.36-5.487" fill="#fff" stroke="#000"/>
  <path d="m351.989,222.412c.998,1.281.389-.018 1.529,1.181 1.219,1.279 1.621,2.827 2.314,4.297 1.166,2.469 3.33,6.558 1.491,9.512-.704,1.131-1.464,3.07-2.576,3.885-1.447,1.061-2.463,2.189-4.928,4.015-2.209,1.637-7.096,2.943-10.514,3.132-8.89.49-15.392.767-26.713-1.232-4.712-.832-8.66-5.462-13.128-7.109-3.056-1.127-7.182-2.854-9.856-4.889-3.036-2.311-6.647-3.394-9.779-5.439-1.674-1.094-4.177-2.713-5.431-4.069-.982-1.063-1.309-1.991-2.608-2.786-.096,1.272.914,2.421 1.546,3.484 .859,1.449 1.095,2.456 1.478,3.983 .699,2.793 1.105,5.525 2.378,8.122 1.308,2.669 3.235,5.032 4.026,7.924 .829,3.03 1.19,5.673 2.759,8.591-3.901.786-9.021.689-12.193,3.433-.729-3.925-3.296-7.095-4.822-10.928-1.311-3.295-2.126-7.632-2.475-11.209-.365-3.736-1.707-8-3.251-11.322-1.331-2.862-3.904-9.299-1.983-12.44 1.927-3.15 6.912-1.671 8.919.494 2.446,2.639 5.459,3.894 8.854,5.182 6.984,2.65 13.239,6.579 20.185,9.336 7.032,2.793 14.249,5.261 20.782,8.464 2.824,1.385 6.485,3.188 9.409,1.992 3.065-1.253 4.812-4.319 7.365-6.331 5.119-4.032 11.107-7.377 17.272-9.459" fill="#fff" stroke="#000"/>
  <path d="m309.364,180.867c2.492,2.526 6.097,4.103 8.793,5.995 1.584,1.112 2.894,2.051 4.637,3.024 1.521.849 3.492,1.449 4.664,2.827 .647-.188 1.334-.189 2.077-.204-4.001,2.19-7.514,3.312-10.106,7.474-1.081-1.01-2.264-1.5-3.239-2.624-1.252-1.442-1.943-3.162-2.866-4.894-2.058-3.867-3.839-6.357-7.402-8.355 1.008-.667 1.911-1.526 3.003-2.144" fill="#fff" stroke="#000"/>
  <path d="m352.778,221.696c.588,1.087 1.565,1.834 2.227,2.803-4.124,1.752-8.097,3.736-11.953,6.037-2.174,1.296-4.426,2.28-6.543,3.655-1.916,1.244-3.864,2.762-5.978,3.532-1.216.443-2.737.456-3.896,1.081-.027.11-.02.21-.043.321-1.052-.914-1.892-1.364-2.558-2.557 2.036-.134 3.661-.548 5.507-1.288 1.771-.711 3.807-1.318 5.47-2.242 2.215-1.229 3.996-3.271 6.243-4.245 2.171-.941 4.539-2.221 6.686-3.326 .982-.507 2.322-1.068 3.17-1.774 .563-.468.83-1.162 1.55-1.525" stroke="#000"/>
  <path d="m326.082,194.286c4.263,2.35 9.175,2.739 13.602,4.217 .861,1.474-1.056,1.993-1.717,3.048-.79,1.263-.762,3.211-1.101,4.62-.923,3.844-.119,6.888.215,10.773 .316,3.675-.238,6.678.831,9.948 .862,2.637 3.448,5.463 4.042,7.649-2.073-.062-3.295-2.377-4.427-3.766-1.767,1.495 1.428,5.248-.501,7.032-2.171-1.545-.308-4.249-1.881-5.899 .059,1.41-.695,2.237-.93,3.509-.247,1.349.195,2.36-.697,3.491-2.497-.588-1.085-7.361-1.045-9.348-1.865,2.044-1.66,5.006-5.478,4.728-.408-1.669 1.519-2.418 2.331-3.541 .992-1.372 1.603-3.267 2.364-4.784 1.688-3.363.724-6.947.545-10.62-.089-1.83-.136-3.915.215-5.67 .294-1.474 1.254-3.629.687-5.273-1.472-4.267-7.584-4.678-11.01-5.5-.368-.088-.653-.121-.885-.215" fill="#fff" stroke="#000"/>
  <path d="m322.962,235.839c-.25.013-.559.17-.813.262 .203.527.613,1.386.927,1.859 .547.823.735.747 1.874.689-.242-1.046-1.667-1.444-2.008-2.439-.203-.005-.5.009-.687.1" fill="#fff" stroke="#000"/>
  <path d="m282.304,255.43c1.037,1.886 3.058,3.665 4.468,5.403 1.901,2.347 3.423,4.67 4.833,7.35 .628,1.193.976,2.302 1.35,3.601 .463,1.604 1.574,3.048 2.287,4.612 .855,1.874 1.71,3.785 2.497,5.554-2.346.069-4.173,1.143-6.408,1.507-2.339-4.724-5.429-9.344-7.644-14.228-1.208-2.666-3.1-4.754-4.869-7.008-1.293-1.648-2.293-3.771-3.713-5.291" fill="#fff" stroke="#000"/>
  <path d="m280.804,263.079c-.645-.356-2.433.027-3.449-.3" fill="#fff" stroke="#000"/>
  <path d="m282.754,260.979c.225-.476.349-1.11.9-1.351" fill="#fff" stroke="#000"/>
  <path d="m286.054,261.729c.659-.303 1.236-.883 1.5-1.5" fill="#fff" stroke="#000"/>
  <path d="m288.45 268.33h3.6" fill="#fff" stroke="#000"/>
  <path d="m289.354,282.879c2.42.718 6.644-.318 8.669-1.635-.052.984 1.108,1.964 1.415,2.985 .312,1.044.665,2.464.424,3.607-.517,2.441-4.179,1.7-6.165,1.501-4.917-.492-9.865.463-14.843-.009-1.276-.12-2.257-.398-3.451-.716-1.229-.327-2.113-.066-2.391-1.084-.591-2.164 2.155-3.575 3.851-3.941 2.446-.528 4.865.472 7.241.799 2.733.377 4.577-.57 7.05-1.058" fill="#fff" stroke="#000"/>
  <path d="m296.901,283.822c-2.076.767-4.729.422-6.946.723-2.771.374-5.302.836-8.139.836-1.354,0-5.755-1.067-6.529-.149-1.927,2.284 3.962,2.319 4.938,2.309 2.13-.023 4.229-.073 6.367,0 2.023.069 3.917.499 5.874.6 3.001.153 6.384-.702 4.435-4.198" fill="#999"/>
  <path d="m290.404,274.479c-.322.899-1.501.853-2.25.75" fill="#fff" stroke="#000"/>
  <path d="m289.804,289.18c.158.653.296,1.364-.126,1.928 2.125-.705 6.673-.323 8.647.452 .174-.476.232-.967.179-1.48" stroke="#000"/>
  <path d="m288.449,289.232c-2.568.493-4.842,1.798-7.617,1.8-2.392.002-5.272-.73-7.448-.876-.033-.528-.051-1.082-.008-1.612 2.402-.491 3.813.305 6.216.531 1.805.17 6.124,1.555 7.657.607" stroke="#000"/>
  <path d="m287.25 284.38c-1.362-0.372-2.893-1.131-3.621-2.395 1.441-1.711 3.877 2.011 4.972 2.245" fill="none" stroke="#000"/>
  <path d="m288.154,284.68c1.1.148 4.008,3.087 4.5,1.5 .576-1.859-2.463-1.417-3.45-1.95" fill="none" stroke="#000"/>
  <path d="m262.87 315.83c0.36-3.905-1.328-8.025-2.559-11.607-1.168-3.398-0.712-8.627-2.783-11.406" fill="#fff" stroke="#000"/>
  <path d="m263.69 315.01c1.802-5.246-1.074-10.566-0.412-15.617" fill="#fff" stroke="#000"/>
  <path d="m264.51 314.6c0.882-3.462 2.741-6.937 3.288-10.273" fill="#fff" stroke="#000"/>
  <path d="m248.22 268.51c3.103 2.435 8.742 5.289 13.067 3.895 1.271 5.08-3.84 9.606-3.84 9.606l-16.225-8.852c-2.478-1.353-12.609-3.182-6.893-6.685 4.773-2.924 9.792 3.6 14.712 3.087" fill="#fff" stroke="#000" stroke-width=".9241"/>
  <path d="m244.11 268.6c-0.531-2.044-2.303-4.515-1.129-6.512 2.777 2.121 1.579 6.232 3.595 8.155" fill="none" stroke="#000"/>
  <path d="m246.573,269.833c1.156-1.57 1.407-3.728 1.704-5.69 2.057-.302 3.351,1.088 2.745,3.153-1.471.573-2.562,1.55-3.217,2.948" fill="none" stroke="#000"/>
  <path d="m248.499,276.677c-.246.459-.496.867-.83,1.249-.205.235-.444.395-.529.708 .89.413 1.782.748 2.608,1.301 .813.545 1.457,1.17 2.26,1.723 1.318.908 2.952,1.499 4.131,2.527 .485-.352 1.273-1.279 1.515-1.816-1.861-.604-3.411-1.883-4.96-3.031-.697-.517-1.477-.927-2.133-1.467-.26-.214-.408-.403-.87-.556-.357-.116-.81-.159-1.004-.513" stroke="#000"/>
  <path d="m249.041,278.009c-1.378-.565-2.764-.752-4.208-1.015-1.784-.325-3.381-1.038-5.03-1.79s-3.172-1.711-4.742-2.598c-.986-.557-2.331-1.024-3.054-1.942-.433-.55.035-.719.363-1.248 .34-.547.25-.903.996-.631 .581.213.902.716 1.411,1.08 .602.432 1.252.897 1.924,1.207 1.524.702 3.237.849 4.714,1.689 1.119.637 2.124,1.378 3.131,2.175 1.313,1.037 2.75,1.904 4.057,2.884" stroke="#000"/>
  <path d="m256.91 261.6c-0.425-1.127-1.716-2.954-2.055-3.288" stroke="#000"/>
  <path d="m255.47 267.34 1.232 1.644" stroke="#000"/>
  <path d="m255.751,284.996c-3.542-4.585-9.397-3.043-14.156-2.557-3.382.345-15.311-2.366-16.687.48-2.934,6.072 11.937,4.019 14.402,4.131 3.06.141 5.502,1.797 8.632,1.644 2.678-.13 4.86-1.677 6.985-2.876" fill="#cc6635"/>
  <path d="m235.501,266.861c4.484,0 7.937,2.539 12,3.927 2.305.788 4.72.8 6.826,1.979 1.79,1.002 3.473,1.843 3.095,4.141-.394,2.393-3.188,1.03-4.651.362-2.538-1.156-4.844-2.186-6.835-4.173-.946-.944-1.461-1.625-2.755-2.016-1.042-.314-2.173-.476-3.239-.746-1.836-.467-4.973-.594-4.662-3.217 .274-.045.548-.161.821-.138" fill="#999"/>
  <path d="m250.946,269.784c-.124-.497.037-.795.531-.79 .306-.494.389-1.024.366-1.616 .697-.161.69-1.101.661-1.762 1.01.13.92-1.168.834-1.874-.04-.04-.043-.037-.011.009 2.402,1.62 5.778,1.851 8.646,1.739-.052.044-.577.778-.572,1.102 .004.204.227.624.223.688 0,.001.233.161.233.306 0,.163-.349.184-.349.3-.01,1.187-.851,2.534-.008,3.63-.856,1.558-4.334.789-5.713.585-1.94-.288-3.117-1.495-4.952-1.875" fill="#fff" stroke="#000"/>
  <path d="m287.624,277.591c1.787.559 4.65-.4 6.276-1.129 .314-.141.925-.594 1.235-.605 .918-.033.322.07.826.755 .755,1.025.91.476 2.217.666 .179.768-2.411,1.927-.545,2.094 .026.683-.047,1.331.33,1.886-.66.177-1.48.027-2.17.218-.483.135-.819.39-1.26.604-.879.425-1.645.771-2.61.914-.451.066-1.2.262-1.657.104-.77-.267-.307-.417-.744-1.018-.67-.921-1.571-.614-1.475-2.164-.62.283-1.223-.142-1.224-.678-.001-.327.714-1.016.8-1.426" fill="#fff" stroke="#000"/>
  <path d="m348.306,224.634c1.69-.469 1.942,1.545 2.692,2.682-.733.883-1.271.16-1.842-.535-.423-.516-1.007-1.253-1.16-1.939" fill="#fff" stroke="#000"/>
  <path d="m329.738,234.64c.185-.08.512-.073.706-.088-.019,1.008.918,2.402 1.238,3.367-1.002.828-1.827-2.41-1.944-3.176" fill="#fff" stroke="#000"/>
  <path d="m340.982,228.244c-.48.467-.645.537-.643,1.052 .003.332.323,1.226.413,1.549 .308,1.105.493,1.692 1.655,1.203 .19-.8-.84-2.684-1.116-3.494" fill="#fff" stroke="#000"/>
  <path d="m301.874,147.767c-.229-.553-.82-.943-.442-1.661 .773.533 1.397.238 1.069-.733-.184-.546-.771-1.039-1.182-1.434-1.494-1.439-3.357-3.44-5.301-4.188-2.928-1.127-6.562-1.438-9.685-1.461-4.086-.03-8.158-.763-12.243-.558-1.365.068-3.608.746-4.347,1.972-.684,1.134-.71,2.966-.834,4.274-.113,1.201-.248,2.762.746,3.577 .995.817 2.572.084 2.592,1.684 .679.013 1.44-.591 2.102-.807 .89-.29 1.768-.398 2.714-.501 2.885-.313 5.618-.75 8.535-.625 2.966.127 5.948-.123 8.915-.004 1.494.06 3.124.057 4.575.351 .738.15 1.458.64 2.23.817 .125-.232.105-.47-.003-.704" fill="#930" stroke="#fff"/>
  <path d="m369.307,255.008c1.354,2.59 1.098,5.741 1.232,9.041 .121,2.971 1.694,7.479.831,10.284-1.045,3.396-5.188,3.157-7.016,5.744-1.383,1.955-2.06,6.569-2.424,9.041-1.234,8.351-3.424,32.591 6.443,35.432 2.67.77 6.261.402 9.091.259 .417-5.963 4.577-12.388 6.133-18.42 2.11-8.191.249-13.387-3.719-20.025-3.352-5.605-5.237-11.009-5.229-17.7 .006-5.439 4.58-15.167-4.11-14.065" fill="#225450" stroke="#fff"/>
  <path d="m375.096,293.773c.451,1.303.921,2.537 1.12,3.938 .212,1.488.075,3.32.581,4.702 .457-1.329 1.218-2.592 1.567-3.992 .215-.868.496-1.705.695-2.556 .105-.451.088-1.385.396-1.686" fill="#225450" stroke="#fff" stroke-width="4"/>
  <path d="m382.361,296.212c.001,1.713-.191,3.383-.352,5.074-.147,1.57.17,3.133.119,4.69" fill="#225450" stroke="#fff" stroke-width="4"/>
  <path d="m367.366,310.22c.498,1.902-.179,4.347-.352,6.277-.07.768-.062,1.645-.056,2.396 .003.264.021.589.058.858 .025.184.08.763.233.523" fill="#225450" stroke="#fff" stroke-width="4"/>
  <path d="m367.25,308.71c.786-.284 2.709.074 3.374.627 .766.639.973,2.228.289,2.98-.415.456-1.003.896-1.586,1.117-.168.063-.692.091-.791.226-.212.291.158.963.284,1.214 .401.809.961,1.329 1.596,1.957 .444.439 1.157,1.42 1.599,1.645" fill="#225450" stroke="#fff" stroke-width="4"/>
  <path d="m375.852,310.627c-1.424,1.033-1.37,3.935-1.161,5.462 .168,1.23.194,2.767 1.32,3.562 2.357,1.661 2.561-1.515 3.024-3.037 .118-.389.284-.686.25-1.111-.063-.781-.813-1.584-1.17-2.263-.541-1.023-1.284-1.853-2.205-2.496" fill="#225450" stroke="#fff" stroke-width="4"/>
  <path d="m348.348,230.762c-6.874,12.712-25.618,12.876-37.498,6.986-6.687-3.315-14.287-5.27-20.867-8.938-5.929-3.306-11.505-6.386-17.663-9.442-2.919-1.449-9.464-6.131-11.619-1.458-1.366,2.963 3.121,10.116 4.131,13.264 1.392,4.333 3.775,9.241 4.612,13.562 .887,4.576-.211,10.644 6.924,9.39 1.096-7.16-2.941-14.146-5.28-20.977-.631-1.841-4.003-8.446-2.905-10.202 1.772-2.838 7.142.888 8.988,2.152 11.216,7.687 23.561,15.947 37.089,19.625 9.388,2.552 20.67,3.727 29.978.811 4.041-1.266 8.95-1.924 10.365-6.143 .575-1.716.847-5.377-.173-6.994-1.121-1.778-4.389-3.087-5.26-.813" fill="#1a77bd" stroke="#fff"/>
  <path d="m264.102,247.61c-.873,3.806-1.504,6.726-4.882,9.043 .142.388.295.717.432,1.16 1.165.216 2.804.216 3.967,0 .526-2.712 4.279-7.754.894-9.381" fill="#1a77bd" stroke="#fff"/>
  <path d="m324.51 250.49c6.981 2.221 17.173-0.985 23.835-2.979 6.873-2.057 13.35-7.83 13.151-15.514" fill="none" stroke="#000" stroke-width="5"/>
  <path d="m342.6 248.84c0.075 13.214 5.507 25.2 7.396 37.808" fill="none" stroke="#000" stroke-width="2"/>
  <path d="m360.68 234.87c-1.121 4.385-5.633 8.354-8.322 12.008-3.314 4.501-6.123 9.426-9.555 13.994-5.372 7.148-10.477 15.322-15 22.902" fill="none" stroke="#000" stroke-width="2"/>
  <path d="m324.92 251.31c8.319 3.969 17.296 8.042 24.977 13.449 5.592 3.938 11.681 10.465 17.763 12.852" fill="none" stroke="#000" stroke-width="2"/>
  <path d="m359.854,315.419c-3.029,2.342-8.997-.191-12.822,0-5.411.27-8.887,3.477-14.248,3.359 1.719,4.434 12.926,7.278 17.309,6.604 2.41-.372 4.738-2.218 7.296-2.565 2.914-.396 6.082.098 9.008-.071-1.329-2.133-3.06-6.104-5.72-7.326" fill="#cc6635"/>
  <path d="m301.65 154.32c-2.937-1.463-9.781-6.736-13.16-5.784-5.496 1.548-2.414 10.199 9e-3 12.769 2.543 2.696 6.949 8.349 11.506 6.986 3.889-1.163 3.317-10.494 1.234-13.149" fill="#f5dab5"/>
  <path d="m326.155,197.063c3.373.495 6.104.989 9.391,2.126 .064,1.58.064,3.216 0,4.796-2.676-.107-2.234-2.623-4.06-3.964-1.692-1.244-3.937-.875-5.331-2.137" fill="#f5dab5"/>
  <path d="m290.813,168.707c.051.841-.233,1.498-.822,2.055" fill="none" stroke="#000"/>
  <path d="m293.28 170.76c-0.855 1.047-1.111 2.313-0.821 3.698" fill="none" stroke="#000"/>
  <path d="m294.92 170.76v2.876" fill="none" stroke="#000"/>
  <path d="m282.184,258.706c-.86-.373-1.811-.478-2.813-.35 .197,2.45 3.688,5.636 4.959,8.066 1.461,2.795 2.7,6.852 5.571,8.259 4.849-5.336-4.48-9.672-6.073-14.331" fill="#f5dab5"/>
  <path d="m300.616,173.913c.627.337 1.803.232 2.465.098 .386-.078.605-.196.949-.355 .618-.287.412-.47.987-.004 .592.479 1.036,1.311 1.538,1.91 .499.594 1.145.958 1.684,1.493-1.727.138-3.397.792-5.041,1.011-.68-.712-2.137-2.777-2.137-3.831" fill="#f5dab5"/>
  <path d="m280.712,146.046c1.41-.121 2.8-.479 4.207-.622 1.942-.197 4.008.005 5.964.005 3.243,0 6.385.113 9.555.514" fill="none" stroke="#000"/>
  <switch transform="matrix(.067 .0238 -.0238 .067 397.17 288.01)"></switch>
  <path d="m405.512,293.842c1.261-1.69 2.996-2.894 4.577-4.245 .857-.732 1.647-2.422 2.867-1.337 .554.492.413.618-.154,1.061-.633.492-1.136,1.043-1.639,1.671-.902,1.131-2.543,1.871-3.146,3.129" fill="#fff" stroke="#000" stroke-width=".5"/>
  <path d="m408.226,294.051c1.765-2.097 3.865-4.159 5.789-5.894 .282-.255.769-.828 1.098-.924 .454-.131 1.351.101 1.602.488 .572.885-1.095,2.021-1.617,2.639-.305.36-.613.638-.939.974-.419.433-.592.974-.923,1.465-.422.624-1.053,1.479-1.67,1.878" fill="#fff" stroke="#000" stroke-width=".5"/>
  <path d="m415.042,290.781c1.881.016 1.314,1.028.471,2.228-.537.764-1.333,1.491-1.931,2.155" fill="#fff" stroke="#000" stroke-width=".5"/>
  <path d="m415.808,292.799c.393-.469.619-.867 1.185-.833 .65.039.982.364.973.987-.021,1.211-1.024,1.708-1.601,2.559" fill="#fff" stroke="#000" stroke-width=".5"/>
  <path d="m389.512,311.508c-2.246-.066-4.435-.2-6.354.932 .749,4.939 1.389,6.048 6.257,7.213 5.322,1.274 9.514,2.429 12.138-3.429-2.675-4.26-8.751-2.876-12.041-5.145" fill="#ccc"/>
  <path d="m372.21,282.399c1.328.772 1.64,2.548 1.908,3.907 .294,1.491.543,3.018.824,4.464 .762-.257 2.128-.106 2.918.054-.15-2.193.753-4.443-.726-6.405-1.252-1.661-2.643-2.692-4.773-1.793" fill="#fff" stroke="#225450"/>
  <path d="m257.541,260.154c.917.327 1.935.521 2.793.937 1.019.493.549,1.074.277,2.026-.219.766-.234,1.553-1.036,1.783-.879.254-2.274-.379-3.126-.521-.129-.767.448-1.47.583-2.189 .143-.762-.089-1.393.764-1.697" fill="#f5dab5"/>
  <path d="m352.091,295.26c-1.294-.723-9.789-2.086-10.685-.018-.973,2.242 7.774,1.96 9.22,1.889 .048-.225.013-.418.074-.64l.397-.08c-.072-.589.223-.593.516-.912" fill="none" stroke="#000"/>
  <path d="m340.894,295.975c.325,2.803 1.662,10.063 5.247,10.737 4.68.882 6.088-7.187 5.235-10.261" fill="none" stroke="#000"/>
  <path d="m345.896,306.934c0,2.24.82,7.047-1.244,8.285-2.373,1.423-6.277-1.49-8.022,1.435 2.79.186 5.361-.189 8.129-.189 2.776,0 6.117,1.131 8.725.197 .077-2.598-4.271-1.048-5.667-2.349-1.371-1.278-.728-5.037-.728-7.141" fill="none" stroke="#000"/>
  <path d="m342.561,300.025c1.324,2.531 4.264,9.647 7.088,4.461 1.024-1.88 1.426-4.041-.429-4.926-1.511-.719-5.117-.479-6.659-.012" fill="#cb0479" stroke="#cb0479"/>
  <path d="m334.483,314.508c-4.422.896-6.566-1.54-10.715-2.143-3.1-.451-9.708.747-7.188,5.046 1.966,3.354 7.806,1.294 10.274,1.039 4.4-.454 7.286,1.526 8.485-3.514" fill="#cc6635"/>
  <path d="m303.798,188.937c-2.921-1.553-6.287-3.377-9.45-4.287-4.603-1.325-3.072.199-3.813,4.738-.673,4.117-.913,4.555 4.264,5.549 3.598.691 6.938.669 10.285,2.143" fill="#fff" stroke="#000"/>
  <path d="m287.94,184.651c-4.808-2.969-11.325-3.902-16.692-6.118-6.839-2.823-14.023-4.813-21.012-7.609-2.957-1.184-6.488-2.148-9.226-3.953-2.398-1.581-3.098-4.236-5.356-5.795-4.014-2.772-11.684-3.676-16.222-5.185-.41,2.057-2.125,2.738-2.708,4.586-1.679.871-3.089.421-3.322-1.481-1.534,1.363-5.264,1.833-4.821-.536-1.733,1.61-2.438-.176-1.641-1.768" fill="#fff" stroke="#000"/>
  <path d="m287.94 190.22c-6.607-3.577-14.485-5.719-21.407-8.047-6.563-2.208-12.42-6.014-18.448-9.5-9.361-5.414-18.904-10.983-30.002-10.738" fill="#fff" stroke="#000"/>
  <path d="m220.6,158.483c5.27.123 10.199,2.777 14.984,4.482-1.243,2.676-6.964-.58-8.609-1.017-.74-.197-8.522-1.385-6.49-3.122" fill="#f5dab5"/>
  <path d="m248.619,171.451c7.243,3.361 15.021,5.864 22.5,8.737 3.253,1.249 6.768,2.15 10.088,3.121 2.733.799 4.489.968 4.439,4.17-2.702-.063-6.164-1.834-8.64-2.828-4.23-1.697-8.857-3.114-13.047-5.021-5.09-2.318-11.089-4.182-15.19-8.029" fill="#f5dab5"/>
  <path d="m174.369,154.222c12.083.53 24.86.779 36.857,2.477 5.381.761 10.989.664 16.391.951 4.713.25 9.923-1.158 14.099.43-3.45,2.517-12.988.857-17.525.857-5.861,0-11.281-.48-16.799-1.308-5.449-.817-11.154-.124-16.736-.407-5.444-.276-10.292-1.907-15.857-1.714" stroke="#999"/>
  <path d="m174.173,154.251c-.359-.526-1.53-.691-2.102-.895-.692-.247-1.629-.408-2.386-.301-.812.115-1.479.537-2.324.571-.979.039-1.891.128-2.881.111 .576.302 1.029.715 1.526,1.139 .732.623 1.308.96 2.257,1.262 1.343.427 2.797.71 4.219.726 1.061.012 1.726-.123 2.258-1.08" stroke="#999"/>
  <path d="m164.745,154.985c.51.047 1.11.46 1.617.666 .552.224 1.167.284 1.714.459 .207-.413.208-1.295.185-1.775-.047-.951-.291-1.078-1.206-1.22-.661-.103-1.477-.218-2,.164-.477.349-.674,1.028-.869,1.521 .06.107.143.131.233.185" fill="#00f" stroke="#00f" stroke-width="1.4349"/>
  <path d="m165.447,161.977c.181,1.642-.68,2.764-1.371,4.022-.911,1.659.167,2.422 1.757,2.617 1.941.239 1.96-1.521 1.229-2.898-.647-1.219-1.258-2.197-1.422-3.638" fill="#00f" stroke="#9ff" stroke-width=".25"/>
  <path d="m167.333,185.977c.181,1.643-.68,2.764-1.37,4.023-.911,1.659.167,2.422 1.757,2.617 1.941.239 1.959-1.521 1.229-2.899-.647-1.219-1.259-2.197-1.422-3.637" fill="#00f" stroke="#9ff" stroke-width=".25"/>
  <path d="m211.792,156.542c.431-.52.783-2.435 2.001-1.951 .313.124 1.066.941 1.229,1.248 .244.457.023,1.29.385,1.638" fill="#fff" stroke="#000"/>
  <path d="m215.096,156.355c.344-.142.556-.645.859-.907 .452-.39 1.04-.701 1.634-.781 .806-.109 2.468.072 1.934,1.314" fill="#fff" stroke="#000"/>
  <path d="m347.752,300.501c.346,1.033.475,1.91-.191,2.81 .769.157 1.602-.096 2.401.004-.394-1.618.397-3.624-2.008-2.813" fill="#fff"/>
  <path d="m189.104,231.834c.181,1.642-.68,2.764-1.37,4.022-.911,1.659.167,2.423 1.757,2.617 1.941.239 1.959-1.521 1.228-2.898-.647-1.219-1.258-2.196-1.421-3.638" fill="#00f" stroke="#9ff" stroke-width=".25"/>
  <path d="m160.046,220.391c.042,2.439 2.028,4.265 2.999,6.429 1.133,2.527 1.547,5.458 2.456,8.121 1.963,5.751 4.27,11.984 6.943,17.8 4.206,9.15 9.635,17.641 13.84,26.911 2.397,5.284 4.828,10.249 7.662,15.31-1.134.958-2.511,1.605-3.93,2.411-.699-6.281-4.987-13.208-8.1-18.469-2.104-3.558-2.857-7.201-4.381-10.834-1.49-3.552-4.143-6.518-5.809-9.954-3.256-6.721-6.084-14.816-8.701-21.844-2.36-6.339-7.781-12.61-9.429-19.287-.617-2.505.177-4.432-1.221-6.792 1.608-.208.876-.439 2.529-.086" fill="#fff" stroke="#000"/>
  <path d="m119.467,116.23c9.489-.608 10.223,14.474 12.618,20.592 5.289,13.512 11.777,27.069 16.608,40.789 7.189,20.42 14.779,42.627 25.92,61.125-2.207.698-4.365,1.588-6.556,2.261 1.278-3.808-2.158-7.1-3.913-10.112-2.391-4.107-3.914-8.28-5.689-12.644-5.826-14.313-15.193-27.084-17.988-42.106-3.377-18.15-10.487-35.548-18.535-51.657-1.006-2.013-2.218-4.123-2.755-6.208 .61-.276 2.037-1.133 2.433-1.182" fill="#fff" stroke="#000"/>
  <path d="m145.61,191.659c-.227,3.673 1.772,6.177 3.311,9.095 1.854,3.515 2.826,7.034 3.857,11.037 2.788,10.824 8.831,20.341 11.711,30.857 1.643,5.999 1.636,12.372 2.967,18.416 1.422,6.456 3.651,12.267 6.104,18.336 3.484,8.617 8.001,16.969 11.489,25.389 .771,1.863 1.366,3.924 2.861,5.521-4.229,1.698-5.228.697-6.848-3.27-1.198-2.932-2.39-5.523-3.655-8.322-3.524-7.801-8.378-16.311-10.81-24.646-2.347-8.043-4.379-15.964-6.073-24.138-1.481-7.146-3.337-15.162-5.904-21.85-4.354-11.342-9.974-21.289-10.68-33.361 .718.124 1.915-.489 2.098-.493" fill="#fff" stroke="#000"/>
  <path d="m144.753,196.373c-1.601,8.169-5.281,15.053-8.473,23.06-4.753,11.919-6.821,23.936-9.505,36.534-2.198,10.316-6.525,20.107-9.01,30.31-1.927,7.912-4.152,16.102-6.815,23.594 1.223.226 2.936.226 4.156,0 4.542-7.436 4.573-16.798 6.47-25.104 2.158-9.448 4.851-19.258 8.272-28.393 5.822-15.548 9.669-30.771 13.597-46.714 .381-1.549.74-2.874 1.308-4.286" fill="#fff" stroke="#000"/>
  <path d="m131.467,169.374c4.576,3.445 6.917,9.311 8.13,14.645 1.92,8.442 4.207,15.588 7.215,23.593 1.558,4.146 1.167,4.386 5.13,2.812 1.737-.691 3.946-1.867 5.667-2.908 4.066-2.459 7.842-5.204 12.277-7.298-4.846-1.104-7.771-11.751-9.299-15.875-1.795-4.844-5.849-10.031-6.909-14.903-6.655,1.602-14.608-.017-21.354-.065" fill="#fff" stroke="#000"/>
  <path d="m154.262,206.935c1.236,1.152 1.456,2.354 1.581,3.94 1.958-.855 3.625-2.155 5.584-3.094 1.018-.488 1.908-1.047 2.864-1.549 1.263-.662 1.306-.715.586-2.013-.262-.472-1.004-2.295-1.469-2.48-.615-.245-3.661,1.395-4.352,1.695-1.2.52-4.869,1.734-5.077,3.218" fill="#fff" stroke="#000"/>
  <path d="m140.857,168.554c.318.695.509,2.243.953,2.716 .687.731 2.125.349 3.121.226-.199-1.132-1.282-1.826-1.421-3.069-.77.379-1.929.383-2.793.409" fill="#fff" stroke="#000"/>
  <path d="m411.602,288.044c.883-.03 1.972.249 1.099,1.212-.305.335-.786.593-1.098.91-.291.296-.507.635-.87.876-.315-.523-1.532-.631-2.076-.429 .409-.349.682-.792 1.108-1.161 .54-.467 1.122-.85 1.666-1.351" fill="#f2cf9f"/>
  <path d="m415.267,287.432c.883-.03 1.972.248 1.099,1.212-.305.334-.786.593-1.098.909-.291.296-.507.636-.87.876-.315-.522-1.532-.631-2.076-.428 .409-.35.682-.792 1.108-1.161 .54-.468 1.122-.851 1.666-1.352" fill="#f2cf9f"/>
  <path d="m129.119,134.975c-1.019,1.216 1.514,1.953 1.133.112-.249-.162-.536-.245-.846-.208" fill="#fff" stroke="#000"/>
  <path d="m132.76,143.599c-1.012.311-1.045,1.913.283,1.724 1.03-.146.998-1.694-.091-1.724" fill="#fff" stroke="#000"/>
  <path d="m136.785,152.415c-.547.791-1.511,2.633.463,2.187 .414-.57.152-1.38-.271-1.899" fill="#fff" stroke="#000"/>
  <path d="m139.563,160.847c-.233.488-.448.972-.68,1.437 .881,1.389 2.521-.174.967-1.15" fill="#fff" stroke="#000"/>
  <path d="m159.145,212.925c-1.151-.084-.464,1.763.769,1.396 1.177-.352.214-1.463-.681-1.483" fill="#fff" stroke="#000"/>
  <path d="m162.637,220.693c-1.199.87.005,1.84 1.12,1.382 .181-1.086-.426-.996-1.207-1.294" fill="#fff" stroke="#000"/>
  <path d="m313.609,192.516c2.307-.261 4.877-2.075 5.646-4.233 1.954.481 3.935,1.705 5.109,3.376-2.206,2.754-9.026,7.233-10.756,2.143" fill="#999" stroke="#000"/>
  <path d="m297.324,186.516c.891,2.078.71,6.354-.373,8.497 7.036,1.744 7.948-8.595.801-8.068" fill="#999" stroke="#000"/>
  <path d="m305.038,190.373c1.84.8 3.911.217 5.57-.805 1.353,1.604 2.535,3.035 3.27,5.029-2.028.425-3.803,1.635-5.776,2.151-.411-1.699-.757-3.418-1.35-5.089" fill="#999" stroke="#000"/>
  <path d="m308.467,208.373c6.474.24 12.713-2.037 17.249-6.278 1.251,1.826 2.352,3.622 4.232,4.553-2.677,3.476-8.323,4.66-12.492,6.43-1.383.587-4.781,3.211-6.428,2.59-2.597-.979-1.295-4.67-1.276-7.294" fill="#999" stroke="#000"/>
  <path d="m331.18 215.23c-2.142 5.979-12.445 13.256-18.804 10.79 3.301 5.45 5.571 4.887 10.972 1.53 3.951-2.455 9.393-5.364 7.832-10.605" fill="#999" stroke="#000"/>
  <path d="m337.182,210.945c.695.033 1.342.455 2.076.49-.14,1.769-1.46,3.259-2.409,4.62-.803-2.041-1.143-3.863.333-5.539" fill="#999" stroke="#000"/>
 </g>
</svg>
