<?xml version="1.0" encoding="UTF-8"?>
<svg width="417.96" height="438.25" version="1.1" viewBox="0 0 417.96166 438.24897" xmlns="http://www.w3.org/2000/svg">
 <g transform="translate(-164.97 43.888)">
  <path d="m227.38 138.33c13.718 16.315 10.337 29.211 5.6294 41.841-10.804 10.434-19.633 22.953-25.17 36.322-9.4289 24.505-24.657 20.014-39.082 19.541v46.898c16.481 17.214 30.147 20.351 43.184 20.346 7.7294 14.489 19.198 35.401 32.632 45.322l-17.194 43.761h39.081l20.999-23.686c36.636 11.441 77.369 7.3451 115.79 1.7594v21.926h39.081l29.926-44.886c22.42-14.593 39.194-39.563 48.237-64.542 4.287-11.841 7.0424-25.01 7.4957-38.108 3.6073 1.4148 7.0913 2.7425 10.476 3.8242-0.91986-4.7618-1.743-10.24-2.1526-15.762-2.823-1.2099-5.9137-2.7366-9.007-4.2631-1.0599-8.3581-3.2499-16.441-6.8126-23.853-10.84-22.555-35.009-38.615-58.622-46.898-61.464-21.56-135.23-24.926-195.41 0-2.6054-11.724-15.633-18.238-39.081-19.541zm308.93 94.555c2.3474 1.0061 4.6205 1.842 6.8469 2.3739 1.314-8.997-0.17262-17.867 4.5987-22.674 2.3398-2.3572 11.202-4.0597 13.77-1.9541 5.0372 4.1295 4.7792 15.115 0 19.541-6.2059 5.7468-12.109 6.583-18.369 5.0875-0.72899 4.9916-1.0893 9.9958-1.2442 14.396 10.367 2.7768 15.884 0.56537 25.384-7.805 10.309-9.084 11.447-25.145 1.9082-35.036-7.7002-7.9841-19.61-10.116-27.219-2.0459-5.5886 5.9271-6.4921 17.101-5.6752 28.117zm5.6027 16.77c-1.139-0.30505-2.2894-0.6367-3.4502-1.0076 1.6467 8.5246 3.5227 14.743 3.5227 14.743s-0.34933-5.8719-0.0725-13.736zm-310.63-35.116c5.396 0 9.7704 4.3744 9.7704 9.7704s-4.3744 9.7704-9.7704 9.7704-9.7704-4.3744-9.7704-9.7704 4.3744-9.7704 9.7704-9.7704z" fill="#ff8080" fill-rule="evenodd"/>
  <path d="m542.17 243.05c6e-3 -1.8999 0.13933-2.5951 0.29816-1.545 0.15886 1.0502 0.15456 2.6046-0.01 3.4544-0.16395 0.84973-0.29392-0.01-0.28874-1.9094z" fill="#ff8080"/>
  <path d="m540.14 249.06c-1.5444-0.22007-2.1195-2.3097-3.4014-12.359l-0.45798-3.5905 3.447 1.1023c2.5177 0.80512 3.3738 1.4006 3.1755 2.2087-0.14929 0.60852-0.49674 3.749-0.77209 6.9788-0.46835 5.4939-0.5967 5.8587-1.9911 5.66z" fill="#ff8080"/>
  <rect x="330.95" y="147.13" width="73.278" height="10.747" fill="#f2f2f2" stroke="#000" stroke-linecap="round" stroke-linejoin="bevel" stroke-width=".25"/>
  <g transform="matrix(1.1616 0 0 1.1616 42.051 -177.05)">
   <path d="m276.98 284.53c-6.8264-1.7951-13.07-5.3972-15.75-9.0874-3.3647-4.6321-4.2623-6.4366-5.6285-11.315-0.31905-1.1393-0.32157-10.079-3e-3 -11.5 1.6509-7.371 7.1622-14.516 13.645-17.691 1.4984-0.73371 2.7834-1.3019 2.8555-1.2626s1.0105-0.29606 2.0853-0.74515c1.3079-0.54646 3.4577-0.8218 6.5-0.83248 6.4953-0.0228 7.6354 0.24122 13.636 3.1575 5.2942 2.5732 10.722 9.3669 12.483 15.624 0.99551 3.5382 1.2308 10.629 0.46465 14-1.4959 6.5814-7.5999 14.105-14.108 17.39-3.6981 1.8663-12.83 3.1434-16.179 2.2627z" fill="#d4d400" stroke="#000" stroke-linecap="round" stroke-linejoin="bevel" stroke-width=".125"/>
   <circle cx="281.5" cy="256.36" r="27" fill="#ff0" stroke="#000" stroke-linecap="round" stroke-linejoin="bevel" stroke-width=".25"/>
   <g transform="matrix(.033707 -.1683 .087362 .064933 229.7 282.36)" fill="#ff0">
    <g transform="matrix(.33736 .7478 -.48136 .21619 380.08 262.76)" fill="#ff0" stroke="#000" stroke-width="1px">
     <path transform="translate(-164.5 -357.63)" d="m269 633.36 14 17-6 9v10l7 20 13 17 19 34 28 42 2 5-181-1 19-7 23-15 12-30 12-23 4-40 9-14 9-11z"/>
     <path transform="translate(-164.5 -357.63)" d="m456 686.36 10 4 25 31 23 34 24 32-74-2-1-20-3-8-15-3 7-16 4-7-9-5 10-13z"/>
     <path transform="translate(-164.5 -357.63)" d="m281 654.36-4 16 17 30 21 33 24 38 9 16h112s12-29 3-29-21-2-21-2 14.444-16.085 12-25c-0.9535-3.4772-9-6-9-6s8.1755-4.9034 10-9c2.0342-4.5675 0-15 0-15l-37 24-43-5-18-6-16-14-20.899-2.5355z"/>
     <path transform="translate(-164.5 -357.63)" d="m329 701.36c-20.403-7.3594-34.599-27.205-47-45-4.7798-6.8588-6.1072-15.602-10-23-5.8572-11.132-15.249-20.353-20-32-5.2852-12.955-6.8624-27.172-9-41-1.6874-10.916-4.5048-22.058-3-33 1.0205-7.4209 6.5328-13.654 8-21 2.1555-10.792 0.21137-22.023 1-33 1.0578-14.723-1.7877-30.892 5-44 7.5994-14.675 24.051-22.732 37-33 11.811-9.3657 23.901-18.54 37-26 6.3526-3.6178 12.954-7.0502 20-9 5.4991-1.5218 11.306-2.3646 17-2 8.2294 0.52686 16.348 2.9255 24 6 4.9873 2.0039 9.5714 4.9543 14 8 3.9035 2.6846 7.5422 12.239 11 9 4.1857-3.9203-12.715-8.9484-10-14 4.421-8.2266 19.289-2.3683 28 1 10.589 4.0946 18.083 13.863 26 22 7.4416 7.6493 15.528 15.31 20 25 3.698 8.0133 2.2148 17.626 5 26 4.0931 12.307 15.46 22.122 17 35 0.9318 7.7902-4.292 15.186-5 23-0.90297 9.9647 0.69817 19.999 1 30 0.37218 12.332 2.08 24.71 1 37-1.1617 13.22-1.7093 27.315-8 39-3.3519 6.2261-12.071 8.5642-15 15-4.014 8.8191-0.41104 19.442-2 29-1.6972 10.209-3.2422 20.809-8 30-3.5905 6.936-8.7045 13.378-15 18-4.9397 3.6269-11.813 3.7359-17 7-7.5909 4.7772-11.424 15.374-20 18-13.838 4.2365-28.988-2.3788-43-6-4.4951-1.1617-9.0573-2.5484-13-5-5.0081-3.114-7.4346-10.05-13-12-4.4153-1.5472-9.599 2.5875-14 1z"/>
     <path transform="translate(-164.5 -357.63)" d="m242 551.36c5.8244 1.479 5.4058-11.126 10-15 2.5099-2.1162 5.8273-4.8437 9-4 5.9921 1.5935 9.0709 9.1074 11 15 1.3482 4.1183-0.9956 8.7826 0 13 2.055 8.705 10.772 15.14 12 24 0.97822 7.0584-2.4256 14.05-4 21-1.4469 6.3871-6.0336 12.533-5 19 1.0653 6.6649 6.1472 12.309 11 17 4.1924 4.0527 9.3101 7.7254 15 9 3.2689 0.73229 7.7938 1.5209 10-1 6.5893-7.5295 2.6941-20.701-1-30-2.7901-7.0233-11.786-10.16-15-17-7.3184-15.574-8.9919-33.821-8-51 0.71792-12.434 6.2486-24.124 10-36 3.3027-10.455 10.68-20.04 11-31 0.31428-10.755-10.701-20.375-9-31 1.2131-7.5774 6.8302-14.437 13-19 4.4925-3.3226 6-2 16-5s9.7142-12.993 17-15c5.2314-1.4412 10.574 2.9452 16 3 4.055 0.041 8.0975-3.1023 12-2 9.7773 2.7618 14.615 14.262 23 20 5.9064 4.0418 11.847 9.763 19 10 6.5623 0.21747 11.494-7.1185 18-8 6.6802-0.90508 13.711 0.57203 20 3 5.606 2.1643 10.919 5.5894 15 10 6.4868 7.0102 12.18 15.624 14 25 3.0101 15.504-4.998 31.238-6 47-0.27492 4.3246 3.7262 10.788 0 13-10.774 6.3961-20.471-18.167-33-18-11.948 0.15963-32 23-31 18s3.2167-14.706-2-16c-3.9491-0.97976 0 8-7 10s-5.9452 1.6647-9 2c-0.66269 0.0727-2 6-2 0s10.905-14.115 7-20c-5.9092-8.9052-21.509 0.0403-32-2-6.2082-1.2074-11.691-6.4483-18-6-8.1783 0.58121-15.094 6.5812-22 11-3.5957 2.3007-9.7639 3.7378-10 8-0.31283 5.6482 6.4339 10.991 12 12 7.9261 1.4373 14.095-8.4524 22-10 8.1846-1.6023 16.923-1.078 25 1 4.3311 1.1143 7.5856 6.7164 12 6 3.2572-0.52857 3.8087-6.1605 7-7 6.0223-1.5842 13.124 1.1272 18 5 3.2706 2.5976-4 17 6 11s10.308-6.2221 16-8c4.4996-1.4056 9.4698-3.3036 14-2 5.4551 1.5697 9.4924 6.5369 13 11 2.7634 3.5162 4.5134 7.7822 6 12 2.608 7.3996 3.7926 15.248 5 23 1.0821 6.9479 1.8728 13.969 2 21 0.10273 5.6755-2.7748 11.608-1 17 0.81398 2.4729 2.4214 6.3588 5 6 6.5032-0.90489 5.5996-11.889 8-18 4.5089-11.48 10.732-22.732 12-35 1.6574-16.039-6.5509-31.885-6-48 0.47574-13.916 10.381-27.281 8-41-2.454-14.137-9.8311-25.001-14.929-38.414-3.1355-8.2497-8.8543-16.367-12.071-24.586-5.293-13.523-11.557-28.058-23-37-8.5552-6.6856-26-10-31-10s-9.7103-4.2967-12-1c-3.5726 5.1438 6.375 10.952 8 17 0.73367 2.7306-27.672-29.228-53-26-10.566 1.3468-20.701 5.8062-30 11-24.452 13.658-44.519 27.296-67 44-3.266 2.4267-6.9219 11.502-9 15-13.706 23.071-2.6733 53.922-9 80-1.766 7.2796-6.9795 13.579-8 21-1.0032 7.2949-5.1371 20.188 2 22z"/>
     <path transform="translate(-164.5 -357.63)" d="m324 547.36 24-19s17.213-3.2481 24 1c4.1718 2.6112 7 13 7 13s-4.1814 1.5058-7.5858-1-6.4142-12-6.4142-12l-8-1s1.016 7.5725-1.0607 10.232c-2.0766 2.6597-4.648 2.6199-8 2s-8.9393-5.2322-8.9393-5.2322z"/>
     <path transform="translate(-164.5 -357.63)" d="m425 546.36 13-11s16.675 3.1328 22 9c2.3388 2.577 3 10 3 10s-2-8-6-8-10-7-10-7 2.6464 10.879-1.3536 11.879-13.118 1.2642-16-2c-2.8816-3.2642 0.35355-7.8787 0.35355-7.8787z"/>
     <path transform="translate(-164.5 -357.63)" d="m411 537.36 1 46 7 3s1.8668 11.3-0.76777 16.768c-1.9525 4.0526-9.2322 9.2322-9.2322 9.2322s0.50664 4.6431-1 6c-2.1456 1.9323-6.1895 2.042-8.6464 0.52513-3.8634-2.3852-5.3536-12.525-5.3536-12.525s-3.6026-4.1739-6-4c-4.4728 0.32443-10 9-10 9-7.3577-1.741-7.9286-9.2993-6-19-1.3094 9.9142 1.6554 16.409 7 21 0 0 10.022-1.54 14.818-0.35355 4.8842 1.2082 8.4196 8.977 13.182 7.3536 4.8056-1.6382 6-14 6-14l7-10-7-19z"/>
     <path transform="translate(-164.5 -357.63)" d="m349 646.36 14-14s-7.376 3.9085-5 10.5 23.244-2.5921 30-0.5 5.6459 4.8509 9 5 3.2606-4.1304 9-4 22 11 22 11"/>
     <path transform="translate(-164.5 -357.63)" d="m431 631.36s9.1113 7.4483 10.464 12.468-0.96987 10.81-2.7071 16.477c-1.7372 5.6663-3.7574 18.556-3.7574 18.556"/>
     <path transform="translate(-164.5 -357.63)" d="m352 686.36s14.614 16.558 24 21 21.508 8.2808 30 5 15-19 15-19"/>
     <path d="m104.5 200.73c2.156-3.0734-5.8468-9.8738-9.5-10s-4.1728 1.8097-6 5.5-6.1763 15.586-1.5 16.5-0.3194-8.9446 1.5-11.5 3.4263-6.7205 6-7 7.344 9.5734 9.5 6.5z"/>
     <path d="m110 210.73c0.67914-1.6824-5.9339-5.4397-9-4.5s-3.8596 4.4172-4.5 8 1.038 9.3402 2 12.5 0.31467 7.2393 3 6.5-3.4536-7.2387-3.5-10 0.71956-0.50169 0.5-6.5 10.821-4.3176 11.5-6z"/>
     <path d="m77.5 194.23-6 17.5-3.5 23.5-4.5 17s-6.9821 9.3822-6 15 12 13.5 12 13.5l15 10.5 18-13.5 4-4.5-15.5-23-8-23z"/>
    </g>
   </g>
  </g>
  <g transform="translate(3,19)" fill="#000080" fill-rule="evenodd" stroke="#000">
   <path d="m176.67-59.98-11.877 92.3 29.444 6.7418 10.307-92.878-27.874-6.1634zm7.4305 75.958a6.6162 6.3515 1.7845 0 1 6.4159 6.5538 6.6162 6.3515 1.7845 0 1 -6.8114 6.1417 6.6162 6.3515 1.7845 0 1 -6.416 -6.5538 6.6162 6.3515 1.7845 0 1 6.8115 -6.1417z" stroke-width="1.4971px"/>
   <path d="m209.43-51.632c36.479-1.1104 48.332 3.1167 126.35 6.1603 18.592 2.8795 33.01 4.8459 35.71 15.672l20.992 43.664-3.3588 54.58c-5.0382 2.692-10.076 9.8503-15.114 0-2.749-9.8365-6.6147-16.695-1.6794-47.023l-28.55-23.511c-48.034-1.9397-43.896 5.3038-52.061 15.954l33.588 28.55 19.889 3.3588c9.8366 1.6611 21.003 14.555 14.538 21.832l-39.466-4.1985s-31.319-11.715-45.664-14.71c-26.181-5.4665-51.376-26.449-72.733-38.191z" stroke-width="2.375px"/>
  </g>
 </g>
</svg>
