<?xml version="1.0" encoding="UTF-8"?>
<svg width="720pt" height="720pt" fill-rule="evenodd" overflow="visible" stroke-linejoin="bevel" stroke-width=".501" version="1.1" viewBox="0 0 720 720" xmlns="http://www.w3.org/2000/svg">
 <g transform="scale(1 -1)" fill="none" font-family="Times New Roman" font-size="16" stroke="#000">
  <g transform="translate(0 -720)">
   <g stroke="none" stroke-miterlimit="79.84" stroke-width=".329">
    <path d="m227.06 600.41l3.948 0.66 6.252-21.752 6.91-14.501 9.545-12.525 12.504-15.159 11.515-24.058 4.279-24.717-1.975-25.378-6.91-26.696-2.633-0.331 4.609 23.731 1.972 22.081-2.961 21.093-10.2 21.092-6.252 6.59-6.913 5.276-6.909 3.295-6.91 1.317 12.175-127.54-1.646-15.49-6.581-12.523-9.542-8.239-10.532-5.273-6.58 0.329-5.595 2.966-3.948 5.275-1.646 8.237 0.988 14.172 6.252 12.855 9.214 8.897 10.203 5.604 7.896-0.331 6.252-2.967-11.189 115.02-5.592 58.993z" fill="#000080"/>
    <path d="m227.39 600.41l-0.329-0.329 3.948 0.658-0.329 0.331 6.252-21.752 6.91-14.501 9.542-12.525 12.504-15.159 11.518-24.058 4.279-24.717-1.975-25.378v0.328l-6.909-26.695h0.328l-2.633-0.329 0.329-0.331 4.606 23.731 1.975 22.081v0.328l-2.961 21.094-10.201 21.092h-0.328l-6.252 6.593-6.913 5.272-6.909 3.296-6.91 1.317h-0.329v-0.329l12.176-127.54-1.647-15.49v0.329l-6.581-12.523-9.542-8.237-10.531-5.275h0.328l-6.58 0.331-5.595 2.966-3.948 5.271h0.329l-1.644 8.241v-0.331l0.986 14.172 6.252 12.855h-0.329l9.214 8.897v-0.329l10.203 5.602 7.896-0.329h-0.329l6.252-2.967h0.329v0.329h0.329l-11.187 115.02-5.594 58.993h-0.66l5.597-58.993 11.186-115.02 0.329 0.331-6.252 2.967-7.896 0.329h-0.332l-10.2-5.605-9.213-8.896-6.255-12.855v-0.329l-0.986-14.172 1.646-8.237 3.948-5.275v-0.329l5.595-2.966h0.329l6.58-0.329 10.532 5.273v0.329l9.542 8.239h0.329l6.583 12.523 1.644 15.49-12.175 127.54-0.658-0.328 6.91-1.318 6.91-3.298v0.332l6.909-5.276 6.255-6.59 10.2-21.092 2.962-21.093-1.976-22.081v0.329l-4.605-23.729v-0.657h0.328l2.633 0.326v0.331h0.329l6.91 26.696 1.975 25.378v0.328l-4.279 24.718-11.516 24.06h-0.328l-12.504 15.159-9.545 12.523h0.328l-6.909 14.501-6.252 21.752h-0.658l-3.95-0.66v-0.329h0.66z" fill="#000" fill-rule="nonzero"/>
    <path d="m596.27 482.75l3.948 0.329 4.606-22.08 6.255-14.832 8.556-13.181 11.515-15.821 10.202-25.047 2.631-24.386-3.617-25.049-8.556-26.036-2.633-0.329 6.252 23.398 3.291 21.752-1.647 20.765-8.882 21.751-5.924 7.251-6.254 5.93-6.91 3.626-6.912 1.649 3.622-127.54-2.633-15.49-6.91-11.866-10.202-7.579-10.858-4.284-6.581 0.329-5.265 3.295-3.62 5.273-0.988 12.194 2.304 11.866 7.238 12.852 8.887 7.911 9.872 3.955 8.225-0.66 6.583-3.955-3.622 115.02-1.973 58.992z" fill="#010180"/>
    <path d="m596.6 482.75l-0.329-0.328 3.948 0.328-0.328 0.329 4.608-22.08 6.249-14.832 8.556-13.181 11.521-15.821 10.2-25.047 2.632-24.386v0.328l-3.621-25.046-8.554-26.038h0.329l-2.633-0.329 0.329-0.329 6.252 23.398 3.29 21.752-1.646 20.765v0.328l-8.885 21.752h-0.326l-5.924 7.25-6.254 5.933-6.91 3.627-6.912 1.646h-0.326v-0.329l3.619-127.54v0.329l-2.633-15.49-6.909-11.864-10.203-7.581-10.86-4.284h0.331l-6.581 0.331-5.265 3.293-3.62 5.275 0.329-0.331-0.986 12.194 2.301 11.866h-0.328l7.238 12.852 8.887 7.911v-0.329l9.872 3.953 8.225-0.658-0.327 0.329 6.579-3.955v-0.329h0.331v0.329h0.326l-3.617 115.02-1.975 58.992h-0.657l1.972-58.992 3.62-115.02 0.331 0.331-6.583 3.953-8.225 0.66h-0.331l-9.872-3.955-8.885-7.909-7.238-12.854-2.304-11.866v-0.329l0.986-12.194 3.619-5.273 5.266-3.295v-0.329h0.331l6.581-0.331 10.858 4.284v0.331l10.202 7.579 6.91 11.866h0.329l2.633 15.49-3.62 127.54-0.657-0.331 6.91-1.646 6.909-3.627v0.329l6.252-5.93 5.924-7.251 8.884-21.751 1.647-20.765v0.331l-3.291-21.752-6.252-23.4v-0.66h0.329l2.633 0.331v0.329h0.329l8.553 26.036 3.622 25.049-2.633 24.386v0.329l-10.2 25.049h-0.331l-11.515 15.819-8.556 13.183h0.328l-6.252 14.83-4.608 22.082h-0.329l-3.948-0.331h-0.328v-0.329h0.657z" fill="#000" fill-rule="nonzero"/>
    <path d="m301.43 562.84h3.62l3.619-202.03-1.647-14.83-5.923-12.854-10.2-8.571-13.164-3.953-6.25 1.318-5.265 2.966-3.291 6.262-1.646 8.239 2.961 14.83 6.91 13.843 9.874 7.909 10.2 2.966 7.57-0.658 5.592-3.955-2.96 188.52z" fill="#000080"/>
    <path d="m301.75 562.84l-0.327-0.331h3.62l-0.329 0.331 3.619-202.03-1.646-14.83v0.327l-5.924-12.852-10.2-8.569-13.164-3.955h0.329l-6.25 1.318-5.265 2.966h0.328l-3.29 6.264-1.646 8.237v-0.329l2.961 14.83 6.912 13.843h-0.331l9.874 7.909v-0.329l10.2 2.966 7.57-0.66-0.332 0.331 5.595-3.955v-0.329h0.329v0.329h0.331l-2.964 188.52h-0.658l2.962-188.52 0.329 0.329-5.592 3.955-7.57 0.66h-0.329l-10.202-2.966-9.872-7.911-6.909-13.841-2.962-14.832v-0.329l1.644-8.239 3.29-6.262 5.266-2.966v-0.329l6.252-1.32h0.329l13.164 3.955v0.329l10.2 8.571h0.331l5.924 12.854 1.644 14.83-3.62 202.03v0.329h-4.279v-0.329h0.658z" fill="#000" fill-rule="nonzero"/>
    <path d="m529.47 408.27l-2.304-15.49-6.91-12.194-9.213-7.908-11.516-3.627-6.254 0.66-5.263 2.967-3.622 5.93-1.973 8.239 1.973 14.833 6.91 12.521 9.216 8.241 10.529 3.624 7.898-0.329 5.923-3.955v116.67l-74.698-28.013 0.329-96.236v-97.552l-1.315-15.49-6.252-15.161-9.874-9.556-10.529-3.627-8.227 0.331-5.266 2.967-4.277 8.568-0.986 11.863 2.959 14.172 5.597 11.535 9.542 8.899 9.543 3.295 8.554-0.328 5.923-3.627 0.331 243.23 83.252 30.979v-196.42z" fill="#010180"/>
    <path d="m529.14 408.27v0.329l-2.301-15.49-6.91-12.194-9.216-7.911-11.518-3.624h0.331l-6.254 0.66-5.263 2.964-3.622 5.933h0.331l-1.975 8.242v-0.332l1.975 14.833 6.91 12.521h-0.331l9.216 8.241v-0.331l10.529 3.626 7.898-0.328-0.329 0.328 5.924-3.955v-0.331h0.328v0.331h0.329v117h-0.657l-74.699-28.013v-0.331l0.329-96.236v-97.552l-1.315-15.49v0.329l-6.255-15.161-9.871-9.557-10.531-3.624h0.331l-8.227 0.329-5.266 2.967h0.329l-4.277 8.568v-0.329l-0.989 11.863 2.964 14.172 5.592 11.535h-0.326l9.542 8.899v-0.329l9.543 3.296 8.554-0.329-0.327 0.329 5.923-3.627v-0.329h0.327v0.329h0.331l0.329 243.23-0.329-0.331 83.252 30.979-0.329 0.331v-196.42h0.658v196.75h-0.658l-83.254-30.979v-0.329l-0.327-243.23 0.327 0.331-5.923 3.624-8.554 0.329h-0.329l-9.545-3.293-9.542-8.899-5.592-11.537-2.964-14.17v-0.331l0.988-11.863 4.277-8.568 5.266-2.967v-0.331h0.329l8.227-0.329 10.529 3.627v0.329l9.874 9.556h0.328l6.253 15.161 1.315 15.49v97.552l-0.329 96.236-0.329-0.329 74.698 28.013-0.328 0.329v-116.67l0.328 0.329-5.923 3.955-7.898 0.329h-0.329l-10.529-3.624-9.214-8.239-6.909-12.526-1.976-14.827v-0.332l1.976-8.239 3.616-5.93 5.266-2.967v-0.331h0.329l6.254-0.66 11.516 3.627v0.331l9.213 7.908 6.91 12.194h0.331l2.302 15.49h-0.658z" fill="#000" fill-rule="nonzero"/>
    <path d="m385.01 496.92v100.85l-1.975 7.908-3.619 5.273-6.252 5.604-6.581 3.624-6.91 2.637-15.466 2.636h-15.797l-25.994-4.282-26.655-7.253-25.339-8.568-24.351-9.557-23.364-11.206-22.376-11.534-21.06-12.195-12.175-7.25 1.315-17.468 17.441 10.546 19.745 10.877 20.403 10.875 22.375 11.205 24.022 9.888 24.022 8.568 24.022 6.262 22.704 3.955 20.734 0.329 9.211-0.989 8.227-2.306 5.595-4.284 2.632-5.933 0.329-8.239-1.315-7.251-4.937-13.841-6.909-12.194-12.176 1.317-12.504 0.329-12.178-0.986-12.501-2.307-11.52-2.637-14.806-3.956-25.34-7.908-24.022-9.559-23.364-10.217-22.375-11.205-21.389-11.535-20.732-12.523-8.227-5.276-7.898-20.76 21.72 13.184 21.718 12.852 23.693 13.183 22.375 10.546 22.376 9.557 22.706 8.568 11.847 3.955 11.846 3.295 11.847 3.298 12.175 2.637 10.203 1.318 9.542 0.989h19.085l-7.898-19.116v-36.255l-11.516-0.658-11.517-1.317-11.518-1.978-11.518-2.306-11.846-3.627-12.176-3.955-23.364-8.568-22.047-8.899-21.389-10.215-20.402-10.217-19.743-11.534-19.087-11.537-19.085-12.524 9.542 0.658 8.885-0.329 3.948-1.646 17.112 10.217 18.099 10.217 18.427 9.885 19.417 9.56 20.071 8.568 21.06 8.239 22.049 7.25 10.858 2.964 11.189 2.638 8.885 1.649 8.885 1.318 8.556 0.328h8.225v-54.379l-7.568-0.658-7.898-0.66-7.567-0.658-7.899-1.317-15.137-3.627-14.808-4.284-14.808-4.944-14.808-5.273-14.48-5.601-14.148-5.933-13.493-5.933-13.161-6.593-12.176-7.25-6.252-3.296 1.973-14.501 14.15 7.58 19.088 9.23 20.403 9.557 20.729 8.239 21.389 7.251 22.049 6.262 22.046 4.284 22.376 2.637v-55.368l-8.883-0.329-8.887-0.66-8.556-1.318-8.225-1.32-9.543-2.635-12.175-3.295-21.718-6.593-20.734-7.908-20.071-8.571-22.049-10.874-21.389-10.877-25.337-15.161-7.899-7.251 1.976-11.863 39.487 22.409 23.364 12.195 24.351 11.534 25.668 10.217 25.995 8.242 13.493 3.295 13.491 3.295 15.794 1.978 12.507 0.329-0.66-81.733 1.646-9.888 3.948-9.228 5.923-8.24 7.899-7.25 7.238-3.953 7.899-2.966 8.227-2.309 8.554-1.647h14.479l14.479 0.329 14.809 1.318 14.808 3.297 22.706 5.602 16.453 4.613 26.654 8.899 26.326 9.888 50.348 21.092 48.043 23.069 29.286 16.478v15.49l-39.814-20.76-54.627-25.378-30.274-12.854-27.313-10.217-21.717-7.58-25.34-7.579-16.783-4.284-17.11-3.298-20.074-2.306-19.416-0.66-10.858 1.649-10.2 2.306-9.545 4.284-8.225 6.593-4.936 7.251-1.976 8.896-0.328 33.289 13.821-7.582 15.795-3.953 16.452-1.649 16.783 0.329 19.417 3.298 15.137 2.964 20.4 5.273 13.821 3.955 17.441 5.604 19.745 6.919 28.628 11.206 64.498 29.333 56.598 28.673v16.148l-51.003-25.376-53.31-24.718-27.641-11.865-28.301-10.546-29.287-9.888-29.945-8.568-17.113-3.627-20.729-2.635-20.731-0.66-10.531 1.649-11.189 2.966-10.2 4.613-8.556 6.593v52.731l7.898-2.638 8.556-2.637 13.491-2.307 12.506-0.329 12.833 0.329 12.833 0.989 21.06 3.298 21.718 4.284 22.049 5.93 25.666 7.911 25.997 8.899 35.211 13.512 34.222 14.83 64.496 31.639v16.81l-49.688-24.72-51.663-23.069-26.984-10.546-27.312-9.557-31.591-9.559-25.009-6.262-18.429-4.613-14.477-2.308-14.808-1.318-14.809-0.329h-14.479l-7.567 1.318-7.899 1.977-7.238 1.978-6.583 3.955v50.425l7.898-4.284 8.227-2.967 8.885-1.648 9.211-0.329h10.532l8.556 0.329 18.756 2.306 12.835 2.638 13.491 2.306 21.718 5.604 25.008 7.908 25.339 8.571 22.049 7.908 17.113 6.921 37.841 16.479 71.077 34.275v16.809l-55.283-27.026-51.005-22.412-28.299-11.203-28.63-10.217-29.285-9.559-29.945-7.908-15.468-3.295-15.794-2.967-15.466-1.649-15.466-0.329-12.506 1.978-10.858 3.295-10.531 6.262v52.731l7.24-3.955 8.885-2.636 6.91-1.648 11.518-0.989 11.515 0.331 15.468 0.986 14.477 2.307 17.112 2.966 17.112 3.958 28.299 8.237 27.644 9.228 53.638 20.765 56.928 26.035 41.79 20.763v17.136l-77.329-38.23-49.69-20.76-51.663-18.787-26.655-8.24-26.655-5.601-26.654-3.627-26.984-1.317-12.175 2.306-10.529 3.626-5.266 4.285-2.961 5.932 2.301 8.568 4.608 9.886 6.581 9.228 5.266 10.217v-51.742l12.175-2.306z" fill="#000080"/>
    <path d="m670.64 593.16v-297.93l15.468 7.579v298.59l-15.468-8.24z" fill="#010180"/>
    <path d="m705.19 311.38l14.808 8.568v297.93l-14.808-7.579v-298.92z" fill="#000080"/>
    <path d="m52.649 131.1l13.493 0.329 12.833 4.613 12.176 5.275 13.49 1.975 13.822 4.944 12.175 8.239 10.532 10.22 7.569 12.523 3.617 10.874 1.647 10.549v11.203l-0.658 10.877-8.227 43.831 7.569 6.593 6.581 7.58 5.595 8.239 4.934 8.899 3.622 9.228 2.633 9.886 1.972 10.217 0.987 10.546-0.658 9.559-1.644 9.557-2.964 8.897-3.617 8.899-4.937 7.25-5.923 6.262-6.912 5.273-7.896 3.955-13.164 1.32-12.502-2.637-4.937 29.661 14.151 30.32 7.238 20.434 8.228 26.366 3.29 15.819 1.315 10.546v11.205l-0.986 11.537-2.304 11.204-4.279 13.512-5.264 12.523-6.909 11.206-4.608 4.286-5.266 2.636-7.239-0.989-7.24-3.956-5.592-5.272-4.28-4.944-6.252-6.591-6.252-7.91-5.923-8.568-5.595-9.229-4.934-9.228-4.279-7.579-3.619-8.239-3.62-10.217-4.279-19.116-1.975-19.445-0.987-19.114 0.987-11.206 1.646-11.206 3.619-22.08-18.756-28.344-10.86-18.127-7.896-14.83-5.266-11.535-4.279-12.194-3.29-12.195-1.644-12.852-0.658-13.183 0.658-10.546 2.304-10.546 4.937-13.843 7.238-12.194 9.214-10.217 5.263-4.284 6.255-3.296 6.252-2.637 8.227-2.307h10.529l10.202 1.649 9.872 2.967 8.556 3.624 2.632-6.262 1.644-6.262-8.227-3.295-6.581-4.944-13.161-10.546-9.874-5.933-4.935-2.966-4.936-2.966-4.277-4.945-3.291-4.944-2.964-5.27-2.959-5.604-1.975-8.897 0.329-9.23 2.304-8.237 3.948-6.922 7.241-5.933 8.224-3.295z" fill="#000080"/>
    <path d="m85.907 151.2l-6.255 2.307-6.25 3.298-4.608 6.261-2.961 7.251-0.987 8.239 0.327 8.897 3.621 8.899 4.608 8.239 6.581 6.591 5.592 2.966 3.62 1.32h4.608l3.948-1.648 3.621-2.638 3.291-3.953 1.975-6.262 0.658-6.592-0.658-6.922-1.975-6.919-3.622-5.273-3.948-3.956-5.266-3.295-5.592-1.977 2.96-2.967 2.632-1.649 2.965-0.988 3.619-0.658 7.567 1.646 6.91 3.298 5.597 4.284 5.592 5.602 6.909 8.899 3.951 10.217 1.646 10.874v11.535l-1.317 12.194-2.633 11.866-3.291 12.192-2.961 11.208-9.543-3.626-10.86-3.624-11.518-1.98-12.504 0.331-9.542 2.635-8.556 3.956-10.201 7.25-8.556 9.559-6.252 10.875-4.937 12.854-3.29 13.51-0.329 12.526 1.644 12.523 1.975 11.864 3.622 11.205 4.935 12.524 5.265 11.865 6.91 12.195 9.871 17.467 24.024 38.23-3.29 17.796-2.633 13.513-1.317 13.514-0.329 11.863 0.986 16.148 2.304 15.821 3.291 13.512 4.276 12.194 5.266 11.864 6.581 9.888 5.266 5.273 4.279 1.648 2.962-0.331 3.619-2.306 3.619-4.944 4.277-9.557 4.279-10.546 3.291-11.206 1.975-12.523 0.329-11.866-0.66-11.863-1.644-11.206-6.581-22.082-7.899-23.069-7.898-18.785-8.883-21.094 8.556-42.843 6.581 2.964 8.554 1.649 9.214-0.329 8.229-2.966 7.567-4.613 7.57-9.559 5.263-11.864 2.633-13.183 0.658-6.591v-6.921l-1.644-9.888-1.975-9.228-2.962-8.569-3.948-7.908-5.266-8.899-4.937-5.273-6.252-6.593-6.909-5.93 0.329-5.933 1.644-10.217 1.646-8.568 2.304-8.57 1.973-8.569 0.989-8.899 0.657-9.228v-8.568l-1.646-8.568-2.302-7.911-3.948-7.579-4.937-6.593-4.937-5.273-4.934-3.955-5.266-3.955-5.265-2.966-5.924-2.307-5.923-1.318-4.937-0.66h-8.553zm10.2 110.41l10.2 2.306 9.545 3.624 8.556 4.616-15.797 79.755-9.214-8.24-6.91-9.885-4.279-11.537-0.986-12.523 1.317-6.262 2.631-5.602 3.622-4.286 5.263-2.964 5.923-2.967-0.329-2.306-5.594-0.989-4.937 0.989-4.606 1.977-3.948 2.967-5.923 5.602-3.948 7.579-2.304 8.239-0.987 8.899 1.316 9.229 1.975 8.568 2.633 8.239 3.29 7.91 3.948 7.251 4.935 6.919 5.265 6.264 6.252 5.931-6.58 34.934-9.214-12.523-9.214-12.854-8.556-13.841-7.896-14.173-6.254-15.489-4.277-16.148-2.304-13.183-0.329-11.866 1.315-10.874 2.964-8.571 5.263-8.568 6.581-6.919 7.899-4.944 13.493-4.284h10.2zm38.655 16.478l4.936 4.613 4.277 5.602 3.622 5.604 2.959 6.262 2.306 6.59 1.316 6.922 0.986 6.921v7.58l-1.644 7.25-2.304 6.591-3.619 5.932-4.937 5.276-5.594 2.635-5.595 1.649h-5.923l-5.923-0.331 15.137-79.096zm-37.998 187.2l5.266 8.571 5.923 9.225 5.266 10.22 4.934 10.543 3.951 11.208 2.959 11.535 1.975 11.863v9.557l-1.975 8.899-3.288 4.284-5.923 0.331-6.255-3.955-6.249-8.899-4.608-9.557-3.622-9.228-2.631-11.864-1.317-11.208v-8.897l0.989-8.899 4.605-23.729z" fill="#80ffff"/>
    <path d="m235.94 613.59l4.28 0.66 5.923-21.751 7.238-14.172 9.545-12.855 12.502-15.158 11.52-24.061 4.277-24.386-1.975-25.378-6.91-26.696-2.633-0.657 4.608 24.058 1.973 22.08-2.962 21.094-10.2 21.093-6.252 6.591-6.581 5.273-7.24 2.964-6.91 1.32 12.175-127.22-1.975-15.158-6.252-12.855-9.543-8.239-10.857-5.273-6.255 0.329-5.592 2.966-4.279 5.273-1.644 8.242 0.986 14.169 6.252 12.853 9.214 8.899 10.529 5.601 7.898-0.326 5.924-2.966-10.86 115.02-5.924 58.664z" fill="#ff8000"/>
    <path d="m605.48 496.59l3.948 0.332 4.608-22.083 5.923-14.83 8.885-13.183 11.187-15.819 10.531-25.046 2.633-24.389-3.619-25.049-8.888-26.036-2.301-0.657 5.923 23.4 3.291 22.08-1.316 20.763-8.887 21.751-5.921 6.922-6.581 5.933-6.583 3.952-6.91 1.318 3.62-127.54-2.633-15.161-7.239-12.195-9.873-7.579-10.858-4.284-6.581 0.329-5.266 3.295-3.621 5.275-0.987 12.195 2.304 11.534 6.912 13.51 8.883 7.582 9.874 4.284 8.556-0.989 6.581-3.955-3.622 115.35-1.973 58.992z" fill="#ff8080"/>
    <path d="m310.64 576.68l3.621 0.331 3.948-202.03-1.646-14.832-5.923-12.523-10.529-9.228-13.162-3.627-6.254 0.991-4.935 3.293-3.619 5.933-1.647 8.571 2.633 14.829 6.91 12.855 9.871 8.239 10.532 2.964 7.569-0.329 5.921-4.284-3.29 188.84z" fill="#ff80ff"/>
    <path d="m538.68 421.78l-2.304-15.49-6.583-12.194-9.869-7.911-11.189-3.624-6.254 0.658-5.266 2.966-3.617 6.262-1.975 8.239 1.975 14.833 6.91 12.194 9.214 8.237 10.528 3.626 7.899-0.328 5.923-3.956v116.67l-74.698-27.686v-194.12l-1.318-15.489-5.921-15.161-10.202-9.557-10.2-3.627-8.228 0.331-5.594 2.967-4.277 8.568-0.989 11.863 2.964 13.844 5.592 12.194 9.543 8.568 9.545 3.295h8.556l6.252-3.955 0.326 243.56 83.257 30.979v-196.75z" fill="#80ff80"/>
   </g>
  </g>
 </g>
</svg>
