<?xml version="1.0" encoding="UTF-8"?>
<svg width="1052.4" height="744.09" fill-rule="evenodd" image-rendering="optimizeQuality" shape-rendering="geometricPrecision" text-rendering="geometricPrecision" viewBox="0 0 23220 16418" xmlns="http://www.w3.org/2000/svg" xmlns:xlink="http://www.w3.org/1999/xlink">
 <defs>
  <linearGradient id="d" x1=".03127" x2="23220" gradientUnits="userSpaceOnUse">
   <stop stop-color="#805d7e" offset="0"/>
   <stop stop-color="#ffafc6" offset="1"/>
  </linearGradient>
  <linearGradient id="b" x1="193.65" x2="23220" gradientUnits="userSpaceOnUse">
   <stop stop-color="#e8a0cd" offset="0"/>
   <stop stop-color="#ffdfe8" offset="1"/>
  </linearGradient>
  <linearGradient id="k" x2="0" y1="16418" gradientUnits="userSpaceOnUse">
   <stop stop-color="#f6d8eb" offset="0"/>
   <stop stop-color="#fff" offset="1"/>
  </linearGradient>
  <linearGradient id="c" x1="9123.4" x2="6469.6" y1="6741.7" y2="12433" gradientUnits="userSpaceOnUse">
   <stop stop-color="#ffa8e4" offset="0"/>
   <stop stop-color="#fffff4" offset="1"/>
  </linearGradient>
  <linearGradient id="e" x2="0" y1="15058" y2="13244" gradientUnits="userSpaceOnUse">
   <stop stop-color="#fff" offset="0"/>
   <stop stop-color="#806677" offset="1"/>
  </linearGradient>
  <linearGradient id="a" x1=".03127" x2="23220" gradientUnits="userSpaceOnUse" xlink:href="#d"></linearGradient>
  <linearGradient id="p" x1="2049.7" x2="21895" gradientUnits="userSpaceOnUse" xlink:href="#b"></linearGradient>
  <linearGradient id="o" x1="3768.4" x2="20043" gradientUnits="userSpaceOnUse" xlink:href="#b"></linearGradient>
  <linearGradient id="n" x1="5633.4" x2="18616" gradientUnits="userSpaceOnUse" xlink:href="#b"></linearGradient>
  <linearGradient id="m" x1="6989.1" x2="17301" gradientUnits="userSpaceOnUse" xlink:href="#b"></linearGradient>
  <linearGradient id="l" x1="8158.6" x2="16414" gradientUnits="userSpaceOnUse" xlink:href="#b"></linearGradient>
  <linearGradient id="j" x1="8948.7" x2="5903.6" y1="6221.8" y2="12752" gradientUnits="userSpaceOnUse" xlink:href="#c"></linearGradient>
  <linearGradient id="i" x1="8869.7" x2="5621.6" y1="6133.4" y2="13099" gradientUnits="userSpaceOnUse" xlink:href="#c"></linearGradient>
  <linearGradient id="h" x1="9121.2" x2="5780.7" y1="6237.7" y2="13401" gradientUnits="userSpaceOnUse" xlink:href="#c"></linearGradient>
  <linearGradient id="g" x1="10302" x2="7027.1" y1="6555.5" y2="13579" gradientUnits="userSpaceOnUse" xlink:href="#c"></linearGradient>
  <linearGradient id="f" x1="11899" x2="8545.8" y1="6645.8" y2="13837" gradientUnits="userSpaceOnUse" xlink:href="#c"></linearGradient>
 </defs>
 <path d="m0 16418v-16418h23220v16418z" fill="url(#k)" fill-rule="nonzero"/>
 <path d="m19960 11438c-162 54-1716 931-4221 1739-629 194-1324 373-2084 483-757 108-1593 146-2456-22-863-157-1724-575-2417-1144-701-566-1259-1236-1791-1874-1040-1290-2103-2450-3368-3123-605-333-1238-498-1725-393-484 97-836 459-1013 894-181 427-172 910-50 1161 129 244 217 254 436 245 210-24 425-128 560-203 139-76 212-130 212-127-245 202-510 374-749 439-240 63-420 44-594-140-192-292-213-770-99-1181 111-418 355-799 687-1030 669-485 1652-265 2462 212 842 479 1583 1130 2248 1868 671 736 1270 1565 1994 2352 711 783 1637 1523 2744 1841 1099 331 2236 283 3292 105 2123-382 4057-1217 5935-2102z" fill="url(#f)" fill-rule="nonzero"/>
 <path d="m17026 12429c-132 24-1431 651-3518 969-1029 137-2341 142-3556-475-1222-605-2111-1715-2947-2721-835-1022-1710-1974-2711-2625-497-331-1002-590-1501-711-496-122-973-90-1338 97-748 380-984 1197-991 1667-7 501 155 712 146 709-270-370-308-986-151-1515 287-726 1005-1230 1779-1188 775 20 1509 405 2168 853 1345 901 2313 2222 3373 3490 537 629 1132 1249 1873 1700 736 457 1604 695 2458 738 1724 77 3361-422 4914-988z" fill="url(#g)" fill-rule="nonzero"/>
 <path d="m14522 12941c-52 12-353 88-848 167-495 72-1193 155-2014 55-817-94-1749-438-2532-1088-793-636-1451-1488-2131-2296-676-813-1400-1586-2195-2168-787-580-1626-1019-2404-1075-784-72-1381 314-1655 657-287 346-358 603-363 599 131-444 402-871 816-1152 613-337 1352-289 1974-70 634 218 1197 580 1725 975 1060 798 1888 1838 2714 2854 820 1006 1740 2028 3005 2478 1253 459 2630 345 3908 64z" fill="url(#h)" fill-rule="nonzero"/>
 <path d="m12918 12961c-18-3-82 4-187 10-337 21-1088 43-2008-257-597-200-1231-581-1803-1120-577-533-1107-1194-1652-1847-543-654-1112-1298-1720-1827-606-532-1232-951-1820-1236-588-284-1146-392-1540-384-396 7-616 93-615 89 386-155 817-186 1229-142 2227 608 3654 2392 4955 3997 661 805 1345 1596 2224 2102 871 516 1912 682 2936 614z" fill="url(#i)" fill-rule="nonzero"/>
 <path d="m11690 12729c-56-18-753-51-1600-520-861-450-1738-1450-2596-2507-854-1059-1846-2071-2733-2649-862-602-1599-808-1594-805 328 68 643 175 946 303 1586 862 2735 2254 3773 3548 528 644 1059 1266 1683 1742 620 478 1342 784 2121 889z" fill="url(#j)" fill-rule="nonzero"/>
 <path d="m11004 12422c-44-16-549-138-1172-560-631-411-1330-1181-2015-2022-684-838-1429-1687-2081-2238-644-560-1147-845-1142-850 230 119 458 244 678 381 1150 875 2019 2e3 2856 3021 834 1024 1721 1929 2876 2267z" fill="url(#c)" fill-rule="nonzero"/>
 <path d="m23220 10913c-109-168-251-374-428-610-463-613-1162-1441-2151-2201-980-756-2285-1430-3768-1523-1479-112-3057 413-4424 1304-693 432-1302 977-2008 1517-692 525-1409 1010-2166 1402-756 390-1564 691-2397 781-831 93-1661-51-2325-351-1337-611-2094-1503-2607-2077-504-595-750-957-754-954 532 593 1092 1169 1734 1662 794 762 1832 1422 3024 1533 1188 125 2322-270 3302-771 987-514 1879-1153 2726-1828 816-666 1660-1241 2586-1660 918-421 1903-661 2886-659 983 1 1954 258 2840 707 1597 816 2959 2197 3930 3725v3z" fill="url(#b)" fill-rule="nonzero"/>
 <path d="m21895 8831c-49-45-319-329-803-730-484-397-1192-914-2129-1306-930-396-2107-623-3340-450-1233 166-2480 721-3586 1475-557 374-1062 814-1611 1240-542 420-1096 810-1662 1150-1120 680-2340 1147-3460 1121-1123-9-1979-476-2486-825-517-359-767-610-769-608 512 385 1077 716 1685 914 804 367 1736 444 2596 257 863-183 1664-557 2406-1e3 746-440 1440-954 2113-1489 658-537 1343-1018 2081-1411 1464-789 3163-1159 4771-811 1611 332 3040 1291 4194 2474z" fill="url(#p)" fill-rule="nonzero"/>
 <path d="m20043 7038c-95-27-1088-739-2767-966-832-107-1819-44-2808 261-990 300-1972 827-2860 1469-877 654-1708 1392-2585 1938-865 561-1741 993-2548 1188-806 203-1517 159-1985 45-472-111-719-242-720-238 476 152 971 227 1454 190 1352 50 2637-574 3772-1297 1163-710 2140-1691 3323-2387 1165-706 2487-1194 3852-1248 1364-61 2718 345 3874 1046z" fill="url(#o)" fill-rule="nonzero"/>
 <path d="m18616 6138c-82-11-1004-388-2404-338-1398 28-3163 672-4609 1724-738 515-1381 1109-2050 1575-661 477-1310 869-1890 1149-1167 563-2030 582-2024 582 374-65 735-181 1081-329 997-311 1927-871 2806-1489 876-610 1688-1374 2657-1941 951-576 2001-1019 3112-1203 1107-189 2263-93 3320 271z" fill="url(#n)" fill-rule="nonzero"/>
 <path d="m17301 5637c-71 2-872-137-2004 55-1132 176-2526 763-3715 1598-605 412-1144 888-1651 1274-513 394-1007 735-1442 1e3 -869 538-1499 743-1496 748 268-134 528-283 779-449 743-376 1453-852 2135-1368 666-511 1371-1112 2149-1571 1529-948 3395-1535 5245-1287z" fill="url(#m)" fill-rule="nonzero"/>
 <path d="m16413 5430c-58 8-717-12-1626 204-909 206-2032 685-3015 1338-493 318-964 683-1373 1018-399 329-782 614-1112 854-664 472-1129 730-1128 731 195-143 388-288 576-442 564-363 1111-769 1644-1198 551-449 1153-883 1785-1252 1263-741 2729-1252 4249-1253z" fill="url(#l)" fill-rule="nonzero"/>
 <path d="m23220 5516c-1384 1559-3313 2523-5314 2955-2059 436-4204 257-6212-298-1012-268-1970-687-2964-989-991-311-2004-566-3038-671-1030-106-2092-45-3074 303-986 338-1858 946-2619 1652 755-712 1622-1330 2610-1678 984-358 2052-429 3088-331 1040 96 2060 344 3056 647 1002 296 1963 706 2968 962 2e3 534 4125 691 6149 244 2003-446 3942-1461 5261-3026l87 66v165z" fill="url(#a)" fill-rule="nonzero"/>
 <path d="m23220 6118c-1414 1513-3352 2426-5348 2811-2064 390-4202 165-6194-434-1005-289-1952-728-2936-1052-982-332-1988-609-3017-736-1026-129-2086-91-3075 235-992 315-1875 904-2650 1592 769-695 1648-1292 2642-1618 990-336 2057-383 3089-263 1036 119 2048 388 3037 713 993 317 1943 747 2941 1025 1985 577 4102 780 6132 378 2009-401 3966-1372 5317-2905l62 49v204z" fill="url(#a)" fill-rule="nonzero"/>
 <path d="m23220 6719c-1443 1468-3390 2331-5383 2670-2070 344-4199 72-6175-569-997-311-1933-770-2909-1115-973-353-1971-652-2997-801-1021-151-2081-137-3075 167-997 293-1893 861-2682 1532 783-677 1674-1254 2674-1558 996-314 2063-337 3091-195 1032 141 2037 433 3017 778 984 338 1924 789 2914 1088 1969 620 4079 869 6115 512 2015-356 3991-1283 5373-2784l37 31v244z" fill="url(#a)" fill-rule="nonzero"/>
 <path d="m23220 7318c-1472 1423-3427 2236-5418 2530-2075 299-4197-20-6157-704-989-332-1914-812-2881-1178-965-374-1955-695-2976-867-1017-173-2076-183-3076 99-1003 271-1910 819-2713 1471 797-659 1700-1216 2705-1497 1002-292 2068-292 3092-126 1028 164 2025 477 2996 844 976 360 1904 831 2888 1151 1953 663 4056 958 6098 646 2021-312 4015-1194 5429-2663l12 10v283z" fill="url(#a)" fill-rule="nonzero"/>
 <path d="m23220 7914c-1500 1379-3465 2144-5452 2393-2081 252-4194-113-6138-840-981-354-1895-854-2854-1241-956-395-1938-737-2955-932-1013-196-2071-228-3077 31-1008 249-1927 776-2744 1410 811-641 1726-1178 2737-1437 1008-269 2074-246 3093-58 1024 186 2014 522 2976 910 968 381 1885 872 2861 1214 1938 705 4033 1047 6080 780 2021-266 4027-1100 5472-2529v298z" fill="url(#a)" fill-rule="nonzero"/>
 <path d="m23220 8509c-1529 1336-3502 2052-5487 2256-2086 207-4192-206-6120-975-973-376-1876-896-2827-1304-947-416-1923-780-2935-997-1009-218-2067-274-3077-37-1014 226-1944 734-2775 1350 826-623 1752-1140 2769-1376 1014-247 2079-200 3094 10 1020 209 2002 566 2956 975 959 402 1866 914 2834 1277 1922 748 4010 1136 6063 914 2015-221 4029-1002 5503-2385v291z" fill="url(#a)" fill-rule="nonzero"/>
 <path d="m23220 9103c-1556 1293-3538 1962-5522 2122-2092 161-4189-298-6101-1111-966-397-1858-938-2800-1367-938-437-1906-823-2914-1062-1004-240-2061-320-3078-105-1019 204-1961 691-2806 1289 840-605 1778-1102 2801-1316 1019-225 2084-154 3096 78 1016 232 1991 611 2936 1041 951 424 1847 955 2807 1340 1907 791 3987 1225 6046 1049 2011-175 4032-906 5535-2243v284z" fill="url(#a)" fill-rule="nonzero"/>
 <path d="m23220 9695c-1583 1251-3575 1872-5556 1988-2098 115-4187-390-6082-1246-958-419-1839-979-2772-1430-930-458-1890-866-2894-1127-1e3 -263-2056-365-3079-173-1025 182-1978 649-2837 1229 854-587 1804-1064 2832-1256 1025-203 2090-109 3097 146 1012 254 1979 655 2916 1107 943 445 1827 997 2780 1404 1891 834 3963 1314 6029 1183 2006-130 4034-811 5566-2103v278z" fill="url(#a)" fill-rule="nonzero"/>
 <path d="m23220 10286c-1610 1209-3611 1784-5591 1857-2103 69-4184-483-6064-1381-950-441-1820-1021-2745-1493-921-479-1874-908-2873-1193-995-285-2051-411-3079-240-1030 160-1995 606-2868 1168 868-569 1830-1025 2864-1195 1031-180 2095-63 3098 215 1008 277 1968 700 2896 1172 934 466 1808 1039 2754 1467 1875 877 3940 1403 6012 1317 2002-86 4038-717 5597-1965v272z" fill="url(#d)" fill-rule="nonzero"/>
 <path d="m18906 6472c-7 2-13 4-20 6 9 3 18 7 27 10 6-2 13-4 19-6-9-4-18-7-27-11z" fill="#bfbfbf" fill-rule="nonzero"/>
 <path d="m18813 6435c-7 2-15 5-22 7l24 9c7-2 14-5 21-7-8-3-16-6-23-9z" fill="#bfbfbf" fill-rule="nonzero"/>
 <path d="m7550 5842v1037c11-20 31-41 59-62 29-20 63-37 104-49 40-13 73-19 102-19 83 0 124 40 124 120 0 42-14 82-43 120-23 33-57 60-103 81-20 9-42 17-65 23s-45 8-66 8c-40 0-74-11-102-32-28-20-42-52-42-94v-1134h32z" fill="#5d4480" fill-rule="nonzero"/>
 <path d="m5818 4220h56c9 81 26 153 51 215 19 56 44 106 75 150l53 70 78 93 142 166c109 141 163 287 163 438 0 78-16 164-49 260-34 96-85 200-152 312h-34l58-135 55-141c14-38 26-79 35-122l11-88 2-40v-64c-5-17-8-34-11-51s-12-44-26-79c-23-65-60-125-111-180-50-60-102-105-158-135-28-17-59-31-93-42s-64-16-91-16l1 1285c0 69-23 134-69 195-36 51-91 94-165 128s-144 51-211 51c-63 0-118-17-163-51-45-32-67-81-67-146 0-69 21-132 65-188 42-54 99-99 170-135 71-34 136-51 195-51 87 0 150 17 190 52l-1-1161v-593z" fill="#5d4480" fill-rule="nonzero"/>
 <path d="m14559 6019 67 8c-1 100 9 190 30 269 15 71 37 135 68 194l54 93 81 124 147 223c111 187 156 373 133 556-12 94-44 197-98 309-56 111-132 230-231 356l-41-5 90-155 88-163c23-45 43-92 61-143l27-105 9-48c3-26 6-52 10-78-3-22-5-43-6-63-1-21-8-55-20-100-18-82-54-160-108-235-52-81-109-143-171-187-31-25-67-47-107-65s-76-29-108-33l-191 1560c-10 84-48 160-113 226-52 57-125 100-220 131-95 30-183 40-263 30-77-9-141-38-191-86-49-46-69-108-60-187 10-84 46-157 106-218 59-60 135-106 226-138 91-31 173-42 244-33 106 13 180 44 223 92l172-1409 88-720z" fill="#7e387e" fill-rule="nonzero"/>
 <path d="m16202 6758v1251c0 43-14 83-43 121-30 39-68 69-115 90s-92 32-136 32c-40 0-75-12-106-35-30-23-46-54-46-92 0-42 15-82 45-119s69-69 116-96c50-22 94-34 133-34 41 0 79 13 113 38v-1156h38z" fill="#7e387e" fill-rule="nonzero"/>
 <path d="m16282 4390-78 925c-3 32-16 61-39 87-25 27-55 47-91 60s-70 18-103 15c-29-2-55-13-76-33-21-19-30-43-28-71 3-31 16-59 41-85 24-25 55-47 92-64 38-13 72-19 100-17 30 3 57 14 81 35l72-855 28 2z" fill="#7e387e" fill-rule="nonzero"/>
 <path d="m17732 5011-233 899c-8 31-26 57-53 79-29 22-62 37-100 43-38 7-72 6-104-2-29-7-52-22-70-45-17-22-23-47-16-74 8-30 26-56 55-77 28-21 62-37 102-47 40-7 74-7 102 1 29 8 54 24 74 48l215-831 27 7z" fill="#7e387e" fill-rule="nonzero"/>
 <path d="m15188 4882 69 926c2 32-6 62-25 92-20 30-47 55-80 73s-66 29-99 31c-29 2-56-4-81-20-24-16-37-37-39-65-2-31 7-61 27-91 20-29 47-55 81-78 36-19 68-30 96-32 30-2 59 5 86 22l-64-856 28-2z" fill="#7e387e" fill-rule="nonzero"/>
 <path d="m13968 4662 222 902c8 31 4 62-9 95-15 33-37 62-67 85-30 24-61 39-92 47-29 7-56 5-83-6-26-11-42-31-49-58-7-30-4-61 12-94 15-32 37-62 67-90 32-25 62-41 90-48 29-7 59-5 88 7l-205-833 27-7z" fill="#7e387e" fill-rule="nonzero"/>
 <path d="m12708 5743 337 865c12 30 13 61 3 95-10 35-29 66-55 93-27 27-55 47-85 59-28 11-55 12-83 4-27-8-46-25-56-51-11-29-12-60-1-95 11-33 29-66 55-98 28-29 56-49 83-59 28-11 58-12 89-4l-312-799 26-10z" fill="#7e387e" fill-rule="nonzero"/>
 <path d="m12530 6336 337 865c12 30 13 61 3 95-10 35-29 66-55 93-27 27-55 47-85 59-28 11-55 12-83 4-27-8-46-25-56-51-11-29-12-60-1-95 11-33 29-66 55-98 28-29 56-49 83-59 28-11 58-12 89-4l-312-799 26-10z" fill="#7e387e" fill-rule="nonzero"/>
 <path d="m13203 5061 283 884c10 30 9 62-3 95-12 34-33 64-61 90s-58 44-89 53c-28 9-56 9-83-1s-44-28-53-55c-9-30-8-61 5-95 13-33 33-64 60-94 30-27 59-45 86-54 29-9 58-9 89 1l-262-817 27-8z" fill="#7e387e" fill-rule="nonzero"/>
 <path d="m10775 6541 458 807c16 28 21 59 17 94-5 36-19 69-41 100s-48 54-76 71c-26 15-53 20-81 16s-49-18-63-43c-15-27-20-58-14-94 6-35 19-70 40-105 24-33 48-56 73-70 26-15 55-21 87-17l-423-746 24-14z" fill="#7e387e" fill-rule="nonzero"/>
 <path d="m16916 5401-203 906c-7 31-24 58-50 81-28 23-61 39-98 47s-72 8-104 1c-29-6-53-21-71-43s-24-47-18-74c7-30 24-57 52-79s61-39 100-51c40-8 74-9 102-3 29 7 55 22 76 46l188-837 27 6z" fill="#7e387e" fill-rule="nonzero"/>
 <path d="m18095 5381-275 887c-9 30-28 56-57 76-30 21-64 34-101 39-38 5-72 2-103-7-28-9-51-25-68-48-16-23-20-48-12-75 9-30 29-54 58-75 29-20 64-34 104-43 40-5 74-3 102 5 29 9 53 26 72 52l254-820 27 8z" fill="#7e387e" fill-rule="nonzero"/>
 <path d="m18508 5771-327 869c-11 30-32 54-61 73-31 19-66 30-104 33s-72-2-103-13c-28-10-49-28-65-52-15-24-18-49-8-76 11-29 32-53 63-71 30-18 66-30 106-36 40-3 74 1 101 11 28 11 51 29 69 56l302-803 26 10z" fill="#7e387e" fill-rule="nonzero"/>
 <path d="m19306 5722-352 859c-12 29-33 53-63 71-31 18-66 28-105 30-38 2-72-4-102-16-27-11-48-29-63-54-14-25-16-50-5-76 12-29 33-52 65-69 31-17 67-28 107-33 40-1 74 3 101 14 28 11 50 31 67 58l325-794 26 11z" fill="#7e387e" fill-rule="nonzero"/>
 <path d="m20020 5693-388 843c-13 29-35 52-66 68-32 17-67 25-106 25-38 0-72-7-102-21-27-12-47-31-61-57-13-25-14-51-2-76 13-28 35-50 68-66 32-16 68-25 108-29 40 0 74 6 100 19 27 13 49 33 65 61l359-780 25 12z" fill="#7e387e" fill-rule="nonzero"/>
 <path d="m6924 6133-170 1239c-6 42-25 80-59 114-35 34-77 59-126 74s-96 19-139 13c-39-5-73-22-100-49s-38-60-33-97c6-41 26-79 61-112 35-32 77-59 128-79 52-15 98-20 136-15 40 6 76 23 107 53l157-1145 37 5z" fill="#5d4480" fill-rule="nonzero"/>
 <path d="m11766 8388 338-2057 56 9c-6 38-8 71-5 98 1 29 6 57 15 85l32 73c10 21 27 44 49 69l159 212c121 164 165 343 133 537-10 62-30 127-59 192 8 61 8 122-2 183-9 54-26 110-51 167 28 50 33 127 16 229l-24 106c-3 17-7 32-12 45-12 25-20 44-25 57-31 70-70 129-117 178l-37-6c91-132 144-247 160-346 11-69 9-131-8-186-16-55-45-108-86-158-32-44-73-93-125-146l-211-196-167 1012c-10 63-42 118-95 168-56 49-120 84-192 105s-141 26-207 15-118-37-157-77c-35-42-48-94-38-156 11-64 43-120 99-167 53-46 118-81 195-104 75-22 141-28 198-19 71 12 127 39 166 80zm265-1250c-6 33-6 66-2 98 4 34 14 68 30 103 25 57 61 117 108 182l140 188c49 65 82 122 98 169l11-52c37-225-91-454-384-688zm68-388c-11 64-4 122 18 174 21 54 61 120 121 199l80 107 61 87c31 48 59 114 84 197l19-75c15-93 5-180-31-261-14-32-23-54-29-66-6-10-17-28-34-53-19-35-44-67-75-97-45-53-117-124-215-213z" fill="#7e387e" fill-rule="nonzero"/>
 <path d="m20697 6984-721-2871 99-25c16 63 38 120 67 172 30 52 66 96 107 135 66 61 170 127 312 199 139 73 256 146 351 219l173 149c52 46 97 95 135 147 79 105 136 228 171 369 15 58 25 115 31 170 7 59 9 124 6 197 84 69 150 198 197 386l35 184c7 28 11 54 12 78-2 44-3 78-4 101-1 122-22 235-63 339l-57 14c57-253 64-466 21-637-79-316-331-526-755-630l-48-12-83-32-142-49-94-20 410 1634c27 106 14 217-37 332-19 53-49 103-89 148-18 23-38 45-60 66-2 3-27 27-74 72-103 80-207 133-311 159-101 25-194 23-279-7-38-11-72-34-101-67-33-32-56-74-69-124-27-109-16-219 33-331 50-112 126-214 226-306s205-152 313-179c111-28 207-22 288 19zm-430-2210c41 162 119 292 236 392 116 102 272 208 466 318s322 201 384 272l-24-159c-17-69-37-128-60-176s-57-99-103-151c-72-98-158-174-258-229-87-59-189-112-306-158l-199-72-135-37z" fill="#7e387e" fill-rule="nonzero"/>
 <path d="m19374 10156c-35 60-93 112-172 154-78 43-156 64-232 64-29 0-55-4-78-11-25-8-51-24-79-46-41-37-62-86-62-146 0-65 22-127 67-186 44-51 101-94 172-128 70-32 137-49 202-49 70 0 127 16 172 49 45 34 67 86 67 155v1803h-57v-1660z" fill="#804454" fill-rule="nonzero"/>
 <path d="m12750 11203c-70 62-163 103-281 123-117 22-224 17-320-14-36-12-68-27-94-47-28-21-55-51-81-91-37-64-43-134-18-210 27-82 81-151 161-207 77-47 167-77 271-90 101-12 193-5 275 22 88 29 154 73 198 133 42 61 49 136 20 224l-746 2279-72-24 687-2097z" fill="#804454" fill-rule="nonzero"/>
 <path d="m8747 4552 56 10-53 305c57 10 112 31 166 63 49 27 86 66 112 117 26 46 33 98 23 157-5 29-16 53-33 72-17 20-40 35-68 45l-43 9-37-3c-38-10-67-29-89-57-18-27-28-60-31-99 6-34 27-64 62-88 34-23 68-34 102-33 22 4 34 0 36-12 2-9-5-21-20-37l-24-20-34-21c-25-15-49-24-73-28-18-3-38-3-60 1l-135 778 54 17c43 8 86-2 128-28 44-25 81-58 113-101 36-45 58-88 65-128l44 8c-33 121-87 205-162 253-77 47-162 62-254 46l-54 309-56-10 55-316c-82-31-150-90-204-177-25-41-43-89-54-146-10-57-10-118 1-183 18-106 65-195 140-267s165-112 272-119l55-316zm-70 400c-79 26-130 104-153 234l-38 216c-12 68-11 126 4 173 10 45 31 79 60 103l126-727z" fill="#5d4480" fill-rule="nonzero"/>
 <path d="m8129 8022c18-69 56-124 114-167 57-41 127-70 207-88l109-8c24 1 41 3 51 4 11 1 29 5 52 11 141 36 195 118 162 245-14 53-50 102-110 149-56 48-124 80-205 98-82 17-154 17-217 1s-113-45-152-87l-285 1104c92 9 181-6 267-44 86-36 159-89 220-158 60-68 100-140 120-218 23-90 32-171 26-242-2-75-15-175-39-300l38-4c18 64 33 134 44 210l10 105 1 110c0 29-2 61-6 97s-10 71-19 107c-25 98-70 179-135 243-64 66-154 139-269 220-116 80-207 153-271 220-67 67-113 147-137 242l-50-13 474-1836z" fill="#5d4480" fill-rule="nonzero"/>
 <path d="m13441 10641 170-455 7-46c0-14-9-22-26-24-20 0-49 21-88 64-37 48-74 113-111 194h-51c41-92 88-170 139-235 49-65 109-97 179-97 58 0 87 29 87 87 34-31 66-54 95-69 28-16 56-24 84-24 62 0 93 31 93 92 28-24 61-46 100-66 43-17 78-26 106-26 59 0 88 25 88 75l-7 51-126 359-9 32-5 21c0 14 8 23 24 29 44-5 105-72 182-201h46l-74 124-42 60-46 49c-32 29-70 44-113 44-75 0-121-35-139-104l20-86 24-66 87-233 6-21 2-20c0-19-8-29-24-30-43 0-77 32-102 95l-151 428h-162l166-461 5-32c0-17-12-27-35-30-37 0-65 32-85 95l-156 428h-160zm1166-567c26-67 62-127 106-181s100-99 168-134c66-35 137-53 213-53 42 5 73 19 93 44 5 6 11 17 19 32 8 17 11 37 11 60 0 39-12 74-37 103-25 31-55 47-91 47-42 0-66-21-74-64 3-26 12-52 27-76 19-23 41-40 66-49 8-7 11-12 11-15l-21-18c-8-5-20-7-38-7-97 0-174 104-230 311h199v74h-216l-23 95c-6 29-22 80-49 150l-44 122c-11 32-25 67-44 105-29 68-58 123-86 166l-58 79c-11 14-17 23-20 27-14 17-30 34-46 51-45 42-100 70-163 84l-49 5c-54 0-96-18-127-53s-46-74-46-115c0-35 12-65 35-88 15-17 43-34 83-51 11 0 24 2 37 7 12 6 23 14 33 23 18 19 27 42 27 70 0 12-5 27-14 46l-35 44-40 36c0 10 10 15 31 15 85 0 154-92 206-276l46-146 59-208 25-99c9-38 19-67 31-88h-153v-74h178z" fill="#804454" fill-rule="nonzero"/>
 <path d="m18231 8054-37-160-47 25-25-108 45-30-38-166 32-7 41 157 69-32-50-217 35-8 48 208 49-26 26 114-49 25 37 160 48-30 27 118-49 25 41 176-35 8-38-167-69 32 51 224-37 8-49-214-47 25-26-114 47-25zm102-55-36-155-68 33 37 160 67-38z" fill="#7e387e" fill-rule="nonzero"/>
 <path d="m4602 10107 290-284c25-22 42-39 52-51 9-11 23-29 43-54l95-126c64-88 114-185 150-291 14-37 26-76 36-119s20-91 28-146l9-144c2-51 0-94-6-131l-26-116c-12-42-27-77-44-107-30-68-74-122-132-162-60-38-129-51-208-38-78 13-148 39-211 79-62 41-103 102-123 182l-2 29c2 13 10 23 23 28l44 10 44-17 60-19c51-8 99 2 144 31 44 29 70 68 77 117 5 32 1 65-11 100-15 37-37 67-68 91-32 24-69 39-112 46-72 12-139-1-201-37-60-39-96-94-107-166-15-95 0-181 47-259s111-142 192-192 168-83 261-98c96-16 193-5 292 33 97 38 179 96 247 176s109 168 125 266c29 180-3 358-97 533-24 44-48 85-73 122-25 38-55 81-91 127-59 78-130 153-212 227-23 21-51 46-84 73s-74 60-123 99l-309 236-21-46zm1054-1665c-5-32 3-62 26-90 22-28 49-44 79-49 31-5 60 3 88 24 29 22 46 49 51 81 5 34-2 63-23 90-20 28-47 45-80 51-32 5-62-3-89-26-28-20-45-47-51-81zm80 495c-5-32 2-63 23-93 21-29 48-46 81-51 28-4 56 4 86 26 30 19 47 45 53 78 6 36-1 68-20 95-20 26-46 42-78 47-34 5-64-1-93-19-28-19-45-47-51-83z" fill="#5d4480" fill-rule="nonzero"/>
 <path d="m9944 9883c-4 42-16 85-34 131-21 54-52 99-92 136-40 38-82 66-125 85-44 20-111 47-201 81-31 12-59 29-82 51-24 26-43 55-56 89l-31-12 528-1338c18-45 48-78 90-99 41-21 85-32 133-33l71 4c16 3 27 5 34 7s18 6 34 12c82 32 108 87 77 165-9 24-27 46-53 65-27 20-58 37-94 50l-49 10-53 6c-36 1-67-4-93-14-50-20-84-44-101-73l-212 537 134-27c65-12 116-24 152-37 34-15 67-37 98-66s57-67 75-114c14-35 24-75 30-120 5-45 4-72-1-82l22-5c13 80 3 161-30 245-13 33-24 58-35 76-12 19-27 37-47 55-5 21-10 40-14 58-5 18-11 35-17 51-10 26-19 46-28 61-8 15-19 30-32 44zm48-182-106 49-88 39c-11 6-25 13-41 19-17 7-33 13-48 17-32 12-63 32-93 60-31 29-55 60-73 92 72-11 136-25 194-43 26-6 51-16 75-29 23-13 48-30 74-50 45-38 81-89 106-154zm-85 217c-42 36-89 66-141 90-24 13-59 28-105 46l-77 30c-31 12-58 28-80 47-22 22-40 48-52 79 65-10 119-21 161-31 41-10 78-24 112-42 38-17 72-43 102-77s53-71 69-113l5-17 4-11z" fill="#5d4480" fill-rule="nonzero"/>
 <path d="m20872 10501 29-24c-122 0-197-45-227-136-19-57-8-112 32-166s91-91 153-111c59-19 116-20 172-3 57 17 94 52 111 105 12 35 10 67-5 97-16 30-44 62-83 95l-26 34c55-8 107 0 158 26 49 21 83 59 101 113 23 70 13 135-29 193-42 59-98 100-168 122-63 21-127 21-190-1-66-20-108-60-127-119-14-43-12-81 6-115 18-33 50-71 95-111zm217 316c51-17 89-46 114-89 26-41 31-87 14-138-12-37-35-64-69-82-31-21-68-34-111-40-43-3-75-2-96 5-13 4-28 18-45 41-18 21-32 50-43 86-11 38-11 75 0 110 16 50 47 85 91 106 46 17 95 18 145 1zm-241-734c-40 13-74 39-100 77-21 40-25 80-11 122 14 44 47 76 99 98 51 19 101 21 147 5 18-6 31-12 38-20 6-7 13-15 21-26 7-9 12-19 16-30 21-40 25-80 12-121-16-47-45-80-88-98-41-21-86-23-134-7zm666 132c-4 23-7 38-10 45-2 9-6 21-12 36l-36 75c-22 49-52 80-89 92-17 6-32 3-46-8-13-11-25-27-35-47-12-35-11-78 1-130 11-50 32-97 63-140 32-42 67-68 103-80 26-9 46-7 60 6 3-20 17-34 42-42l14-2 4 303v21l25-20 13-19 13-36 9-24 10 1c4 13-4 41-23 85-22 37-43 60-64 70l-10-4-18-18c-10-31-15-86-15-164zm-1-121c-7-22-26-29-55-19-26 9-52 32-76 71l-27 58-17 66c-7 48-6 85 2 109 10 31 26 43 46 36 19-6 38-26 56-59l23-45 16-47 15-44 10-50c7-33 10-58 7-77zm289 242-12-412-1-24-3-34-15-12-21 2-23 5-11-4-6-3c-4-14 4-24 27-31l58-24c14-4 26-16 37-36l3-7 12-4 15 10 15 536 14-73 19-55 22-51 49-79c30-39 60-64 91-74 38-12 69-7 92 16 28 20 49 50 61 89 15 46 19 93 12 140-3 49-15 96-36 140s-52 83-91 119c-38 37-77 62-117 75-38 12-75 13-111 2-30-11-52-38-66-81-5-14-8-29-10-45-1-16-3-45-6-87zm342-249c-20-62-49-86-87-74-35 12-68 47-100 106-30 61-53 127-68 199-17 73-20 126-9 162 6 19 19 34 39 43 19 5 40 4 62-4 44-15 82-47 112-98 29-49 48-107 57-175 11-62 9-115-6-159zm125 320c-4-13-4-25 2-37s15-20 27-24c11-4 23-3 34 1 10 5 19 15 30 29 3 9 1 19-5 31-5 13-15 23-28 30-11 4-22 2-34-5-13-6-21-15-25-26z" fill="#804454" fill-rule="nonzero"/>
 <path d="m16313 12108c0-71 23-134 69-190 47-56 106-100 179-132 71-31 139-46 204-46 135 0 210 61 225 183 0 57-21 115-62 174-44 58-101 107-172 146-72 38-143 58-212 58-62 0-120-15-174-44v908c226-134 375-242 448-325 56-65 83-154 83-267 0-109-26-216-78-321l25-24c70 130 105 254 105 373 0 82-17 162-52 239 18 59 26 121 26 188 0 186-73 367-218 544l-55 60-86 77c-68 59-116 107-145 144-26 37-44 88-53 153h-57v-1897zm52 1541c117-51 215-117 293-196 78-80 135-162 172-246 4-13 10-31 18-54s15-51 24-85c8-32 11-71 11-114l-2-67c-6 14-13 28-21 42-9 14-20 28-32 42-14 20-25 34-33 44-8 9-21 23-42 41l-163 158c-51 51-98 110-141 180-37 69-65 154-83 256z" fill="#804454" fill-rule="nonzero"/>
 <path d="m2389 5793-125-329c-34-113-58-220-73-321-22-147-27-285-16-411 6-125 28-241 67-348 37-104 83-183 137-237 51-51 90-79 116-83 13-2 28 2 47 11l61 52c191 205 311 466 358 785 12 84 19 155 20 213 3 61 4 103 3 128-1 24-6 61-15 113-17 150-53 295-107 436-56 142-131 272-225 389l186 514 119-32c106-16 202-8 288 23 90 26 170 75 238 146 68 65 125 141 171 228s76 182 91 285c23 155 4 303-57 445-64 145-174 263-329 352l100 270 105 286 47 211c16 107 5 203-32 290-40 87-99 163-180 227-81 58-173 94-276 109-142 21-277-2-402-68-129-66-203-169-224-308-4-30-5-60 0-88l19-99c15-57 45-108 89-154 44-44 94-70 152-79 53-8 106-3 156 16 49 20 92 55 128 103 33 48 53 100 62 158 12 80-4 151-47 214-45 63-109 101-191 113l-31 5c64 74 156 102 276 84 56-8 113-30 174-64 61-36 110-78 147-128l45-76 21-72c10-60 8-138-6-232-10-67-24-124-42-172-10-36-17-62-21-79-7-17-15-35-24-53l-53-130-89-233-116 41-128 28c-135 20-276 11-424-27-136-46-262-113-378-200-107-89-200-200-277-334-78-131-128-268-149-411-9-64-13-131-11-202 0-27 4-59 10-96 3-36 9-70 17-102l58-200c11-32 23-62 36-90 11-27 25-59 42-94l90-174 99-161c85-126 176-256 274-389zm462 1291c-75 31-142 93-203 184-55 90-76 181-62 276 8 57 38 120 88 191 49 61 115 105 198 133 21-1 35 9 40 29-3 7-8 12-14 15-6 5-10 8-12 8-127-13-237-64-330-152s-149-194-167-318c-5-37-8-69-8-98s4-70 13-124 29-114 60-182c59-128 148-227 267-300l-160-462c-98 111-180 215-247 313-67 100-125 199-173 298s-83 205-106 317c-9 56-14 109-17 158-1 50 3 104 11 162 4 28 8 56 12 83 10 25 17 44 21 56 18 43 42 89 70 137 52 86 123 162 212 228 86 66 179 112 280 136 100 27 210 31 329 14 73-11 159-38 257-82l-362-1021zm-389-1384c42-30 85-83 131-161 27-41 49-79 65-114l59-134c37-87 65-181 84-282 18-101 22-188 11-261l-24-94c-15-49-36-84-63-105s-62-28-105-22c-77 11-141 72-193 181l-45 140-33 180-8 182 13 171c5 30 8 56 11 77 3 22 12 55 28 99 15 46 39 94 71 143zm485 1357 359 1001c190-113 264-309 223-588-26-92-66-170-120-234-55-65-123-115-203-151-79-32-165-41-260-27z" fill="#804454" fill-rule="nonzero"/>
 <path d="m12720 15393c-50-34-99-66-149-98 83 56 134 93 149 98zm3225 1025h-162l-17-359 52 31c12 78 31 145 57 202 17 34 40 76 70 126zm-936 0h-60c-410-377-827-740-1250-1084-976-782-2020-1461-3005-1680-827-197-1518 19-2071 404 61 54 122 108 183 164 356-229 751-384 1206-401 1072-51 2272 673 3222 1392 535 417 1016 827 1433 1205h-24c-877-792-1775-1494-2689-1990-779-418-1558-616-2201-486-319 61-603 190-863 358 65 59 129 119 194 180 74-44 150-84 228-120 673-332 1503-224 2244 113 136 61 268 126 397 195l-36-133 64 12 43 160c546 300 1018 651 1376 927 458 360 737 610 785 652-704-605-1438-1162-2153-1547l72 266c199 112 358 217 465 289-154-100-309-192-462-276l379 1400h-61l-390-1438c-704-375-1384-567-1962-472-256 37-491 123-709 244 56 55 113 111 169 168 214-108 429-177 647-194 614-70 1153 149 1351 234-674-272-1287-299-1803-86-56 23-111 48-166 76 45 45 90 90 135 136 91-41 181-74 270-96 488-138 905-44 1011-20-471-101-883-34-1258 140 278 284 555 582 831 890 124 138 247 278 370 420h-53c-88-101-176-201-265-300-303-339-611-671-924-990l-24 12c390 397 785 825 1180 1278h-45c-383-437-773-860-1169-1261-9 5-17 10-26 14 376 381 762 799 1155 1247h-37c-376-427-758-841-1145-1232-7 4-15 8-22 12 189 190 387 397 593 621 175 188 355 388 540 598h-32c-370-418-746-822-1127-1204-7 4-13 8-20 12 205 206 599 611 1114 1192h-30c-51-57-102-115-153-172-307-351-618-693-934-1019-217 131-422 296-619 482 186 231 369 468 550 708h-157c-160-208-322-414-487-617l-61 61c127 157 253 318 378 481 19 25 38 50 58 75h-132c-125-161-252-320-380-477-23 24-45 47-67 72 107 132 215 267 322 405h-112c-90-114-181-226-273-338-20 22-40 43-60 65 72 89 145 179 219 273h-100c-58-72-116-143-174-213-18 19-36 39-53 59 41 50 83 101 126 154h-92c-28-34-55-67-83-100-23 25-46 51-69 76 3 8 7 16 11 24h-111l34-37-39-168c-61 68-123 137-185 205h-99c46-50 92-101 138-152 50-56 100-111 150-165-37-50-75-100-112-149-140 156-283 313-429 467h-130c105-107 209-216 312-326 65-69 130-139 195-208-41-54-83-107-124-160-213 236-428 472-652 694h-171c172-160 340-330 504-506 85-89 169-180 254-270-45-57-91-113-136-169-301 331-603 658-924 945h-251l19-15c-8-12-15-25-22-40-21-46-30-87-27-122 1-16 4-28 9-39-35 30-71 60-107 89 2 42 2 83-1 123v4h-548c87-53 174-110 259-170l3-28c3-40 2-91-3-152l-18-175c-12-70-24-132-36-188s-26-109-41-160c-41-145-93-286-157-425l-96-199c-20-40-34-69-43-87-10-19-27-49-51-88l-284-492 16-43 298 444c47 72 87 133 119 183s59 94 82 132c80 131 150 258 209 381 35 73 66 140 91 198 25 57 50 118 75 183 43 112 74 219 96 320 360-289 704-637 1043-1011-42-42-84-83-126-124-326-360-663-690-1008-966-5-3 469 288 1197 1021 16-18 31-35 47-53l9-9c-537-540-1087-994-1641-1294-441-301-886-477-1308-550 29 2 243-11 635 101 419 115 1064 445 1813 1116 187 165 378 349 573 550l63-66c-254-260-513-505-777-729-797-682-1642-1092-2348-1085-539-88-1029 7-1466 197 2 4 211-165 655-321 436-146 1183-244 2206 348 577 323 1195 851 1816 1501 19-20 39-40 58-59-699-731-1447-1364-2200-1708-1079-508-1977-275-2642 217-143 66-280 142-413 226 186 206 386 486 575 782 0 3-71-100-203-265-110-137-275-332-441-473-178 118-347 250-511 392 1 85 7 179 18 278 424 517 862 998 1311 1417 15-11 30-21 46-30 98-45 208-59 328-44 131 32 259 95 383 189l118 101 108 110 64-233 39-128c7-17 13-33 18-50 3-17 7-45 14-83 13-48 21-109 25-184 6-105 2-197-12-274l-25-98-47-114c-37-78-85-155-143-230-57-73-112-129-163-169-111-85-193-100-245-45l29 22c75 58 136 137 182 236 44 98 63 192 59 281-4 64-18 116-45 156-29 39-65 57-108 56-45-4-92-25-141-63-53-40-101-98-144-174-44-79-75-156-93-232l-25-129c-6-36-8-71-6-106 8-156 69-240 181-251 109-14 229 30 361 131 95 73 181 165 259 277 78 119 138 241 180 366 40 123 57 244 51 363l-28 227-74 286-70 271c125 159 221 324 290 496h-113c-40-145-108-279-203-403l-67 270c65 46 130 90 195 133h-55c-49-34-99-68-148-103l-26 103h-111l10-40c-67-51-133-104-199-158-53-42-105-86-157-130-17 28-31 56-40 84 60 52 120 104 181 153 37 31 74 61 111 91h-40c-25-21-50-41-74-62-62-52-123-105-185-159-5 20-8 40-9 60-1 17-1 34 0 51 42 37 83 74 125 110h-35c-29-26-59-52-88-79 2 26 6 52 12 79h-181c-2-14-3-26-3-37-1-19-2-39-1-60-111-108-221-221-330-336-2 38-2 75-1 111 102 110 206 218 310 322h-28c-95-96-188-195-281-296 1 17 2 33 3 50 2 24 6 50 9 77 52 57 104 114 157 170h-26c-43-46-85-92-127-139 4 30 9 60 14 92 3 16 7 32 10 47h-381c-106-110-208-234-305-374-227-322-420-713-560-1115-39-59-78-118-117-178 158 522 426 1118 847 1620 13 16 27 32 41 47h-170c-356-446-659-1017-840-1605-33-128-60-256-81-383-52-82-103-165-154-248l-32 32c5-6 14-19 28-39-70-114-139-229-207-345-13 14-20 22-21 21l21-21c-7-12-14-24-22-37 7 12 15 24 22 36l4-4-4 5c69 115 138 229 208 343 8-11 16-23 26-37-70-111-139-222-207-334-8 8-16 16-23 24 6-7 14-15 22-25-18-29-36-59-54-88 18 29 36 59 54 88 8-9 17-19 27-31l-87-138 87 138c9-10 18-20 28-32-40-62-81-125-121-188 40 63 81 125 121 187 9-10 19-21 29-32-52-78-104-157-156-236 52 79 104 157 157 235 10-11 20-22 31-33-65-94-129-188-193-283 64 95 129 188 194 282 10-11 21-22 32-34-78-109-155-219-231-329 77 110 154 220 232 328 11-11 22-23 33-35-91-124-181-249-271-375 90 126 181 250 272 373 11-11 22-23 34-35-105-138-209-278-311-419 103 141 208 280 313 417 24-24 49-50 76-76 24-177 69-324 141-425 5 0-62 89-82 367 22-21 44-42 67-64 17-121 46-223 91-297 85-76 176-82 283-34 13-11 26-21 39-32 601-455 1524-1117 3029-881 748 124 1635 533 2560 1219 255 188 512 395 770 618 146-102 300-195 464-271 596-287 1357-302 2137-11 780 279 1547 781 2246 1320 593 457 1145 944 1656 1424zm-5367 0h-28l-16-51 27 2c5 16 11 33 17 49zm-4032 0h-53l-33-42c-77-102-140-212-188-329s-69-228-62-333c5-79 34-126 86-141 54-10 114 10 180 61 39 30 74 68 105 113 29 45 52 93 68 144 14 48 20 90 17 125-4 54-24 87-62 98-39 10-82-3-128-39l-56-54-41-44-39-11c-12 0-18 7-19 22l4 36c24 105 65 199 125 280 31 41 63 79 97 114zm-3141 0h-122c-323-505-553-1076-688-1606 4-3 89 346 376 913 105 212 253 456 434 694zm9143-1427c-26-11-52-21-78-32 42 18 69 30 78 32zm-607-17c-8-2-16-3-24-5 12 3 20 4 24 5zm-9543-759-4 4s2-1 4-4zm3056-1151 4 1-4-1zm2966 2218s2 2 5 6l-5-6zm-4207-2836c0 1 8-2 22-8-7 3-15 5-22 8zm1954-116s3 1 10 2c-3-1-7-1-10-2zm-3704 1820c34 54 69 108 103 162 5 36 11 72 17 109-51-80-101-160-150-240 10-10 20-20 31-30zm78-53c3 32 6 64 10 97-18-26-35-53-52-79 11-11 22-21 33-32 3 5 6 10 10 14zm-7-16 5-5c0 5 1 10 1 15-2-3-5-7-7-10zm18 121c4 34 8 68 13 102-34-52-67-104-100-156 11-10 21-21 32-31 18 28 37 57 55 85zm-276-429c68 109 137 217 207 324-10 14-19 26-27 38-70-110-140-221-208-333 9-10 19-19 29-29zm30-30c68 105 137 210 207 314-10 14-20 26-28 39-70-107-140-214-208-322 10-10 20-20 29-30zm31-32c65 96 130 192 195 287 1 10 1 19 2 29-7 9-13 18-20 26-70-103-139-207-208-312 10-10 20-21 31-31zm33-32c52 75 105 150 158 225 1 29 3 59 5 89-65-93-130-188-194-282 11-11 21-21 32-31zm34-33c40 57 81 113 122 169 0 28 0 55 1 84-52-73-104-147-156-221 11-11 22-22 33-32zm35-35 87 117c-1 27-1 54-1 81l-120-165c11-11 23-22 34-33zm37-35c18 23 35 46 53 69l-3 78c-29-38-57-76-85-114 12-11 24-22 35-34zm64-61c-5 40-8 82-11 125l-51-66c21-20 41-39 62-59zm1573 2446c1-24 3-49 4-72 3-10 6-19 8-28 108 112 218 221 328 325-5 25-8 52-9 81 0 9 0 18-1 27-111-107-221-218-329-332zm570 108c23-26 50-43 83-50 27 21 53 42 80 63 71 56 142 110 213 163l-25 104c-68-51-136-105-204-159-49-39-98-79-147-120zm-554-228c1-3 2-7 2-9 8-24 17-49 27-73 109 109 219 214 329 315-13 26-23 56-31 88-110-103-219-210-328-321zm-1245-1657c-5-36-10-72-14-107 418 515 851 995 1296 1416-20 16-40 35-58 55-419-409-828-871-1223-1364zm1300 1519c7-12 14-24 21-35 115 110 230 217 347 319-21 19-40 41-55 67-111-100-222-205-331-313 6-13 12-25 18-38zm32-50c17-23 36-42 56-60 128 118 257 231 387 338-32 7-62 20-89 40l-1 1c-118-102-236-209-353-319zm71-72c22-17 46-31 72-42 73-35 154-41 244-18 89 20 188 72 298 156 67 51 147 128 240 232l-75 307c-73-53-145-107-218-164-16-13-33-25-49-38 16-1 32 0 50 3 19 12 31 7 34-14-3-10-8-18-14-25-6-9-9-14-11-16-62-27-118-38-168-34-135-109-269-225-403-346zm6003-504-6-6c7-4 13-8 20-12 44 43 87 86 131 130-7 4-13 8-20 12-64-64-107-106-125-124 41 41 82 83 122 125-205 123-414 286-622 475l-102-126c190-182 386-346 595-480l6 6zm-1040 1142c-32-38-63-76-93-112 18-20 35-39 52-59 32 37 63 75 94 113-18 19-36 39-54 58zm-49 54c-19 20-37 41-56 61-19-51-35-104-47-157l-2-1c5-6 11-12 16-18 16 21 32 42 47 63l42 51zm-211-361c17-19 35-39 52-58 41 47 81 94 122 142l-54 57c-42-50-82-96-121-141zm110-121c7-8 14-15 21-23 12-13 25-27 37-40 41 48 83 97 124 146-20 21-40 41-60 62-41-49-82-97-122-145zm224 133c32 38 64 77 96 115l-60 63c-32-39-63-77-95-115 20-21 39-43 59-64zm64-68c22-24 45-47 67-71 33 39 65 79 98 118l-69 69c-32-39-64-79-96-117zm-452-7c-47-54-92-105-133-152 17-19 35-38 52-57 45 50 90 101 135 152-18 19-35 38-53 56zm-22-274 57-63c46 52 91 103 137 156-20 21-39 41-59 62-4-5-9-10-13-16-41-48-81-94-121-139zm122-134c22-23 43-47 65-70 47 53 93 106 139 160-22 23-45 46-67 69-46-54-92-107-137-159zm254 147c42 50 84 99 126 149l-69 69c-41-50-83-99-124-148 22-23 44-47 66-70zm79-82c20-20 40-41 60-61 40 47 79 94 119 141 4 4 7 9 11 13-21 20-41 39-62 59-42-51-85-102-127-153zm226 138c34 41 67 82 100 123-21 20-41 39-62 59-33-41-66-81-99-121 20-20 40-41 61-61zm735-600c7-4 15-9 22-13 44 43 88 87 132 131-7 4-15 8-22 13l-131-131zm-1596 576c-55-61-104-114-146-159 17-19 34-37 51-56 49 52 98 106 147 159-17 19-35 37-52 56zm-33-282c19-21 38-41 57-62 49 53 99 107 148 162-19 20-39 41-58 61-50-56-98-109-146-161zm124-135c21-23 43-46 64-69 50 55 100 110 149 166-22 23-44 45-66 68-49-56-98-111-147-165zm145-155c19-20 38-41 58-61 51 57 102 114 152 171-20 20-40 40-60 59-50-57-100-113-150-169zm270 179c47 54 95 109 141 164l-60 60c-47-55-93-109-140-163 20-20 39-41 59-61zm96-96c175-171 358-331 553-468 58 54 116 109 174 165-202 132-396 293-586 471-47-56-94-112-142-167zm577-485 21-15c59 55 117 110 176 166-7 4-14 8-20 13l-2 1c-60-57-118-112-175-165zm361 385c-208 130-415 294-620 479l-99-120c-11-13-21-26-32-38 186-180 379-345 584-483 56 53 111 107 166 161zm-141-178c7-5 14-10 22-14 56 54 112 108 167 163-7 4-15 9-22 13-57-56-112-110-167-162zm49-31c8-5 16-10 25-15 56 54 112 109 168 165-9 5-17 9-26 14-56-55-112-110-167-164zm57-35c8-5 15-9 23-13 56 55 113 111 169 167-8 4-16 8-24 13-56-56-112-111-168-166zm297 346c-9 5-18 9-26 14-44-45-88-89-132-133 9-5 17-10 26-14 44 44 88 88 132 133zm-99-151c8-4 16-9 24-13 45 45 89 90 134 135l-24 12c-44-45-89-90-133-134zm-3018 1186c57-49 113-100 168-152 283-260 547-557 818-856 47 48 94 96 140 145-17 19-34 37-52 55-36-38-60-63-69-73 22 26 43 52 64 78-16 18-33 35-49 53-283 312-572 607-874 865-19-37-43-67-70-88-28-22-54-31-77-27zm1048-1077c19-21 37-41 56-62 47 49 94 98 141 148-19 20-38 41-57 61-48-51-94-100-140-147zm126-138c21-23 42-45 63-68 48 50 95 100 142 151-22 23-43 45-65 68-47-51-94-101-140-151zm146-156c19-20 38-40 58-60 48 51 96 103 143 155-20 20-39 40-59 59-47-52-95-103-142-154zm157-162c111-112 225-221 344-326 45-40 91-79 138-117 59 52 117 104 176 158-180 134-351 284-515 443-48-53-95-106-143-158zm745-205c62 57 124 115 186 174-192 133-374 289-551 458-51-59-102-117-154-175 164-163 335-319 518-457zm19-14c7-5 14-10 21-16 63 57 127 115 190 173l-21 15c-65-60-128-117-190-172zm48-36c8-5 15-11 23-16 64 58 128 117 192 176l-24 15c-64-60-128-118-191-175zm56-39c7-5 14-10 22-15 64 59 129 118 193 178-8 5-15 10-23 14-64-60-128-119-192-177zm220 256c59 55 118 111 176 168l-24 15c-59-57-117-113-176-167l24-15zm33-21c8-5 15-9 23-14 59 56 118 113 177 170-8 4-16 9-24 13-59-57-118-113-177-169zm63-38c423-251 903-387 1474-303 430 58 883 226 1344 467l71 264c-347-189-801-389-1306-483-472-82-961-12-1405 226-59-58-119-115-178-171zm-7176-226c-7-39-14-77-19-114 390 492 794 954 1210 1365-17 19-32 40-47 63-392-398-774-842-1143-1314zm1095 1397c-367-386-723-811-1068-1261-9-42-18-83-25-123 365 471 743 915 1132 1315-14 22-27 45-39 69zm-1032-1112c-12-45-22-90-32-134 341 449 693 874 1057 1261-12 24-23 49-33 74-341-371-672-776-992-1202zm961 1300c-313-352-618-732-912-1131-16-51-30-101-43-151 316 425 644 828 981 1200-9 26-18 54-25 82zm-4 18c-7 29-13 59-17 90-284-329-561-681-828-1049-15-44-30-88-44-132-4-13-8-25-12-38 291 397 592 776 901 1128zm-612-412c-47-91-90-185-131-279 231 321 468 631 712 924-1 35-1 72 0 110-198-241-392-494-581-755zm582 780c1 11 1 21 2 32-211-204-396-462-549-747 178 246 361 485 548 715zm-729-1096c-28-67-54-136-78-204 264 365 536 714 816 1042-4 32-7 65-9 99-249-297-492-611-728-938zm-545-1193c7-7 14-13 21-20 13 18 27 36 40 54 5 36 10 71 16 108-24-33-48-65-72-98-2-15-4-29-6-44zm24-23c9-9 18-17 27-25 3 24 6 49 9 74l-36-48zm-40-138c13 17 25 33 38 50-10 13-20 26-30 38-3-28-6-56-8-82v-6zm-6-98c20 26 41 53 61 79 1 14 2 28 4 42-6 8-12 16-19 23-14-18-27-36-41-54-2-31-4-62-5-91zm65-336c-13 121-14 259-4 407-20-26-41-52-61-78-5-105-4-194 1-271 21-20 43-39 65-58zm58 861c-26-36-51-71-77-107-6-37-12-73-17-108 24 33 48 67 72 100 6 38 13 76 21 115zm29 136c-28-39-55-79-83-118-8-40-15-78-21-116 26 36 51 73 77 109 8 41 17 83 27 125zm36 148c-30-43-60-87-89-130-10-43-19-85-27-125l84 120c2 10 4 20 7 30 8 35 17 70 26 105zm47 167c-33-49-67-98-100-148-12-46-24-92-34-137 30 45 60 89 91 133 13 50 28 101 43 151zm61 191c-38-57-76-114-114-172-15-52-30-103-43-153 34 51 67 101 101 152 18 58 36 115 56 173zm292-1628c-65 64-127 127-184 184-53 59-103 115-149 168 7-95 22-174 44-233 83-189 152-196 289-120zm6213 708-21 15c-464-398-915-735-1344-997-1288-805-2284-883-2900-806-526 74-823 207-902 242 576-214 1220-285 1923-141 977 159 2066 779 3111 1660 26 22 53 45 79 67-7 6-15 11-22 17-938-797-1736-1245-2279-1456-514-201-813-243-869-253 563 116 1159 372 1757 746 458 274 912 608 1362 985-7 5-13 10-20 15-453-381-742-578-801-619 264 193 527 404 787 630-167 132-324 277-475 426-480-512-973-970-1469-1329-764-557-1512-834-2096-833-948 12-1536 451-1950 842-67-59-128-107-185-140 317-236 653-436 1013-586 967-461 2196-460 3535 273 591 317 1183 744 1765 1242zm14 180c60 52 120 104 180 157l-21 15c-62-55-122-107-179-156 7-5 13-11 20-16zm51-39c61 52 121 106 181 160-8 5-16 11-23 16-52-46-103-91-154-136-9-8-18-15-26-23 7-6 15-12 23-17zm54-40c61 53 122 107 182 162-7 5-14 10-22 15-61-55-121-108-182-161l21-15zm-1056-635s3 3 11 8c-4-3-7-6-11-8z" fill="url(#e)" fill-rule="nonzero"/>
</svg>
