<?xml version="1.0" encoding="UTF-8"?>
<!DOCTYPE svg  PUBLIC '-//W3C//DTD SVG 1.1//EN'  'http://www.w3.org/Graphics/SVG/1.1/DTD/svg11.dtd'>
<svg enable-background="new 0 0 84.8 72.35" version="1.1" viewBox="0 0 84.8 72.35" xml:space="preserve" xmlns="http://www.w3.org/2000/svg" xmlns:xlink="http://www.w3.org/1999/xlink">
<symbol id="q" viewBox="0 -20.55 7.25 20.55">
		<g clip-rule="evenodd" fill-rule="evenodd">
			<path d="m3.85-18.85c0-0.467-0.167-0.867-0.5-1.2-0.367-0.333-0.8-0.5-1.3-0.5s-0.917 0.167-1.25 0.5c-0.367 0.333-0.55 0.733-0.55 1.2s0.183 0.867 0.55 1.2c0.333 0.333 0.75 0.5 1.25 0.5s0.934-0.167 1.3-0.5c0.333-0.333 0.5-0.733 0.5-1.2z"/>
			<path d="m4.1-13.55c0-0.534-0.2-0.983-0.6-1.35s-0.883-0.55-1.45-0.55c-0.566 0-1.05 0.184-1.45 0.55s-0.6 0.817-0.6 1.35 0.2 0.983 0.6 1.35 0.883 0.55 1.45 0.55 1.05-0.184 1.45-0.55 0.6-0.817 0.6-1.35z"/>
			<path d="m4.75-8.2c0-0.433-0.183-0.783-0.55-1.05-0.367-0.3-0.833-0.45-1.4-0.45-0.533 0-0.983 0.15-1.35 0.45-0.367 0.267-0.55 0.617-0.55 1.05 0 0.434 0.184 0.8 0.55 1.1 0.367 0.3 0.817 0.45 1.35 0.45 0.534 0 1-0.15 1.4-0.45 0.367-0.3 0.55-0.667 0.55-1.1z"/>
			<path d="m5.6-4.15c0-0.3-0.184-0.55-0.55-0.75-0.367-0.2-0.817-0.3-1.35-0.3-0.534 0-0.983 0.1-1.35 0.3-0.4 0.2-0.6 0.45-0.6 0.75s0.2 0.55 0.6 0.75c0.367 0.2 0.817 0.3 1.35 0.3s0.983-0.1 1.35-0.3 0.55-0.45 0.55-0.75z"/>
			<path d="m7.25-0.85c0-0.233-0.183-0.433-0.55-0.6-0.4-0.167-0.867-0.25-1.4-0.25s-0.983 0.083-1.35 0.25-0.55 0.367-0.55 0.6 0.184 0.434 0.55 0.6 0.817 0.25 1.35 0.25c0.567 0 1.034-0.083 1.4-0.25s0.55-0.367 0.55-0.6z"/>
		</g>
</symbol>
<symbol id="r" viewBox="0 -20.55 7.2 20.55">
		<g clip-rule="evenodd" fill-rule="evenodd">
			<path d="m3.35-18.85c0 0.467 0.183 0.867 0.55 1.2 0.333 0.333 0.75 0.5 1.25 0.5s0.934-0.167 1.3-0.5c0.333-0.333 0.5-0.733 0.5-1.2s-0.167-0.867-0.5-1.2c-0.367-0.333-0.8-0.5-1.3-0.5s-0.917 0.167-1.25 0.5c-0.367 0.333-0.55 0.733-0.55 1.2z"/>
			<path d="m3.1-13.55c0 0.533 0.2 0.983 0.6 1.35s0.883 0.55 1.45 0.55 1.05-0.184 1.45-0.55 0.6-0.816 0.6-1.35-0.2-0.983-0.6-1.35c-0.4-0.4-0.883-0.6-1.45-0.6-0.566 0-1.05 0.2-1.45 0.6-0.4 0.367-0.6 0.817-0.6 1.35z"/>
			<path d="m2.5-8.2c0 0.434 0.183 0.8 0.55 1.1s0.817 0.45 1.35 0.45 0.983-0.15 1.35-0.45c0.4-0.3 0.6-0.667 0.6-1.1s-0.2-0.8-0.6-1.1c-0.367-0.3-0.817-0.45-1.35-0.45s-0.983 0.15-1.35 0.45-0.55 0.667-0.55 1.1z"/>
			<path d="m1.6-4.15c0 0.3 0.183 0.55 0.55 0.75s0.833 0.3 1.4 0.3c0.534 0 0.983-0.1 1.35-0.3s0.55-0.45 0.55-0.75-0.184-0.567-0.55-0.8c-0.367-0.2-0.816-0.3-1.35-0.3-0.533 0-1 0.1-1.4 0.3-0.367 0.233-0.55 0.5-0.55 0.8z"/>
			<path d="m0-0.85c0 0.233 0.183 0.434 0.55 0.6s0.817 0.25 1.35 0.25 0.983-0.083 1.35-0.25c0.4-0.167 0.6-0.367 0.6-0.6s-0.2-0.433-0.6-0.6c-0.367-0.167-0.817-0.25-1.35-0.25s-0.983 0.083-1.35 0.25-0.55 0.367-0.55 0.6z"/>
		</g>
</symbol>
<symbol id="s" viewBox="0 -20.65 5.85 20.65">
		<g clip-rule="evenodd" fill-rule="evenodd">
			<path d="m2.15-18.95c0 0.467 0.184 0.85 0.55 1.15 0.333 0.333 0.75 0.5 1.25 0.5s0.933-0.167 1.3-0.5c0.333-0.3 0.5-0.684 0.5-1.15s-0.167-0.867-0.5-1.2c-0.367-0.333-0.8-0.5-1.3-0.5s-0.917 0.167-1.25 0.5c-0.367 0.333-0.55 0.733-0.55 1.2z"/>
			<path d="m1.75-13.55c0 0.533 0.2 0.983 0.6 1.35s0.883 0.55 1.45 0.55 1.05-0.184 1.45-0.55 0.6-0.816 0.6-1.35-0.2-0.983-0.6-1.35-0.883-0.55-1.45-0.55c-0.566 0-1.05 0.184-1.45 0.55s-0.6 0.817-0.6 1.35z"/>
			<path d="m1.5-8.2c0 0.434 0.183 0.8 0.55 1.1s0.817 0.45 1.35 0.45 0.983-0.15 1.35-0.45c0.4-0.3 0.6-0.667 0.6-1.1s-0.2-0.783-0.6-1.05c-0.367-0.3-0.817-0.45-1.35-0.45s-0.983 0.15-1.35 0.45c-0.367 0.267-0.55 0.617-0.55 1.05z"/>
			<path d="m0.85-4.15c0 0.3 0.183 0.55 0.55 0.75s0.833 0.3 1.4 0.3c0.534 0 0.983-0.1 1.35-0.3s0.55-0.45 0.55-0.75-0.184-0.55-0.55-0.75c-0.367-0.2-0.817-0.3-1.35-0.3-0.566 0-1.033 0.1-1.4 0.3s-0.55 0.45-0.55 0.75z"/>
			<path d="m0-0.85c0 0.233 0.183 0.434 0.55 0.6s0.817 0.25 1.35 0.25 0.983-0.083 1.35-0.25c0.4-0.167 0.6-0.367 0.6-0.6s-0.2-0.433-0.6-0.6c-0.367-0.167-0.817-0.25-1.35-0.25s-0.983 0.083-1.35 0.25-0.55 0.367-0.55 0.6z"/>
		</g>
</symbol>
<symbol id="t" viewBox="0 -20.65 5.85 20.65">
		<g clip-rule="evenodd" fill-rule="evenodd">
			<path d="m3.65-18.95c0-0.466-0.167-0.867-0.5-1.2-0.367-0.333-0.8-0.5-1.3-0.5s-0.917 0.167-1.25 0.5c-0.367 0.333-0.55 0.733-0.55 1.2s0.184 0.867 0.55 1.2c0.333 0.333 0.75 0.5 1.25 0.5s0.933-0.167 1.3-0.5c0.333-0.333 0.5-0.733 0.5-1.2z"/>
			<path d="m4.1-13.55c0-0.534-0.2-0.983-0.6-1.35s-0.883-0.55-1.45-0.55c-0.566 0-1.05 0.184-1.45 0.55s-0.6 0.817-0.6 1.35 0.2 0.983 0.6 1.35 0.883 0.55 1.45 0.55 1.05-0.184 1.45-0.55 0.6-0.817 0.6-1.35z"/>
			<path d="m4.35-8.2c0-0.433-0.184-0.783-0.55-1.05-0.367-0.3-0.833-0.45-1.4-0.45-0.533 0-0.983 0.15-1.35 0.45-0.367 0.267-0.55 0.617-0.55 1.05 0 0.434 0.183 0.8 0.55 1.1s0.817 0.45 1.35 0.45 1-0.15 1.4-0.45c0.367-0.3 0.55-0.667 0.55-1.1z"/>
			<path d="m4.95-4.15c0-0.3-0.184-0.55-0.55-0.75-0.367-0.2-0.817-0.3-1.35-0.3s-0.983 0.1-1.35 0.3c-0.4 0.2-0.6 0.45-0.6 0.75s0.2 0.55 0.6 0.75c0.367 0.2 0.816 0.3 1.35 0.3s0.983-0.1 1.35-0.3 0.55-0.45 0.55-0.75z"/>
			<path d="m5.85-0.85c0-0.233-0.184-0.433-0.55-0.6-0.4-0.167-0.867-0.25-1.4-0.25s-0.983 0.083-1.35 0.25-0.55 0.367-0.55 0.6 0.183 0.434 0.55 0.6 0.817 0.25 1.35 0.25c0.567 0 1.033-0.083 1.4-0.25s0.55-0.367 0.55-0.6z"/>
		</g>
</symbol>
<symbol id="u" viewBox="0 -2.75 83.85 2.75">
		<polygon points="81.6 0 83.85 -2.75 0 -2.75 3 0" clip-rule="evenodd" fill-rule="evenodd"/>
</symbol>
<symbol id="v" viewBox="0 -7.25 34.5 7.25">
		<polygon points="0 -7.25 0 0 34.5 0 34.5 -7.25" clip-rule="evenodd" fill="#F0E9DD" fill-rule="evenodd"/>
</symbol>
<symbol id="w" viewBox="0 -8.85 49 8.85">
		<polygon points="49 -8.85 0 -8.85 0 0 49 0" clip-rule="evenodd" fill="#4D3D23" fill-rule="evenodd"/>
</symbol>
<symbol id="x" viewBox="0 -7.7 1.05 7.7">
		<polygon points="1.05 -0.1 1.05 -7.1 0 -7.7 0 0" clip-rule="evenodd" fill="#8A6E47" fill-rule="evenodd"/>
</symbol>
<symbol id="y" viewBox="0 -6.95 16.7 6.95">
			<linearGradient id="o" x1="11872" x2="11910" y1="-19047" y2="-19047" gradientTransform="matrix(-.8991 -.4378 .4378 -.8991 19048 -11919)" gradientUnits="userSpaceOnUse">
			<stop stop-color="#fff" offset="0"/>
			<stop stop-color="#fff" stop-opacity=".0196" offset="1"/>
		</linearGradient>
		<polygon points="16.7 0 16.7 -2.1 5.55 -6.95 0 -6.95" clip-rule="evenodd" fill="url(#o)" fill-rule="evenodd"/>
</symbol>
<symbol id="z" viewBox="-0.025 -40.85 19.775 40.85">
		<path d="m17.95 0l1.8-40.85h-19.35c-0.566 7.4-0.566 12.767 0 16.1 0.6 3.367 1.917 7.25 3.95 11.65 0.3 2.667 0.6 4.85 0.9 6.55 0.267 1.667 1.133 3.85 2.6 6.55h10.1z" clip-rule="evenodd" fill="#4D3D23" fill-rule="evenodd"/>
</symbol>
<symbol id="aa" viewBox="0 -5.4 12.05 5.4">
			<linearGradient id="p" x1="11884" x2="11912" y1="-19050" y2="-19050" gradientTransform="matrix(-.8992 -.4376 .4376 -.8992 19047 -11921)" gradientUnits="userSpaceOnUse">
			<stop stop-color="#fff" offset="0"/>
			<stop stop-color="#fff" stop-opacity=".0196" offset="1"/>
		</linearGradient>
		<polygon points="7.65 -0.1 12.05 0 0 -5.4 0.05 -3" clip-rule="evenodd" fill="url(#p)" fill-rule="evenodd"/>
</symbol>
<symbol id="ab">
</symbol>
			<use transform="matrix(1 0 0 -1 0 69.6)" y="-2.75" width="83.85" height="2.75" enable-background="new" opacity=".25" xlink:href="#u"/>
			<polygon points="3.95 55.4 10 47.8 76.6 47.6 82.5 55.7" clip-rule="evenodd" fill="#362222" fill-rule="evenodd"/>
			<path d="m12.3 47.85h60.2l0.4 0.25 0.75 1.601c0.533 1.133 0.866 1.767 1 1.899 0.232 0.233 0.316 0.5 0.25 0.801-0.1 0.366-0.383 0.599-0.85 0.699-0.399 0.101-1.899 0.217-4.5 0.351-2.833 0.166-4.633 0.267-5.399 0.3-0.768 0.033-6.317-0.033-16.65-0.2-10.3-0.166-15.783-0.233-16.45-0.2-0.934 0.066-3.051 0.149-6.351 0.249-3.167 0.101-5.267 0.15-6.3 0.15s-2.6-0.083-4.7-0.25c-2.233-0.167-3.7-0.333-4.4-0.5-0.633-0.167-0.316-1.066 0.95-2.7 0.633-0.833 1.316-1.65 2.05-2.45z" clip-rule="evenodd" fill="#241616" fill-rule="evenodd"/>
			<g clip-rule="evenodd" fill-rule="evenodd">
				<path d="m73.05 23.25l1.95-0.3c1.3 0 2.017 0.517 2.15 1.55 0.166 1.667 0.25 4.917 0.25 9.75h2.75v4.75c-2.367 0.5-3.733 0.417-4.101-0.25-0.267-0.467-0.433-2.316-0.5-5.55l-0.05-4.7-2.449-0.5v-4.75z" fill="#A78756"/>
				<path d="m75.55 33.2l-0.05-4.7-2.45-0.5v-4.75l0.5-0.2c0.434-0.1 0.9-0.083 1.4 0.05l-0.15 3.75 0.9 0.25c0.6 0.533 0.899 1.8 0.899 3.8v3.8c0.101 1.6 0.334 2.399 0.7 2.399l2.851-0.2v0.5l-0.3 1.651c-2.199 0.367-3.467 0.267-3.8-0.3-0.267-0.467-0.433-2.316-0.5-5.55z" fill="#856B44"/>
				<path d="m78.75 33.75h2.5l1.8 0.5c1.167 0.6 1.75 1.517 1.75 2.75 0 1.3-0.583 2.184-1.75 2.65l-1.8 0.35h-2.5v-6.25z" fill="#362222"/>
			</g>
			<g clip-rule="evenodd" fill-rule="evenodd">
				<path d="m73.05 23.25l1.95-0.3c1.3 0 2.017 0.517 2.15 1.55 0.166 1.667 0.25 4.917 0.25 9.75h2.75v4.75c-2.367 0.5-3.733 0.417-4.101-0.25-0.267-0.467-0.433-2.316-0.5-5.55l-0.05-4.7-2.449-0.5v-4.75z" fill="#A78756"/>
				<path d="m75.55 33.2l-0.05-4.7-2.45-0.5v-4.75l0.75-0.25c0.601-0.167 1.167-0.167 1.7 0v3.1l0.55 0.6c0.367 0.8 0.55 2.2 0.55 4.2v3.8c0.101 1.6 0.334 2.399 0.7 2.399l2.851-0.2v0.5l-0.301 1.651c-2.199 0.367-3.467 0.267-3.8-0.3-0.267-0.467-0.433-2.316-0.5-5.55z" fill="#856B44"/>
				<path d="m75.55 33.2l-0.05-4.7-2.45-0.5v-4.75l1.4-0.3 0.35 3.9 0.75 0.7c0.467 0.567 0.667 1.083 0.601 1.55-0.134 1.4-0.2 2.933-0.2 4.6-0.033 2.566 0.133 3.95 0.5 4.149 0.533 0.334 1.583 0.467 3.149 0.4l-0.399 0.9c-1.833 0.233-2.884 0.1-3.15-0.4-0.268-0.466-0.434-2.315-0.501-5.549z" fill="#3D311C"/>
				<path d="m78.75 33.75h2.5l1.8 0.5c1.167 0.6 1.75 1.517 1.75 2.75 0 1.3-0.583 2.184-1.75 2.65l-1.8 0.35h-2.5v-6.25z" fill="#362222"/>
			</g>
				<path d="m18.1 13.6l1.15-2.35h10.1l1.8 40.85h-19.35c-0.566-7.399-0.566-12.767 0-16.1 0.367-2.1 1.134-4.667 2.3-7.7l1.65-3.95c0.3-2.667 0.6-4.85 0.9-6.55 0.166-1.033 0.65-2.433 1.45-4.2z" clip-rule="evenodd" fill="#B3905C" fill-rule="evenodd"/>
				<path d="m18.9 13.6l1.05-2.35h9.55l1.65 40.85h-18.2c-0.567-7.399-0.567-12.767 0-16.1 0.333-2.1 1.05-4.667 2.15-7.7l1.55-3.95c0.3-2.667 0.583-4.85 0.85-6.55 0.167-1.033 0.633-2.433 1.4-4.2z" clip-rule="evenodd" fill="#EBBE79" fill-rule="evenodd"/>
				<path d="m19.35 13.6l1.05-2.35h9.15l1.6 40.85h-17.5c-0.533-7.399-0.533-12.767 0-16.1 0.333-2.1 1.034-4.667 2.1-7.7l1.45-3.95c0.267-2.667 0.533-4.85 0.8-6.55 0.167-1.033 0.617-2.433 1.35-4.2z" clip-rule="evenodd" fill="#6B5430" fill-rule="evenodd"/>
				<path d="m20.25 13.6l0.95-2.35h8.45l1.5 40.85h-16.2c-0.5-7.399-0.5-12.767 0-16.1 0.3-2.1 0.95-4.667 1.95-7.7l1.35-3.95c0.267-2.667 0.517-4.85 0.75-6.55 0.133-1.033 0.55-2.433 1.25-4.2z" clip-rule="evenodd" fill="#A17F49" fill-rule="evenodd"/>
				<path d="m29.65 11.25l0.15 3.8c-4.5 0.2-7.883 0.267-10.15 0.2 0.733-1.933 1.184-3.133 1.35-3.6l0.3-0.15-0.2-0.05 0.1-0.2h8.45z" clip-rule="evenodd" fill="#947543" fill-rule="evenodd"/>
				<path d="m21.05 11l-0.025 0.075c-0.452-0.014-0.86-0.039-1.225-0.075h1.25zm-0.025 0.075c1.182 0.065 2.657 0.073 4.425 0.025 2.8-0.1 4.733-0.117 5.8-0.05 0.133 0.567 0.133 1.117 0 1.65-2.434 0.167-4.267 0.267-5.5 0.3-2.167 0.1-3.983 0.083-5.45-0.05l0.725-1.875z" clip-rule="evenodd" fill="#8C6E3F" fill-rule="evenodd"/>
				<path d="m18.2 24.5l0.1-0.35c2.6-1 6.517-1.667 11.75-2l0.4 11.5c-0.267 0.4-0.517 0.667-0.75 0.8-0.667 0.4-1.884 0.483-3.65 0.25-0.5-0.067-1.75-0.317-3.75-0.75-1.033-0.233-2.216-0.333-3.55-0.3-1.5 0.067-2.633 0.1-3.4 0.1 0.667-2.967 1.566-5.9 2.7-8.8 0.3-0.3 0.35-0.45 0.15-0.45z" clip-rule="evenodd" fill="#947543" fill-rule="evenodd"/>
				<path d="m24.8 40.55c1.3 0.101 3.267 0.15 5.9 0.15l0.45 11.4h-16.2c-0.3-4.533-0.4-8.583-0.3-12.149 1.4-0.033 3.333 0.05 5.8 0.25 1.3 0.099 2.75 0.216 4.35 0.349z" clip-rule="evenodd" fill="#947543" fill-rule="evenodd"/>
				<path d="m28.25 22.55c0.033 0.833-0.033 1.983-0.2 3.45-0.2 1.633-0.3 2.783-0.3 3.45-0.733 0.033-1.767 0.233-3.1 0.6-1.4 0.434-2.433 0.667-3.1 0.7-0.267 0.033-1.216 0.067-2.85 0.1-1.1 0-1.983 0.083-2.65 0.25 0.434-1.5 0.934-3.067 1.5-4.7l0.7-2.05 0.2-1.7c2.133-0.333 5.4-0.367 9.8-0.1z" clip-rule="evenodd" fill="#8C6E3F" fill-rule="evenodd"/>
				<path d="m27 27.95c-4.467 0.267-7.833 0.35-10.1 0.25l1.35-3.85 0.1-1.15c0.667-0.034 2.283-0.117 4.85-0.25 2-0.1 3.6-0.15 4.8-0.15-0.233 2.3-0.566 4.017-1 5.15z" clip-rule="evenodd" fill="#785F36" fill-rule="evenodd"/>
				<path d="m29.45 47.75c0.066 0.267 0.2 0.884 0.4 1.85 0.233 0.967 0.383 1.801 0.45 2.5h-15.35c-0.167-2.366-0.267-4.883-0.3-7.55 1.567-0.267 3.483-0.366 5.75-0.3 0.867 0 2.733 0.083 5.6 0.25 1.434 0.066 2.316 0.283 2.65 0.65 0.233 0.267 0.5 1.133 0.8 2.6z" clip-rule="evenodd" fill="#8C6E3F" fill-rule="evenodd"/>
				<path d="m14.8 49l8.1-0.1c3.267-0.034 5.967 0 8.1 0.1l0.15 3.1h-16.2l-0.15-3.1z" clip-rule="evenodd" fill="#785F36" fill-rule="evenodd"/>
					<path d="m14.9 50.85c0.833-0.133 2.267-0.166 4.3-0.1 2.1 0.033 3.3 0.033 3.6 0l0.6 1.35h-8.45l-0.05-1.25z" clip-rule="evenodd" fill="#544326" fill-rule="evenodd"/>
				<path d="m26.15 16.05c0.467-0.667 0.833-1.433 1.1-2.3 0.1-0.3 0.283-1.05 0.55-2.25h0.2l0.25-0.25h1.4l1.5 40.85h-9.15c-0.133-0.267-0.2-0.649-0.2-1.149-0.033-0.7-0.05-1.101-0.05-1.2-0.1-0.767-0.15-1.634-0.15-2.6 0-1.434-0.017-2.317-0.05-2.65-0.233-4-0.15-8.333 0.25-13 0.134-2.6 0.25-4.517 0.35-5.75 0.233-2.1 0.684-3.917 1.35-5.45 0.233-0.534 1.117-1.951 2.65-4.251z" clip-rule="evenodd" fill="#544326" fill-rule="evenodd"/>
				<path d="m29.5 24.45c-1.467 0.1-3.333 0.1-5.6 0-2.533-0.1-4.417-0.167-5.65-0.2l0.45-4.2c1.433 0.233 3.316 0.367 5.65 0.4 3.233 0 5.117 0.017 5.65 0.05l0.05 1.4c-0.133 0.567-0.317 1.417-0.55 2.55z" clip-rule="evenodd" fill="#947543" fill-rule="evenodd"/>
				<path d="m20.3 24.25c-0.066-0.833-0.1-1.667-0.1-2.5 0-1.667 0.2-2.5 0.6-2.5h4.25l-2 5.5-2.75-0.5z" clip-rule="evenodd" fill-rule="evenodd"/>
				<path d="m21.05 24.3c-0.033-0.7-0.05-1.4-0.05-2.1 0-1.4 0.117-2.1 0.35-2.1h2.5l-1.15 4.65-1.65-0.45z" clip-rule="evenodd" fill="#362222" fill-rule="evenodd"/>
				<rect x="19.95" y="24.1" width="3.5" height=".65" clip-rule="evenodd" fill="#B3905C" fill-rule="evenodd"/>
				<polygon points="21.5 17.25 25.4 17.25 24.5 19.25 20.3 19.35" clip-rule="evenodd" fill="#C9A368" fill-rule="evenodd"/>
				<path d="m25.8 16.75l-1.25 2.85-0.65-0.1c0.534-1.1 0.8-1.816 0.8-2.15s-1.067-0.367-3.2-0.1v-0.65l4.3 0.15z" clip-rule="evenodd" fill="#8C6E3F" fill-rule="evenodd"/>
				<rect x="20.3" y="18.95" width="4.5" height=".45" clip-rule="evenodd" fill="#EBBE79" fill-rule="evenodd"/>
				<use transform="matrix(1 0 0 -1 11.4 11.25)" x="-0.025" y="-40.85" width="19.775" height="40.85" enable-background="new" opacity=".3594" xlink:href="#z"/>
			<rect x="6.35" y="55.4" width="74.4" height="11.85" clip-rule="evenodd" fill="#7A5D36" fill-rule="evenodd"/>
			<rect x="6.35" y="64.6" width="74.4" height="2.65" clip-rule="evenodd" fill="#66512E" fill-rule="evenodd"/>
			<rect x="6.35" y="66.25" width="74.4" height="1" clip-rule="evenodd" fill="#574527" fill-rule="evenodd"/>
			<rect x="6.35" y="55.4" width="74.4" height="5.55" clip-rule="evenodd" fill="#66512E" fill-rule="evenodd"/>
			<rect x="6.35" y="55.4" width="74.4" height="4.1" clip-rule="evenodd" fill="#594728" fill-rule="evenodd"/>
			<rect x="10.95" y="58.9" width="65.35" height="7.5" clip-rule="evenodd" fill="#3D311C" fill-rule="evenodd"/>
			<polygon points="10.95 59.1 12.05 60 74.95 60.25 76.3 58.9 76.3 66.4 10.95 66.4" clip-rule="evenodd" fill="#544326" fill-rule="evenodd"/>
			<polygon points="12.95 64.9 75.05 65.25 76.3 66.4 10.95 66.4" clip-rule="evenodd" fill="#3D311C" fill-rule="evenodd"/>
			<rect x="12.05" y="60" width="63" height="5.25" clip-rule="evenodd" fill="#947543" fill-rule="evenodd"/>
			<g clip-rule="evenodd" fill-rule="evenodd">
						<path d="m17.6 63c0 0.333-0.1 0.6-0.3 0.8-0.2 0.233-0.45 0.351-0.75 0.351-0.267 0-0.5-0.117-0.7-0.351-0.2-0.2-0.3-0.467-0.3-0.8s0.1-0.616 0.3-0.85c0.2-0.233 0.433-0.351 0.7-0.351 0.3 0 0.55 0.117 0.75 0.351s0.3 0.517 0.3 0.85z" fill="#7A5D36"/>
						<path d="m17.45 62.75c0 0.267-0.1 0.483-0.3 0.65-0.167 0.199-0.383 0.3-0.65 0.3s-0.5-0.1-0.7-0.3c-0.167-0.167-0.25-0.384-0.25-0.65 0-0.634 0.317-0.95 0.95-0.95 0.267 0 0.483 0.084 0.65 0.25 0.2 0.2 0.3 0.433 0.3 0.7z" fill="#B3905C"/>
						<path d="m17.1 62.6c0 0.2-0.067 0.384-0.2 0.551-0.167 0.133-0.35 0.199-0.55 0.199s-0.367-0.066-0.5-0.199c-0.166-0.168-0.25-0.351-0.25-0.551 0-0.466 0.25-0.699 0.75-0.699s0.75 0.233 0.75 0.699z" fill="#C9A368"/>
						<path d="m27.6 63c0 0.333-0.1 0.6-0.3 0.8-0.2 0.233-0.45 0.351-0.75 0.351-0.267 0-0.5-0.117-0.7-0.351-0.2-0.2-0.3-0.467-0.3-0.8s0.1-0.616 0.3-0.85c0.2-0.233 0.433-0.351 0.7-0.351 0.3 0 0.55 0.117 0.75 0.351s0.3 0.517 0.3 0.85z" fill="#7A5D36"/>
						<path d="m27.45 62.75c0 0.267-0.1 0.483-0.3 0.65-0.167 0.199-0.383 0.3-0.65 0.3s-0.5-0.1-0.7-0.3c-0.167-0.167-0.25-0.384-0.25-0.65 0-0.634 0.317-0.95 0.95-0.95 0.267 0 0.483 0.084 0.65 0.25 0.2 0.2 0.3 0.433 0.3 0.7z" fill="#B3905C"/>
						<path d="m27.1 62.6c0 0.2-0.067 0.384-0.2 0.551-0.167 0.133-0.35 0.199-0.55 0.199s-0.367-0.066-0.5-0.199c-0.166-0.168-0.25-0.351-0.25-0.551 0-0.466 0.25-0.699 0.75-0.699s0.75 0.233 0.75 0.699z" fill="#C9A368"/>
						<path d="m37.6 63c0 0.333-0.1 0.6-0.3 0.8-0.2 0.233-0.45 0.351-0.75 0.351-0.267 0-0.5-0.117-0.7-0.351-0.2-0.2-0.3-0.467-0.3-0.8s0.1-0.616 0.3-0.85c0.2-0.233 0.433-0.351 0.7-0.351 0.3 0 0.55 0.117 0.75 0.351s0.3 0.517 0.3 0.85z" fill="#7A5D36"/>
						<path d="m37.45 62.75c0 0.267-0.1 0.483-0.3 0.65-0.167 0.199-0.383 0.3-0.65 0.3s-0.5-0.1-0.7-0.3c-0.167-0.167-0.25-0.384-0.25-0.65 0-0.634 0.317-0.95 0.95-0.95 0.267 0 0.483 0.084 0.65 0.25 0.2 0.2 0.3 0.433 0.3 0.7z" fill="#B3905C"/>
						<path d="m37.1 62.6c0 0.2-0.067 0.384-0.2 0.551-0.167 0.133-0.35 0.199-0.55 0.199s-0.367-0.066-0.5-0.199c-0.166-0.168-0.25-0.351-0.25-0.551 0-0.466 0.25-0.699 0.75-0.699s0.75 0.233 0.75 0.699z" fill="#C9A368"/>
						<path d="m47.6 63c0 0.333-0.1 0.6-0.3 0.8-0.2 0.233-0.45 0.351-0.75 0.351-0.267 0-0.5-0.117-0.7-0.351-0.199-0.2-0.3-0.467-0.3-0.8s0.101-0.616 0.3-0.85c0.2-0.233 0.434-0.351 0.7-0.351 0.3 0 0.55 0.117 0.75 0.351s0.3 0.517 0.3 0.85z" fill="#7A5D36"/>
						<path d="m47.45 62.75c0 0.267-0.101 0.483-0.3 0.65-0.167 0.199-0.384 0.3-0.65 0.3s-0.5-0.1-0.7-0.3c-0.166-0.167-0.25-0.384-0.25-0.65 0-0.634 0.316-0.95 0.95-0.95 0.267 0 0.483 0.084 0.65 0.25 0.2 0.2 0.3 0.433 0.3 0.7z" fill="#B3905C"/>
						<path d="m47.1 62.6c0 0.2-0.066 0.384-0.199 0.551-0.167 0.133-0.351 0.199-0.551 0.199-0.199 0-0.366-0.066-0.5-0.199-0.166-0.168-0.25-0.351-0.25-0.551 0-0.466 0.25-0.699 0.75-0.699s0.75 0.233 0.75 0.699z" fill="#C9A368"/>
						<path d="m42.6 63c0 0.333-0.1 0.6-0.3 0.8-0.2 0.233-0.45 0.351-0.75 0.351-0.267 0-0.5-0.117-0.7-0.351-0.2-0.2-0.3-0.467-0.3-0.8s0.1-0.616 0.3-0.85c0.2-0.233 0.433-0.351 0.7-0.351 0.3 0 0.55 0.117 0.75 0.351s0.3 0.517 0.3 0.85z" fill="#7A5D36"/>
						<path d="m42.45 62.75c0 0.267-0.101 0.483-0.3 0.65-0.167 0.199-0.384 0.3-0.65 0.3s-0.5-0.1-0.7-0.3c-0.167-0.167-0.25-0.384-0.25-0.65 0-0.634 0.317-0.95 0.95-0.95 0.267 0 0.483 0.084 0.65 0.25 0.2 0.2 0.3 0.433 0.3 0.7z" fill="#B3905C"/>
						<path d="m42.1 62.6c0 0.2-0.066 0.384-0.2 0.551-0.167 0.133-0.35 0.199-0.55 0.199s-0.367-0.066-0.5-0.199c-0.166-0.168-0.25-0.351-0.25-0.551 0-0.466 0.25-0.699 0.75-0.699s0.75 0.233 0.75 0.699z" fill="#C9A368"/>
						<path d="m32.6 63c0 0.333-0.1 0.6-0.3 0.8-0.2 0.233-0.45 0.351-0.75 0.351-0.267 0-0.5-0.117-0.7-0.351-0.2-0.2-0.3-0.467-0.3-0.8s0.1-0.616 0.3-0.85c0.2-0.233 0.433-0.351 0.7-0.351 0.3 0 0.55 0.117 0.75 0.351s0.3 0.517 0.3 0.85z" fill="#7A5D36"/>
						<path d="m32.45 62.75c0 0.267-0.1 0.483-0.3 0.65-0.167 0.199-0.383 0.3-0.65 0.3s-0.5-0.1-0.7-0.3c-0.167-0.167-0.25-0.384-0.25-0.65 0-0.634 0.317-0.95 0.95-0.95 0.267 0 0.483 0.084 0.65 0.25 0.2 0.2 0.3 0.433 0.3 0.7z" fill="#B3905C"/>
						<path d="m32.1 62.6c0 0.2-0.067 0.384-0.2 0.551-0.167 0.133-0.35 0.199-0.55 0.199s-0.367-0.066-0.5-0.199c-0.166-0.168-0.25-0.351-0.25-0.551 0-0.466 0.25-0.699 0.75-0.699s0.75 0.233 0.75 0.699z" fill="#C9A368"/>
						<path d="m22.6 63c0 0.333-0.1 0.6-0.3 0.8-0.2 0.233-0.45 0.351-0.75 0.351-0.267 0-0.5-0.117-0.7-0.351-0.2-0.2-0.3-0.467-0.3-0.8s0.1-0.616 0.3-0.85c0.2-0.233 0.433-0.351 0.7-0.351 0.3 0 0.55 0.117 0.75 0.351s0.3 0.517 0.3 0.85z" fill="#7A5D36"/>
						<path d="m22.45 62.75c0 0.267-0.1 0.483-0.3 0.65-0.167 0.199-0.383 0.3-0.65 0.3s-0.5-0.1-0.7-0.3c-0.167-0.167-0.25-0.384-0.25-0.65 0-0.634 0.317-0.95 0.95-0.95 0.267 0 0.483 0.084 0.65 0.25 0.2 0.2 0.3 0.433 0.3 0.7z" fill="#B3905C"/>
						<path d="m22.1 62.6c0 0.2-0.067 0.384-0.2 0.551-0.167 0.133-0.35 0.199-0.55 0.199s-0.367-0.066-0.5-0.199c-0.166-0.168-0.25-0.351-0.25-0.551 0-0.466 0.25-0.699 0.75-0.699s0.75 0.233 0.75 0.699z" fill="#C9A368"/>
						<path d="m57.6 63c0 0.333-0.1 0.6-0.3 0.8-0.2 0.233-0.45 0.351-0.75 0.351-0.267 0-0.5-0.117-0.7-0.351-0.199-0.2-0.3-0.467-0.3-0.8s0.101-0.616 0.3-0.85c0.2-0.233 0.434-0.351 0.7-0.351 0.3 0 0.55 0.117 0.75 0.351s0.3 0.517 0.3 0.85z" fill="#7A5D36"/>
						<path d="m57.45 62.75c0 0.267-0.101 0.483-0.3 0.65-0.167 0.199-0.384 0.3-0.65 0.3s-0.5-0.1-0.7-0.3c-0.167-0.167-0.25-0.384-0.25-0.65 0-0.634 0.317-0.95 0.95-0.95 0.267 0 0.483 0.084 0.65 0.25 0.2 0.2 0.3 0.433 0.3 0.7z" fill="#B3905C"/>
						<path d="m57.1 62.6c0 0.2-0.066 0.384-0.199 0.551-0.167 0.133-0.351 0.199-0.551 0.199-0.199 0-0.366-0.066-0.5-0.199-0.166-0.168-0.25-0.351-0.25-0.551 0-0.466 0.25-0.699 0.75-0.699s0.75 0.233 0.75 0.699z" fill="#C9A368"/>
						<path d="m67.6 63c0 0.333-0.1 0.6-0.3 0.8-0.2 0.233-0.45 0.351-0.75 0.351-0.267 0-0.5-0.117-0.7-0.351-0.199-0.2-0.3-0.467-0.3-0.8s0.101-0.616 0.3-0.85c0.2-0.233 0.434-0.351 0.7-0.351 0.3 0 0.55 0.117 0.75 0.351s0.3 0.517 0.3 0.85z" fill="#7A5D36"/>
						<path d="m67.45 62.75c0 0.267-0.101 0.483-0.3 0.65-0.167 0.199-0.384 0.3-0.65 0.3s-0.5-0.1-0.7-0.3c-0.167-0.167-0.25-0.384-0.25-0.65 0-0.634 0.317-0.95 0.95-0.95 0.267 0 0.483 0.084 0.65 0.25 0.2 0.2 0.3 0.433 0.3 0.7z" fill="#B3905C"/>
						<path d="m67.1 62.6c0 0.2-0.066 0.384-0.199 0.551-0.167 0.133-0.351 0.199-0.551 0.199-0.199 0-0.366-0.066-0.5-0.199-0.166-0.168-0.25-0.351-0.25-0.551 0-0.466 0.25-0.699 0.75-0.699s0.75 0.233 0.75 0.699z" fill="#C9A368"/>
						<path d="m72.6 63c0 0.333-0.1 0.6-0.3 0.8-0.2 0.233-0.45 0.351-0.75 0.351-0.267 0-0.5-0.117-0.7-0.351-0.199-0.2-0.3-0.467-0.3-0.8s0.101-0.616 0.3-0.85c0.2-0.233 0.434-0.351 0.7-0.351 0.3 0 0.55 0.117 0.75 0.351s0.3 0.517 0.3 0.85z" fill="#7A5D36"/>
						<path d="m72.45 62.75c0 0.267-0.101 0.483-0.3 0.65-0.167 0.199-0.384 0.3-0.65 0.3s-0.5-0.1-0.7-0.3c-0.167-0.167-0.25-0.384-0.25-0.65 0-0.634 0.317-0.95 0.95-0.95 0.267 0 0.483 0.084 0.65 0.25 0.2 0.2 0.3 0.433 0.3 0.7z" fill="#B3905C"/>
						<path d="m72.1 62.6c0 0.2-0.066 0.384-0.199 0.551-0.167 0.133-0.351 0.199-0.551 0.199-0.199 0-0.366-0.066-0.5-0.199-0.166-0.168-0.25-0.351-0.25-0.551 0-0.466 0.25-0.699 0.75-0.699s0.75 0.233 0.75 0.699z" fill="#C9A368"/>
						<path d="m62.6 63c0 0.333-0.1 0.6-0.3 0.8-0.2 0.233-0.45 0.351-0.75 0.351-0.267 0-0.5-0.117-0.7-0.351-0.199-0.2-0.3-0.467-0.3-0.8s0.101-0.616 0.3-0.85c0.2-0.233 0.434-0.351 0.7-0.351 0.3 0 0.55 0.117 0.75 0.351s0.3 0.517 0.3 0.85z" fill="#7A5D36"/>
						<path d="m62.45 62.75c0 0.267-0.101 0.483-0.3 0.65-0.167 0.199-0.384 0.3-0.65 0.3s-0.5-0.1-0.7-0.3c-0.167-0.167-0.25-0.384-0.25-0.65 0-0.634 0.317-0.95 0.95-0.95 0.267 0 0.483 0.084 0.65 0.25 0.2 0.2 0.3 0.433 0.3 0.7z" fill="#B3905C"/>
						<path d="m62.1 62.6c0 0.2-0.066 0.384-0.199 0.551-0.167 0.133-0.351 0.199-0.551 0.199-0.199 0-0.366-0.066-0.5-0.199-0.166-0.168-0.25-0.351-0.25-0.551 0-0.466 0.25-0.699 0.75-0.699s0.75 0.233 0.75 0.699z" fill="#C9A368"/>
						<path d="m52.6 63c0 0.333-0.1 0.6-0.3 0.8-0.2 0.233-0.45 0.351-0.75 0.351-0.267 0-0.5-0.117-0.7-0.351-0.199-0.2-0.3-0.467-0.3-0.8s0.101-0.616 0.3-0.85c0.2-0.233 0.434-0.351 0.7-0.351 0.3 0 0.55 0.117 0.75 0.351s0.3 0.517 0.3 0.85z" fill="#7A5D36"/>
						<path d="m52.45 62.75c0 0.267-0.101 0.483-0.3 0.65-0.167 0.199-0.384 0.3-0.65 0.3s-0.5-0.1-0.7-0.3c-0.167-0.167-0.25-0.384-0.25-0.65 0-0.634 0.317-0.95 0.95-0.95 0.267 0 0.483 0.084 0.65 0.25 0.2 0.2 0.3 0.433 0.3 0.7z" fill="#B3905C"/>
						<path d="m52.1 62.6c0 0.2-0.066 0.384-0.199 0.551-0.167 0.133-0.351 0.199-0.551 0.199-0.199 0-0.366-0.066-0.5-0.199-0.166-0.168-0.25-0.351-0.25-0.551 0-0.466 0.25-0.699 0.75-0.699s0.75 0.233 0.75 0.699z" fill="#C9A368"/>
			</g>
			<rect x="12.05" y="60" width="63" height=".75" clip-rule="evenodd" fill="#B3976E" fill-rule="evenodd"/>
			<rect x="3.8" y="67.15" width="79.5" height="2.8" clip-rule="evenodd" fill="#100A0A" fill-rule="evenodd"/>
			<rect x="3.8" y="67.15" width="79.5" height=".649" clip-rule="evenodd" fill="#4A2E2E" fill-rule="evenodd"/>
			<rect x="3.95" y="55.2" width="78.45" height="3.05" clip-rule="evenodd" fill="#100A0A" fill-rule="evenodd"/>
			<rect x="3.95" y="55.1" width="78.45" height="1.051" clip-rule="evenodd" fill="#4A2E2E" fill-rule="evenodd"/>
			<path d="m68.1 1.45v13.7h-39.5v-13.7h39.5zm-2.8 11.8v-7.25h-34.5v7.25h34.5z" clip-rule="evenodd" fill="#9C7D50" fill-rule="evenodd"/>
			<path d="m68.1 7.45l-2.8-0.05v-0.75h-34.5v0.85h-2.2v-4.7c1.7-0.167 4.267-0.466 7.7-0.9 3-0.333 5.583-0.433 7.75-0.3 1.667 0.1 4.684 0.217 9.05 0.35 3.834 0.133 6.851 0.283 9.051 0.45l5.949 0.45v4.6z" clip-rule="evenodd" fill="#735C3B" fill-rule="evenodd"/>
			<path d="m65.3 10.75h2.8v4.25h-0.7c-7.067-0.1-12.351-0.15-15.851-0.15-7-0.2-12.233-0.233-15.7-0.1-1.434 0.133-2.583 0.233-3.45 0.3-1.667 0.134-2.933 0.083-3.8-0.15v-3.5h2.2v1.85h34.5v-2.5z" clip-rule="evenodd" fill="#7A623F" fill-rule="evenodd"/>
			<rect x="26.1" y="1.45" width="44.75" height="2.7" clip-rule="evenodd" fill="#997C4F" fill-rule="evenodd"/>
			<rect x="26.1" y="1.55" width="44.75" height=".7" clip-rule="evenodd" fill="#FACA81" fill-rule="evenodd"/>
			<path d="m25.95 18.3c0.866-1.533 1.733-2.833 2.6-3.9h39.1l2.75 3.4c1.833 2.867 2.699 5.884 2.6 9.05-0.133 5.033-0.066 10.367 0.2 16l-49.75-0.15c-0.333-6.967-0.434-12.367-0.3-16.2 0.1-2.4 1.034-5.133 2.8-8.2z" clip-rule="evenodd" fill="#B3905C" fill-rule="evenodd"/>
			<path d="m33.95 25.9c-2.667 0-5.05 0.067-7.15 0.2-1.633 0.267-2.85 0.417-3.65 0.45v-0.05c0-0.833 0.15-1.783 0.45-2.85 1.633 0.333 3.883 0.383 6.75 0.15 1.566-0.1 3.8-0.3 6.7-0.6 4.5-0.2 12.417-0.3 23.75-0.3 3.967 0 7.9 0.05 11.8 0.15 0.268 1.134 0.4 2.267 0.4 3.4-0.7 0-1.717-0.05-3.05-0.15-1.367-0.1-2.367-0.167-3-0.2-5.533-0.133-9.684-0.2-12.45-0.2h-20.55z" clip-rule="evenodd" fill="#C9A368" fill-rule="evenodd"/>
			<path d="m67.65 14.4l1.1 1.2c0.867 1.066 1.617 2.217 2.25 3.45l-1.3-0.05c-10.267 0-17.367 0.083-21.3 0.25-6.734 0.4-11.784 0.684-15.15 0.85l-6 0.35c-1.066 0.2-1.883 0.3-2.45 0.3 0.667-1.5 1.5-3 2.5-4.5 0.467-0.767 0.884-1.383 1.25-1.85h39.1z" clip-rule="evenodd" fill="#9C7D50" fill-rule="evenodd"/>
			<path d="m67.65 14.4l0.899 0.9c0.7 0.8 1.333 1.65 1.9 2.55l-13.9-0.1c-1.6 0-3.983-0.066-7.149-0.2-3.167-0.133-5.534-0.2-7.101-0.2-1 0-2.917-0.067-5.75-0.2-2.4-0.1-4.316-0.117-5.75-0.05-0.7 0.033-1.95-0.1-3.75-0.4h-0.149c0.6-0.934 1.15-1.7 1.65-2.3h39.1z" clip-rule="evenodd" fill="#8A6E47" fill-rule="evenodd"/>
			<path d="m23.45 42.7c-0.233-4.667-0.35-8.817-0.35-12.45 1.6 0.167 2.55 0.267 2.85 0.3 1.066 0.067 2.05 0.05 2.95-0.05 3.867-0.267 8.217-0.4 13.05-0.4 4.8 0 12.033-0.033 21.7-0.1 1.866 0 4.666 0.067 8.399 0.2h0.9c-0.032 4.267 0.051 8.484 0.251 12.65l-49.75-0.15z" clip-rule="evenodd" fill="#9C7D50" fill-rule="evenodd"/>
			<path d="m23.45 42.8l-0.25-5.5c5.267-0.033 13.183-0.166 23.75-0.4 7.267-0.033 15.95 0.034 26.05 0.2l0.2 5.65c-0.634-0.066-1.4-0.033-2.3 0.1-0.967 0.167-1.5 0.25-1.601 0.25-2.933-0.199-6.316-0.199-10.149 0-4.7 0.233-9.367 0.284-14 0.15-10.834-0.333-18.067-0.483-21.7-0.45z" clip-rule="evenodd" fill="#8A6E47" fill-rule="evenodd"/>
			<path d="m28.45 19.65c0.767-1.267 1.533-2.35 2.3-3.25h34.5l2.4 2.85c1.6 2.434 2.366 4.967 2.3 7.6-0.134 4.2-0.083 8.667 0.149 13.4l-43.849-0.15c-0.3-5.833-0.4-10.35-0.3-13.55 0.1-2.033 0.933-4.333 2.5-6.9z" clip-rule="evenodd" fill="#6B5530" fill-rule="evenodd"/>
			<path d="m31.55 17.15l-3.75 21.6-1.55 1.35c-0.3-5.833-0.4-10.35-0.3-13.55 0.1-2.033 0.933-4.333 2.5-6.9 0.767-1.267 1.533-2.35 2.3-3.25h34.5l2.4 2.85c1.6 2.434 2.366 4.967 2.3 7.6-0.134 3.367-0.083 7.767 0.149 13.2l-1.1-0.8-4.65-22.1h-32.799z" clip-rule="evenodd" fill="#544326" fill-rule="evenodd"/>
			<path d="m31.55 17.15h32.8l2.15 2.65c1.467 2.233 2.233 4.567 2.3 7 0.167 4.134 0.233 8.284 0.2 12.45l-41.75-0.1c-0.267-5.433-0.35-9.633-0.25-12.6 0.066-1.866 0.85-4 2.35-6.4 0.733-1.167 1.466-2.167 2.2-3z" clip-rule="evenodd" fill="#785F36" fill-rule="evenodd"/>
			<rect x="24" y="42.6" width="48.5" height="9.45" clip-rule="evenodd" fill="#B3905C" fill-rule="evenodd"/>
			<rect x="24" y="47.85" width="48.5" height="4.2" clip-rule="evenodd" fill="#9C7D50" fill-rule="evenodd"/>
			<rect x="24" y="50.8" width="48.5" height="1.45" clip-rule="evenodd" fill="#7A5D36" fill-rule="evenodd"/>
			<rect x="24" y="42.6" width="48.5" height="2.45" clip-rule="evenodd" fill="#7A5D36" fill-rule="evenodd"/>
			<rect x="24" y="42.8" width="48.5" height=".7" clip-rule="evenodd" fill="#523F24" fill-rule="evenodd"/>
			<rect x="25.3" y="44.3" width="45.55" height="7.95" clip-rule="evenodd" fill="#6B5530" fill-rule="evenodd"/>
			<polygon points="25.3 44.3 70.85 44.3 70.85 52.25 69.8 51.1 26.95 50.75 25.3 52.25" clip-rule="evenodd" fill="#544326" fill-rule="evenodd"/>
			<rect x="26.35" y="45.35" width="43.45" height="5.75" clip-rule="evenodd" fill="#947543" fill-rule="evenodd"/>
			<rect x="26.3" y="45.25" width="43.65" height=".7" clip-rule="evenodd" fill="#C9A368" fill-rule="evenodd"/>
			<polygon points="67.55 0 70.85 1.45 26.1 1.45 27.55 0" clip-rule="evenodd" fill="#C9A368" fill-rule="evenodd"/>
				<path d="m31.3 34.05c-1.8 0.134-3.216 0.117-4.25-0.05-0.133-3.066-0.15-5.55-0.05-7.45 0.033-1.4 0.483-2.933 1.35-4.6 2.7-0.133 5.716-0.133 9.05 0 1.967 0.066 5.034 0.216 9.2 0.45 7.101 0.333 14.134 0.417 21.101 0.25h0.25c0.533 1.467 0.816 2.85 0.85 4.15l0.15 7.1c-2.667-0.1-6.217-0.1-10.65 0-5.7 0.133-9.267 0.2-10.7 0.2-1.066 0-3.066-0.083-6-0.25-2.5-0.133-4.5-0.167-6-0.1-1.868 0.133-3.301 0.233-4.301 0.3z" clip-rule="evenodd" fill="#947543" fill-rule="evenodd"/>
			<path d="m27.7 23.4c0.433-1.167 1.183-2.566 2.25-4.2 5.533-0.133 11-0.067 16.399 0.2 2.567 0.133 5.917 0.2 10.051 0.2 5.166 0 8.5 0.017 10 0.05 0.833 1.267 1.482 2.65 1.949 4.15-1.767 0.034-5.149 0-10.149-0.1-4.267-0.067-7.667-0.05-10.2 0.05-2.333 0.1-5.717 0.05-10.15-0.15-4.567-0.2-7.95-0.267-10.15-0.2z" clip-rule="evenodd" fill="#8C6E3F" fill-rule="evenodd"/>
			<path d="m32.95 35.75c-0.767-0.033-1.717-0.017-2.85 0.05-1.333 0.134-2.333 0.217-3 0.25l-0.1-4.2c14.533-0.567 28.517-0.733 41.95-0.5l0.05 4.75h-17.45c-6.666 0-12.866-0.117-18.6-0.35z" clip-rule="evenodd" fill="#8C6E3F" fill-rule="evenodd"/>
				<use transform="matrix(1 0 0 -1 30.8 6)" y="-7.25" width="34.5" height="7.25" enable-background="new" opacity=".25" xlink:href="#v"/>
			<rect x="28.65" y="4.4" width="39.5" height="1" clip-rule="evenodd" fill="#57452D" fill-rule="evenodd"/>
			<path d="m26.95 28.15l0.05-1.6c0-0.3 0.066-0.783 0.2-1.45 0.633 0.066 1.55 0.167 2.75 0.3 5.433-0.066 8.7-0.083 9.8-0.05 3.033 0.167 9.434 0.25 19.2 0.25h9.05l0.7-0.05 0.149 2.3c-1.933 0.033-4.633 0-8.1-0.1-3.8-0.1-6.5-0.15-8.1-0.15-3.334 0-7.617 0.066-12.851 0.2-6.965 0.2-11.248 0.317-12.848 0.35z" clip-rule="evenodd" fill="#A17F49" fill-rule="evenodd"/>
			<polygon points="65.25 16.4 64.35 17.15 31.45 17.25 30.75 16.4" clip-rule="evenodd" fill="#3D311C" fill-rule="evenodd"/>
			<rect x="25.95" y="40.1" width="44" height=".5" clip-rule="evenodd" fill="#EBBE79" fill-rule="evenodd"/>
			<rect x="30.8" y="13.05" width="34.5" height=".6" clip-rule="evenodd" fill="#EBBE79" fill-rule="evenodd"/>
			<polygon points="26.3 45.25 25.3 44.3 70.85 44.3 69.95 45.25" clip-rule="evenodd" fill="#3D311C" fill-rule="evenodd"/>
			<g clip-rule="evenodd" fill-rule="evenodd">
					<path d="m34.2 48.1c0 0.334-0.1 0.617-0.3 0.851-0.2 0.233-0.433 0.35-0.7 0.35s-0.5-0.116-0.7-0.35-0.3-0.517-0.3-0.851c0-0.333 0.1-0.616 0.3-0.85s0.434-0.35 0.7-0.35 0.5 0.116 0.7 0.35c0.2 0.233 0.3 0.517 0.3 0.85z" fill="#7A5D36"/>
					<path d="m34.05 47.85c0 0.634-0.3 0.95-0.9 0.95-0.633 0-0.95-0.316-0.95-0.95 0-0.267 0.083-0.483 0.25-0.649 0.2-0.2 0.433-0.3 0.7-0.3 0.233 0 0.45 0.1 0.65 0.3 0.167 0.165 0.25 0.382 0.25 0.649z" fill="#B3905C"/>
					<path d="m33.7 47.75c0 0.467-0.25 0.7-0.75 0.7-0.467 0-0.7-0.233-0.7-0.7 0-0.5 0.233-0.75 0.7-0.75 0.5 0 0.75 0.25 0.75 0.75z" fill="#C9A368"/>
					<path d="m44.2 48.1c0 0.334-0.101 0.617-0.3 0.851-0.2 0.233-0.434 0.35-0.7 0.35s-0.5-0.116-0.7-0.35-0.3-0.517-0.3-0.851c0-0.333 0.1-0.616 0.3-0.85s0.434-0.35 0.7-0.35 0.5 0.116 0.7 0.35c0.2 0.233 0.3 0.517 0.3 0.85z" fill="#7A5D36"/>
					<path d="m44.05 47.85c0 0.634-0.3 0.95-0.899 0.95-0.634 0-0.95-0.316-0.95-0.95 0-0.267 0.083-0.483 0.25-0.649 0.2-0.2 0.434-0.3 0.7-0.3 0.233 0 0.449 0.1 0.649 0.3 0.167 0.165 0.25 0.382 0.25 0.649z" fill="#B3905C"/>
					<path d="m43.7 47.75c0 0.467-0.25 0.7-0.75 0.7-0.467 0-0.7-0.233-0.7-0.7 0-0.5 0.233-0.75 0.7-0.75 0.5 0 0.75 0.25 0.75 0.75z" fill="#C9A368"/>
					<path d="m54.2 48.1c0 0.334-0.101 0.617-0.3 0.851-0.2 0.233-0.434 0.35-0.7 0.35s-0.5-0.116-0.7-0.35-0.3-0.517-0.3-0.851c0-0.333 0.1-0.616 0.3-0.85s0.434-0.35 0.7-0.35 0.5 0.116 0.7 0.35c0.2 0.233 0.3 0.517 0.3 0.85z" fill="#7A5D36"/>
					<path d="m54.05 47.85c0 0.634-0.3 0.95-0.899 0.95-0.634 0-0.95-0.316-0.95-0.95 0-0.267 0.083-0.483 0.25-0.649 0.2-0.2 0.433-0.3 0.7-0.3 0.232 0 0.449 0.1 0.649 0.3 0.167 0.165 0.25 0.382 0.25 0.649z" fill="#B3905C"/>
					<path d="m53.7 47.75c0 0.467-0.25 0.7-0.75 0.7-0.467 0-0.7-0.233-0.7-0.7 0-0.5 0.233-0.75 0.7-0.75 0.5 0 0.75 0.25 0.75 0.75z" fill="#C9A368"/>
					<path d="m64.2 48.1c0 0.334-0.101 0.617-0.3 0.851-0.2 0.233-0.434 0.35-0.7 0.35s-0.5-0.116-0.7-0.35-0.3-0.517-0.3-0.851c0-0.333 0.1-0.616 0.3-0.85s0.434-0.35 0.7-0.35 0.5 0.116 0.7 0.35c0.2 0.233 0.3 0.517 0.3 0.85z" fill="#7A5D36"/>
					<path d="m64.05 47.85c0 0.634-0.3 0.95-0.899 0.95-0.634 0-0.95-0.316-0.95-0.95 0-0.267 0.083-0.483 0.25-0.649 0.2-0.2 0.433-0.3 0.7-0.3 0.232 0 0.449 0.1 0.649 0.3 0.167 0.165 0.25 0.382 0.25 0.649z" fill="#B3905C"/>
					<path d="m63.7 47.75c0 0.467-0.25 0.7-0.75 0.7-0.467 0-0.7-0.233-0.7-0.7 0-0.5 0.233-0.75 0.7-0.75 0.5 0 0.75 0.25 0.75 0.75z" fill="#C9A368"/>
					<path d="m59.2 48.1c0 0.334-0.101 0.617-0.3 0.851-0.2 0.233-0.434 0.35-0.7 0.35s-0.5-0.116-0.7-0.35-0.3-0.517-0.3-0.851c0-0.333 0.1-0.616 0.3-0.85s0.434-0.35 0.7-0.35 0.5 0.116 0.7 0.35c0.2 0.233 0.3 0.517 0.3 0.85z" fill="#7A5D36"/>
					<path d="m59.05 47.85c0 0.634-0.3 0.95-0.899 0.95-0.634 0-0.95-0.316-0.95-0.95 0-0.267 0.083-0.483 0.25-0.649 0.2-0.2 0.433-0.3 0.7-0.3 0.232 0 0.449 0.1 0.649 0.3 0.167 0.165 0.25 0.382 0.25 0.649z" fill="#B3905C"/>
					<path d="m58.7 47.75c0 0.467-0.25 0.7-0.75 0.7-0.467 0-0.7-0.233-0.7-0.7 0-0.5 0.233-0.75 0.7-0.75 0.5 0 0.75 0.25 0.75 0.75z" fill="#C9A368"/>
					<path d="m49.2 48.1c0 0.334-0.101 0.617-0.3 0.851-0.2 0.233-0.434 0.35-0.7 0.35s-0.5-0.116-0.7-0.35-0.3-0.517-0.3-0.851c0-0.333 0.1-0.616 0.3-0.85s0.434-0.35 0.7-0.35 0.5 0.116 0.7 0.35c0.2 0.233 0.3 0.517 0.3 0.85z" fill="#7A5D36"/>
					<path d="m49.05 47.85c0 0.634-0.3 0.95-0.899 0.95-0.634 0-0.95-0.316-0.95-0.95 0-0.267 0.083-0.483 0.25-0.649 0.2-0.2 0.433-0.3 0.7-0.3 0.232 0 0.449 0.1 0.649 0.3 0.167 0.165 0.25 0.382 0.25 0.649z" fill="#B3905C"/>
					<path d="m48.7 47.75c0 0.467-0.25 0.7-0.75 0.7-0.467 0-0.7-0.233-0.7-0.7 0-0.5 0.233-0.75 0.7-0.75 0.5 0 0.75 0.25 0.75 0.75z" fill="#C9A368"/>
					<path d="m39.2 48.1c0 0.334-0.1 0.617-0.3 0.851-0.2 0.233-0.433 0.35-0.7 0.35s-0.5-0.116-0.7-0.35-0.3-0.517-0.3-0.851c0-0.333 0.1-0.616 0.3-0.85s0.434-0.35 0.7-0.35 0.5 0.116 0.7 0.35c0.2 0.233 0.3 0.517 0.3 0.85z" fill="#7A5D36"/>
					<path d="m39.05 47.85c0 0.634-0.3 0.95-0.9 0.95-0.633 0-0.95-0.316-0.95-0.95 0-0.267 0.083-0.483 0.25-0.649 0.2-0.2 0.433-0.3 0.7-0.3 0.233 0 0.45 0.1 0.65 0.3 0.167 0.165 0.25 0.382 0.25 0.649z" fill="#B3905C"/>
					<path d="m38.7 47.75c0 0.467-0.25 0.7-0.75 0.7-0.467 0-0.7-0.233-0.7-0.7 0-0.5 0.233-0.75 0.7-0.75 0.5 0 0.75 0.25 0.75 0.75z" fill="#C9A368"/>
			</g>
				<use transform="matrix(1 0 0 -1 29.4 17.65)" y="-20.55" width="7.25" height="20.55" enable-background="new" opacity=".25" xlink:href="#q"/>
			<g clip-rule="evenodd" fill="#362222" fill-rule="evenodd">
				<path d="m33.25 35.5c0 0.467-0.167 0.867-0.5 1.2-0.367 0.333-0.8 0.5-1.3 0.5s-0.917-0.167-1.25-0.5c-0.367-0.333-0.55-0.733-0.55-1.2s0.184-0.867 0.55-1.2c0.333-0.333 0.75-0.5 1.25-0.5s0.933 0.167 1.3 0.5c0.333 0.333 0.5 0.733 0.5 1.2z"/>
				<path d="m33.5 30.2c0 0.533-0.2 0.983-0.6 1.35s-0.883 0.55-1.45 0.55-1.05-0.184-1.45-0.55-0.6-0.816-0.6-1.35 0.2-0.983 0.6-1.35 0.883-0.55 1.45-0.55c0.566 0 1.05 0.184 1.45 0.55s0.6 0.817 0.6 1.35z"/>
				<path d="m34.15 24.85c0 0.433-0.183 0.783-0.55 1.05-0.367 0.3-0.833 0.45-1.4 0.45-0.534 0-0.983-0.15-1.35-0.45-0.367-0.267-0.55-0.617-0.55-1.05 0-0.434 0.184-0.8 0.55-1.1s0.816-0.45 1.35-0.45c0.533 0 1 0.15 1.4 0.45 0.367 0.3 0.55 0.667 0.55 1.1z"/>
				<path d="m35 20.8c0 0.3-0.184 0.55-0.55 0.75-0.367 0.2-0.817 0.3-1.35 0.3-0.534 0-0.983-0.1-1.35-0.3-0.4-0.2-0.6-0.45-0.6-0.75s0.2-0.55 0.6-0.75c0.367-0.2 0.816-0.3 1.35-0.3 0.533 0 0.983 0.1 1.35 0.3 0.366 0.2 0.55 0.45 0.55 0.75z"/>
				<path d="m34.8 17.25c1.067 0 1.6 0.2 1.6 0.6 0 0.167-0.167 0.316-0.5 0.45-0.3 0.134-0.667 0.2-1.1 0.2s-0.816-0.066-1.15-0.2c-0.333-0.133-0.5-0.283-0.5-0.45 0-0.4 0.55-0.6 1.65-0.6z"/>
			</g>
				<use transform="matrix(1 0 0 -1 39.8 17.65)" y="-20.65" width="5.85" height="20.65" enable-background="new" opacity=".25" xlink:href="#t"/>
			<path d="m43.45 35.6c0 0.467-0.167 0.867-0.5 1.2-0.367 0.334-0.8 0.5-1.3 0.5s-0.917-0.166-1.25-0.5c-0.367-0.333-0.55-0.733-0.55-1.2s0.183-0.867 0.55-1.2c0.333-0.333 0.75-0.5 1.25-0.5s0.933 0.167 1.3 0.5c0.333 0.333 0.5 0.733 0.5 1.2z" clip-rule="evenodd" fill="#362222" fill-rule="evenodd"/>
			<path d="m43.9 30.2c0 0.533-0.2 0.983-0.601 1.35-0.399 0.367-0.883 0.55-1.45 0.55s-1.05-0.184-1.45-0.55-0.6-0.816-0.6-1.35 0.2-0.983 0.6-1.35 0.883-0.55 1.45-0.55 1.05 0.184 1.45 0.55c0.401 0.367 0.601 0.817 0.601 1.35z" clip-rule="evenodd" fill="#362222" fill-rule="evenodd"/>
			<path d="m44.15 24.85c0 0.433-0.184 0.783-0.551 1.05-0.366 0.3-0.833 0.45-1.399 0.45-0.534 0-0.983-0.15-1.35-0.45-0.367-0.267-0.55-0.617-0.55-1.05 0-0.434 0.184-0.8 0.55-1.1s0.816-0.45 1.35-0.45c0.533 0 1 0.15 1.399 0.45 0.368 0.3 0.551 0.667 0.551 1.1z" clip-rule="evenodd" fill="#362222" fill-rule="evenodd"/>
			<path d="m44.75 20.8c0 0.3-0.184 0.55-0.55 0.75-0.367 0.2-0.816 0.3-1.351 0.3-0.533 0-0.983-0.1-1.35-0.3-0.4-0.2-0.6-0.45-0.6-0.75s0.2-0.55 0.6-0.75c0.367-0.2 0.816-0.3 1.35-0.3s0.983 0.1 1.351 0.3c0.366 0.2 0.55 0.45 0.55 0.75z" clip-rule="evenodd" fill="#362222" fill-rule="evenodd"/>
			<path d="m45.4 17.85c0 0.167-0.167 0.316-0.5 0.45-0.301 0.134-0.667 0.2-1.101 0.2s-0.816-0.066-1.149-0.2c-0.334-0.133-0.5-0.283-0.5-0.45 0-0.4 0.55-0.6 1.649-0.6 1.067 0 1.601 0.2 1.601 0.6z" clip-rule="evenodd" fill="#362222" fill-rule="evenodd"/>
				<use transform="matrix(1 0 0 -1 50.75 17.55)" y="-20.65" width="5.85" height="20.65" enable-background="new" opacity=".25" xlink:href="#s"/>
			<path d="m52.9 35.5c0-0.467 0.183-0.85 0.55-1.15 0.333-0.333 0.75-0.5 1.25-0.5s0.933 0.167 1.3 0.5c0.333 0.3 0.5 0.683 0.5 1.15s-0.167 0.867-0.5 1.2c-0.367 0.333-0.8 0.5-1.3 0.5s-0.917-0.167-1.25-0.5c-0.367-0.333-0.55-0.733-0.55-1.2z" clip-rule="evenodd" fill="#362222" fill-rule="evenodd"/>
			<path d="m52.5 30.1c0-0.533 0.2-0.983 0.6-1.35s0.884-0.55 1.45-0.55c0.567 0 1.05 0.183 1.45 0.55s0.6 0.817 0.6 1.35-0.2 0.983-0.6 1.35-0.883 0.55-1.45 0.55c-0.566 0-1.05-0.183-1.45-0.55s-0.6-0.817-0.6-1.35z" clip-rule="evenodd" fill="#362222" fill-rule="evenodd"/>
			<path d="m52.25 24.75c0-0.433 0.184-0.8 0.55-1.1 0.367-0.3 0.817-0.45 1.351-0.45s0.982 0.15 1.35 0.45c0.4 0.3 0.6 0.667 0.6 1.1 0 0.434-0.199 0.783-0.6 1.05-0.367 0.3-0.816 0.45-1.35 0.45s-0.984-0.15-1.351-0.45c-0.366-0.267-0.55-0.616-0.55-1.05z" clip-rule="evenodd" fill="#362222" fill-rule="evenodd"/>
			<path d="m51.6 20.7c0-0.3 0.184-0.55 0.551-0.75 0.366-0.2 0.833-0.3 1.399-0.3 0.533 0 0.983 0.1 1.351 0.3 0.366 0.2 0.55 0.45 0.55 0.75s-0.184 0.55-0.55 0.75c-0.367 0.2-0.817 0.3-1.351 0.3-0.566 0-1.033-0.1-1.399-0.3-0.368-0.2-0.551-0.45-0.551-0.75z" clip-rule="evenodd" fill="#362222" fill-rule="evenodd"/>
			<path d="m50.95 17.75c0-0.4 0.55-0.6 1.649-0.6 1.067 0 1.601 0.2 1.601 0.6 0 0.167-0.15 0.317-0.45 0.45-0.333 0.133-0.717 0.2-1.15 0.2s-0.816-0.066-1.149-0.2-0.501-0.283-0.501-0.45z" clip-rule="evenodd" fill="#362222" fill-rule="evenodd"/>
				<use transform="matrix(1 0 0 -1 60.5 17.7)" y="-20.55" width="7.2" height="20.55" enable-background="new" opacity=".25" xlink:href="#r"/>
			<g clip-rule="evenodd" fill="#362222" fill-rule="evenodd">
				<path d="m63.85 35.55c0-0.466 0.184-0.866 0.551-1.2 0.333-0.333 0.75-0.5 1.25-0.5s0.933 0.167 1.3 0.5c0.333 0.333 0.5 0.733 0.5 1.2s-0.167 0.867-0.5 1.2c-0.367 0.333-0.8 0.5-1.3 0.5s-0.917-0.167-1.25-0.5c-0.368-0.333-0.551-0.733-0.551-1.2z"/>
				<path d="m63.6 30.25c0-0.533 0.2-0.983 0.601-1.35 0.399-0.367 0.883-0.55 1.45-0.55 0.566 0 1.05 0.183 1.449 0.55 0.4 0.367 0.601 0.817 0.601 1.35s-0.2 0.983-0.601 1.35c-0.399 0.4-0.883 0.6-1.449 0.6-0.567 0-1.051-0.2-1.45-0.6-0.401-0.367-0.601-0.817-0.601-1.35z"/>
				<path d="m63 24.9c0-0.433 0.184-0.8 0.55-1.1 0.367-0.3 0.817-0.45 1.351-0.45s0.982 0.15 1.35 0.45c0.4 0.3 0.6 0.667 0.6 1.1 0 0.434-0.199 0.8-0.6 1.1-0.367 0.3-0.816 0.45-1.35 0.45s-0.984-0.15-1.351-0.45c-0.366-0.3-0.55-0.667-0.55-1.1z"/>
				<path d="m62.1 20.85c0-0.3 0.184-0.55 0.551-0.75 0.366-0.2 0.833-0.3 1.399-0.3 0.533 0 0.983 0.1 1.351 0.3 0.366 0.2 0.55 0.45 0.55 0.75s-0.184 0.566-0.55 0.8c-0.367 0.2-0.817 0.3-1.351 0.3s-1-0.1-1.399-0.3c-0.368-0.233-0.551-0.5-0.551-0.8z"/>
				<path d="m60.7 17.9c0-0.167 0.167-0.3 0.5-0.4 0.333-0.133 0.717-0.2 1.149-0.2 0.434 0 0.817 0.067 1.15 0.2 0.3 0.1 0.45 0.233 0.45 0.4s-0.15 0.317-0.45 0.45c-0.333 0.133-0.717 0.2-1.15 0.2s-0.816-0.066-1.149-0.2-0.5-0.283-0.5-0.45z"/>
			</g>
			<g clip-rule="evenodd" fill-rule="evenodd">
				<path d="m34.65 38c-0.066-4.6 0.017-8.35 0.25-11.25 0.167-2.033 0.717-4.15 1.65-6.35l1.35-2.65 2.4-0.15-0.9 3.6c-0.6 2.633-0.933 4.517-1 5.65-0.066 1.767-0.066 5.483 0 11.15h-3.75z" fill="#544326"/>
				<path d="m37.85 18.1l1.95-0.1-0.9 3.5c-0.6 2.533-0.917 4.367-0.95 5.5l-0.25 10.85h-2.5c-0.067-4.5 0-8.149 0.2-10.95 0.133-1.966 0.583-4.033 1.35-6.2l1.1-2.6z" fill="#B3905C"/>
				<path d="m38.3 18.25l1-0.1-0.85 3.5c-0.567 2.534-0.867 4.333-0.9 5.4-0.066 1.634-0.066 5.034 0 10.2h-2c-0.033-4.3 0.017-7.8 0.15-10.5 0.1-1.9 0.566-3.883 1.4-5.95l1.2-2.55z" fill="#91754C"/>
				<polygon points="37.6 17.75 40.3 17.6 39.2 18.4 38.1 18.4" fill="#544326"/>
			</g>
			<g clip-rule="evenodd" fill-rule="evenodd">
				<path d="m59 17.75l1.35 2.65c0.967 2.2 1.518 4.317 1.65 6.35 0.233 2.9 0.316 6.65 0.25 11.25h-3.75c0.1-5.667 0.1-9.383 0-11.15-0.033-1.133-0.35-3.017-0.95-5.65l-0.899-3.6 2.349 0.15z" fill="#544326"/>
				<path d="m59.1 18.1l1.101 2.6c0.733 2.167 1.167 4.233 1.3 6.2 0.2 2.8 0.283 6.45 0.25 10.95h-2.5l-0.251-10.85c-0.066-1.133-0.4-2.967-1-5.5l-0.85-3.5 1.95 0.1z" fill="#B3905C"/>
				<path d="m58.65 18.25l1.199 2.55c0.801 2.067 1.25 4.05 1.351 5.95 0.167 2.7 0.233 6.2 0.2 10.5h-2c0.033-5.167 0.033-8.566 0-10.2-0.033-1.066-0.334-2.866-0.9-5.4l-0.85-3.5 1 0.1z" fill="#91754C"/>
				<polygon points="59.3 17.75 58.8 18.4 57.75 18.4 56.65 17.6" fill="#544326"/>
			</g>
			<path d="m47.3 17.6h1.851l0.699 3.55c0.467 2.6 0.7 4.583 0.7 5.95v10.65h-4.5c-0.166-5.467-0.217-9.05-0.15-10.75 0.066-1.1 0.316-3 0.75-5.7l0.65-3.7z" clip-rule="evenodd" fill="#544326" fill-rule="evenodd"/>
			<path d="m47.65 18.2h1.199l0.45 3.45c0.267 2.567 0.4 4.5 0.4 5.8v10.3h-2.849c-0.1-5.3-0.133-8.783-0.1-10.45 0.033-1.066 0.2-2.9 0.5-5.5l0.4-3.6z" clip-rule="evenodd" fill="#B3905C" fill-rule="evenodd"/>
			<path d="m47.9 18.1h0.649l0.451 3.55c0.267 2.667 0.4 4.65 0.4 5.95 0 2.133-0.117 5.517-0.351 10.15h-1.6c-0.134-5-0.184-8.333-0.15-10 0-1.066 0.101-3 0.3-5.8l0.301-3.85z" clip-rule="evenodd" fill="#91754C" fill-rule="evenodd"/>
			<polygon points="6.45 67.25 3.8 67.1 6.3 63.75" clip-rule="evenodd" fill="#362222" fill-rule="evenodd"/>
			<polygon points="80.45 67.25 80.6 63.75 83.1 67.1" clip-rule="evenodd" fill="#362222" fill-rule="evenodd"/>
			<g clip-rule="evenodd" fill-rule="evenodd">
				<path d="m53.35 8.95c0.134 0.2 0.134 1.517 0 3.95h-4.3c-0.033-0.667-0.05-1.333-0.05-2-0.033-1.367 0.033-2.1 0.2-2.2 0.133-0.067 0.417-0.15 0.85-0.25 0.367-0.1 0.567-0.184 0.601-0.25 0.033-0.034 0.133-0.267 0.3-0.7 0.2-0.4 0.35-0.617 0.45-0.65 0.1 0 0.217 0.217 0.35 0.65 0.132 0.5 0.249 0.783 0.349 0.85 0.101 0.066 0.317 0.167 0.65 0.3 0.3 0.1 0.5 0.2 0.6 0.3z" fill="#635C50"/>
				<path d="m53 9.3c0.133 0.167 0.133 1.4 0 3.7h-4.05c-0.033-0.6-0.05-1.233-0.05-1.9 0-1.267 0.066-1.95 0.199-2.05 0.134-0.1 0.4-0.183 0.801-0.25 0.366-0.1 0.566-0.167 0.6-0.2 0.1-0.267 0.2-0.5 0.3-0.7 0.167-0.367 0.3-0.566 0.4-0.6 0.1 0 0.2 0.2 0.3 0.6 0.133 0.467 0.25 0.733 0.35 0.8s0.3 0.167 0.6 0.3c0.3 0.1 0.484 0.2 0.55 0.3z" fill="#FFE7C2"/>
				<path d="m53 9.55c0.133 0.2 0.133 1.317 0 3.35h-3.95c-0.033-0.567-0.05-1.133-0.05-1.7 0-1.133 0.066-1.75 0.2-1.85 0.133-0.067 0.383-0.133 0.75-0.2 0.366-0.066 0.566-0.133 0.6-0.2 0.033-0.034 0.134-0.233 0.3-0.6 0.167-0.333 0.301-0.517 0.4-0.55 0.1 0 0.2 0.184 0.3 0.55 0.101 0.4 0.2 0.633 0.3 0.7 0.067 0.067 0.268 0.15 0.601 0.25 0.299 0.067 0.483 0.15 0.549 0.25z" fill="#D6C2A3"/>
				<path d="m49.05 12.9l-0.05-1.1c1.066 0.067 1.767 0.083 2.1 0.05l1.2-0.3c0.101-0.033 0.4-0.05 0.9-0.05l-0.1 1.4h-4.05z" fill="#BFB099"/>
				<polygon points="51.2 8.8 51.65 8.8 51.65 11.8 52.6 11.8 52.6 12.35 50.65 12.35 50.65 11.7 51.35 11.7 51.3 9.1 50.8 9.7 50.5 9.7" fill="#362222"/>
			</g>
				<path d="m45.05 7.5c0.2-0.4 0.351-0.617 0.45-0.65 0.066 0 0.167 0.217 0.3 0.65 0.134 0.467 0.267 0.75 0.4 0.85 0.1 0.066 0.316 0.167 0.649 0.3 0.301 0.133 0.484 0.25 0.551 0.35 0.166 0.2 0.166 1.533 0 4h-4.25c-0.034-0.667-0.051-1.35-0.051-2.05 0-1.367 0.067-2.1 0.2-2.2 0.134-0.066 0.417-0.15 0.851-0.25 0.366-0.1 0.566-0.183 0.6-0.25 0.134-0.267 0.233-0.517 0.3-0.75z" clip-rule="evenodd" fill="#635C50" fill-rule="evenodd"/>
				<path d="m44.95 7.9c0.166-0.367 0.316-0.566 0.45-0.6 0.1 0 0.199 0.2 0.3 0.6 0.133 0.467 0.25 0.733 0.35 0.8 0.101 0.066 0.3 0.167 0.601 0.3 0.3 0.1 0.482 0.2 0.55 0.3 0.133 0.167 0.133 1.4 0 3.7h-4.05c-0.034-0.6-0.051-1.233-0.051-1.9 0-1.267 0.067-1.95 0.2-2.05 0.134-0.1 0.384-0.183 0.75-0.25 0.367-0.1 0.566-0.167 0.601-0.2 0.099-0.267 0.199-0.5 0.299-0.7z" clip-rule="evenodd" fill="#FFE7C2" fill-rule="evenodd"/>
				<path d="m45.35 7.85c0.101 0 0.2 0.183 0.301 0.55 0.132 0.433 0.249 0.683 0.349 0.75 0.066 0.067 0.267 0.15 0.6 0.25 0.301 0.067 0.483 0.15 0.551 0.25 0.133 0.167 0.133 1.284 0 3.35h-4c-0.034-0.566-0.051-1.133-0.051-1.7 0-1.133 0.067-1.75 0.2-1.85 0.101-0.067 0.351-0.133 0.75-0.2 0.367-0.1 0.566-0.183 0.601-0.25 0.033-0.033 0.133-0.233 0.3-0.6 0.165-0.333 0.299-0.517 0.399-0.55z" clip-rule="evenodd" fill="#D6C2A3" fill-rule="evenodd"/>
					<path d="m45.1 12.3c0.534 0 0.934-0.05 1.2-0.15 0.267-0.066 0.55-0.283 0.851-0.65l0.1 0.6-0.051 0.9h-4.05l-0.05-1.05 0.851 0.25 1.149 0.1z" clip-rule="evenodd" fill="#BFB099" fill-rule="evenodd"/>
				<rect x="43.2" y="12.6" width="4.2" height=".25" clip-rule="evenodd" fill="#635C50" fill-rule="evenodd"/>
			<rect x="48.6" y="12.7" width="5.101" height=".25" clip-rule="evenodd" fill="#635C50" fill-rule="evenodd"/>
			<g clip-rule="evenodd" fill-rule="evenodd">
				<path d="m54.65 10.95c0-1.367 0.066-2.1 0.199-2.2 0.134-0.066 0.418-0.15 0.851-0.25 0.366-0.1 0.566-0.183 0.6-0.25 0.467-0.9 0.717-1.367 0.75-1.4 0.101 0 0.217 0.217 0.351 0.65 0.133 0.5 0.25 0.783 0.35 0.85 0.1 0.066 0.316 0.167 0.65 0.3 0.299 0.133 0.499 0.25 0.599 0.35 0.133 0.2 0.133 1.533 0 4h-4.3c-0.033-0.667-0.05-1.35-0.05-2.05z" fill="#635C50"/>
				<path d="m54.65 11.05c0-1.3 0.066-2 0.199-2.1 0.134-0.1 0.384-0.184 0.75-0.25 0.367-0.1 0.567-0.167 0.601-0.2 0.1-0.267 0.2-0.5 0.3-0.7 0.167-0.366 0.3-0.566 0.4-0.6 0.1-0.033 0.2 0.15 0.3 0.55 0.133 0.5 0.25 0.783 0.35 0.85 0.101 0.066 0.3 0.167 0.601 0.3 0.3 0.1 0.482 0.2 0.55 0.3 0.133 0.2 0.133 1.466 0 3.8h-4c-0.034-0.633-0.051-1.283-0.051-1.95z" fill="#FFE7C2"/>
				<path d="m54.65 11.25c0-1.167 0.066-1.8 0.199-1.9 0.101-0.067 0.351-0.133 0.75-0.2 0.367-0.1 0.567-0.183 0.601-0.25 0.033-0.033 0.133-0.233 0.3-0.6 0.167-0.333 0.3-0.517 0.4-0.55 0.1 0 0.199 0.184 0.3 0.55 0.133 0.434 0.25 0.684 0.35 0.75 0.067 0.067 0.267 0.15 0.601 0.25 0.3 0.067 0.482 0.15 0.55 0.25 0.133 0.2 0.133 1.35 0 3.45h-4c-0.034-0.566-0.051-1.15-0.051-1.75z" fill="#D6C2A3"/>
				<path d="m54.7 13l-0.05-1 0.1-0.25c-0.033 0.3 0.25 0.417 0.85 0.35 0.334 0 0.717-0.05 1.15-0.15l2-0.1-0.05 1.15h-4z" fill="#BFB099"/>
				<path d="m56.9 9.05c0.333 0 0.616 0.167 0.85 0.5 0.233 0.333 0.35 0.733 0.35 1.2s-0.116 0.867-0.35 1.2c-0.233 0.333-0.517 0.5-0.85 0.5-0.334 0-0.617-0.167-0.851-0.5-0.233-0.333-0.35-0.733-0.35-1.2s0.116-0.867 0.35-1.2 0.517-0.5 0.851-0.5zm0.65 0.6c-0.167-0.3-0.383-0.45-0.65-0.45-0.268 0-0.5 0.15-0.7 0.45-0.167 0.267-0.25 0.617-0.25 1.05 0 0.4 0.083 0.75 0.25 1.05 0.2 0.3 0.433 0.45 0.7 0.45 0.232 0 0.449-0.15 0.649-0.45 0.167-0.3 0.25-0.65 0.25-1.05 1e-3 -0.433-0.082-0.783-0.249-1.05z" fill="#362222"/>
				<rect x="54.65" y="12.7" width="4.199" height=".25" fill="#635C50"/>
			</g>
			<g clip-rule="evenodd" fill-rule="evenodd">
				<path d="m64.45 8.95c0.133 0.2 0.133 1.533 0 4h-4.1c-0.033-0.667-0.05-1.35-0.05-2.05-0.033-1.367 0.033-2.1 0.2-2.2 0.133-0.1 0.383-0.2 0.75-0.3s0.566-0.167 0.6-0.2c0.134-0.3 0.233-0.55 0.301-0.75 0.199-0.4 0.349-0.617 0.449-0.65 0.101 0 0.2 0.217 0.301 0.65 0.133 0.5 0.25 0.783 0.35 0.85 0.066 0.067 0.283 0.167 0.65 0.3 0.299 0.1 0.482 0.217 0.549 0.35z" fill="#635C50"/>
				<path d="m64.2 9.25c0.133 0.2 0.133 1.434 0 3.7h-3.9c-0.033-0.6-0.05-1.217-0.05-1.85 0-1.267 0.066-1.95 0.2-2.05 0.1-0.066 0.35-0.15 0.75-0.25 0.366-0.1 0.55-0.183 0.55-0.25 0.033-0.033 0.133-0.25 0.3-0.65 0.167-0.367 0.3-0.566 0.4-0.6 0.1 0 0.2 0.2 0.3 0.6 0.133 0.467 0.25 0.733 0.35 0.8 0.067 0.066 0.25 0.15 0.551 0.25 0.299 0.1 0.482 0.2 0.549 0.3z" fill="#FFE7C2"/>
				<path d="m64.2 9.65c0.133 0.167 0.133 1.267 0 3.3h-3.9c-0.033-0.534-0.05-1.083-0.05-1.65 0-1.133 0.066-1.75 0.2-1.85 0.1-0.067 0.35-0.133 0.75-0.2 0.366-0.066 0.55-0.133 0.55-0.2 0.033-0.033 0.133-0.233 0.3-0.6 0.167-0.3 0.3-0.467 0.4-0.5 0.1 0 0.2 0.167 0.3 0.5 0.133 0.4 0.25 0.633 0.35 0.7 0.067 0.067 0.25 0.15 0.551 0.25 0.299 0.067 0.482 0.15 0.549 0.25z" fill="#D6C2A3"/>
				<path d="m64.25 11.6l-0.05 1.35h-3.9v-1.15c0.567 0.233 1.217 0.3 1.95 0.2 0.167 0 0.833-0.133 2-0.4z" fill="#BFB099"/>
				<path d="m62.5 8.95c0.3 0 0.566 0.167 0.8 0.5 0.2 0.333 0.3 0.716 0.3 1.15 0 0.467-0.1 0.867-0.3 1.2-0.233 0.333-0.5 0.5-0.8 0.5-0.333 0-0.6-0.167-0.8-0.5-0.233-0.333-0.351-0.733-0.351-1.2s0.117-0.85 0.351-1.15c0.2-0.333 0.467-0.5 0.8-0.5zm0.6 0.55c-0.2-0.3-0.416-0.45-0.65-0.45s-0.433 0.15-0.6 0.45c-0.166 0.3-0.25 0.65-0.25 1.05 0 0.434 0.084 0.784 0.25 1.05 0.167 0.3 0.367 0.45 0.601 0.45 0.267 0 0.483-0.15 0.649-0.45 0.167-0.267 0.25-0.617 0.25-1.05 0-0.4-0.083-0.75-0.25-1.05z" fill="#362222"/>
				<rect x="60.25" y="12.7" width="4.2" height=".25" fill="#635C50"/>
			</g>
				<use transform="matrix(1 0 0 -1 30.8 6)" y="-5.4" width="12.05" height="5.4" enable-background="new" opacity=".5" xlink:href="#aa"/>
				<use transform="matrix(1 0 0 -1 48.6 6)" y="-6.95" width="16.7" height="6.95" enable-background="new" opacity=".4492" xlink:href="#y"/>
				<use transform="matrix(1 0 0 -1 30.75 6)" y="-7.7" width="1.05" height="7.7" enable-background="new" opacity=".5" xlink:href="#x"/>
				<use transform="matrix(1 0 0 -1 23.6 43.25)" y="-8.85" width="49" height="8.85" enable-background="new" opacity=".25" xlink:href="#w"/>
			<path d="m75.9 24.4c0.3-0.3 0.616-0.066 0.949 0.7 0.533 1.267 0.45 3.2-0.25 5.8v-3.55c0-0.367-0.183-0.85-0.55-1.45l-0.55-0.8 0.401-0.7z" clip-rule="evenodd" fill="#C9A368" fill-rule="evenodd"/>
			<path d="m84.7 37.8c-0.233 0.967-0.884 1.617-1.95 1.95l-1.5 0.25h-2.5v-6.25h0.1c1.301 2.434 2.45 3.684 3.45 3.75 0.333 0.033 1.134 0.134 2.4 0.3z" clip-rule="evenodd" fill="#241616" fill-rule="evenodd"/>
			<path d="m81.1 34.75h0.8c0.6 0.067 1.017 0.233 1.25 0.5 0.333 0.367 0.55 0.717 0.649 1.05 0.134 0.367 0 0.55-0.399 0.55-0.334 0-0.817-0.35-1.45-1.05l-0.85-1.05z" clip-rule="evenodd" fill="#573535" fill-rule="evenodd"/>
			<path d="m78.9 34.25l0.05 1.9c0.167 1.333 0.649 2.234 1.45 2.7 0.767 0.467 1.683 0.717 2.75 0.75-2.367 0.767-3.834 0.9-4.4 0.4-0.4-0.366-0.684-0.9-0.85-1.6-0.2-0.667-0.233-1.351-0.101-2.05 0.134-0.567 0.333-1.167 0.601-1.8l0.35-0.8 0.15 0.5z" clip-rule="evenodd" fill="#170E0E" fill-rule="evenodd"/>
			<path d="m43.55 15.25h-7.4c-3.133 0-5.8-0.117-8-0.35l0.4-0.5h39.1l0.75 0.75c-2.533-0.033-4.434-0.05-5.7-0.05-1.233 0-4.283 0.05-9.15 0.15-3.667 0.1-7 0.1-10 0z" clip-rule="evenodd" fill="#33291A" fill-rule="evenodd"/>
		<use transform="matrix(1 0 0 -1 42.4 75.95)" x="16383" y="16383" width="-32766" height="-32766" xlink:href="#ab"/>
</svg>
