<?xml version="1.0" encoding="UTF-8"?>
<svg viewBox="0 0 1057.658 265.65167" xmlns="http://www.w3.org/2000/svg" xmlns:xlink="http://www.w3.org/1999/xlink">
 <defs>
  <linearGradient id="h">
   <stop stop-color="#c37f00" stop-opacity=".69802" offset="0"/>
   <stop stop-color="#9e6700" stop-opacity="0" offset="1"/>
  </linearGradient>
  <linearGradient id="f">
   <stop stop-color="#502d16" stop-opacity="0" offset="0"/>
   <stop stop-color="#502d16" stop-opacity=".49804" offset=".5"/>
   <stop stop-color="#502d16" stop-opacity="0" offset="1"/>
  </linearGradient>
  <linearGradient id="d">
   <stop stop-color="#502d16" offset="0"/>
   <stop stop-color="#502d16" stop-opacity="0" offset="1"/>
  </linearGradient>
  <linearGradient id="e">
   <stop stop-color="#b67700" offset="0"/>
   <stop stop-color="#ffab0a" offset=".5"/>
   <stop stop-color="#ea9900" offset=".75"/>
   <stop stop-color="#b67700" offset="1"/>
  </linearGradient>
  <linearGradient id="b">
   <stop stop-color="#fff" offset="0"/>
   <stop stop-color="#fff" stop-opacity="0" offset="1"/>
  </linearGradient>
  <linearGradient id="c">
   <stop stop-color="#fff" stop-opacity="0" offset="0"/>
   <stop stop-color="#fff" stop-opacity=".06931" offset=".26678"/>
   <stop stop-color="#fff" stop-opacity=".86634" offset=".56962"/>
   <stop stop-color="#fff" stop-opacity=".04455" offset=".85563"/>
   <stop stop-color="#fff" stop-opacity="0" offset="1"/>
  </linearGradient>
  <linearGradient id="a">
   <stop stop-color="#fff" offset="0"/>
   <stop stop-color="#fff" stop-opacity="0" offset=".74684"/>
   <stop stop-color="#fff" stop-opacity="0" offset="1"/>
  </linearGradient>
  <linearGradient id="di" x1="-1977.2" x2="-1907.1" y1="-659.84" y2="-663.77" gradientUnits="userSpaceOnUse">
   <stop stop-color="#7c5000" stop-opacity=".69804" offset="0"/>
   <stop stop-color="#9e6700" stop-opacity="0" offset="1"/>
  </linearGradient>
  <linearGradient id="cb" x1="-419" x2="-182.66" gradientUnits="userSpaceOnUse" xlink:href="#c"/>
  <linearGradient id="ca" x1="-387.48" x2="-208.76" gradientUnits="userSpaceOnUse" xlink:href="#c"/>
  <linearGradient id="de" x1="612.95" x2="824.16" gradientUnits="userSpaceOnUse" xlink:href="#c"/>
  <linearGradient id="cw" x1="-2170" x2="-1776.6" y1="-468.31" y2="-464.44" gradientUnits="userSpaceOnUse" xlink:href="#c"/>
  <linearGradient id="cv" x1="-2070.5" x2="-1859.2" gradientUnits="userSpaceOnUse" xlink:href="#c"/>
  <linearGradient id="cu" x1="-1033.5" x2="-640.07" y1="-275.68" y2="-271.8" gradientUnits="userSpaceOnUse" xlink:href="#c"/>
  <linearGradient id="ct" x1="-933.91" x2="-722.69" gradientUnits="userSpaceOnUse" xlink:href="#c"/>
  <linearGradient id="cs" x1="64.452" x2="275.66" gradientUnits="userSpaceOnUse" xlink:href="#c"/>
  <linearGradient id="cr" x1="-35.125" x2="358.28" y1="-367.19" y2="-363.31" gradientUnits="userSpaceOnUse" xlink:href="#c"/>
  <linearGradient id="dd" x1="909.19" x2="1120.4" gradientUnits="userSpaceOnUse" xlink:href="#c"/>
  <linearGradient id="dc" x1="809.62" x2="1203" y1="-373.96" y2="-370.08" gradientUnits="userSpaceOnUse" xlink:href="#c"/>
  <linearGradient id="db" x1="-1107.8" x2="-946.49" y1="-788.85" y2="-790.22" gradientUnits="userSpaceOnUse" xlink:href="#e"/>
  <linearGradient id="da" x1="-1032.3" x2="-1033.4" y1="-407.18" y2="-431.44" gradientUnits="userSpaceOnUse" xlink:href="#d"/>
  <linearGradient id="cz" x1="-1031.1" x2="-1032" y1="-772.79" y2="-795.86" gradientUnits="userSpaceOnUse" xlink:href="#d"/>
  <linearGradient id="cy" x1="-737.65" x2="-738.58" y1="-768.34" y2="-791.41" gradientTransform="matrix(.81507 0 0 .87881 -428.51 -146.08)" gradientUnits="userSpaceOnUse" xlink:href="#d"/>
  <linearGradient id="cx" x1="-737.65" x2="-738.58" y1="-768.34" y2="-791.41" gradientTransform="matrix(.67669 0 0 .6309 -530.46 -375.5)" gradientUnits="userSpaceOnUse" xlink:href="#d"/>
  <linearGradient id="cq" x1="-737.65" x2="-738.58" y1="-768.34" y2="-791.41" gradientTransform="matrix(1.1427 0 0 1 -508.05 363.46)" gradientUnits="userSpaceOnUse" xlink:href="#d"/>
  <linearGradient id="cp" x1="-737.65" x2="-738.58" y1="-768.34" y2="-791.41" gradientTransform="matrix(.68865 0 0 .93607 -838.83 23.997)" gradientUnits="userSpaceOnUse" xlink:href="#d"/>
  <linearGradient id="co" x1="-737.65" x2="-738.58" y1="-768.34" y2="-791.41" gradientTransform="matrix(.82349 0 0 .96271 -739.52 84.021)" gradientUnits="userSpaceOnUse" xlink:href="#d"/>
  <linearGradient id="cn" x2="0" y1="-938.14" y2="-919.16" gradientUnits="userSpaceOnUse" xlink:href="#f"/>
  <linearGradient id="cm" x1="-1348.6" x2="-1349.5" y1="-607.79" y2="-630.85" gradientUnits="userSpaceOnUse" xlink:href="#d"/>
  <linearGradient id="cl" x1="1226.3" x2="1437.5" gradientUnits="userSpaceOnUse" xlink:href="#c"/>
  <linearGradient id="ck" x1="1126.7" x2="1520.1" y1="-371.63" y2="-367.75" gradientUnits="userSpaceOnUse" xlink:href="#c"/>
  <linearGradient id="cj" x1="-1428.2" x2="-1265.6" y1="-618.37" y2="-616.71" gradientUnits="userSpaceOnUse" xlink:href="#e"/>
  <linearGradient id="ci" x1="-737.65" x2="-738.58" y1="-768.34" y2="-791.41" gradientTransform="matrix(.90185 0 0 .5718 -970.93 39.032)" gradientUnits="userSpaceOnUse" xlink:href="#d"/>
  <linearGradient id="ch" x1="-737.65" x2="-738.58" y1="-768.34" y2="-791.41" gradientTransform="matrix(.52136 0 0 .5718 -1253.4 -176.43)" gradientUnits="userSpaceOnUse" xlink:href="#d"/>
  <linearGradient id="cg" x1="-737.65" x2="-738.58" y1="-768.34" y2="-791.41" gradientTransform="matrix(.70953 0 0 1 -1113.8 118.23)" gradientUnits="userSpaceOnUse" xlink:href="#d"/>
  <linearGradient id="cf" x2="0" y1="-712.8" y2="-701.6" gradientUnits="userSpaceOnUse" xlink:href="#f"/>
  <linearGradient id="ce" x1="1530.5" x2="1709.3" gradientUnits="userSpaceOnUse" xlink:href="#c"/>
  <linearGradient id="cd" x1="1499" x2="1735.4" gradientUnits="userSpaceOnUse" xlink:href="#c"/>
  <linearGradient id="cc" x1="-1702.3" x2="-1568" y1="-622.19" y2="-623.78" gradientUnits="userSpaceOnUse" xlink:href="#e"/>
  <linearGradient id="dv" x1="-813.76" x2="-652.45" y1="-772.05" y2="-777.62" gradientUnits="userSpaceOnUse" xlink:href="#e"/>
  <linearGradient id="du" x1="-737.65" x2="-738.58" y1="-768.34" y2="-791.41" gradientUnits="userSpaceOnUse" xlink:href="#d"/>
  <linearGradient id="dt" x1="516.53" x2="909.94" y1="-369.69" y2="-365.81" gradientUnits="userSpaceOnUse" xlink:href="#c"/>
  <linearGradient id="ds" x1="616.11" x2="827.32" gradientUnits="userSpaceOnUse" xlink:href="#c"/>
  <linearGradient id="dr" x1="-737.65" x2="-738.58" y1="-768.34" y2="-791.41" gradientTransform="matrix(.82549 0 0 .93545 -127.46 -96.362)" gradientUnits="userSpaceOnUse" xlink:href="#d"/>
  <linearGradient id="dq" x1="-737.65" x2="-738.58" y1="-768.34" y2="-791.41" gradientTransform="matrix(.68439 0 0 .90318 -231.64 -160.83)" gradientUnits="userSpaceOnUse" xlink:href="#d"/>
  <linearGradient id="dp" x1="-737.65" x2="-738.58" y1="-768.34" y2="-791.41" gradientTransform="matrix(1.1262 0 0 1 91.702 364.29)" gradientUnits="userSpaceOnUse" xlink:href="#d"/>
  <linearGradient id="do" x1="-2142.2" x2="-2143" y1="-383.57" y2="-404.39" gradientUnits="userSpaceOnUse" xlink:href="#d"/>
  <linearGradient id="dn" x2="0" y1="-589.56" y2="-579.36" gradientUnits="userSpaceOnUse" xlink:href="#f"/>
  <linearGradient id="dm" x1="2017.9" x2="2229.1" gradientUnits="userSpaceOnUse" xlink:href="#c"/>
  <linearGradient id="dl" x1="-2199.9" x2="-2067.7" y1="-534.73" y2="-535.21" gradientUnits="userSpaceOnUse" xlink:href="#e"/>
  <linearGradient id="dk" x1="-736.05" x2="-735.89" y1="-927.18" y2="-916.99" gradientTransform="matrix(.95771 0 0 .55106 -1436.9 -15.977)" gradientUnits="userSpaceOnUse" xlink:href="#d"/>
  <linearGradient id="dj" x1="542.4" x2="868.51" y1="-362.29" y2="-359.17" gradientUnits="userSpaceOnUse" xlink:href="#c"/>
  <linearGradient id="dh" x1="-1886.1" x2="-1887" y1="-389.42" y2="-412.48" gradientUnits="userSpaceOnUse" xlink:href="#d"/>
  <linearGradient id="dg" x1="1700.8" x2="2026.9" y1="-362.39" y2="-359.27" gradientUnits="userSpaceOnUse" xlink:href="#c"/>
  <linearGradient id="df" x1="-1968.5" x2="-1763.1" y1="-601.99" y2="-613.08" gradientUnits="userSpaceOnUse" xlink:href="#e"/>
  <radialGradient id="l" cx="152.9" cy="886.25" r="66.244" gradientTransform="matrix(1.4563 -2.1644e-6 1.8315e-6 2.2525 -507.97 -2442.9)" gradientUnits="userSpaceOnUse" xlink:href="#a"/>
  <radialGradient id="k" cx="-289.32" cy="-423.35" r="99.436" gradientTransform="matrix(1.0472 -.0053114 .0013817 .1444 18.569 -369)" gradientUnits="userSpaceOnUse" xlink:href="#b"/>
  <radialGradient id="j" cx="-289.32" cy="-423.35" r="99.436" gradientTransform="matrix(.74804 -.0072991 .00098703 .19844 -67.567 -599.06)" gradientUnits="userSpaceOnUse" xlink:href="#b"/>
  <radialGradient id="i" cx="-289.32" cy="-423.35" r="99.436" gradientTransform="matrix(.53785 -.0047435 .00070968 .12896 -127.56 -579.62)" gradientUnits="userSpaceOnUse" xlink:href="#b"/>
  <radialGradient id="ba" cx="154.65" cy="-2310.2" r="66.244" gradientTransform="matrix(.95514 1.0903e-7 0 .77089 581.28 1120)" gradientUnits="userSpaceOnUse" xlink:href="#a"/>
  <radialGradient id="az" cx="-582.55" cy="-496" r="65.009" gradientTransform="matrix(1.2221 -4.1309e-7 1.447e-7 .43142 1439.8 -358.71)" gradientUnits="userSpaceOnUse" xlink:href="#a"/>
  <radialGradient id="ay" cx="152.9" cy="886.25" r="66.244" gradientTransform="matrix(1.3757 -1.1499e-6 1.1384e-6 1.3291 523.54 -1606.3)" gradientUnits="userSpaceOnUse" xlink:href="#a"/>
  <radialGradient id="ax" cx="154.26" cy="25.652" r="66.244" gradientTransform="matrix(1.9976 -4.0726e-6 3.5245e-7 .29644 433.56 -419.11)" gradientUnits="userSpaceOnUse" xlink:href="#a"/>
  <radialGradient id="aq" cx="154.26" cy="25.652" r="66.244" gradientTransform="matrix(2.2363 -4.0726e-6 3.9456e-7 .29644 -2297.6 -553.94)" gradientUnits="userSpaceOnUse" xlink:href="#a"/>
  <radialGradient id="ap" cx="152.9" cy="886.25" r="66.244" gradientTransform="matrix(1.3757 -3.2715e-6 1.1384e-6 3.7812 -2162.1 -3966.8)" gradientUnits="userSpaceOnUse" xlink:href="#a"/>
  <radialGradient id="ao" cx="155.57" cy="-469.58" r="66.244" gradientTransform="matrix(1.355 -3.6795e-6 6.6053e-7 .23884 -2164 -866.24)" gradientUnits="userSpaceOnUse" xlink:href="#a"/>
  <radialGradient id="an" cx="-820.08" cy="-748.45" r="82.007" gradientTransform="matrix(1.0764 -5.2364e-8 4.925e-7 .15591 -1073.5 -824.35)" gradientUnits="userSpaceOnUse" xlink:href="#b"/>
  <radialGradient id="am" cx="-820.08" cy="-748.45" r="82.007" gradientTransform="matrix(1.2804 -6.2093e-8 5.8587e-7 .18488 -904.48 -759.27)" gradientUnits="userSpaceOnUse" xlink:href="#b"/>
  <radialGradient id="al" cx="-813.8" cy="-931.85" r="128.44" gradientTransform="matrix(.89863 .019941 -.039103 1.7622 -1257.5 495.93)" gradientUnits="userSpaceOnUse" xlink:href="#b"/>
  <radialGradient id="g" cx="-805.84" cy="-986.42" r="25.199" gradientTransform="matrix(1.2074 2.0641e-6 -1.0351e-6 .6996 166.38 -296.08)" gradientUnits="userSpaceOnUse" xlink:href="#b"/>
  <radialGradient id="ak" cx="154.26" cy="25.652" r="66.244" gradientTransform="matrix(2.2363 -4.0726e-6 3.9456e-7 .29644 -1161.1 -361.31)" gradientUnits="userSpaceOnUse" xlink:href="#a"/>
  <radialGradient id="aj" cx="152.9" cy="886.25" r="66.244" gradientTransform="matrix(1.3757 -3.2715e-6 1.1384e-6 3.7812 -1025.6 -3774.2)" gradientUnits="userSpaceOnUse" xlink:href="#a"/>
  <radialGradient id="ai" cx="155.57" cy="-469.58" r="66.244" gradientTransform="matrix(1.355 -3.6795e-6 6.6053e-7 .23884 -1027.5 -673.6)" gradientUnits="userSpaceOnUse" xlink:href="#a"/>
  <radialGradient id="ah" cx="-820.08" cy="-748.45" r="82.007" gradientTransform="matrix(1.0764 -5.2364e-8 4.925e-7 .15591 63.024 -631.71)" gradientUnits="userSpaceOnUse" xlink:href="#b"/>
  <radialGradient id="ag" cx="-820.08" cy="-748.45" r="82.007" gradientTransform="matrix(1.2804 -6.2093e-8 5.8587e-7 .18488 232.08 -566.63)" gradientUnits="userSpaceOnUse" xlink:href="#b"/>
  <radialGradient id="af" cx="-813.8" cy="-931.85" r="128.44" gradientTransform="matrix(.89863 .019941 -.039103 1.7622 -120.99 688.57)" gradientUnits="userSpaceOnUse" xlink:href="#b"/>
  <radialGradient id="ae" cx="-822.11" cy="-1076.5" r="62.19" gradientTransform="matrix(.020654 1.5689 -1.0556 .013896 -1937.7 247.86)" gradientUnits="userSpaceOnUse" xlink:href="#b"/>
  <radialGradient id="ad" cx="152.9" cy="886.25" r="66.244" gradientTransform="matrix(1.3757 -1.1499e-6 1.1384e-6 1.3291 -27.196 -1692.5)" gradientUnits="userSpaceOnUse" xlink:href="#a"/>
  <radialGradient id="ac" cx="154.26" cy="25.652" r="66.244" gradientTransform="matrix(2.2363 -4.0726e-6 3.9456e-7 .29644 -162.7 -452.81)" gradientUnits="userSpaceOnUse" xlink:href="#a"/>
  <radialGradient id="ab" cx="154.65" cy="-2310.2" r="66.244" gradientTransform="matrix(.95514 1.0903e-7 0 .77089 33.762 799.35)" gradientUnits="userSpaceOnUse" xlink:href="#a"/>
  <radialGradient id="aa" cx="158.47" cy="-2139.2" r="66.244" gradientTransform="matrix(1.2593 .00022447 -.00029885 1.6796 -15.884 2750.5)" gradientUnits="userSpaceOnUse" xlink:href="#a"/>
  <radialGradient id="z" cx="177.58" cy="-695.9" r="80.203" gradientTransform="matrix(1.0644 -.0069195 .00095067 .14623 -10.766 -577.73)" gradientUnits="userSpaceOnUse" xlink:href="#b"/>
  <radialGradient id="y" cx="177.33" cy="-418.87" r="80.203" gradientTransform="matrix(1.3965 -.0069195 .00072458 .14623 -69.757 -577.73)" gradientUnits="userSpaceOnUse" xlink:href="#b"/>
  <radialGradient id="x" cx="177.83" cy="-969.13" r="80.203" gradientTransform="matrix(1.0644 -.0069195 .00095067 .14623 -10.766 -577.73)" gradientUnits="userSpaceOnUse" xlink:href="#b"/>
  <radialGradient id="aw" cx="-813.8" cy="-931.85" r="128.44" gradientTransform="matrix(-.89863 .019941 .039103 1.7622 -1722.1 590.28)" gradientUnits="userSpaceOnUse" xlink:href="#b"/>
  <radialGradient id="av" cx="-820.08" cy="-748.45" r="82.007" gradientTransform="matrix(1.2804 -6.2093e-8 5.8587e-7 .18488 2075.2 -664.91)" gradientUnits="userSpaceOnUse" xlink:href="#b"/>
  <radialGradient id="au" cx="-820.08" cy="-748.45" r="82.007" gradientTransform="matrix(1.0764 -5.2364e-8 4.925e-7 .15591 1906.1 -730)" gradientUnits="userSpaceOnUse" xlink:href="#b"/>
  <radialGradient id="at" cx="155.57" cy="-469.58" r="66.244" gradientTransform="matrix(1.355 -3.6795e-6 6.6053e-7 .23884 815.64 -771.89)" gradientUnits="userSpaceOnUse" xlink:href="#a"/>
  <radialGradient id="as" cx="152.9" cy="886.25" r="66.244" gradientTransform="matrix(-1.3757 -3.2715e-6 -1.1384e-6 3.7812 -817.54 -3872.5)" gradientUnits="userSpaceOnUse" xlink:href="#a"/>
  <radialGradient id="ar" cx="154.26" cy="25.652" r="66.244" gradientTransform="matrix(2.2363 -4.0726e-6 3.9456e-7 .29644 682.05 -459.59)" gradientUnits="userSpaceOnUse" xlink:href="#a"/>
  <radialGradient id="w" cx="152.9" cy="886.25" r="66.244" gradientTransform="matrix(-1.3757 -1.1499e-6 -1.1384e-6 1.3291 -1134.7 -1697)" gradientUnits="userSpaceOnUse" xlink:href="#a"/>
  <radialGradient id="v" cx="154.26" cy="25.652" r="66.244" gradientTransform="matrix(2.2363 -4.0726e-6 3.9456e-7 .29644 999.16 -457.25)" gradientUnits="userSpaceOnUse" xlink:href="#a"/>
  <radialGradient id="u" cx="154.65" cy="-2310.2" r="66.244" gradientTransform="matrix(-.95514 1.0903e-7 0 .77089 -1196.2 793.66)" gradientUnits="userSpaceOnUse" xlink:href="#a"/>
  <radialGradient id="t" cx="158.47" cy="-2139.2" r="66.244" gradientTransform="matrix(-1.2593 .00022447 .00029885 1.6796 -1146 2746.1)" gradientUnits="userSpaceOnUse" xlink:href="#a"/>
  <radialGradient id="s" cx="177.33" cy="-418.87" r="80.203" gradientTransform="matrix(1.3965 -.0069195 .00072458 .14623 1092.1 -582.17)" gradientUnits="userSpaceOnUse" xlink:href="#b"/>
  <radialGradient id="r" cx="177.58" cy="-695.9" r="80.203" gradientTransform="matrix(1.0644 -.0069195 .00095067 .14623 1151.1 -582.17)" gradientUnits="userSpaceOnUse" xlink:href="#b"/>
  <radialGradient id="q" cx="177.83" cy="-969.13" r="80.203" gradientTransform="matrix(1.0644 -.0069195 .00095067 .14623 1151.1 -582.17)" gradientUnits="userSpaceOnUse" xlink:href="#b"/>
  <radialGradient id="p" cx="-289.32" cy="-423.35" r="99.436" gradientTransform="matrix(.53785 -.0047435 .00070968 .12896 1790.5 -586.9)" gradientUnits="userSpaceOnUse" xlink:href="#b"/>
  <radialGradient id="o" cx="-289.32" cy="-423.35" r="99.436" gradientTransform="matrix(.74804 -.0072991 .00098703 .19844 1850.5 -606.33)" gradientUnits="userSpaceOnUse" xlink:href="#b"/>
  <radialGradient id="n" cx="-289.32" cy="-423.35" r="99.436" gradientTransform="matrix(1.0472 -.0053114 .0013817 .1444 1936.6 -376.27)" gradientUnits="userSpaceOnUse" xlink:href="#b"/>
  <radialGradient id="m" cx="152.9" cy="886.25" r="66.244" gradientTransform="matrix(-1.4563 -2.1644e-6 -1.8315e-6 2.2525 -1410.1 -2450.1)" gradientUnits="userSpaceOnUse" xlink:href="#a"/>
  <radialGradient id="bz" cx="154.26" cy="25.652" r="66.244" gradientTransform="matrix(2.2363 -4.0726e-6 3.9456e-7 .29644 388.96 -455.32)" gradientUnits="userSpaceOnUse" xlink:href="#a"/>
  <radialGradient id="by" cx="152.9" cy="886.25" r="66.244" gradientTransform="matrix(-1.3757 -3.2715e-6 -1.1384e-6 3.7812 -524.46 -3868.2)" gradientUnits="userSpaceOnUse" xlink:href="#a"/>
  <radialGradient id="bx" cx="155.57" cy="-469.58" r="66.244" gradientTransform="matrix(1.355 -3.6795e-6 6.6053e-7 .23884 522.55 -767.62)" gradientUnits="userSpaceOnUse" xlink:href="#a"/>
  <radialGradient id="bw" cx="-820.08" cy="-748.45" r="82.007" gradientTransform="matrix(1.0764 -5.2364e-8 4.925e-7 .15591 1613 -725.73)" gradientUnits="userSpaceOnUse" xlink:href="#b"/>
  <radialGradient id="bv" cx="-820.08" cy="-748.45" r="82.007" gradientTransform="matrix(1.2804 -6.2093e-8 5.8587e-7 .18488 1782.1 -660.64)" gradientUnits="userSpaceOnUse" xlink:href="#b"/>
  <radialGradient id="bu" cx="-813.8" cy="-931.85" r="128.44" gradientTransform="matrix(-.89863 .019941 .039103 1.7622 -1429 594.55)" gradientUnits="userSpaceOnUse" xlink:href="#b"/>
  <radialGradient id="bt" cx="-822.11" cy="-1076.5" r="62.19" gradientTransform="matrix(-.020654 1.5689 1.0556 .013896 387.74 153.85)" gradientUnits="userSpaceOnUse" xlink:href="#b"/>
  <radialGradient id="bs" cx="154.26" cy="25.652" r="66.244" gradientTransform="matrix(1.9976 -4.0726e-6 3.5245e-7 .29644 1838.5 -418.38)" gradientUnits="userSpaceOnUse" xlink:href="#a"/>
  <radialGradient id="br" cx="154.65" cy="-2310.2" r="66.244" gradientTransform="matrix(-.95514 1.0903e-7 0 .77089 -1986.3 1120.8)" gradientUnits="userSpaceOnUse" xlink:href="#a"/>
  <radialGradient id="bq" cx="-582.55" cy="-496" r="65.009" gradientTransform="matrix(-1.2221 -4.1309e-7 -1.447e-7 .43142 -2844.8 -357.99)" gradientUnits="userSpaceOnUse" xlink:href="#a"/>
  <radialGradient id="bp" cx="152.9" cy="886.25" r="66.244" gradientTransform="matrix(-1.3757 -1.1499e-6 -1.1384e-6 1.3291 -1928.5 -1605.6)" gradientUnits="userSpaceOnUse" xlink:href="#a"/>
  <radialGradient id="bo" cx="-388.36" cy="-695.49" r="25.15" gradientTransform="matrix(2.0617 -2.4662 .92674 1.464 2106.8 -538.41)" gradientUnits="userSpaceOnUse" xlink:href="#b"/>
  <radialGradient id="bn" cx="-388.36" cy="-695.49" r="25.15" gradientTransform="matrix(2.1278 -.76598 .19245 1.1829 1708.8 -222.96)" gradientUnits="userSpaceOnUse" xlink:href="#b"/>
  <radialGradient id="bm" cx="-310.31" cy="-467.07" r="85.877" gradientTransform="matrix(.51786 -1.9234 .79723 .30264 1252.5 -908.28)" gradientUnits="userSpaceOnUse" xlink:href="#a"/>
  <radialGradient id="bl" cx="-395.67" cy="-702.5" r="25.15" gradientTransform="matrix(.87922 .0050912 .0093106 .30224 996.72 -505.86)" gradientUnits="userSpaceOnUse" xlink:href="#b"/>
  <radialGradient id="bk" cx="-334.3" cy="-764.84" r="94.433" gradientTransform="matrix(1.49 -.21479 .029132 .19702 1219.6 -697.67)" gradientUnits="userSpaceOnUse" xlink:href="#a"/>
  <radialGradient id="bj" cx="380.8" cy="-195.18" r="66.244" gradientTransform="matrix(2.0964 .0035624 -.00118 .32193 -73.79 -370.95)" gradientUnits="userSpaceOnUse" xlink:href="#a"/>
  <radialGradient id="bi" cx="-1890.6" cy="-704.36" r="37.579" gradientTransform="matrix(2.1255 .17438 -.048309 .58885 2106 46.972)" gradientUnits="userSpaceOnUse" xlink:href="#h"/>
  <radialGradient id="bh" cx="-1817.4" cy="-512.96" r="38.487" gradientTransform="matrix(.68482 .43252 -.63514 1.0056 -892.97 799.28)" gradientUnits="userSpaceOnUse" xlink:href="#h"/>
  <radialGradient id="bg" cx="-388.36" cy="-695.49" r="25.15" gradientTransform="matrix(-2.0617 -2.4662 -.92674 1.464 -3265.3 -538.51)" gradientUnits="userSpaceOnUse" xlink:href="#b"/>
  <radialGradient id="bf" cx="-388.36" cy="-695.49" r="25.15" gradientTransform="matrix(-2.1278 -.76598 -.19245 1.1829 -2867.2 -223.06)" gradientUnits="userSpaceOnUse" xlink:href="#b"/>
  <radialGradient id="be" cx="-310.31" cy="-467.07" r="85.877" gradientTransform="matrix(-.41624 -2.1593 -.8154 .25271 -2387.9 -1004.9)" gradientUnits="userSpaceOnUse" xlink:href="#a"/>
  <radialGradient id="bd" cx="-395.67" cy="-702.5" r="25.15" gradientTransform="matrix(-.87922 .0050912 -.0093106 .30224 -2155.1 -505.96)" gradientUnits="userSpaceOnUse" xlink:href="#b"/>
  <radialGradient id="bc" cx="-334.3" cy="-764.84" r="94.433" gradientTransform="matrix(-1.49 -.21479 -.029132 .19702 -2378.1 -697.77)" gradientUnits="userSpaceOnUse" xlink:href="#a"/>
  <radialGradient id="bb" cx="380.8" cy="-195.18" r="66.244" gradientTransform="matrix(2.0964 .0035624 -.00118 .32193 1084.6 -371.05)" gradientUnits="userSpaceOnUse" xlink:href="#a"/>
 </defs>
 <g transform="matrix(.31655 0 0 .31655 712.72 370.89)">
  <g transform="translate(745.85 -.62262)">
   <path d="m-359.88-809.31c-3.5382 0-6.375 2.8368-6.375 6.375v95.719c0 3.5382 2.8368 6.375 6.375 6.375h8.2188c-6.5992 5.6547-10.75 14.057-10.75 23.469v5.5625c0 16.331 12.541 29.609 28.562 30.781-3.5337 3.3436-5.8438 8.9283-5.8438 15.281 0 8.5255 4.145 15.68 9.8438 17.875-0.65787 55.716-22.011 108.65-42.781 161.69-8.4478 4.8046-14.125 13.892-14.125 24.344v5.0312c0 9.5096 4.6992 17.889 11.906 22.938h-10.938c-1.9904 0-3.5938 1.6034-3.5938 3.5938v53.844c0 1.9904 1.6034 3.5938 3.5938 3.5938h204.69c1.9904 0 3.5938-1.6034 3.5938-3.5938v-53.844c0-1.9904-1.6034-3.5938-3.5938-3.5938h-15.719c7.2204-5.0476 11.938-13.425 11.938-22.938v-5.0312c0-2.026-0.25098-4.0046-0.65625-5.9062h0.0625c-0.0361-0.07158-0.05771-0.14721-0.09375-0.21875-0.97914-4.4249-2.9872-8.4568-5.7812-11.812-31.082-66.208-35.154-115.92-43.625-168.31 5.4362-2.4138 9.3437-9.3859 9.3438-17.656 0-6.5164-2.4363-12.221-6.125-15.531 14.853-2.257 26.188-15.028 26.188-30.531v-5.5625c0-9.415-4.1781-17.814-10.781-23.469h5.0938c3.5382 0 6.375-2.8368 6.375-6.375v-95.719c0-3.5382-2.8368-6.375-6.375-6.375h-148.62z"/>
   <path d="m-384.16-391.5h201.51v55.006h-201.51z" fill="url(#cb)" opacity=".37627"/>
   <path d="m-324.36-595.71 82.227 2.7855c-3.4675 68.795 48.262 140.24 48.823 146.11l-187.56 0.26875c54.286-76.898 67.014-139.88 56.512-149.17z" fill="url(#l)" opacity=".51525"/>
   <path d="m-350.55-443.48h140.52a29.174 14.359 0 0 1 29.174 14.359 29.174 14.359 0 0 1 -29.174 14.359h-140.52a29.174 14.359 0 0 1 -29.174 -14.359 29.174 14.359 0 0 1 29.174 -14.359" fill="url(#k)" opacity=".51525"/>
   <path d="m-331.25-701.41h100.38a20.841 19.733 0 0 1 20.841 19.733 20.841 19.733 0 0 1 -20.841 19.733h-100.38a20.841 19.733 0 0 1 -20.841 -19.733 20.841 19.733 0 0 1 20.841 -19.733" fill="url(#j)" opacity=".51525"/>
   <path d="m-317.15-646.14h72.177a14.985 12.824 0 0 1 14.985 12.824 14.985 12.824 0 0 1 -14.985 12.824h-72.177a14.985 12.824 0 0 1 -14.985 -12.824 14.985 12.824 0 0 1 14.985 -12.824" fill="url(#i)" opacity=".51525"/>
   <path d="m-361.13-806.03h152.37v97.995h-152.37z" fill="url(#ca)" opacity=".37627"/>
  </g>
  <path d="m790.8-819.65c-13.769 17.61-23.281 8.4427-27.156 18.422s-118.18 21.493-135.62 25.485c-7.5408-1.5533-38.742 28.356-13.562 35.938 8.318 2.5045 11.625 9.9688 11.625 9.9688-5.0233 3.8817-12.061 4.6456-13.562 13.969 0-1e-5 1.6054 13.102 7.75 17.969 8.1426 6.4488 50.352-2.2298 54.25-2 25.577 1.5075 33.836 42.506 28.375 44.375 0-2e-5 -40.249 45.59-59.375 65.406-35.887 37.181-35.456 104.42-1.9375 115.75 15.768 5.3286 9.9677 20.999 8.1875 25h-3.3438c-24.826 7.9028-29.625 17.184-29.156 34.406 0.59366 11.259 3.0042 16.876 18.719 25.219h-16c-4.1729 0-7.5312 3.3584-7.5312 7.5312v41.219c0 4.1729 3.3584 7.5312 7.5312 7.5312h206.78c4.1729 0 7.5313-3.3584 7.5313-7.5312v-41.219c0-4.1729-3.3584-7.5312-7.5313-7.5312h-14.938c10.961-4.1889 18.688-10.73 18.688-24.219 1.4372-20.71-7.9158-31.18-29.156-35.406h-1c-0.6186-9.7073-3.7846-76.608 19.5-170.69 15.324-61.916 19.374-85.829 23.25-93.812s-2.3933-55.885-11.625-71.844c-7.9555-13.752-19.372-46.516-40.688-33.938z" fill-rule="evenodd"/>
  <path d="m639.19-446.31h171.08a16.715 16.715 0 0 1 16.715 16.715 16.715 16.715 0 0 1 -16.715 16.715h-171.08a16.715 16.715 0 0 1 -16.715 -16.715 16.715 16.715 0 0 1 16.715 -16.715" fill="url(#bj)" opacity=".51525"/>
  <path d="m624.52-386.6h198.61a4.255 4.255 0 0 1 4.255 4.255v40.104a4.255 4.255 0 0 1 -4.255 4.255h-198.61a4.255 4.255 0 0 1 -4.255 -4.255v-40.104a4.255 4.255 0 0 1 4.255 -4.255" fill="url(#dj)" opacity=".35593"/>
  <path d="m624.35-774.08s-13.609 9.003-16.286 15.28c-3.346 7.8467 10.875 8.6727 13.384 14.867s7.1103-4.5428 40.989-3.7168 102.89-0.41299 113.77-11.151 37.643-26.844 26.35-38.821-28.701-5.034-38.061-0.41299c-12.548 6.1948-140.98 23.54-140.14 23.953z" fill="url(#bk)" fill-rule="evenodd" opacity=".71186"/>
  <path d="m629.31-730.9s-14.565 4.024-10.446 14.876 16.884 13.289 26.348 10.985 44.431-13.207 40.122-18.85-59.651-7.5616-56.024-7.0107z" fill="url(#bl)" fill-rule="evenodd" opacity=".54576"/>
  <path d="m702.69-612.71c-2.4628-24.363 91.276-42.138 115.72-0.74875-31.115 107.94-31.604 127.57-28.916 167.17h-139.45c-21.721-102.55 68.611-148.1 52.64-166.42z" fill="url(#bm)" opacity=".50847"/>
  <path d="m711.03-792.77s-29.201 13.516-20.943 49.967 33.85 44.637 52.825 36.897 89.079-44.362 80.438-63.316-119.59-25.398-112.32-23.548z" fill="url(#bn)" fill-rule="evenodd" opacity=".21695"/>
  <path d="m741.96-662.81-34.812 6c-5.998 6.7461-51.24 57.636-59.5 66.531-15.975 17.038-27.08 40.156-28.551 63.364 23.205 13.87 47.781 5.7587 60.801-11.177 14.987-19.495 60.518-90.707 62.062-124.72zm-34.812 6 3.5312-3.9688-4.0625 4.0625 0.53125-0.09375z" fill="url(#bo)" fill-rule="evenodd" opacity=".46441"/>
  <g transform="translate(243.13 .82425)">
   <path d="m729.6-699.92c-35.119 0-63.625 28.475-63.625 63.594 0 20.096 9.3409 38.026 23.906 49.688h-1.4062c-1.43 0-32.208 0.10628-32.375 44.406v10.125c0 2.4308 1.9442 4.375 4.375 4.375h30.125c-1.5484 0.82314-2.5938 2.326-2.5938 4.0938 5.4972 34.111-11.495 64.684-43.358 91.929-1.4452 1.4508-1.6977 1.8197-5.7046 4.7585-6.4804 12.896-6.3646 25.792 0 38.688 0 2.2742 1.4395 4.2036 3.4688 4.9062h-3c-2.8727 0-5.1875 2.3148-5.1875 5.1875v38.688c0 2.8727 2.3148 5.1875 5.1875 5.1875h188.72c2.8727 0 5.1875-2.3148 5.1875-5.1875v-38.688c0-2.8727-2.3148-5.1875-5.1875-5.1875h-4.9062c2.0339-0.70013 3.5-2.6287 3.5-4.9062 7.3624-12.896 5.4198-25.792 0-38.688l-5.8523-4.544c-31.787-30.498-47.612-61.645-46.991-92.143 0-1.7677-1.0453-3.2706-2.5938-4.0938h25.219c2.4308 0 4.375-1.9443 4.375-4.375v-10.125c0-40.465-26.798-44.072-31.656-44.375 14.596-11.661 23.969-29.598 23.969-49.719 0-35.119-28.475-63.594-63.594-63.594z"/>
   <path d="m644.08-380.73h180.08v43.577h-180.08z" fill="url(#de)" opacity=".37627"/>
   <path d="m693.36-516.4 74.444-5.651c-3.1393 40.593 56.713 90.202 57.22 93.667h-177.65c49.148-45.374 55.498-82.539 45.989-88.016z" fill="url(#ay)" opacity=".51525"/>
   <path d="m701.71-585.33 67.783-0.18731c2.6714 0 23.424 5.5808 23.424 19.842s-7.8988 23.214-22.16 23.214l-83.049 0.21072c-14.261 0-27.047-9.9515-24.478-23.424 3.3702-17.677 23.797-21.341 38.48-19.655z" fill="url(#az)" opacity=".51525"/>
   <path d="m727.89-690.79c-28.82-0.39755-52.662 30.528-44.906 58.312 5.5464 26.082 36.404 43.35 61.5 33.781 25.544-8.1447 39.853-40.702 27.5-64.781-7.6399-16.628-25.68-28.099-44.094-27.312z" fill="url(#ba)" opacity=".68475"/>
   <path d="m663.95-438.57h155.53a27.061 27.061 0 0 1 27.061 27.061 27.061 27.061 0 0 1 -27.061 27.061h-155.53a27.061 27.061 0 0 1 -27.061 -27.061 27.061 27.061 0 0 1 27.061 -27.061" fill="url(#ax)" opacity=".51525"/>
  </g>
  <path d="m182.64-1016.9c-29.817 0-54.551 24.2-55.211 54.016-0.34292 15.491 5.8861 29.468 16.126 39.321-10.843 10.111-20.153 24.032-27.126 40.553l52.66 59.218-16.873 15.019-43.962-49.437c-3.2153 13.023-5.1146 27.028-5.4377 41.623-0.76376 34.501 7.425 65.746 21.303 88.36-8.9057 2.1678-15.617 10.116-15.828 19.66-0.17425 7.871 4.1248 14.661 10.577 18.018h-5.3506c-11.218 0-20.445 9.0278-20.693 20.245-0.19722 8.913 5.3425 16.444 13.252 19.163h-7.4909c-13.387 0-24.404 10.778-24.7 24.165s10.242 24.165 23.63 24.165h16.45c3.3137 3.3574 16.357 13.711 14.078 37.964-2.4867 26.465-26.325 42.145-32.033 46.463-2.0097 1.7927-2.6535 1.0812-3.2352 2.7624l-1.2568 56.953c-16.858 0.29817-30.634 13.947-31.009 30.872-0.26734 12.075 6.3624 22.489 16.301 27.574h-18.715c-1.527-4e-5 -2.7909 1.223-2.8246 2.75l-1.3688 62.017c-0.03385 1.527 1.1732 2.75 2.7002 2.75h252.19c1.527-4e-5 2.7783-1.223 2.8122-2.75l1.3688-62.017c0.03385-1.527-1.1607-2.75-2.6877-2.75h-20.967c10.163-5.085 17.253-15.499 17.52-27.574 0.36625-16.548-12.215-29.966-28.52-30.834l1.2568-56.99c0.01446-0.65203-0.19479-1.2462-0.55992-1.7172-20.005-15.993-56.386-54.438-29.354-85.025-0.02138-0.15445-0.0606-0.29896-0.11197-0.44796h14.521c13.387 0 24.404-10.778 24.7-24.165s-10.243-24.165-23.63-24.165h-9.7431c8.0274-2.72 13.888-10.251 14.086-19.163 0.24835-11.217-8.5798-20.245-19.797-20.245h-5.3382c6.6003-3.3565 11.199-10.147 11.373-18.018 0.24313-10.985-8.2179-19.861-19.1-20.233 14.668-22.568 24.117-53.573 24.874-87.787 1.0647-48.103-15.312-89.875-40.179-110.75 8.5294-9.5025 13.847-21.938 14.148-35.55 0.65999-29.817-23.005-54.016-52.822-54.016z" stroke="#525252" stroke-width=".19909"/>
  <path d="m127.17-727.14h111.05a10.719 10.719 0 0 1 10.719 10.719 10.719 10.719 0 0 1 -10.719 10.719h-111.05a10.719 10.719 0 0 1 -10.719 -10.719 10.719 10.719 0 0 1 10.719 -10.719" fill="url(#x)" opacity=".51525"/>
  <path d="m114.27-689.85h136.95a11.728 11.728 0 0 1 11.728 11.728 11.728 11.728 0 0 1 -11.728 11.728h-136.95a11.728 11.728 0 0 1 -11.728 -11.728 11.728 11.728 0 0 1 11.728 -11.728" fill="url(#z)" opacity=".51525"/>
  <path d="m96.808-650.72h170.9a13.669 13.669 0 0 1 13.669 13.669 13.669 13.669 0 0 1 -13.669 13.669h-170.9a13.669 13.669 0 0 1 -13.669 -13.669 13.669 13.669 0 0 1 13.669 -13.669" fill="url(#y)" opacity=".51525"/>
  <path d="m207.47-917.72c-14.633 9.8244-34.65 10.378-49.875 1.6875-16.341 10.84-27.153 20.103-34.156 38.062 15.881 17.868 32.56 36.363 48.42 54.249-6.584 5.9297-13.176 11.629-19.809 17.504-12.082-13.484-24.876-27.519-36.924-41.034-5.9302 38.064-0.92117 87.291 20.094 120.06h98.219c23.152-36.408 27.18-82.943 17.535-124.38-6.503-25.817-19.305-52.485-43.129-66.406l-0.375 0.25z" fill="url(#aa)" opacity=".68475"/>
  <path d="m180.37-1011.5c-28.82-0.3975-52.662 30.528-44.906 58.313 5.5464 26.082 36.404 43.35 61.5 33.781 25.544-8.1447 39.853-40.702 27.5-64.781-7.6399-16.628-25.68-28.099-44.094-27.313z" fill="url(#ab)" opacity=".68475"/>
  <path d="m91.982-472.27h180.58a27.061 27.061 0 0 1 27.061 27.061 27.061 27.061 0 0 1 -27.061 27.061h-180.58a27.061 27.061 0 0 1 -27.061 -27.061 27.061 27.061 0 0 1 27.061 -27.061" fill="url(#ac)" opacity=".51525"/>
  <path d="m64.095-397.43h239.27a5.2942 5.2942 0 0 1 5.2942 5.2942v49.899a5.2942 5.2942 0 0 1 -5.2942 5.2942h-239.27a5.2942 5.2942 0 0 1 -5.2942 -5.2942v-49.899a5.2942 5.2942 0 0 1 5.2942 -5.2942" fill="url(#cr)" opacity=".35593"/>
  <path d="m95.588-514.71h180.08v54.347h-180.08z" fill="url(#cs)" opacity=".37627"/>
  <path d="m115.7-602.6 126.14 0.8112c-16.064 43.824 14.708 64.353 32.448 87.204h-177.65c52.379-37.835 35.034-80.385 19.063-88.016z" fill="url(#ad)" opacity=".51525"/>
  <g transform="translate(1817.8 100.23)">
   <path d="m-1952.8-1199.4c-17.067 0-30.906 13.871-30.906 30.938 0 2.144 0.2089 4.2287 0.625 6.25h-99.854c-1.5674 0.3251-1.9937 1.3022-1.5756 2.7618l50.211 175.83h11.906c-2.5441 3.3619-4.119 7.5217-4.2188 12.031-0.1743 7.8709 4.1106 14.644 10.562 18h-5.3437c-11.218-3e-5 -20.439 9.0326-20.688 20.25-0.1973 8.9131 5.3404 16.438 13.25 19.156h-7.5c-13.387 1e-5 -24.391 10.769-24.688 24.156s10.238 24.188 23.625 24.188h16.438c29.589 28.433 9.5353 225.89-17.938 246.41-2.0097 1.7927-2.6683 1.1-3.25 2.7812l-1.25 56.938c-16.858 0.29816-30.626 13.95-31 30.875-0.2674 12.075 6.3429 22.509 16.281 27.594h-18.688c-1.527-3e-5 -2.81 1.223-2.8437 2.75l-1.375 62c-0.0339 1.527 1.1917 2.75 2.7187 2.75h252.19c1.527-4e-5 2.7787-1.223 2.8125-2.75l1.375-62c0.0339-1.527-1.1605-2.75-2.6875-2.75h-20.969c10.163-5.085 17.233-15.519 17.5-27.594 0.3662-16.548-12.195-29.976-28.5-30.844l1.25-56.969c0.0144-0.65203-0.1974-1.2478-0.5625-1.7188-20.005-15.993-56.376-216.44-29.344-247.03-0.0214-0.15446-0.0736-0.2885-0.125-0.4375h14.531c13.387-1e-5 24.391-10.8 24.688-24.188s-10.238-24.156-23.625-24.156h-9.75c8.0274-2.72 13.896-10.245 14.094-19.156 0.2483-11.217-8.5951-20.25-19.812-20.25h-5.3125c6.6003-3.3565 11.201-10.129 11.375-18 0.0999-4.5155-1.2773-8.6692-3.6875-12.031h13.406l50.218-175.86c0.4722-1.7088-0.0285-2.7309-1.9663-2.7386h-101.31c0.416-2.0213 0.6562-4.106 0.6562-6.25 0-17.067-13.87-30.938-30.938-30.938z" stroke="#525252" stroke-width=".19909"/>
   <path d="m-2042.9-573.4h180.58a27.061 27.061 0 0 1 27.061 27.061 27.061 27.061 0 0 1 -27.061 27.061h-180.58a27.061 27.061 0 0 1 -27.061 -27.061 27.061 27.061 0 0 1 27.061 -27.061" fill="url(#aq)" opacity=".51525"/>
   <path d="m-2070.8-498.56h239.27a5.2942 5.2942 0 0 1 5.2942 5.2942v49.899a5.2942 5.2942 0 0 1 -5.2942 5.2942h-239.27a5.2942 5.2942 0 0 1 -5.2942 -5.2942v-49.899a5.2942 5.2942 0 0 1 5.2942 -5.2942" fill="url(#cw)" opacity=".35593"/>
   <path d="m-2039.3-615.84h180.08v54.347h-180.08z" fill="url(#cv)" opacity=".37627"/>
   <path d="m-2019.2-866.11 126.14 2.3078c-16.064 124.68 14.708 183.08 32.448 248.09h-177.65c52.379-107.64 35.034-228.69 19.063-250.4z" fill="url(#ap)" opacity=".51525"/>
   <path d="m-2004.1-997.44h101.74a15.374 15.374 0 0 1 15.374 15.374v7.3417a15.374 15.374 0 0 1 -15.374 15.374h-101.74a15.374 15.374 0 0 1 -15.374 -15.374v-7.3417a15.374 15.374 0 0 1 15.374 -15.374" fill="url(#ao)" opacity=".51525"/>
   <path d="m-2003.7-953.82h99.651a32.182 12.783 0 0 1 32.182 12.783 32.182 12.783 0 0 1 -32.182 12.783h-99.651a32.182 12.783 0 0 1 -32.182 -12.783 32.182 12.783 0 0 1 32.182 -12.783" fill="url(#an)" opacity=".51525"/>
   <path d="m-2011-912.8h118.54a38.283 15.158 0 0 1 38.283 15.158 38.283 15.158 0 0 1 -38.283 15.158h-118.54a38.283 15.158 0 0 1 -38.283 -15.158 38.283 15.158 0 0 1 38.283 -15.158" fill="url(#am)" opacity=".51525"/>
   <path d="m-2080.8-1159.2 256.8-3.2377c-13.442 54.798-33.884 131.38-48.582 172.78l-159.64 0.64756c-6.0749-21.741-50.876-162.68-48.582-170.19z" fill="url(#al)" opacity=".45085"/>
   <path transform="matrix(1.1854 0 0 1.3688 -996.67 169.47)" d="m-831.74-973.42c-0.11693-9.0512 4.6298-17.47 12.435-22.054s17.47-4.6299 25.318-0.11963 12.674 12.884 12.643 21.936" fill="url(#g)" opacity=".45085"/>
  </g>
  <g transform="translate(388.16 -92.41)">
   <path d="m-844.16-1079.1c-2.3922 0-4.3125 1.9203-4.3125 4.3125v28.125h-26.406c-2.658 0-4.8125 2.1233-4.8125 4.7812v41.75c0 2.6581 2.1545 4.8126 4.8125 4.8126h26.406v25.656h-97.906c-1.5673 0.3251-2.0119 1.2904-1.5938 2.75l50.219 175.84h11.906c-2.5441 3.3619-4.119 7.5217-4.2188 12.031-0.17426 7.8709 4.1106 14.644 10.562 18h-5.3438c-11.218-3e-5 -20.439 9.0326-20.688 20.25-0.19721 8.9131 5.3404 16.438 13.25 19.156h-7.5c-13.387 1e-5 -24.391 10.769-24.688 24.156s10.238 24.188 23.625 24.188h16.438c29.589 28.433 9.5354 225.89-17.938 246.41-2.0097 1.7927-2.6683 1.1-3.25 2.7812l-1.25 56.938c-16.858 0.29816-30.625 13.95-31 30.875-0.26733 12.075 6.343 22.509 16.281 27.594h-18.688c-1.527-3e-5 -2.81 1.223-2.8438 2.75l-1.375 62c-0.03386 1.527 1.1918 2.75 2.7188 2.75h252.19c1.527-4e-5 2.7787-1.223 2.8125-2.75l1.375-62c0.03386-1.527-1.1605-2.75-2.6875-2.75h-20.969c10.163-5.085 17.233-15.519 17.5-27.594 0.36628-16.548-12.195-29.976-28.5-30.844l1.25-56.969c0.01448-0.65203-0.19737-1.2478-0.5625-1.7188-20.005-15.993-56.376-216.44-29.344-247.03-0.02136-0.15446-0.07363-0.2885-0.125-0.4375h14.531c13.387-1e-5 24.391-10.8 24.688-24.188s-10.238-24.156-23.625-24.156h-9.75c8.0274-2.72 13.896-10.245 14.094-19.156 0.24832-11.217-8.5951-20.25-19.812-20.25h-5.3125c6.6003-3.3565 11.201-10.129 11.375-18 0.09994-4.5155-1.2773-8.6692-3.6875-12.031h13.406l50.219-175.84c0.47217-1.7088-0.03088-2.7424-1.9688-2.75h-99.75v-25.656h27.656c2.658 0 4.7813-2.1544 4.7812-4.8126v-41.75c0-2.658-2.1232-4.7812-4.7812-4.7812h-27.656v-28.125c0-2.3922-1.9203-4.3125-4.3125-4.3125h-55.438z" stroke="#525252" stroke-width=".19909"/>
   <path d="m-906.38-380.76h180.58a27.061 27.061 0 0 1 27.061 27.061 27.061 27.061 0 0 1 -27.061 27.061h-180.58a27.061 27.061 0 0 1 -27.061 -27.061 27.061 27.061 0 0 1 27.061 -27.061" fill="url(#ak)" opacity=".51525"/>
   <path d="m-934.26-305.92h239.27a5.2942 5.2942 0 0 1 5.2942 5.2942v49.899a5.2942 5.2942 0 0 1 -5.2942 5.2942h-239.27a5.2942 5.2942 0 0 1 -5.2942 -5.2942v-49.899a5.2942 5.2942 0 0 1 5.2942 -5.2942" fill="url(#cu)" opacity=".35593"/>
   <path d="m-902.77-423.2h180.08v54.347h-180.08z" fill="url(#ct)" opacity=".37627"/>
   <path d="m-882.66-673.47 126.14 2.3078c-16.064 124.68 14.708 183.08 32.448 248.09h-177.65c52.379-107.64 35.034-228.69 19.063-250.4z" fill="url(#aj)" opacity=".51525"/>
   <path d="m-867.52-804.8h101.74a15.374 15.374 0 0 1 15.374 15.374v7.3417a15.374 15.374 0 0 1 -15.374 15.374h-101.74a15.374 15.374 0 0 1 -15.374 -15.374v-7.3417a15.374 15.374 0 0 1 15.374 -15.374" fill="url(#ai)" opacity=".51525"/>
   <path d="m-867.13-761.19h99.651a32.182 12.783 0 0 1 32.182 12.783 32.182 12.783 0 0 1 -32.182 12.783h-99.651a32.182 12.783 0 0 1 -32.182 -12.783 32.182 12.783 0 0 1 32.182 -12.783" fill="url(#ah)" opacity=".51525"/>
   <path d="m-874.41-720.16h118.54a38.283 15.158 0 0 1 38.283 15.158 38.283 15.158 0 0 1 -38.283 15.158h-118.54a38.283 15.158 0 0 1 -38.283 -15.158 38.283 15.158 0 0 1 38.283 -15.158" fill="url(#ag)" opacity=".51525"/>
   <path d="m-944.22-966.53 256.8-1.105c-13.442 54.798-33.884 129.78-48.582 171.19l-159.64 0.11438c-6.0749-21.741-50.876-162.68-48.582-170.19z" fill="url(#af)" opacity=".45085"/>
   <path d="m-791.26-1077.8c-17.625 0.8978-35.403 0.2853-53.094 0.3438-3.1003 0.3858-2.2408 6.0148-2.0312 11.438 2e-5 6.9895 0 13.979 0 20.969-9.8462 0.2389-19.872-0.445-29.625 0.2813-2.4184 1.743-2.117 8.8387-1.5938 12.625 0.40998 11.018-0.7583 22.372 0.46875 33.219-2.6888 3.4161 30.379 0.64802 30.75 2.1524 0.30872 9.0363-0.45086 19.362 0.09375 28.348l59.717-0.26659c0.08746-9.6683 0.25193-19.319 0.25193-29.015 10.375-0.45008 21.122 0.8268 31.312-0.5 3.0496-4.0997 0.08422-10.589 1.125-15.437-0.23516-9.9198 0.44001-20.017-0.28125-29.844 0.81982-2.6019-20.832-1.2959-32.156-1.5625-0.32872-10.412 0.60701-21.106-0.375-31.375-1.248-1.1091-2.8566-1.4024-4.5625-1.375z" fill="url(#ae)" opacity=".45085"/>
  </g>
  <g transform="translate(0 1.7041)">
   <path d="m-705.86-1173.1c2.3922 0 4.3125 1.9203 4.3125 4.3125v28.125h26.406c2.658 0 4.8125 2.1233 4.8125 4.7812v41.75c0 2.6582-2.1545 4.8126-4.8125 4.8126h-26.406v25.656h97.906c1.5673 0.3251 2.0119 1.2904 1.5938 2.75l-50.219 175.84h-11.906c2.5441 3.3619 4.119 7.5217 4.2188 12.031 0.17426 7.8709-4.1106 14.644-10.562 18h5.3438c11.218-3e-5 20.439 9.0326 20.688 20.25 0.19721 8.9131-5.3404 16.438-13.25 19.156h7.5c13.387 1e-5 24.391 10.769 24.688 24.156s-10.238 24.188-23.625 24.188h-16.438c-29.589 28.433-9.5354 225.89 17.938 246.41 2.0097 1.7927 2.6683 1.1 3.25 2.7812l1.25 56.938c16.858 0.29816 30.625 13.95 31 30.875 0.26733 12.075-6.343 22.509-16.281 27.594h18.688c1.527-3e-5 2.81 1.223 2.8438 2.75l1.375 62c0.03386 1.527-1.1918 2.75-2.7188 2.75h-252.19c-1.527-4e-5 -2.7787-1.223-2.8125-2.75l-1.375-62c-0.03386-1.527 1.1605-2.75 2.6875-2.75h20.969c-10.163-5.085-17.233-15.519-17.5-27.594-0.36628-16.548 12.195-29.976 28.5-30.844l-1.25-56.969c-0.01448-0.65203 0.19737-1.2478 0.5625-1.7188 20.005-15.993 56.376-216.44 29.344-247.03 0.02136-0.15446 0.07363-0.2885 0.125-0.4375h-14.531c-13.387-1e-5 -24.391-10.8-24.688-24.188s10.238-24.156 23.625-24.156h9.75c-8.0274-2.72-13.896-10.245-14.094-19.156-0.24832-11.217 8.5951-20.25 19.812-20.25h5.3125c-6.6003-3.3565-11.201-10.129-11.375-18-0.09994-4.5155 1.2773-8.6692 3.6875-12.031h-13.406l-50.219-175.84c-0.47217-1.7088 0.03088-2.7423 1.9688-2.75h99.75v-25.656h-27.656c-2.658 0-4.7813-2.1544-4.7812-4.8126v-41.75c0-2.658 2.1232-4.7812 4.7812-4.7812h27.656v-28.125c0-2.3922 1.9203-4.3125 4.3125-4.3125h55.438z" fill="url(#dv)" stroke="#525252" stroke-width=".19909"/>
   <path d="m-811.79-816.02h158.21a27.866 21.673 0 0 1 27.866 21.673v5.8826a27.866 21.673 0 0 1 -27.866 21.673h-158.21a27.866 21.673 0 0 1 -27.866 -21.673v-5.8826a27.866 21.673 0 0 1 27.866 -21.673" fill="url(#du)" opacity=".51525"/>
   <path transform="scale(-1,1)" d="m643.64-474.78h180.58a27.061 27.061 0 0 1 27.061 27.061 27.061 27.061 0 0 1 -27.061 27.061h-180.58a27.061 27.061 0 0 1 -27.061 -27.061 27.061 27.061 0 0 1 27.061 -27.061" fill="url(#bz)" opacity=".51525"/>
   <path transform="scale(-1,1)" d="m615.75-399.94h239.27a5.2942 5.2942 0 0 1 5.2942 5.2942v49.899a5.2942 5.2942 0 0 1 -5.2942 5.2942h-239.27a5.2942 5.2942 0 0 1 -5.2942 -5.2942v-49.899a5.2942 5.2942 0 0 1 5.2942 -5.2942" fill="url(#dt)" opacity=".35593"/>
   <path transform="scale(-1,1)" d="m647.24-517.22h180.08v54.347h-180.08z" fill="url(#ds)" opacity=".37627"/>
   <path d="m-667.35-767.49-126.14 2.3078c16.064 124.68-14.708 183.08-32.448 248.09h177.65c-52.379-107.64-35.034-228.69-19.063-250.4z" fill="url(#by)" opacity=".51525"/>
   <path transform="scale(-1,1)" d="m682.49-898.82h101.74a15.374 15.374 0 0 1 15.374 15.374v7.3417a15.374 15.374 0 0 1 -15.374 15.374h-101.74a15.374 15.374 0 0 1 -15.374 -15.374v-7.3417a15.374 15.374 0 0 1 15.374 -15.374" fill="url(#bx)" opacity=".51525"/>
   <path transform="scale(-1,1)" d="m682.88-855.2h99.651a32.182 12.783 0 0 1 32.182 12.783 32.182 12.783 0 0 1 -32.182 12.783h-99.651a32.182 12.783 0 0 1 -32.182 -12.783 32.182 12.783 0 0 1 32.182 -12.783" fill="url(#bw)" opacity=".51525"/>
   <path d="m-797.59-859.71h130.6a23.003 20.274 0 0 1 23.003 20.274v5.5029a23.003 20.274 0 0 1 -23.003 20.274h-130.6a23.003 20.274 0 0 1 -23.003 -20.274v-5.5029a23.003 20.274 0 0 1 23.003 -20.274" fill="url(#dr)" opacity=".51525"/>
   <path transform="scale(-1,1)" d="m675.6-814.17h118.54a38.283 15.158 0 0 1 38.283 15.158 38.283 15.158 0 0 1 -38.283 15.158h-118.54a38.283 15.158 0 0 1 -38.283 -15.158 38.283 15.158 0 0 1 38.283 -15.158" fill="url(#bv)" opacity=".51525"/>
   <path d="m-605.79-1060.5-256.8-1.105c13.442 54.798 33.884 129.78 48.582 171.19l159.64 0.11438c6.0749-21.741 50.876-162.68 48.582-170.19z" fill="url(#bu)" opacity=".45085"/>
   <path d="m-758.75-1171.8c17.625 0.8978 35.403 0.2853 53.094 0.3438 3.1003 0.3858 2.2408 6.0148 2.0312 11.438-2e-5 6.9895 0 13.979 0 20.969 9.8462 0.2389 19.872-0.445 29.625 0.2813 2.4184 1.743 2.117 8.8387 1.5938 12.625-0.40998 11.018 0.7583 22.372-0.46875 33.219 2.6888 3.416-30.379 0.648-30.75 2.1523-0.30872 9.0363 0.45086 19.362-0.09375 28.348l-59.717-0.2666c-0.08746-9.6683-0.25193-19.319-0.25193-29.015-10.375-0.4501-21.122 0.8268-31.312-0.5-3.0496-4.0997-0.08422-10.589-1.125-15.438 0.23516-9.9198-0.44001-20.017 0.28125-29.844-0.81982-2.6019 20.832-1.2959 32.156-1.5625 0.32872-10.412-0.60701-21.106 0.375-31.375 1.248-1.1091 2.8566-1.4024 4.5625-1.375z" fill="url(#bt)" opacity=".45085"/>
   <path d="m-787.22-897.84h108.28a19.071 19.575 0 0 1 19.071 19.575v5.3131a19.071 19.575 0 0 1 -19.071 19.575h-108.28a19.071 19.575 0 0 1 -19.071 -19.575v-5.3131a19.071 19.575 0 0 1 19.071 -19.575" fill="url(#dq)" opacity=".51525"/>
   <path d="m-832.9-451.73h198.84a21.056 21.673 0 0 1 21.056 21.673v5.8826a21.056 21.673 0 0 1 -21.056 21.673h-198.84a21.056 21.673 0 0 1 -21.056 -21.673v-5.8826a21.056 21.673 0 0 1 21.056 -21.673" fill="url(#dp)" opacity=".51525"/>
  </g>
  <g transform="translate(0 5.964)">
   <path d="m-1026.8-1105.1c17.067 0 30.906 13.871 30.906 30.938 0 2.144-0.2089 4.2287-0.625 6.25h99.854c1.5674 0.3251 1.9937 1.3022 1.5756 2.7618l-50.211 175.83h-11.906c2.5441 3.3619 4.119 7.5217 4.2188 12.031 0.1743 7.8709-4.1106 14.644-10.562 18h5.3437c11.218-3e-5 20.439 9.0326 20.688 20.25 0.1973 8.9131-5.3404 16.438-13.25 19.156h7.5c13.387 1e-5 24.391 10.769 24.688 24.156s-10.238 24.188-23.625 24.188h-16.438c-29.589 28.433-9.5353 225.89 17.938 246.41 2.0097 1.7927 2.6683 1.1 3.25 2.7812l1.25 56.938c16.858 0.29816 30.626 13.95 31 30.875 0.2674 12.075-6.3429 22.509-16.281 27.594h18.688c1.527-3e-5 2.81 1.223 2.8437 2.75l1.375 62c0.0339 1.527-1.1917 2.75-2.7187 2.75h-252.19c-1.527-4e-5 -2.7787-1.223-2.8125-2.75l-1.375-62c-0.0339-1.527 1.1605-2.75 2.6875-2.75h20.969c-10.163-5.085-17.233-15.519-17.5-27.594-0.3662-16.548 12.195-29.976 28.5-30.844l-1.25-56.969c-0.0144-0.65203 0.1974-1.2478 0.5625-1.7188 20.005-15.993 56.376-216.44 29.344-247.03 0.0214-0.15446 0.0736-0.2885 0.125-0.4375h-14.531c-13.387-1e-5 -24.391-10.8-24.688-24.188s10.238-24.156 23.625-24.156h9.75c-8.0274-2.72-13.896-10.245-14.094-19.156-0.2483-11.217 8.5951-20.25 19.812-20.25h5.3125c-6.6003-3.3565-11.201-10.129-11.375-18-0.0999-4.5155 1.2773-8.6692 3.6875-12.031h-13.406l-50.218-175.86c-0.4722-1.7088 0.0285-2.7309 1.9663-2.7386h101.31c-0.416-2.0213-0.6562-4.106-0.6562-6.25 0-17.067 13.87-30.938 30.938-30.938z" fill="url(#db)" stroke="#525252" stroke-width=".19909"/>
   <path transform="scale(-1,1)" d="m936.72-479.04h180.58a27.061 27.061 0 0 1 27.061 27.061 27.061 27.061 0 0 1 -27.061 27.061h-180.58a27.061 27.061 0 0 1 -27.061 -27.061 27.061 27.061 0 0 1 27.061 -27.061" fill="url(#ar)" opacity=".51525"/>
   <path transform="scale(-1,1)" d="m908.84-404.2h239.27a5.2942 5.2942 0 0 1 5.2942 5.2942v49.899a5.2942 5.2942 0 0 1 -5.2942 5.2942h-239.27a5.2942 5.2942 0 0 1 -5.2942 -5.2942v-49.899a5.2942 5.2942 0 0 1 5.2942 -5.2942" fill="url(#dc)" opacity=".35593"/>
   <path transform="scale(-1,1)" d="m940.33-521.48h180.08v54.347h-180.08z" fill="url(#dd)" opacity=".37627"/>
   <path d="m-960.44-771.75-126.14 2.3078c16.064 124.68-14.708 183.08-32.448 248.09h177.65c-52.379-107.64-35.034-228.69-19.063-250.4z" fill="url(#as)" opacity=".51525"/>
   <path transform="scale(-1,1)" d="m975.57-903.09h101.74a15.374 15.374 0 0 1 15.374 15.374v7.3417a15.374 15.374 0 0 1 -15.374 15.374h-101.74a15.374 15.374 0 0 1 -15.374 -15.374v-7.3417a15.374 15.374 0 0 1 15.374 -15.374" fill="url(#at)" opacity=".51525"/>
   <path transform="scale(-1,1)" d="m975.97-859.47h99.651a32.182 12.783 0 0 1 32.182 12.783 32.182 12.783 0 0 1 -32.182 12.783h-99.651a32.182 12.783 0 0 1 -32.182 -12.783 32.182 12.783 0 0 1 32.182 -12.783" fill="url(#au)" opacity=".51525"/>
   <path transform="scale(-1,1)" d="m968.68-818.44h118.54a38.283 15.158 0 0 1 38.283 15.158 38.283 15.158 0 0 1 -38.283 15.158h-118.54a38.283 15.158 0 0 1 -38.283 -15.158 38.283 15.158 0 0 1 38.283 -15.158" fill="url(#av)" opacity=".51525"/>
   <path d="m-898.88-1064.8-256.8-3.2377c13.442 54.798 33.884 131.38 48.582 172.78l159.64 0.64756c6.0749-21.741 50.876-162.68 48.582-170.19z" fill="url(#aw)" opacity=".45085"/>
   <path transform="matrix(-1.1854 0 0 1.3688 -1983 263.83)" d="m-831.74-973.42c-0.11693-9.0512 4.6298-17.47 12.435-22.054s17.47-4.6299 25.318-0.11963 12.674 12.884 12.643 21.936" fill="url(#g)" opacity=".45085"/>
   <path d="m-1127.3-457.34h200.99a19.264 24.592 0 0 1 19.264 24.592v2.6019a19.264 24.592 0 0 1 -19.264 24.592h-200.99a19.264 24.592 0 0 1 -19.264 -24.592v-2.6019a19.264 24.592 0 0 1 19.264 -24.592" fill="url(#da)" opacity=".51525"/>
   <path d="m-1105.2-820.47h158.21a27.866 21.673 0 0 1 27.866 21.673v5.8826a27.866 21.673 0 0 1 -27.866 21.673h-158.21a27.866 21.673 0 0 1 -27.866 -21.673v-5.8826a27.866 21.673 0 0 1 27.866 -21.673" fill="url(#cz)" opacity=".51525"/>
   <path d="m-1097.6-863.21h143.74a15.319 16.787 0 0 1 15.319 16.787v9.6897a15.319 16.787 0 0 1 -15.319 16.787h-143.74a15.319 16.787 0 0 1 -15.319 -16.787v-9.6897a15.319 16.787 0 0 1 15.319 -16.787" fill="url(#cy)" opacity=".51525"/>
   <path d="m-1085.9-890.33h119.34a12.718 14.989 0 0 1 12.718 14.989v1.0803a12.718 14.989 0 0 1 -12.718 14.989h-119.34a12.718 14.989 0 0 1 -12.718 -14.989v-1.0803a12.718 14.989 0 0 1 12.718 -14.989" fill="url(#cx)" opacity=".51525"/>
  </g>
  <g transform="translate(6.8825 3.6339)">
   <path d="m-1344.5-1021.3c29.817 0 54.551 24.2 55.211 54.016 0.3429 15.491-5.8861 29.468-16.126 39.321 10.843 10.111 20.153 24.032 27.126 40.553l-52.66 59.218 16.873 15.019 43.962-49.437c3.2154 13.023 5.1147 27.028 5.4377 41.623 0.7638 34.501-7.425 65.746-21.303 88.36 8.9057 2.1678 15.617 10.116 15.828 19.66 0.1742 7.871-4.1249 14.661-10.577 18.018h5.3506c11.218 0 20.445 9.0278 20.693 20.245 0.1972 8.913-5.3425 16.444-13.252 19.163h7.4908c13.387 0 24.404 10.778 24.7 24.165s-10.242 24.165-23.63 24.165h-16.45c-3.3137 3.3574-16.357 13.711-14.078 37.964 2.4868 26.465 26.326 42.145 32.033 46.463 2.0097 1.7927 2.6535 1.0812 3.2353 2.7624l1.2567 56.953c16.858 0.29817 30.634 13.947 31.009 30.872 0.2673 12.075-6.3624 22.489-16.301 27.574h18.715c1.527-4e-5 2.7908 1.223 2.8246 2.75l1.3688 62.017c0.0338 1.527-1.1732 2.75-2.7002 2.75h-252.19c-1.527-4e-5 -2.7784-1.223-2.8122-2.75l-1.3688-62.017c-0.0338-1.527 1.1607-2.75 2.6877-2.75h20.967c-10.163-5.085-17.253-15.499-17.52-27.574-0.3662-16.548 12.215-29.966 28.52-30.834l-1.2567-56.99c-0.0145-0.65203 0.1948-1.2462 0.5599-1.7172 20.005-15.993 56.386-54.438 29.354-85.025 0.0214-0.15445 0.0606-0.29896 0.112-0.44796h-14.521c-13.387 0-24.404-10.778-24.7-24.165s10.242-24.165 23.63-24.165h9.743c-8.0274-2.72-13.888-10.251-14.086-19.163-0.2483-11.217 8.5799-20.245 19.797-20.245h5.3382c-6.6003-3.3565-11.199-10.147-11.373-18.018-0.2431-10.985 8.2179-19.861 19.1-20.233-14.668-22.568-24.117-53.573-24.874-87.787-1.0646-48.103 15.312-89.875 40.179-110.75-8.5294-9.5025-13.847-21.938-14.148-35.55-0.66-29.817 23.005-54.016 52.822-54.016z" fill="url(#cj)" stroke="#525252" stroke-width=".19909"/>
   <path transform="scale(-1,1)" d="m1289-731.58h111.05a10.719 10.719 0 0 1 10.719 10.719 10.719 10.719 0 0 1 -10.719 10.719h-111.05a10.719 10.719 0 0 1 -10.719 -10.719 10.719 10.719 0 0 1 10.719 -10.719" fill="url(#q)" opacity=".51525"/>
   <path transform="scale(-1,1)" d="m1276.1-694.29h136.95a11.728 11.728 0 0 1 11.728 11.728 11.728 11.728 0 0 1 -11.728 11.728h-136.95a11.728 11.728 0 0 1 -11.728 -11.728 11.728 11.728 0 0 1 11.728 -11.728" fill="url(#r)" opacity=".51525"/>
   <path transform="scale(-1,1)" d="m1258.7-655.16h170.9a13.669 13.669 0 0 1 13.669 13.669 13.669 13.669 0 0 1 -13.669 13.669h-170.9a13.669 13.669 0 0 1 -13.669 -13.669 13.669 13.669 0 0 1 13.669 -13.669" fill="url(#s)" opacity=".51525"/>
   <path d="m-1369.3-922.16c15.254-0.65865 34.65-3.341 49.875 1.6875 16.341 10.84 27.153 20.103 34.156 38.062-15.881 17.868-32.56 36.363-48.42 54.249 6.5839 5.9297 13.176 11.629 19.809 17.504 12.082-13.484 24.876-27.519 36.924-41.034 5.9302 38.064 0.9212 87.291-20.094 120.06h-98.219c-23.152-36.408-27.18-82.943-17.535-124.38 6.503-25.817 19.305-52.485 43.129-66.406l0.375 0.25z" fill="url(#t)" opacity=".68475"/>
   <path d="m-1342.8-1017.2c28.82-0.3975 52.662 30.528 44.906 58.312-5.5464 26.082-36.404 43.35-61.5 33.781-25.544-8.1447-39.853-40.702-27.5-64.781 7.6398-16.628 25.68-28.099 44.094-27.312z" fill="url(#u)" opacity=".68475"/>
   <path transform="scale(-1,1)" d="m1253.8-476.71h180.58a27.061 27.061 0 0 1 27.061 27.061 27.061 27.061 0 0 1 -27.061 27.061h-180.58a27.061 27.061 0 0 1 -27.061 -27.061 27.061 27.061 0 0 1 27.061 -27.061" fill="url(#v)" opacity=".51525"/>
   <path transform="scale(-1,1)" d="m1225.9-401.87h239.27a5.2942 5.2942 0 0 1 5.2942 5.2942v49.899a5.2942 5.2942 0 0 1 -5.2942 5.2942h-239.27a5.2942 5.2942 0 0 1 -5.2942 -5.2942v-49.899a5.2942 5.2942 0 0 1 5.2942 -5.2942" fill="url(#ck)" opacity=".35593"/>
   <path transform="scale(-1,1)" d="m1257.4-519.15h180.08v54.347h-180.08z" fill="url(#cl)" opacity=".37627"/>
   <path d="m-1277.6-607.04-126.14 0.8112c16.064 43.824-14.708 64.353-32.448 87.204h177.65c-52.379-37.835-35.034-80.385-19.063-88.016z" fill="url(#w)" opacity=".51525"/>
   <path d="m-1422.7-655.47h158.21a27.866 21.673 0 0 1 27.866 21.673v5.8826a27.866 21.673 0 0 1 -27.866 21.673h-158.21a27.866 21.673 0 0 1 -27.866 -21.673v-5.8826a27.866 21.673 0 0 1 27.866 -21.673" fill="url(#cm)" opacity=".51525"/>
   <path d="m-1367.8-945.94c-8.9075 0-16.781 2.0418-21.875 5.25 1.8886 3.2044 4.0903 6.2145 6.5625 8.9688-3.2044 2.6894-6.2529 5.7414-9.1562 9.0938 4.7173 4.2944 13.879 7.1875 24.469 7.1875h47.844c8.7753 0 16.587-1.9985 21.688-5.125-2.277-2.6493-4.6521-5.1295-7.0938-7.4062 3.5151-3.382 6.5338-7.2517 9-11.5-4.9205-3.8896-13.617-6.4688-23.594-6.4688h-47.844z" fill="url(#cn)" opacity=".51525"/>
   <path d="m-1408-701.57h130.29a22.947 18.505 0 0 1 22.947 18.505v10.384a22.947 18.505 0 0 1 -22.947 18.505h-130.29a22.947 18.505 0 0 1 -22.947 -18.505v-10.384a22.947 18.505 0 0 1 22.947 -18.505" fill="url(#co)" opacity=".51525"/>
   <path d="m-1397.9-739.86h108.95a19.19 17.73 0 0 1 19.19 17.73v10.621a19.19 17.73 0 0 1 -19.19 17.73h-108.95a19.19 17.73 0 0 1 -19.19 -17.73v-10.621a19.19 17.73 0 0 1 19.19 -17.73" fill="url(#cp)" opacity=".51525"/>
   <path d="m-1442.1-452.56h193.54a25.468 24.614 0 0 1 25.468 24.614 25.468 24.614 0 0 1 -25.468 24.614h-193.54a25.468 24.614 0 0 1 -25.468 -24.614 25.468 24.614 0 0 1 25.468 -24.614" fill="url(#cq)" opacity=".51525"/>
  </g>
  <g transform="translate(6.8825 6.5495)">
   <path d="m-1558.2-816.58c3.5382 0 6.375 2.8368 6.375 6.375v95.719c0 3.5382-2.8368 6.375-6.375 6.375h-8.2188c6.5992 5.6547 10.75 14.057 10.75 23.469v5.5625c0 16.331-12.541 29.609-28.562 30.781 3.5337 3.3436 5.8438 8.9283 5.8438 15.281 0 8.5255-4.1451 15.68-9.8438 17.875 0.6579 55.716 22.011 108.65 42.781 161.69 8.4478 4.8046 14.125 13.892 14.125 24.344v5.0312c0 9.5096-4.6992 17.889-11.906 22.938h10.938c1.9904 0 3.5938 1.6034 3.5938 3.5938v53.844c0 1.9904-1.6034 3.5938-3.5938 3.5938h-204.69c-1.9903 0-3.5937-1.6034-3.5937-3.5938v-53.844c0-1.9904 1.6034-3.5938 3.5937-3.5938h15.719c-7.2204-5.0476-11.938-13.425-11.938-22.938v-5.0312c0-2.026 0.251-4.0046 0.6562-5.9062h-0.0625c0.0361-0.07158 0.0578-0.14721 0.0938-0.21875 0.9791-4.4249 2.9871-8.4568 5.7812-11.812 31.082-66.208 35.154-115.92 43.625-168.31-5.4361-2.4138-9.3437-9.3859-9.3437-17.656 0-6.5164 2.4363-12.221 6.125-15.531-14.853-2.257-26.188-15.028-26.188-30.531v-5.5625c0-9.415 4.1781-17.814 10.781-23.469h-5.0937c-3.5382 0-6.375-2.8368-6.375-6.375v-95.719c0-3.5382 2.8368-6.375 6.375-6.375h148.62z" fill="url(#cc)" stroke="#525252" stroke-width=".19909"/>
   <path transform="scale(-1,1)" d="m1533.9-398.77h201.51v55.006h-201.51z" fill="url(#cd)" opacity=".37627"/>
   <path d="m-1593.7-602.99-82.227 2.7855c3.4675 68.795-48.262 140.24-48.822 146.11l187.56 0.26875c-54.286-76.898-67.014-139.88-56.512-149.17z" fill="url(#m)" opacity=".51525"/>
   <path transform="scale(-1,1)" d="m1567.5-450.75h140.52a29.174 14.359 0 0 1 29.174 14.359 29.174 14.359 0 0 1 -29.174 14.359h-140.52a29.174 14.359 0 0 1 -29.174 -14.359 29.174 14.359 0 0 1 29.174 -14.359" fill="url(#n)" opacity=".51525"/>
   <path transform="scale(-1,1)" d="m1586.8-708.69h100.38a20.841 19.733 0 0 1 20.841 19.733 20.841 19.733 0 0 1 -20.841 19.733h-100.38a20.841 19.733 0 0 1 -20.841 -19.733 20.841 19.733 0 0 1 20.841 -19.733" fill="url(#o)" opacity=".51525"/>
   <path transform="scale(-1,1)" d="m1600.9-653.41h72.177a14.985 12.824 0 0 1 14.985 12.824 14.985 12.824 0 0 1 -14.985 12.824h-72.177a14.985 12.824 0 0 1 -14.985 -12.824 14.985 12.824 0 0 1 14.985 -12.824" fill="url(#p)" opacity=".51525"/>
   <path transform="scale(-1,1)" d="m1556.9-813.3h152.37v97.995h-152.37z" fill="url(#ce)" opacity=".37627"/>
   <path d="m-1670-722.82c-14.652 0-30.55 9.9033-38.929 13.111 3.1065 3.2044 3.7799-0.2712 7.8463 1.3039-5.2708 2.6894-4.5856 5.1518-7.1992 8.7007 7.7593 4.2944 20.864 7.384 38.282 7.384h78.697c14.434 0 24.335-1.6054 32.725-4.7319-2.5662-4.2216-4.7041-8.8637-8.7204-11.14 6.568-0.43392 9.3715 1.9855 13.428-2.2628-8.0935-3.8896-21.022-12.365-37.433-12.365h-78.697z" fill="url(#cf)" opacity=".51525"/>
   <path d="m-1681-697.79h94.687a28.556 24.015 0 0 1 28.556 24.015v1.1982a28.556 24.015 0 0 1 -28.556 24.015h-94.687a28.556 24.015 0 0 1 -28.556 -24.015v-1.1982a28.556 24.015 0 0 1 28.556 -24.015" fill="url(#cg)" opacity=".51525"/>
   <path d="m-1679.8-643.02h88.817a11.363 14.074 0 0 1 11.363 14.074 11.363 14.074 0 0 1 -11.363 14.074h-88.817a11.363 14.074 0 0 1 -11.363 -14.074 11.363 14.074 0 0 1 11.363 -14.074" fill="url(#ch)" opacity=".51525"/>
   <path d="m-1713.8-427.56h164.19a14.378 14.074 0 0 1 14.378 14.074 14.378 14.074 0 0 1 -14.378 14.074h-164.19a14.378 14.074 0 0 1 -14.378 -14.074 14.378 14.074 0 0 1 14.378 -14.074" fill="url(#ci)" opacity=".51525"/>
  </g>
  <path d="m-1949.2-819.75c13.769 17.61 23.281 8.4427 27.156 18.422s118.18 21.493 135.62 25.485c7.5408-1.5533 38.742 28.356 13.562 35.938-8.318 2.5045-11.625 9.9688-11.625 9.9688 5.0233 3.8817 12.062 4.6456 13.562 13.969 0-1e-5 -1.6054 13.102-7.75 17.969-8.1426 6.4488-50.352-2.2298-54.25-2-25.577 1.5075-33.836 42.506-28.375 44.375 0-2e-5 40.249 45.59 59.375 65.406 35.887 37.181 35.456 104.42 1.9375 115.75-15.768 5.3286-9.9677 20.999-8.1875 25h3.3438c24.826 7.9028 29.625 17.184 29.156 34.406-0.5937 11.259-3.0042 16.876-18.719 25.219h16c4.1728 0 7.5312 3.3584 7.5312 7.5312v41.219c0 4.1729-3.3584 7.5312-7.5312 7.5312h-206.78c-4.1729 0-7.5313-3.3584-7.5313-7.5312v-41.219c0-4.1729 3.3584-7.5312 7.5313-7.5312h14.938c-10.961-4.1889-18.688-10.73-18.688-24.219-1.4372-20.71 7.9158-31.18 29.156-35.406h1c0.6186-9.7073 3.7846-76.608-19.5-170.69-15.324-61.916-19.374-85.829-23.25-93.812s2.3933-55.885 11.625-71.844c7.9555-13.752 19.372-46.516 40.688-33.938z" fill="url(#df)" stroke="#525252" stroke-width=".19909"/>
  <path transform="scale(-1,1)" d="m1797.6-446.41h171.08a16.715 16.715 0 0 1 16.715 16.715 16.715 16.715 0 0 1 -16.715 16.715h-171.08a16.715 16.715 0 0 1 -16.715 -16.715 16.715 16.715 0 0 1 16.715 -16.715" fill="url(#bb)" opacity=".51525"/>
  <path transform="scale(-1,1)" d="m1782.9-386.7h198.61a4.255 4.255 0 0 1 4.255 4.255v40.104a4.255 4.255 0 0 1 -4.255 4.255h-198.61a4.255 4.255 0 0 1 -4.255 -4.255v-40.104a4.255 4.255 0 0 1 4.255 -4.255" fill="url(#dg)" opacity=".35593"/>
  <path d="m-1782.8-774.18s13.609 9.003 16.286 15.28c3.346 7.8467-10.875 8.6727-13.384 14.867s-7.1104-4.5428-40.989-3.7168-102.89-0.41299-113.77-11.151-37.643-26.844-26.35-38.821 28.701-5.034 38.061-0.41299c12.548 6.1948 140.98 23.54 140.14 23.953z" fill="url(#bc)" fill-rule="evenodd" opacity=".71186"/>
  <path d="m-1787.7-731s14.565 4.024 10.446 14.876-16.884 13.289-26.348 10.985-44.431-13.207-40.122-18.85 59.651-7.5616 56.024-7.0107z" fill="url(#bd)" fill-rule="evenodd" opacity=".54576"/>
  <path d="m-1861.1-612.81c2.4628-24.363-91.276-42.138-115.72-0.74875 31.115 107.94 31.604 127.57 28.916 167.17h139.45c21.721-102.55-68.611-148.1-52.64-166.42z" fill="url(#be)" opacity=".50847"/>
  <path d="m-1869.4-792.87s29.201 13.516 20.943 49.967-33.85 44.637-52.825 36.897-89.079-44.362-80.438-63.316 119.59-25.398 112.32-23.548z" fill="url(#bf)" fill-rule="evenodd" opacity=".21695"/>
  <path d="m-1900.4-662.91 34.812 6c5.998 6.7461 51.24 57.636 59.5 66.531 15.975 17.038 27.08 40.156 28.551 63.364-23.205 13.87-47.781 5.7587-60.801-11.177-14.987-19.495-60.518-90.707-62.062-124.72zm34.812 6-3.5312-3.9688 4.0625 4.0625-0.5313-0.09375z" fill="url(#bg)" fill-rule="evenodd" opacity=".46441"/>
  <path d="m-1957.8-437.1h153.08a26.962 21.673 0 0 1 26.962 21.673v5.8826a26.962 21.673 0 0 1 -26.962 21.673h-153.08a26.962 21.673 0 0 1 -26.962 -21.673v-5.8826a26.962 21.673 0 0 1 26.962 -21.673" fill="url(#dh)" opacity=".51525"/>
  <path d="m-1814.6-459.48s-10.831 6.8851 8.7554-12.852c3.9912-4.0219 11.487-2.1463 19.81-16.018s7.5241-27.633 7.5241-35.957-26.357-44.39-54.101-30.518-26.138 56.815-25.648 72.501c1.5063 48.184 46.283 27.589 43.659 22.844z" fill="url(#bh)" opacity=".70508"/>
  <path d="m-1834.3-700.88c-6.0203 0.39205-21.19 10.294-27.291 27.892-6.777 19.547-84.808-13.167-92.588-22.566-19.682-23.778 46.198-36.691 66.886-36.691s128.25 44.635 52.993 31.365z" fill="url(#bi)" opacity=".74915"/>
  <path d="m-1958.2-821.78c-15.508 0.0167-24.694 25.146-31.406 36.75-9.2317 15.959-15.5 63.861-11.625 71.844s7.9259 31.896 23.25 93.812c23.285 94.079 20.119 160.98 19.5 170.69h-1l-0.4375 0.09375h56.344c2.3573 0 4.2501-1.8928 4.25-4.25v-339.62c-12.628-2.685-21.413-5.456-22.438-8.0938-3.8756-9.9788-13.387-0.7964-27.156-18.406-3.3306-1.9654-6.4095-2.8156-9.2813-2.8125z" fill="url(#di)"/>
  <path d="m-2134.6-699.19c35.119 0 63.625 28.475 63.625 63.594 0 20.096-9.3408 38.026-23.906 49.688h1.4062c1.43 0 32.208 0.10628 32.375 44.406v10.125c0 2.4308-1.9442 4.375-4.375 4.375h-30.125c1.5485 0.82314 2.5938 2.326 2.5938 4.0938-5.4972 34.111 11.495 64.684 43.358 91.929 1.4453 1.4508 1.6977 1.8197 5.7046 4.7585 5.2937 9.02 6.8444 30.317-3.4688 43.594h3c2.8727 0 5.1875 2.3148 5.1875 5.1875v38.688c0 2.8727-2.3148 5.1875-5.1875 5.1875h-188.72c-2.8727 0-5.1875-2.3148-5.1875-5.1875v-38.688c0-2.8727 2.3148-5.1875 5.1875-5.1875h4.9062c-11.274-15.493-7.8436-31.539-3.5-43.594l5.8523-4.544c31.787-30.498 47.612-61.645 46.992-92.143 0-1.7677 1.0453-3.2706 2.5937-4.0938h-25.219c-2.4308 0-4.375-1.9443-4.375-4.375v-10.125c0-40.465 26.798-44.072 31.656-44.375-14.596-11.661-23.969-29.598-23.969-49.719 0-35.119 28.475-63.594 63.594-63.594z" fill="url(#dl)" stroke="#525252" stroke-width=".19909"/>
  <path transform="scale(-1,1)" d="m2049.1-380.01h180.08v43.577h-180.08z" fill="url(#dm)" opacity=".37627"/>
  <path d="m-2098.3-515.68-74.444-5.651c3.1393 40.593-56.713 90.202-57.22 93.667h177.65c-49.148-45.374-55.498-82.539-45.989-88.016z" fill="url(#bp)" opacity=".51525"/>
  <path d="m-2106.7-584.6-67.783-0.18731c-2.6714 0-23.424 5.5808-23.424 19.842s7.8988 23.214 22.16 23.214l83.049 0.21072c14.261 0 27.047-9.9515 24.478-23.424-3.3703-17.677-23.797-21.341-38.48-19.655z" fill="url(#bq)" opacity=".51525"/>
  <path d="m-2132.9-690.06c28.82-0.39755 52.662 30.528 44.906 58.312-5.5463 26.082-36.404 43.35-61.5 33.781-25.544-8.1447-39.853-40.702-27.5-64.781 7.6399-16.628 25.68-28.099 44.094-27.312z" fill="url(#br)" opacity=".68475"/>
  <path transform="scale(-1,1)" d="m2068.9-437.84h155.53a27.061 27.061 0 0 1 27.061 27.061 27.061 27.061 0 0 1 -27.061 27.061h-155.53a27.061 27.061 0 0 1 -27.061 -27.061 27.061 27.061 0 0 1 27.061 -27.061" fill="url(#bs)" opacity=".51525"/>
  <path d="m-2158.8-593.76c-8.9075 0-16.781 0.0682-21.875 1.7939 1.8886 1.7237 4.0903 4.373 6.5625 5.8546-3.0756 0.93156-8.442 0.77056-14.564 5.5355 4.7173 2.31 19.288 3.2224 29.877 3.2224h47.844c8.7753 0 29.206 0.8565 34.307-0.8253-6.5264-8.6362-16.241-7.2662-18.941-7.847 3.5151-1.8192 4.4735-3.6433 6.9397-5.9285-4.9205-2.0923-12.329-1.8056-22.306-1.8056h-47.844z" fill="url(#dn)" opacity=".67797"/>
  <path d="m-2224.7-426.6h173.9a9.8248 19.561 0 0 1 9.8248 19.561v5.3092a9.8248 19.561 0 0 1 -9.8248 19.561h-173.9a9.8248 19.561 0 0 1 -9.8248 -19.561v-5.3092a9.8248 19.561 0 0 1 9.8248 -19.561" fill="url(#do)" opacity=".51525"/>
  <path d="m-2174.5-527.31h77.136a4.2995 4.1596 0 0 1 4.2995 4.1596 4.2995 4.1596 0 0 1 -4.2995 4.1596h-77.136a4.2995 4.1596 0 0 1 -4.2995 -4.1596 4.2995 4.1596 0 0 1 4.2995 -4.1596" fill="url(#dk)" opacity=".51525"/>
 </g>
</svg>
