<?xml version="1.0" encoding="UTF-8" standalone="no"?>
<svg
   xmlns:dc="http://purl.org/dc/elements/1.1/"
   xmlns:cc="http://creativecommons.org/ns#"
   xmlns:rdf="http://www.w3.org/1999/02/22-rdf-syntax-ns#"
   xmlns:svg="http://www.w3.org/2000/svg"
   xmlns="http://www.w3.org/2000/svg"
   viewBox="0 0 2092.7466 3044.3066"
   height="3044.3066"
   width="2092.7466"
   xml:space="preserve"
   id="svg2"
   version="1.1"><metadata
     id="metadata8"><rdf:RDF><cc:Work
         rdf:about=""><dc:format>image/svg+xml</dc:format><dc:type
           rdf:resource="http://purl.org/dc/dcmitype/StillImage" /></cc:Work></rdf:RDF></metadata><defs
     id="defs6"><clipPath
       id="clipPath22"
       clipPathUnits="userSpaceOnUse"><path
         id="path20"
         d="M 0,2283.228 H 1569.557 V 0 H 0 Z" /></clipPath><clipPath
       id="clipPath30"
       clipPathUnits="userSpaceOnUse"><path
         id="path28"
         d="M 237.714,1852.03 H 1387.15 V 459.813 H 237.714 Z" /></clipPath><clipPath
       id="clipPath34"
       clipPathUnits="userSpaceOnUse"><path
         id="path32"
         d="m 1171.884,502.471 -737.202,-42.658 -196.968,1388.099 1149.433,4.119 z" /></clipPath><clipPath
       id="clipPath38"
       clipPathUnits="userSpaceOnUse"><path
         id="path36"
         d="M -32768,32767 H 32767 V -32768 H -32768 Z" /></clipPath><linearGradient
       id="linearGradient46"
       spreadMethod="pad"
       gradientTransform="matrix(1149.4331,0,0,-1149.4331,237.71394,1155.9219)"
       gradientUnits="userSpaceOnUse"
       y2="0"
       x2="1"
       y1="0"
       x1="0"><stop
         id="stop40"
         offset="0"
         style="stop-opacity:0.95001144;stop-color:#ffffff" /><stop
         id="stop42"
         offset="0.9915"
         style="stop-opacity:0;stop-color:#ffffff" /><stop
         id="stop44"
         offset="1"
         style="stop-opacity:0;stop-color:#ffffff" /></linearGradient><mask
       id="mask48"
       height="1"
       width="1"
       y="0"
       x="0"
       maskUnits="userSpaceOnUse"><g
         id="g58"><g
           id="g56"
           clip-path="url(#clipPath38)"><g
             id="g54"><g
               id="g52"><path
                 id="path50"
                 style="fill:url(#linearGradient46);stroke:none"
                 d="M -32768,32767 H 32767 V -32768 H -32768 Z" /></g></g></g></g></mask><linearGradient
       id="linearGradient66"
       spreadMethod="pad"
       gradientTransform="matrix(1149.4331,0,0,-1149.4331,237.71394,1155.9219)"
       gradientUnits="userSpaceOnUse"
       y2="0"
       x2="1"
       y1="0"
       x1="0"><stop
         id="stop60"
         offset="0"
         style="stop-opacity:1;stop-color:#130c0e" /><stop
         id="stop62"
         offset="0.9915"
         style="stop-opacity:1;stop-color:#130c0e" /><stop
         id="stop64"
         offset="1"
         style="stop-opacity:1;stop-color:#130c0e" /></linearGradient><clipPath
       id="clipPath96"
       clipPathUnits="userSpaceOnUse"><path
         id="path94"
         d="M 469.187,1265.73 H 718.425 V 971.139 H 469.187 Z" /></clipPath><clipPath
       id="clipPath116"
       clipPathUnits="userSpaceOnUse"><path
         id="path114"
         d="m 777.196,1410.6 h 72.692 v -155.75 h -72.692 z" /></clipPath><clipPath
       id="clipPath136"
       clipPathUnits="userSpaceOnUse"><path
         id="path134"
         d="M 589.268,928.943 H 786.509 V 345.617 H 589.268 Z" /></clipPath><clipPath
       id="clipPath156"
       clipPathUnits="userSpaceOnUse"><path
         id="path154"
         d="M 836.801,856.177 H 1048.05 V 123.626 H 836.801 Z" /></clipPath><clipPath
       id="clipPath172"
       clipPathUnits="userSpaceOnUse"><path
         id="path170"
         d="M 661.091,821.669 H 877.497 V 769.822 H 661.091 Z" /></clipPath><clipPath
       id="clipPath192"
       clipPathUnits="userSpaceOnUse"><path
         id="path190"
         d="m 785.407,1248.63 h 273.283 v -172.8 H 785.407 Z" /></clipPath><clipPath
       id="clipPath212"
       clipPathUnits="userSpaceOnUse"><path
         id="path210"
         d="M 897.611,1260.1 H 1046 V 1090.35 H 897.611 Z" /></clipPath><clipPath
       id="clipPath232"
       clipPathUnits="userSpaceOnUse"><path
         id="path230"
         d="m 716.429,1276.91 h 98.065 v -76.11 h -98.065 z" /></clipPath><clipPath
       id="clipPath248"
       clipPathUnits="userSpaceOnUse"><path
         id="path246"
         d="m 829.73,1135.28 h 156.263 v -89.63 H 829.73 Z" /></clipPath><clipPath
       id="clipPath264"
       clipPathUnits="userSpaceOnUse"><path
         id="path262"
         d="m 534.833,1269.26 h 121.32 v -210.24 h -121.32 z" /></clipPath><clipPath
       id="clipPath284"
       clipPathUnits="userSpaceOnUse"><path
         id="path282"
         d="M 577.1,1191.38 H 818.508 V 795.575 H 577.1 Z" /></clipPath><clipPath
       id="clipPath304"
       clipPathUnits="userSpaceOnUse"><path
         id="path302"
         d="M 177.133,1206.35 H 605.469 V 796.535 H 177.133 Z" /></clipPath><clipPath
       id="clipPath324"
       clipPathUnits="userSpaceOnUse"><path
         id="path322"
         d="M 191.77,1240.57 H 352.537 V 817.199 H 191.77 Z" /></clipPath><clipPath
       id="clipPath344"
       clipPathUnits="userSpaceOnUse"><path
         id="path342"
         d="m 248.246,1261.99 h 116.973 v -80.44 H 248.246 Z" /></clipPath><clipPath
       id="clipPath360"
       clipPathUnits="userSpaceOnUse"><path
         id="path358"
         d="M 224.826,1229.68 H 561.182 V 844.876 H 224.826 Z" /></clipPath><clipPath
       id="clipPath380"
       clipPathUnits="userSpaceOnUse"><path
         id="path378"
         d="M 855.111,1982.2 H 1238.27 V 1210.12 H 855.111 Z" /></clipPath><clipPath
       id="clipPath384"
       clipPathUnits="userSpaceOnUse"><path
         id="path382"
         d="m 1115.369,1298.755 c 7.322,-2.707 15.353,-2.759 23.133,-2.117 18.872,1.556 37.411,7.043 54.091,16.007 -18.735,-38.406 -50.045,-71.127 -89.012,-88.663 -38.968,-17.535 -85.517,-19.006 -124.319,-1.107 -19.714,9.095 -36.954,22.714 -53.638,36.607 -23.817,19.834 -47.627,41.417 -60.189,69.752 -14.05,31.689 -12.288,68.426 -3.482,101.953 8.806,33.527 24.184,64.886 37.108,97.051 36.285,90.309 53.357,188.284 49.754,285.543 -0.827,22.312 -2.716,44.805 0.792,66.855 5.862,36.848 27.407,70.937 58.175,92.044 5.643,3.871 11.709,7.374 18.407,8.774 6.968,1.457 14.203,0.555 21.212,-0.692 65.32,-11.621 124.375,-54.432 155.734,-112.899 12.328,-22.984 20.494,-48.011 26.351,-73.426 9.559,-41.484 13,-85.35 1.648,-126.38 -7.588,-27.426 -21.508,-52.667 -36.682,-76.739 -29.211,-46.345 -63.527,-89.485 -89.963,-137.467 -12.112,-21.983 -22.651,-45.353 -25.786,-70.256 -3.135,-24.902 1.915,-51.703 18.09,-70.895 5.046,-5.987 11.232,-11.23 18.576,-13.945" /></clipPath><clipPath
       id="clipPath388"
       clipPathUnits="userSpaceOnUse"><path
         id="path386"
         d="M -32768,32767 H 32767 V -32768 H -32768 Z" /></clipPath><linearGradient
       id="linearGradient396"
       spreadMethod="pad"
       gradientTransform="matrix(201.06601,-31.614151,-31.614151,-201.06601,982.21783,1604.1201)"
       gradientUnits="userSpaceOnUse"
       y2="0"
       x2="1"
       y1="0"
       x1="0"><stop
         id="stop390"
         offset="0"
         style="stop-opacity:0.95001144;stop-color:#ffffff" /><stop
         id="stop392"
         offset="0.9915"
         style="stop-opacity:0;stop-color:#ffffff" /><stop
         id="stop394"
         offset="1"
         style="stop-opacity:0;stop-color:#ffffff" /></linearGradient><mask
       id="mask398"
       height="1"
       width="1"
       y="0"
       x="0"
       maskUnits="userSpaceOnUse"><g
         id="g408"><g
           id="g406"
           clip-path="url(#clipPath388)"><g
             id="g404"><g
               id="g402"><path
                 id="path400"
                 style="fill:url(#linearGradient396);stroke:none"
                 d="M -32768,32767 H 32767 V -32768 H -32768 Z" /></g></g></g></g></mask><linearGradient
       id="linearGradient416"
       spreadMethod="pad"
       gradientTransform="matrix(201.06601,-31.614151,-31.614151,-201.06601,982.21783,1604.1201)"
       gradientUnits="userSpaceOnUse"
       y2="0"
       x2="1"
       y1="0"
       x1="0"><stop
         id="stop410"
         offset="0"
         style="stop-opacity:1;stop-color:#130c0e" /><stop
         id="stop412"
         offset="0.9915"
         style="stop-opacity:1;stop-color:#130c0e" /><stop
         id="stop414"
         offset="1"
         style="stop-opacity:1;stop-color:#130c0e" /></linearGradient><clipPath
       id="clipPath442"
       clipPathUnits="userSpaceOnUse"><path
         id="path440"
         d="m 856.95,1951.05 h 356.8 v -717.37 h -356.8 z" /></clipPath><clipPath
       id="clipPath458"
       clipPathUnits="userSpaceOnUse"><path
         id="path456"
         d="M 916.391,1885.63 H 1204.75 V 1262.49 H 916.391 Z" /></clipPath><clipPath
       id="clipPath478"
       clipPathUnits="userSpaceOnUse"><path
         id="path476"
         d="M 563.984,1939.15 H 1023.84 V 1320.91 H 563.984 Z" /></clipPath><clipPath
       id="clipPath506"
       clipPathUnits="userSpaceOnUse"><path
         id="path504"
         d="m 671.616,1471 h 129.66 v -92.96 h -129.66 z" /></clipPath><clipPath
       id="clipPath526"
       clipPathUnits="userSpaceOnUse"><path
         id="path524"
         d="m 662.523,1484.78 h 85.59 v -18.51 h -85.59 z" /></clipPath><clipPath
       id="clipPath542"
       clipPathUnits="userSpaceOnUse"><path
         id="path540"
         d="m 598.066,1629.095 c -9.127,-8.521 1.419,-38.927 11.848,-47.386 v 0 c 19.792,-16.056 53.603,-5.407 76.34,-16.919 v 0 c 1.841,48.037 -32.152,74.286 -61.157,74.288 v 0 c -10.228,10e-4 -19.832,-3.262 -27.031,-9.983" /></clipPath><clipPath
       id="clipPath562"
       clipPathUnits="userSpaceOnUse"><path
         id="path560"
         d="m 631.936,1637.77 h 65.913 v -62.09 h -65.913 z" /></clipPath><clipPath
       id="clipPath582"
       clipPathUnits="userSpaceOnUse"><path
         id="path580"
         d="m 800.841,1625.405 c -20.591,-14.817 -33.687,-36.371 -37.547,-61.444 v 0 c 35.665,4.829 68.813,3.297 104.476,8.128 v 0 c 16.155,2.187 35.179,6.515 41.121,21.696 v 0 c 3.996,10.209 -0.01,22.339 -7.761,30.092 v 0 c -7.752,7.755 -18.586,11.706 -29.39,13.568 v 0 c -7.709,1.327 -15.444,2.1 -23.064,2.1 v 0 c -17.092,0 -33.593,-3.891 -47.835,-14.14" /></clipPath><clipPath
       id="clipPath602"
       clipPathUnits="userSpaceOnUse"><path
         id="path600"
         d="m 831.27,1641.62 h 67.537 v -64.81 H 831.27 Z" /></clipPath><clipPath
       id="clipPath622"
       clipPathUnits="userSpaceOnUse"><path
         id="path620"
         d="M 0,2283.228 H 1569.557 V 0 H 0 Z" /></clipPath><clipPath
       id="clipPath638"
       clipPathUnits="userSpaceOnUse"><path
         id="path636"
         d="m 767.044,1594.82 h 152.268 v -35.56 H 767.044 Z" /></clipPath><clipPath
       id="clipPath654"
       clipPathUnits="userSpaceOnUse"><path
         id="path652"
         d="m 601.181,1581.72 h 87.141 v -18.8 h -87.141 z" /></clipPath><clipPath
       id="clipPath686"
       clipPathUnits="userSpaceOnUse"><path
         id="path684"
         d="M 492.171,1934.17 H 902.446 V 1637.95 H 492.171 Z" /></clipPath><clipPath
       id="clipPath690"
       clipPathUnits="userSpaceOnUse"><path
         id="path688"
         d="m 895.01,1916.299 c -0.433,0.573 -0.856,1.166 -1.363,1.69 -22.489,23.24 -180.758,19.481 -239.598,1.144 -66.923,-20.857 -108.033,-74.43 -149.542,-139.255 -14.232,-22.228 -16.802,-53.103 -4.276,-76.335 6.483,-12.024 59.629,-53.771 75.502,-65.596 -1.781,5.188 -8.011,51.647 -6.898,54.577 1.149,3.445 26.624,14.261 31.591,16.64 18.954,9.076 40.227,14.89 59.965,22.118 l 121.644,44.545 c 31.933,11.694 64.884,24.013 89.275,47.71 19.136,18.592 43.686,66.315 23.7,92.762" /></clipPath><clipPath
       id="clipPath694"
       clipPathUnits="userSpaceOnUse"><path
         id="path692"
         d="M -32768,32767 H 32767 V -32768 H -32768 Z" /></clipPath><linearGradient
       id="linearGradient702"
       spreadMethod="pad"
       gradientTransform="matrix(6.3228312,-188.42036,-188.42036,-6.3228312,693.94128,1914.593)"
       gradientUnits="userSpaceOnUse"
       y2="0"
       x2="1"
       y1="0"
       x1="0"><stop
         id="stop696"
         offset="0"
         style="stop-opacity:0.95001144;stop-color:#ffffff" /><stop
         id="stop698"
         offset="0.9915"
         style="stop-opacity:0;stop-color:#ffffff" /><stop
         id="stop700"
         offset="1"
         style="stop-opacity:0;stop-color:#ffffff" /></linearGradient><mask
       id="mask704"
       height="1"
       width="1"
       y="0"
       x="0"
       maskUnits="userSpaceOnUse"><g
         id="g714"><g
           id="g712"
           clip-path="url(#clipPath694)"><g
             id="g710"><g
               id="g708"><path
                 id="path706"
                 style="fill:url(#linearGradient702);stroke:none"
                 d="M -32768,32767 H 32767 V -32768 H -32768 Z" /></g></g></g></g></mask><linearGradient
       id="linearGradient722"
       spreadMethod="pad"
       gradientTransform="matrix(6.3228312,-188.42036,-188.42036,-6.3228312,693.94128,1914.593)"
       gradientUnits="userSpaceOnUse"
       y2="0"
       x2="1"
       y1="0"
       x1="0"><stop
         id="stop716"
         offset="0"
         style="stop-opacity:1;stop-color:#130c0e" /><stop
         id="stop718"
         offset="0.9915"
         style="stop-opacity:1;stop-color:#130c0e" /><stop
         id="stop720"
         offset="1"
         style="stop-opacity:1;stop-color:#130c0e" /></linearGradient><clipPath
       id="clipPath748"
       clipPathUnits="userSpaceOnUse"><path
         id="path746"
         d="M 499.47,1936.51 H 902.044 V 1662.03 H 499.47 Z" /></clipPath><clipPath
       id="clipPath764"
       clipPathUnits="userSpaceOnUse"><path
         id="path762"
         d="m 966.32,1691.05 h 58.73 v -66.68 h -58.73 z" /></clipPath><clipPath
       id="clipPath780"
       clipPathUnits="userSpaceOnUse"><path
         id="path778"
         d="m 963.007,1720.46 h 83.233 v -74.28 h -83.233 z" /></clipPath><clipPath
       id="clipPath796"
       clipPathUnits="userSpaceOnUse"><path
         id="path794"
         d="M 889.926,1831.77 H 1081.68 V 1682.06 H 889.926 Z" /></clipPath><clipPath
       id="clipPath812"
       clipPathUnits="userSpaceOnUse"><path
         id="path810"
         d="M 497.005,1851.98 H 761.024 V 1680.21 H 497.005 Z" /></clipPath><clipPath
       id="clipPath828"
       clipPathUnits="userSpaceOnUse"><path
         id="path826"
         d="M 966.161,1774.62 H 1072.17 V 1613.36 H 966.161 Z" /></clipPath><clipPath
       id="clipPath848"
       clipPathUnits="userSpaceOnUse"><path
         id="path846"
         d="M 922.331,2095.71 H 1082.82 V 1811.75 H 922.331 Z" /></clipPath><clipPath
       id="clipPath864"
       clipPathUnits="userSpaceOnUse"><path
         id="path862"
         d="M 561.605,2108.51 H 1082.17 V 1811.75 H 561.605 Z" /></clipPath><clipPath
       id="clipPath880"
       clipPathUnits="userSpaceOnUse"><path
         id="path878"
         d="M 516.039,1886.73 H 1082.22 V 1756.08 H 516.039 Z" /></clipPath><clipPath
       id="clipPath904"
       clipPathUnits="userSpaceOnUse"><path
         id="path902"
         d="m 485.478,1902.81 h 305.603 v -88.34 H 485.478 Z" /></clipPath><clipPath
       id="clipPath920"
       clipPathUnits="userSpaceOnUse"><path
         id="path918"
         d="m 746.239,1897.78 h 103.392 v -61.93 H 746.239 Z" /></clipPath><clipPath
       id="clipPath944"
       clipPathUnits="userSpaceOnUse"><path
         id="path942"
         d="m 638.583,1700.73 h 78.156 v -191.38 h -78.156 z" /></clipPath><clipPath
       id="clipPath960"
       clipPathUnits="userSpaceOnUse"><path
         id="path958"
         d="M 751.795,1716.27 H 900.447 V 1604.09 H 751.795 Z" /></clipPath><clipPath
       id="clipPath976"
       clipPathUnits="userSpaceOnUse"><path
         id="path974"
         d="m 686.925,1557.63 h 56.16 v -29.5 h -56.16 z" /></clipPath><clipPath
       id="clipPath996"
       clipPathUnits="userSpaceOnUse"><path
         id="path994"
         d="m 257.843,1003.4 h 36.873 v -51.061 h -36.873 z" /></clipPath><clipPath
       id="clipPath1012"
       clipPathUnits="userSpaceOnUse"><path
         id="path1010"
         d="m 239.7,1040.7 h 50.823 V 969.076 H 239.7 Z" /></clipPath><clipPath
       id="clipPath1028"
       clipPathUnits="userSpaceOnUse"><path
         id="path1026"
         d="m 235.206,1072.93 h 18.519 v -81.268 h -18.519 z" /></clipPath><clipPath
       id="clipPath1048"
       clipPathUnits="userSpaceOnUse"><path
         id="path1046"
         d="M 672.217,1034.74 H 1002.72 V 970.845 H 672.217 Z" /></clipPath><clipPath
       id="clipPath1068"
       clipPathUnits="userSpaceOnUse"><path
         id="path1066"
         d="M 968.381,1030.11 H 1152.59 V 794.27 H 968.381 Z" /></clipPath><clipPath
       id="clipPath1088"
       clipPathUnits="userSpaceOnUse"><path
         id="path1086"
         d="M 671.208,970.888 H 973.861 V 793.849 H 671.208 Z" /></clipPath><clipPath
       id="clipPath1108"
       clipPathUnits="userSpaceOnUse"><path
         id="path1106"
         d="m 1070.26,1105.35 h 40.76 V 908.163 h -40.76 z" /></clipPath><clipPath
       id="clipPath1124"
       clipPathUnits="userSpaceOnUse"><path
         id="path1122"
         d="m 957.303,1064.35 h 82.337 V 820.58 h -82.337 z" /></clipPath><clipPath
       id="clipPath1140"
       clipPathUnits="userSpaceOnUse"><path
         id="path1138"
         d="m 971.753,859.194 h 38.797 v -66.188 h -38.797 z" /></clipPath><clipPath
       id="clipPath1156"
       clipPathUnits="userSpaceOnUse"><path
         id="path1154"
         d="m 1029.87,887.42 h 34.95 v -91.825 h -34.95 z" /></clipPath></defs><g
     transform="matrix(1.3333333,0,0,-1.3333333,0,3044.3067)"
     id="g10"><g
       transform="translate(1171.8839,502.4714)"
       id="g12"><path
         id="path14"
         style="fill:#ff6e3d;fill-opacity:1;fill-rule:nonzero;stroke:none"
         d="M 0,0 -737.202,-42.658 -934.17,1345.44 215.263,1349.559 Z" /></g><g
       id="g16"><g
         clip-path="url(#clipPath22)"
         id="g18"><g
           id="g24"><g
             id="g26" /><g
             id="g84"><g
               style="opacity:0.5"
               id="g82"
               clip-path="url(#clipPath30)"><g
                 id="g80"><g
                   id="g78"
                   clip-path="url(#clipPath34)"><g
                     id="g76"><g
                       id="g68" /><g
                       id="g74"
                       mask="url(#mask48)"><g
                         id="g72"><path
                           id="path70"
                           style="fill:url(#linearGradient66);stroke:none"
                           d="m 1171.884,502.471 -737.202,-42.658 -196.968,1388.099 1149.433,4.119 z" /></g></g></g></g></g></g></g></g><g
           transform="translate(612.8965,1210.5144)"
           id="g86"><path
             id="path88"
             style="fill:#ffbe87;fill-opacity:1;fill-rule:nonzero;stroke:none"
             d="m 0,0 c -16.533,-11.859 -29.96,-26.586 -40.884,-44.886 -1.202,-2.014 -2.694,-3.467 -4.334,-4.464 -15.291,-24.644 -72.079,-97.005 -98.491,-126.613 11.661,-20.962 23.48,-41.837 33.749,-63.413 39.849,52.145 116.973,157.306 153.097,220.35 8.108,14.151 54.481,54.772 62.392,74.244 C 97.236,51.884 14.949,7.752 0,0" /></g><g
           id="g90"><g
             id="g92" /><g
             id="g104"><g
               style="opacity:0.39999402"
               id="g102"
               clip-path="url(#clipPath96)"><g
                 id="g100"
                 transform="translate(612.8966,1210.5144)"><path
                   id="path98"
                   style="fill:#231f20;fill-opacity:1;fill-rule:nonzero;stroke:none"
                   d="m 0,0 c -16.533,-11.859 -29.96,-26.586 -40.884,-44.886 -1.202,-2.014 -2.694,-3.467 -4.335,-4.464 -15.29,-24.644 -72.078,-97.005 -98.49,-126.613 11.66,-20.962 23.48,-41.837 33.749,-63.413 14.313,18.73 33.442,44.314 53.746,72.315 -6.926,13.797 -11.678,29.944 -19.478,43.294 -8.246,14.111 5.227,19.609 13.448,5.539 5.856,-10.021 17.26,-15.506 22.604,-25.79 31.325,43.919 63.12,90.687 82.776,124.992 8.109,14.151 54.482,54.772 62.393,74.244 C 97.236,51.884 14.949,7.753 0,0" /></g></g></g></g><g
           transform="translate(614.0143,1081.1172)"
           id="g106"><path
             id="path108"
             style="fill:#ffbe87;fill-opacity:1;fill-rule:nonzero;stroke:none"
             d="m 0,0 c -12.249,-38.381 -2.159,-86.087 -1.383,-126.883 l 144.567,9.91 c 4.299,17.901 153.324,240.027 153.324,240.027 3.359,5.687 6.798,24.239 7.323,30.823 2.609,32.726 -41.207,16.249 -60.524,35.866 -15.727,15.97 -12.89,50.337 -11.493,72.707 1.397,22.37 6.196,44.894 2.462,66.994 -26.432,1.154 -47.237,-23.086 -56.996,-47.677 -11.168,-28.139 -14.162,-80.501 -47.916,-91.112 -9.305,-2.925 -19.477,-4.412 -27.075,-10.529 -4.285,-3.45 -7.387,-8.111 -10.716,-12.49 C 69.944,139.189 36.32,122.871 4.846,107.759 -17.463,97.047 -27.561,70.813 -18.044,47.969 -11.405,32.032 -9.777,14.229 0,0" /></g><g
           id="g110"><g
             id="g112" /><g
             id="g124"><g
               style="opacity:0.39999402"
               id="g122"
               clip-path="url(#clipPath116)"><g
                 id="g120"
                 transform="translate(836.7814,1332.8326)"><path
                   id="path118"
                   style="fill:#231f20;fill-opacity:1;fill-rule:nonzero;stroke:none"
                   d="m 0,0 c 0.53,0.732 1.067,1.457 1.611,2.175 7.961,10.503 8.265,18.296 9.613,31.805 0.376,3.771 3.857,43.593 0.284,43.749 -26.431,1.154 -47.236,-23.086 -56.995,-47.677 -5.163,-13.009 -8.583,-31.19 -14.098,-48.034 13.046,3.164 25.515,10.169 38.297,12.642 0.676,0.131 1.455,0.218 1.98,-0.227 0.526,-0.446 0.566,-1.229 0.559,-1.918 -0.263,-24.425 -9.362,-47.782 -18.331,-70.5 C -26.34,-52.368 -16.478,-22.763 0,0" /></g></g></g></g><g
           transform="translate(712.6769,928.943)"
           id="g126"><path
             id="path128"
             style="fill:#414042;fill-opacity:1;fill-rule:nonzero;stroke:none"
             d="m 0,0 h -94.768 c -0.885,-11.456 -2.687,-21.934 -6.008,-30.918 -40.215,-108.821 -20.744,-249.147 6.878,-358.175 20.322,-80.214 33.048,-162.261 42.163,-244.444 9.352,-84.321 1.303,-111.766 11.531,-195.804 14.924,-4.374 18.968,-6.323 60.699,-3.794 27.774,1.684 30.349,-2.213 59.237,6.233 -0.336,52.285 -1.135,104.566 -2.397,156.837 -0.671,27.788 -1.522,55.908 -9.063,82.662 -12.637,44.833 -31.097,78.14 -28.683,125.67 2.316,45.591 8.11,88.983 18.495,133.71 12.541,54.011 18.934,115.414 14.171,173.311 C 65.288,-70.04 6.251,-32.81 0,0" /></g><g
           id="g130"><g
             id="g132" /><g
             id="g144"><g
               style="opacity:0.30000299"
               id="g142"
               clip-path="url(#clipPath136)"><g
                 id="g140"
                 transform="translate(594.92,769.9861)"><path
                   id="path138"
                   style="fill:#231f20;fill-opacity:1;fill-rule:nonzero;stroke:none"
                   d="m 0,0 c 14.574,-1.441 48.631,1.035 57.743,-9.862 25.339,-30.304 39.681,-73.314 55.144,-109.083 20.883,-48.304 41.013,-68.051 35.06,-121.908 -1.967,-17.797 -5.873,-97.609 -2.786,-108.367 3.146,-10.963 10.442,-20.155 16.791,-29.63 9.461,-14.12 17.101,-29.46 22.67,-45.519 -15.387,47.931 -30.966,97.406 -26.781,147.573 3.052,36.581 9.741,72.161 18,107.73 12.54,54.011 18.934,115.414 14.171,173.311 -6.967,84.672 -66.005,121.902 -72.255,154.712 H 22.989 C 22.104,147.501 20.301,137.023 16.981,128.039 2.395,88.569 -4.31,44.949 -5.652,0.187 -3.772,0.232 -1.888,0.187 0,0" /></g></g></g></g><g
           transform="translate(749.7793,931.6484)"
           id="g146"><path
             id="path148"
             style="fill:#414042;fill-opacity:1;fill-rule:nonzero;stroke:none"
             d="m 0,0 -116.508,-39.163 c 2.776,-11.15 89.596,-264.941 150.218,-359.677 86.903,-135.807 131.358,-242.257 171.936,-412.559 42.462,-2.1 65.204,-17.812 84.344,-2.285 3.646,2.958 7.413,6.24 8.785,10.73 1.065,3.489 0.53,7.241 -0.015,10.848 -8.551,56.634 -17.222,113.452 -32.213,168.812 -14.996,55.378 -39.998,101.69 -65.612,152.201 -28.264,55.737 -36.804,119.376 -42.287,178.171 -5.148,55.208 -18.462,115.49 -41.255,168.924 C 84.058,-45.853 16.287,-29.16 0,0" /></g><g
           id="g150"><g
             id="g152" /><g
             id="g164"><g
               style="opacity:0.30000299"
               id="g162"
               clip-path="url(#clipPath156)"><g
                 id="g160"
                 transform="translate(919.0956,480.6181)"><path
                   id="path158"
                   style="fill:#ffffff;fill-opacity:1;fill-rule:nonzero;stroke:none"
                   d="m 0,0 c 16.811,-29.941 35.652,-58.686 51.353,-89.263 15.57,-30.322 29.063,-61.819 39.664,-94.23 18.343,-56.08 28.849,-114.092 34.474,-172.684 1.891,-3.137 3.462,3.508 3.462,7.618 -2.95,13.402 -9.273,181.255 -97.334,328.496 -32.077,53.635 -36.804,119.376 -42.287,178.171 -5.148,55.209 -18.462,115.491 -41.255,168.924 -8.397,19.683 -18.979,35.46 -30.372,48.527 32.725,-55.785 45.354,-120.117 52.804,-183.677 3.86,-32.938 6.401,-66.002 9.733,-98.993 C -16.484,60.482 -10.63,30.294 0,0" /></g></g></g></g><g
           id="g166"><g
             id="g168" /><g
             id="g180"><g
               style="opacity:0.30000299"
               id="g178"
               clip-path="url(#clipPath172)"><g
                 id="g176"
                 transform="translate(854.3173,821.6694)"><path
                   id="path174"
                   style="fill:#231f20;fill-opacity:1;fill-rule:nonzero;stroke:none"
                   d="m 0,0 -193.226,-2.529 15.175,-49.318 201.23,0.327 C 15.425,-34.363 7.316,-17.35 0,0" /></g></g></g></g><g
           transform="translate(1034.5601,1062.78)"
           id="g182"><path
             id="path184"
             style="fill:#ffbe87;fill-opacity:1;fill-rule:nonzero;stroke:none"
             d="m 0,0 c -7.312,13.669 -122.298,57.623 -159.351,79.301 -4.424,2.588 -195.403,86.035 -6.631,105.957 46.12,4.864 64.087,-21.238 95.66,-48.921 C -33.39,103.955 66.414,27.596 73.031,15.869 90.915,-15.828 15.359,-214.966 -0.788,-267.185 c -21.334,2.829 -42.886,4.002 -64.401,3.506 25.201,4.369 39.201,28.608 39.337,52.576 0.015,2.752 -0.872,6.32 -3.616,6.536 -2.321,0.184 -3.857,-2.267 -4.94,-4.329 -7.524,-14.318 -20.004,-25.971 -34.805,-32.497 -2.941,-1.296 -7.694,-1.441 -8.029,1.756 -0.115,1.098 0.453,2.14 1.001,3.099 7.052,12.328 15.68,23.879 21.156,36.983 12.933,30.946 38.21,37.854 44.125,45.278 C -2.858,-144.11 2.812,-5.257 0,0" /></g><g
           id="g186"><g
             id="g188" /><g
             id="g200"><g
               style="opacity:0.30000299"
               id="g198"
               clip-path="url(#clipPath192)"><g
                 id="g196"
                 transform="translate(1058.6852,1121.8788)"><path
                   id="path194"
                   style="fill:#231f20;fill-opacity:1;fill-rule:nonzero;stroke:none"
                   d="m 0,0 c -32.824,26.75 -73.626,58.982 -94.447,77.239 -31.573,27.683 -49.54,53.785 -95.66,48.92 -188.772,-19.922 2.207,-103.368 6.631,-105.957 28.808,-16.854 104.72,-47.173 140.515,-66.255 C -29.577,-29.847 -15.413,-14.328 0,0" /></g></g></g></g><g
           transform="translate(985.1577,1079.5803)"
           id="g202"><path
             id="path204"
             style="fill:#27aae1;fill-opacity:1;fill-rule:nonzero;stroke:none"
             d="m 0,0 c 20.586,23.486 41.509,46.691 60.95,71.137 -24.101,19.054 -99.558,83.358 -101.753,89.945 -3.794,11.381 -83.89,31.035 -85.991,31.193 -22.426,-16.614 -82.618,-68.287 -115.878,-32.162 -10.235,11.117 1.122,25.715 7.119,37.22 -19.943,-0.827 -98.764,-2.474 -115.069,-15.175 -5.767,-4.492 -73.261,-101.127 -99.703,-143.466 18.681,-17.707 34.64,-38.284 49.646,-59.252 3.624,7.355 8.095,14.292 13.34,20.594 0.254,0.305 10.043,-24.222 9.563,-27.918 -6.989,-53.831 19.988,-173.543 -29.172,-243.061 24.468,-10.163 59.58,-16.914 85.957,-14.418 64.741,6.124 121.033,28.874 181.62,52.499 -18.253,17.066 -75.454,74.765 -49.808,144.405 7.603,20.646 86.796,131.515 92.735,131.515 1.686,0 77.309,-31.4 93.578,-41.731 C -1.922,0.726 -0.964,0.32 0,0" /></g><g
           id="g206"><g
             id="g208" /><g
             id="g220"><g
               style="opacity:0.30000299"
               id="g218"
               clip-path="url(#clipPath212)"><g
                 id="g216"
                 transform="translate(924.7386,1243.1466)"><path
                   id="path214"
                   style="fill:#ffffff;fill-opacity:1;fill-rule:nonzero;stroke:none"
                   d="m 0,0 c 1.846,-1.608 3.634,-3.283 5.358,-5.022 -7.426,-15.484 -13.678,-31.532 -18.682,-47.959 7.012,14.08 16.152,27.097 27.015,38.473 30.139,-27.794 60.964,-54.844 92.439,-81.116 -14.357,-17.199 -26.15,-36.535 -34.868,-57.173 9.515,10.545 55.169,63.495 49.519,62.636 -5.396,-0.82 -65.61,53.369 -79.802,66.24 C 35.169,-18.65 22.241,-10.35 19.616,-2.485 15.515,9.798 -16.518,14.616 -27.128,16.949 -17.265,12.782 -8.074,7.032 0,0" /></g></g></g></g><g
           transform="translate(727.1082,1276.0491)"
           id="g222"><path
             id="path224"
             style="fill:#ffffff;fill-opacity:1;fill-rule:nonzero;stroke:none"
             d="m 0,0 c -11.512,-16.493 -15.167,-38.732 -3.676,-56.438 11.988,-18.472 33.864,-21.647 54.118,-16.745 38.599,9.34 72.895,34.924 101.006,63.954 -11.221,3.022 -19.534,4.985 -20.192,5.035 C 108.829,-20.807 48.637,-72.481 15.377,-36.355 5.143,-25.239 16.499,-10.641 22.497,0.864 17.772,0.668 9.72,0.424 0,0" /></g><g
           id="g226"><g
             id="g228" /><g
             id="g240"><g
               style="opacity:0.10000598"
               id="g238"
               clip-path="url(#clipPath232)"><g
                 id="g236"
                 transform="translate(755.0067,1207.4125)"><path
                   id="path234"
                   style="fill:#231f20;fill-opacity:1;fill-rule:nonzero;stroke:none"
                   d="m 0,0 c -14.734,1.374 -16.093,22.681 -3.761,25.117 -3.075,1.854 -6.016,4.184 -8.76,7.164 -10.235,11.117 1.122,25.715 7.119,37.22 -4.725,-0.196 -12.776,-0.44 -22.497,-0.864 C -39.411,52.143 -43.065,29.904 -31.575,12.198 -19.587,-6.273 2.29,-9.448 22.543,-4.547 35.359,-1.445 47.688,3.477 59.487,9.691 40.434,2.589 20.225,-1.886 0,0" /></g></g></g></g><g
           id="g242"><g
             id="g244" /><g
             id="g256"><g
               style="opacity:0.5"
               id="g254"
               clip-path="url(#clipPath248)"><g
                 id="g252"
                 transform="translate(971.6868,1089.1166)"><path
                   id="path250"
                   style="fill:#231f20;fill-opacity:1;fill-rule:nonzero;stroke:none"
                   d="m 0,0 c -17.117,10.451 -70.152,39.802 -83.816,46.165 -18.774,-28.619 -44.795,-58.187 -58.141,-89.627 25.113,36.571 55.398,76.982 58.984,76.982 1.686,0 77.309,-31.4 93.577,-41.731 0.945,-0.6 1.903,-1.005 2.867,-1.325 0.278,0.317 0.557,0.632 0.835,0.949 C 9.521,-5.753 4.748,-2.898 0,0" /></g></g></g></g><g
           id="g258"><g
             id="g260" /><g
             id="g272"><g
               style="opacity:0.5"
               id="g270"
               clip-path="url(#clipPath264)"><g
                 id="g268"
                 transform="translate(588.7253,1066.7169)"><path
                   id="path266"
                   style="fill:#231f20;fill-opacity:1;fill-rule:nonzero;stroke:none"
                   d="m 0,0 c -4.831,8.047 -9.74,16.03 -15.27,23.402 -6.992,9.322 -17.99,16.494 -17.701,29.41 0.28,12.493 60.261,103.983 71.926,120.43 8.337,11.754 16.369,22.135 28.472,29.302 -9.784,-1.94 -17.601,-4.395 -21.617,-7.523 C 40.043,190.529 -27.45,93.895 -53.893,51.555 -35.211,33.848 -19.252,13.272 -4.246,-7.697 -2.951,-5.067 -1.509,-2.513 0,0" /></g></g></g></g><g
           transform="translate(780.8965,1077.8403)"
           id="g274"><path
             id="path276"
             style="fill:#bfecff;fill-opacity:1;fill-rule:nonzero;stroke:none"
             d="m 0,0 c -14.867,-46.638 -58.642,-74 -98.136,-66.311 -38.212,7.438 -64.787,46.313 -59.985,91.58 5.431,51.201 48.435,93.473 97.14,87.796 C -10.206,107.146 16.96,53.203 0,0" /></g><g
           id="g278"><g
             id="g280" /><g
             id="g292"><g
               style="opacity:0.5"
               id="g290"
               clip-path="url(#clipPath284)"><g
                 id="g288"
                 transform="translate(655.1795,1191.3773)"><path
                   id="path286"
                   style="fill:#231f20;fill-opacity:1;fill-rule:nonzero;stroke:none"
                   d="m 0,0 c -14.08,-12.92 -28.16,-25.84 -42.24,-38.76 -14.422,-13.235 -30.17,-30.127 -26.632,-49.379 2.354,-12.81 16.578,-21.318 18.369,-34.218 0.697,-5.028 1.393,-56.463 4.146,-105.72 3.794,-67.865 -9.407,-121.446 -31.723,-153.192 12.988,-5.689 26.34,-10.546 39.947,-14.534 -9.665,8.608 -10.95,23.264 -9.312,36.102 2.253,17.654 8.657,34.496 12.305,51.916 5.908,28.214 -5.122,121.411 -0.587,138.398 1.512,5.667 4.576,11.746 10.228,13.314 2.786,0.774 5.745,0.296 8.611,-0.092 16.773,-2.272 44.583,10.221 49.777,8.599 3.29,-1.027 77.56,-39.201 112.125,16.861 7.692,12.475 8.388,25.492 18.314,36.274 -17.745,-8.888 -36.395,-15.97 -55.567,-21.1 -13.004,-3.48 -63.692,23.246 -77.401,21.92 -135.098,-13.067 -61.416,61.857 -45.643,76.399 C -8.924,-11.349 -3.727,-7.806 0,0" /></g></g></g></g><g
           transform="translate(588.0809,898.0314)"
           id="g294"><path
             id="path296"
             style="fill:#00a651;fill-opacity:1;fill-rule:nonzero;stroke:none"
             d="m 0,0 -229.394,-97.242 c -12.591,-5.338 -27.126,0.542 -32.464,13.134 L -406.694,257.56 c -5.338,12.592 0.543,27.126 13.134,32.464 l 229.394,97.242 c 12.592,5.338 27.126,-0.543 32.464,-13.134 L 13.134,32.464 C 18.472,19.872 12.591,5.338 0,0" /></g><g
           id="g298"><g
             id="g300" /><g
             id="g312"><g
               style="opacity:0.39999402"
               id="g310"
               clip-path="url(#clipPath304)"><g
                 id="g308"
                 transform="translate(604.0837,923.7283)"><path
                   id="path306"
                   style="fill:#231f20;fill-opacity:1;fill-rule:nonzero;stroke:none"
                   d="M 0,0 -7.129,16.818 C -21.785,0.992 -42.02,-5.81 -63.01,-11.196 c -24.931,-6.397 -49.513,-12.081 -73.789,-20.735 -19.48,-6.944 -43.498,-14.23 -64.081,-7.348 -17.021,5.691 -27.672,27.305 -35.756,41.803 -26.1,46.802 -42.266,98.708 -65.425,146.996 -21.311,44.433 -44.073,88.183 -64.339,133.104 l -49.929,-21.166 c -8.855,-3.753 -12.99,-13.974 -9.236,-22.828 l 150.573,-355.202 c 3.754,-8.854 13.974,-12.989 22.828,-9.236 L -9.236,-22.828 C -0.382,-19.075 3.753,-8.854 0,0" /></g></g></g></g><g
           transform="translate(587.6484,921.1844)"
           id="g314"><path
             id="path316"
             style="fill:#ffffff;fill-opacity:1;fill-rule:nonzero;stroke:none"
             d="m 0,0 -245.3,-103.985 -150.579,355.215 245.3,103.985 z" /></g><g
           id="g318"><g
             id="g320" /><g
             id="g332"><g
               style="opacity:0.10000598"
               id="g330"
               clip-path="url(#clipPath324)"><g
                 id="g328"
                 transform="translate(352.5374,1240.5653)"><path
                   id="path326"
                   style="fill:#231f20;fill-opacity:1;fill-rule:nonzero;stroke:none"
                   d="M 0,0 -160.768,-68.151 -10.189,-423.366 0,-419.047 Z" /></g></g></g></g><g
           transform="translate(366.6089,1220.7841)"
           id="g334"><path
             id="path336"
             style="fill:#58595b;fill-opacity:1;fill-rule:nonzero;stroke:none"
             d="m 0,0 -88.527,-37.528 c -10.91,-4.624 -23.504,0.471 -28.129,11.381 v 0 c -4.624,10.91 0.471,23.503 11.381,28.128 l 88.527,37.528 C -5.838,44.133 6.755,39.038 11.38,28.128 16.005,17.218 10.91,4.625 0,0" /></g><g
           id="g338"><g
             id="g340" /><g
             id="g352"><g
               style="opacity:0.30000299"
               id="g350"
               clip-path="url(#clipPath344)"><g
                 id="g348"
                 transform="translate(278.0816,1183.2566)"><path
                   id="path346"
                   style="fill:#231f20;fill-opacity:1;fill-rule:nonzero;stroke:none"
                   d="M 0,0 16.019,6.791 C 39.705,30.395 63.431,53.96 87.137,77.544 82.3,79.213 76.861,79.19 71.779,77.036 L -16.748,39.508 C -27.658,34.884 -32.753,22.29 -28.128,11.38 -23.503,0.47 -10.91,-4.625 0,0" /></g></g></g></g><g
           id="g354"><g
             id="g356" /><g
             id="g368"><g
               style="opacity:0.39999402"
               id="g366"
               clip-path="url(#clipPath360)"><g
                 id="g364"
                 transform="translate(509.1721,914.8748)"><path
                   id="path362"
                   style="fill:#231f20;fill-opacity:1;fill-rule:nonzero;stroke:none"
                   d="m 0,0 -9.724,22.974 48.659,20.727 9.763,-23.256 z m -168.156,-44.513 156.105,66.495 9.718,-22.961 -156.513,-65.71 z m 42.787,334.225 8.913,-21.059 -155.361,-66.248 -9.217,21.956 z m 60.61,0.985 -49.369,-21.052 -8.908,21.046 49.547,20.801 z m 9.257,-22.05 -49.313,-21.006 -8.328,19.675 49.363,21.049 z m -2.966,-130.508 -9.117,21.54 49.057,20.896 9.046,-21.548 z m 58.243,-1.162 -48.929,-20.842 -8.328,19.675 48.98,20.885 z m -19.798,-89.67 -9.116,21.539 48.631,20.715 -0.99,2.327 -48.627,-20.713 -8.328,19.675 48.849,20.83 18.303,-43.598 z m -1.341,-3.322 8.327,-19.674 -156.098,-66.493 -8.245,19.64 z m -10.103,23.87 9.117,-21.54 -156.009,-66.525 -9.079,21.626 z m -9.313,22.003 8.327,-19.675 -155.964,-66.435 -8.245,19.64 z m -7.389,23.948 48.923,20.839 8.662,-20.633 -48.855,-20.832 z m -2.327,-0.992 8.73,-20.627 -155.875,-66.467 -8.695,20.712 z m -9.313,22.003 8.327,-19.674 -155.833,-66.38 -8.245,19.64 z m -10.103,23.87 9.117,-21.54 -155.744,-66.412 -9.079,21.626 z m -9.313,22.003 8.327,-19.674 -155.699,-66.323 -8.245,19.64 z m -8.81,20.814 7.824,-18.485 -155.611,-66.354 -7.794,18.567 z m -9.312,22.003 8.327,-19.674 -155.575,-66.27 -8.245,19.64 z m 1.341,3.322 -7.823,18.483 49.306,21.003 7.761,-18.488 z m 9.313,-22.005 -8.327,19.675 49.237,20.996 8.279,-19.719 z m 58.908,-2.199 8.278,-19.719 -49.063,-20.899 -8.328,19.675 z m -50.099,-18.613 -7.823,18.483 49.181,20.95 7.762,-18.488 z m -184.708,-3.579 -8.245,19.64 155.367,66.251 8.327,-19.675 z m 156.435,63.888 7.824,-18.485 -155.486,-66.301 -7.794,18.567 z M 37.956,46.032 -10.709,25.302 -19.037,44.977 29.678,65.75 Z m -5.951,20.71 0.134,0.057 -0.993,2.327 -0.12,-0.051 -37.202,88.612 0.378,0.161 -0.993,2.327 -0.364,-0.156 -54.299,129.338 0.015,0.006 -0.993,2.327 -10e-4,-10e-4 -9.214,21.948 -0.489,1.167 -211.043,-88.6 -1.167,-0.489 124.146,-295.714 211.043,88.601 1.167,0.489 z" /></g></g></g></g><g
           transform="translate(1115.369,1298.7551)"
           id="g370"><path
             id="path372"
             style="fill:#a96f36;fill-opacity:1;fill-rule:nonzero;stroke:none"
             d="m 0,0 c 7.322,-2.707 15.353,-2.759 23.133,-2.117 18.872,1.556 37.411,7.042 54.091,16.007 -18.735,-38.406 -50.045,-71.127 -89.012,-88.663 -38.968,-17.535 -85.517,-19.006 -124.319,-1.107 -19.714,9.095 -36.954,22.714 -53.638,36.607 -23.817,19.834 -47.627,41.417 -60.189,69.752 -14.05,31.689 -12.288,68.426 -3.482,101.953 8.806,33.527 24.184,64.886 37.108,97.05 36.285,90.309 53.357,188.285 49.753,285.544 -0.826,22.312 -2.715,44.805 0.793,66.855 5.862,36.848 27.407,70.937 58.175,92.044 5.643,3.871 11.709,7.374 18.407,8.774 6.968,1.457 14.203,0.554 21.212,-0.693 65.32,-11.62 124.375,-54.431 155.734,-112.898 12.328,-22.984 20.494,-48.011 26.351,-73.426 9.559,-41.484 13,-85.35 1.648,-126.38 C 108.177,341.876 94.257,316.635 79.083,292.562 49.872,246.218 15.556,203.077 -10.88,155.096 -22.992,133.113 -33.531,109.742 -36.666,84.84 -39.801,59.938 -34.751,33.137 -18.576,13.945 -13.53,7.958 -7.344,2.715 0,0" /></g><g
           id="g374"><g
             id="g376" /><g
             id="g434"><g
               style="opacity:0.19999701"
               id="g432"
               clip-path="url(#clipPath380)"><g
                 id="g430"><g
                   id="g428"
                   clip-path="url(#clipPath384)"><g
                     id="g426"><g
                       id="g418" /><g
                       id="g424"
                       mask="url(#mask398)"><g
                         id="g422"><path
                           id="path420"
                           style="fill:url(#linearGradient416);stroke:none"
                           d="m 1115.369,1298.755 c 7.322,-2.707 15.353,-2.759 23.133,-2.117 18.872,1.556 37.411,7.043 54.091,16.007 -18.735,-38.406 -50.045,-71.127 -89.012,-88.663 -38.968,-17.535 -85.517,-19.006 -124.319,-1.107 -19.714,9.095 -36.954,22.714 -53.638,36.607 -23.817,19.834 -47.627,41.417 -60.189,69.752 -14.05,31.689 -12.288,68.426 -3.482,101.953 8.806,33.527 24.184,64.886 37.108,97.051 36.285,90.309 53.357,188.284 49.754,285.543 -0.827,22.312 -2.716,44.805 0.792,66.855 5.862,36.848 27.407,70.937 58.175,92.044 5.643,3.871 11.709,7.374 18.407,8.774 6.968,1.457 14.203,0.555 21.212,-0.692 65.32,-11.621 124.375,-54.432 155.734,-112.899 12.328,-22.984 20.494,-48.011 26.351,-73.426 9.559,-41.484 13,-85.35 1.648,-126.38 -7.588,-27.426 -21.508,-52.667 -36.682,-76.739 -29.211,-46.345 -63.527,-89.485 -89.963,-137.467 -12.112,-21.983 -22.651,-45.353 -25.786,-70.256 -3.135,-24.902 1.915,-51.703 18.09,-70.895 5.046,-5.987 11.232,-11.23 18.576,-13.945" /></g></g></g></g></g></g></g></g><g
           id="g436"><g
             id="g438" /><g
             id="g450"><g
               style="opacity:0.19999701"
               id="g448"
               clip-path="url(#clipPath442)"><g
                 id="g446"
                 transform="translate(883.3492,1313.1182)"><path
                   id="path444"
                   style="fill:#231f20;fill-opacity:1;fill-rule:nonzero;stroke:none"
                   d="m 0,0 c -28.643,34.046 -31.384,83.708 -20.514,126.852 10.87,43.144 33.419,82.256 51.283,123.005 22.009,50.205 37.14,104 38.624,158.797 0.977,36.079 -3.936,72.393 0.848,108.166 2.637,19.722 8.224,39.046 16.518,57.132 14.807,32.291 42.802,62.823 78.309,63.947 26.903,0.851 51.165,-15.226 72.444,-31.711 16.983,-13.157 33.522,-27.102 47.328,-43.562 29.409,-35.062 45.17,-80.879 45.556,-126.641 C 330.905,375.637 307.857,324.424 275.322,274.652 246.296,230.249 213.1,187.531 195.597,137.453 178.095,87.376 179.44,26.544 214.863,-12.945 c -14.497,4.572 -25.944,16.169 -33.512,29.351 -7.568,13.182 -11.74,27.991 -15.84,42.628 3.143,-11.221 -0.294,-25.014 3.279,-37.112 3.825,-12.953 10.386,-24.533 18.943,-34.922 16.095,-19.542 39.698,-33.747 65.751,-31.868 -25.601,-17.572 -62.702,-11.878 -86.129,8.503 -21.215,18.458 -34.124,58.518 -36.138,86.09 -1.211,16.569 3.041,33.044 8.242,48.822 29.161,88.461 87.794,164.303 111.792,254.638 -7.019,-22.061 -18.662,-42.343 -30.936,-61.971 -21.694,-34.693 -45.67,-68.019 -65.094,-104.033 -19.423,-36.013 -34.335,-75.351 -36.048,-116.232 -3.021,50.816 19.251,99.499 43.463,144.279 24.213,44.779 51.379,89.514 59.592,139.753 -13.334,-16.637 -20.917,-41.047 -31.17,-59.856 -11.666,-21.401 -23.876,-42.498 -35.937,-63.677 -27.968,-49.112 -53.504,-96.162 -52.669,-154.642 0.789,-55.318 27.553,-111.896 75.432,-139.614 -41.492,11.263 -73.178,47.854 -85.741,88.971 -12.563,41.116 -7.986,85.944 5.088,126.9 13.074,40.957 34.235,78.782 55.254,116.286 -18.666,-18.716 -29.421,-43.59 -41.569,-66.6 C 97.221,176.811 84.489,149.825 76.331,121.585 66.943,89.085 64.139,53.82 74.437,21.597 c 6.507,-20.361 18.017,-38.849 31.58,-55.371 20.951,-25.52 51.001,-48.079 83.842,-44.654 -19.683,0.994 -39.472,-2.375 -59.076,-0.355 -55.601,5.731 -99.503,55.739 -111.71,110.286 -12.206,54.547 1.933,111.873 24.554,162.988 22.62,51.114 53.545,98.149 77.467,148.667 23.89,50.451 40.679,104.259 49.719,159.344 2.701,16.462 4.514,34.263 -3.251,49.028 6.3,-27.408 0.577,-56.092 -7.034,-83.166 C 129.539,358.13 68.164,259.374 19.596,155.678 8.113,131.162 -2.757,106.056 -7.814,79.46 -12.871,52.864 -11.747,24.391 0,0" /></g></g></g></g><g
           id="g452"><g
             id="g454" /><g
             id="g466"><g
               style="opacity:0.30000299"
               id="g464"
               clip-path="url(#clipPath458)"><g
                 id="g462"
                 transform="translate(1139.4402,1566.6682)"><path
                   id="path460"
                   style="fill:#ffffff;fill-opacity:1;fill-rule:nonzero;stroke:none"
                   d="m 0,0 c -8.524,-20.594 -16.065,-42.053 -26.676,-60.687 -29.3,-51.448 -65.82,-94.058 -62.502,-157.461 -5.361,36.762 -0.874,74.913 12.87,109.428 -10.962,-21.503 -17.653,-45.173 -19.571,-69.232 -5.922,30.978 -2.704,63.646 9.146,92.875 -41.224,-64.011 -51.016,-147.269 -25.768,-219.098 -28.605,42.603 -30.113,97.209 -30.648,148.521 -5.7,-20.85 -7.968,-42.635 -6.684,-64.212 -3.786,15.344 -7.572,30.689 -11.358,46.033 -4.664,-30.035 -4.373,-60.834 0.858,-90.776 -17.557,39.279 -23.718,83.573 -17.549,126.153 -16.206,-33.878 -16.688,-72.857 -16.859,-110.412 -7.618,28.595 -13.106,57.757 -16.404,87.165 -8.496,-35.994 -7.648,-74.15 2.438,-109.73 -17.013,34.281 -18.15,75.208 -7.311,111.912 10.84,36.703 32.957,69.389 59.852,96.615 -6.851,-17.172 -10.902,-35.458 -11.944,-53.918 3.825,67.764 72.589,128.467 103.462,184.858 35.61,65.043 51.896,140.774 44.795,214.677 16.231,-60.004 13.75,-124.583 -4.677,-183.949 8.371,20.726 16.742,41.452 25.113,62.178 C -7.884,124.398 -18.484,88.35 -31.144,53.041 -8.54,94.346 10.168,138.672 15.286,185.48 20.403,232.287 10.722,282.065 -18.536,318.958 21.48,280.887 34.852,221.249 29.34,166.292 23.828,111.335 1.888,59.554 -19.792,8.755 -2.364,46.968 15.065,85.182 32.493,123.396 52.25,166.715 72.209,216.527 53.43,260.279 74.44,209.763 64.926,151.439 45.448,100.313 34.813,72.396 21.35,45.715 8.359,18.852 5.396,12.726 2.651,6.405 0,0" /></g></g></g></g><g
           transform="translate(572.5723,1786.2725)"
           id="g468"><path
             id="path470"
             style="fill:#ffbe87;fill-opacity:1;fill-rule:nonzero;stroke:none"
             d="m 0,0 c -8.969,-15.004 -9.09,-33.53 -8.265,-50.991 1.865,-39.509 7.236,-78.852 16.031,-117.415 3.448,-15.118 7.435,-30.803 4.001,-45.924 -2.522,-11.108 -8.902,-21.051 -11.39,-32.166 -4.195,-18.741 3.12,-37.997 11.146,-55.445 19.751,-42.936 47.021,-81.745 74.123,-120.464 56.682,-80.978 114.58,-25.619 146.716,-9.378 151.596,76.616 156.18,153.791 151.596,153.838 74.73,-56.048 164.407,206.755 31.065,112.183 14.673,14.115 46.156,99.554 33.183,157.179 -9.447,41.961 -34.717,79.644 -68.401,106.389 -33.684,26.745 -74.875,43.099 -117.175,50.886 -18.096,3.331 -36.58,5.157 -54.918,3.642 -18.136,-1.498 -35.866,-6.239 -53.096,-12.096 C 120.749,128.727 88.035,112.582 61.02,89.136 33.937,65.632 9.47,38.307 0.506,3.586 0.393,3.15 0.331,2.584 0.714,2.346 1.096,2.108 0.449,0.033 0,0" /></g><g
           id="g472"><g
             id="g474" /><g
             id="g486"><g
               style="opacity:0.19999701"
               id="g484"
               clip-path="url(#clipPath478)"><g
                 id="g482"
                 transform="translate(1020.7783,1777.6897)"><path
                   id="path480"
                   style="fill:#231f20;fill-opacity:1;fill-rule:nonzero;stroke:none"
                   d="m 0,0 c -9.447,41.961 -34.717,79.644 -68.401,106.389 -33.684,26.745 -74.875,43.099 -117.175,50.885 -18.096,3.332 -36.58,5.158 -54.918,3.643 -18.136,-1.498 -35.866,-6.24 -53.096,-12.096 -33.868,-11.511 -66.581,-27.656 -93.596,-51.102 -27.083,-23.504 -51.55,-50.829 -60.514,-85.55 -0.113,-0.436 -0.175,-1.002 0.208,-1.24 0.382,-0.238 -0.265,-2.313 -0.714,-2.346 -8.969,-15.004 -9.09,-33.531 -8.265,-50.991 1.865,-39.509 7.237,-78.852 16.031,-117.415 3.448,-15.118 7.435,-30.803 4.001,-45.924 -2.522,-11.108 -8.902,-21.051 -11.39,-32.166 -4.195,-18.741 3.12,-37.997 11.146,-55.445 19.751,-42.936 47.021,-81.745 74.123,-120.464 28.361,-40.517 57.025,-46.898 82.615,-41.129 -12.682,1.252 -24.951,5.179 -36.251,12.969 -24.022,16.56 -122.737,147.751 -113.474,202.728 2.796,16.597 5.915,32.661 4.226,49.561 -1.118,11.186 -2.85,22.421 -4.748,33.489 -1.432,8.353 -7.918,18.091 -5.813,26.522 1.636,6.556 8.497,10.209 14.791,12.669 7.737,3.023 32.964,3.511 43.085,2.415 -16.034,4.302 -20.42,14.755 -63.383,-0.15 -5.649,14.128 -2.699,34.467 12.308,41.354 14.419,6.618 31.992,8.123 47.398,11.77 19.007,4.499 38.039,8.9 57.015,13.531 33.021,8.057 66.519,15.875 98.574,27.295 25.346,9.029 51.856,20.088 64.493,34.12 1.059,5.245 5.308,9.716 10.189,10.85 0.316,0.396 0.654,0.769 0.963,1.171 9.806,12.724 31.795,0.154 21.839,-12.765 -0.666,-0.864 -1.368,-1.682 -2.052,-2.524 23.686,-21.83 54.387,-36.919 69.425,-66.659 10.564,-20.89 14.891,-43.829 19.892,-66.498 2.509,-11.373 2.743,-23.072 3.362,-34.691 2.204,-0.635 4.198,-1.84 5.709,-3.571 2.538,3.442 5.212,6.791 7.968,10.08 -2.808,-1.791 -5.717,-3.74 -8.754,-5.894 C -18.51,-143.065 12.973,-57.626 0,0" /></g></g></g></g><g
           transform="translate(1043.0488,1585.6021)"
           id="g488"><path
             id="path490"
             style="fill:#c48a4a;fill-opacity:1;fill-rule:nonzero;stroke:none"
             d="m 0,0 c 2.54,7.369 3.1,15.411 1.605,23.061 -0.384,1.967 -1.086,4.144 -2.892,5.012 -0.966,0.464 -2.087,0.459 -3.156,0.378 -9.237,-0.697 -17.439,-6.244 -24.064,-12.72 -20.728,-20.262 -32.251,-41.667 -37.309,-68.977 9.484,51.214 55.416,46.42 51.08,47.178 -11.589,2.027 -22.805,-0.183 -31.803,-5.739 C -42.671,-9.418 6.897,60.881 0,0" /></g><g
           transform="translate(729.3364,1400.0541)"
           id="g492"><path
             id="path494"
             style="fill:#ffffff;fill-opacity:1;fill-rule:nonzero;stroke:none"
             d="m 0,0 c -10.094,-0.06 -20.789,3.346 -26.879,11.396 -3.364,4.446 -5.054,9.892 -6.99,15.12 -5.963,16.11 -14.804,31.15 -25.979,44.197 55.843,7.322 114.05,-5.999 168.153,9.648 C 94.067,65.226 79.487,50.413 64.58,35.938 46.443,18.326 25.28,0.151 0,0" /></g><g
           transform="translate(700.3935,1386.3658)"
           id="g496"><path
             id="path498"
             style="fill:#e6535f;fill-opacity:1;fill-rule:nonzero;stroke:none"
             d="M 0,0 C -12.36,9.521 -30.756,69.75 -28.605,84.631 -18.738,71.498 1.343,26.023 7.564,20.687 c 6.996,-6.001 17.185,-7.143 26.161,-5.044 8.976,2.098 17.005,7.026 24.679,12.131 21.802,14.504 42.225,31.079 60.904,49.43 6.613,6.497 13.344,13.433 22.103,16.472 C 126.103,72.232 109.689,51.578 92.258,31.823 80.353,18.331 67.553,4.946 51.247,-2.663 34.942,-10.271 14.254,-10.98 0,0" /></g><g
           id="g500"><g
             id="g502" /><g
             id="g514"><g
               style="opacity:0.30000299"
               id="g512"
               clip-path="url(#clipPath506)"><g
                 id="g510"
                 transform="translate(790.0782,1417.9167)"><path
                   id="path508"
                   style="fill:#231f20;fill-opacity:1;fill-rule:nonzero;stroke:none"
                   d="m 0,0 c -18.174,-15.664 -40.396,-40.051 -66.591,-35.593 -10.643,1.811 -11.222,13.127 -5.761,19.762 -3.58,0.945 -6.941,2.542 -9.769,4.967 -6.22,5.336 -26.301,50.811 -36.168,63.945 -2.152,-14.882 16.244,-75.111 28.604,-84.632 14.255,-10.98 34.942,-10.271 51.248,-2.663 16.305,7.609 29.105,20.994 41.01,34.486 2.918,3.307 5.765,6.676 8.625,10.032 C 7.552,6.771 3.84,3.31 0,0" /></g></g></g></g><g
           transform="translate(662.5228,1471.3723)"
           id="g516"><path
             id="path518"
             style="fill:#d64552;fill-opacity:1;fill-rule:nonzero;stroke:none"
             d="M 0,0 C 6.277,9.375 18.865,11.776 30.119,12.584 79.474,16.125 132.045,6.966 181.496,8.723 140.822,0.147 95.825,-3.424 54.279,-4.765 36.021,-5.355 17.296,-5.879 0,0" /></g><g
           id="g520"><g
             id="g522" /><g
             id="g534"><g
               style="opacity:0.30000299"
               id="g532"
               clip-path="url(#clipPath526)"><g
                 id="g530"
                 transform="translate(748.1129,1483.8783)"><path
                   id="path528"
                   style="fill:#231f20;fill-opacity:1;fill-rule:nonzero;stroke:none"
                   d="m 0,0 c -18.715,0.959 -37.312,1.381 -55.471,0.078 -11.254,-0.807 -23.842,-3.208 -30.119,-12.584 17.296,-5.879 36.021,-5.355 54.279,-4.765 7.58,0.245 15.298,0.596 23.061,1.006 C -33.277,-9.693 -7.385,-1.877 0,0" /></g></g></g></g></g></g><g
       id="g536"><g
         clip-path="url(#clipPath542)"
         id="g538"><g
           transform="translate(609.9137,1581.7084)"
           id="g544"><path
             id="path546"
             style="fill:#ffffff;fill-opacity:1;fill-rule:nonzero;stroke:none"
             d="M 0,0 C 19.792,-16.055 53.603,-5.406 76.34,-16.918 77.586,46.188 15.768,73.169 -11.847,47.387 -20.974,38.866 -10.429,8.46 0,0" /></g><g
           transform="translate(719.8828,1604.2317)"
           id="g548"><path
             id="path550"
             style="fill:#76a635;fill-opacity:1;fill-rule:nonzero;stroke:none"
             d="m 0,0 c -0.945,-22.68 -24.796,-39.856 -52.311,-39.856 -27.516,0 -49.821,18.402 -49.821,41.101 0,22.7 23.551,48.575 51.066,48.575 C -23.551,49.82 1.246,29.892 0,0" /></g><g
           transform="translate(690.6317,1604.0724)"
           id="g552"><path
             id="path554"
             style="fill:#000000;fill-opacity:1;fill-rule:nonzero;stroke:none"
             d="m 0,0 c -0.503,-12.065 -13.191,-21.203 -27.828,-21.203 -14.638,0 -23.675,11.237 -23.675,23.313 0,12.075 9.7,24.393 24.337,24.393 C -12.528,26.503 0.663,15.902 0,0" /></g><g
           id="g556"><g
             id="g558" /><g
             id="g570"><g
               style="opacity:0.39999402"
               id="g568"
               clip-path="url(#clipPath562)"><g
                 id="g566"
                 transform="translate(690.6317,1604.0724)"><path
                   id="path564"
                   style="fill:none;stroke:#ffffff;stroke-width:14.38599968;stroke-linecap:butt;stroke-linejoin:miter;stroke-miterlimit:4;stroke-dasharray:none;stroke-opacity:1"
                   d="m 0,0 c -0.503,-12.065 -13.191,-21.203 -27.828,-21.203 -14.638,0 -23.675,11.237 -23.675,23.313 0,12.075 9.7,24.393 24.337,24.393 C -12.528,26.503 0.663,15.902 0,0 Z" /></g></g></g></g><g
           transform="translate(692.8649,1604.9492)"
           id="g572"><path
             id="path574"
             style="fill:#ffffff;fill-opacity:1;fill-rule:nonzero;stroke:none"
             d="m 0,0 c -0.336,-8.074 -8.827,-14.188 -18.622,-14.188 -9.794,0 -15.842,7.519 -15.842,15.6 0,8.08 6.491,16.323 16.286,16.323 C -8.384,17.735 0.443,10.641 0,0" /></g></g></g><g
       id="g576"><g
         clip-path="url(#clipPath582)"
         id="g578"><g
           transform="translate(866.9797,1572.2391)"
           id="g584"><path
             id="path586"
             style="fill:#ffffff;fill-opacity:1;fill-rule:nonzero;stroke:none"
             d="m 0,0 c -36.324,-4.92 -70.087,-3.359 -106.411,-8.279 3.931,25.538 15.918,42.793 36.89,57.885 C -48.548,64.698 -21.42,70.952 4.043,66.567 15.048,64.671 26.081,60.646 33.977,52.748 41.872,44.851 45.952,32.497 41.882,22.098 35.83,6.636 16.454,2.229 0,0" /></g><g
           transform="translate(914.1825,1604.2317)"
           id="g588"><path
             id="path590"
             style="fill:#76a635;fill-opacity:1;fill-rule:nonzero;stroke:none"
             d="m 0,0 c -0.945,-22.68 -24.796,-39.856 -52.311,-39.856 -27.515,0 -49.821,18.402 -49.821,41.101 0,22.7 23.551,48.575 51.066,48.575 C -23.551,49.82 1.246,29.892 0,0" /></g><g
           transform="translate(891.5838,1606.412)"
           id="g592"><path
             id="path594"
             style="fill:#000000;fill-opacity:1;fill-rule:nonzero;stroke:none"
             d="m 0,0 c -0.531,-12.754 -11.787,-22.413 -27.261,-22.413 -15.473,0 -25.859,10.348 -25.859,23.113 0,12.766 11.087,27.317 26.56,27.317 C -11.087,28.017 0.7,16.81 0,0" /></g><g
           id="g596"><g
             id="g598" /><g
             id="g610"><g
               style="opacity:0.39999402"
               id="g608"
               clip-path="url(#clipPath602)"><g
                 id="g606"
                 transform="translate(891.5838,1606.412)"><path
                   id="path604"
                   style="fill:none;stroke:#ffffff;stroke-width:14.38599968;stroke-linecap:butt;stroke-linejoin:miter;stroke-miterlimit:4;stroke-dasharray:none;stroke-opacity:1"
                   d="m 0,0 c -0.531,-12.754 -11.787,-22.413 -27.261,-22.413 -15.473,0 -25.859,10.348 -25.859,23.113 0,12.766 11.087,27.317 26.56,27.317 C -11.087,28.017 0.7,16.81 0,0 Z" /></g></g></g></g><g
           transform="translate(903.9963,1606.7386)"
           id="g612"><path
             id="path614"
             style="fill:#ffffff;fill-opacity:1;fill-rule:nonzero;stroke:none"
             d="m 0,0 c -0.35,-8.389 -7.753,-14.742 -17.931,-14.742 -10.177,0 -17.009,6.806 -17.009,15.203 0,8.396 7.292,17.967 17.47,17.967 C -7.293,18.428 0.461,11.057 0,0" /></g></g></g><g
       id="g616"><g
         clip-path="url(#clipPath622)"
         id="g618"><g
           transform="translate(838.0815,1634.8788)"
           id="g624"><path
             id="path626"
             style="fill:#3c2415;fill-opacity:1;fill-rule:nonzero;stroke:none"
             d="m 0,0 c 16.144,1.577 29.601,-1.959 44.645,-7.026 36.853,-12.411 54.531,-4.651 63.282,1.945 C 95.783,-5.416 83.599,-4.305 71.717,-1.777 66.056,-0.573 27.526,18.758 -6.518,12.946 -64.793,2.996 -77.215,-70.18 -72.945,-71.749 -68.254,-31.901 -41.463,-4.051 0,0" /></g><g
           transform="translate(636.7466,1637.6508)"
           id="g628"><path
             id="path630"
             style="fill:#3c2415;fill-opacity:1;fill-rule:nonzero;stroke:none"
             d="m 0,0 c -10.995,2.193 -20.164,-0.829 -30.413,-5.322 -25.108,-11.004 -37.146,-2.569 -43.103,4.362 8.272,-0.799 16.571,-0.153 24.666,1.921 3.856,0.988 30.109,18.848 53.296,11.736 C 44.135,0.523 52.563,-73.128 49.653,-74.534 46.476,-34.506 28.241,-5.633 0,0" /></g><g
           id="g632"><g
             id="g634" /><g
             id="g646"><g
               style="opacity:0.30000299"
               id="g644"
               clip-path="url(#clipPath638)"><g
                 id="g642"
                 transform="translate(919.063,1594.7408)"><path
                   id="path640"
                   style="fill:#ffffff;fill-opacity:1;fill-rule:nonzero;stroke:none"
                   d="m 0,0 c -16.726,-22.451 -38.263,-25.135 -64.092,-26.783 -24.127,-1.539 -92.768,-9.547 -87.656,-8.625 30.836,5.56 76.744,0.892 107.373,7.069 C 0,-19.39 1.167,1.566 0,0" /></g></g></g></g><g
           id="g648"><g
             id="g650" /><g
             id="g662"><g
               style="opacity:0.30000299"
               id="g660"
               clip-path="url(#clipPath654)"><g
                 id="g658"
                 transform="translate(688.2954,1563.2034)"><path
                   id="path656"
                   style="fill:#ffffff;fill-opacity:1;fill-rule:nonzero;stroke:none"
                   d="M 0,0 C -9.69,6.373 -20.686,8.247 -32.179,7.892 -52.203,7.273 -69.986,6.083 -86.987,18.448 -88.728,19.714 -72.333,1.836 -59.24,1.188 -41.23,0.297 1.242,-0.817 0,0" /></g></g></g></g><g
           transform="translate(773.5391,1705.0026)"
           id="g664"><path
             id="path666"
             style="fill:#9c6939;fill-opacity:1;fill-rule:nonzero;stroke:none"
             d="M 0,0 C 0.008,-0.11 0.015,-0.221 0.021,-0.331 0.298,-6.053 6.08,-10.525 11.203,-7.961 83.765,28.347 142.719,2.606 167.629,-13.17 106.184,49.106 2.277,3.183 0,0" /></g><g
           transform="translate(563.8698,1704.2792)"
           id="g668"><path
             id="path670"
             style="fill:#9c6939;fill-opacity:1;fill-rule:nonzero;stroke:none"
             d="m 0,0 c 0.201,-2.153 0.372,-4.306 0.521,-6.461 23.504,11.54 57.487,17.753 96.606,-6.091 3.956,-2.412 8.42,2.231 8.634,7.962 0.005,0.11 0.01,0.221 0.016,0.331 C 104.288,-1.619 46.482,29.515 0,0" /></g><g
           transform="translate(852.3345,1996.4746)"
           id="g672"><path
             id="path674"
             style="fill:#a66d35;fill-opacity:1;fill-rule:nonzero;stroke:none"
             d="m 0,0 c 285.676,-49.059 262.167,-295.289 167.112,-373.288 -21.294,-17.473 -45.471,-34.056 -56.304,-59.381 3.062,7.159 18.551,126.656 -11.97,190.585 -39.625,82.998 -203.483,105.413 -253.731,94.225 -26.143,-5.821 -53.223,-12.315 -79.396,-6.629 -26.173,5.687 -46.489,28.094 -42.291,54.547 C -264.776,-25.55 -79.413,13.638 0,0" /></g><g
           transform="translate(895.01,1916.2991)"
           id="g676"><path
             id="path678"
             style="fill:#b57a42;fill-opacity:1;fill-rule:nonzero;stroke:none"
             d="m 0,0 c -0.433,0.573 -0.856,1.166 -1.363,1.69 -22.489,23.24 -180.758,19.481 -239.598,1.144 -66.923,-20.857 -108.033,-74.43 -149.542,-139.255 -14.232,-22.228 -16.802,-53.103 -4.276,-76.335 6.483,-12.024 59.629,-53.771 75.502,-65.596 -1.781,5.188 -8.011,51.647 -6.898,54.577 1.149,3.445 26.624,14.261 31.591,16.64 18.954,9.076 40.227,14.89 59.965,22.118 l 121.644,44.545 c 31.933,11.694 64.884,24.013 89.275,47.71 C -4.564,-74.17 19.986,-26.447 0,0" /></g><g
           id="g680"><g
             id="g682" /><g
             id="g740"><g
               style="opacity:0.30000299"
               id="g738"
               clip-path="url(#clipPath686)"><g
                 id="g736"><g
                   id="g734"
                   clip-path="url(#clipPath690)"><g
                     id="g732"><g
                       id="g724" /><g
                       id="g730"
                       mask="url(#mask704)"><g
                         id="g728"><path
                           id="path726"
                           style="fill:url(#linearGradient722);stroke:none"
                           d="m 895.01,1916.299 c -0.433,0.573 -0.856,1.166 -1.363,1.69 -22.489,23.24 -180.758,19.481 -239.598,1.144 -66.923,-20.857 -108.033,-74.43 -149.542,-139.255 -14.232,-22.228 -16.802,-53.103 -4.276,-76.335 6.483,-12.024 59.629,-53.771 75.502,-65.596 -1.781,5.188 -8.011,51.647 -6.898,54.577 1.149,3.445 26.624,14.261 31.591,16.64 18.954,9.076 40.227,14.89 59.965,22.118 l 121.644,44.545 c 31.933,11.694 64.884,24.013 89.275,47.71 19.136,18.592 43.686,66.315 23.7,92.762" /></g></g></g></g></g></g></g></g><g
           id="g742"><g
             id="g744" /><g
             id="g756"><g
               style="opacity:0.19999701"
               id="g754"
               clip-path="url(#clipPath748)"><g
                 id="g752"
                 transform="translate(585.446,1796.0283)"><path
                   id="path750"
                   style="fill:#231f20;fill-opacity:1;fill-rule:nonzero;stroke:none"
                   d="m 0,0 c -18.929,-17.35 -36.462,-37.392 -44.735,-61.7 -8.273,-24.307 -5.614,-53.63 12.013,-72.302 -10.023,18.25 -9.973,40.888 -3.215,60.582 6.757,19.694 19.642,36.762 34.194,51.653 50.659,51.843 120.66,79.126 188.388,104.95 C 121.8,55.692 55.916,25.227 7.622,-26.039 62.201,17.387 125.816,49.401 193.211,67.36 112.71,32.413 28.351,-5.878 -22.739,-77.233 56.817,1.277 174.062,26.559 267.286,88.224 184.095,21.379 85.886,-23.552 -5.77,-78.216 c -9.299,-5.547 -18.9,-11.556 -24.441,-20.858 -5.54,-9.303 -5.48,-22.883 3.04,-29.565 -4.619,8.621 -1.644,19.744 4.639,27.24 6.283,7.496 15.253,12.132 24.042,16.425 82.564,40.328 171.249,67.617 251.948,111.559 22.517,12.261 45.294,26.743 57.828,49.109 3.077,5.49 5.512,11.585 5.299,17.876 -0.335,9.883 -7.103,18.421 -14.74,24.704 -26.156,21.517 -62.971,24.048 -96.73,21.312 -75.705,-6.135 -152.18,-36.4 -214.122,-80.3 -31.175,-22.095 -58.371,-51.511 -71.347,-87.451 -4.293,-11.892 -6.994,-24.719 -4.896,-37.187 3.675,-21.841 20.983,-38.456 37.34,-53.389 -16.361,17.784 -19.927,44.479 -15.101,68.158 6.776,33.244 26.125,61.351 52.035,82.755 C 13.297,52.223 46.431,73.046 76.929,80.893 49.207,62.011 5.75,37.019 -17.932,13.267 -41.615,-10.485 -45.534,-33.385 -54.912,-65.588 -23.623,24.016 70.03,53.796 103.608,66.463 65.182,51.967 30.098,27.587 0,0" /></g></g></g></g><g
           id="g758"><g
             id="g760" /><g
             id="g772"><g
               style="opacity:0.19999701"
               id="g770"
               clip-path="url(#clipPath764)"><g
                 id="g768"
                 transform="translate(1025.0469,1627.3226)"><path
                   id="path766"
                   style="fill:#231f20;fill-opacity:1;fill-rule:nonzero;stroke:none"
                   d="M 0,0 C -24.208,15.623 -44.077,37.901 -56.853,63.724 -58.643,58.485 -60.085,53.38 -56.588,40.361 -50.168,16.468 -26.99,-1.554 -2.447,-2.955 -1.648,-1.963 -0.826,-0.98 0,0" /></g></g></g></g><g
           id="g774"><g
             id="g776" /><g
             id="g788"><g
               style="opacity:0.19999701"
               id="g786"
               clip-path="url(#clipPath780)"><g
                 id="g784"
                 transform="translate(998.4357,1661.6312)"><path
                   id="path782"
                   style="fill:#231f20;fill-opacity:1;fill-rule:nonzero;stroke:none"
                   d="m 0,0 c 8.725,-6.232 26.589,-12.903 42.231,-15.448 1.966,2.786 3.813,5.654 5.577,8.575 -27.79,16.588 -65.311,40.62 -83.237,65.701 0.396,-1.932 7.344,-23.061 5.742,-27.791 C -20.907,19.6 -11.697,8.355 0,0" /></g></g></g></g><g
           id="g790"><g
             id="g792" /><g
             id="g804"><g
               style="opacity:0.19999701"
               id="g802"
               clip-path="url(#clipPath796)"><g
                 id="g800"
                 transform="translate(1064.0922,1690.6425)"><path
                   id="path798"
                   style="fill:#231f20;fill-opacity:1;fill-rule:nonzero;stroke:none"
                   d="m 0,0 c -30.997,20.715 -74.832,42.294 -102.725,58.406 30.577,-4.019 77.867,-22.014 109.48,-40.828 0.681,1.976 1.335,3.959 1.963,5.949 -30.398,30.448 -82.712,57.602 -119.757,64.68 36.245,3.866 86.864,-16.798 126.401,-37.435 1.211,7.213 1.971,14.515 2.223,21.9 -23.119,23.213 -54.339,44.029 -77.369,54.567 -35.561,16.27 -77.382,18.352 -114.383,5.695 35.264,-24.553 62.991,-58.731 73.081,-99.955 C -79.742,13.551 -35.378,-1.831 -3.768,-8.579 -2.47,-5.736 -1.216,-2.875 0,0" /></g></g></g></g><g
           id="g806"><g
             id="g808" /><g
             id="g820"><g
               style="opacity:0.30000299"
               id="g818"
               clip-path="url(#clipPath812)"><g
                 id="g816"
                 transform="translate(511.9164,1773.9128)"><path
                   id="path814"
                   style="fill:#ffffff;fill-opacity:1;fill-rule:nonzero;stroke:none"
                   d="M 0,0 C 9.836,17.603 22.841,33.428 38.203,46.491 29.383,34.486 21.929,21.479 16.032,7.8 23.87,17.422 31.709,27.044 39.547,36.666 28.629,20.634 19.836,3.157 13.472,-15.166 35.857,26.165 72.515,59.589 115.732,78.071 81.076,58.373 52.403,28.302 34.376,-7.253 49.939,14.124 69.553,32.54 91.866,46.728 72.123,31.424 55.854,11.663 44.625,-10.652 70.449,21.28 104.359,46.62 142.299,62.337 114.042,44.747 88.753,22.403 67.815,-3.472 81.651,9.01 97.021,19.791 113.468,28.55 103.855,20.207 94.242,11.864 84.628,3.521 86.325,4.469 88.262,2.001 87.65,0.155 87.038,-1.69 85.122,-2.717 83.372,-3.563 115.327,19.384 149.218,39.634 184.566,56.903 155.881,34.841 126.524,13.653 96.549,-6.622 c 24.31,14.776 49.878,27.48 76.337,37.929 -18.638,-9.952 -36.33,-21.674 -52.761,-34.957 16.36,7.916 32.721,15.832 49.081,23.748 L 132.221,-5.399 c 39.22,16.565 78.188,33.728 116.886,51.479 -46.302,-34.623 -97.828,-62.245 -152.293,-81.64 15.286,4.742 29.794,11.984 42.773,21.35 -24.264,-8.164 -48.044,-17.765 -71.174,-28.736 9.615,6.719 19.229,13.439 28.844,20.159 -20.229,-9.879 -39.542,-21.63 -57.615,-35.053 9.061,12.297 18.121,24.593 27.181,36.889 -12.344,-11.781 -24.689,-23.561 -37.033,-35.342 2.938,7.787 12.48,21.585 9.969,29.808 -6.178,-4.132 -15.508,-16.38 -15.096,-24.576 -0.452,8.99 0.323,18.04 2.297,26.822 -9.552,-22.039 -8.213,-48.5 3.515,-69.462 -4.927,6.949 -9.855,13.898 -14.782,20.847 -2.391,3.373 -4.798,6.772 -6.497,10.541 -1.911,4.242 -2.877,8.852 -3.465,13.468 -1.107,8.69 0.319,17.216 -0.102,25.764 -5.845,-5.902 -11.985,-23.29 -8.382,-31.704 -3.497,8.166 -5.725,16.876 -6.578,25.719 -2.803,-10.518 -4.637,-21.294 -5.471,-32.147 C -15.085,-28.533 -15.942,-28.529 0,0" /></g></g></g></g><g
           id="g822"><g
             id="g824" /><g
             id="g836"><g
               style="opacity:0.5"
               id="g834"
               clip-path="url(#clipPath828)"><g
                 id="g832"
                 transform="translate(1009.2662,1613.3621)"><path
                   id="path830"
                   style="fill:#ffffff;fill-opacity:1;fill-rule:nonzero;stroke:none"
                   d="m 0,0 c -9.552,8.182 -17.586,18.265 -23.283,29.608 l -1.16,2.308 2.289,-1.253 C -10.598,24.335 2.637,21.231 15.675,21.724 L 14.952,18.916 C 7.587,23.015 0.596,27.826 -5.835,33.317 -12.25,38.824 -18.137,44.96 -23.372,51.625 l -6.566,8.36 9.372,-5.114 C -6.096,46.976 10.004,42.14 26.353,40.747 L 24.808,35.628 C 16.034,40.194 7.581,45.392 -0.467,51.165 -8.525,56.927 -16.16,63.292 -23.27,70.207 l -7.941,7.723 10.893,-2.171 52.443,-10.451 -2.636,-6.509 -56,35.504 -16.594,10.522 19.304,-3.711 66.225,-12.729 -2.574,-6.898 -56.886,33.067 -10.002,5.814 11.51,0.849 c 20.212,1.491 40.684,-1.31 59.712,-8.149 l -2.606,-0.193 c -0.168,-0.059 -0.405,-0.282 -0.63,-0.661 -0.188,-0.378 -0.191,-0.729 -0.18,-0.818 0.045,-0.216 -0.01,0.097 -0.212,0.371 -0.193,0.291 -0.482,0.614 -0.766,0.852 -0.155,0.125 -0.249,0.197 -0.417,0.303 l -0.881,0.527 c -2.389,1.448 -4.575,2.722 -6.979,3.986 -4.728,2.525 -9.608,4.805 -14.587,6.9 -9.966,4.186 -20.285,7.685 -30.655,11.181 l -15.231,5.136 16.018,-0.075 c 17.844,-0.084 35.662,-1.777 53.17,-5.046 l -1.667,-3.534 c -2.927,2.56 -6.006,4.951 -9.215,7.159 -3.193,2.231 -6.517,4.282 -9.95,6.14 -6.867,3.714 -14.171,6.657 -21.731,8.72 l -4.353,1.189 4.28,1.255 c 2.583,0.758 5.185,1.437 7.805,2.038 2.627,0.571 5.267,1.063 7.92,1.478 2.657,0.384 5.321,0.69 7.992,0.918 2.674,0.198 5.35,0.318 8.028,0.361 2.678,0.009 5.353,-0.046 8.023,-0.204 2.668,-0.189 5.326,-0.456 7.975,-0.8 2.644,-0.374 5.273,-0.826 7.886,-1.354 2.608,-0.559 5.193,-1.195 7.758,-1.907 -2.596,0.591 -5.205,1.103 -7.826,1.537 -2.627,0.404 -5.261,0.729 -7.902,0.977 -2.645,0.217 -5.291,0.357 -7.938,0.421 -2.649,0.033 -5.294,0.016 -7.937,-0.092 -2.642,-0.135 -5.276,-0.346 -7.902,-0.633 -2.623,-0.317 -5.232,-0.711 -7.829,-1.179 -2.591,-0.499 -5.163,-1.073 -7.716,-1.722 -2.546,-0.679 -5.068,-1.433 -7.565,-2.262 l -0.073,2.444 c 7.82,-1.843 15.437,-4.601 22.659,-8.186 3.611,-1.793 7.124,-3.793 10.514,-5.99 3.376,-2.219 6.627,-4.633 9.729,-7.23 l 5.663,-4.74 -7.329,1.207 c -17.333,2.853 -34.908,4.141 -52.438,3.847 l 0.787,5.061 c 10.446,-3.276 20.958,-6.585 31.277,-10.66 5.156,-2.041 10.256,-4.289 15.241,-6.816 2.468,-1.231 5.051,-2.65 7.361,-4.007 l 0.887,-0.517 c 0.419,-0.246 0.883,-0.572 1.258,-0.881 0.767,-0.637 1.413,-1.332 1.993,-2.169 0.557,-0.856 1.13,-1.809 1.325,-3.391 0.091,-0.764 10e-4,-1.828 -0.52,-2.805 -0.51,-1.016 -1.335,-1.653 -2.074,-2.073 l -1.199,-0.682 -1.407,0.489 c -18.233,6.329 -37.796,8.776 -56.981,7.147 l 1.508,6.663 57.042,-32.797 19.32,-11.108 -21.893,4.209 -66.224,12.734 2.71,6.81 55.827,-35.775 16.423,-10.524 -19.059,4.015 -52.325,11.025 2.952,5.553 c 6.835,-6.746 14.123,-13.043 21.808,-18.824 7.694,-5.771 15.803,-11 24.25,-15.627 L 39.36,33.874 25.831,35.319 c -17.075,1.824 -33.705,7.224 -48.537,15.73 l 2.807,3.246 c 4.917,-6.544 10.49,-12.609 16.601,-18.085 3.059,-2.733 6.216,-5.366 9.517,-7.815 3.295,-2.454 6.714,-4.75 10.24,-6.873 L 21.1,18.729 15.735,18.714 c -13.6,-0.038 -27.106,3.666 -38.691,10.544 l 1.129,1.055 c 2.617,-5.664 5.811,-11.064 9.446,-16.164 C -8.733,9.059 -4.584,4.309 0,0" /></g></g></g></g><g
           transform="translate(660.8862,1861.4973)"
           id="g838"><path
             id="path840"
             style="fill:#27aae1;fill-opacity:1;fill-rule:nonzero;stroke:none"
             d="m 0,0 c -33.094,-0.522 -66.187,-1.045 -99.281,-1.567 7.146,190.446 138.458,229.612 189.433,240.022 50.975,10.409 105.155,12.373 155.788,0.019 C 433.53,192.702 423.174,1.306 421.162,-49.744 387.743,-42.736 327.024,-39.588 293.605,-32.579 225.507,-18.299 156.985,-3.962 87.145,-0.515 58.133,0.917 29.051,0.459 0,0" /></g><g
           id="g842"><g
             id="g844" /><g
             id="g856"><g
               style="opacity:0.30000299"
               id="g854"
               clip-path="url(#clipPath848)"><g
                 id="g852"
                 transform="translate(925.3859,1871.2593)"><path
                   id="path850"
                   style="fill:#ffffff;fill-opacity:1;fill-rule:nonzero;stroke:none"
                   d="M 0,0 C 0.958,-0.187 155.745,-59.314 156.663,-59.506 158.617,-9.907 168.427,172.156 -3.055,224.447 131.936,173.667 231.416,-80.932 0,0" /></g></g></g></g><g
           id="g858"><g
             id="g860" /><g
             id="g872"><g
               style="opacity:0.19999701"
               id="g870"
               clip-path="url(#clipPath864)"><g
                 id="g868"
                 transform="translate(1043.1538,1834.5325)"><path
                   id="path866"
                   style="fill:#231f20;fill-opacity:1;fill-rule:nonzero;stroke:none"
                   d="m 0,0 c -46.635,22.407 -96.339,36.736 -144.652,54.849 -28.599,9.648 -62.99,8.12 -86.284,27.334 -63.45,52.337 62.975,165.901 117.649,170.186 4.724,0.371 9.49,0.731 14.285,1.068 -11.487,4.671 -23.881,8.721 -37.325,12.002 -50.634,12.354 -104.814,10.39 -155.789,-0.02 -50.975,-10.409 -182.286,-49.575 -189.432,-240.021 l 99.28,1.567 c 29.051,0.458 58.134,0.916 87.145,-0.515 69.84,-3.447 138.363,-17.784 206.46,-32.064 33.42,-7.009 94.138,-10.157 127.558,-17.166 0.039,0.995 0.082,2.062 0.126,3.162 C 26.091,-12.928 13.123,-6.305 0,0" /></g></g></g></g><g
           id="g874"><g
             id="g876" /><g
             id="g888"><g
               style="opacity:0.39999402"
               id="g886"
               clip-path="url(#clipPath880)"><g
                 id="g884"
                 transform="translate(1081.4022,1815.4365)"><path
                   id="path882"
                   style="fill:#231f20;fill-opacity:1;fill-rule:nonzero;stroke:none"
                   d="m 0,0 c -287.09,129.634 -480.862,44.001 -500.636,38.205 -0.195,-0.057 -0.356,-0.119 -0.535,-0.216 -3.159,-1.719 -21.418,-12.852 -42.668,-25.959 -0.706,-2.988 -2.648,-5.579 -6.095,-6.918 -5.459,-7.446 -10.417,-15.229 -15.429,-22.978 89.303,19.713 300.728,44.192 434.615,-38.185 6.424,-3.952 14.468,-4.419 21.449,-1.111 L -2.972,-6.792 C -0.672,-5.703 2.269,-1.024 0,0" /></g></g></g></g><g
           transform="translate(580.2672,1871.7943)"
           id="g890"><path
             id="path892"
             style="fill:#27aae1;fill-opacity:1;fill-rule:nonzero;stroke:none"
             d="m 0,0 c -5.66,-2.914 -59.763,-34.604 -92.757,-54.394 -1.474,-0.884 -1.89,-2.843 -0.879,-4.233 0.011,-0.015 0.022,-0.031 0.033,-0.046 0.728,-1.006 1.977,-1.468 3.177,-1.149 64.572,17.173 311.303,51.46 461.056,-44.973 6.427,-4.139 14.475,-4.839 21.461,-1.734 l 106.386,47.283 c 2.301,1.022 5.243,5.615 2.974,6.706 C 214.2,85.429 20.32,5.423 0.535,0.201 0.34,0.149 0.179,0.092 0,0" /></g><g
           transform="translate(963.182,1773.0054)"
           id="g894"><path
             id="path896"
             style="fill:#178dbf;fill-opacity:1;fill-rule:nonzero;stroke:none"
             d="m 0,0 115.433,44.756 c -291.841,142.487 -471.97,63.921 -490.315,59.36 -4.556,-2.178 -72.259,-43.742 -102.583,-61.757 -0.487,-0.289 -0.164,-1.028 0.379,-0.871 C -444.237,50.972 -195.832,118.003 0,0" /></g><g
           id="g898"><g
             id="g900" /><g
             id="g912"><g
               style="opacity:0.19999701"
               id="g910"
               clip-path="url(#clipPath904)"><g
                 id="g908"
                 transform="translate(709.9881,1841.7527)"><path
                   id="path906"
                   style="fill:#231f20;fill-opacity:1;fill-rule:nonzero;stroke:none"
                   d="m 0,0 81.093,59.354 c -120.208,9.109 -191.591,-21.203 -202.781,-23.985 -4.556,-2.178 -72.259,-43.742 -102.583,-61.757 -0.487,-0.289 -0.164,-1.028 0.379,-0.871 C -203.591,-21.398 -121.673,7.441 0,0" /></g></g></g></g><g
           id="g914"><g
             id="g916" /><g
             id="g928"><g
               style="opacity:0.19999701"
               id="g926"
               clip-path="url(#clipPath920)"><g
                 id="g924"
                 transform="translate(849.6313,1893.8992)"><path
                   id="path922"
                   style="fill:#231f20;fill-opacity:1;fill-rule:nonzero;stroke:none"
                   d="m 0,0 c -8.908,1.501 -17.617,2.792 -26.111,3.879 -19.966,-19.965 -57.316,-36.903 -77.281,-56.869 8.732,-0.994 24.879,-3.647 33.721,-5.058 z" /></g></g></g></g><g
           transform="translate(669.7855,1683.9517)"
           id="g930"><path
             id="path932"
             style="fill:#c48a4a;fill-opacity:1;fill-rule:nonzero;stroke:none"
             d="m 0,0 c -0.12,0.127 13.249,-16.884 22.776,-54.991 8.406,-26.34 12.346,-51.951 12.329,-51.558 C 33.717,-73.993 24.457,-25.85 0,0" /></g><g
           transform="translate(748.7842,1523.9951)"
           id="g934"><path
             id="path936"
             style="fill:#c48a4a;fill-opacity:1;fill-rule:nonzero;stroke:none"
             d="M 0,0 C -14.395,-2.554 -55.226,-6.265 -66.645,7.559 -67.848,4.554 -48.999,32.1 -45.495,39.667 -50.534,32.688 -69.596,11 -73.257,7.559 -56.027,-14.679 -24.773,-17.885 -0.378,-0.743 -1.023,-1.196 -0.909,-0.674 0,0" /></g><g
           id="g938"><g
             id="g940" /><g
             id="g952"><g
               style="opacity:0.30000299"
               id="g950"
               clip-path="url(#clipPath944)"><g
                 id="g948"
                 transform="translate(678.7955,1531.5125)"><path
                   id="path946"
                   style="fill:#231f20;fill-opacity:1;fill-rule:nonzero;stroke:none"
                   d="m 0,0 c 2.731,6.588 5.63,10.877 10.28,16.126 11.163,12.601 13.771,15.006 13.325,31.928 -0.912,34.627 -15.474,82.148 -36.251,108.752 -1.292,1.655 -38.359,21.281 -24.448,7.588 C -15.291,142.931 13.489,84.304 14.332,43.838 14.613,30.354 -5.926,6.796 -11.211,-5.953 -11.34,-6.172 -11.294,-6.343 -11.074,-6.467 -7.903,-8.876 0.632,-28.242 37.937,-20.233 38.528,-20.106 -4.068,-9.814 0,0" /></g></g></g></g><g
           id="g954"><g
             id="g956" /><g
             id="g968"><g
               style="opacity:0.30000299"
               id="g966"
               clip-path="url(#clipPath960)"><g
                 id="g964"
                 transform="translate(778.4015,1693.8638)"><path
                   id="path962"
                   style="fill:#231f20;fill-opacity:1;fill-rule:nonzero;stroke:none"
                   d="m 0,0 c -0.314,-0.607 -20.441,-66.754 -26.606,-89.777 2.076,7.752 9.986,19.669 14.657,26.341 6.273,8.961 15.581,15.727 25.628,19.879 14.867,6.143 31.355,7.139 47.432,6.58 20.583,-0.716 41.081,-3.855 60.935,-9.332 -14.167,10.591 -31.783,15.8 -49.384,17.547 -17.601,1.746 -35.348,0.228 -52.951,-1.493 -0.958,-0.094 -2.014,-0.163 -2.791,0.405 -1.981,1.447 0.02,4.485 1.967,5.975 C 33.236,-12.891 45.98,-0.957 62.598,6.757 76.014,12.984 100.427,22.116 115.4,17.459 58.886,34.921 1.006,0.566 0,0" /></g></g></g></g><g
           id="g970"><g
             id="g972" /><g
             id="g984"><g
               style="opacity:0.30000299"
               id="g982"
               clip-path="url(#clipPath976)"><g
                 id="g980"
                 transform="translate(743.085,1536.1488)"><path
                   id="path978"
                   style="fill:#ffffff;fill-opacity:1;fill-rule:nonzero;stroke:none"
                   d="M 0,0 C -1.441,-0.58 -22.585,24.956 -30.989,21.077 -47.429,13.489 -47.918,4.12 -56.16,-2.396 -30.989,-13.488 -8.015,-5.714 0,0" /></g></g></g></g><g
           transform="translate(294.1753,1003.0444)"
           id="g986"><path
             id="path988"
             style="fill:#ffbe87;fill-opacity:1;fill-rule:nonzero;stroke:none"
             d="m 0,0 c 0.096,0.131 0.191,0.263 0.287,0.394 0.691,0.95 1.488,1.967 2.7,2.183 3.045,0.543 6.9,-6.562 6.457,-9.463 -3.557,-23.292 -28.833,-39.017 -28.041,-62.41 -7.237,2.027 -17.718,4.864 -28.265,15.146 -2.111,2.058 -1.965,4.376 -3.649,6.459 -1.691,2.093 -4.345,2.984 -5.665,5.74 -3.446,7.198 -6.953,14.524 -10.524,21.982 -5.37,11.217 -7.165,18.538 -3.373,30.153 6.495,19.896 10.704,40.846 12.545,62.681 0.272,3.231 1.098,7.108 4.544,7.403 3.335,0.286 6.469,-3.116 8.178,-6.189 7.082,-12.739 4.781,-26.397 2.294,-38.688 -1.414,-6.985 -4.566,-23.365 -4.581,-29.689 13.07,18.19 24.706,34.937 33.385,50.48 1.122,2.008 4.089,1.971 5.842,-0.022 2.998,-3.406 5.502,-8.306 5.579,-11.365 0.11,-4.36 -1.588,-8.308 -3.258,-12.118 1.763,1.072 5.041,2.671 8.689,-1.377 C 7.513,20.6 0.605,9.291 -3.717,-0.499 -6.329,-6.415 -8.853,-9.833 -11.47,-15.759 -7.63,-10.483 -3.807,-5.23 0,0" /></g><g
           id="g990"><g
             id="g992" /><g
             id="g1004"><g
               style="opacity:0.39999402"
               id="g1002"
               clip-path="url(#clipPath996)"><g
                 id="g1000"
                 transform="translate(258.321,955.0033)"><path
                   id="path998"
                   style="fill:#231f20;fill-opacity:1;fill-rule:nonzero;stroke:none"
                   d="M 0,0 C 11.072,16.23 23.683,33.951 36.395,48.396 25.874,31.524 13.193,12.957 -0.366,-2.664 c -0.037,0.862 -0.074,1.726 -0.112,2.59" /></g></g></g></g><g
           id="g1006"><g
             id="g1008" /><g
             id="g1020"><g
               style="opacity:0.39999402"
               id="g1018"
               clip-path="url(#clipPath1012)"><g
                 id="g1016"
                 transform="translate(274.2563,1013.8895)"><path
                   id="path1014"
                   style="fill:#231f20;fill-opacity:1;fill-rule:nonzero;stroke:none"
                   d="m 0,0 c -9.25,-12.599 -31.732,-43.189 -34.556,-44.813 7.682,12.77 32.101,49.639 50.823,71.624 C 12.479,17.022 6.233,8.49 0,0" /></g></g></g></g><g
           id="g1022"><g
             id="g1024" /><g
             id="g1036"><g
               style="opacity:0.39999402"
               id="g1034"
               clip-path="url(#clipPath1028)"><g
                 id="g1032"
                 transform="translate(250.858,1072.9319)"><path
                   id="path1030"
                   style="fill:#231f20;fill-opacity:1;fill-rule:nonzero;stroke:none"
                   d="m 0,0 c 2.15,-5.879 1.413,-11.774 0.562,-17.358 -3.376,-22.154 -8.156,-43.718 -16.214,-63.912 2.031,4.056 5.782,7.19 7.87,11.198 1.504,2.885 4.17,7.228 4.756,10.438 2.54,13.914 3.025,26.919 5.609,41.119 C 3.582,-13.021 1.753,-5.903 0,0" /></g></g></g></g><g
           transform="translate(972.1748,796.3781)"
           id="g1038"><path
             id="path1040"
             style="fill:#e6b18a;fill-opacity:1;fill-rule:nonzero;stroke:none"
             d="m 0,0 -300.967,0.001 c 0,24.065 -0.489,175.116 1.265,175.774 50.582,18.968 285.911,60.101 311.083,61.963 26.407,1.955 142.841,-0.306 173.99,-5.034 C 169.49,234.45 50.735,178.703 1.265,168.187 -0.293,113.129 0,51.807 0,0" /></g><g
           id="g1042"><g
             id="g1044" /><g
             id="g1056"><g
               style="opacity:0.30000299"
               id="g1054"
               clip-path="url(#clipPath1048)"><g
                 id="g1052"
                 transform="translate(675.4337,971.7011)"><path
                   id="path1050"
                   style="fill:#231f20;fill-opacity:1;fill-rule:nonzero;stroke:none"
                   d="m 0,0 c 18,2.447 35.108,8.222 52.727,12.383 18.501,4.368 37.55,6.439 56.332,9.295 38.066,5.79 76.051,11.602 113.768,19.412 34.824,7.211 69.562,15.071 104.46,21.949 -8.24,-0.103 -14.893,-0.307 -19.165,-0.624 C 282.95,60.553 47.622,19.42 -2.961,0.452 -3.052,0.417 -3.137,-0.046 -3.217,-0.856 -2.264,-0.464 -1.204,-0.164 0,0" /></g></g></g></g><g
           transform="translate(1152.5862,1030.1121)"
           id="g1058"><path
             id="path1060"
             style="fill:#d6996c;fill-opacity:1;fill-rule:nonzero;stroke:none"
             d="m 0,0 -184.205,-63.018 3.372,-173.245 L 0,-165.76 Z" /></g><g
           id="g1062"><g
             id="g1064" /><g
             id="g1076"><g
               style="opacity:0.30000299"
               id="g1074"
               clip-path="url(#clipPath1068)"><g
                 id="g1072"
                 transform="translate(1010.052,955.2515)"><path
                   id="path1070"
                   style="fill:#231f20;fill-opacity:1;fill-rule:nonzero;stroke:none"
                   d="m 0,0 c 14.205,9.74 30.639,14.93 46.406,21.499 18.093,7.538 36.695,13.934 55.325,20.018 13.54,4.422 27.149,8.618 40.803,12.661 v 20.683 l -184.205,-63.018 3.794,-172.824 30.349,11.616 v 133.388 c 0,2.755 0.734,5.033 1.934,6.858 0.365,3.39 2.066,6.7 5.594,9.119" /></g></g></g></g><g
           transform="translate(972.1748,793.8489)"
           id="g1078"><path
             id="path1080"
             style="fill:#eda977;fill-opacity:1;fill-rule:nonzero;stroke:none"
             d="M 0,0 -300.967,5.058 V 177.039 L 0,174.51 Z" /></g><g
           id="g1082"><g
             id="g1084" /><g
             id="g1096"><g
               style="opacity:0.30000299"
               id="g1094"
               clip-path="url(#clipPath1088)"><g
                 id="g1092"
                 transform="translate(701.5576,810.2883)"><path
                   id="path1090"
                   style="fill:#231f20;fill-opacity:1;fill-rule:nonzero;stroke:none"
                   d="m 0,0 c -5.775,-0.004 -9.495,3.169 -11.18,7.264 -1.667,1.967 -2.726,4.596 -2.73,7.911 -0.049,40.048 -1.216,80.085 -1.265,120.134 -0.003,2.397 0.552,4.433 1.483,6.125 0.002,4.949 268.743,14.547 285.995,15.794 L -30.35,160.6 V -11.381 l 300.967,-5.058 V 4.639 C 180.419,3.771 90.198,0.07 0,0" /></g></g></g></g><g
           transform="translate(1101.724,1085.2017)"
           id="g1098"><path
             id="path1100"
             style="fill:#ffbe87;fill-opacity:1;fill-rule:nonzero;stroke:none"
             d="m 0,0 c -22.271,-8.16 -45.017,-15.134 -67.973,-21.282 0.336,-0.399 0.618,-0.782 0.809,-1.14 2.812,-5.257 -2.857,-144.11 -10.96,-154.277 -5.915,-7.423 -31.192,-14.331 -44.125,-45.277 -5.476,-13.104 -14.104,-24.656 -21.156,-36.984 -0.548,-0.958 -1.115,-2 -1.001,-3.099 0.334,-3.196 20.758,-13.697 42.834,30.741 1.036,2.086 2.619,4.513 4.94,4.33 2.744,-0.217 3.631,-3.784 3.616,-6.536 -0.136,-23.968 -15.548,-54.304 -40.748,-58.672 21.514,0.496 44.479,5.418 65.812,2.589 C -51.805,-237.388 23.751,-38.25 5.867,-6.553 5.099,-5.192 3.032,-2.93 0,0" /></g><g
           id="g1102"><g
             id="g1104" /><g
             id="g1116"><g
               style="opacity:0.30000299"
               id="g1114"
               clip-path="url(#clipPath1108)"><g
                 id="g1112"
                 transform="translate(1092.4006,977.5703)"><path
                   id="path1110"
                   style="fill:#ffffff;fill-opacity:1;fill-rule:nonzero;stroke:none"
                   d="m 0,0 c 0.236,0.961 0.476,1.922 0.722,2.881 2.737,10.664 8.038,21.245 9.31,32.081 1.405,11.973 5.271,23.636 6.769,35.682 1.102,8.86 3.994,21.256 -1.086,28.897 -6.985,10.507 -21.461,21.268 -31.825,28.242 5.138,-5.49 23.525,-27.177 28.664,-32.668 C 15.636,91.818 12.149,77.924 11.711,74.123 10.167,60.707 8.161,47.341 6.059,34.003 1.041,2.169 -8.609,-29.311 -18.855,-59.816 c -1.076,-3.204 -2.172,-6.401 -3.287,-9.592 6.822,17.629 13.661,35.308 18.348,53.621 C -2.452,-10.544 -1.289,-5.256 0,0" /></g></g></g></g><g
           id="g1118"><g
             id="g1120" /><g
             id="g1132"><g
               style="opacity:0.30000299"
               id="g1130"
               clip-path="url(#clipPath1124)"><g
                 id="g1128"
                 transform="translate(1037.5135,992.0759)"><path
                   id="path1126"
                   style="fill:#231f20;fill-opacity:1;fill-rule:nonzero;stroke:none"
                   d="m 0,0 c 1.888,24.029 4.509,48.951 -2.197,72.279 -0.522,-0.143 -1.042,-0.295 -1.565,-0.435 0.335,-0.399 0.617,-0.782 0.809,-1.14 2.812,-5.257 -2.858,-144.11 -10.96,-154.277 -5.916,-7.423 -31.193,-14.332 -44.125,-45.277 -5.477,-13.105 -14.104,-24.656 -21.156,-36.984 -0.549,-0.959 -1.116,-2 -1.001,-3.099 0.167,-1.6 1.443,-2.363 3.044,-2.563 10.217,11.547 16.145,25.882 23.714,39.521 9.032,16.276 19.88,28.551 35.115,39.235 3.644,2.556 6.706,5.607 9.332,8.994 C -5.086,-55.927 -2.203,-28.04 0,0" /></g></g></g></g><g
           id="g1134"><g
             id="g1136" /><g
             id="g1148"><g
               style="opacity:0.30000299"
               id="g1146"
               clip-path="url(#clipPath1140)"><g
                 id="g1144"
                 transform="translate(986.826,793.8489)"><path
                   id="path1142"
                   style="fill:#231f20;fill-opacity:1;fill-rule:nonzero;stroke:none"
                   d="m 0,0 c 7.569,8.406 13.225,17.043 17.364,26.857 1.799,4.267 3.316,8.755 4.586,13.543 1.121,4.221 1.968,8.571 1.731,12.932 -0.237,4.362 -1.642,8.769 -4.565,12.013 C 26.435,53.598 18.517,33.472 12.598,22.547 7.497,13.132 -5.272,3.57 -15.073,-0.843 Z" /></g></g></g></g><g
           id="g1150"><g
             id="g1152" /><g
             id="g1164"><g
               style="opacity:0.30000299"
               id="g1162"
               clip-path="url(#clipPath1156)"><g
                 id="g1160"
                 transform="translate(1029.868,795.9987)"><path
                   id="path1158"
                   style="fill:#231f20;fill-opacity:1;fill-rule:nonzero;stroke:none"
                   d="M 0,0 C 1.304,-0.104 2.606,-0.232 3.904,-0.404 9.392,17.343 21.744,52.076 34.955,91.421 27.571,77.57 5.334,16.204 0,0" /></g></g></g></g></g></g></g></svg>