<?xml version="1.0" encoding="UTF-8"?>
<svg viewBox="0 0 191.66 134.97" xmlns="http://www.w3.org/2000/svg">
 <path d="m103.73 88.778c-2.8987-4.0227-6.3827-8.3319-5.049-14.147 3.5374 4.1488 4.256 9.2356 5.049 14.147z" fill="#e1c479"/>
 <path d="m62.81 85.292h-2.5l-6.5622 0.6249-4.3749 0.6248-4.6873 0.9373-5.3123 1.2497-5.3123 1.8745-0.3125 0.3124-0.3125 0.6249-0.3125 1.2497v0.9372l0.3125 1.2497 2.4999 4.6864 4.6874 7.8109 4.0623 7.81 1.25 2.812 0.3124 0.937v0.625l-1.5624 1.875c5.724 2.7 14.572 4.313 20.937 4.374l-6.8748-12.185-6.2498-9.685-3.1249-4.3739-2.8124-3.1243c1.0485 0.3196 1.655 0.094498 1.5625-0.6248 4.1665 0.4166 8.333 0.8331 12.5 1.2497l10.312 0.9373 4.0623 0.3124 3.4374-0.3124 1.25 0.3124 4.0623 0.9373 6.2498 1.8743 7.8122 2.812 12.187 5.311 16.25 7.186 8.437 3.437 7.812 2.811 7.187 2.187 3.125 0.938 2.812 0.312v-2.187l0.313-0.937 0.625-0.937 1.25-0.938 1.562-0.625 3.125-0.937 2.188-0.937 1.25-0.937 0.312-0.313-8.437-2.187-6.875-2.187-6.25-2.187-4.687-1.874-4.375-1.25-3.75-0.625-3.125-0.937-9.374-3.437-5.625-2.187-4.687-2.1866-4.688-2.4994-5.312-3.4367-3.1249-1.5621-3.4374-1.5621-3.4374-1.2497-3.4374-0.9373-7.4997-0.9372-7.4997-0.6249-7.8122-0.3124z"/>
 <g fill="#b9bfe3">
  <path d="m155.46 126.15c-3.0179-8.6778-1.0626-11.918 10.646-8.6075-1.6847 4.0534-5.4241 7.8852-10.646 8.6075z"/>
  <path d="m65.503 125.91c-2.8125-1.5785-5.8219-1.896-8.0751-2.8342-4.1222-3.6836-10.425-4.5658-12.719-1.5623 6.3633 2.4598 13.166 4.15 20.794 4.3965z"/>
 </g>
 <path d="m46.945 120.48c-0.41267 0.45606-0.98351 0.70396-1.4971 1.023-0.84827 0.52698-1.681 1.105-2.602 1.4874-0.99254 0.41206-2.1395 0.42121-3.0881 0.92625-0.26169 0.13932 0.11134 0.37408 0.34324 0.484 0.48516 0.22996 1.0085 0.35619 1.5317 0.45327 0.84996 0.15773 1.7146 0.3457 2.5765 0.30708 4.4598-0.19978 8.9137-0.53629 13.36-0.93193 0.23199-0.020599 0.64602-0.080498 0.62498-0.31242-0.037086-0.40877-0.39803-0.7514-0.71709-1.0063-2.7779-2.4085-6.5349-3.5694-9.9075-3.0552-0.28872 0.058403-0.42732 0.40642-0.62497 0.62486z" fill="#ffd4aa"/>
 <path d="m41.874 123.1c-0.029102 0.582 1.1017 0.35 1.6882 0.396 1.0656 0.083 2.1218 0.261 3.1947 0.229 1.2778-0.039001 2.5633 0.081001 3.8362-0.028999 2.1987-0.189 4.6435-0.713 6.8477-0.608 1.2868 0.397 2.7015 0.85 3.3171 1.004-0.8791 0.387-2.9374 0.87-3.7918 1.051-1.0124 0.215-2.048 0.202-3.0751 0.262-3.7062 0.216-7.4148 0.523-11.126 0.502-2.0781-0.011002-4.1606-0.235-6.2028-0.62-0.3702-0.07-0.3449-0.409-0.012001-0.613 0.7599-0.467 1.6617-0.58 2.5072-0.823 0.9339-0.269 2.8656-1.722 2.8171-0.751z"/>
 <g fill="#ffd4aa">
  <path d="m158.99 116.22c2.598 0.1161 5.2072 1.0986 7.311 1.799 2.0412 0.72951 3.4848 2.1398 5.1886 3.1997 1.1458 0.63789 2.2916 1.2563 3.4374 2.187-2.0315 1.6868-10.493-0.52482-12.187-1.8745l-1.8749-0.9373c-2.039-1.1141-4.3363-1.7093-6.2498-2.187h0.22652c1.0995-1.6705 1.5633-1.9137 4.1483-2.187z"/>
  <path d="m73.125 18.75l-1.25 0.3125-1.25 0.625-0.9375 0.625-0.9375 0.625-0.625 0.9375-0.625 1.875v4.0625l0.625 1.875 0.9375 3.4375 0.3125 2.8125-0.0312 0.25-0.2813-0.25v1.25l-0.625 1.875c-1.7035 4.0121-5.7853 3.2977-9.375 2.5l-2.1875-0.3125-0.2188 0.0938-1.0312-0.4063-3.125-0.625-5.3125-0.625-6.25-0.9375-5.625-1.5625-3.4375-1.25-4.6875-2.1875-3.7586-1.0634c-5.0598-1.1373-9.2663-3.4312-14.054-4.5616-1.1246-0.3241-9.3968 4.1637-9.375 4.6875 0.02058 3.6669 1.5676 5.799 2.5 9.0625 0.66945-0.6833 0.50915-1.0019 0.3125-1.875-0.36995-1.342-0.66472-2.6986-0.9375-4.0625-0.20864-1.0748 0.4198-1.72 0.9375-2.5 0.29954-0.4167 1.0902-0.7613 1.5625-0.625 0.69134 0.9506-0.68103 2.3334-0.9375 3.4375-0.24764 1.3296 0.07537 2.4281 0.15733 3.0935 1.2198-0.3282 0.6955-2.8811 1.0927-3.406 0.56871-0.5497 1.8479-1.6962 2.8125-2.5 0.78139-0.5922 1.1374-1.3374 1.5625-2.1875 0.20918-0.7298 8.4151 3.6681 12.5 5.9375l2.5 1.5625 2.5 1.25 2.8125 0.9375 7.8125 1.5625 5 1.25 5.3125 1.875 2.5 1.25 1.875 0.9375 1.25 1.25 0.9375 0.9375 1.5625 1.875 0.625 1.5625 0.3125 0.3125 0.3125-0.3125 0.3125-0.9375 0.3125-3.75 0.0625-1.3125 0.875 1.3125 1.875 1.875c6.6209 0.006699 13.63 2.8272 19.688-1.25-3.6444-1.811-5.4734-3.2673-4.0625-7.5 0.6308-0.096199 1.0914-0.060001 1.5625 0.3125 1.3315 1.053 2.6046 2.2658 4.0625 1.875 0.7032-0.1885 0.4595-1.4542 0.9375-1.875 0.519-0.4568 0.715-0.5103 0.9375-0.9375l-0.3125-0.3125 0.571-0.3125c0.027199-0.5257 0.095901-1.074 0.3234-1.2069 0.3565-0.2083 1.4335-0.2658 1.2931-0.6681-0.5052-1.4471-0.625-2.8564-0.625-4.375l1.25-3.125 0.3125-1.25v-0.9375l-0.3125-1.25-0.3125-0.9375-1.25-2.5-2.1875-2.1875-2.1875-1.5625-2.8125-1.25-1.25-0.625h-2.8125zm33.125 43.75c-0.932 1.5433-3.423 3.1744-3.438 4.0312 0.073006 1.6268-0.077995 3.33-0.62399 4.6876-0.993 1.8007-3.0875 2.9259-4.7543 3.6479-0.4458 2.0975-1.2563 4.2211 0.4007 6.1684 2.6626-1.5843 5.1606-4.7415 6.4776-7.2226 0.633-1.0371 2.622-1.0642 3.5-1.6563 2.256-1.4356 4.48-3.443 6.658-4.5403 0.457-0.1853 0.97-0.3954 0.828-0.8457-0.834 0.1072-1.888 0.38319-2.486 0.6986-0.599 0.32269-1.347 0.867-2.187 1.25 1.054-0.9002 2.497-1.7471 3.437-2.1876 0.817-0.4083 1.602-0.6639 2.188-1.25l-0.357-0.4743c0.301-0.1032 0.449-0.1856 0.64-0.2242 0.278-0.1297 0.244-0.356 0.342-0.55151-1.566 0.17931-3.23 0.2256-4.687 0.625-0.704 0.2056-1.915 0.9641-2.813 1.5626-0.417 0.20889-0.473-0.1642-0.313-0.31261 1.609-1.0304 3.353-1.8354 5.03-2.3657 0.338-0.1042 0.895-0.2481 0.908-0.728-3.588 0.154-6.779 2.1652-9.375 3.7187-0.514 0.2992-0.872 0.020905-0.937-0.31239-0.058006-0.4263 1.12-1.7282 1.621-2.5312 1.58-0.4475 1.495-0.9126 1.191-1.1876h-1.25z"/>
 </g>
 <path d="m83.095 34.054c-0.006104 0.33777-0.14102 0.64693-0.30581 0.94943-0.93031-0.23515-1.6018-0.75964-2.1407-1.5087 0.76436 0.29504 1.6221 0.58262 2.4465 0.5593z" fill="#7c5334"/>
 <path d="m83.72 40.309c0.031334 0.59942-0.2111 0.60176-0.37325 0.69236 0.22877 0.34965-0.096092 0.90039-0.35976 0.79549-0.43539-0.43531-0.72205-0.76239-1.1149-1.1822 0.68718 0.10897 1.2992-0.14702 1.8479-0.30567z" fill="#834634"/>
 <path d="m80.622 33.429c0.61019 0.9892 1.3528 1.2204 2.1874 1.5621-0.043701 0.27504 0.19472 0.71069 0.31249 0.93727-1.7698-0.91024-1.9612-1.2288-2.4999-2.4994z"/>
 <path d="m81.872 50.3l0.9375 0.3124 1.8749 0.6249 0.9375 0.6248 0.9375 0.9373 0.625 1.2497 0.3125 1.2497 0.9375 4.6863 1.5625 6.8733 1.8749 6.8733 0.9375 3.1242 1.25 2.4994v0.62485l-0.625 0.9373-1.25 1.5621-0.9375-1.2497-2.1874-4.0615-1.5624-3.1242-1.25-3.1242-1.25-3.7491-1.25-4.0615-1.25-6.5609-0.3125-4.0615-0.3125-1.8745v-0.31243z" fill="#8b5d3b"/>
 <path d="m23.438 32.5c-3.5567 8.2971-0.188 15.882 3.125 23.75 0.14074-4.6727 0.45689-10.779 3.4375-12.188 2.1087-0.99636 18.08-0.007301 22.812 6.25 4.5234 5.9803 4.7382 14.101 7.1875 21.531 0.99945 3.0318 2.8726 6.8906 0.9375 9.6875-1.5787 2.2817-3.3025 3.5376-5.625 4.0625 8.3657 14.321 35.866 23.008 50.312 10.625-5.9718-3.5797-12.41-7.923-16.562-12.5-1.4831-1.6349-3.1457-1.8866-4.6875-1.875 0.49909-1.123 1.0839-2.2471 0.82868-2.8498-0.33298-0.7864-2.035-0.86066-2.7037-2.1502-1.6412-3.1652-1.25-6.9486-1.25-10.469 1.7022-0.4589 1.3876-2.3293 1.25-3.9688 3.7587 7.9296 4.6722 15.25 9.6875 21.938 3.1651 3.2219 7.3339 3.7244 11.562 4.375-4.0134-5.2972-6.017-8.7347-5-14.062-0.96006 0.81975-2.4886 1.5861-3.1709 1.2586-1.0056-0.48272-1.4024-0.43528-2.1416 0.30395-1.6841-3.6671-2.3349-7.7014-3.4375-11.562-1.2127-4.2466-0.77364-10.915-5-13.719-1.6596-1.1011-3.7264-1.5094-5.625-2.1875-8.257 5.0207-16.922-0.89657-20.312-7.1875-2.0762-0.49539-4.0713-1.8745-6.25-2.1875-10.976-1.5767-20.162-4.2428-29.375-6.875z" fill="#ff007f"/>
 <path d="m61.496 59.965c2.5844 9.7092 10.016 17.656 19.687 18.433-8.9636-2.8798-15.663-10.712-19.687-18.433z" fill="#7f0000"/>
 <path d="m161.56 120.91c-0.76762 0.70295-0.97339 1.7756-0.31248 2.4994 2.8764 1.3824 6.2518 2.2947 9.0622 2.8118 2.1108 0.43399 4.1378 0.21115 6.2498 0 1.1145-0.091003 2.8635-0.29409 3.1249-0.93727-1.3448-1.335-2.922-1.4887-4.9998-1.8745-4.7239 0.68772-9.3476-1.077-13.124-2.4994z"/>
 <path d="m66.25 23.125c-1.8201 3.978-1.8775 8.4721-2.1875 12.812 3.1429 2.8466 6.6066 5.1661 10.312 7.1875-0.50199-3.4388-0.1852-6.8968 0.625-9.6875 0.26611 4.225-0.22242 8.4164 1.875 11.562-1.2234-6.2506 2.122-12.707 4.375-17.812 0.027802 1.4659-0.42067 2.927-1.131 4.2976 1.5806 1.1759 3.6087 1.6362 5.506 1.9524 0.95707-2.7792 1.0024-5.5548-0.3125-8.125-1.8582-3.632-5.1907-5.5123-9.0625-6.5625-4.5603-1.2369-8.1148 0.25473-10 4.375z" fill="#ff0"/>
 <path d="m84.646 79.733c-2.1881 3.4516-6.8862 5.0719-12.023 4.5288 4.5522-0.76512 8.0695-2.7652 12.023-4.5288z" fill="#7f0000"/>
 <path d="m117.11 64.772c-1.8557 0.53445-3.5783 0.73929-5.938 2.5218 1.9051-1.0929 3.9068-1.8574 5.938-2.5218z" fill="#69462c"/>
 <path d="m46.6 96.563c-0.68065-0.7003-1.6877-1.0736-2.8949-1.2464 0.87591 0.51279 1.7661 1.01 2.8949 1.2464z" fill="#b9bfe3"/>
</svg>
