<?xml version='1.0' encoding='utf-8'?>
<svg xmlns="http://www.w3.org/2000/svg" id="Capa_1" data-name="Capa 1" width="1920" height="1080" viewBox="0 0 1920 1080"> <title>amigos-tenis-deporte-ganador</title> <g id="COLOR"> <path d="M1262.455,332.843a11.217,11.217,0,0,0-15.527-1.022q-7.32,6.172-15.143,11.691c-4.715,3.327-4.832,11.548-1.022,15.527,4.477,4.676,10.474,4.587,15.527,1.022q7.824-5.52,15.143-11.691C1265.833,344.66,1266.51,337.079,1262.455,332.843Z" fill="#fff"/> <path d="M770.1,450.4c-2.3-24.6-13.9-46.8-28.6-66.3-3.3-4.4-21-5-18.5,3.1,1.4,4.5,3.2,10,1.5,14.7-1.4,3.8-5.2,5.2-9,6.1a13.5,13.5,0,0,0-3.7-.6c-4.9,0-10.1.1-15.2-.1a64.987,64.987,0,0,1-35-15.5,128.838,128.838,0,0,1-7.9-13.5c-4.4-8-8.7-16.1-13.1-24.1-2.2-4-7.9-4.9-12-4.6a17.259,17.259,0,0,0-2.4.5c-4.9.2-9.1,2.2-7.9,6.3,0,.1.1.3.1.4l-2.3.9a13.089,13.089,0,0,0-4.1.6c-14.6,5.2-28.9,10.8-43.1,16.8-3.6-1-7.2-.9-8.9,1.1a188.215,188.215,0,0,0-43.4,85.9c-.9,4.4,4.3,7.2,7.6,8.5a405.881,405.881,0,0,1,60.1,30c-3.1,14.4-9.2,27.9-14.4,41.7-5.6,15-8.9,30.4-8.7,46.6.4,32.2,13.2,63,29.5,90.2,9.5,15.9,20.3,31.1,31.1,46.2,4.1,5.7,22.6,6.9,15.9-2.6l-1.5-2.1a3.52,3.52,0,0,0,2.3-4,220.075,220.075,0,0,1-2.5-31.3,78.636,78.636,0,0,0,12.4,16.4c15.1,15.3,37.2,23.6,58.5,18.7a100.508,100.508,0,0,0,15.2-5.1c4.6-1.9,9.6-4,12.8-8a17.1,17.1,0,0,0,2.9-5.9c1.8-.5,3.1-1.4,3.3-3.1,5.8-60.6,11.6-121.4,7.3-182.3a3.176,3.176,0,0,0-.8-2,6.761,6.761,0,0,0,3-1.7C765.7,495.4,772.2,472.9,770.1,450.4Z" fill="#666"/> <path d="M556.7,706.8c-2-4.1-8.5-5.6-12.6-5.6-3.6,0-7.5,2.3-5.5,6.2a4.887,4.887,0,0,0,1.4,1.8c-3.5.2-7,2.5-5.1,6.2,2.1,4.1,8.6,5.5,12.7,5.5,3.6,0,7.4-2.3,5.5-6.2a6.991,6.991,0,0,0-1.3-1.7C555.2,712.7,558.6,710.5,556.7,706.8Z" fill="#666"/> <path d="M741.1,720.4c1.8-7.6-13.3-11.7-18.1-7.9l-43.8,35.7c-7,5.7-15.1,11.1-21.5,17.5-2.8,2.8-1,6.5-1.8,10.2a18.711,18.711,0,0,1-5.4,9.8,3.285,3.285,0,0,0-.4,4.5,22.039,22.039,0,0,0-5.6,18.4c-1.4,1.5-2.9,2.8-4.3,4.1a140.519,140.519,0,0,0-15.9,17.7C614.7,843,607.2,857,600,871c-3.6,7-7.5,14-9.8,21.5-2.3,7.2-1,16.4-5.2,22.7a12.341,12.341,0,0,1-6,5.1c-7.4-3.7-14.9-7.5-22.3-11.2a18.355,18.355,0,0,0-5.6-1.8,39.508,39.508,0,0,1,3-9.8c6.1-1.9,11.1-5.5,13.6-12,2.8-7.1,3.1-15,5.4-22.2a93.644,93.644,0,0,1,23.2-38.1c1.1-1.1,1.9-2.5,1.2-4.1-3.5-7.9-4-16.5-5.7-24.9-1.8-8.9-6-15.6-10.7-23.2a102.77,102.77,0,0,1-15.4-49.1c-.4-7.7-20.4-8.3-20-1a113.114,113.114,0,0,0,2.5,18.4,3.8,3.8,0,0,0-.8,1.7c-9.4,41.1-18.8,83.2-13.2,125.5.3,2.4,2.2,4.1,4.6,5.1-.3,4.8-.6,9.5-.9,14.3-4.7,9.3-8.6,18.8-6,29.5.6,2.6,4.7,3.6,6.8,4.2,7,1.8,13.2,6.4,19.3,10.1,6.8,4.2,13.9,8,21.8,10.1a43.249,43.249,0,0,0,25.2-.6,9.406,9.406,0,0,0,6.1-.6c17.7-9.6,26.1-27.8,32.7-45.9a154.509,154.509,0,0,0,43.4,4.6,148.909,148.909,0,0,0,25.8-3c7-1.4,17.3-2.6,21.4-9.3,3.9-6.3,2-16.6,1.9-23.6-.2-9-.6-17.9-.9-26.9-.8-18.2-1.6-36.4-1.3-54.6C734.3,761.3,736.2,740.6,741.1,720.4Z" fill="#b3b3b3"/> <path d="M775.4,276.2c-.9-7.5-1.8-15.6-6.4-21.8-5.1-7-13.6-10.5-21.9-11.9a79.361,79.361,0,0,0-13.8-.9c-4,0-8.2.3-12.1-1.1-2.9-1.1-15.2-2.6-13.4,4a16,16,0,0,1-.4,9.7c-4.1-.3-7.8.8-8.4,3.8-1.2,6.1-2.4,12.2-3.5,18.3a5.092,5.092,0,0,0-2.7,2.7c-.5,1.3-1.1,2.6-1.7,3.8-.4-1.4-.7-2.9-1.1-4.3-1.5-6.2-17.2-9.8-19.5-2.8a41.425,41.425,0,0,0-.9,23.4c1.7,6.7,8.7,14.7,6.1,21.9-2.4,6.5-10.4,12.2-15.8,16a79.3,79.3,0,0,1-20,10.4c-2.7,1-4.9,3.3-2.9,6.1,9.9,14,20.2,28.1,34.6,37.9,14.8,10.2,32.9,14.8,50.6,11.3,1.1-.2,3.7-1.6,3.7-3.2,0-10.7.1-21.4.1-32.1,12.6.1,24.7-6.7,33.2-16.4,11-12.5,16.2-29.3,17.2-45.6A158.8,158.8,0,0,0,775.4,276.2Zm-84.7,112,1.2,1.2a48.414,48.414,0,0,1-7.9-4.7C686.2,385.9,688.5,387.1,690.7,388.2Z" fill="#f2dfd9"/> <path d="M652.4,780l-3.2-9.3a9.482,9.482,0,0,0-1.7-2.7c-10.5-22.3-26.8-41.8-41.5-61.9,1-1.1,1.3-2.5.2-4.4q-17.1-29.85-31.7-61.1c-.1-.2-.2-.5-.3-.7a2.506,2.506,0,0,0-.4-.7c-5.7-12.3-11.1-24.6-16.1-37.2-3.4-8.4-7.1-17.5-6.8-26.7.3-7.4,3.1-14.2,6.3-20.8,10.8-12.3,23.8-24.1,21.5-41.4-.1-.5-.2-1.1-.3-1.6,1.9-3.9,3.8-7.8,5.8-11.6,1.9-3.7-6.5-7.2-8.6-7.5a19.6,19.6,0,0,1-11.1-5.3,15.33,15.33,0,0,0-13.8-3.1,6.9,6.9,0,0,0-.8.3l-14.4-6.6a15.379,15.379,0,0,0-6.3-1.3c-3.8-1.8-9-2.1-12.7-.2-3.6,1.8-3.9,4.7-1.3,7.1-4.5,25-9.1,50.1-13.6,75.1-2.2,11.9-5.6,24.4-3,36.5,2.3,10.8,8.3,20.8,13.3,30.5,21,40.6,44.5,80.1,61.8,122.5,9.6,23.6,17.2,48.1,21.3,73.4,1.1,6.9,19.8,10,19.5,1.4-.3-6.4-.6-12.7-.8-19.1,1.7,4.8,3.4,9.5,5.1,14.3,1.4,3.9,6.1,5.7,9.8,6.2,2.9.4,8.8.5,9.6-3.3,2.7-12.1,5.4-24.1,8.1-36.2C650.4,784.6,653.5,783.2,652.4,780ZM543.8,535.4a156.107,156.107,0,0,1,11.5-21.3c-4,8-8,16-11.9,24A25.116,25.116,0,0,0,543.8,535.4Z" fill="#f2dfd9"/> <path d="M781.7,750.7A1184.149,1184.149,0,0,1,764.4,550c0-7.8-19.8-9.7-19.8-2.6,0,24.4.8,48.9,2.4,73.3a2.836,2.836,0,0,0-.4,1.3,434.177,434.177,0,0,0,2.5,154.6c1.2,6.2,20.2,7.8,19.7,1.1a96.735,96.735,0,0,1,.8-22.2C775.4,757.1,782.8,756.9,781.7,750.7Z" fill="#f2dfd9"/> <path d="M769.7,797.5c-1.8-4-8.3-6.3-12.3-6.3-3.6,0-7.6,1.8-5.8,5.9,1.8,4,8.3,6.3,12.3,6.3C767.4,803.4,771.5,801.6,769.7,797.5Z" fill="#f2dfd9"/> <path d="M600,943.2a45.832,45.832,0,0,1-32.3-4.4c-1.2-3.3-4.4-5.8-8.9-7.4-4.3-1.5-16.4-.7-12.3,6.3.7,1.2,1.3,2.3,2,3.5a6.633,6.633,0,0,1-.9,1.9,30.369,30.369,0,0,1-3.5,5.3,46.367,46.367,0,0,1-8.8,8.9c-6.8,5.3,6.3,9.6,10,9.6,7.4,0,14.8.3,22.2,1,7.9.8,15.6,2.4,23.5,3.3,6.3.7,14.1-.1,17.4-6.3,1.8-3.4,1.3-9.8,4.1-12.4C619.3,946.2,604.3,942.2,600,943.2Z" fill="#f2dfd9"/> <path d="M715.1,906.7c.9-5.1-7.8-7.8-11.3-7.8a166.489,166.489,0,0,1-48.6-6.9c-2.3-.7-16.1-2.5-13.4,4a70.672,70.672,0,0,1-7.5,67.3c-3.9,5.5,7.2,9,10.7,9.1.7,0,1.5.1,2.2.1a16.061,16.061,0,0,0,12.9,2.2,47.677,47.677,0,0,1,5.1-1.3c11.5.5,23.1,1,34.6,1.6,2.6.1,7.6-.3,8.3-3.6.5-2.3-1.6-4.3-3.7-5.6a2.1,2.1,0,0,0,.4-1.1C708.2,945.3,711.7,926,715.1,906.7Z" fill="#f2dfd9"/> <path d="M798.1,960a52.652,52.652,0,0,1-17.7.5c-.1-.2-.1-.3-.2-.5-2.6-6.7-22.3-7.1-19.5.4a26.612,26.612,0,0,1,1.7,12.5c-.5,5.1,8.4,7.1,11.9,6.8,9.7-.9,19.4-1.7,29-2.6,2.8-.2,7.4-.8,8-4.3.4-2.1.7-4.2,1.1-6.3C813.5,960.5,801.7,959.3,798.1,960Z" fill="#f2dfd9"/> <path d="M916.6,951.4c-4.7-2-8.9-1.4-13.8-1a50.451,50.451,0,0,1-11-.3c-2.7-2.1-7.1-3-10.2-2.9-2.1.1-7.4,1.5-6.1,4.7a14.446,14.446,0,0,1,0,11.7c-2.4,5.7,10,8.7,13.3,8.5a54.016,54.016,0,0,1,21.5,2.7c2.1.8,13.3,3.7,13.6-1.8C924.3,964.2,926.6,955.6,916.6,951.4Z" fill="#f2dfd9"/> <path d="M925.6,323.3c0-1.4,0-2.9-.1-4.3a2.663,2.663,0,0,0-.3-1.2c.4-1.8.7-3.7,1.1-5.5a3.133,3.133,0,0,0,1.9-3.9c-.2-1-.5-2-.7-2.9-1.3-5-13.7-9.2-18.1-5.4a90.853,90.853,0,0,0-36.7,1.7c-6.3,1.6-15.2,3.9-19.7,9-.1.2-.3.3-.4.5-2.4.4-4.1,1.5-4.3,3.6l-.9,9.6a15.191,15.191,0,0,0-4.7-1c-2.5-.2-9.8.6-8.3,4.9,2.3,6.9,4.3,14,7,20.8a13.94,13.94,0,0,0,3.1,4.5,69.469,69.469,0,0,1,3.3,25.2,3.7,3.7,0,0,0-.8,1.8c-3.6,16.5,10.2,30.3,25.4,33.5,15.6,3.3,34.5-6.1,35.4-23.5a4.4,4.4,0,0,0-.2-1.6l.9-.6A29.443,29.443,0,0,0,921,358.1c0-.3.1-.6.1-.9a5.179,5.179,0,0,0,3.3-2.6c3.3-7.7,6.7-15.4,10-23.1C936.5,326.6,931.1,323.9,925.6,323.3Zm-29.7,53.2c-4.7,5.1-12,7.4-17.9,3.5a16.644,16.644,0,0,0-5-1.5,27.127,27.127,0,0,1-.6-3.8,48.134,48.134,0,0,0,1-8.5,22.6,22.6,0,0,0,3,.6,44.6,44.6,0,0,0,16.7-.7,88.451,88.451,0,0,0,8.7-1.6A23.08,23.08,0,0,1,895.9,376.5Z" fill="#f2dfd9"/> <path d="M1082.2,271.5c-2.8,9.4-5.5,18.9-8.3,28.3l-.9,3.3a39.581,39.581,0,0,0-6.5-2.5,79.634,79.634,0,0,0-8.2-1.7,2.544,2.544,0,0,0-.7-.2,11.378,11.378,0,0,1-.4-3.7c.4-7.3-16.5-13.1-19.2-5.6a11.122,11.122,0,0,0,1.7,10.3l.9,2.1a7.729,7.729,0,0,0-3.8,1.7,25.143,25.143,0,0,1-4.6,3.2c-4.9.9-9.9,1.9-14.8,2.8-3.1.6-4.8,3-3.4,5.9,1.2,2.4,4.4,4.2,7.4,5.1v.2a28.023,28.023,0,0,0,8.5,17c-7.8,13.7,5.3,27.1,18.1,31.5,12.7,4.4,29.1,3.7,40.7-3.6,5-3.2,9.3-7.5,11.2-13.2,2.5-7.3.2-14.9-1.7-22.1-4.6-17.9-.9-35.6,3.2-53.2C1103.1,269.7,1084.3,264.2,1082.2,271.5Zm-31.5,64.4a.9.9,0,0,0-.5.1,6.7,6.7,0,0,1-4.2-1.2A26.638,26.638,0,0,0,1050.7,335.9Zm-1.2,11.4c-.2.2-.3.4-.5.6a1.379,1.379,0,0,1-.4.3c-.1-.4-.1-.7-.2-1.1C1048.8,347.2,1049.2,347.2,1049.5,347.3Z" fill="#f2dfd9"/> <path d="M1014.7,579.6a20.476,20.476,0,0,1-.5,2.4c-.1,0-.1-.1-.2-.1-4.4-3.8-9.9-5.8-14.7-9.1a43.08,43.08,0,0,1-11.4-11.9,48.931,48.931,0,0,1-6.6-15.6c-1.4-6-1.7-12.3-4.3-17.9-5.5-11.8-18.4-16-30-19.2-3.8-1-14.4-.5-12.8,5.8.3,1.2.6,2.4,1,3.7-.1.1-.2.1-.3.2-9.1,8.7-11.3,21.4-7.6,33.2,4.3,13.8,15.4,24.2,25.1,34.4a114.97,114.97,0,0,1,13.9,17.2c3.8,5.8,7.7,11.4,13.6,15.3,10.6,7.1,30.9,8.6,37.6-4.7a3.673,3.673,0,0,0-.7-4.3c-2.7-2.2-.6-6.4,1.1-10a22.031,22.031,0,0,0,12.9-7.9c2.2-.8,3.7-2.2,3.8-4.2,0-1.9.1-3.8.1-5.7C1034.8,573.5,1015.7,572.1,1014.7,579.6Zm-39.2-7.1a13.358,13.358,0,0,1-.7-1.8c.5.6,1,1.1,1.5,1.6A3.09,3.09,0,0,1,975.5,572.5Zm19,12.4-1.2.3c-.2-.5-.4-.9-.6-1.4C993.3,584.2,993.9,584.5,994.5,584.9Z" fill="#f2dfd9"/> <path d="M1227.7,521.8a17.026,17.026,0,0,0,1.5-4.5c.8-5.9-3.7-9.9-4.8-15.3-1.3-6.7,1.8-13.9,4.4-19.8,3.8-8.4-13.9-10.6-18.5-6.2a42.692,42.692,0,0,1-20.3,10.8c-3.1.7-4.4,3.6-2.7,6.2,1.5,2.2,4.6,3.5,7.5,4.1-12.5,12.8-25.3,25.4-39.9,35.8a192.381,192.381,0,0,1-21.7,13.1c-1.3-.3-2.5-.5-3.8-.7a11.193,11.193,0,0,0-3.5-3.1,16.939,16.939,0,0,0-12.1-1.3,71.989,71.989,0,0,0-39,25.1,82.5,82.5,0,0,1-17.9,3.7c-3.6.3-7.2,3.1-4.8,6.7,2.5,3.9,9.1,4.7,13.1,4.3l2.4-.3c1.8,3.9,10.4,5.1,13.7,4.9a102.873,102.873,0,0,0,19.9-3.8l-.5,3.4c-1,7,13.9,9.3,17.9,6a249.093,249.093,0,0,0,20-18.4c23-7.2,46.6-14.9,66.5-28.8a116.9,116.9,0,0,0,13.4-11c1.5-1.5,3.2-3.1,4.8-4.8-10.2,61.6,6.4,128-17.7,187a11.36,11.36,0,0,0-3.5,8.3c0,2.9,2.8,4.9,6.3,5.9l1.2,11.1c.8,7.8,20.7,8.6,19.9,1.7-.9-8.3-1.8-16.7-2.6-25a6.034,6.034,0,0,0-.6-1.9c22.5-59.7,6.4-125.6,17.3-187.5C1244.6,522.2,1233.8,519.6,1227.7,521.8Z" fill="#f2dfd9"/> <path d="M1068.9,865.4c1.4-3-3-6.3-5.1-7.5-3.4-1.9-7.8-2.8-11.5-1.5a69.706,69.706,0,0,1-35.9,3.2c-.3,0-.6-.1-.9-.1a15.51,15.51,0,0,0-13.2-4.7c-4.3.8-5.2,3.9-2.6,7.3a32.157,32.157,0,0,1,2.9,4.6c-2.8.2-5.2,1.2-4.4,4l7.1,23.5a141.061,141.061,0,0,1-3.6,15.8c-4.8,17.7-9.8,35.1-3.9,53.2,1.1,3.4,5.8,5.5,10,6.3a15.478,15.478,0,0,0,2.7,1c3.3.9,7.8,1.4,9.9-1.9a89.764,89.764,0,0,1,27.3,1.7c2.5.5,9.8.5,8.9-3.9-3.5-17.4-7.2-35.5-4.6-53.3C1054.3,896.2,1061.7,880.7,1068.9,865.4Z" fill="#f2dfd9"/> <path d="M1164.4,964.6c-5.4-31.6-29.7-72.3-4.8-101.5,3.8-4.5-7.3-7.3-9.3-7.4a224.112,224.112,0,0,1-48.1-7.5,17.567,17.567,0,0,0-6.5,0c-3.8.4-7.1,1.9-7.7,4.9-1.8,9.2,2.7,17.5,7.4,25,5.3,8.5,8.4,16.4,8.5,26.6.1,9.5-.9,19.2-1.8,28.6-1,10.1-2.5,20.2-5.6,29.9-2,6.2,7.6,7.9,11.9,7.4a218.175,218.175,0,0,1,45.7-1.1C1156.5,969.7,1165.1,968.8,1164.4,964.6Z" fill="#f2dfd9"/> <path d="M1349.8,964.7q-11.25-31.5-19.7-63.9c-1.3-5.1-9.7-6.3-13.8-6-10.3.9-20.6,1.8-30.9,2.6a8.456,8.456,0,0,0-3.5,1.1c-3.1-.4-12-.2-10.3,5a134.319,134.319,0,0,1,6.6,55.9c-.5,5.2,7.6,7.5,11.4,7.6,17.4.2,34.7,1.1,51.9,2.9C1344.3,970.2,1351.3,968.9,1349.8,964.7ZM1315,915.8a7.465,7.465,0,0,0-1.2-.7,6.468,6.468,0,0,1,.8-.9A7.485,7.485,0,0,0,1315,915.8Z" fill="#f2dfd9"/> <path d="M1425.5,962.4a173.22,173.22,0,0,0-8.7-27.9c-1.6-3.9-8.5-6.4-12.3-6.2a92.253,92.253,0,0,1-38.9-6.2,19.986,19.986,0,0,0-3.3-.8,15.231,15.231,0,0,0-6.3-1.4c-3.6,0-7.6,1.7-5.8,5.9a51.319,51.319,0,0,0,5.7,10.3,48.349,48.349,0,0,1,3.3,24.7c-.9,6.5,9.8,10.3,14.9,9.1a151.938,151.938,0,0,1,45.1-3.2C1421.5,967,1426.3,965.7,1425.5,962.4Z" fill="#f2dfd9"/> <path d="M1442.5,513.8a89.306,89.306,0,0,0-4.5-24c-2.7-7.9-6.9-15.1-14.2-19.5-.7-.4-1.5-.8-2.3-1.2-3.3-4.8-11.2-6.2-16.3-4.2-1.1.5-2.3.9-3.4,1.4a24.129,24.129,0,0,0-5.6,2.2,3.432,3.432,0,0,0-2,3.6c-4.1.1-8.2.4-12.3.4a303.008,303.008,0,0,1-45.2-19.1c-3.7-1.9-10.1-3.4-13.8-.7a5.718,5.718,0,0,0-.8.7,38.1,38.1,0,0,0-5.1-10.8,12.68,12.68,0,0,0-3.6-3.3c4.4-7.8-7.1-16-14-17.5a24.78,24.78,0,0,0-10.5,0,196.367,196.367,0,0,0,1.8-21.7c0-1.6-1.1-3.1-2.7-4.3,2.8-.5,5.5-1.9,4.9-5.1-.9-4.2-8.1-5.9-11.4-5.9-3.2,0-9,1-8,5.4a5.717,5.717,0,0,0,2.1,3c-2.4.6-4.1,2-4.2,4.6a162.352,162.352,0,0,1-5.4,37.4c-.6,2.3.6,4.1,2.5,5.5a11.887,11.887,0,0,0,1.5,10.6,12.956,12.956,0,0,0,4.7,3.9c.3,2.8,3.7,4.9,7.1,6a13.978,13.978,0,0,0,3.8,3.1q1.2.6,2.7,1.2c1.7,2.5,6.5,4.2,10.7,4.7a20.387,20.387,0,0,0,6.2,5c.3.5.5,1.1.8,1.6,1.9,4.1,9.2,6.3,14.1,5.4.9,1.2,1.7,2.5,2.6,3.8a63.117,63.117,0,0,0,7.1,8.4,81.024,81.024,0,0,0,18.2,12.9c13.6,7.3,28.5,12.2,42.9,17.7,8,3,16,6.7,24.3,9,7.3,2,16.9,2.8,22.9-2.9C1442.6,526.6,1442.8,519.7,1442.5,513.8Zm-30,7.6c-.1,0-.2-.1-.3-.1a7.492,7.492,0,0,0,1.6-.5,10.153,10.153,0,0,0,1.3,1.8C1414.2,522.2,1413.3,521.7,1412.5,521.4Z" fill="#f2dfd9"/> <path d="M1322.5,343.9c-.4-3.8-6.3-5.9-10.6-6.4a7.107,7.107,0,0,0-1.7-2.4c-2.5-2.3-5.1-4.6-7.6-6.8-4-5.8-4.7-13.6-4.1-21.4a66.539,66.539,0,0,0,3.8-20.8c.2-7.3-17.7-12-19.5-4.4-1.3,5.4-2.6,10.9-3.4,16.4a36.832,36.832,0,0,1-8.4-11.7c-1.8-3.9-3.3-7.8-6.2-11a21.834,21.834,0,0,0-4-3.5c.2-1.4.3-2.8.5-4.2.9-7.6-12.9-9-17.6-6.8-7.1,3.3-14.1,6.6-21.2,9.9-3.5,1.7-7.1,3.3-10.6,5-1.6.7-6.1,3.5-8,3.9-1.1-.1-2.1-.2-3.2-.3-2.9-.3-8.3.4-8.3,4.3,0,2.2,1.9,4,4,5.2,2.1,20.3,4.5,41.7,16.3,59,8.2,12.1,20.7,21.5,34.8,25.3-.3.4-.5.8-.8,1.2-4.4,6,9.1,9.9,13,9.3a141.119,141.119,0,0,0,41-13.5C1311.2,364.8,1324,357.1,1322.5,343.9Zm-106.1-51.5a1.7,1.7,0,0,0-.1-.7h.9A5.012,5.012,0,0,1,1216.4,292.4Zm24,5.7a16.444,16.444,0,0,0,2.2,1.4,4.344,4.344,0,0,0-1.7,1.2c-.1.1-.1.2-.2.2A3.873,3.873,0,0,0,1240.4,298.1Zm-3.2,14.3c-.9.7-1.8,1.5-2.6,2.2a47.05,47.05,0,0,1,2.7-7.1A11.574,11.574,0,0,0,1237.2,312.4Zm-3.4,17.7c-.3.2-.5.4-.8.6V330A2.485,2.485,0,0,0,1233.8,330.1Zm8.5,27.9a47.4,47.4,0,0,1-10-10,19.7,19.7,0,0,0,8.3-2.2c5.8-3.1,11-8.1,16.3-12.1,1.2-.9,2.4-1.8,3.7-2.7C1259.8,341.5,1250.6,352.1,1242.3,358Zm58.8-8.4a15.989,15.989,0,0,0-.5-2.1,8.33,8.33,0,0,0,1.5.4A15.04,15.04,0,0,1,1301.1,349.6Z" fill="#f2dfd9"/> <path d="M784.4,308.8c-.8-4.7-6.5-6.3-11.6-5.8-.1-.1-.1-.3-.2-.4-1.4-3.1-4.4-5.2-7.3-6.7a30.191,30.191,0,0,0-14.2-2.9,25.007,25.007,0,0,0-5.6-1.6,78.934,78.934,0,0,1-23.4-5.9c-3.8-1.6-17.3-1.3-14.9,5.7,1,2.8,2,5.7,3,8.5-1.2,4.8,1,9.8,6,12.6a20.405,20.405,0,0,0,7,1.5h.1c4.4,1.6,9.9,1.3,13.7-1.5,2.2-1.7,4.5-3.3,6.7-5,.8-.4,1.5-.8,2.3-1.2,1.3-.6,6.3-2.4,6.6-2.2,2.3,1.5.2,6.7-.2,8.7a13.405,13.405,0,0,0,.7,8.6,5.674,5.674,0,0,0,1.2,1.8l-.3.9c-.6,2.4,3.2,4.2,4.8,4.9l.7.3c3.9,1.5,10.6,1.6,13.7-1.5a3.827,3.827,0,0,0,.8-1.1,8.867,8.867,0,0,0,1.7-.8A15.835,15.835,0,0,0,784.4,308.8Z" fill="#666"/> <path d="M1043.5,288.9a20.2,20.2,0,0,0-6.6-2.4c-3.2-2.9-9.7-3.9-13.6-2.5a7.492,7.492,0,0,0-3.7,2.6c-6-1.9-13.2-1.3-12.4,4.3a15.532,15.532,0,0,0,.5,2.3c.1,2-.2,4,0,6a10.836,10.836,0,0,0,4.7,7.4c5.4,3.8,15.7,5.5,20.4-.2h0c4.8-1.4,7.6-4.5,8.4-8.3,2.4-.2,5-.9,6-3C1048.3,292.5,1045.6,290.2,1043.5,288.9Z" fill="#666"/> <path d="M1080.2,278.3c-3.4-2.1-8.6-3.7-12.5-1.9a66.564,66.564,0,0,1-18,5.3c-2.6.4-5.6,3-3.6,5.8,6.5,9.1,18.8,14.6,29.9,11.8,2.3-.6,3.7-1.9,4-3.5.1,0,.1-.1.2-.1,4.1-2.2,5-6.1,3.6-9.5C1086.2,283.2,1082.5,279.7,1080.2,278.3Z" fill="#666"/> <path d="M740.2,290.3c-4.2-1.8-9.8-2.3-13.8.3-4.1,2.7-8.1,5.3-12.2,8-3.8,2.5-.2,6.6,2.7,7.8,4.2,1.8,9.8,2.3,13.8-.3,4.1-2.7,8.1-5.3,12.2-8C746.7,295.7,743,291.6,740.2,290.3Z" fill="#fff"/> <path d="M779.4,306.1c-4-1.6-10.2-2.3-13.8.7-3.7,3-7.4,6-11.2,9-3.5,2.8-.3,6.5,2.9,7.8,4,1.6,10.2,2.3,13.8-.7,3.7-3,7.4-6,11.2-9C785.7,311.1,782.5,307.4,779.4,306.1Z" fill="#fff"/> <path d="M1038.3,289.7a11.391,11.391,0,0,0-4.9-4.3,16.363,16.363,0,0,0-7.5-1.9c-1.9.1-4,.3-5.4,1.7l-6.9,6.9a3.612,3.612,0,0,0-.4,4.3,11.391,11.391,0,0,0,4.9,4.3,16.363,16.363,0,0,0,7.5,1.9c1.9-.1,4-.3,5.4-1.7l6.9-6.9A3.482,3.482,0,0,0,1038.3,289.7Z" fill="#fff"/> <path d="M1072.1,277.3c-3.3,0-9.9.5-10.3,4.9-.3,4.2,6.8,6,9.7,6,3.3,0,9.9-.5,10.3-4.9C1082.1,279,1075,277.3,1072.1,277.3Z" fill="#fff"/> <path d="M1304.1,271.2c-6.7-22.8-23.4-42.6-48.4-45.3a46.062,46.062,0,0,0-7.4-.2,16.584,16.584,0,0,0-8.1-2.1,10.244,10.244,0,0,0-4,1,17.555,17.555,0,0,0-8.7-1,54.167,54.167,0,0,0-34.5,20.8,51.327,51.327,0,0,0-9.1,18.8c-.7,2.8-1.9,7.1-.6,9.9,2,4.2,8.2,6.5,12.4,7.1,7.3,1.2,12.8-1.6,16.6-7.2,3.2.9,7.3,1.3,9.7-1.1,2.1-2.1,4.2-4.2,6.4-6.2.6-.1,1.3-.2,1.9-.3,7.2-1.5,12.7-7.3,20.1-8.1a14.1,14.1,0,0,1,9.1,1.9,7.873,7.873,0,0,0-1.5,8.4,13.694,13.694,0,0,0,6,6.8c.4,2.7.8,5.4,1.1,8a22.369,22.369,0,0,0,.7,5.1c1.8,6.3,20.5,11.5,19.3,2.9l-.6-4.5a11.908,11.908,0,0,1,2-6.7,9.852,9.852,0,0,1,3.9-3.4c1.3-.6,4.1-.5,2.4-1C1294.9,275.5,1305.7,276.9,1304.1,271.2Z" fill="#666"/> <path d="M776.7,243.9a47.473,47.473,0,0,0-4-3.8c-17.5-15.3-42.7-21.1-65.3-16.7-11,2.2-23.5,7.3-30.6,16.4a21.467,21.467,0,0,0-4.5,16.7c1.1,6.7,7.3,9.7,8,16.3,1.1,6.9,20.3,9.8,19.5,1.4,0-.4-.1-.7-.1-1.1a41.927,41.927,0,0,1-.3-5,6.11,6.11,0,0,0,.7-1.4c.4-1.5.8-2.9,1.1-4.4,3.7-.2,6.6-1.8,6-5-2.6-13.5,12.1-19.7,23.1-19.6,10.6.1,21.3,1.8,29.2,8.9.6.6,1.3,1.2,1.9,1.9,3.1,3.2,9.7,4.4,13.8,3.1C779.3,250.1,779.5,246.9,776.7,243.9Z" fill="#948600"/> <path d="M1095.4,254.7c-.7-.6,1-6.6,1.1-8.1a12.288,12.288,0,0,0-2.8-9.1c-2.6-3-6.3-4.8-10.3-5.9.7-2.3,1.4-4.7.9-6.9-1.4-6.6-9.5-9.4-16.7-11.1-1.4-1.7-4.2-2.6-6-3.1a55.377,55.377,0,0,0-43.6,4.9,4.672,4.672,0,0,0-1,.5.758.758,0,0,1-.4.2c-4.8,1.6-9.3,4.1-11.4,8.7a11.275,11.275,0,0,0-.8,2.4,42.509,42.509,0,0,0-6.1,13.7c-3.2,12.8-.2,26.3,2.4,38.9,1.4,6.7,21.1,7,19.4-1.5a47.821,47.821,0,0,1-.7-6.5,17.277,17.277,0,0,0,9,1.6c2.3-.2,8-1.4,7.7-4.7-.1-1.2-.2-2.3-.3-3.5,3.3.5,7.8.5,10.3-1.8a3.911,3.911,0,0,0,1.2-4.3l1.8-.6c2.5-.9,4.6-4.4,2.1-6.5a14.548,14.548,0,0,1-5.4-9.2,38.6,38.6,0,0,0,4.9-.6c7,14,23.5,21.9,39.6,21.3C1095.6,263.3,1101.1,259,1095.4,254.7Z" fill="#a18c77"/> <path d="M1091.7,267.8c-.6-1.6-1.3-3.2-1.9-4.9-1.9-4.8-10.5-5.2-14.5-4.2-3.6,1-6.3.2-9.2-1.7l-.9-.6c-.2-.2-.5-.3-.7-.5h-.1a17.379,17.379,0,0,0-1.9-1c-3.6-1.7-9.6-1.7-13,.6-3.2,2.2-2.6,5,.3,7.2a6.072,6.072,0,0,0,1,.7c-.4.1,0,1.1.1,2.1-1.6.3-3.1.5-4.7.8-1.6-.5-3.3-1-4.9-1.4-3.4-1-9.6-.6-12,2.4a3.1,3.1,0,0,0-.2,4.2,56.122,56.122,0,0,1-8.2.1c-3.2-.2-9.9.5-10.3,4.8s6.7,5.9,9.6,6.1a83.759,83.759,0,0,0,29.9-3.4,24.11,24.11,0,0,0,15.4-3.9c.2-.1.3-.2.5-.3a131.264,131.264,0,0,1,15.4-.9C1084.6,274,1093.9,273.2,1091.7,267.8Z" fill="#f2dfd9"/> <path d="M931.3,298.5c-1.3-12.1-4-23-13.8-31-8.9-7.3-21.3-10.7-32.6-9.8-24.5,1.8-41.3,19.9-47.5,42.8-.4,1.4.3,2.5,1.3,3.5.8,4.6,13.7,7.9,18.1,4.4,2.5-2,5-4.1,7.5-6.1a16.055,16.055,0,0,0,11.8.7,61.664,61.664,0,0,1,22.3-3.3,13.933,13.933,0,0,0,4.4,2.2,15.017,15.017,0,0,0,9.6-.1c1.9.5,3.9,1.1,5.8,1.8C922.3,305,932,304.8,931.3,298.5Z" fill="gray"/> <path d="M942.3,400.4a17.255,17.255,0,0,0-11-.6h0a6.388,6.388,0,0,1-2.1-1.9c-3-3.6-8.8-4.8-13.2-4.1-.3.1-.7.1-1,.2-4.9-.7-9.8.4-10,4.1-.4,17.6-20.4,24.8-35.2,20.3-16.3-5-26.1-20.9-27.9-37.2-.6-5.5-13.5-7.7-18-4a28.166,28.166,0,0,0-4-.2A143.924,143.924,0,0,0,757,393.8c-2.3,1.2-2.2,3.4-1.1,5.4,16,31.4,12.3,68.4,10.4,102.3a706.981,706.981,0,0,0,2.9,116.4c1.2,11,2.6,21.9,4.3,32.8,1.6,10.1,4,20.3.1,30.1-.9,2.3,2.3,4.7,3.9,5.6,36.7,22.7,84.3,22.8,125.7,16.3,9.4-1.5,19.8-4.2,25.5-12.5,6.1-8.9,6.7-21.4,7.3-31.8,1.3-24.2-2.7-48.2-5.4-72.1-2.9-26-4-52.7,4.8-77.7,1.5-4.2-5.5-6.7-9.4-7.5,16.8-28.7,9.1-64.8,21.6-95.1C948.7,403.7,943.8,401.1,942.3,400.4Zm-18.1,9a9.29,9.29,0,0,1,1.3.4c-.6,1.9-1.1,3.8-1.6,5.8C924,413.5,924.1,411.5,924.2,409.4Z" fill="#f5ffb4"/> <path d="M945.9,772.7c.1-13.4.3-27.3-1.3-40.6a38.346,38.346,0,0,0-6-16.3c-3-4.7-6.4-8.8-6.4-14.6,0-3.3-5.9-5.6-8.4-6.3-3.4-.9-7.6-1-10.3,1.5-7.7,6.8-18.9,6.2-28.4,6.2-12.1,0-24.1-.2-36.2-1-23.5-1.5-46.8-5.3-68.4-15-3.1-1.4-7.5-2.1-10.7-.7-2.2.9-4.2,3.3-2.3,5.7,1.6,1.9,3.1,3.8,4.7,5.7a4.254,4.254,0,0,0-.2,1.1c-.3,18.2,7,35,11,52.5,4,17.6.8,34.4-4.1,51.2a13.935,13.935,0,0,0-8.7-2.3c-2.7.1-9,1-8.9,4.9.6,26.6,1.1,53.3-2.1,79.7-1.6,13.1-4.9,25.7-7.8,38.6-2.5,11.3-3.2,24.3,7.8,31.3,10.8,6.9,26,8,38.4,6.6,11.7-1.3,23.8-4.7,26.9-17.4,3.1-13.1,4.9-26.6,7.3-39.9,2.4-13.2,4.2-26.3,4-39.8-.2-14.3-1.8-28.6-.2-42.8q.3-3.15.9-6.3a95.363,95.363,0,0,0,18.7-24.6c17.6,43.9,4.6,94.1,13.9,139.8a7.857,7.857,0,0,0-3.7,5.1c-1.3,5.8,4.5,9,8.7,11.2a84.255,84.255,0,0,0,33.6,9.5c10.3.6,23.7,0,30.8-8.8,6.6-8.2,5.1-19.3,2.7-28.8-6.2-23.9-5.9-47.3-2.8-71.6C941.5,822.1,945.8,797.7,945.9,772.7Z" fill="#bdb4ff"/> <path d="M1189.4,838.8a851.351,851.351,0,0,1-11.8-142.6c0-5.9-8.7-8.7-13.6-8-8,1.3-16.1,2.5-24.1,3.8-1.8.3-5.8.9-5.9,3.5q-1.35,33.6-2.7,67.3c-.3,8,.6,18.6-4.6,25.3a10.283,10.283,0,0,1-1.4,1.5,7.953,7.953,0,0,0-3.2-2.4,16.431,16.431,0,0,0-10.5-1,9.844,9.844,0,0,1-1.4-1.8c-1.4-3.1-1.4-6.6-1.1-9.9.7-8.3,2.6-16.5,3.6-24.7a304.656,304.656,0,0,0,1.6-51.4c-.3-5.2-7.9-7-12-6.7-37.8,3.3-76.6,6.8-113.9-2.1-3.6-.9-10.4-1.5-12.7,2.4-1,1.8-.4,3.3.8,4.6,0,.1-.1.2-.1.3-4.9,25.4-6.7,51.2-7.1,77-.2,12.9-.1,25.9.1,38.8.1,10.6-.7,22.4,6.2,31.2,7.3,9.2,19.6,12.4,30.7,13.4,13.1,1.2,26.4-.1,39.4-1.7,10.1-1.3,21.9-1.9,29.9-9.2,4.5-4.1,6.2-9.5,6.9-15.2a19.2,19.2,0,0,0,1.4,1.5c12,12.7,32.2,17,48.9,18.4a115.646,115.646,0,0,0,52.7-7.7C1187.9,842.6,1189.9,841.5,1189.4,838.8Z" fill="#e6e6e6"/> <path d="M1231.3,456c-1-3.9-2.7-7.8-4-11.6-2.7-7.7-5.6-15.4-8.6-23-5.2-13.1-10.4-26.3-16.7-38.9-.9-9.4-5.5-18.3-12-25.5-10.9-12-26.8-17.7-42.4-20.1a146.869,146.869,0,0,0-23.9-1.5h-3.6c-3.9-1.6-9.7-2.9-13.3-.1a3.757,3.757,0,0,0-1.7,3.5,24.755,24.755,0,0,0-2.6,1.9c-4.8,4.5-6.3,11.5-11.3,16.2-5.2,5-12.2,7.7-19.1,9.2-8.5,1.8-17.6,2.1-26.3,2.1-2.9,0-6.1,0-8.4-1.8a9.32,9.32,0,0,1-3.2-9c1.1-6.2-11.9-10.4-17.3-7.6a11.248,11.248,0,0,0-7.9.2c-14.1,6.8-28.4,13.8-40.6,23.8a81.5,81.5,0,0,0-25,36.4c-5,14.4-6.5,29.6-7.4,44.7-.8,13.2.5,29.8-10.8,39-5.3,4.3,6.8,9.9,9.5,10.3,5.2.6,10.5,1.2,15.7,1.9,1.4,2.6,5.5,4.5,7.5,5.4a46.237,46.237,0,0,0,28.2,2.3c.3-.1.7-.2,1-.3-.1,12.8-1,26,.6,38.6,1.6,12.3,8.2,23,19.6,28.5,3.1,1.5,14.4,4.3,13.8-2.5-.2-2.7,1.5-6.5,4.5-7.3a.1.1,0,0,1,.1.1,12.44,12.44,0,0,1,3,4.1c2.1,4,2.9,8.7,3.2,13.1a13.556,13.556,0,0,1-.6,6,2.992,2.992,0,0,1-.4,1c-4.5-1.9-9.5-2.3-11.1,1.9q-10.05,25.5-20.2,51.1a14.89,14.89,0,0,0-7.3-2.1c-3.3,0-9.9.4-10.3,4.9a9.931,9.931,0,0,1,.8,6c2.4,4.6-.9,10.4-1.3,15.3a14.938,14.938,0,0,0,5.5,13.1c5.6,4.6,12.7,5.6,19.7,6.5,6.9.9,13.7,1.7,20.6,2.3a401.252,401.252,0,0,0,82-1.7c2.1-.3,4.6-1.6,4.3-4.1a308.18,308.18,0,0,1-.2-87.9c.6-4.2-3.8-7.5-7.5-8.6-18.2-5.5-37-10.6-55.8-7.3a44.271,44.271,0,0,0-1.8-5.5,6.075,6.075,0,0,0,2.6-1.6c2.9-3.3,6.3-6.9,5.6-11.6a9.01,9.01,0,0,0-3.5-5.7,60.069,60.069,0,0,1,.5-8.4,7.1,7.1,0,0,0,2.3-1.9c1.5-1.9.9-3.9-.4-5.5a561.046,561.046,0,0,1-4.3-59.3c-.1-5.2-8.5-6.5-12.3-6.2-.6.1-1.2.1-1.9.2a110.067,110.067,0,0,1,6-21.8,32.328,32.328,0,0,0,10.6-4.5,63.782,63.782,0,0,1,2.2,6.6c4.6,18.2.3,40.7,17.5,52.9a21.34,21.34,0,0,1-1,9.4c-1.1,3.3,1.3,5.2,4.1,6.5h0c.4,1.8.7,3.5,1.1,5.3,1.4,6.1,19.4,7,19.7,0a13.318,13.318,0,0,0-1.2-6.1,269.812,269.812,0,0,1-5.3-47.4,3.959,3.959,0,0,0,.7-1.9,128.669,128.669,0,0,1,15.2-49.4,3.185,3.185,0,0,0-.1-3.4,56.379,56.379,0,0,1,8.7-9.6c13.6-11.6,32.6-13.1,47.5-3a13.825,13.825,0,0,0,5,2,44.831,44.831,0,0,1,8.2,13.4c6.2,15.9,4.6,33.3,3.1,49.9-.6,7.1,11.7,7.8,16.2,6.7a60.543,60.543,0,0,0,32.5-20.4C1230.1,461.5,1232.2,459.3,1231.3,456Z" fill="#d2d1d2"/> <path d="M1188.5,654.5a308.139,308.139,0,0,1-6.8-88.3c.5-7.3-16.9-13-19.2-5.5-11.5,37.7-23,75.8-24.7,115.4a5.7,5.7,0,0,0,.1,1.3c-.7,1.4-1.4,2.7-2.2,4.1a16.183,16.183,0,0,0-1,1.8c-3,6.1,15.3,12.3,18.5,6.8.2-.4.5-.9.7-1.3h0c2-4,7.3-2.5,10.7-2,5.9.8,12.3,1.3,17.9-1C1195.8,680.2,1190.9,665.1,1188.5,654.5Z" fill="#d2d1d2"/> <path d="M1121.5,599.4c-.9,9.1-1.7,18.1-2.6,27.2-.7,6.8,18.2,12.5,19.1,3.9.6-6.2,1.3-12.4,1.9-18.6v-1c.2-2.5.5-5,.7-7.5C1141.2,596.5,1122.3,590.8,1121.5,599.4Z" fill="#d2d1d2"/> <path d="M1438.4,686.2a4.441,4.441,0,0,0-1.1-.8,428.582,428.582,0,0,0-13-135.8c2.3-9.3-4.6-17.4-12.2-21.7-9-5-19.4-6.1-29.1-9.2a138.812,138.812,0,0,1-49.7-28.2,17.338,17.338,0,0,0-9-4.1c-1-3.2-6.7-4.9-9.3-5-5.2-.2-9.5-3.4-13.7-6.3-4.8-3.2-9.6-6.5-14.2-10-8.3-6.3-15.8-13.6-20.8-22.8-.7-4.4.8-8.7,2.6-13,2.9-.6,5.2-2,5.6-4.5a167.51,167.51,0,0,0,1.3-33.2c-.4-6.2-10-7.1-14.5-6.2-2.3.5-4.6.9-6.9,1.4.1-1.4-.6-2.8-2.6-4-4.1-2.6-9.9-2.1-14.1-.3-6.3,2.6-13,6.1-17.9,10.8a39.736,39.736,0,0,0-4.8,4.4c-1.6,1.7-1.8,3.1-1.1,4.3a20.306,20.306,0,0,0-.9,10.8c2.7,16,16.2,27.7,16.7,44.4.3,8.4-1.1,16.9-1.3,25.3a181.457,181.457,0,0,0,1.2,25.5,197,197,0,0,0,8.2,38.8,6.112,6.112,0,0,0-2.8,3.7,116.309,116.309,0,0,0,5.2,68.3,3.453,3.453,0,0,0-.5,1.8c-1.3,17.2-2.7,34.4-4,51.6-7,5-14.4,12.8-8.4,21.4,2.9,4.1,7.9,6.9,11.9,9.9,1.2.9,2.3,1.7,3.5,2.6a4.178,4.178,0,0,1,4.6-1,117.322,117.322,0,0,0,24.8,5c-.1-.1-.2-.1-.2-.2a422.414,422.414,0,0,0,46.4-.1,3.752,3.752,0,0,0,1,.1,275.9,275.9,0,0,0,106-12.8c5.2,1.6,11,1.2,11.4-2.6,0-.5.1-1,.1-1.4.1,0,.2-.1.3-.1C1440.4,692,1441.2,688.6,1438.4,686.2Z" fill="#ff7f8a"/> <path d="M1429.8,464.8c-2.4-16.6-4.7-33.2-8.3-49.5-3.3-14.9-7.1-31.1-15.5-44-7.7-11.8-20.5-17.3-33.8-20.2-11.5-2.5-24.2-2.9-33.5-10.8-4-3.3-15.7-4.1-17.4,2.2a55.9,55.9,0,0,1-33.2,37.5c-4,1.6-3.9,5.3-.7,7.7a11.78,11.78,0,0,0,1.9,1.1,4.637,4.637,0,0,0-.4,2.1c.2,6.9.4,13.7.5,20.6.1,3.9,7.4,6.1,10.6,6.5a10.711,10.711,0,0,1,1.8,1.9,47.87,47.87,0,0,1,3.4,5.3,63.117,63.117,0,0,0,26.4,24.9,107.745,107.745,0,0,0,23.7,8.9,76.889,76.889,0,0,0,30.2,9.2c8,.6,12.1-5.3,19-7.9a12.548,12.548,0,0,1,2.6-.7c1.6,1.8,2.6,2.3,3.2,5C1411.4,470.7,1430.7,471.3,1429.8,464.8Z" fill="#ff7f8a"/> <path d="M1458.4,896.1c-.8-10.3-1.6-20.6-2.4-30.8-1.7-22.4-3.5-44.7-5.2-67.1,1.1-29.4-15.5-58.1-17.3-87.6,1-.5,2.1-1,3.1-1.5,4.2-2,.7-6.5-1.9-8.1a15.629,15.629,0,0,0-13.8-1.1c-4.3,1.9-8.6,3.6-13.1,5.1-13-1.6-26-.3-38.9,2.4-10.4,2.2-20.7,5.4-31,7.9-2.8,0-5.6.1-8.4.1-18.2,0-37.4.2-55.9-2.4-12.8-3.4-25.4-7.1-38.1-10.6-3-.8-9-.9-10.6,2.5-1.3,2.8,1.3,5,3.8,6.4-1.7.9-2.8,2.2-2.6,4a606.466,606.466,0,0,1-3.1,118.2c-1.2,9.6-2.7,19.2-4.4,28.8-1.3,7.5-2.5,15.6.6,22.9,7,16.5,30,16,44.9,15.7a278.582,278.582,0,0,0,56.1-6.9c19.6,24.7,51.9,35.1,83,35.6a204.3,204.3,0,0,0,29.2-1.7c7.7-1,17.8-1.5,23.6-7.4C1462,914.4,1459,903.5,1458.4,896.1Z" fill="#b49986"/> <path d="M1134.6,673a333.228,333.228,0,0,1,20.8-83.4c2.6-6.7-16.4-12.6-19.3-5.4-2.5,6.4-4.8,12.8-6.9,19.3-1.2-6.4-19.2-10-19.3-1.7-.2,22.6-.2,45.3,5.4,67.3.6,2.5,2.8,4.3,5.3,5.4-1.7.8-2.9,2-3,3.7v.2c-1.8.8-3.1,2-3,3.8.3,7.8.4,15.7.3,23.5-1.4,15.1-2.6,30.3-2.6,45.5q-1.35,13.65-3.6,27.3c-.7,4.2,6.7,6.2,9.4,6.4l5,.3c2.4.1,11-.2,10.5-4.5a255.088,255.088,0,0,1-1.4-27.6c1.6-15.1,2.4-30.3,2.6-45.5l2.7-27.6c.2-2.3-1.5-4.1-4-5.2A2.452,2.452,0,0,0,1134.6,673Z" fill="#fff"/> <path d="M1088.4,534.9c1-5.5-8.9-9.5-15-8.3a12.129,12.129,0,0,0-5.1-3c3.1-.3,7-1.3,6.4-5-.7-4.1-7.9-6.3-11.2-6.3-3.2,0-9,.5-8.3,5.1.4,2.5,3.2,4.3,6.1,5.3-3.4.3-6.1,1.8-6.1,5v16.8a4.368,4.368,0,0,0,.7,2.1,39.731,39.731,0,0,1-3,14.2c-1.3,2.9,3.5,5.8,5.6,6.8l-12.3,5.4c-4.3,1.9-.9,6.5,1.7,8.1,4,2.5,9.4,3.4,13.7,1.4,4.4-2,8.9-3.9,13.3-5.9a7.237,7.237,0,0,0,5.6-2.9c1.8-2.8.7-4.9-1.6-6.4.4-1.3,1-2.7,1.3-3.7a.9.9,0,0,0,.5-.1c1.7-.1,5.9-.9,6-3.4a15.862,15.862,0,0,1,1.8-7.4c1.3-2.1,3.9-3.6,4.6-6.1C1094.6,541.1,1087.4,540.2,1088.4,534.9Z" fill="#fff"/> <path d="M1033.2,540.9c-4.6-7.4-21.7-12.1-25.4-2-.9,1-2.3,1.7-3.1,2.6a7.206,7.206,0,0,0-1.9,5.4,8.443,8.443,0,0,0,3.3,5.6l-.6,3.6a158.061,158.061,0,0,1-5.9,17.6c-2.6,6.9,16.3,13.3,19.1,6.1a146.365,146.365,0,0,0,6.3-19.4c.4-1.6.6-3.2.9-4.8C1032.4,553.3,1037.8,548.2,1033.2,540.9Z" fill="#fff"/> <path d="M1003,628.1a14.035,14.035,0,0,0-1.8-1.2c1.7-.9,2.8-2.3,2.3-4.5-1.1-4.2-8.3-5.4-11.7-5.4-3.2,0-8.9,1.5-7.8,5.8a5.521,5.521,0,0,0,3.2,3.5,4.63,4.63,0,0,0-1.7,2.4l-1.1,4.4a2.975,2.975,0,0,0-1.2,2c-.1,1.4-.3,2.7-.4,4.1-.4,4.3,5.4,6.7,8.8,7.2,3.3.5,9.7.8,10.8-3.5l2.7-10.5C1005.6,630.8,1004.1,629,1003,628.1Z" fill="#fff"/> <path d="M908.4,368.5l-.3-.3a13.414,13.414,0,0,0-3.8-2.6c-5.1,1.3-10.5,1.5-15.8,1.9a4.259,4.259,0,0,1-3-.8l-2.1.6c-1.4.4-3.1,1-3.8,2.5-3.2.4-6.1,2.5-4.4,6,1.9,4.1,8.5,5.9,12.5,5.9,2.4,0,4.9-.9,5.8-2.7.4-.1.8-.1,1.2-.2,1.9-.5,3.8-1.1,5.7-1.6C902.8,374,905.8,371.3,908.4,368.5Z" fill="#fff"/> <path d="M1165.8,432.6c-2.6-7.3-5.7-13.5-13.7-14.7a4.4,4.4,0,0,0-1.4-1.7c-2.6-2.1-7.4-2.6-10.5-1.3-20.4,8-27.5,29.9-32,49.5a207.6,207.6,0,0,0-3.9,70.7c.6,5.7,9.8,6,13.6,3.8,3.5-2,5.9-.4,9.4.8a31.35,31.35,0,0,0,13.6,1.7,31.814,31.814,0,0,0,19.9-9.6c11.9-12.1,13.3-29.9,13.3-46C1174,467.8,1171.8,449.6,1165.8,432.6Z" fill="#d2d1d2"/> <path d="M1123.9,605.7c-.4,4.8-.7,9.7-1.1,14.5-.4,5.5,14.6,6,15,.3.4-4.8.7-9.7,1.1-14.5C1139.3,600.5,1124.3,600,1123.9,605.7Z" fill="#d2d1d2"/> </g> <g id="SOMBRA" opacity="0.3"> <path d="M815.6,388.2c-.6-.8-2.8-2.7-2.6-3.6,1.1-4.9-7.8-7.5-11.3-6.7-3.1.7-6.1,1.5-9.1,2.4-6.1-.3-12.1,1.2-16.5,5.5a170.958,170.958,0,0,0-20.4,9.4c-4.2,2.3.1,6.1,4.8,7.7.7,2.2,1.3,4.4,1.8,6.7a68.261,68.261,0,0,0-19.1-19.5,34.682,34.682,0,0,0-12.6-5,11.419,11.419,0,0,0,.5-3.3c-.1-6-4.8-9.5-10-11.1a43.239,43.239,0,0,0,18.2-2.1c14.6-5.1,24.2-17.8,30.5-31.3.9-2-.7-3.7-3.1-4.8a1.818,1.818,0,0,0,1-1.6c9.5,0,19-9.4,17.5-19.3-1.6-10.7-18.2-13-26.7-14.5l-1.8-.3c-.1-2.1-3.8-3.7-5.4-3.9a176.534,176.534,0,0,1-28.8-6.5c-2.5-.8-11.5-1.7-11.4,3v.9c-9.6,7.3,5,19.4,12.5,22.7a22.35,22.35,0,0,0,20-.7,27.212,27.212,0,0,0,8.4-7.8c.3,0,.7.1,1,.1-.9,6.4-.2,14.6,3.5,20.1a8.447,8.447,0,0,0-1.7.5,20.7,20.7,0,0,0-13.2,16.9c-.3,2.5,2,4.6,4.8,5.7A43.9,43.9,0,0,1,734.7,358c-7.8,4.5-18.3,6.2-25.4-.4-2.5-2.3-6.8-3.8-10.2-2.9-2.9.8-4,3.3-1.6,5.6a39.723,39.723,0,0,0,19,9.7c-2.3,0-4.7.7-5.1,2.8-.5,2.5,2.4,4.2,4.7,5-.2.2-.1.6.3,1.3a8.076,8.076,0,0,1-.5,3.1,16.7,16.7,0,0,1-2.5,4.3c-.8,1.1-1.6,2.1-2.3,3.1a16.807,16.807,0,0,0-3.2,5.4c-1.7,4.7,10,7.6,13.8,4.2,2.1,4,7,7.1,11.1,9.4A132.735,132.735,0,0,1,757.9,427a11,11,0,0,0,6.7,2.5c.1,4.4.1,8.9-.1,13.3-.4,14.8-.8,29.7-1.2,44.5q-1.2,45.15-2.3,90.3a3.743,3.743,0,0,0,.5,1.8c-.9,4.6-1.9,9.2-2.8,13.7-1.2,5.7,13.2,9.9,14.3,4.6,6.2-30.2,12.4-60.8,11.8-91.8-.3-15.4-3.6-30.3-4.9-45.6-1-11.8.3-24.4,7.4-34.1,2.1.1,4.1-.4,4.8-2.3A50.573,50.573,0,0,1,810.3,401c3.1-2.1,7-4.2,6.9-8.4A8.161,8.161,0,0,0,815.6,388.2Z"/> <path d="M591.6,530.2c6.5-17.9,13.3-35.7,21.3-53,2.6-5.7-12-7.9-14.3-3.1-8.3,17.9-15.3,36.3-22,54.8-6.3,17.4-13.8,35.2-14.4,54-1.3,38.2,20.4,71.8,30.4,107.5,1.4,5.1,16.3,4.9,14.6-1.2-9.8-34.9-31.3-67.9-30-105.3C577.9,565.1,585.4,547.5,591.6,530.2Z"/> <path d="M775,738.3a36.23,36.23,0,0,0-27.5,8.4c-.7.2-1.4.3-2.1.5-2.5-2.5-10.4-3.2-13-1-9.5,8-22.3,9.6-34.1,13.1a11.135,11.135,0,0,0-5.7-1c-5,.7-9.9-1.2-15-.3a16.545,16.545,0,0,0-11.1,6.6c-.3.5-.6,1-.9,1.4-3.5-3-14.2-2.6-13.7,1.7a73.958,73.958,0,0,1-.1,15.6c-2.6,0-5.1.9-5.8,2.7a72,72,0,0,0-4.6,16.3c-.5,3.1,4.4,4.9,8.7,4.7v1.8a36.073,36.073,0,0,0-6.5-.7c-4.6.1-8.9,2.2-10.9,5.6a7.4,7.4,0,0,0-3.5,1.9A105.637,105.637,0,0,0,610.5,846c-2.4,5.9,12.2,8.5,14.2,3.7a109.334,109.334,0,0,1,14-24.7c4,.4,9.5-.4,8.1-4.2-.5-1.3.1-2.3.2-3.2a20.629,20.629,0,0,0,4.7,1.3c4.4.6,9.9-.1,12.2-4.4,2.2-4-1.2-9.3.9-12.9a2.877,2.877,0,0,1,2.3-1.4,14.048,14.048,0,0,0,4.7,1,26.4,26.4,0,0,1,2.9,1.5q-.75,4.35-1.8,8.7c-2.5.1-4.7.8-5.5,2.2-13.6,22.7-21.3,48.1-27.3,73.8-.6,2.5,3.4,4,5.1,4.5a81.012,81.012,0,0,0,16,3.2,2.133,2.133,0,0,0-.3,1.2c-.1,2.3-.2,4.7-.3,7-.3-1.2-.6-2.3-1-3.5-1.5-5.1-16.4-5.3-14.6.7,3.7,12.2,6.1,26.5,5.5,39.2a1.483,1.483,0,0,1-.1.7c-2.7,5.3-5.6,10.5-8.4,15.7a28.708,28.708,0,0,0-4.7,9c-1.3,5.2,12.4,6.6,14.5,2.6,1.7-3.3,3.5-6.6,5.4-9.8,1-1.2,2-2.4,2.9-3.6a25.89,25.89,0,0,0,5.1-11.2c1.7-3.4,3.4-6.9,4.8-10.5,4.6-11.1,5.3-23,5.7-34.9a3.882,3.882,0,0,0-1.9-3.3,2.521,2.521,0,0,0,1.7-2.3c-2.5-30.2,8.7-58.7,14.1-88a2.456,2.456,0,0,0,.5-1.5c.4-3,.7-5.9,1.1-8.9.3-2.1-1.7-3.7-4.3-4.5,12.6-14.8,32.7-19.5,48.5-30.3,2.4-.7,4.9-1.4,7.4-2,3.3,1.9,10.5,2,12.4.2,1.8-1.7,3.6-3.4,5.4-5a3.072,3.072,0,0,0,1.3-2.2,17.472,17.472,0,0,1,12.4-3.5c2.4.2,7.5-.4,7.8-3.6C782.5,739.6,777.3,738.5,775,738.3Z"/> <path d="M833.8,627.9c-5.2-12-14.3-23.3-27.6-26.3-15.2-3.4-31,3.6-37.8,17.7-2.7,5.5,12,7.7,14.4,2.8,2.8-5.9,7.7-11.8,14.6-12.9,6.9-1.2,12.4,4.8,16.1,9.9,8.7,11.9,12,27.3,11.2,41.8-1.8,32.9-22.7,60.4-42.1,85.5-2.1,2.7,3.3,4.9,5,5.3,3.2.7,7.2.3,9.3-2.4,18.5-23.8,37.4-49.2,41.9-79.8C840.8,655.4,839.4,640.8,833.8,627.9Z"/> <path d="M802.9,780.2a17.447,17.447,0,0,0-4.7-3.8,11.98,11.98,0,0,0-10.6-.4,4.2,4.2,0,0,0-1.7,1.5c-2.1.6-3.8,1.7-4,3.6a151.87,151.87,0,0,0-1.1,17.8,9.211,9.211,0,0,0-5,1.5,3.654,3.654,0,0,0-1.4,1.9,7.606,7.606,0,0,0-1.9-1.2c-5.7-3.1-13.7-3.7-17.4,2.5-.6,1,.5,2.8,1.1,3.5a12.389,12.389,0,0,0,4.6,2.9,12.073,12.073,0,0,0,3.4.7.6.6,0,0,1-.1.4c-1.2,5.7,11.4,9.9,14.2,5,.9-1.7,1.9-3.3,2.8-5l.3.6c.6,1.6,2.8,2.6,5.4,3.1,3.4,3.6,15.2,2.7,13.8-2.9a41.558,41.558,0,0,1,3-28.4A3.01,3.01,0,0,0,802.9,780.2Z"/> <path d="M616.6,943.5c-2.1-2.4-7.4-2.7-10.2-1.7a41.639,41.639,0,0,1-29.1-.2c-2.9-1.1-7.9-1.2-10.3,1.2-2.4,2.5.1,4.7,2.6,5.7a64.572,64.572,0,0,0,44.2.5C616.3,948.1,618.9,946.1,616.6,943.5Z"/> <path d="M930,310.6c1-2.9-2.1-5-5.4-6a22.2,22.2,0,0,0-6.8-2.4,84.2,84.2,0,0,1-19.9-3.7c-2-.6-6.1-1.4-7.8.6a2.177,2.177,0,0,0-.5.8,50.483,50.483,0,0,0-16.9.7A47.153,47.153,0,0,0,839.9,327c-2.3,4.8,11.8,10,14.3,4.6,6.5-13.9,21-24.2,36.8-23,4.3.3,8,1.9,11.6,3.6a2.652,2.652,0,0,0,.6.5,38.01,38.01,0,0,0,19,7.8c5.5.6,7.7-2.6,4.9-5.6A8.457,8.457,0,0,0,930,310.6Z"/> <path d="M885.3,332c-7.2-3.9-17.9-4.7-23.8,1.8-2.6.2-5.1,1.7-3.8,4.6,1.4,3.1,6.4,4.4,9.4,4.4a5.676,5.676,0,0,0,3.4-1,15.527,15.527,0,0,0,2.1-.4,12.414,12.414,0,0,0,2.7-.3c3.4-.8,6.7-1.7,10.1-2.5C889.5,337.6,888.4,333.6,885.3,332Z"/> <path d="M925.9,333.7c-7-10.1-22.7-12.3-31.8-4-2.2,2,1.2,4.6,3.2,5.7,1.9,2.5,6.6,3.6,9.4,3.2a40.936,40.936,0,0,1,11.6-.2C920.6,338.7,929.2,338.4,925.9,333.7Z"/> <path d="M909.2,360a7.946,7.946,0,0,0-3.6-3.2c-2.9-1.4-6.8-2.4-9.7-.3a30.248,30.248,0,0,1-7.6,3.9c-3.3,1.1-1.1,4.9.7,6.2,2.9,2.1,6.8,3.2,10.2,2,.1,0,.1,0,.2-.1a6.494,6.494,0,0,0,4-1.2c1.8-1.3,3.7-2.7,5.5-4C909.9,362.5,909.7,360.9,909.2,360Z"/> <path d="M933.2,399.6c-6-3.4-12.1-6.9-18.1-10.3-2.8-1.6-8.8-2.8-11.3.2-5.4,6.6-13.4,11.6-22.1,11.9-4.9-2.1-13.4-1.4-10.7,3.7a41.819,41.819,0,0,0,17.4,17.2c3.5,5.5,13.7,6.5,19.4,4.8,3.6-1.1,8.1-2.7,10.5-5.8.9-1.1,2-4.8,3.4-7,4,1.9,10.4,2,11.5-1.6.9-3,1.9-5.9,2.8-8.9C936.7,402,934.5,400.3,933.2,399.6Zm-17.8.3a15.667,15.667,0,0,0-3,.5,2.919,2.919,0,0,1-.9.2c-.1,0-.1-.1-.2-.1.7-.5,1.3-1.1,2-1.7C914.1,399.2,914.7,399.6,915.4,399.9Z"/> <path d="M939.5,510c0-1.3-1.7-2.7-2.6-3.4a11.987,11.987,0,0,0-5.4-2.1c-2.5-.3-6.6-.1-6.5,3.3l.3,8.4c0,1.3,1.7,2.7,2.6,3.4a11.986,11.986,0,0,0,5.4,2.1c2.5.3,6.6.1,6.5-3.3Z"/> <path d="M924.9,953.7a11.423,11.423,0,0,0-10.3-1c-9.5,4.4-19.7.5-28.8-2.9-2.5-.9-7.7-2.1-9.6.6s1.7,5.3,3.9,6.1c14.9,5.5,30.9,10.3,46.2,3.2C929.5,958.3,926.8,955,924.9,953.7Z"/> <path d="M1050.7,858.9l-.9,1.5a12.707,12.707,0,0,0-7.5.3,50.223,50.223,0,0,1-30.9,1.1c-2.6-.7-8-1.1-9.5,1.8-1.6,3,2.4,5,4.6,5.6a76.081,76.081,0,0,0,39.9.2c-.4,1-.7,2-1.2,3-2.5,4.9-7.4,6.6-7.3,12.8.1,5.2,14.6,8.7,14.4,2.4-.1-3.8,5.5-7.1,7.1-10.6,1.7-3.7,1.9-8.1,4.2-11.5C1067.4,860.2,1053.7,854.6,1050.7,858.9Z"/> <path d="M1153.6,860.8c-2.3-2.9-6.5-3.8-10-3.6a74.636,74.636,0,0,1-44.3-11.9c-2.2-1.4-7.6-2.8-9.7-.4-1.4,1.6-.6,3.2.6,4.4-1.4.5-2.3,1.4-2.2,2.7.6,10.3,2,20.5,11,26.9,2.8,2,7.3,2.8,10.5,1.5,2.8-1.2,3.5-3.9.8-5.7-5.7-4-6.8-11-7.3-17.6a99.934,99.934,0,0,0,48.5,9.2C1154.9,866.1,1155.3,863,1153.6,860.8Z"/> <path d="M1118.2,811.1c-6-.2-11-3.7-14.4-8.5,3-.4,9.7-2.4,5.8-5.8a39,39,0,0,1-9.4-11.2c-.7-1.2-5.5-13.5-3.5-13.2,2.7.4,7.1.5,8.9-2s-.6-4.3-2.9-5.2a20.18,20.18,0,0,1-10.4-10.9c-2-4.6-1.6-9.7-2.8-14.5a14.55,14.55,0,0,0-9.3-10.4c-4.2-1.6-11.4-.2-14.3-3.7-3.3-3.9-17.7-2-13.1,3.6,3.9,4.7,10.1,5.7,15.8,6.4,2.8.3,4.4.3,5.6,3.2,1.1,2.7,1.1,5.7,1.5,8.5a28.577,28.577,0,0,0,10.1,19c-3.4,1.8-5.4,5.1-4.1,10.5a41.406,41.406,0,0,0,6,13.8c-1.9.7-3.2,2-2.7,4.3,3.5,14.9,18.1,23.9,32.8,24.4,2.4.1,7.5-.5,7.7-3.8S1120.5,811.2,1118.2,811.1Z"/> <path d="M1038.9,595.9c1.5-4.9-13.2-7.2-14.9-1.5-1.6,5.3-3.6,10.7-5,16.1-.7,2.7.1,3.6,1.3,6.1.1.1.1.2.2.4a5.718,5.718,0,0,0-.8.7c-1.5,1.8-4.3,2.1-6.3,3a13.531,13.531,0,0,0-5.9,4.4c-3.3,5-2.5,13.6-3,19.3a3.811,3.811,0,0,0,2.1,3.4l-.3.3a9.568,9.568,0,0,0-2.1-.8l-7.5-1.5c-2.6-.5-7.8-1.1-9.4,1.8-3,1.7-4.2,5.1-1.4,9.7A13.477,13.477,0,0,0,991,662c-.7,2.4-1.4,4.9-2,7.3-.8,2.8,4.4,4.4,6.1,4.7,3,.5,6.4.3,8.5-2.1a42.665,42.665,0,0,0,7.2-11c.1-.2.1-.3.2-.4a27.021,27.021,0,0,0,4.7-3.8c7.7-7.5,15.9-17.5,13-28.5,4.4.9,10.5.8,9.3-3.8-1.3-4.8-4.5-9.3-3.5-14.2C1035.5,605.4,1037.5,600.6,1038.9,595.9Z"/> <path d="M1113.2,605.9a27.568,27.568,0,0,1-2.6-13.3c.2-5.2-11.3-5.6-13.9-2.8-.2.2-.3.4-.4.5a5.685,5.685,0,0,0-3.2-2.5,17.6,17.6,0,0,0-8.8-.8,9.461,9.461,0,0,0-2.3-1.4,12.441,12.441,0,0,0-9.1.2c-1,.4-2.1.9-3.2,1.4-2.5-3.7-12.7-4.1-14-.1a11.272,11.272,0,0,1-3.5,5.8c-1.8,1.5-4.1,1.9-5.1,4.3-1.9,4.8,3.4,8,7.3,8.9a16.7,16.7,0,0,0,14.4-3.7c.6-.5,1.1-1,1.7-1.5a4.616,4.616,0,0,0,.9,1.5,8.469,8.469,0,0,0,4.7,2.6,19.129,19.129,0,0,0,16.7,4.9,14.445,14.445,0,0,0,5.9-2.5C1101.4,612.2,1115.7,611.2,1113.2,605.9Z"/> <path d="M1176.1,569.8c-.1-1.3-1.9-2.6-2.8-3.2a12.193,12.193,0,0,0-5.5-1.7c-2.5-.1-6.6.3-6.3,3.7a9.193,9.193,0,0,1-.6,3.3,6.571,6.571,0,0,1-1.2,1.7,3.006,3.006,0,0,1-1.4,1.1c-2.9,1.7-.9,4.8,1.3,6.1,2.8,1.6,7.3,2.7,10.3.9A12.278,12.278,0,0,0,1176.1,569.8Z"/> <path d="M994.9,482.6a235.685,235.685,0,0,0-5-35.4c-1.1-5.3-15.5-8.5-14.3-2.8a243.147,243.147,0,0,1,4.7,30.6c.7,8.8,1.8,19.5-2.9,27.4-1.9,3.1-5.3,6.7-9.2,6.6-4.2,0-8.4-3.9-11.7-6-7.7-5-16-8.6-25.4-7.6-3.2.4-3.8,3.2-2,5.5,2.2,2.7,6.6,4,10,3.6,4.4-.5,8.6,3.2,12.1,5.4,4.7,3,9.4,5.7,14.8,7.2,9.1,2.5,18.5.5,24.1-7.5C995.5,501.8,995.3,491.7,994.9,482.6Z"/> <path d="M1077.9,329.1c-5.4,8.2-17.5,24.3-29.3,18.5a16.49,16.49,0,0,0-6.9-1c-3-3.3-11.7-5.2-13.5-1.1-3.1,7.1,5.4,12.4,10.8,14.8,3.5,1.6,4.4,5.3,7.7,7.4a17.224,17.224,0,0,0,12.3,2.5c7.5-1.4,12.7-9.1,17.4-14.5a117.929,117.929,0,0,0,15.2-21.3C1094.1,330,1080.5,325.1,1077.9,329.1Z"/> <path d="M1041.3,287.4c-.3-5-12.3-7.7-14.5-3-.1.3-.3.6-.4.9a11.4,11.4,0,0,0-4-.8c-3.3-.2-5.7.7-6.9,3.2-3-.5-5.9.1-6.7,2.4-2.4,6.7-.2,13.4,4.5,18.4,2,2.2,12.2,5.7,13.1.7.1-.6.2-1.1.3-1.7a8.475,8.475,0,0,0,5.5-.6c3.7,1.1,7.7.9,8.1-2A79.157,79.157,0,0,0,1041.3,287.4Z"/> <path d="M1067,280.5c-.3.8-.6,1.5-.9,2.3a10.477,10.477,0,0,0-4.7-3.3c-3.6-1.4-11.8-2.3-12.9,3.1a5.042,5.042,0,0,0,.3,2.7c-1.4,1.3-1,3.1.7,4.7a35.977,35.977,0,0,0,8.6,6c.7.3,1.4.6,2.2.9.5.2.9.5,1.5.7a14.68,14.68,0,0,0,10.9.4,7.652,7.652,0,0,0,3.6-3.5,4.311,4.311,0,0,0,1.7-1.3c.4-.6.9-1.1,1.3-1.7a2.349,2.349,0,0,0,.3-2.4c.8-2,1.5-4.1,2.3-6.1C1083.6,278.1,1069.1,274.9,1067,280.5Z"/> <path d="M1053.9,259.9c-.7-3.1-6.1-4.3-8.7-4.3-4.8.1-7.3-2.3-11-4.9a15.715,15.715,0,0,0-6.8-2.7,99.188,99.188,0,0,1-.2-34.8c1-6.1-11.6-6.3-14.4-3.4-16.7,17.1-22.7,42.7-15.8,65.5,1.6,5.1,16.4,5.9,14.6.1a61.148,61.148,0,0,1,0-35.2,106.334,106.334,0,0,0,9.3,33c2,4.3,16.4,6.5,14.6.1-.3-1-2.4-7.6-3.6-12.5.5.2,1,.5,1.6.7a36.885,36.885,0,0,0,14.3,2.5C1050.4,264,1054.7,263.2,1053.9,259.9Z"/> <path d="M1096.7,240c-.5-5.8-15.4-6.3-15-1a166.155,166.155,0,0,1,.2,23.4c-2.4,2.2-.3,4.9,2.3,5.8.3.1.7.2,1,.3,2.7.9,11.2,2,11.5-2.8A169.576,169.576,0,0,0,1096.7,240Z"/> <path d="M1209.8,311.4c-3.2-2.1-3.5-8.3-3.9-11.8-.7-5.4-.6-10.8,2.4-15.5,2.8-4.5-7.5-7.9-12.2-5.8-2.4.3-5.2,1.1-5.3,3.5a3.172,3.172,0,0,0,1.3,2.6c-1.6,4.8-1.5,9.9-.8,15.1.9,6,1.8,12.3,7.2,15.9,2.9,1.9,7.1,3,10.5,1.6C1211.6,316.1,1212.5,313.3,1209.8,311.4Z"/> <path d="M1213,265.5a15.37,15.37,0,0,0-5.8-.9c.1-.1.1-.3.2-.4,1.8-2.8-1.8-5.2-4.1-6-2.4-.8-7.8-1.9-9.6.9-3.2,5-.9,10.8,3.9,13.7,5.7,3.5,14.7,4.1,19.4-1.3C1219.3,269,1215,266.2,1213,265.5Z"/> <path d="M1228.9,247.3c-1.2-3-6.1-5-9.1-5-2.7,0-5.7,1.1-4.5,4.3,1.2,3,6.1,5,9.1,5C1227.1,251.6,1230.2,250.5,1228.9,247.3Z"/> <path d="M1265.5,243.7a15.3,15.3,0,0,0-6.1-1.3.349.349,0,0,0,.1-.2c4-4.5-9.7-10.1-13.3-6.1-4.3,4.8-2,11.6,2.9,14.9,5.4,3.6,15.5,5.1,19.9-1C1271.1,247.3,1267.8,244.7,1265.5,243.7Z"/> <path d="M1279.2,257.7c-.8-3.2-6.2-4.1-8.8-4.1-2.4,0-6.7,1.1-5.9,4.3s6.2,4.1,8.8,4.1C1275.7,262,1280,261,1279.2,257.7Z"/> <path d="M1273.3,267.8c-.9-3.2-6.3-3.9-8.9-3.9-2.4,0-6.6,1.3-5.8,4.4.9,3.2,6.3,3.9,8.9,3.9C1269.9,272.2,1274.1,271,1273.3,267.8Z"/> <path d="M1278.4,286.8c2-.4,4-1.4,4.1-3.4a3.2,3.2,0,0,0-1.7-2.8,2.615,2.615,0,0,0,.9-2.9c-1-3.2-6.4-3.7-8.9-3.7-2.4,0-6.6,1.5-5.7,4.6a3.536,3.536,0,0,0,1.6,2,2.476,2.476,0,0,0-1.1,2.1c-.1,1.4.9,2.4,2.3,3.2a2.718,2.718,0,0,0-1.6,3.9c1.3,3,6.3,4.7,9.2,4.7,2.7,0,5.7-1.3,4.3-4.4A6.457,6.457,0,0,0,1278.4,286.8Z"/> <path d="M1239,361.5c-5.8-1.6-9.4-6.7-10.5-12.5-1-5.3-15.4-8.6-14.4-2.8,2.1,11.2,11.2,20,22.1,23.1,2.4.7,7.2,1.8,8.4-1.3C1245.9,365,1241.2,362.1,1239,361.5Z"/> <path d="M1253.4,372.6a29.9,29.9,0,0,0-4.8,5.3c-1.6.1-2.9.7-3.2,2.1-6.7,1-12.5,3.9-18.1,8-5.2,3.9-13.4,9.6-11.3,17.3a10.883,10.883,0,0,0,1,2.5,5.02,5.02,0,0,0-.2,1.2c.3,3.3,5.5,4.9,8,5.4-4.3-.9-2.2-.6-.6.4a22.269,22.269,0,0,0,4.4,2.1c3,.9,6.4,1.2,9.3-.1,2.7-1.3,5.1-3.8,7.5-5.6,1.5-1.2,2.9-2.3,4.4-3.5.2-.2.4-.3.6-.5l4.2-3.3c1.3-1,.9-2.3,0-3.5.3-.9.6-1.8.9-2.8a2.79,2.79,0,0,0,1.9-1.9l1.5-7.4a27.132,27.132,0,0,1,6.8-9.7C1271,373.8,1257.2,369.2,1253.4,372.6Z"/> <path d="M1409.6,533c-9.1-6.9-19.9-9.4-31-9.8a2.6,2.6,0,0,0-.3-2.2c-1.4-2.9-6.5-4.6-9.4-4.4a626.053,626.053,0,0,0-69.5,9c-5.4,1-10.9,2.1-16.3,3.3-1.3.3-2.7.7-4.2,1a14.866,14.866,0,0,0-3.1-2c-2.5-1.3-5.9-1.4-8.3-2.8a7.586,7.586,0,0,1-3.1-3.7v-2c.1-5,.2-9.3-2.3-13.8-1.9-3.5-14.1-7.5-14-.9.1,4.8.3,9.6,1.8,14a18.292,18.292,0,0,0,.2,3.3,17.187,17.187,0,0,0,1,3.9,2.731,2.731,0,0,0-1.4,1.6c-1.9,6.6,2.1,13.2-2.5,19.2-3.2,4.2-7.7,7.3-9.9,12.2-2.9,6.4,1.4,11.7,8.1,12.7a10.08,10.08,0,0,0,7.9-1.9c2.6,2.7,9.7,4.3,12,2.9a17.411,17.411,0,0,0,1.8-1.1c2.7,3.1,10.8,4.1,13.1,1.9,7.4-6.6,17.4-16.3,28.3-14.4,5.1.9,10,3.5,14.9,5.2a169.757,169.757,0,0,0,17.3,4.7c11.3,2.5,22.5,2.9,33.9,4a48.551,48.551,0,0,1,15,3.7c5.1,2.2,10.6,4.1,16.2,3,10-2,11.9-12,12.7-20.8C1419.4,548.6,1418.1,539.4,1409.6,533Z"/> <path d="M1432.5,699.9c-2.9-2.1-7.3-2-10.6-.9-29.3,10.4-60.7,12.2-91.6,12.2-15.3,0-30.6-.1-45.8-.8-15.4-.8-30.8-2.6-45.3-8.4-2.9-1.2-7.8-1.7-10.3.6-.3.3-.5.6-.7.8a2.79,2.79,0,0,0-1.4,2.1q-2.55,52.95-6.6,105.8c-1.3,17.5-2.8,34.9-4.3,52.3-.6,7.1-1.7,14.3,2.2,20.7,3.4,5.6,9.6,9.3,15.6,11.4,8.8,3,18.1,3,27.3,3.4,10.2.5,20.4.9,30.7,1.4,2.4.1,6.7-.6,6.1-3.9-.6-3.2-5.9-4.5-8.5-4.6-10.5-.5-21.1-1-31.6-1.5-7.5-.3-17.9.7-23.8-4.9-6.4-6.1-3.4-17.2-2.7-25,.9-10.2,1.7-20.4,2.6-30.6q4.65-59.1,7.7-118.2c29,8.7,60.6,7.4,90.5,7.4,33.9,0,68-2.4,100.2-13.8C1435.1,704.6,1434.8,701.6,1432.5,699.9Z"/> <path d="M1249.4,626.6c-2.7-2.4-6.4-4.1-10.1-3.4-2.8.5-4.3,3.3-1.8,5.5,1.6,1.4,4.8,4,4.4,6.6a2.842,2.842,0,0,0-1.2,2.4v1.1c-.1,2.5,4.1,4.6,5.9,5.1,2,.6,6.3,1.5,7.8-.6C1258.9,637.3,1254.3,630.9,1249.4,626.6Z"/> <path d="M1419.2,937.6c-1-2.9-5.4-4.1-8-4.4-6-.7-11.9-1.4-17.9-2.1-8.6-2.4-16.8-6.6-24.6-10.9-5.7-3.2-11.9-6.3-17.1-10.3-6-4.6-7.6-10.7-8.2-18-2.7-32.6-4.3-65.2-6.5-97.8-.3-5.2-15-7.6-14.6-1.3,1.2,18.5,2.5,37.1,3.7,55.6.6,9.3,1.2,18.5,1.8,27.8.6,8.3.1,17.8,3.3,25.6,2.8,6.8,8.5,11.5,14.6,15.4,2.3,1.5,4.6,2.8,6.9,4.2a3.55,3.55,0,0,0-1.8,2,7,7,0,0,0,1.7,7.7,42.269,42.269,0,0,0,7.5,12.8v.5a75.314,75.314,0,0,0,3.5,20.5c.9,2.9,4.6,4.3,7.3,4.8,1.7.3,7.2.5,7.3-2.4a18.552,18.552,0,0,1,5.8-13.3c1.8-1.8-.8-4.5-2.3-5.3a30.762,30.762,0,0,1-12.4-12.1c2,.3,3.7.4,5,.6,6.5.8,13,1.6,19.5,2.3a79.6,79.6,0,0,0,21.3,2.4C1417.4,941.8,1420.2,940.3,1419.2,937.6Z"/> <path d="M1292.6,960.1c-4-8.8-1.6-19.3-1-28.5a22.389,22.389,0,0,0-1.7-10.9c-1.6-4-3.6-7.5-3.6-11.9.1-5.1-14.4-8.3-14.5-1.8,0,4.2,1.7,7.8,3.4,11.6,2.2,4.9,2,8.9,1.6,14.2-.8,9.6-1.9,18.9,2.2,27.9C1281.1,965.2,1295.6,966.7,1292.6,960.1Z"/> </g> <g id="LÃNEA"> <path d="M768.4,333.6C763,351,749,366,731,369c-20,3-39-11-42.1-29.7" fill="none" stroke="#000" stroke-linecap="round" stroke-linejoin="round" stroke-width="5.669"/> <path d="M773.9,255.7a186.425,186.425,0,0,1,1.1,45.4" fill="none" stroke="#000" stroke-linecap="round" stroke-linejoin="round" stroke-width="5.669"/> <path d="M688.1,281.7a25.03,25.03,0,0,0-2.8-7A7.811,7.811,0,0,0,679,271c-3.7.1-6.4,3.6-7.9,7a31.3,31.3,0,0,0,.5,25.6c1.7,3.5,4.5,7,8.4,7.5" fill="none" stroke="#000" stroke-linecap="round" stroke-linejoin="round" stroke-width="5.669"/> <path d="M749.2,340.7c-6.3.1-12.6.1-18.7-1.4s-11.9-5-15.1-10.4" fill="none" stroke="#000" stroke-linecap="round" stroke-linejoin="round" stroke-width="5.669"/> <path d="M723.7,348.7a25.888,25.888,0,0,0,12.9,2.1" fill="none" stroke="#000" stroke-linecap="round" stroke-linejoin="round" stroke-width="5.669"/> <path d="M692.1,276.5c6.7,3.8,13.4,7.6,20,11.4-3.5,2-5.3,6.5-4.7,10.6a16.53,16.53,0,0,0,6.3,10.2,36.09,36.09,0,0,0,10.9,5.5c3.7,1.3,7.5,2.4,11.4,1.8,6.8-1.1,11.4-7.3,15.3-13,1.7-2.5,3.7-5.3,6.7-6.1,3.1-.9,6.4.6,9.4,2,4,1.9,7.9,3.8,11.9,5.8,2.2,1,4.5,2.3,5.4,4.5.8,2.1.1,4.4-.8,6.5-2.3,5.6-5.5,11.2-10.7,14.2s-12.8,2.7-16.4-2.1" fill="none" stroke="#000" stroke-linecap="round" stroke-linejoin="round" stroke-width="5.669"/> <path d="M753.5,304.4a86.217,86.217,0,0,0-.1,19c.1,1.2.3,2.6-.4,3.7-.9,1.5-3,1.9-4.8,1.9s-3.8.1-5.1,1.4" fill="none" stroke="#000" stroke-linecap="round" stroke-linejoin="round" stroke-width="5.669"/> <path d="M757.7,294.2a167.561,167.561,0,0,0-43.6-10.1" fill="none" stroke="#000" stroke-linecap="round" stroke-linejoin="round" stroke-width="5.669"/> <path d="M672.6,270.9a18.464,18.464,0,0,1,10.7-14.7" fill="none" stroke="#000" stroke-linecap="round" stroke-linejoin="round" stroke-width="5.669"/> <path d="M773.6,255.3A74.11,74.11,0,0,0,710,239" fill="none" stroke="#000" stroke-linecap="round" stroke-linejoin="round" stroke-width="5.669"/> <path d="M707.5,249.3a21.017,21.017,0,0,0-10.8,5.7" fill="none" stroke="#000" stroke-linecap="round" stroke-linejoin="round" stroke-width="5.669"/> <path d="M703.2,261c-2.9,1.7-5.8,3.5-8.6,5.2" fill="none" stroke="#000" stroke-linecap="round" stroke-linejoin="round" stroke-width="5.669"/> <path d="M776.4,253.9a32.644,32.644,0,0,0-12.7-22.7,32.312,32.312,0,0,0-25.4-5.7" fill="none" stroke="#000" stroke-linecap="round" stroke-linejoin="round" stroke-width="5.669"/> <path d="M740.1,230.7c-1.8-7.1-9.2-11.6-16.4-12.4s-14.5,1.4-21.4,3.7" fill="none" stroke="#000" stroke-linecap="round" stroke-linejoin="round" stroke-width="5.669"/> <path d="M708.3,224.8a35.751,35.751,0,0,0-37.2,36.7" fill="none" stroke="#000" stroke-linecap="round" stroke-linejoin="round" stroke-width="5.669"/> <path d="M676.1,310.5a53.328,53.328,0,0,1-38.4,35.2" fill="none" stroke="#000" stroke-linecap="round" stroke-linejoin="round" stroke-width="5.669"/> <path d="M728.5,371.6A99.858,99.858,0,0,0,717.3,394" fill="none" stroke="#000" stroke-linecap="round" stroke-linejoin="round" stroke-width="5.669"/> <path d="M635.1,345.9c6.6,16.8,16.1,32.9,29.9,44.5s32.4,18.4,50.2,15.5c2.9-.5,5.8-1.2,7.9-3.2a11.806,11.806,0,0,0,3.2-8.3,40.315,40.315,0,0,0-1.5-9" fill="none" stroke="#000" stroke-linecap="round" stroke-linejoin="round" stroke-width="5.669"/> <path d="M723.5,375.9c13,8,26.3,16.5,34.5,29.4,7.7,12.1,9.9,26.7,10.8,41,1,16.4.1,33.5-7.1,48.4-2.6,5.3-6,10.3-8.5,15.6s-4.1,11.4-2.9,17.3" fill="none" stroke="#000" stroke-linecap="round" stroke-linejoin="round" stroke-width="5.669"/> <path d="M749,534.1a863.319,863.319,0,0,1-12,162.1" fill="none" stroke="#000" stroke-linecap="round" stroke-linejoin="round" stroke-width="5.669"/> <path d="M633.7,345.7c-18.9,10-38.3,19.1-58,27.3" fill="none" stroke="#000" stroke-linecap="round" stroke-linejoin="round" stroke-width="5.669"/> <path d="M566.5,374.7c-14.8,10.7-25.5,26.4-33,43.1s-12,34.5-16.5,52.3c24.1,8.2,48,17.2,71.6,26.8,4.5-19.4,21.3-34.4,25-54,1.8-9.5.3-19.3-2.7-28.5s-7.5-17.7-12.1-26.3" fill="none" stroke="#000" stroke-linecap="round" stroke-linejoin="round" stroke-width="5.669"/> <path d="M517.1,472.7c-13.1,28-8.1,61.4-18.2,90.5-1.9,5.4-4.3,10.6-5.2,16.3s-.3,11.9,3.4,16.2" fill="none" stroke="#000" stroke-linecap="round" stroke-linejoin="round" stroke-width="5.669"/> <path d="M496.7,597.8a460.717,460.717,0,0,0,49.8,99.8c7.4,11.2,15.3,22.2,19.8,34.8,2.4,6.7,3.7,13.6,6,20.3s5.7,13.3,11.2,17.6" fill="none" stroke="#000" stroke-linecap="round" stroke-linejoin="round" stroke-width="5.669"/> <path d="M588.2,781c2.4,10.8,5.2,21.5,8.3,32.1a16.313,16.313,0,0,0,2.7,6c1.4,1.7,3.7,2.9,5.8,2.3a5.77,5.77,0,0,0,3.6-3.7,18.821,18.821,0,0,0,.7-5.3,151.066,151.066,0,0,0-2-26,131.611,131.611,0,0,1,13.6,26.7c1,2.6,1.9,5.3,3.9,7.1s5.5,2.4,7.4.3c1.6-1.8,1.3-4.5.8-6.8a157.447,157.447,0,0,0-10.4-32" fill="none" stroke="#000" stroke-linecap="round" stroke-linejoin="round" stroke-width="5.669"/> <path d="M637.8,813.4c2.4-2,4.7-3.9,7.1-5.9a58.04,58.04,0,0,0-7.5-33.6" fill="none" stroke="#000" stroke-linecap="round" stroke-linejoin="round" stroke-width="5.669"/> <path d="M646.6,789.3c3.4-2.2,7-4.7,8.1-8.6a12.3,12.3,0,0,0-.3-7.1,39.206,39.206,0,0,0-3.2-6.5" fill="none" stroke="#000" stroke-linecap="round" stroke-linejoin="round" stroke-width="5.669"/> <path d="M647.4,763c-3.5-10.9-11.7-19.5-19.5-28s-15.5-17.7-17.7-29" fill="none" stroke="#000" stroke-linecap="round" stroke-linejoin="round" stroke-width="5.669"/> <path d="M548.7,556.6c-2.7,7.8-2.1,16.4.1,24.4,2.2,7.9,6,15.4,9.6,22.8,10.3,21.1,19.8,42.7,28.3,64.6" fill="none" stroke="#000" stroke-linecap="round" stroke-linejoin="round" stroke-width="5.669"/> <path d="M551.4,581.3c-.3-5.9,1.7-11.7,4.6-16.9,2.8-5.2,6.4-9.9,9.6-14.9,9-14.3,13.8-30.7,18.6-46.9" fill="none" stroke="#000" stroke-linecap="round" stroke-linejoin="round" stroke-width="5.669"/> <path d="M563.1,556.6c-1,9.9-2,19.9-2.9,29.8" fill="none" stroke="#000" stroke-linecap="round" stroke-linejoin="round" stroke-width="5.669"/> <path d="M545,699c-2,4.6-4.1,9.3-6.1,13.9a6.228,6.228,0,0,0-.8,3.5c.3,1.7,2,2.8,3.6,3.7s3.6,1.9,5.3,1.2" fill="none" stroke="#000" stroke-linecap="round" stroke-linejoin="round" stroke-width="5.669"/> <path d="M549.2,710.7c-3.2,24.5-6.3,48.9-9.5,73.4-2,15.2-3.9,30.4-6,45.5-1.7,12.6-3.5,26,1.4,37.7" fill="none" stroke="#000" stroke-linecap="round" stroke-linejoin="round" stroke-width="5.669"/> <path d="M541.5,852.1a296.353,296.353,0,0,0-11,69.3" fill="none" stroke="#000" stroke-linecap="round" stroke-linejoin="round" stroke-width="5.669"/> <path d="M530.5,922.3c13,1.4,23.3,11.3,35,17.2a58.694,58.694,0,0,0,33,5.8c8.1-.9,16.3-3.7,21.7-9.8,3.5-3.8,5.5-8.7,7.5-13.5q15.3-37.05,27.9-75" fill="none" stroke="#000" stroke-linecap="round" stroke-linejoin="round" stroke-width="5.669"/> <path d="M641,862.4a262.963,262.963,0,0,0,23-30.6" fill="none" stroke="#000" stroke-linecap="round" stroke-linejoin="round" stroke-width="5.669"/> <path d="M648.6,837.6c7.9-2.5,13.9-9,18-16.2s6.6-15.1,10-22.6c3.3-7.5,7.7-14.9,14.4-19.7" fill="none" stroke="#000" stroke-linecap="round" stroke-linejoin="round" stroke-width="5.669"/> <path d="M645.6,892.8c25.8,4.9,52.3,9.5,78,4.3a16.4,16.4,0,0,0,6.1-2.1,7.118,7.118,0,0,0,3.5-5.1" fill="none" stroke="#000" stroke-linecap="round" stroke-linejoin="round" stroke-width="5.669"/> <path d="M742.1,703.4q-7.05,89.7-6.4,179.8" fill="none" stroke="#000" stroke-linecap="round" stroke-linejoin="round" stroke-width="5.669"/> <path d="M599.1,819.5a385.771,385.771,0,0,0-29.3,60.3c-2.4,6.2-4.8,12.8-9.7,17.2-2.5,2.3-5.8,4.3-6.3,7.6-.5,3.5,2.4,6.5,5.2,8.6,4.9,3.7,10.7,6.8,16.8,6.4s12.2-5.3,12-11.5c-.1-2.6-1.3-5.1-1.5-7.7-.2-3.7,1.6-7.1,3.4-10.3l37.8-68.4a9.425,9.425,0,0,0-1,1" fill="none" stroke="#000" stroke-linecap="round" stroke-linejoin="round" stroke-width="5.669"/> <path d="M631.7,737.1c5.2-39-7-79-.6-117.9a124.678,124.678,0,0,1,28.2-60.6c12-14.1,27.4-25.5,44.9-31.2s37.4-5.2,54,3.1c25.2,12.6,39.3,41.8,38.8,69.9s-13.8,54.8-32,76.3c-18.1,21.5-40.9,38.5-63.6,55.1" fill="none" stroke="#000" stroke-linecap="round" stroke-linejoin="round" stroke-width="5.669"/> <path d="M653.4,771.5A153.035,153.035,0,0,1,705,728.9" fill="none" stroke="#000" stroke-linecap="round" stroke-linejoin="round" stroke-width="5.669"/> <path d="M730.9,708.5c-4.7,5.4-11.4,8.7-18.3,10.4s-14.1,1.8-21.2,1.5c-11.4-.5-23-2.2-32.7-8.1s-16.5-15.7-20.7-26.2-5.8-21.9-6.9-33.2c0,0,1.9-75.8,57.9-112.8s96,25,96,25" fill="none" stroke="#000" stroke-linecap="round" stroke-linejoin="round" stroke-width="5.669"/> <line x1="636.5" y1="658.5" x2="697.5" y2="537.5" fill="none" stroke="#000" stroke-linecap="round" stroke-linejoin="round" stroke-width="2.835"/> <line x1="645.5" y1="694.5" x2="729.5" y2="527.5" fill="none" stroke="#000" stroke-linecap="round" stroke-linejoin="round" stroke-width="2.835"/> <line x1="658.5" y1="708.5" x2="750.5" y2="530.5" fill="none" stroke="#000" stroke-linecap="round" stroke-linejoin="round" stroke-width="2.835"/> <line x1="675.5" y1="715.5" x2="765.5" y2="537.5" fill="none" stroke="#000" stroke-linecap="round" stroke-linejoin="round" stroke-width="2.835"/> <line x1="695.5" y1="719.5" x2="779.5" y2="553.5" fill="none" stroke="#000" stroke-linecap="round" stroke-linejoin="round" stroke-width="2.835"/> <line x1="791" y1="581" x2="731" y2="703" fill="none" stroke="#000" stroke-linecap="round" stroke-linejoin="round" stroke-width="2.835"/> <line x1="702.5" y1="536.5" x2="791" y2="582.9" fill="none" stroke="#000" stroke-linecap="round" stroke-linejoin="round" stroke-width="2.835"/> <line x1="675.5" y1="556.5" x2="793.5" y2="612.5" fill="none" stroke="#000" stroke-linecap="round" stroke-linejoin="round" stroke-width="2.835"/> <line x1="661.5" y1="573.5" x2="786.5" y2="632.5" fill="none" stroke="#000" stroke-linecap="round" stroke-linejoin="round" stroke-width="2.835"/> <line x1="650.5" y1="593.5" x2="776.5" y2="651.5" fill="none" stroke="#000" stroke-linecap="round" stroke-linejoin="round" stroke-width="2.835"/> <line x1="763.5" y1="671.5" x2="641.5" y2="616.5" fill="none" stroke="#000" stroke-linecap="round" stroke-linejoin="round" stroke-width="2.835"/> <line x1="637.5" y1="638.5" x2="746.5" y2="687.5" fill="none" stroke="#000" stroke-linecap="round" stroke-linejoin="round" stroke-width="2.835"/> <line x1="726.5" y1="706.5" x2="636.5" y2="666.5" fill="none" stroke="#000" stroke-linecap="round" stroke-linejoin="round" stroke-width="2.835"/> <path d="M927.6,299.2c-8.8,3-18.4.1-26.9-3.5s-17.1-8-26.4-8.1c-7-.1-13.8,2.4-19.9,5.9s-11.3,8.2-16.5,12.9a8.376,8.376,0,0,0-2.5,3.1,3.209,3.209,0,0,0,.7,3.7c1.1.8,3,.2,3-1.2" fill="none" stroke="#000" stroke-linecap="round" stroke-linejoin="round" stroke-width="5.669"/> <path d="M842.6,299.3a34.988,34.988,0,0,1,10.2-28.9c4.9-4.8,11.2-8,17.8-10.1,10.1-3.2,21.2-3.8,31.3-.7s19.3,9.8,24.4,19.1c5.8,10.6,6.1,23.2,6.2,35.3a14.349,14.349,0,0,0-5.3-12.8" fill="none" stroke="#000" stroke-linecap="round" stroke-linejoin="round" stroke-width="5.669"/> <path d="M847.2,311.3a82.007,82.007,0,0,1,56.2-12.6" fill="none" stroke="#000" stroke-linecap="round" stroke-linejoin="round" stroke-width="5.669"/> <path d="M844.5,312.6a68.74,68.74,0,0,0,1.8,23.9,80.966,80.966,0,0,1,4-24.4" fill="none" stroke="#000" stroke-linecap="round" stroke-linejoin="round" stroke-width="5.669"/> <path d="M929.4,306.7c-3.8,24.3-2,50.1-12.8,72.2-3.5,7.3-8.5,14.1-15.3,18.5s-15.5,6.2-23.2,3.5c-5-1.7-9.1-5.2-12.9-8.9-8-7.7-15.2-17.9-14-29" fill="none" stroke="#000" stroke-linecap="round" stroke-linejoin="round" stroke-width="5.669"/> <path d="M859.5,333.6a23.759,23.759,0,0,1,15.6-6.2" fill="none" stroke="#000" stroke-linecap="round" stroke-linejoin="round" stroke-width="5.669"/> <path d="M905.9,324.1c3.5.5,7,1,10.5,1.6-.5.6.3,1.7,1.1,1.4a13.582,13.582,0,0,0-15.6-1.4" fill="none" stroke="#000" stroke-linecap="round" stroke-linejoin="round" stroke-width="5.669"/> <path d="M844.3,324.5a14.038,14.038,0,0,0-3.4-1.3,4.737,4.737,0,0,0-3.5.6c-1.6,1.2-1.9,3.5-1.8,5.5a46.4,46.4,0,0,0,2.6,11.6c1,3.4,2.1,6.7,3.1,10.1a17.23,17.23,0,0,0,1.9,4.4,4.734,4.734,0,0,0,4,2.2" fill="none" stroke="#000" stroke-linecap="round" stroke-linejoin="round" stroke-width="5.669"/> <path d="M928.5,327.1a9.491,9.491,0,0,1,3.2-3.1,3.316,3.316,0,0,1,4.1.6,3.174,3.174,0,0,1,.3,3,11.742,11.742,0,0,1-1.5,2.7,53.405,53.405,0,0,0-7.5,17.1" fill="none" stroke="#000" stroke-linecap="round" stroke-linejoin="round" stroke-width="5.669"/> <path d="M887.2,327.5c1.1,7.9,2.2,16.4-1.1,23.7-.6,1.4-1.4,2.8-1.9,4.3a5.446,5.446,0,0,0,.5,4.5,5.333,5.333,0,0,0,3.6,1.9,13.941,13.941,0,0,0,4.1-.3" fill="none" stroke="#000" stroke-linecap="round" stroke-linejoin="round" stroke-width="5.669"/> <path d="M867.7,366.7c11.2,1.8,22.7,3.6,33.8,1.3,3.3-.7,6.7-1.8,9.1-4.2" fill="none" stroke="#000" stroke-linecap="round" stroke-linejoin="round" stroke-width="5.669"/> <path d="M874.5,368.8c.1,2.7.2,5.4.3,8.2" fill="none" stroke="#000" stroke-linecap="round" stroke-linejoin="round" stroke-width="5.669"/> <path d="M871.7,377.9a30.175,30.175,0,0,0,39-12.2" fill="none" stroke="#000" stroke-linecap="round" stroke-linejoin="round" stroke-width="5.669"/> <path d="M885.7,388.6a11.5,11.5,0,0,0,6.6-1.2" fill="none" stroke="#000" stroke-linecap="round" stroke-linejoin="round" stroke-width="5.669"/> <path d="M867,338.5a12.776,12.776,0,0,1,2.4-3.2,4.642,4.642,0,0,1,3.7-1.2,3.3,3.3,0,0,1,2.7,2.6" fill="none" stroke="#000" stroke-linecap="round" stroke-linejoin="round" stroke-width="5.669"/> <path d="M901.6,337.3a5.781,5.781,0,0,1,3.4-4.7,5.581,5.581,0,0,1,5.7.7,5.711,5.711,0,0,1,2.2,5.3c0-.1.1-.2.1-.3" fill="none" stroke="#000" stroke-linecap="round" stroke-linejoin="round" stroke-width="5.669"/> <path d="M849,372.9c-.5,3.1-1,6.3-1.5,9.4" fill="none" stroke="#000" stroke-linecap="round" stroke-linejoin="round" stroke-width="5.669"/> <path d="M846.2,373.3c-3.7,3.3-4.7,8.8-3.6,13.6s4,9,7.1,12.8c5.2,6.2,11.4,11.6,18.8,14.7s16.2,3.6,23.4.2,12.7-11.1,12.2-19.2" fill="none" stroke="#000" stroke-linecap="round" stroke-linejoin="round" stroke-width="5.669"/> <path d="M843.9,373c-13.9,2.7-28,5.5-42.1,5.2-4.8-.1-9.6-.5-14.4.2-11.6,1.8-21,10.2-31,16.4" fill="none" stroke="#000" stroke-linecap="round" stroke-linejoin="round" stroke-width="5.669"/> <path d="M910.8,389.5a83.179,83.179,0,0,0,36.7,9.9" fill="none" stroke="#000" stroke-linecap="round" stroke-linejoin="round" stroke-width="5.669"/> <path d="M907.7,400.6A25.094,25.094,0,0,1,893.9,423c-5.6,2.7-12.7,3.1-18-.3" fill="none" stroke="#000" stroke-linecap="round" stroke-linejoin="round" stroke-width="5.669"/> <path d="M764.8,494.3a735.853,735.853,0,0,1-3.2,82.6" fill="none" stroke="#000" stroke-linecap="round" stroke-linejoin="round" stroke-width="5.669"/> <path d="M751.1,514.1a646.105,646.105,0,0,1,18.3,117.4c2.7,42.6,1.2,86.4,15.3,126.7" fill="none" stroke="#000" stroke-linecap="round" stroke-linejoin="round" stroke-width="5.669"/> <path d="M741.8,725.3A250.828,250.828,0,0,1,752.2,776a6.379,6.379,0,0,0,1.1,3.6c1.6,2,5,1.3,6.7-.6,1.7-2,2-4.7,2.3-7.2,1.1-9.3,2.1-18.6,3.2-28" fill="none" stroke="#000" stroke-linecap="round" stroke-linejoin="round" stroke-width="5.669"/> <path d="M764,755.1c3,2,6.9,2.1,10.5,2.4s7.6,1.3,9.5,4.4c1.2,2,1.3,4.5,1.2,6.8a99.311,99.311,0,0,1-7.7,36c-1.4-13.7,1.6-27.3,4.6-40.7a297.2,297.2,0,0,1-6.6,37.5A105.9,105.9,0,0,0,744,787.6" fill="none" stroke="#000" stroke-linecap="round" stroke-linejoin="round" stroke-width="5.669"/> <path d="M748.6,789.1a85.511,85.511,0,0,1,8.8,12.8,8.791,8.791,0,0,0,9.3-4.6" fill="none" stroke="#000" stroke-linecap="round" stroke-linejoin="round" stroke-width="5.669"/> <path d="M771.8,686.3c5.3.4,10.7.8,16,1.3-.6,3,1.1,6,3.6,7.8s5.5,2.5,8.4,3.1a277.169,277.169,0,0,0,132.4-3.7" fill="none" stroke="#000" stroke-linecap="round" stroke-linejoin="round" stroke-width="5.669"/> <path d="M927.9,692.5c1.7-33.8-25.2-64.4-22.3-98.1" fill="none" stroke="#000" stroke-linecap="round" stroke-linejoin="round" stroke-width="5.669"/> <path d="M931.3,669.3q-2.55-60.6-2.7-121.4" fill="none" stroke="#000" stroke-linecap="round" stroke-linejoin="round" stroke-width="5.669"/> <path d="M770.6,481.5a61.01,61.01,0,0,1,21,26.4" fill="none" stroke="#000" stroke-linecap="round" stroke-linejoin="round" stroke-width="5.669"/> <path d="M931.2,697.3a37,37,0,0,0,15.5,25c-4.5,7.7-9.1,15.4-13.6,23.1" fill="none" stroke="#000" stroke-linecap="round" stroke-linejoin="round" stroke-width="5.669"/> <path d="M939.6,731.8c1.9,39.7,3.7,80.4-7.9,118.4-2.5,8.3-5.7,16.9-4.1,25.4.9,4.7,3.2,8.9,4.5,13.5s1.3,9.9-1.8,13.5" fill="none" stroke="#000" stroke-linecap="round" stroke-linejoin="round" stroke-width="5.669"/> <path d="M934.2,855.6c3.4,26.3,6.9,52.7,10.3,79a12.941,12.941,0,0,1-.3,6.5c-1.1,2.4-3.5,3.8-5.8,4.9a79.125,79.125,0,0,1-63.6,1.9c-3.9-1.6-7.9-3.8-9.7-7.6-2.1-4.4-.5-9.6,1.3-14.2" fill="none" stroke="#000" stroke-linecap="round" stroke-linejoin="round" stroke-width="5.669"/> <path d="M873.1,934.3c-6.1-9.3-8.7-20.6-9.6-31.7s-.1-22.3,0-33.5a277.708,277.708,0,0,0-15.4-93.9" fill="none" stroke="#000" stroke-linecap="round" stroke-linejoin="round" stroke-width="5.669"/> <path d="M854.5,799.6c-10.8,4.6-17.2,16.2-19.1,27.8s-.1,23.4.8,35.2c.9,11.7.9,24-4.1,34.6-2.3,4.8-5.7,9.8-4.7,15,.5,2.8,2.3,5.3,2.2,8.1-.1,4.8-5.3,8.1-6.3,12.8-1.2,5.2,3,10.5,1.6,15.7-1.1,4.1-5.4,6.5-9.5,8a78.47,78.47,0,0,1-52.8.9c-5.3-1.8-10.9-4.6-12.9-9.9-3.1-7.9,3.4-16.9,1.3-25.1-.8-3.3-3-6.6-1.7-9.8.8-1.9,2.7-3.1,4-4.8,2.4-3,2.7-7.1,2.8-10.9,1.3-29.7,2.5-59.4,3.8-89.1" fill="none" stroke="#000" stroke-linecap="round" stroke-linejoin="round" stroke-width="5.669"/> <path d="M873.3,946c1.6,6.3,3.3,12.7,4.9,19" fill="none" stroke="#000" stroke-linecap="round" stroke-linejoin="round" stroke-width="5.669"/> <path d="M925.6,951.8l-.9,21.9" fill="none" stroke="#000" stroke-linecap="round" stroke-linejoin="round" stroke-width="5.669"/> <path d="M794.1,954.6v-.4" fill="none" stroke="#000" stroke-linecap="round" stroke-linejoin="round" stroke-width="5.669"/> <path d="M809.4,959.2v14" fill="none" stroke="#000" stroke-linecap="round" stroke-linejoin="round" stroke-width="5.669"/> <path d="M761.8,962.1c1.8,5.2,3.5,10.5,5.3,15.7" fill="none" stroke="#000" stroke-linecap="round" stroke-linejoin="round" stroke-width="5.669"/> <path d="M546,930.3a168.532,168.532,0,0,0,.8,25.6" fill="none" stroke="#000" stroke-linecap="round" stroke-linejoin="round" stroke-width="5.669"/> <path d="M544.3,942.3a97.99,97.99,0,0,0-10.1,19.9" fill="none" stroke="#000" stroke-linecap="round" stroke-linejoin="round" stroke-width="5.669"/> <path d="M613.7,944.7c-2.9,8-5.8,16-8.7,23.9" fill="none" stroke="#000" stroke-linecap="round" stroke-linejoin="round" stroke-width="5.669"/> <path d="M644.7,896c2.7,14.5,5.3,29,8,43.4-.1-.9-.2-1.7-.3-2.6" fill="none" stroke="#000" stroke-linecap="round" stroke-linejoin="round" stroke-width="5.669"/> <path d="M650.7,929.4c-4.1,13.1-8.1,26.1-12.2,39.2" fill="none" stroke="#000" stroke-linecap="round" stroke-linejoin="round" stroke-width="5.669"/> <path d="M713.1,899.7c1.9,15.3-2.4,30.5-6.6,45.3-1.2,4.3-2.5,8.6-3.7,12.9" fill="none" stroke="#000" stroke-linecap="round" stroke-linejoin="round" stroke-width="5.669"/> <path d="M706.6,953c.3,4.5.6,9.1.8,13.6" fill="none" stroke="#000" stroke-linecap="round" stroke-linejoin="round" stroke-width="5.669"/> <path d="M1026.7,210.2c-10,.4-19,6.8-24.3,15.3-5.2,8.5-7,18.7-6.7,28.7.2,9.3,2.3,19,8.7,25.8" fill="none" stroke="#000" stroke-linecap="round" stroke-linejoin="round" stroke-width="5.669"/> <path d="M1014.3,235.2c-1.7,7.7-2.4,15.9.2,23.3s9.1,13.9,17,14.5a24.459,24.459,0,0,1-5.3-14.7,29.682,29.682,0,0,0,20,8.6c-1.4-1.9-2.7-3.7-4.1-5.6a24.775,24.775,0,0,0,15.3-3.2c-6.8-4.5-13.7-9-20.5-13.5,3.7-1.1,7.7-.4,11.5-.3,3.9,0,8.2-.9,10.2-4.2l-3.6-.3" fill="none" stroke="#000" stroke-linecap="round" stroke-linejoin="round" stroke-width="5.669"/> <path d="M1037.9,208.9a45.326,45.326,0,0,1,27.5,1,45.886,45.886,0,0,1,21.9,16.7c-2.4.2-4.8.5-7.2.7a123.35,123.35,0,0,0,24.8,13.3" fill="none" stroke="#000" stroke-linecap="round" stroke-linejoin="round" stroke-width="5.669"/> <path d="M1094.8,243.5c2.4,1,4.9,2,7.3,2.9a18.975,18.975,0,0,0-6.7.8,2.474,2.474,0,0,0-1.9,1.5c-.1.9.8,1.6,1.5,2.1,2.4,1.5,4.7,2.9,7.1,4.4a16.934,16.934,0,0,0-5.8,2.6,1.508,1.508,0,0,0-.9,1.4c.1.5.5.7,1,.9,1.6.9,3.3,1.7,4.9,2.6-.4.2-.9.4-1.3.6" fill="none" stroke="#000" stroke-linecap="round" stroke-linejoin="round" stroke-width="5.669"/> <path d="M1008.2,285.6a159.67,159.67,0,0,0,48.7-5.1c6.9-1.8,13.6-4.1,20.6-5.1a3.139,3.139,0,0,1,3,.6,3.488,3.488,0,0,1,.6,2.5c0,3.6-.1,7.2-.1,10.7,0,2.5-.2,5.3-2,7.1-1.5,1.5-3.8,1.8-6,2-6.5.7-13.8,1.2-18.9-3-3.3-2.6-5-6.7-8-9.7-.9-.9-2.2-1.8-3.5-1.4-1.7.6-1.9,2.9-1.9,4.7a51,51,0,0,1-.7,10.3c-.4,2.3-1.1,4.8-2.8,6.3a11.193,11.193,0,0,1-5.3,2.1c-3.5.7-6.9,1.2-10.4,1.6-2,.2-4.2.4-5.9-.6-1.9-1.1-2.8-3.3-3.6-5.3-1.9-4.8-3.8-9.7-5.6-14.5" fill="none" stroke="#000" stroke-linecap="round" stroke-linejoin="round" stroke-width="5.669"/> <path d="M1041.4,288.4a182.481,182.481,0,0,0,.7,25.6,7.3,7.3,0,0,0,1.2,4.1,5.479,5.479,0,0,0,4.4,1.9,9.495,9.495,0,0,0,8.9-5.9" fill="none" stroke="#000" stroke-linecap="round" stroke-linejoin="round" stroke-width="5.669"/> <path d="M1049.8,328.4c10.2,2.6,22.2-5.4,25.5-15.6" fill="none" stroke="#000" stroke-linecap="round" stroke-linejoin="round" stroke-width="5.669"/> <path d="M1056,336.5a22.018,22.018,0,0,0,10.5-3.9" fill="none" stroke="#000" stroke-linecap="round" stroke-linejoin="round" stroke-width="5.669"/> <path d="M1015.4,310.4c2.5,7.2,5.5,14.4,9.8,20.7s10.1,11.8,17.2,14.7a31.286,31.286,0,0,0,23.3-.1c11.1-4.6,18.6-15,25.4-24.9" fill="none" stroke="#000" stroke-linecap="round" stroke-linejoin="round" stroke-width="5.669"/> <path d="M1091.4,272c1.1-1.5,1.1-3.5,1.6-5.2.5-1.8,2.3-3.5,4-2.7a4,4,0,0,1,1.8,2.7,51.361,51.361,0,0,1,1.2,24,10.256,10.256,0,0,1-1.4,3.8,3.3,3.3,0,0,1-3.5,1.4" fill="none" stroke="#000" stroke-linecap="round" stroke-linejoin="round" stroke-width="5.669"/> <path d="M1083.8,276.3a24.983,24.983,0,0,1,7.5-6.6" fill="none" stroke="#000" stroke-linecap="round" stroke-linejoin="round" stroke-width="5.669"/> <path d="M1029.7,340.1c-3.5,6.1-2.3,14.1,1.8,19.7s10.8,9.1,17.6,10.5,13.9,1.1,20.9.3c6.7-.7,13.7-1.8,19.4-5.4,5.6-3.5,9.7-9.2,12.1-15.4a61.711,61.711,0,0,0,3.6-19.5,8.7,8.7,0,0,0-.7-4.8c-.8-1.4-2.8-2.3-4.2-1.5" fill="none" stroke="#000" stroke-linecap="round" stroke-linejoin="round" stroke-width="5.669"/> <path d="M1095.6,299.1c-.6,5.6-1.2,11.2-.4,16.7s3,11.1,7.2,14.7" fill="none" stroke="#000" stroke-linecap="round" stroke-linejoin="round" stroke-width="5.669"/> <path d="M1024.8,341.1a249.787,249.787,0,0,1-43.3,26c-6.7,3.2-13.7,6-19.6,10.6s-10.7,11.1-11.3,18.5" fill="none" stroke="#000" stroke-linecap="round" stroke-linejoin="round" stroke-width="5.669"/> <path d="M952.8,401.6A240.254,240.254,0,0,0,982,440.4" fill="none" stroke="#000" stroke-linecap="round" stroke-linejoin="round" stroke-width="5.669"/> <path d="M994.7,395.9a209.626,209.626,0,0,0-3.6,69.3" fill="none" stroke="#000" stroke-linecap="round" stroke-linejoin="round" stroke-width="5.669"/> <path d="M950.4,397.6c-7.2,12.5-10.9,26.9-12.5,41.3s-1.2,28.9-.8,43.4" fill="none" stroke="#000" stroke-linecap="round" stroke-linejoin="round" stroke-width="5.669"/> <path d="M936,472.9a100.4,100.4,0,0,1-12.1,30.7c8-.8,15.9,2.1,23.2,5.3,7.4,3.2,14.8,6.8,22.8,7.3,8,.6,16.9-2.6,20.5-9.7" fill="none" stroke="#000" stroke-linecap="round" stroke-linejoin="round" stroke-width="5.669"/> <path d="M991.7,472.9c-3.5,12,.4,24.9-1.5,37.2-.7,4.7-2.2,9.2-3.1,13.9-2.3,12.7.6,25.6,3.8,38.1" fill="none" stroke="#000" stroke-linecap="round" stroke-linejoin="round" stroke-width="5.669"/> <path d="M937.4,508l-2.1,7.2" fill="none" stroke="#000" stroke-linecap="round" stroke-linejoin="round" stroke-width="5.669"/> <path d="M937.9,515.1a25.838,25.838,0,0,0-8.3,15.1c-1.1,5.8-.6,11.7.4,17.4a79.775,79.775,0,0,0,42.4,55.8" fill="none" stroke="#000" stroke-linecap="round" stroke-linejoin="round" stroke-width="5.669"/> <path d="M972.1,532.4a137.165,137.165,0,0,1,6,23.7c.7,4.4,1.6,9.5,5.5,11.8" fill="none" stroke="#000" stroke-linecap="round" stroke-linejoin="round" stroke-width="5.669"/> <path d="M977.8,517.6l-2.1,19.2" fill="none" stroke="#000" stroke-linecap="round" stroke-linejoin="round" stroke-width="5.669"/> <path d="M975.3,613.3a29.013,29.013,0,0,0,18.2,9.9,29.492,29.492,0,0,0,20.2-4.7,11.448,11.448,0,0,0,3.2-3,4.517,4.517,0,0,0,.4-4.2" fill="none" stroke="#000" stroke-linecap="round" stroke-linejoin="round" stroke-width="5.669"/> <path d="M983.1,609.7c5.1,3.3,10.7,6.2,16.8,6.5a21.449,21.449,0,0,0,19-10.3" fill="none" stroke="#000" stroke-linecap="round" stroke-linejoin="round" stroke-width="5.669"/> <path d="M985.7,599.7c7.3.7,13.6,5.9,20.9,6.9a20.835,20.835,0,0,0,8.6-.7,8.6,8.6,0,0,0,4.3-2.3c2.1-2.2,2.2-5.5,2.1-8.6" fill="none" stroke="#000" stroke-linecap="round" stroke-linejoin="round" stroke-width="5.669"/> <path d="M992.7,587.2a51.9,51.9,0,0,0,9.7,7.2,22.83,22.83,0,0,0,11.6,3c2.1-.1,4.4-.7,5.7-2.4a5.787,5.787,0,0,0,.1-6.2,11.391,11.391,0,0,0-4.9-4.3c-2.9-1.5-6-2.4-9-3.6-3-1.3-5.9-3-7.6-5.8" fill="none" stroke="#000" stroke-linecap="round" stroke-linejoin="round" stroke-width="5.669"/> <path d="M1001,575.9c1.2-6.8,2.3-13.6,3.5-20.4" fill="none" stroke="#000" stroke-linecap="round" stroke-linejoin="round" stroke-width="5.669"/> <path d="M1018.8,583c2-7.5,3.9-15,5.9-22.4" fill="none" stroke="#000" stroke-linecap="round" stroke-linejoin="round" stroke-width="5.669"/> <path d="M1004.8,553.3a19.182,19.182,0,0,0,20.5,6.5,15.593,15.593,0,0,0,7.4-4.9,13.628,13.628,0,0,0-3-20.1c-4.1-2.7-9.4-2.9-14.3-2.6-3.5.2-7.2.8-9.7,3.3-1.9,1.9-2.7,4.7-3.5,7.3-.8,2.8-1.5,6-.2,8.6a9.74,9.74,0,0,0,4.9,4,22.987,22.987,0,0,0,14.4,1.4,24,24,0,0,0,12.5-7.4" fill="none" stroke="#000" stroke-linecap="round" stroke-linejoin="round" stroke-width="5.669"/> <path d="M1024.1,573.4c2.4,1.8,3.8,4.5,5.2,7.2,1.1,2.1,2.2,4.3,3.3,6.4a3.477,3.477,0,0,1,.6,2.4c-.3,1.4-2,2-3.4,2.4a11,11,0,0,1-3.1.4,3.213,3.213,0,0,1-2.6-1.6" fill="none" stroke="#000" stroke-linecap="round" stroke-linejoin="round" stroke-width="5.669"/> <path d="M987.9,624.9c-1.2,4.1-2.4,8.3-3.5,12.4a5.979,5.979,0,0,0-.3,2.6c.3,1.6,1.8,2.8,3.2,3.5a20.225,20.225,0,0,0,12.3,2.1c1.3-.2,2.8-.6,3.5-1.8a4.8,4.8,0,0,0,.5-1.7c.7-5.6,1.4-11.2,2.2-16.8" fill="none" stroke="#000" stroke-linecap="round" stroke-linejoin="round" stroke-width="5.669"/> <path d="M1005.2,631.9a8.4,8.4,0,0,1-6.1,3.2,11.4,11.4,0,0,1-6.7-1.7,10.129,10.129,0,0,1-4.2-4.5" fill="none" stroke="#000" stroke-linecap="round" stroke-linejoin="round" stroke-width="2.268"/> <path d="M986,632.7c.8,2,1.7,4.2,3.5,5.6,1.8,1.5,4.2,1.8,6.6,1.9a39.348,39.348,0,0,1,6.9.5" fill="none" stroke="#000" stroke-linecap="round" stroke-linejoin="round" stroke-width="2.268"/> <path d="M1104.6,329.4c9.3,7.9,22,10,34.1,11s24.6,1.3,35.7,6.4c11.9,5.5,20.8,16.2,26.7,27.9s9.3,24.5,12.8,37.2c3.5,12.6,7.4,25.4,14.3,36.6,1.7,2.7,3.5,5.4,4,8.5s-.9,6.8-3.9,7.8" fill="none" stroke="#000" stroke-linecap="round" stroke-linejoin="round" stroke-width="5.669"/> <path d="M1184.2,483.8c7.2,1.4,14.6-1.3,21.2-4.6,6.6-3.2,13.1-7.1,20.4-8" fill="none" stroke="#000" stroke-linecap="round" stroke-linejoin="round" stroke-width="5.669"/> <path d="M1182.8,451.8c3.8-8.7,7.5-17.3,11.3-26" fill="none" stroke="#000" stroke-linecap="round" stroke-linejoin="round" stroke-width="5.669"/> <path d="M1186.3,483a81.041,81.041,0,0,0,3.5,17.5" fill="none" stroke="#000" stroke-linecap="round" stroke-linejoin="round" stroke-width="5.669"/> <path d="M1226.1,467a82.457,82.457,0,0,0,.9,40.1c1.1,3.9,2.4,7.8,2.2,11.8-.4,6.7-5.2,12.3-10.1,16.9a102.755,102.755,0,0,1-36.9,22c-8.4,2.8-17.1,4.5-25.6,7.1-8.4,2.6-16.8,6.3-23.1,12.5-4.4,4.3-7.8,9.8-13,13.2s-13.3,3.8-16.7-1.4" fill="none" stroke="#000" stroke-linecap="round" stroke-linejoin="round" stroke-width="5.669"/> <path d="M1108.5,590.9c-6.2-1.4-12.3-3-18.4-4.7" fill="none" stroke="#000" stroke-linecap="round" stroke-linejoin="round" stroke-width="5.669"/> <path d="M1113.1,576.3c-5.4,1.9-10.4,4.6-15.7,6.7s-11,3.6-16.7,3.1-11.4-3.4-14.1-8.4" fill="none" stroke="#000" stroke-linecap="round" stroke-linejoin="round" stroke-width="5.669"/> <path d="M1199.7,492.7c-16.5,15.2-32.9,30.4-49.4,45.7-2.4,2.2-4.9,4.5-8,5.3-6.6,1.7-12.8-3.7-19.6-4.5-3.9-.4-7.7.7-11.4,2.1a79.361,79.361,0,0,0-30.4,20.6c-1.4,1.5-2.8,3.5-2,5.4.9,2.2,4,2.3,6.4,1.9a88.686,88.686,0,0,0,30.3-10.8" fill="none" stroke="#000" stroke-linecap="round" stroke-linejoin="round" stroke-width="5.669"/> <path d="M1076.8,566.7c-7.9.6-15.9,1.4-23.4,3.8a12.766,12.766,0,0,0-6.4,3.6c-1.6,1.8-2.3,4.8-.9,6.8,1.9,2.7,5.9,2.4,9.1,1.7,11.6-2.5,22.8-6.4,34-10.3" fill="none" stroke="#000" stroke-linecap="round" stroke-linejoin="round" stroke-width="5.669"/> <path d="M1054.4,568.5c.5-2.5-.4-5-1-7.5s-.6-5.4,1.2-7.2c1-1,2.4-1.5,2.8-2.8a3.941,3.941,0,0,0-.3-2.6l-4.5-14.1c2.1-.8,4.1-1.5,6.2-2.3-1.3-5.5-2.5-11.1-3.8-16.6,4.6-1.6,9.1-3.3,13.7-4.9.7,4.6,1.3,9.2,2,13.8a5.64,5.64,0,0,0,1.2,3.1c1.1,1,2.7.9,4.1.5s2.7-1.1,4.2-1c2.7.2,4.6,2.9,5.3,5.5s.8,5.5,2,7.9a9.132,9.132,0,0,0,6.4,4.9" fill="none" stroke="#000" stroke-linecap="round" stroke-linejoin="round" stroke-width="5.669"/> <path d="M1060.1,513a179.8,179.8,0,0,0-13.7-36.2c-4.3,1.4-8.6,2.7-13,4.1a84.665,84.665,0,0,0,12.1-25.8,16.618,16.618,0,0,0,10-2,336.058,336.058,0,0,0,9.8,59.8" fill="none" stroke="#000" stroke-linecap="round" stroke-linejoin="round" stroke-width="5.669"/> <path d="M1106.4,541.8a176.655,176.655,0,0,1,9.1-100.9c3.1-7.6,6.9-15.3,13.4-20.3,5.9-4.6,13.4-6.5,20.9-7.2,5.7-.5,11.7-.2,16.5,2.8,5.8,3.7,8.6,10.7,10.4,17.3,7.1,25.1,7,51.8,3.2,77.6" fill="none" stroke="#000" stroke-linecap="round" stroke-linejoin="round" stroke-width="5.669"/> <path d="M1097.6,545.6c-3.8-19.3-6.6-38.9-5.9-58.6s5-39.4,14.6-56.6c3.6-6.4,8-12.5,14.2-16.4,5.8-3.6,12.7-5,19.5-5.3a68.319,68.319,0,0,1,24.1,3.4" fill="none" stroke="#000" stroke-linecap="round" stroke-linejoin="round" stroke-width="5.669"/> <path d="M1146.5,417.4c8.2-.9,16.1,4.3,20.5,11.3s5.9,15.3,6.8,23.5a193.857,193.857,0,0,1-4.3,65.3" fill="none" stroke="#000" stroke-linecap="round" stroke-linejoin="round" stroke-width="5.669"/> <line x1="1129" y1="423" x2="1123" y2="535" fill="none" stroke="#000" stroke-linecap="round" stroke-linejoin="round" stroke-width="2.835"/> <path d="M1140.6,416.5q-4.2,61.5-8.5,123" fill="none" stroke="#000" stroke-linecap="round" stroke-linejoin="round" stroke-width="2.835"/> <line x1="1150.5" y1="419.5" x2="1142.5" y2="541.5" fill="none" stroke="#000" stroke-linecap="round" stroke-linejoin="round" stroke-width="2.835"/> <line x1="1162.5" y1="524.5" x2="1168.5" y2="437.5" fill="none" stroke="#000" stroke-linecap="round" stroke-linejoin="round" stroke-width="2.835"/> <polyline points="1131.5 421.5 1159.5 422.5 1152.5 534.5" fill="none" stroke="#000" stroke-linecap="round" stroke-linejoin="round" stroke-width="2.835"/> <line x1="1119.9" y1="431.5" x2="1169.7" y2="433.8" fill="none" stroke="#000" stroke-linecap="round" stroke-linejoin="round" stroke-width="2.835"/> <line x1="1115.5" y1="447.5" x2="1172.5" y2="449.5" fill="none" stroke="#000" stroke-linecap="round" stroke-linejoin="round" stroke-width="2.835"/> <line x1="1110.5" y1="462.5" x2="1174.7" y2="464.8" fill="none" stroke="#000" stroke-linecap="round" stroke-linejoin="round" stroke-width="2.835"/> <line x1="1174.7" y1="477.1" x2="1101.5" y2="478.5" fill="none" stroke="#000" stroke-linecap="round" stroke-linejoin="round" stroke-width="2.835"/> <line x1="1103.8" y1="492.7" x2="1174.5" y2="491.5" fill="none" stroke="#000" stroke-linecap="round" stroke-linejoin="round" stroke-width="2.835"/> <line x1="1172.8" y1="500.5" x2="1104.5" y2="504.5" fill="none" stroke="#000" stroke-linecap="round" stroke-linejoin="round" stroke-width="2.835"/> <line x1="1168.5" y1="514.5" x2="1104.5" y2="521.5" fill="none" stroke="#000" stroke-linecap="round" stroke-linejoin="round" stroke-width="2.835"/> <path d="M1160.5,527.5l-53.3,8c2.3-28,4.5-56,6.8-84" fill="none" stroke="#000" stroke-linecap="round" stroke-linejoin="round" stroke-width="2.835"/> <line x1="1133.5" y1="578.5" x2="1133.5" y2="590.5" fill="none" stroke="#000" stroke-linecap="round" stroke-linejoin="round" stroke-width="2.835"/> <line x1="1140.5" y1="573.5" x2="1140.5" y2="588.5" fill="none" stroke="#000" stroke-linecap="round" stroke-linejoin="round" stroke-width="2.835"/> <line x1="1152.5" y1="568.5" x2="1150.5" y2="581.5" fill="none" stroke="#000" stroke-linecap="round" stroke-linejoin="round" stroke-width="2.835"/> <path d="M1110.3,595.2a432.954,432.954,0,0,1,6.4,72.8" fill="none" stroke="#000" stroke-linecap="round" stroke-linejoin="round" stroke-width="5.669"/> <path d="M1121.2,589.3c6.6,19.9,1.1,42.4,7.9,62.2a99.812,99.812,0,0,0,7.3-26.3" fill="none" stroke="#000" stroke-linecap="round" stroke-linejoin="round" stroke-width="5.669"/> <path d="M1127.5,638.5l11.4-37.5" fill="none" stroke="#000" stroke-linecap="round" stroke-linejoin="round" stroke-width="5.669"/> <path d="M1126,599.8a22.718,22.718,0,0,0,20.3-7.6" fill="none" stroke="#000" stroke-linecap="round" stroke-linejoin="round" stroke-width="5.669"/> <path d="M1124.8,592.6c6.3-.2,13.2-.6,18-4.8,5.8-5.1,6.5-13.8,10.9-20.2" fill="none" stroke="#000" stroke-linecap="round" stroke-linejoin="round" stroke-width="5.669"/> <path d="M1126.7,595.9c8.9,1.5,18-2.9,24.1-9.5s9.7-15.1,12.6-23.6" fill="none" stroke="#000" stroke-linecap="round" stroke-linejoin="round" stroke-width="5.669"/> <path d="M1176,562.3c1.9,18.3.5,36.7.8,55,.1,4.5.3,9,.5,13.5.9,14.7,3,29.3,5.1,43.9a22.21,22.21,0,0,1,.2,7.7,11.229,11.229,0,0,1-5.2,7.2" fill="none" stroke="#000" stroke-linecap="round" stroke-linejoin="round" stroke-width="5.669"/> <path d="M1170.6,589.7c.1,24.2-21,44.7-20.8,68.8" fill="none" stroke="#000" stroke-linecap="round" stroke-linejoin="round" stroke-width="5.669"/> <path d="M1164.4,564.8a400.641,400.641,0,0,0-29.1,106.9" fill="none" stroke="#000" stroke-linecap="round" stroke-linejoin="round" stroke-width="5.669"/> <path d="M1116.8,668.1a31.74,31.74,0,0,0,19.5,1.3" fill="none" stroke="#000" stroke-linecap="round" stroke-linejoin="round" stroke-width="5.669"/> <path d="M1136.5,690.8c12.5-.7,25-1.6,37.4-2.5" fill="none" stroke="#000" stroke-linecap="round" stroke-linejoin="round" stroke-width="5.669"/> <path d="M982.5,643.2a74.448,74.448,0,0,1-3,42.3c33,10.1,68.8,8.2,102.9,7.4,10.2-.2,20.4-.6,30.5-1" fill="none" stroke="#000" stroke-linecap="round" stroke-linejoin="round" stroke-width="5.669"/> <path d="M1116.1,670.5c-.5,30.3-1.9,60.5-4.4,90.7-.4,5.2-.9,10.6-3.7,15-.9,1.5-2.1,3-1.9,4.7.3,2.2,2.6,3.5,4.7,4.2a45.981,45.981,0,0,0,13.8,2.4c2.6,0,5.6-.4,6.7-2.7a7.609,7.609,0,0,0,.5-3.4,832.7,832.7,0,0,1,5.6-108.2" fill="none" stroke="#000" stroke-linecap="round" stroke-linejoin="round" stroke-width="5.669"/> <path d="M1113.7,750.1a22.851,22.851,0,0,0,14.5,9.3" fill="none" stroke="#000" stroke-linecap="round" stroke-linejoin="round" stroke-width="5.669"/> <path d="M1115.1,721.2a24.689,24.689,0,0,0,18.2,9.3" fill="none" stroke="#000" stroke-linecap="round" stroke-linejoin="round" stroke-width="5.669"/> <path d="M1116.7,684.2a27.708,27.708,0,0,0,15.5,12.6" fill="none" stroke="#000" stroke-linecap="round" stroke-linejoin="round" stroke-width="5.669"/> <path d="M978.8,688.5c-.8,29.7-1.5,59.4-2.3,89q-.75,29.7-1.5,59.3c-.4-.4-1.2,0-1.1.5a100.034,100.034,0,0,0,107.6-1.2" fill="none" stroke="#000" stroke-linecap="round" stroke-linejoin="round" stroke-width="5.669"/> <path d="M975.5,842.3c9.8,10.7,24,16.7,38.3,18.5,14.4,1.8,29-.4,43-4,6.7-1.7,13.5-3.9,18.8-8.2a15.74,15.74,0,0,0,5-6.4c1-2.5,1-5.2,1.1-7.8.7-31.8,1.3-63.5,2-95.3" fill="none" stroke="#000" stroke-linecap="round" stroke-linejoin="round" stroke-width="5.669"/> <path d="M1084.9,833.8c12.7,15,32.3,23.4,52,24.4s39.3-4.9,56.3-14.7" fill="none" stroke="#000" stroke-linecap="round" stroke-linejoin="round" stroke-width="5.669"/> <path d="M1087.4,829.1a78.808,78.808,0,0,0,79.4,16.6" fill="none" stroke="#000" stroke-linecap="round" stroke-linejoin="round" stroke-width="5.669"/> <path d="M1179.3,691a13.387,13.387,0,0,1,4.9,12.1c-.5,3.7-2.6,7.1-2.4,10.9" fill="none" stroke="#000" stroke-linecap="round" stroke-linejoin="round" stroke-width="5.669"/> <path d="M1179.7,704.3c-3,22.6-.8,45.5,1.5,68.1,1.9,18.5,3.7,37,5.6,55.5.5,4.9,1.4,10.5,5.5,13.2" fill="none" stroke="#000" stroke-linecap="round" stroke-linejoin="round" stroke-width="5.669"/> <path d="M1001.1,856.3a113.167,113.167,0,0,0,6,51.3" fill="none" stroke="#000" stroke-linecap="round" stroke-linejoin="round" stroke-width="5.669"/> <path d="M1001.1,888.2c1.3,6.9.2,14-1.6,20.8s-4.2,13.4-5.4,20.4a60.677,60.677,0,0,0,3.4,33.2" fill="none" stroke="#000" stroke-linecap="round" stroke-linejoin="round" stroke-width="5.669"/> <path d="M1062.9,856.5c-1.3,19.3-9.9,37.2-18.4,54.6" fill="none" stroke="#000" stroke-linecap="round" stroke-linejoin="round" stroke-width="5.669"/> <path d="M1055.3,891.8a569.191,569.191,0,0,0,1.9,71.5" fill="none" stroke="#000" stroke-linecap="round" stroke-linejoin="round" stroke-width="5.669"/> <path d="M1014,900.3c2.1.9,3.7,2.6,5.5,4s3.9,2.7,6.1,2.5c2.3-.2,4.2-2,6.4-2.5" fill="none" stroke="#000" stroke-linecap="round" stroke-linejoin="round" stroke-width="5.669"/> <path d="M1089.4,841.6c-2.7,9.4-.4,19.6,3,28.7,3.4,9.2,8.1,17.9,10.4,27.5" fill="none" stroke="#000" stroke-linecap="round" stroke-linejoin="round" stroke-width="5.669"/> <path d="M1102.7,895.2a242.211,242.211,0,0,1-7.9,67.3" fill="none" stroke="#000" stroke-linecap="round" stroke-linejoin="round" stroke-width="5.669"/> <path d="M1107.4,880.3c3.1,4,4.2,9.2,6,14,1.7,4.8,4.6,9.7,9.4,11.4,1.9.7,4,.8,5.8,1.7s3.4,2.9,2.7,4.8" fill="none" stroke="#000" stroke-linecap="round" stroke-linejoin="round" stroke-width="5.669"/> <path d="M1158,859.5c-3.7,17-7.4,34.3-5.7,51.6,1.7,17.4,8.8,34.2,9.1,51.7" fill="none" stroke="#000" stroke-linecap="round" stroke-linejoin="round" stroke-width="5.669"/> <path d="M1190.9,283.1c4.7,15.4,9.3,30.9,14,46.3,1.5,4.8,2.9,9.6,5.3,14.1,4.5,8.5,12.1,15,19.4,21.3,3.8,3.2,7.7,6.5,12.4,8.1a19.221,19.221,0,0,0,14.5-1,19.439,19.439,0,0,0,9.6-10.9" fill="none" stroke="#000" stroke-linecap="round" stroke-linejoin="round" stroke-width="5.669"/> <path d="M1219.7,309.7a137.288,137.288,0,0,1,.5,24,14.631,14.631,0,0,0,.4,5.9c1.3,3.3,5.4,4.9,8.9,4.3s6.5-3,8.8-5.8" fill="none" stroke="#000" stroke-linecap="round" stroke-linejoin="round" stroke-width="5.669"/> <path d="M1227.8,350.4a33.029,33.029,0,0,0,26.8-15.6" fill="none" stroke="#000" stroke-linecap="round" stroke-linejoin="round" stroke-width="5.669"/> <path d="M1233.9,351c1.4,2.2,2.7,4.4,4.1,6.5" fill="none" stroke="#000" stroke-linecap="round" stroke-linejoin="round" stroke-width="5.669"/> <path d="M1234.9,360.3a33.272,33.272,0,0,0,23-18.1c1.3-2.7,2.1-5.9.7-8.5" fill="none" stroke="#000" stroke-linecap="round" stroke-linejoin="round" stroke-width="5.669"/> <path d="M1283.9,290.2c.1-2.9.1-6,1.4-8.6s4.2-4.7,7.1-4.1c3.3.7,5,4.4,5.9,7.6a43.344,43.344,0,0,1,1.4,18.6,28.268,28.268,0,0,1-8.4,16.4" fill="none" stroke="#000" stroke-linecap="round" stroke-linejoin="round" stroke-width="5.669"/> <path d="M1214.5,274.7a10.367,10.367,0,0,1-17.6,1,5.978,5.978,0,0,1-4.6,4.2,5.8,5.8,0,0,1-5.7-2.5,11.665,11.665,0,0,1-6.4-10.8" fill="none" stroke="#000" stroke-linecap="round" stroke-linejoin="round" stroke-width="5.669"/> <path d="M1188.2,261a7.8,7.8,0,0,1-.6-8.3,7.677,7.677,0,0,1,7.4-3.8,6.619,6.619,0,0,1,0-6.4,6.458,6.458,0,0,1,5.7-3.1c-1.3-2.3,0-5.3,2.1-6.8s4.8-1.9,7.4-2.3" fill="none" stroke="#000" stroke-linecap="round" stroke-linejoin="round" stroke-width="5.669"/> <path d="M1215.9,234.8c.5-2.2,1.2-4.6,2.8-6.2,1.7-1.6,4.7-2,6.2-.3a11.332,11.332,0,0,1,11.6-2.6,8.506,8.506,0,0,1,13.5-1.1" fill="none" stroke="#000" stroke-linecap="round" stroke-linejoin="round" stroke-width="5.669"/> <path d="M1256.8,228.1c3-1.1,6.1-2.2,9.2-1.7,3.1.4,6.2,3,6.2,6.1,1.9.1,4.1.2,5.5,1.5,1.5,1.3,1.6,4.1-.2,4.9a5.594,5.594,0,0,1,6.9-1.7,5.727,5.727,0,0,1,2.8,6.6" fill="none" stroke="#000" stroke-linecap="round" stroke-linejoin="round" stroke-width="5.669"/> <path d="M1287.1,247.7c3,1.6,6,3.5,7.8,6.4s2.2,7,0,9.6a7.051,7.051,0,0,1,6.1,4.2,6.977,6.977,0,0,1-1.3,7.3,2.9,2.9,0,1,1-1.5,5.6" fill="none" stroke="#000" stroke-linecap="round" stroke-linejoin="round" stroke-width="5.669"/> <path d="M1222.7,268.1a18.25,18.25,0,0,0,12.4-.8,17.549,17.549,0,0,0,8.8-8.8,3,3,0,0,0,2.5,2.9,4.331,4.331,0,0,0,3.7-1.5,8.393,8.393,0,0,0,1.8-3.8" fill="none" stroke="#000" stroke-linecap="round" stroke-linejoin="round" stroke-width="5.669"/> <path d="M1263.1,262.1a15.955,15.955,0,0,0-4,4.9,5.273,5.273,0,0,0,.7,5.9c2,1.9,5.3,1.2,7.9.1-.5,2.2-1.1,4.5-.7,6.7s1.9,4.4,4.2,4.8a5.882,5.882,0,0,0,4,10.7" fill="none" stroke="#000" stroke-linecap="round" stroke-linejoin="round" stroke-width="5.669"/> <path d="M1232.5,310.4a28.566,28.566,0,0,1,24-6.2" fill="none" stroke="#000" stroke-linecap="round" stroke-linejoin="round" stroke-width="5.669"/> <path d="M1203.3,319.3a31.577,31.577,0,0,1,5.5-4.8,11.871,11.871,0,0,1,6.8-2.1" fill="none" stroke="#000" stroke-linecap="round" stroke-linejoin="round" stroke-width="5.669"/> <path d="M1240.2,305.9c1.6,1.7,3.2,3.5,4.8,5.2a6.551,6.551,0,0,0,7-4.8" fill="none" stroke="#000" stroke-linecap="round" stroke-linejoin="round" stroke-width="5.669"/> <path d="M1209.1,315.6c1.7,1.6,3.4,3.3,5,4.9a4.02,4.02,0,0,0,3.3-1.2,4.138,4.138,0,0,0,1.2-3.3" fill="none" stroke="#000" stroke-linecap="round" stroke-linejoin="round" stroke-width="5.669"/> <path d="M1296.9,314.9c-.1,5.8,2.8,11.3,6.8,15.5s9,7.2,13.9,10.3" fill="none" stroke="#000" stroke-linecap="round" stroke-linejoin="round" stroke-width="5.669"/> <path d="M1249.5,377.6c-.5,3.1,1.9,6.1,4.8,7.3s6.2,1.1,9.3.8c15.8-1.6,31.6-6.9,43.6-17.2,7.8-6.8,14.1-16.4,13.7-26.7" fill="none" stroke="#000" stroke-linecap="round" stroke-linejoin="round" stroke-width="5.669"/> <path d="M1250.1,377.5a78.046,78.046,0,0,0-34.7,22.2" fill="none" stroke="#000" stroke-linecap="round" stroke-linejoin="round" stroke-width="5.669"/> <path d="M1317.6,335.9c3.8,1.6,7.7,3.1,11.5,4.7a39.715,39.715,0,0,1-17.3,30.5" fill="none" stroke="#000" stroke-linecap="round" stroke-linejoin="round" stroke-width="5.669"/> <path d="M1331.8,340.5c20,10.4,45.9,6,64.3,18.9,8.3,5.8,14.1,14.6,18,24,3.8,9.4,5.8,19.4,7.6,29.4q5.55,30.6,9.9,61.4" fill="none" stroke="#000" stroke-linecap="round" stroke-linejoin="round" stroke-width="5.669"/> <path d="M1391,470.3a35.72,35.72,0,0,1,30-7.5" fill="none" stroke="#000" stroke-linecap="round" stroke-linejoin="round" stroke-width="5.669"/> <path d="M1375,388.1c-4.3,11-8.7,22-11.5,33.5s-4,23.5-2,35.1" fill="none" stroke="#000" stroke-linecap="round" stroke-linejoin="round" stroke-width="5.669"/> <path d="M1366.6,452.7a24.161,24.161,0,0,1,1.7,8.8" fill="none" stroke="#000" stroke-linecap="round" stroke-linejoin="round" stroke-width="5.669"/> <path d="M1325.7,448.3q21.75,8.4,43.5,16.9c5.6,2.2,11.2,4.3,17.2,5.1,7.5,1,15.7-.2,22.3,3.6" fill="none" stroke="#000" stroke-linecap="round" stroke-linejoin="round" stroke-width="5.669"/> <path d="M1277.1,422.5c-.3-8.2-.5-16.3-.8-24.5a19.763,19.763,0,0,1,.7-7.3c.9-2.3,2.9-4.3,5.3-4.4s4.5,1.7,5.6,3.8a16.37,16.37,0,0,1,1.1,7c-.2,7.2-1.6,14.7,1.2,21.3" fill="none" stroke="#000" stroke-linecap="round" stroke-linejoin="round" stroke-width="5.669"/> <path d="M1298.6,418.2a61.533,61.533,0,0,0-25.1,7.2,21.349,21.349,0,0,0-5.9,4.3,9.276,9.276,0,0,0-2.6,6.7,6.012,6.012,0,0,0,4.3,5.4" fill="none" stroke="#000" stroke-linecap="round" stroke-linejoin="round" stroke-width="5.669"/> <path d="M1291.6,430.3c-3.3,2.8-7.5,4.2-11.3,6s-7.7,4.5-9.1,8.6a10.378,10.378,0,0,0,1.1,8.9,9.838,9.838,0,0,0,7.7,4.4" fill="none" stroke="#000" stroke-linecap="round" stroke-linejoin="round" stroke-width="5.669"/> <path d="M1296.7,443.9c-4.7,4-9.4,8.1-14.2,12.1a8.644,8.644,0,0,0-2.6,3.1c-1,2.6.9,5.6,3.4,7a11.581,11.581,0,0,0,10.7.5" fill="none" stroke="#000" stroke-linecap="round" stroke-linejoin="round" stroke-width="5.669"/> <path d="M1303.8,457.8a28.074,28.074,0,0,0-5.8,3.9,10.91,10.91,0,0,0-3.5,5.9,6.349,6.349,0,0,0,2.4,6.2,6.968,6.968,0,0,0,5.3.8,22.816,22.816,0,0,0,5.1-2.1c2.1-1.1,4.1-2.2,6.2-3.3" fill="none" stroke="#000" stroke-linecap="round" stroke-linejoin="round" stroke-width="5.669"/> <path d="M1303.3,474.9l3.3,6.3c5.1,2.2,10.9,1.8,16.5,1.3" fill="none" stroke="#000" stroke-linecap="round" stroke-linejoin="round" stroke-width="5.669"/> <path d="M1323.6,480.8c13.7,12.5,27.9,24.6,43.8,34.2,15.9,9.5,33.7,16.4,52.2,17.7" fill="none" stroke="#000" stroke-linecap="round" stroke-linejoin="round" stroke-width="5.669"/> <path d="M1428,535.2c2,.9,4.5,0,6.1-1.4a17.739,17.739,0,0,0,3.7-5.5c3-6,6.1-12.2,6.9-19a34.673,34.673,0,0,0-3.1-18.2,52.482,52.482,0,0,0-10.9-15.1c-3.2-3.1-7.3-6.1-11.7-5.4" fill="none" stroke="#000" stroke-linecap="round" stroke-linejoin="round" stroke-width="5.669"/> <path d="M1424,536c-.5,15.3,2.7,30.4,5.3,45.5,3.9,22.5,6.4,45.3,8.8,68" fill="none" stroke="#000" stroke-linecap="round" stroke-linejoin="round" stroke-width="5.669"/> <path d="M1438.7,652.7a113.427,113.427,0,0,0-3.3,17.2,37.776,37.776,0,0,0,2.1,17.3c.7,1.7,1.6,3.5,1.3,5.4-.4,3.2-3.9,5-6.9,6.2" fill="none" stroke="#000" stroke-linecap="round" stroke-linejoin="round" stroke-width="5.669"/> <path d="M1227.2,696.7c11.7,10.1,28.1,12.7,43.5,14.1a486.494,486.494,0,0,0,156.8-11.1" fill="none" stroke="#000" stroke-linecap="round" stroke-linejoin="round" stroke-width="5.669"/> <path d="M1436.8,699.1a56.816,56.816,0,0,0-.7,39.4" fill="none" stroke="#000" stroke-linecap="round" stroke-linejoin="round" stroke-width="5.669"/> <path d="M1438,743.7a108.382,108.382,0,0,1,12,56.4" fill="none" stroke="#000" stroke-linecap="round" stroke-linejoin="round" stroke-width="5.669"/> <path d="M1453,800.7a892.536,892.536,0,0,0,10.2,120c-10.2,6.1-22.1,9-34,10s-23.8.1-35.6-.7c-10.1-.7-20.4-1.5-29.8-5.3-12.5-5.1-22.3-15-31.8-24.7" fill="none" stroke="#000" stroke-linecap="round" stroke-linejoin="round" stroke-width="5.669"/> <path d="M1323.6,785.2a547.087,547.087,0,0,1,6.2,106.2" fill="none" stroke="#000" stroke-linecap="round" stroke-linejoin="round" stroke-width="5.669"/> <path d="M1328.4,894.5c-21,2.3-42,4.6-63.1,6-8.6.6-17.3,1-25.8-.9-8.4-1.8-16.6-6.2-21.4-13.4" fill="none" stroke="#000" stroke-linecap="round" stroke-linejoin="round" stroke-width="5.669"/> <path d="M1215.5,884.7q6.3-52.5,10.7-105.2c1.3-16.4.2-66.1.8-82.6" fill="none" stroke="#000" stroke-linecap="round" stroke-linejoin="round" stroke-width="5.669"/> <path d="M1234.1,507.5c2.8,9.2-1,19.2-.2,28.8,1,11.3,8.4,20.9,15.5,29.8" fill="none" stroke="#000" stroke-linecap="round" stroke-linejoin="round" stroke-width="5.669"/> <path d="M1232.6,546.1c1.4,8.1.7,16.5.9,24.7.2,8.3,1.6,16.9,6.6,23.4" fill="none" stroke="#000" stroke-linecap="round" stroke-linejoin="round" stroke-width="5.669"/> <path d="M1231.1,579.3a95.5,95.5,0,0,0,17.7,53.3" fill="none" stroke="#000" stroke-linecap="round" stroke-linejoin="round" stroke-width="5.669"/> <path d="M1235.2,613.3c1.7,7.1,3.4,14.3,3.9,21.7s-.4,14.9-3.6,21.5a12.7,12.7,0,0,0-1.5,4.1c-.2,2.8,2,5.1,4.2,6.7s4.7,3.3,5.7,5.8" fill="none" stroke="#000" stroke-linecap="round" stroke-linejoin="round" stroke-width="5.669"/> <path d="M1233.7,664.2a58.29,58.29,0,0,1-10.2,27.6c1.8,1.7,3.5,3.5,5.3,5.2" fill="none" stroke="#000" stroke-linecap="round" stroke-linejoin="round" stroke-width="5.669"/> <path d="M1226.1,531a221.157,221.157,0,0,0-5.9,33.3c-1.9,19.5-1.2,39.1-.5,58.6q.3,8.55.6,17.1" fill="none" stroke="#000" stroke-linecap="round" stroke-linejoin="round" stroke-width="5.669"/> <path d="M1219.5,640.5c0,14.5.1,29.2-3.2,43.3-2.1,9.1-5.5,17.9-5.6,27.2" fill="none" stroke="#000" stroke-linecap="round" stroke-linejoin="round" stroke-width="5.669"/> <path d="M1216.6,701.6a59.747,59.747,0,0,1-12,20.1c-.9,1-1.9,2.1-2,3.4a3.85,3.85,0,0,0,2.1,3.5,7.653,7.653,0,0,0,4.2.7,15.044,15.044,0,0,0,12-8" fill="none" stroke="#000" stroke-linecap="round" stroke-linejoin="round" stroke-width="5.669"/> <path d="M1210.3,730.7a29.344,29.344,0,0,0,12.7,23.6" fill="none" stroke="#000" stroke-linecap="round" stroke-linejoin="round" stroke-width="5.669"/> <path d="M1224.7,745.7a33.982,33.982,0,0,1-5.3-14.2" fill="none" stroke="#000" stroke-linecap="round" stroke-linejoin="round" stroke-width="5.669"/> <path d="M1302.1,419.1c3.6,3.8,7.4,8,8.3,13.1.3,1.6.4,3.5,1.7,4.6,1.1.9,2.6.9,3.6,1.8,1.2,1.1,1.1,2.9,1.4,4.4.7,3.2,3.3,5.5,5.2,8.1s3.1,6.5,1,8.9" fill="none" stroke="#000" stroke-linecap="round" stroke-linejoin="round" stroke-width="5.669"/> <path d="M1270.1,900.9c3.6,7.9,7.3,15.8,10.9,23.7" fill="none" stroke="#000" stroke-linecap="round" stroke-linejoin="round" stroke-width="5.669"/> <path d="M1274.1,911.4c1.3,17.4,3.4,34.7,6.2,52" fill="none" stroke="#000" stroke-linecap="round" stroke-linejoin="round" stroke-width="5.669"/> <path d="M1330.7,898.3c.9,22.9,11.6,44.2,14.6,66.9" fill="none" stroke="#000" stroke-linecap="round" stroke-linejoin="round" stroke-width="5.669"/> <path d="M1346.8,915.6a232.729,232.729,0,0,1,15.5,48.1" fill="none" stroke="#000" stroke-linecap="round" stroke-linejoin="round" stroke-width="5.669"/> <path d="M1417,933.1a72.492,72.492,0,0,0,8.1,29.9" fill="none" stroke="#000" stroke-linecap="round" stroke-linejoin="round" stroke-width="5.669"/> <path d="M1439.1,671.6c3.6-.9,7.3-1.8,10.9-2.6" fill="none" stroke="#000" stroke-linecap="round" stroke-linejoin="round" stroke-width="5.669"/> <path d="M1178.2,731.7c7.5-1.3,15-3,22.4-4.8" fill="none" stroke="#000" stroke-linecap="round" stroke-linejoin="round" stroke-width="5.669"/> <path d="M946.1,787c9.7-2.2,19.5-3.8,29.2-6.1" fill="none" stroke="#000" stroke-linecap="round" stroke-linejoin="round" stroke-width="5.669"/> <path d="M846.1,809.5c3.1.5,6.1-1.6,8.9-2.5" fill="none" stroke="#000" stroke-linecap="round" stroke-linejoin="round" stroke-width="5.669"/> <path d="M739.1,834.6c4.6-1.2,9.1-2.3,13.7-3.5" fill="none" stroke="#000" stroke-linecap="round" stroke-linejoin="round" stroke-width="5.669"/> <path d="M411,911c40-9,80-20,120.6-28.1" fill="none" stroke="#000" stroke-linecap="round" stroke-linejoin="round" stroke-width="5.669"/> </g> </svg>