<?xml version='1.0' encoding='utf-8'?>
<svg xmlns="http://www.w3.org/2000/svg" version="1.1" id="Layer_1" x="0px" y="0px" viewBox="0 0 586.9 681.4" style="enable-background:new 0 0 586.9 681.4;"> <style type="text/css"> .st0{fill:url(#SVGID_1_);} .st1{fill:url(#SVGID_2_);} .st2{fill:#C0CDD7;} .st3{fill:#E4F3FC;} .st4{fill:url(#SVGID_3_);} .st5{fill:url(#SVGID_4_);} .st6{fill:#D5C7C1;} .st7{fill:#8F9594;} .st8{fill:#999999;} .st9{fill:url(#SVGID_5_);} .st10{fill:#808080;} .st11{fill:#B0A7A4;} .st12{fill:#B3B3B3;} .st13{fill:url(#SVGID_6_);} .st14{fill:#918C6F;} .st15{fill:url(#SVGID_7_);} .st16{fill:url(#SVGID_8_);} .st17{fill:#959581;} .st18{fill:#97C9EC;} .st19{fill:url(#SVGID_9_);} .st20{fill:url(#SVGID_10_);} .st21{fill:url(#SVGID_11_);} .st22{fill:#C8B46B;} .st23{fill:#ADB48C;} .st24{fill:#818786;} .st25{fill:url(#SVGID_12_);} .st26{fill:url(#SVGID_13_);} .st27{fill:#9C6A45;} .st28{fill:#857998;} .st29{fill:#FBBF9E;} .st30{fill:#FFEFCF;} .st31{fill:#566C6F;} .st32{fill:#978AA7;} .st33{fill:#5D7578;} .st34{fill:#4F6640;} .st35{fill:#557C49;} .st36{fill:#767F9F;} .st37{fill:#0092B9;} .st38{fill:#A88A53;} .st39{fill:#FBBB99;} .st40{fill:#E8A182;} .st41{fill:#63AFE1;} .st42{fill:#FDC99F;} .st43{fill:#909090;} .st44{fill:#A7AA94;} .st45{fill:#C0AAA7;} .st46{fill:#4C443D;} .st47{fill:#D180A6;} .st48{fill:#909ACA;} .st49{fill:#7B85AD;} .st50{fill:#A54977;} .st51{fill:#6592AA;} .st52{fill:#4EC1B8;} .st53{fill:#0077B7;} .st54{fill:#E69C6A;} .st55{fill:#778E5C;} .st56{fill:#8FB779;} .st57{fill:#FFF79D;} .st58{fill:#564A1D;} .st59{fill:#F7CEAE;} .st60{fill:#7B716F;} .st61{fill:#F3869D;} .st62{fill:#61A9D6;} .st63{fill:#8E6577;} .st64{fill:#0C8FC6;} .st65{fill:#4C3E16;} .st66{fill:#5D98A8;} .st67{fill:#3295B7;} .st68{fill:#91A1CB;} .st69{fill:#4A9FC0;} .st70{fill:#00ACC0;} .st71{fill:#B4DAA8;} .st72{fill:#DAE8A8;} .st73{fill:#DD916B;} .st74{fill:#E39C7D;} .st75{fill:#54ACB4;} .st76{fill:#597381;} .st77{fill:#F2CB7C;} .st78{fill:#BC7657;} .st79{fill:#737CA2;} .st80{fill:#9BD3AE;} </style> <linearGradient id="SVGID_1_" gradientUnits="userSpaceOnUse" x1="293.3467" y1="-1282.7441" x2="293.3467" y2="-885.264" gradientTransform="matrix(1 0 0 -1 0 -601.338)"> <stop offset="0" style="stop-color:#A8D26E"/> <stop offset="0.4387" style="stop-color:#74934D"/> <stop offset="1" style="stop-color:#6C6A48"/> </linearGradient> <path class="st0" d="M0,680.8c0-131.5,0-263,0-394.5c195.6-0.8,391.1-1.6,586.7-2.4c-0.8,132.5-1.5,265-2.3,397.5 C389.6,681.2,194.8,681,0,680.8z"/> <linearGradient id="SVGID_2_" gradientUnits="userSpaceOnUse" x1="293.3467" y1="-601.338" x2="293.3467" y2="-999.0891" gradientTransform="matrix(1 0 0 -1 0 -601.338)"> <stop offset="1.820000e-02" style="stop-color:#2CC3E7"/> <stop offset="0.5194" style="stop-color:#70CEE6"/> <stop offset="1" style="stop-color:#BEE4E1"/> </linearGradient> <path class="st1" d="M586.7,0c0,131.9,0,263.8,0,395.7c-194.8,0.7-389.5,1.4-584.3,2.1C1.6,265.2,0.8,132.6,0,0 C195.6,0,391.1,0,586.7,0z"/> <g> <path class="st2" d="M208.3,90.5c0,0-29.1,19.5-52.4,15.5c-23.3-3.9-37.8-15.2-37.8-15.2s-34.5,1.5-33.9-17.9 C84.8,53.5,118,55.6,118,55.6s22.4-41.2,66.8-30.6c34.8,9.5,48.7,22.5,48.7,22.5s31.7-12,58.3,6.1c27.1,29.1-9.1,49.5-33.6,50.1 C233.6,104.5,208.3,90.5,208.3,90.5z"/> <path class="st3" d="M284.5,97.1c6.7-7.6,6.9-23,1.3-33.5c-7.3-13.9-22.1-15.4-26.4-15.9c-7.7-0.9-14.6,1.2-17.6,2.1 c-3.7,1.2-6.6,2.7-8.6,3.9c-18.7-14.7-46.8-31-76.6-23.6c-1.5,0.3-3.1,0.9-4.8,1.3c1.6,1.7,3.3,3.3,4.8,5c-7.3-2.8-13.5-3-15.7-0.5 c-1.5,1.5-1.6,3.3-1.6,3.3c-0.3,2,0.7,3.6,1,4.2c-2.5-3-6.4-2.4-7.7-0.5c-1.2,1.8-0.7,5.1,1.6,7.2c-0.4-0.3-3-2.1-6.1-1.3 c-3.6,1.2-4.9,5.1-5.1,6c-0.6,1.8-0.6,3.6-0.4,4.5c-1.2-0.2-3.3-0.3-5.7-0.5c-6.4-0.2-25.7-0.9-29.3,8.7c-1.3,3.5-0.3,7.1,0,8 c3,9.1,16.9,13.7,34.4,11.9c-2.8-5.1-5.7-10.4-8.5-15.5c21.4,20.7,32.9,29.9,34.8,28c0.9-1-0.6-5-4.8-11.9c8,8.9,15.8,12,20.5,13.2 c3,0.9,12.4,3.3,14.6-1c1.5-3-1-7.6-2.1-9.5c2.2,1.7,6.1,3.9,11.2,4.7c2.8,0.3,7,0.6,8.5-1.8c1.5-2.4,0-7.6-4.2-12.2 c10.5,6,16.3,7.8,17.6,5.7c1-1.7-0.7-5.7-5.7-12.5c13.6,14.1,21.2,20.1,22.5,18.8c1-1-1-5.7-6-14.3c12.4,13.4,19.3,19.5,20.6,18.2 c0.9-0.9-0.9-5.3-5.4-13.2C253,105.7,275.4,107.4,284.5,97.1z"/> </g> <linearGradient id="SVGID_3_" gradientUnits="userSpaceOnUse" x1="294.6289" y1="649.4704" x2="473.9612" y2="338.8578"> <stop offset="0.1538" style="stop-color:#827E6D"/> <stop offset="0.3789" style="stop-color:#918875"/> <stop offset="0.7744" style="stop-color:#B49F89"/> </linearGradient> <path class="st4" d="M585.3,403.2c-0.3,92.5-0.6,185.1-1,277.6c-77.8,0.2-155.5,0.4-233.3,0.6c-90-47.1-145.5-101.9-178.2-140.8 c-18.2-21.6-76-89.6-57.7-113.2c13.4-17.4,36.4-17.4,64-4.6c61.7,28.5,120.6,24.8,171.5,39.3c77,21.9,99.9,26.8,127.2,16.1 c24-9.3,40-26.2,49.5-38.4C546.7,427.6,566,415.4,585.3,403.2z"/> <linearGradient id="SVGID_4_" gradientUnits="userSpaceOnUse" x1="137.7635" y1="407.4481" x2="390.1278" y2="407.4481"> <stop offset="0.1538" style="stop-color:#827E6D"/> <stop offset="0.3789" style="stop-color:#918875"/> <stop offset="0.7744" style="stop-color:#B49F89"/> </linearGradient> <path class="st5" d="M178.4,292.9c2.9,2.9,45.3,13.8,48.2,26.9c2.9,13.1,30.9,21.1,43.4,24.7c12.5,3.6,35.3,10.2,47.1,18.2 c11.8,8,28.7,29.1,33.1,32.7c4.4,3.6-3.7,29.1,4.4,34.9c8.1,5.8,12.1,59.7,23.2,66.2c11,6.5,18.4,25.5,5.2,25.5 c-13.2,0-68.5-32-86.1-29.8c-17.7,2.2-47.9-18.2-59.6-21.8c-11.8-3.6-55.2,0-64-10.2c-8.8-10.2-37.5-24.7-35.3-32.7 c2.2-8,30.2-97.5,31.7-107.7C171,309.6,178.4,292.9,178.4,292.9z"/> <path class="st6" d="M164,294.3c-0.7-3.6-22.8-68.4-22.1-76.4c0.7-8,49.7-28.4,57.1-32.7c7.4-4.4,13.2-18.9,14.7-11.6 c1.5,7.3-0.7,15.3,5.2,17.5c5.9,2.2,14,3.6,12.5,11.6c-1.5,8,0,10.2,2.9,16.7c2.9,6.5-1.5,17.5-5.1,21.8c-3.7,4.4-8.8,5.1-4.4,9.5 c4.4,4.4,9.6,6.5,12.5,12.4c2.9,5.8,2.2,5.8,5.1,11.6c2.9,5.8,1.5,12.4,1.5,16.7c0,4.4-18.4,10.9-12.5,17.5 c5.9,6.5,14.7,10.9,6.6,16c-8.1,5.1-15.5,11.6-17.7,5.8c-2.2-5.8,4.4-10.9-14-21.8c-18.4-10.9-35-2.2-31.3-7.3 C178.7,296.5,164,294.3,164,294.3z"/> <path class="st7" d="M207.8,164.8c19.1-2.9,24.3,32.7,3.7,30.6c-22.1-2.9-39,27.6-59.6,11.6c-14-15.3-15.8-33.9-2.6-33.9 c10.2,7.9,15.6,14.2,23.6,12.4L207.8,164.8z"/> <path class="st8" d="M268.9,239.7c3.7,2.9,9.6-1.5,10.3-8.7c0.7-7.3-3.7-16,0-20.4c3.7-4.4,5.9-17.5,8.1-14.6 c2.2,2.9,0.7,18.2,2.9,21.1c2.2,2.9,3.7-2.2,5.9-9.5c2.2-7.3,7.4-5.1,6.6,2.2c-0.7,7.3-5.9,8.7,0.7,16.7c6.6,8,0.7,12.4,1.5,20.4 c0.7,8,3.7,10.9,1.5,18.9c-2.2,8-5.9,17.5-6.6,26.2c-0.7,8.7,2.2,10.9,3.7,18.2c1.5,7.3,6.6,10.2-0.7,18.2c-7.4,8-15.5-4.4-7.4,8 c8.1,12.4,6.6,23.3,1.5,24.7c-5.2,1.5-36.4,14.6-36.4,14.6s-26.9-48-12.9-88.8C261.6,246.3,268.9,239.7,268.9,239.7z"/> <linearGradient id="SVGID_5_" gradientUnits="userSpaceOnUse" x1="476.396" y1="470.6212" x2="476.396" y2="292.8542"> <stop offset="0.2974" style="stop-color:#B49F89"/> <stop offset="0.4169" style="stop-color:#AC9A85"/> <stop offset="0.8333" style="stop-color:#968B78"/> </linearGradient> <path class="st9" d="M400.9,297.2c0,0,38.4-12.3,43.9,4.3c5.5,16.6-9.2,27.6,34.7,32.5c26.6,3,31.1,1.7,47.1,6.4 c17.7,5.3,23.7,11.6,26,14.4c5.7,6.8,3.5,9.4,9.3,17.5c10.5,14.7,23.1,13.7,24.8,23.2c0.9,5-2.2,9.6-8.3,18.8 c-9.7,14.4-15.9,14.7-18,22.5c-3.7,13.6,12.2,23.5,9,30c-4.8,9.6-45.1-1.5-70.7-8.8C391.8,427.7,380,421.2,378,412 c-2.8-12.9-21.9-84.1-5.5-96.4C389,303.4,400.9,297.2,400.9,297.2z"/> <path class="st10" d="M346.2,281.2c4.4-0.7,7.4-0.7,10.3-9.5c2.9-8.7,8.1-14.6,9.6-8.7c1.5,5.8,5.9,10.2,4.4,16.7 c-1.5,6.5,8.1,9.5,8.1,9.5s5.9,2.9,11.8-1.5c5.9-4.4,8.1-0.7,6.6,8c-1.5,8.7,1.5,8.7,0.7,17.5c-0.7,8.7-8.8,14.6-12.5,24 c-3.7,9.5,8.1,22.6,11.8,31.3c3.7,8.7,10.3,18.9-0.7,31.3c-11,12.4-4.4,16.7-14,16c-9.6-0.7-26.5-8-30.9-11.6 c-4.4-3.6-17.7-8-14-12.4c3.7-4.4,2.2-52.4,3.7-56C342.5,332.1,346.2,281.2,346.2,281.2z"/> <path class="st11" d="M301.7,257.1c0,0,2.6-20,3.3-26.6c0.7-6.5,15.1,4,17.3-3.3c2.2-7.3,12.1,1.5,11.4,5.1 c-0.7,3.6-3.7,16-0.7,16.7c2.9,0.7,4.8-5.4,11.8-9.8l5.9,13.8l13.6,9.5c-0.7,4.4-13.2,12-8.8,24.4c4.4,12.4-3.3,1.5-6.3,13.9 c-2.9,12.4-8.8,13.1-2.9,20.4c5.9,7.3-2.2,12.4,5.9,7.3c8.1-5.1,2.2,12.4,1.5,19.6c-0.7,7.3,2.9,5.8,4.4,13.8 c1.5,8-2.9,3.6-5.9,18.9c-2.9,15.3-0.7,19.6-8.1,17.5c-7.4-2.2-10.3-12.4-12.5-15.3c-2.2-2.9-11-4.4-8.1-11.6 c2.9-7.3-9.6-39.7-10.3-50.6C312.3,309.9,301.7,257.1,301.7,257.1z"/> <path class="st10" d="M310.1,257.6c2.9,1.5,2.9-2.9,5.9-9.5c2.9-6.5,2.2-13.8,5.1-19.6c2.9-5.8,3.7,10.9,2.2,17.5 c-1.5,6.5-0.7,5.8,2.2,14.6c2.9,8.7-4.4,13.1,2.2,17.5c3.8,2.5,10.6,3,11,5.7c0.3,2-4.8,5.7-6.6,10.3c-4.4,10.9-8.8,13.8-5.2,20.4 c3.7,6.6,1.5,8.7,5.9,13.8c4.4,5.1,2.9,10.2,5.1,17.5c2.2,7.3,0,14.6-3.7,21.8c-3.7,7.3-7,43.7-10.7,42.2 c-3.7-1.5-8.1-29.8-16.2-32.7c-8.1-2.9-21.3,1.5-22.8-8c-1.5-9.5-17.3-52.4-9.2-59.7l17.3-9.9l0.4-40.3L310.1,257.6z"/> <path class="st12" d="M221.8,181.5c1.5,2.9-5.1,16-0.7,2.9C221.1,183.7,221.8,182.2,221.8,181.5z"/> <linearGradient id="SVGID_6_" gradientUnits="userSpaceOnUse" x1="290.0338" y1="333.0348" x2="290.0338" y2="448.8501"> <stop offset="0.159" style="stop-color:#6C6A48"/> <stop offset="0.6177" style="stop-color:#74934D"/> <stop offset="1" style="stop-color:#A8D26E"/> </linearGradient> <path class="st13" d="M236,333c12.5,7.3,26-2.1,37.5,7.3c8.3,11.4,26,1,33.3,14.5c12.5,12.4,38.5-8.3,44.7,15.5 c6.2,17.6,9.4,35.2,1,51.8c4.2,17.6-11.4,30-28.1,25.9c-22.9-3.1-33.3-29-49.9-44.6c-16.6-7.3-12.5-37.3-32.3-28 C219.3,377.6,215.2,339.3,236,333z"/> <path class="st8" d="M35.8,448.8c-5.4-3.5-12.1-8.8-18.5-16.5C5.7,418.2,1.6,403.4,0,395.3c0,23.5,0,47,0,70.5 c5.3,12.3,10.5,24.7,15.8,37c-2.1,4.6-4.5,10.7-6.8,18c-1.5,4.9-2.5,8.9-2.9,10.7c-3.1,13.2-3.6,23.4-3.7,25.8c-0.1,1.9,0,1.5,0,15 c0,7,0,12.7,0,16.5c11.5,31.5,20,37.4,25.5,37.1c12.1-0.6,10.1-31,34-97.2c3.9-10.8,9.9-26.4,2.9-39.4c-3.6-6.8-8.9-9.2-17.5-21 C41.7,460.7,38.1,453.7,35.8,448.8z"/> <path class="st14" d="M377.9,344.3c2.2-5.3,25.1-44.7,31.7-25c6.6,19.7,10.9,14.4,32.7,0c21.8-14.5,21.8-3.9,20.7,25 c-1.1,28.9-19.7,35.5,2.2,64.4c21.8,28.9,14.2,34.2,7.6,53.9c-6.6,19.7,10.9,32.8-13.1,39.4c-24,6.6-44.8,10.5-57.9,1.3 c-13.1-9.2-39.3,6.6-39.3-17.1c0-23.6-3.3-73.6,6.5-90.6C379,378.5,377.9,344.3,377.9,344.3z"/> <linearGradient id="SVGID_7_" gradientUnits="userSpaceOnUse" x1="436.4366" y1="412.2932" x2="539.9062" y2="412.2932"> <stop offset="0.2564" style="stop-color:#827E6D"/> <stop offset="0.6178" style="stop-color:#918875"/> <stop offset="0.7154" style="stop-color:#968B78"/> <stop offset="0.9366" style="stop-color:#AC9A85"/> <stop offset="1" style="stop-color:#B49F89"/> </linearGradient> <path class="st15" d="M460.6,365.1c7.7-10.6,14.4-49.4,34.5-47.1c20.1,2.4,6.7,14.1,21.1,47.1c14.4,32.9,15.3,30.6,20.1,56.5 c4.8,25.9,5.8,30.6-1.9,49.4c-7.7,18.8,4.8,34.1-18.2,34.1c-23,0-46.9,8.2-53.6-12.9c-6.7-21.2-31.6-65.9-24.9-87.1 C444.3,383.9,460.6,365.1,460.6,365.1z"/> <path class="st10" d="M210.8,197.5c0,0,12.5-11.6,13.3-5.8c0.7,5.8,1.5,10.2,4.4,12.4c2.9,2.2,1.5,8.7,5.9,12.4 c4.4,3.6,6.6,16,6.6,16s-5.9,9.5,0.7,11.6c6.6,2.2,16.9-16,16.9-19.6c0-3.6,0.7-17.5,4.4-17.5c3.7,0,7.4,12.4,4.4,19.6 c-2.9,7.3,0.7,22.6-0.7,28.4c-1.5,5.8-8.8,10.2-0.7,13.8c8.1,3.6,10.3,5.1,14.7,4.4c4.4-0.7-5.9,14.6-9.6,14.6 c-3.7,0-13.2,8-8.8,13.1c4.4,5.1,5.1,13.1,5.9,18.2c0.7,5.1-2.9,8.7-5.9,14.6c-2.9,5.8-14.7,8.7-5.9,13.8 c8.8,5.1,28.3,18.9,11.4,16.7c-16.9-2.2,11.8,32.9-13.2,33.6c-25,0.7-40.9-52.5-38.6-64.9c2.2-12.4-8.8-40-2.9-48 c5.9-8,3.7-27.7,4.4-36.4c0.7-8.7-19.9-39.3-17.7-42.9C201.9,201.9,210.8,197.5,210.8,197.5z"/> <linearGradient id="SVGID_8_" gradientUnits="userSpaceOnUse" x1="478.5439" y1="500.3648" x2="478.5439" y2="310.1323"> <stop offset="0.1667" style="stop-color:#968B78"/> <stop offset="0.5831" style="stop-color:#AC9A85"/> <stop offset="0.7026" style="stop-color:#B49F89"/> </linearGradient> <path class="st16" d="M448.5,311.3c12.5-8.3,20.6,31,29.4,6.2c9.6-14.5,15.5,8.2,25.8,4.1c15.5,8.3,2.2,35.1,16.9,42.3 c9.6,37.2,22.8,79.5,13.2,120.8c-9.6,13.4-20.6,16.5-33.1,15.5c-8.1-10.3-11.8-23.7-23.6-27.9c-9.6-24.8,8.8-46.4,15.5-67.1 c2.9-2.1,11.8-9.3,13.2-10.3c-0.7-16.5-17.7-14.5-15.5-32c-10.3,12.4-20.6,28.9-34.6,20.6c-11.8-3.1-30.2,11.4-32.4-14.5 c5.1-14.4-11-22.7,0.7-34.1C431.6,324.7,440.4,317.5,448.5,311.3z"/> <path class="st17" d="M338.9,409.9c-0.7-8.1-3.7-34.8,4.4-42.9c8.1-8.1,2.9-24.4,11-33.6c8.1-9.3,16.2-22,21.3-12.8 c5.2,9.3,5.2,13.9,16.2,29c11,15.1,11.8,24.4,14.7,39.4c2.9,15.1,11,29,4.4,44.1c-6.6,15.1-13.2,20.9-11,38.3 c2.2,17.4,4.4,26.7-6.6,31.3c-11,4.6-32.4-2.3-44.9-18.6c-12.5-16.2-26.5-42.9-20.6-51C333.7,425,338.9,409.9,338.9,409.9z"/> <path class="st18" d="M456.2,70.4c27.4,11.2,60.7,3.5,85.6,25c-0.8,12.1,6.6,25.9,1.7,37.9c22.4,12.9,1.7,36.2-16.6,27.6 c-23.3,1.7-45.7,2.6-69,2.6c-9.1-2.6-18.3-1.7-28.3-1.7c-12.5-0.9-38.2-7.8-24.9-25.9c-5-4.3-10.8-4.3-17.5-4.3 c-10-6.9-25.8,0-30.8-15.5c2.5-27.6,37.4-11.2,54.9-12.9c13.3,2.6,32.4-8.6,38.2,9.5c15.8,2.6,29.1-4.3,44.1-6.9 c-15-7.8-49.1,1.7-46.6-25.9C448.7,77.3,455.3,71.3,456.2,70.4z"/> <linearGradient id="SVGID_9_" gradientUnits="userSpaceOnUse" x1="0.7548" y1="545.9987" x2="377.0353" y2="545.9987"> <stop offset="0" style="stop-color:#827E6D"/> <stop offset="0.2483" style="stop-color:#918875"/> <stop offset="0.3154" style="stop-color:#968B78"/> <stop offset="0.5007" style="stop-color:#AC9A85"/> <stop offset="0.5538" style="stop-color:#B49F89"/> </linearGradient> <path class="st19" d="M159.9,475.5c0,0,18,21.1,22.7,37c4.7,15.9,11.4,41,23.9,48.9c12.5,8,39.9-19.2,57.9,13.8 c18,33,55.4,34.9,62.4,38.3c28.6,13.9,55.2,47.3,49.3,59.2c-5.9,11.9-46.2,5.3-90.3-2c-30.8-5.1-35.2-8.5-52.5-7.4 c-31.6,2.1-38.7,14.9-59,9.8c-20.1-5.1-19.2-19.2-44.5-27.8c-11.9-4-13-1.2-41.7-4.1c-32.8-3.4-49.4-5.2-60.3-15.4 c-15.3-14.2-16.3-35.5-16.4-39.3c-0.6-21.4,11.5-26.6,17.9-53.7c6-25.3,1.6-46.8,0-54c-8.6-39.5-33.9-54.7-27.7-63.8 c3.6-5.3,13.4-1.8,76.4,11.1c24.6,5,31.5,5.8,41.5,11.4C141,449.4,153.6,465.8,159.9,475.5z"/> <linearGradient id="SVGID_10_" gradientUnits="userSpaceOnUse" x1="107.6492" y1="499.0917" x2="190.6291" y2="499.0917"> <stop offset="0.4231" style="stop-color:#827E6D"/> <stop offset="0.5684" style="stop-color:#918875"/> <stop offset="0.6077" style="stop-color:#968B78"/> <stop offset="0.8687" style="stop-color:#AC9A85"/> <stop offset="0.9436" style="stop-color:#B49F89"/> </linearGradient> <path class="st20" d="M107.7,496.2c-0.7-2.9,5.1-15.3,12.5-13.8c5.1,1,13.2-9.5,23.6-8c6,0.9,7.7,3.7,14.5,3.4 c6.3-0.2,7.6-2.7,10.5-1.5c5.7,2.4,2.2,12.2,9.6,19.9c4.5,4.7,7.8,3.1,10.4,7.6c3.7,6.3,1.3,16.6-3.3,18.4c-4,1.5-6.8-4.2-13.7-3.4 c-4.5,0.5-4.6,3.1-10,4.5c-7.7,2-14.5-1.5-15.5-2c-5.4-2.9-7.4-7.2-9.9-10.6C132.4,505.3,124.5,499,107.7,496.2z"/> <linearGradient id="SVGID_11_" gradientUnits="userSpaceOnUse" x1="231.3513" y1="536.9703" x2="128.5662" y2="596.3133"> <stop offset="0" style="stop-color:#A8D26E"/> <stop offset="6.395771e-02" style="stop-color:#99BD64"/> <stop offset="0.1726" style="stop-color:#88A959"/> <stop offset="0.2923" style="stop-color:#7C9C52"/> <stop offset="0.4303" style="stop-color:#76954E"/> <stop offset="0.6284" style="stop-color:#74934D"/> </linearGradient> <path class="st21" d="M118.8,534.4c0,0,13.2-16.7,18.4-11.7c5.2,5.1,10.3,8,22.8,5.8c12.5-2.2,25.8-1.5,28.7,5.8 c2.9,7.3,0,19.6,9.6,24.7c9.6,5.1,6.6,13.8,16.2,11.6c9.6-2.2,16.9-9.5,28-5.1c11,4.4,11.8,11.6,14.7,19.6c2.9,8-5.2,14.6-13.2,11.7 c-8.1-2.9-19.1,4.4-20.6-3.6c-1.5-8-10.3-0.7-14,0c-3.7,0.7-22.1,0.7-19.9-8c2.2-8.7-30.2-4.4-36.1-1.4 c-5.9,2.9-11.8-11.7-12.5-21.1c-0.7-9.5-19.1-8.7-22.8-9.5c-3.7-0.7-22.8-2.2-16.9-10.2C107,535.1,118.8,534.4,118.8,534.4z"/> <path class="st10" d="M207.8,199c15.5,2.9,21.3,23.3,25,37.1c-8.8,13.8-25.8,25.5-26.5,42.9l-17.7-24.7c5.9-10.9,25.8-21.1,14-33.5 C196,215,198.3,201.2,207.8,199z"/> <g> <path class="st22" d="M71.8,491.2c1.7,0.9,3.6,3.9,4.4,7c0.9,3.4,0.4,6.8-2.9,7.2C73.3,500.7,69.6,495.2,71.8,491.2z"/> <path class="st22" d="M85.4,491.6c5.1,2.5,0,9.5-0.4,13.5c-5.9-1.8,0.7-7.3-1.1-10.9C84.3,493.4,85.1,492.3,85.4,491.6z"/> <path class="st22" d="M99.4,502.1c2.1,0.7,3.5,4.2,3.6,7.7c0.2,3.7-1.1,7.3-4.4,6.9C99.8,511.6,98,506.5,99.4,502.1z"/> <path class="st22" d="M91.3,504.7c4.8,2.9-1.5,9.8-0.7,13.8c-1.1-0.4-2.2-0.4-2.9-0.7C87.6,513,88.8,508.7,91.3,504.7z"/> <path class="st22" d="M70.4,506.5c1.8,1.1,2.9,4.6,2.6,7.7c-0.2,1.9-1,3.7-2.6,4.7C68.5,515.2,67.4,509.8,70.4,506.5z"/> <path class="st22" d="M111.9,509.1c4.4,4.4-1.8,12-1.8,17.5c-0.7,0-1.5,0-2.2,0C106.1,521,109.4,514.1,111.9,509.1z"/> <path class="st22" d="M63.4,516c1.6,1.1,2.3,3.4,2.1,5.8c-0.2,2.6-1.4,5.4-3.5,6.9C59.7,524.7,61.5,519.6,63.4,516z"/> <path class="st22" d="M79.5,516.7c1.7,1.2,2.7,4.4,2.5,7.5c-0.2,2.3-1.2,4.5-3.2,5.6C76.6,525.8,77.3,520.3,79.5,516.7z"/> <path class="st22" d="M70.7,527.2c4,2.5,1.5,10.2,2.9,14.2c-0.7,1.1-1.5,1.8-2.2,2.9C69.6,539.2,68.5,532,70.7,527.2z"/> <path class="st22" d="M92.1,527.6c1.6,0.7,2.9,4,3.1,7.2c0.3,3.5-0.6,6.8-3.5,6.6C91,537.4,89.5,531.6,92.1,527.6z"/> <path class="st22" d="M82.9,534.9c1.3,0.5,2.3,2.5,2.8,4.7c0.6,3,0,6.3-2.8,6.9C81.4,542.9,80.3,538.2,82.9,534.9z"/> </g> <g> <path class="st22" d="M94.3,532.3c1.7,0.9,3.6,3.9,4.4,7c0.9,3.4,0.4,6.8-2.9,7.2C95.8,541.8,92.1,536.3,94.3,532.3z"/> <path class="st22" d="M107.9,532.7c5.1,2.5,0,9.5-0.4,13.5c-5.9-1.8,0.7-7.3-1.1-10.9C106.8,534.5,107.5,533.4,107.9,532.7z"/> <path class="st22" d="M121.9,543.3c2.1,0.7,3.5,4.2,3.6,7.7c0.2,3.7-1.1,7.3-4.4,6.9C122.3,552.7,120.4,547.6,121.9,543.3z"/> <path class="st22" d="M113.8,545.8c4.8,2.9-1.5,9.8-0.7,13.8c-1.1-0.4-2.2-0.4-2.9-0.7C110.1,554.2,111.2,549.8,113.8,545.8z"/> <path class="st22" d="M92.8,547.6c1.8,1.1,2.9,4.6,2.6,7.6c-0.2,1.9-1,3.7-2.6,4.7C91,556.4,89.9,550.9,92.8,547.6z"/> <path class="st22" d="M134.4,550.2c4.4,4.4-1.8,12-1.8,17.5c-0.7,0-1.5,0-2.2,0C128.5,562.2,131.8,555.3,134.4,550.2z"/> <path class="st22" d="M85.8,557.1c1.6,1,2.3,3.4,2.1,5.8c-0.2,2.6-1.4,5.4-3.5,6.9C82.2,565.8,84,560.7,85.8,557.1z"/> <path class="st22" d="M102,557.8c1.7,1.2,2.7,4.4,2.5,7.5c-0.2,2.3-1.2,4.5-3.2,5.6C99.1,566.9,99.8,561.5,102,557.8z"/> <path class="st22" d="M93.2,568.4c4,2.6,1.5,10.2,2.9,14.2c-0.7,1.1-1.5,1.8-2.2,2.9C92.1,580.4,91,573.1,93.2,568.4z"/> <path class="st22" d="M114.5,568.7c1.6,0.7,2.9,4,3.1,7.2c0.3,3.4-0.6,6.8-3.5,6.6C113.4,578.6,112,572.7,114.5,568.7z"/> <path class="st22" d="M105.3,576c1.3,0.5,2.3,2.5,2.7,4.7c0.6,3,0,6.3-2.7,6.9C103.9,584,102.8,579.3,105.3,576z"/> </g> <g> <path class="st23" d="M52.1,536.4c1.5,0.9,3.1,3.9,3.7,7c0.7,3.4,0.4,6.8-2.5,7.2C53.4,545.8,50.2,540.4,52.1,536.4z"/> <path class="st23" d="M63.8,536.7c4.4,2.5,0,9.5-0.3,13.5c-5.1-1.8,0.6-7.3-0.9-10.9C62.9,538.6,63.5,537.5,63.8,536.7z"/> <path class="st23" d="M99.8,520.4c1.8,0.7,3,4.2,3.1,7.7c0.1,3.7-0.9,7.3-3.7,6.9C100.1,529.8,98.5,524.7,99.8,520.4z"/> <path class="st23" d="M68.9,549.8c4.1,2.9-1.3,9.8-0.6,13.8c-0.9-0.4-1.9-0.4-2.5-0.7C65.7,558.2,66.7,553.8,68.9,549.8z"/> <path class="st23" d="M50.9,551.6c1.6,1.1,2.5,4.6,2.2,7.6c-0.2,1.9-0.9,3.7-2.2,4.7C49.3,560.4,48.3,554.9,50.9,551.6z"/> <path class="st23" d="M99.5,581.1c3.8,4.4-1.6,12-1.6,17.5c-0.6,0-1.3,0-1.9,0C94.4,593.1,97.3,586.2,99.5,581.1z"/> <path class="st23" d="M44.8,561.1c1.4,1.1,1.9,3.4,1.8,5.8c-0.2,2.6-1.2,5.4-3,6.9C41.7,569.8,43.3,564.8,44.8,561.1z"/> <path class="st23" d="M58.8,561.8c1.4,1.2,2.4,4.4,2.1,7.5c-0.2,2.3-1,4.5-2.8,5.6C56.2,570.9,56.9,565.5,58.8,561.8z"/> <path class="st23" d="M51.2,572.4c3.5,2.5,1.3,10.2,2.5,14.2c-0.6,1.1-1.3,1.8-1.9,2.9C50.2,584.4,49.3,577.1,51.2,572.4z"/> <path class="st23" d="M69.5,572.8c1.4,0.7,2.5,4,2.7,7.2c0.2,3.5-0.5,6.8-3,6.6C68.6,582.6,67.3,576.8,69.5,572.8z"/> <path class="st23" d="M61.6,580c1.1,0.5,2,2.5,2.4,4.7c0.5,3,0,6.3-2.4,6.9C60.4,588,59.4,583.3,61.6,580z"/> </g> <g> <path class="st23" d="M122.8,555.3c1.5,0.9,3.1,3.9,3.7,7c0.7,3.4,0.4,6.8-2.5,7.2C124.1,564.8,120.9,559.3,122.8,555.3z"/> <path class="st23" d="M134.5,555.7c4.4,2.5,0,9.5-0.3,13.5c-5.1-1.8,0.6-7.3-0.9-10.9C133.6,557.5,134.2,556.4,134.5,555.7z"/> <path class="st23" d="M145.4,576.8c1.8,0.7,3,4.2,3.1,7.7c0.1,3.7-0.9,7.3-3.7,6.9C145.8,586.2,144.2,581.1,145.4,576.8z"/> <path class="st23" d="M132.6,576.4c4.1,2.9-1.3,9.8-0.6,13.8c-0.9-0.4-1.9-0.4-2.5-0.7C129.4,584.8,130.4,580.4,132.6,576.4z"/> <path class="st23" d="M80.3,546.6c1.6,1.1,2.5,4.6,2.2,7.7c-0.2,1.9-0.9,3.7-2.2,4.7C78.7,555.3,77.8,549.8,80.3,546.6z"/> <path class="st23" d="M157.3,573.1c3.8,4.4-1.6,12-1.6,17.5c-0.6,0-1.3,0-1.9,0C152.2,585.1,155.1,578.2,157.3,573.1z"/> <path class="st23" d="M115.5,580.1c1.4,1,1.9,3.4,1.8,5.8c-0.2,2.6-1.2,5.4-3,6.9C112.4,588.8,114,583.7,115.5,580.1z"/> <path class="st23" d="M82,577.9c1.4,1.2,2.4,4.5,2.1,7.5c-0.2,2.3-1,4.5-2.8,5.6C79.5,587,80.1,581.5,82,577.9z"/> <path class="st23" d="M123,584.1c3.5,2.5,1.3,10.2,2.5,14.2c-0.6,1.1-1.3,1.8-1.9,2.9C122,596.1,121.1,588.8,123,584.1z"/> <path class="st23" d="M156.8,600.8c1.4,0.7,2.5,4,2.7,7.2c0.2,3.4-0.5,6.8-3,6.6C155.8,610.6,154.6,604.8,156.8,600.8z"/> <path class="st23" d="M141.1,594.2c1.1,0.5,2,2.5,2.4,4.7c0.5,3,0,6.3-2.4,6.9C139.9,602.2,138.9,597.5,141.1,594.2z"/> </g> <g> <path class="st22" d="M169.9,559.3c1.5,0.9,3.1,3.9,3.7,7c0.7,3.4,0.3,6.8-2.5,7.2C171.2,568.8,168,563.3,169.9,559.3z"/> <path class="st22" d="M181.6,559.7c4.4,2.5,0,9.5-0.3,13.5c-5.1-1.8,0.6-7.3-0.9-10.9C180.7,561.5,181.3,560.4,181.6,559.7z"/> <path class="st22" d="M193.7,570.2c1.8,0.7,3,4.2,3.1,7.7c0.1,3.7-0.9,7.3-3.7,6.9C194,579.7,192.4,574.6,193.7,570.2z"/> <path class="st22" d="M186.7,572.8c4.1,2.9-1.3,9.8-0.6,13.8c-1-0.4-1.9-0.4-2.5-0.7C183.5,581.2,184.5,576.8,186.7,572.8z"/> <path class="st22" d="M168.7,574.6c1.6,1.1,2.5,4.6,2.2,7.7c-0.2,1.9-0.9,3.7-2.2,4.7C167.1,583.3,166.1,577.9,168.7,574.6z"/> <path class="st22" d="M204.4,577.2c3.8,4.4-1.6,12-1.6,17.5c-0.6,0-1.3,0-1.9,0C199.4,589.2,202.2,582.2,204.4,577.2z"/> <path class="st22" d="M162.7,584.1c1.4,1,1.9,3.4,1.8,5.8c-0.2,2.6-1.2,5.4-3,6.9C159.5,592.8,161.1,587.7,162.7,584.1z"/> <path class="st22" d="M176.6,584.8c1.4,1.2,2.4,4.5,2.1,7.5c-0.2,2.3-1,4.5-2.8,5.6C174.1,593.9,174.7,588.4,176.6,584.8z"/> <path class="st22" d="M169,595.4c3.5,2.5,1.3,10.2,2.5,14.2c-0.6,1.1-1.3,1.8-1.9,2.9C168,607.3,167.1,600.1,169,595.4z"/> <path class="st22" d="M187.4,595.7c1.4,0.7,2.5,4,2.7,7.2c0.2,3.4-0.5,6.8-3,6.6C186.4,605.5,185.1,599.7,187.4,595.7z"/> <path class="st22" d="M179.4,603c1.1,0.5,2,2.5,2.4,4.7c0.5,3,0,6.3-2.4,6.9C178.2,611,177.2,606.3,179.4,603z"/> </g> <g> <path class="st23" d="M242.7,604.1c1.6,0.8,3.3,3.5,4,6.2c0.8,3,0.4,6-2.6,6.4C244,612.5,240.6,607.6,242.7,604.1z"/> <path class="st23" d="M222.6,612.4c4.7,2.3,0,8.4-0.3,12c-5.4-1.6,0.7-6.5-1-9.7C221.6,614,222.3,613.1,222.6,612.4z"/> <path class="st23" d="M257.8,592.8c1.9,0.6,3.2,3.8,3.3,6.8c0.1,3.3-1,6.5-4,6.1C258.1,601.2,256.4,596.7,257.8,592.8z"/> <path class="st23" d="M250.4,595c4.4,2.6-1.4,8.7-0.7,12.3c-1-0.3-2-0.3-2.7-0.6C247,602.5,248,598.6,250.4,595z"/> <path class="st23" d="M231.1,596.7c1.7,1,2.7,4.1,2.4,6.8c-0.2,1.7-0.9,3.3-2.4,4.2C229.4,604.4,228.4,599.6,231.1,596.7z"/> <path class="st23" d="M266.3,614c4.1,3.9-1.7,10.7-1.7,15.6c-0.7,0-1.4,0-2,0C260.9,624.7,264,618.5,266.3,614z"/> <path class="st23" d="M209.6,621.9c1.5,0.9,2.1,3,1.9,5.2c-0.2,2.3-1.3,4.8-3.2,6.1C206.2,629.7,207.9,625.1,209.6,621.9z"/> <path class="st23" d="M207.7,595.9c1.5,1.1,2.5,4,2.3,6.7c-0.2,2.1-1.1,4-3,5C205,604,205.7,599.2,207.7,595.9z"/> <path class="st23" d="M231.5,615.1c3.7,2.3,1.4,9.1,2.7,12.6c-0.7,1-1.4,1.6-2,2.6C230.5,625.8,229.4,619.3,231.5,615.1z"/> <path class="st23" d="M251,615.5c1.5,0.6,2.6,3.6,2.8,6.5c0.3,3.1-0.6,6-3.2,5.9C250,624.2,248.7,619,251,615.5z"/> <path class="st23" d="M242.6,621.9c1.2,0.4,2.1,2.2,2.5,4.2c0.5,2.6,0,5.6-2.5,6.2C241.2,629.1,240.2,624.9,242.6,621.9z"/> <path class="st23" d="M360.2,639.6c5.5,4.6-2.3,12.8-2.3,18.6c-0.9,0-1.8,0-2.8,0C352.8,652.4,356.9,645.1,360.2,639.6z"/> <path class="st23" d="M314.5,619.1c1.4,0.7,2.8,3.3,3.4,5.9c0.7,2.8,0.3,5.7-2.2,6C315.7,627,312.8,622.5,314.5,619.1z"/> <path class="st23" d="M290.2,596c1.4,0.7,2.8,3.3,3.4,5.9c0.7,2.8,0.3,5.7-2.2,6C291.3,603.9,288.5,599.4,290.2,596z"/> </g> <g> <path class="st22" d="M286,607.7c2.4,0.8,4.9,3.8,6,6.7c1.2,3.2,0.6,6.5-4,6.8C288,616.7,282.9,611.5,286,607.7z"/> <path class="st22" d="M304.8,608.1c7.1,2.4,0,9-0.5,12.8c-8.1-1.7,1-6.9-1.5-10.4C303.2,609.8,304.3,608.7,304.8,608.1z"/> <path class="st22" d="M324.1,618.1c2.9,0.7,4.8,4,5,7.3c0.2,3.5-1.5,6.9-6,6.6C324.6,627.1,322.1,622.3,324.1,618.1z"/> <path class="st22" d="M312.9,620.5c6.6,2.8-2,9.4-1,13.2c-1.5-0.3-3.1-0.3-4.1-0.7C307.8,628.5,309.4,624.3,312.9,620.5z"/> <path class="st22" d="M283.9,622.3c2.5,1.1,4,4.3,3.6,7.3c-0.3,1.8-1.4,3.6-3.6,4.5C281.4,630.6,279.8,625.4,283.9,622.3z"/> <path class="st22" d="M341.4,624.7c6.1,4.1-2.5,11.4-2.5,16.6c-1,0-2,0-3.1,0C333.3,636.1,337.8,629.5,341.4,624.7z"/> <path class="st22" d="M274.2,631.3c2.2,1,3.1,3.2,2.8,5.6c-0.3,2.5-2,5.1-4.9,6.6C269.2,639.6,271.7,634.7,274.2,631.3z"/> <path class="st22" d="M296.6,631.9c2.3,1.2,3.8,4.2,3.5,7.1c-0.3,2.2-1.6,4.3-4.5,5.4C292.6,640.6,293.6,635.4,296.6,631.9z"/> <path class="st22" d="M284.4,642c5.6,2.4,2,9.7,4.1,13.5c-1,1-2,1.7-3.1,2.8C282.9,653.4,281.4,646.5,284.4,642z"/> <path class="st22" d="M313.9,642.3c2.2,0.7,4,3.8,4.3,6.9c0.4,3.3-0.8,6.4-4.8,6.3C312.4,651.7,310.4,646.1,313.9,642.3z"/> <path class="st22" d="M301.2,649.2c1.7,0.5,3.2,2.4,3.8,4.5c0.8,2.8,0,6-3.8,6.6C299.2,656.9,297.6,652.4,301.2,649.2z"/> </g> <g> <path class="st22" d="M124,487.4c2,0.5,4.1,2.4,5,4.3c1,2.1,0.5,4.2-3.3,4.4C125.7,493.2,121.5,489.9,124,487.4z"/> <path class="st22" d="M139.6,487.6c5.9,1.6,0,5.8-0.4,8.2c-6.7-1.1,0.8-4.5-1.3-6.7C138.4,488.7,139.2,488.1,139.6,487.6z"/> <path class="st22" d="M155.7,494.1c2.4,0.4,4,2.6,4.2,4.7c0.2,2.3-1.3,4.5-5,4.2C156.1,499.9,154,496.8,155.7,494.1z"/> <path class="st22" d="M146.4,495.6c5.5,1.8-1.7,6-0.8,8.5c-1.3-0.2-2.5-0.2-3.4-0.4C142.2,500.8,143.4,498.1,146.4,495.6z"/> <path class="st22" d="M122.4,496.8c2.1,0.7,3.3,2.8,3,4.7c-0.3,1.2-1.2,2.3-3,2.9C120.2,502.1,119,498.8,122.4,496.8z"/> <path class="st22" d="M170,498.3c5.1,2.7-2.1,7.4-2.1,10.7c-0.8,0-1.7,0-2.5,0C163.3,505.7,167.1,501.4,170,498.3z"/> <path class="st22" d="M114.3,502.5c1.8,0.7,2.6,2.1,2.4,3.6c-0.2,1.6-1.6,3.3-4,4.2C110.1,507.9,112.2,504.8,114.3,502.5z"/> <path class="st22" d="M132.9,503c1.9,0.7,3.1,2.7,2.9,4.6c-0.2,1.4-1.3,2.8-3.7,3.5C129.5,508.6,130.4,505.2,132.9,503z"/> <path class="st22" d="M122.8,509.4c4.6,1.6,1.7,6.2,3.4,8.7c-0.8,0.7-1.7,1.1-2.5,1.8C121.5,516.8,120.2,512.3,122.8,509.4z"/> <path class="st22" d="M147.2,509.7c1.8,0.4,3.3,2.5,3.6,4.4c0.3,2.1-0.7,4.1-4,4C146,515.7,144.3,512.1,147.2,509.7z"/> <path class="st22" d="M136.7,514.1c1.5,0.3,2.7,1.5,3.2,2.9c0.6,1.8,0,3.9-3.2,4.2C135,519,133.7,516.1,136.7,514.1z"/> </g> <path class="st24" d="M225.1,177.4c0,0,14.7-10.2,17.7-5.8c2.9,4.4,11.8,18.9,11.8,18.9s14,7.3,16.9,5.1 c2.9-2.2,18.4-13.1,18.4-13.1s8.1,14.6,11.8,16c3.7,1.5,9.6,22.6,9.6,22.6l-4.4,21.1l-13.2-13.1l6.3-12.3l-9.9,7.9l-4.4-8.7l2-12.9 l-9.4,14.4l11,16.7l-8.1,15.3l-16.2-3.6l-1.5-16l-11.8,21.1h-18.4l5.9-24l-17.7-14.6l2.2-19.6l-26.5-1.5l1.5-17.5l25-8.7 L225.1,177.4z"/> <polygon class="st24" points="227.3,264.8 214.8,280 205.3,295.3 215.6,312.8 211.1,331 203.8,346.3 218.5,355.7 225.1,373.2 234.7,347.7 251.6,335.3 240.6,321.5 243.5,301.9 229.5,288 237.6,274.2 258.3,265.5 234.7,255.3 225.1,245.1 220.7,258.2 "/> <linearGradient id="SVGID_12_" gradientUnits="userSpaceOnUse" x1="-2.854" y1="388.6122" x2="207.8978" y2="266.9346"> <stop offset="2.564103e-02" style="stop-color:#6B7161"/> <stop offset="0.2222" style="stop-color:#7E7C6B"/> <stop offset="0.5586" style="stop-color:#9A8E7B"/> <stop offset="0.8299" style="stop-color:#AC9A85"/> <stop offset="1" style="stop-color:#B49F89"/> </linearGradient> <path class="st25" d="M28.7,279c-0.7-5.8-1-14.5,1.7-24.5c2.3-8.6,4.8-10.2,12.8-26.1c7.6-15,7-16.8,14.5-31.2 c4-7.6,7-12.6,12.3-21.2c18.8-30.8,23.5-32.7,26.9-33c8.7-0.9,17.1,7.2,18.7,8.8c7,7.1,6,13.8,11.7,15.9c6.7,2.5,11-5.4,17.6-3.7 c8.8,2.1,12.3,18.5,16.1,37.3c4.9,24.3,1.5,26.2,6.4,34.7c9.2,15.8,22.8,12.2,29.3,26.8c4.6,10.4-1.7,13.6,0.7,33.2 c2.5,20.1,9.6,20.5,10,35.5c0.5,19.7-11.8,22-11.5,41c0.2,10.9,4.3,10.9,13.5,39c8.8,26.8,6.9,32.4,6,34.5 c-6.3,15.1-28.7,18.3-33.1,19c-5.6,0.8-21.4,2.2-44.8-10.1c-29.9-15.8-32.4-33.2-52.7-47c-14.2-9.7-38.7-18.7-82.4-10 c-0.4-28.9-0.7-57.9-1.1-86.8C10.5,300.3,19.6,289.6,28.7,279z"/> <linearGradient id="SVGID_13_" gradientUnits="userSpaceOnUse" x1="38.3504" y1="449.7134" x2="96.7575" y2="391.3064"> <stop offset="6.923077e-02" style="stop-color:#827E6D"/> <stop offset="0.368" style="stop-color:#918875"/> <stop offset="0.4487" style="stop-color:#968B78"/> <stop offset="0.8333" style="stop-color:#AC9A85"/> <stop offset="0.9436" style="stop-color:#B49F89"/> </linearGradient> <path class="st26" d="M50.2,461.6c0,0,22.8,10.2,22.1,16.7c-0.9,8.2,10.9,8.5,15.5,7.3c0.8-0.2,2.4-0.8,7.7-7.4 c6.7-8.5,10.5-13.1,8.9-16.3c-1.1-2.3-3.6-1-7.5-4c-5.4-4.1-4.6-9.5-8.5-10.5c-2.9-0.8-4.1,2-7.5,2c-7.1,0-15.2-11.8-12.5-16.5 c2.2-3.8,11.6-3.1,17-1.5c2.8,0.8,3.4,1.6,8,3c6.9,2.1,7.6,1.1,9.8,2.5c6.2,3.8,3.6,12.7,8.2,14.5c3.5,1.3,9.4-2.1,10.8-6.5 c1.6-4.9-3.7-7.4-6.9-17.4c-3.8-12.1-0.9-15.9-4.8-22c-2.7-4.2-6.3-5.9-19.5-10.5c-21.9-7.7-32.9-11.6-40.5-12 c-7.8-0.4-18.3-0.9-30,4.5c-6.8,3.2-18.7,8.7-19.1,16.6c-0.6,12.2,26.9,15.2,42.2,41.5C47.4,452.1,49.3,458,50.2,461.6z"/> <g> <path class="st27" d="M514.4,560.4c3,0.6,5.9,1.2,8.9,1.8c0.2-0.3,1.2-1.8,3.2-2.1c2.2-0.3,4.8,1,5.8,3.3c4.9,0.3,9.9,0.6,14.8,1 c0.7-4.1-0.4-6.1-1.2-7c-1.2-1.5-2.7-1.7-7.4-3.5c-2.4-0.9-4.4-1.8-5.6-2.4c0.1-0.7,0.4-3.2-1-4.3c-1-0.9-2.7-0.8-4.7-0.8 c-0.7,0-1.1,0.1-2,0c-1.4-0.1-1.9-0.3-3.4,0c-0.8,0.1-4.8,0.8-6.7,3.5c-1,1.4-1,2.7-1.1,5.2C513.9,557.3,514.2,559.1,514.4,560.4z"/> <path class="st27" d="M454.6,531.5c2,2.8,4.1,5.7,6.1,8.5c0.3-0.1,2.3-0.5,4.3,0.8c2.1,1.5,3.3,4.6,2.5,7.3 c3.9,4.2,7.8,8.3,11.7,12.5c0.4-0.6,4.4-6.4,1.4-14.1c-1.7-4.4-4.7-7.2-6-8.3c4.4-2.1,5.2-3.3,5-4.1c-0.4-1.6-5.2-0.5-9.3-4 c-3.1-2.6-2.7-5.2-5.2-6c-2.7-0.9-5.5,1.4-6.9,2.6C456.2,528.4,455.2,530.3,454.6,531.5z"/> <path class="st28" d="M514.1,428.6c5.7,0.2,14.6,0.7,14.8,8.5c1.6,10.1,1.9,20.5,2,30.9c0.3,18.4,0.1,19.4,1.2,31.5 c1.1,13,2.3,16.9,2.2,26.8c-0.1,9-1.3,16.2-2.2,20.9c-1.5-0.7-4.6-2-8.5-1.6c-6.5,0.6-10.3,5.1-11.2,6.1c-1.1-6.4-2.3-16-2-27.9 c0.2-9.2,1.1-13.1,1.2-21.1c0.1-7.5-0.5-18.2-3.8-31.3c0.9-9.2,5-19.5,1.6-28.5C508.2,437.5,508.7,431.3,514.1,428.6z"/> <path class="st29" d="M534,400.6c1-0.7,3.2,10.6,3.3,13.3c0.1,2.7-1.3,26.4-0.9,28.2c0.4,1.9,3.2,13.4,0.7,14.8 c-2.6,1.5-6.4-2-7.1-3.1c-0.7-1.1,0.2-6.4,0.2-6.4l-1.7,1.6c0,0-1.2-2-0.7-3.6c0.5-1.6,2.3-5.8,2.3-5.8s-3.8-21.3-4.5-27 c-0.7-5.7,0.3-6.5,0.3-6.5S531.6,402.3,534,400.6z"/> <path class="st30" d="M505.1,364.5c9.1,0.5,6.8,11.9,9.1,17.7c4.8,14.5-0.5,32.1,10.7,44.5c3,4.1-2.3,7.8-6.4,6 c-4.5,0.9-12.3,1.6-11.6-5.3c3.2-20.2,1.1-41.1-4.5-59.6C502.9,366.8,504.7,364.7,505.1,364.5z"/> <path class="st31" d="M528.6,433c0,0,6.3,50.4,2.3,63.5c-0.7,2.4-3.4,7.7-4.5,7.4c-0.8-0.2-0.9-3.3-0.3-5.9c0.5-2,1.3-3.3,1.5-3.6 c2.8-4.6,1.9-16.5,1.8-18.4c-0.5-6.5-2.4-40-4.5-41.3C525,434.8,524.7,434.6,528.6,433z"/> <path class="st31" d="M530.2,499.4c5,35.4,3.6,45.6,0.6,46.5c-1.1,0.3-2.1-0.7-5.1-1c-4.9-0.5-9.2,1.6-12.4,3.7 c-0.7-2.9-1.6-7.3-2-12.7c-0.9-12.9,2.4-16.2,2.2-29.5c0-1.7-0.1-0.4-2.2-20.8c-1.5-14-1.5-15.1-1.4-16.7 c0.4-5.6,2.6-14.3,11.6-24.4c-3.2,0.2-7.4,1-9.5,4.1c-1.4,2.1-1.3,4.5-1.2,5.6c0.1,4.2-0.6,10.7-4.5,20.4 c2.5,18.9,3.7,28.4,3.7,28.4c0,0,0,0,0,0c-1.6,7.4-2.9,17.9-1.6,30.3c0.8,7.1,2.3,13.2,3.9,18.2c6.3-3.5,10.8-3.8,13.7-3.3 c0,0,7,1.4,7,1.4c1.1-5.1,1.9-10.9,2.2-17.3c0.7-14.6-1.7-27-4.3-35.8C530.7,497.5,530.5,498.5,530.2,499.4z"/> <path class="st27" d="M510.4,435.1c6.1,0.4,13.4,0.4,14.2-2c0.4-1.2-0.8-2.6-1.9-3.4c0,0-12.6,0.5-12.6,0.5l0,0 C510.2,431.9,510.3,433.5,510.4,435.1z"/> <path class="st32" d="M490.2,434.1c8,0.2,15,3.4,21.2,9.4c3.9,10.1-5.2,18.6-6.4,28.2c-1.6,7.8-5.8,33.6-14.8,41.9 c-3.5,7.7-7.1,15.4-10.6,23.2c-5.1-5-10.2-10-15.4-15c2.1-18.3,5.5-25.3,8.4-28.2c0.7-0.7,3.5-3.3,5.1-7.7c1-2.9,1-5.2,1.1-6.4 c0.1-5.6,0.6-13.8,1.2-24.5c1.1-6.4-1.4-13.5,3-18.8C485.4,435.5,487.8,434.8,490.2,434.1z"/> <path class="st33" d="M485.1,426c0,0-6.6,6.8-6.1,15.4c0.5,8.6,1,33.4,0.4,36.8c-0.1,0.7-0.1,1.2-0.1,1.5c0,0.5,0,0.9,0.1,1 c0.3,2.9-5,6.2-5,6.2c-2.8,1.8-7,9.8-13.3,35.2c6.2,6.3,12.5,12.5,18.7,18.8c8.3-23.3,13.4-32.4,16.6-36.2c0.7-0.8,3.3-3.7,5.3-8.4 c1.8-4.1,2.2-7.4,2.5-9.3c2.3-14.4,8.7-16.2,9.2-28.8c0.5-11.9-1.5-14.2-2.6-12.7c-1.1,1.6-1.4,10.6-1.9,12.9 c-0.5,2.3-8.3,24-8.8,26.1c-0.5,2.1,0.8,7.3-1.1,9.4l-3.1,6.9c-0.1,0.1-0.2,0.3-0.4,0.5c-5.4,7.1-7.3,13.7-8.9,18 c-1.4,3.9-3.8,9.3-7.7,15.5c-4.9-4.3-9.8-8.7-14.7-13c4.3-25.7,10.7-33.8,16.1-36c1.5-0.6,9-3.2,8.8-3.9c0-0.1-0.6,0.3-0.9-0.1 c-1-1.4-6.5,0.6-6.5,0.6c-0.1-15.8,0.6-32.3,2.5-49.6C484.6,430.5,484.8,428.3,485.1,426z"/> <path class="st34" d="M472.5,366.2c-1.4,0.5-7.7,2.3-10.2,5.3c-2.5,3-20.9,41.3-14.1,51.6c6.8,10.3,24.3,20,28.2,18.1 c3.9-1.8,12.5-58.7,8.4-64.2C480.7,371.5,472.5,366.2,472.5,366.2z"/> <path class="st35" d="M529.1,358.8c-7.2-4.1-45.7-11.9-62.3-1.8c0,0-7.8,7.3-1.9,12.2c5.9,4.8,63.9,3.4,63.9,3.4 S537.1,363.4,529.1,358.8z"/> <path class="st36" d="M479.6,367.7c0,0,5.3-8.7-1.3-11.3c-6.7-2.5-11.8-3.2-15.5,2.3c-3.7,5.5-0.8,11.5,3.5,11.7 c4.3,0.2,14.2-7.1,10.7-10.3c-3.5-3.2-7.8-2.7-9.9,0.2c-2.1,3,0,6,1.1,5c1.1-0.9-0.3-3.4,1.3-4.1c1.6-0.7,4-0.2,3.7,1.4 c-0.3,1.6-4,6.9-7,5.5c-2.9-1.4-1.6-9.8,1.1-10.4c2.7-0.7,8-1.5,10.2,0.3c2.1,1.8,3.2,6.2,1.3,7.6c-1.9,1.4-3.2,3.7-1.3,3.7 C479.3,369.3,479.6,367.7,479.6,367.7z"/> <path class="st37" d="M506.2,378.8c6.1,19.2,3.1,40.1,4.5,60.6c-2.2,15-18,1-29.1,3.9c-4.7-0.3-4.9,1.3-8.9-2.5 c1.1-4.5-0.7-2.9,1.8-8.3c3.2-7,0-12.1,1.9-21.9c-0.1-2.6-2.4-3.3-3.1-2.6c-5.4,2.2-8.2,2.5-11.4-6.1c0.4-12.8,1.3-27.5,8.5-33.7 c1.1,0.6,9.4-5.1,9.8-4.8c8.6-2.4,9.3-3.7,15.8-4.2c7.2,1.3,6.8,0.1,6.6,6.4C502.5,367.9,506.2,378.8,506.2,378.8z"/> <path class="st37" d="M506.6,360.5c2-5.4,7.5,5,13,3.9c11.6,6.2,15.8,12.2,13.9,21.8c-0.3,11.6-0.2,21-1.8,32.6 c1.8,8,4.1,17.2,4.3,19.3c-9.4,4.2-7.1,1.1-11-6.2c-7.5-9-7-28.5-9.3-38.9c-0.3-6.5-3-17.3-6.7-23.1 C508.6,369.1,506.6,360.5,506.6,360.5z"/> <path class="st38" d="M521.1,341.5c0.8-0.1,4.6-1.5,3.3-2.8c-1.3-1.3-2.8-2-2.8-3.8c0-1.8-2.5-4.4-3.6-5c-1.1-0.6-6.6-0.6-9-1.4 c-2.4-0.8-7.7-1.8-7.3-0.5c0.4,1.3,0.3,3.9-2.2,3.5c-2.5-0.5-6.4,1.5-5.4,2.6c1,1.1,2.1,3.4,0.5,4.1c-1.5,0.7-3.9,3.1-3.2,3.8 c0.7,0.7,3.3,1.1,3.3,3.1c0,2,1,6.6,1,6.6l6.6-1.8L521.1,341.5z"/> <path class="st39" d="M521.1,340.7c0,0-0.6,5.2-2.1,6.4c-1.5,1.2-1.1,6.3-1.9,6.8c-0.8,0.5-2.2,0.4-2.2,0.4s-1.4,4.9-2.2,4.9 c-0.8,0-5.9,0.4-7.7-0.5c-1.8-0.9-5.6-6.6-5.2-7.9c0.4-1.3-1.9-3.4-0.9-4.8c1-1.4,1.2-0.6,1.7,0.5c0.6,1.1,1.4,2.7,1.4,2.7 s1.9,1.3,2.8-0.1c0.8-1.5,6.4-7.1,6.4-8.6c0-1.5,4.3-1.4,5.9-1.1C518.8,339.8,521.1,340.7,521.1,340.7z"/> <path class="st39" d="M497.9,349.8c0,0-1.1,6.5-1.7,7.7c-0.6,1.2-0.4,9,3.5,9.7c3.9,0.7,4.7,0.6,5.5,0.1c0.8-0.5,3.4-9,3.4-9 l-9.9-8.9L497.9,349.8z"/> <path class="st40" d="M518.7,347.3l-7.2-1.6c0,0,1.6-3.1,0.9-4.1l-1-1.2c0,0,0.1,0.6-3.7,4.7c0,0-2.4,2.6-3.2,3.7 c0,0-1.4,0.8-2.1,0c-0.7-0.8-1-4.8-2.9-4.1c-1.9,0.7-2.5,0.2-1.6,3.2c0,0,1.6,1.7,1.5,2.5c-0.1,0.8-0.3,1.8,0.8,3.5 c1.1,1.7,4,4.9,5.3,5.1c1.2,0.2,6.8,0.2,6.8,0.2s-2.5-0.7-2.8-1.6c-0.6-1.4-1.2-3.4-0.5-3.6c2.5-0.7,2.4-2.3,1.7-3.3 c-0.7-0.9-0.2-2.5,0.6-2.3c0.8,0.2,1.2,1.2,2.6,0.9c1.4-0.2,2.1-0.3,2.1-0.3l0.3,2.5l-1.2,2.8l2.8-0.4L518.7,347.3z"/> <path class="st27" d="M521.2,339.4c0,0,1.7-1.5,0-2.5c-1.7-1-1.2-5.1-2.1-5.8c-0.9-0.7-2.9-0.5-4.2-1.5c-1.4-1-2.4-0.8-4.4-1.3 c-2-0.6-2.3-1.5-3.7-1.4c-1.3,0.1-3.1-1.5-3.6-0.6c-0.5,0.8,0,2.7,1,2.7s3.1-0.7,3.8,0.2c0.6,0.9,1.3,2,2.8,2 c1.6,0,3.1-0.2,4.2,0.6c1.1,0.8,3.1,0.3,2.8,1.3c-0.3,1-1.7,1.9-0.4,2.9c1.3,1,2,1.3,1.5,1.9c-0.4,0.7-0.3,2,0.6,2.2 C520.4,340,521.2,339.4,521.2,339.4z"/> <path class="st27" d="M516.2,338.2c0,0,1.4-1.4,0-1.8c-1.4-0.4-1.5-1-2-1.7c-0.5-0.7-2.7-0.1-4-0.3c-1.3-0.2-3.2-1-4.7-1.5 c-1.5-0.6-2.5-1.4-3.8-1.4c-1.4,0-3,0.7-1.6,1.2c1.4,0.5,3.8,0.8,3.4,1.4c-0.4,0.6,2.1,1.3,3.1,1.4c0.9,0.1,4.6,0.2,4.9,0.8 c0.3,0.6,3.2,0.5,2.7,1c-0.5,0.5-2.4,0.7-1.4,1C513.6,338.7,515.8,338.5,516.2,338.2z"/> <path class="st27" d="M510.1,338.3c0,0,0.2-2.5-2-1.8c-2.3,0.7-3.9,0.9-5.2-0.4c-1.3-1.3-2.1-1.5-3.7-1.6c-1.6-0.1-2-2-3.3-1.6 c-1.2,0.4-2,1.8-0.5,2.4c1.5,0.6,4.3,0.2,4.2,1.2c-0.1,1,1.2,1.4,2.6,1.6c1.4,0.1,3.4,0.6,4.1,0.8c0.7,0.1,1.8-0.5,2,0.4 C508.7,340.2,510.1,338.3,510.1,338.3z"/> <path class="st27" d="M509,340.7c0,0-2.4-1.5-3.8-0.6c-1.5,0.9-2,0.8-3.1,0.3c-1.1-0.5-2.5-0.3-2.9,0c-0.4,0.4,0.6,1.2,1.9,1.5 c1.4,0.3,2.2,0.8,3.1,0.4c0.9-0.4,1.8-0.6,2.4,0c0.7,0.6,1.2,1.1,1.9,0.3C509.2,341.8,509,340.7,509,340.7z"/> <path class="st27" d="M505.2,344.8c0,0-1,0.4-1.2,1.1c-0.1,0.6,0,2.2-0.7,2c-0.7-0.1-1-1.4-1.5-2.5c-0.6-1.1,0.3-1.4,1.1-1.7 c0.9-0.3,1.7,0.1,2-0.6c0.3-0.7,1.3-0.4,1.4,0.3C506.4,344.1,505.2,344.8,505.2,344.8z"/> <path class="st27" d="M495.4,338.4c0,0-2.6,0.6-1.8,1.4c0.8,0.8,2.2,1.2,2.1,2.1c-0.1,0.8,0,2-0.1,2.8c-0.1,0.8-0.2,2.6,0.5,3.2 c0.7,0.6,1.1,0.6,1.1,0.6s-1.1-2.1-0.6-3.5c0.5-1.4,1.4-2.5,1-3.5c-0.4-1-0.9-0.7-0.7-2.1c0.2-1.4-0.3-3.4-0.8-3.4 C495.6,336.2,495.4,338.4,495.4,338.4z"/> <path class="st41" d="M507.6,359.7c-0.6,6.6-2.6,4.2,0,10.1c2.6,5.9,6.4,22,6,27.1c-0.3,5.1,10,41.4,16.4,43.4 c6.3,2,4.2,0.1,2.3-1.6c-2-1.7-16.6-31.4-15.6-45c1-13.5-8.7-26.2-8.1-27.6c0.7-1.4,1.5-6.3,1.5-6.3L507.6,359.7z"/> <path class="st41" d="M475.9,409.2c0,0-0.9,9.3-0.7,13.9c0.2,4.5-4.8,15.2-3.2,18.6c1.5,3.4,14.5,3.4,17.5,3.9 c3,0.5,18.8,3.9,19.9-0.9c1.1-4.8,0.9-48.4-0.7-51.9c-1.5-3.4-4.3-23.9-6.7-24.6c-2.4-0.7-4.8-3-5.2-6.4c-0.4-3.4-3-1.8-3.5-0.5 c-0.4,1.4,1.5,5.9,3.9,7.3c2.4,1.4,3.9,1.4,4.1,3.9c0.2,2.5,5.2,20.5,5.4,23.6c0.2,3.2,3,45-0.7,47.1c-3.7,2-16.6-1.4-19-0.9 c-2.4,0.5-13.2-0.7-13-2.3c0.2-1.6,4.1-14.1,3.7-16.4c-0.4-2.3,0.2-14.6,0.4-16.4C478.5,405.6,475.9,409.2,475.9,409.2z"/> <path class="st41" d="M496.2,358.1c0,0-3.6-2.3-13,1.6c-9.4,3.9-13.6,7.4-15.6,9.1c-2,1.6-5.2,16.5-5.9,21.4 c-0.7,4.9-0.8,12.7-0.3,13.5c0.4,0.8,10.4-6.1,11.9-5.1c0.1,0,0.3,0.2,0.6,0.2c0.7-0.1,1.4-1.4,1.2-1.9c-1.9-3.9-15.4,4.4-11.6,3.1 l0,0c0,0,2.3-22.4,3.9-25.7c1.6-3.2,4.8-6.1,5.8-6.9c1-0.8,9.5-5.4,11.2-6c5.1-1.5,9.1,1.3,11-1.4 C495.9,359.4,496.1,358.6,496.2,358.1z"/> <path class="st41" d="M477.1,377.1c0,0,4.1,12.1,3.4,15.3c-0.7,3.2,1.2,0.5,1.6-0.9c0.5-1.4-1.8-15.1-3.2-15.9 C477.6,374.8,477.1,377.1,477.1,377.1z"/> <path class="st41" d="M511.8,361.1c0,0,3.4,1.2,6.8,2.7c3.4,1.6,13.4,5.1,15,10.1c1.6,5,1.8,23.4,0.9,25.5 c-0.9,2.1-2.3,20.7-1.6,22c0.7,1.4,5.2,15.8,3.6,17.4c-1.6,1.6-4.5,2.5-5,1.6c-0.5-0.9,2.5-2.1,2.5-4.1c0-2.1-3.2-14.2-3.2-16.8 c0-2.5-0.7-21.6,0-24.5c0.7-3-2.5-11.5-1.6-14.5c0.9-3,2.7,15.4,3.6,15.1c0.9-0.2-0.2-21.3-1.8-22.2c-1.6-0.9-12.5-7.1-13.9-8.3 c-1.4-1.1-6.1-0.5-6.6-2.3C510.3,361.1,511.8,361.1,511.8,361.1z"/> <path class="st35" d="M483.2,358.6c0,0,12.1,6.9,14.1,8.5c2,1.7,7.1,25.7,0.9,38.7c-6.1,13-25,25.3-25.9,26c-0.9,0.7,2-12.7,3.2-13 c1.1-0.2,16.6-10.9,17.3-13.9c0.7-3.1,1-32-3.3-35.5c-4.3-3.6-13.1-7.7-13.1-7.7S481.8,357.9,483.2,358.6z"/> <path class="st42" d="M495.8,368.3c10.6,2.9,3.3,8,4.4,13.9c-9.1,20.7-16.1,27.4-27.8,37.3c-7.7,6.5-11-5.7-10.6-12.2 c-1.1-7.2,4.4-7.4,15.9-9.2c7.1-5.7,13.9-11.7,15-17.5C493.4,378.5,487,371.4,495.8,368.3z"/> <path class="st40" d="M461.4,403.7c0,11.6,1.8,18.1,5.3,19.3c5.7,2,15.8-9.2,30.5-33.6c0,0,5-6.2,3.5-10c-1.6-3.8,2.8-5.3,1.2-7.7 c-1.6-2.4-5.3-5-8.5-2.7c-3.1,2.4-4.7,4.4-2.8,7.1c1.9,2.6-1,8.6-1.3,10c-0.3,1.5-14.4,9.7-17.3,18.3c-0.6,1.1-1.2,2.5-1,2.6 c0.4,0.3,3.1-4.6,7.9-9.1c6.2-5.8,7.9-5.3,12-9.1c2.5-2.4,3.8-8.6,2.5-11.2c-1.3-2.6-0.9-5-0.9-5s2.5-4.1,3.8-3.2 c1.3,0.9,5.7,2.4,4.1,3.8c-1.6,1.5-2.8,4.7-1.9,6.2c0.9,1.5,0,6.2-1.3,7.1c-1.3,0.9-2.8,3-3.5,5c-0.6,2.1-8.2,20.1-26.1,28.6 c0,0-6.3-3.3-4.4-14.7c0.4-0.8,1.9-4.1,1.3-4.4C464.1,400.6,462,403,461.4,403.7z"/> <path class="st34" d="M519,363.5c0,0,6.9,16.2,6.4,22.4c-0.5,6.2,5,27.4,5,27.4s2.4-3,2.6-7.3c0.2-4.3-5.5-29.4-5.9-34 c-0.5-4.6-2.6-7.1-3.6-7.3C522.6,364.4,519,363.5,519,363.5z"/> </g> <path class="st43" d="M121.9,337.3c9.7-5.2,19.5-10.5,29.2-15.7c15.8,3.8,31.7,7.5,47.5,11.3c-5.1-9.6-10.2-19.3-15.4-28.9 c-1.7-14-3.5-28-5.2-42c-19.9,3.4-26.6,0.6-28.7-3.1c-3.9-6.8,7-18.3,1.7-25c-2.4-3-9.2-6.5-11.1-11.5c-0.1-0.2-0.2-0.5-0.4-0.8 c-1.9-3.5-6.6-2.5-8.8-4.6c-2.5-2.4-0.1-7.5,0.6-12.9c0.6-4.8,0.1-11.8-5.1-20.8c-5.8,2.8-13.9,5.6-20.2,2.2 c-8.9-4.8-8.2-18.7-12.4-19.1c-2.7-0.3-7.2,5.3-14.6,31.5c6.4,15.1,11.6,28.4,15.7,39.3c7.9,20.9,9.9,27.9,6.7,34.8 c-5,11-18.8,13.1-18,16.9c1.2,5.1,26.2-2.1,37.1,9C129.2,306.6,126.2,323.5,121.9,337.3z"/> <path class="st44" d="M440.1,529c-5.1,2.2-18.4,14.6-14.7,21.8c3.7,7.3-6.6,23.3-5.2,27.7c1.5,4.4,31.6,12.4,40.5,12.4 c8.8,0,27.2,10.2,36.8,8.7c9.6-1.5,22.8,2.2,25.8-7.3c2.9-9.5,0.7-22.6-7.4-36.4c-8.1-13.8-16.9-16-30.9-17.4 c-14-1.5-33.1-16-39-15.3C440.1,523.9,440.1,529,440.1,529z"/> <path class="st45" d="M511.5,607.6c-3,0.5-19.9,5.1-14,10.9c5.9,5.8,15.5,7.3,22.8,2.9c7.4-4.4,25-5.1,16.9-10.9 C529.2,604.6,515.9,606.8,511.5,607.6z"/> <path class="st45" d="M504.1,573.3c-5.9,0-21.3,5.1-14.7,10.2c6.6,5.1,14.7,7.3,18.4,3.6c3.7-3.6,4.4-8,4.4-13.8 C512.2,567.5,504.1,573.3,504.1,573.3z"/> <path class="st45" d="M454.8,594.5c-4.4,0-14.7,0.7-11.8,8c2.9,7.3,19.9,7.3,26.5,9.5c6.6,2.2,18.4-8,6.6-10.9 C464.4,598.1,454.8,594.5,454.8,594.5z"/> <g> <path class="st46" d="M355.8,617.6c0,0-3.4,4.1-1.2,8c2.1,3.9,18.1,17.8,22.1,17.1c4.1-0.7,2.1-12.3-3.3-16.6 c-5.4-4.3-4.7-10.8-4.7-10.8S357.2,616,355.8,617.6z"/> <path class="st47" d="M418.3,447.8c0,0-1.8-17.7-7.2-20.7c-5.3-3-48.8-6.7-54.2-1.5c-5.3,5.2-26.5,86.3,6.6,104.3 c33,18,52.7-15,52.7-15L418.3,447.8z"/> <path class="st48" d="M385.7,449.6c7.1,0.2,1.5,11.6,9.2,11.3c7.1,1.2,13.9-3.2,20.2-0.5c4.4,5.2,3.4,11.8,6.3,17.3 c2.9,9.1-5.6,19-13.1,24.2c-3.6,1-7,1.5-11.2,1.2c-6.3-1.5-12.9-1.7-19-3.2c-4.6-3-1.4-8.6-3.4-12.3c-0.7-6.2,6.3-4,5.1-10.4 c2.4-8.1,1.5-17.2,3.2-25.1C383.5,451.3,385.4,449.8,385.7,449.6z"/> <path class="st49" d="M409,480.9c4.4-1.5,10.2,3.9,5.4,7.9c-1,7.1-10,9.9-15.6,11.6c-5.3,2.7-5.3-5.2-9.7-3.9 c-3.9-0.7-3.6-4.9-1.7-7.4c-6.8-0.5-2.2-10.4,3.4-7.7C396.6,483.4,403.4,482.6,409,480.9z"/> <path class="st50" d="M400.7,513.4c0,0-36-9.2-49.4,0.4c0,0-7.1,6.7-0.6,14.1c6.5,7.4,50.4,3.2,50.4,3.2S401.5,513.6,400.7,513.4z"/> <path class="st51" d="M410.4,495.6c8.2,6.6,9.1,9.7,9.5,16.8c1.7,26.3,2.3,52,8,74.2c0.7,13.5,5.5,29.3,5.2,43.4 c-0.1,1-0.6,4.2-3.4,6.8c-3.9,3.7-9,3-9.6,2.9c-1.5-2.3-3.1-4.8-4.6-7.5c-2.2-3.9-4-7.7-5.4-11.2c-2-13.8-0.7-28.6-8.2-40 c-2.7-11.5-1.6-24.2-4.3-35.7c-1.4-10-0.9-19.6,2.5-28.3c2.3-5.9-3.2-17.1,4.1-19.1C406.3,497.1,408.4,496.3,410.4,495.6z"/> <path class="st51" d="M378.6,493.8c3.2,0.5,5.2,4.6,8.9,3.1c5.9,3.3,10.6,0,15.8,5.6c0.2,10.5-3.8,22.4-4.4,33.1 c-2.3,11.2-0.9,23.2-5,33.7c-1.4,9.4-9,32.9-16.9,38.8c-0.1,1-1.1,8-7,11.2c-1.8,1-3.6,1.3-5,1.5c-1.7-1.8-3.4-3.6-5.1-5.4 c0.7-8.3,1.5-16.6,2.2-24.8c1.2-3.2,2.8-6.8,4.7-10.5c2-3.7,4-7.1,5.9-9.9c-2.1-19.4-9.8-40.5-0.9-58.9 C374,505.5,373.4,497.6,378.6,493.8z"/> <path class="st52" d="M378.1,502.4c3.4-0.3,4.8,4.8,3.2,7.4c3.9,4.8,7.9,10,10.7,15.8c-0.9,3,3.4,5.1,0.7,8.2 c1.4,3.6-0.9,7.7,1.4,10.7c-1.6,6.9-5.2,13-8,19.4c-6.6,2.3-9.8-7.7-11.8-12.5c-1.6-6.9-6.6-13.3-5-20.4c-4.3-9.2,3-17.6,6.1-25.5 C375.9,504.7,377.9,502.7,378.1,502.4z"/> <path class="st50" d="M415.4,421.1c-6.5-4.4-41.5-12.8-56.6-2c0,0-7.1,7.9-1.7,13.1c5.3,5.2,58.1,3.7,58.1,3.7 S422.7,426,415.4,421.1z"/> <path class="st52" d="M379.5,433.2c4.1,0.2,13.1-4.6,10.9,2.6c0.7,14.1,7.4-8.4,20.8-1.9c5.3,2.2,6.1,3.5,10.2,7.8 c4.5,9.6,2.3,24.2,4,35.3c1.2,5.7-1.4,5.4-4.9-2.2c-2.4-5.7-2.4-9.9-7-14.8c-5.6-0.5-11.4,3.2-17.3,2.5c-8.3-1-10.8-11.6-12.5-18 c-6.8,17.6,2.8,29.7-8.5,41.1c-3,3-4.5,0.4-8.9,0.1c-5.4-2.2-15.3-1.5-13.1-9.6c5.1-14.6,9.6-31.1,17.7-38.7 C374.6,433.8,375.1,434.4,379.5,433.2z"/> <path class="st53" d="M386.2,432.3c0.5,1.9,1,26.3,7.8,26.7c6.8,0.4,17.1,1,17.5-2.1c0.4-3.1-2.3-23.1-2.3-23.1s5.3-1.3,5.9,1.7 c0.6,3,0.7,20.7,1.1,22.2c0.5,1.5,5.2,15,3.9,19.3c-1.3,4.3-4.8,15-6.1,16.3c-1.3,1.3,3.9,3.2,6.3,11.3c2.4,8.1,7.9,58.7,7.8,65.5 c-0.1,6.9-5.1,12.1-7.1,12.3c-2,0.2,2.2-6,2.4-11.3c0.2-5.4-6.1-63.7-7.3-65.1c-1.1-1.4-2.7-9.6-4.7-8.2c-0.8,0.5-6.2,2.4-10.7,3 c-6.8,1-13.8-1.9-14.8-3.6c-0.9-1.6,6.3,0,13.6-0.8c5.4-0.5,11.4-3.3,11.9-4.2c1.2-2,5.1-14.3,4.3-16.5c-0.9-2.2-1.6-10.6-4.4-11.8 c-2.8-1.2-16.1,1.4-21.1-1.9c-5-3.3-9.9-27-9.9-28.7C380.5,431.7,386.2,432.3,386.2,432.3z"/> <path class="st54" d="M425.5,482.2c0,0,2.9,0.5,3.4,9.9c0.5,9.4-3.4,25.4-3.4,26.6c0,1.2-2.7,4.9-2.7,4.9s-7.3-1.5-6.3-6.9 c1-5.4,2.9-8.6,2.7-10.6c-0.2-2-2.7-9.6-1.2-14.6c1.5-4.9,3.9-11.6,5.3-11.8C424.8,479.5,425.5,482.2,425.5,482.2z"/> <path class="st55" d="M414.1,436.8c0,0,9.2,2,9.7,7.1c0.5,5.1,3.7,37.3,3.7,37.3l-6.4,1.4c0,0,0.4-3,1.8-3.5 c1.4-0.5,1.8,0.1,1.6-2.1c-0.2-2.2-1.9-33.5-3.9-34.7c-1.9-1.3-7-2-7-2L414.1,436.8z"/> <path class="st53" d="M381.7,460.2c0,0,2,16.2,0.1,19.3c-1.9,3.1-9.2,6.9-9.2,6.9s2.1,7.3,2.7,9.8c0.6,2.5,5.9,4,6,1.8 c0.2-2.2-6.3-9.7-3.9-11c2.4-1.3,8.8-1.8,9.5-6.3c0.7-4.5-2.8-21.5-2.8-21.5L381.7,460.2z"/> <path class="st53" d="M369.7,510.6c-1.3,0.9-3.4,8-3.7,16.4c-0.3,8.4,2.9,41.8,2.9,41.8s-3,8.3-5.7,16.2 c-2.7,7.9-3.7,30.7-3.3,32.2c0.5,1.5,9.8,6.9,12.9,3.6c3.1-3.4,23.4-44.9,24.1-53c0.7-8.1,8-50.2,7-53.2c-0.9-3-8.8,21.8-8.1,25.9 c0.7,4.1-3.2,26.9-4.4,28.9c-1.2,2-9,5-10.3,2.4c-1.2-2.5-4,2.8-1.3,5.4c2.7,2.6,12-1.7,12-1.7s-18,44.6-21.8,43.5 c-3.8-1.1-9.3-1.7-8-6.4c1.3-4.7,0.4-23,9.9-34.7c1-1.3,2.8-7.6,1.8-11.3c-1-3.7-5.7-31.4-2.9-42c2.8-10.6,3.5-13.9,2.4-15.3 C371.9,508.1,369.7,510.6,369.7,510.6z"/> <path class="st56" d="M383.7,435.9c-0.1,3.5-0.4,7.3-1.1,11.4c-0.2,1.5-0.5,2.9-0.8,4.3c4.9,1.5,1.7,5.7,2.4,8.9 c2.2,4.4-5.8,6.2-2.2,10.4c-0.7,4.9-7.2,14.1-13.7,12.6c-4.6-0.7-3.6-9.6-6.3-11.8c1.9-4.9,2.2-6.2,2.9-10.6 c1.9-5.9,5.7-6.7,9.6-12.1c6.4-9,21.7-0.8,21.9-1.7c0.2-0.9-10.3-5.6-12.6-2.7c-2.6,3.2,4.1,15.8,13.1,18.3c3,0.8,6.8,0.7,8,0.6 c3.8-0.1,5.9-0.2,7.5-1.6c2.7-2.3,2.5-6.5,2.3-9.9c-0.3-6.5-2.9-13.7-5-13.5c-1.6,0.1-1.2,4.1-3.6,6 C403.4,446.3,397.4,445.5,383.7,435.9z"/> <path class="st54" d="M355.6,483.5c-1.8-0.1,2.5,12.2,4,14.9c1.6,2.7,18.9,25.1,19.6,27.2c0.6,2.1,4.2,15,8.7,14.9 c4.5,0,7.6-5.6,7.9-7.1c0.3-1.4-4.4-6.2-4.4-6.2l3.3,0.6c0,0,0.4-2.6-1.4-3.9c-1.8-1.3-7-4.3-7-4.3s-8.5-23.1-11.3-29 c-2.8-6-4.7-6.2-4.7-6.2S360,483.9,355.6,483.5z"/> <path class="st53" d="M397,548.1c-1.4,10.6,3.1,36.5,6.8,40.3c3.7,3.8,3.3,17.1,4.1,21.9c0.8,4.9,8.5,31.1,10.5,30.1 c4.6-2.3,11.8-2.2,15-7.3c4.2-6.8-0.2-12.3-2.9-32.6c-2-14.9-1.3-24.7-3.4-25c-1.2-0.1-2.8,2.9-3.3,5.2c-0.8,3.3,0.3,5.8,1,9 c1.2,5.2,0.5,8.2,0.5,12c0,5.2,1.5,13.8,7.9,28.2c-8,7.6-12.1,8-14.4,7c-8.8-3.6-8.7-35.1-8.3-41.8c0.6-12.3-4.5-5-7.9-25.2 c-3.4-20.1-3.9-29.1-3.9-29.1S397.2,546.2,397,548.1z"/> <path class="st57" d="M392.9,432.7c0,0-2.9-1.2-3,0c-0.1,1.2,3.4,7.3,4.7,8.3c1.3,1,9.1-0.5,10.1-1.6c1-1.1,2.2-6.2,2.2-6.2 S392.8,432.7,392.9,432.7z"/> <path class="st55" d="M376.3,434.5c-1.4,0.1-6.3-0.1-9.7,5c-3.5,5.1-17.7,36.6-14.1,40.6c3.6,4.1,15.8,8.2,18.7,4.9 c3-3.2-17.4,0.3-16-8.6c1.3-9,10.3-33.1,13.4-35.3c3.1-2.1,4.6-3.9,6.8-3.9c2.2,0,6.6,14.8,1.6,20.1c-4.9,5.3-2.5,8-0.2,5.5 c2.3-2.4,3.5-4.8,4.6-8.9C382.4,449.8,381.4,434,376.3,434.5z"/> <path class="st55" d="M391,432.5c0,0-0.1,7,4.7,7.3c4.8,0.3,9.6-1.7,9.7-5c0-3.3,3.1-2.2,2.6,0.5c-0.5,2.6-3.7,7.4-8.3,8.2 c-4.6,0.8-10.3-1.2-10.2-4.5C389.4,435.6,391,430.2,391,432.5z"/> <path class="st46" d="M420.1,639.7c0,0-2.5,4.7,0.4,8.1c2.9,3.4,21.3,13.8,25.1,12.3c3.9-1.5-0.5-12.5-6.6-15.6 c-6.1-3.1-6.7-9.7-6.7-9.7S421.1,637.8,420.1,639.7z"/> <path class="st58" d="M380.4,410.5c-0.6,0.3-3.9-1.8-2.3-2.6c1.6-0.7,2-1.1,1.5-3.3c-0.5-2.2-0.3-4.3,1.4-4.3c1.7,0,2,0.8,3-1.6 c1.1-2.4,1.6-5.4,3.5-4.5c1.8,0.9,4.1-0.4,5.7-1c1.6-0.6,4.4-0.3,5.5,1.5c1.1,1.7,2.8,3.4,4.6,2.9c1.8-0.5,5.3,1.2,5,2.4 c-0.3,1.2-1.3,5.7,0.6,6.6c1.9,0.9,3.7,4.2,3.2,5.6c-0.4,1.4-4.8,1.6-3.4,3c1.5,1.4,2.8,4,1.4,5c-1.4,1-2.4,1.2-1.3,2.8 c1.1,1.6,2.2,2.5,0.8,3.4c-1.4,0.9-2.8,2-2.8,2s-5.8,4.2-6.4,4C399.8,432.3,380.4,410.5,380.4,410.5z"/> <path class="st54" d="M398.9,425.2c0,0,1.8,9.4,1.2,9.7c-0.6,0.3-3.1,4.7-6.7,2.9c-3.5-1.8-3-7.2-2.9-7.8 C390.6,429.5,398.9,425.2,398.9,425.2z"/> <path class="st59" d="M381.6,406.4c0,0,3.5-4,6.9-3.5c3.5,0.5,6,5.5,6.9,6.4c0.8,1,2.6,6.1,2.6,6.1s0.4-2.3,1.4-2.5 c0.9-0.3,2.8-0.3,3,0.8c0.2,1.1-0.5,4.9-0.5,4.9l-1.9,1.6c0,0-0.1,3.7-0.3,5.1c-0.2,1.4-9.5,7.9-10.5,7.1c-1-0.8-3.2-2.6-2.9-4 c0.2-1.4-2.3-5.9-2.3-5.9s-0.6-7.3-1-8.4C382.6,413.1,380.3,407.9,381.6,406.4z"/> <path class="st54" d="M385.7,403.4c0,0-0.4,5.3,0.4,5.5c0.8,0.2,4.5,2.1,4.5,2.1s-5.1,1.6-4.7,3.1c0.4,1.4,0.8,8.5,0.8,8.5 s1.4,0,1.5,0.8c0.2,0.8-1.8,1-1.2,1.7c0.6,0.7,2,1.8,1.9,2.8c-0.1,1,1,4.1,0.8,4.5c-0.3,0.4-4.1-0.7-3.9-3.1 c0.2-2.4-2.1-5.5-2.2-6.4c-0.2-0.9-1.1-8.5-1.1-8.5s-1.4-3.4-1.6-4.8c-0.2-1.4,0-2.7,0.4-3.3C381.8,405.7,385.7,403.4,385.7,403.4z "/> <path class="st60" d="M404.1,430c1.4-0.3,2.9,1.3,1.2,2.4c-2,1.7,0.2,3.6,1.4,5c-0.7,4.2-6.9,1.2-6.2-2.2 C400.8,433.1,402,431,404.1,430z"/> <path class="st58" d="M402,428.2c4.7,0.4,5.5,7.9,1,9.5c-0.4,0.2-2,0.4-2.4,0.3c-0.2-0.4-0.3-0.7-0.4-1c1.4-1.6,3.9-4.2,1.2-6 C399.7,430.2,401.2,428.7,402,428.2z"/> <path class="st58" d="M403.5,436.8c1.4-0.3,2.9,1.3,1.2,2.4c-2,1.7,0.2,3.6,1.4,5c-0.7,4.2-6.9,1.2-6.2-2.2 C400.2,439.9,401.4,437.8,403.5,436.8z"/> <path class="st60" d="M403.4,434.5c4.7,0.4,5.5,7.9,1,9.5c-0.4,0.2-2,0.4-2.4,0.3c-0.2-0.4-0.3-0.7-0.4-1c1.4-1.6,3.9-4.2,1.2-6 C401.1,436.6,402.6,435.1,403.4,434.5z"/> <path class="st60" d="M404.3,442.9c1.4-0.3,2.9,1.3,1.2,2.4c-2,1.7,0.2,3.6,1.4,5c-0.7,4.2-6.9,1.2-6.2-2.2 C401,446,402.2,443.9,404.3,442.9z"/> <path class="st58" d="M404.5,443.8c4.7,0.4,5.5,7.9,1,9.5c-0.4,0.2-2,0.4-2.4,0.3c-0.2-0.4-0.3-0.7-0.4-1c1.4-1.6,3.9-4.2,1.2-6 C402.1,445.9,403.6,444.4,404.5,443.8z"/> <path class="st60" d="M391.2,402.5c0-0.3-0.2-4.4,1.5-3.9c1.6,0.5,3,1,3.8-0.4c0.8-1.4,1.8-2.1,2.4-1.1c0.6,1,2,1.6,3.1,1.5 c1.1-0.1,2.5-1.2,3.2,0.3c0.7,1.4,2,1.8,1.5,3.1c-0.5,1.3-0.2,3.3,0.4,3.7c0.7,0.4,0,1.4-0.5,1.4c-0.5-0.1-2-1.2-2.3-2.2 c-0.3-1,0.8-3,0-3.3c-0.9-0.4-1.4,0.1-2.5,0c-1.1-0.1-0.7-1.6-2.3-0.9c-1.6,0.7-2,0.5-3.1,0.2c-1.1-0.3-2.9-0.7-2.6,0.6 c0.3,1.3,1.9,2.9,0.8,2.9C393.5,404.4,391.2,402.5,391.2,402.5z"/> <path class="st60" d="M394.7,406.3c0-0.3,0.8-4.2,1.8-3.2c1,1,1.5,2.1,2.6,0.8c1.1-1.3,2.7-2.2,2.9-1c0.2,1.2,0.1,1.7,1,2.4 c0.9,0.7,1.8,2.8,2.5,2.7c0.7-0.1,3.1-0.4,3.4,0.6c0.3,1,2.1,1.4,1.8,2.3c-0.3,0.9-3.1,1.2-3,2.3c0.1,1-0.7,2.3,0.1,2.8 c0.8,0.4,2,1.7,1.5,2.5c-0.5,0.7-1,3-2.1,2.4c-1.1-0.6-1.9-2.2-1.3-2.8c0.7-0.6-1-2.4-0.6-3.5c0.4-1.1,0.4-2.1,1.3-2.9 c0.9-0.8-0.1-2.3-0.9-1.9c-0.8,0.4-3.1,1.5-3.3-0.2c-0.3-1.7-0.3-4.2-1.4-3.6c-1.1,0.5-1.3,2.1-1.8,2.2c-0.6,0.1-2.2-2.1-2.4-1.3 c-0.3,0.8,0.4,2.7-0.6,2.3C395.2,408.4,394.7,406.3,394.7,406.3z"/> <path class="st60" d="M397.4,415.7c0-0.3,1.4-2,1.5-1.1c0.1,0.9,1.4,1.2,2.1,1.1c0.7-0.1,2.3-0.4,2.2,0.7c-0.1,1.1-0.2,2.7,0.2,3.3 c0.4,0.6,0.9,1.9-0.3,2.6c-1.2,0.7,1.5,0.7,1.3,1.6c-0.2,0.9-2,1.3-2.9,0.6c-0.9-0.7-0.2-2,0.2-2.7c0.5-0.7,0.3-2.3,0-2.8 c-0.3-0.5-4.2-1.2-4.3-1.6C397.3,416.8,397.4,415.7,397.4,415.7z"/> <path class="st60" d="M385.6,401.8c-0.3,0-1.6-3.1-0.4-3.2c1.2-0.2,1.9-1.6,2-2.6c0.1-1,0.9-0.9,2.1-0.5c1.2,0.4,2-1.8,3.4-1.6 c1.4,0.2,1.3,0.1,2.9,0.4c1.6,0.3,1.8,1.7,0.6,2.5c-1.2,0.7-2.1-0.4-3,0.1c-0.9,0.5-0.9,1.4-2.4,1.1c-1.5-0.4-2.2-0.9-2.1,0.8 c0.2,1.7-0.1,1,0.5,2.3C389.7,402.2,385.6,401.8,385.6,401.8z"/> <path class="st60" d="M380.7,405c-0.3-0.3-1.5-1.9-0.8-2.3c0.8-0.4,0.8-1.3,1.4-1.7c0.5-0.4,2.2-1,1.8,0.1c-0.4,1.1-0.6,2,0.4,2 c1-0.1-0.2,1.3-0.8,1.7C382,405.2,380.7,405,380.7,405z"/> <path class="st58" d="M403.1,450.5c0.8,0.1,1.9,1.2,1.8,2.4c1.9-1.8,2.4,2.7,2.4,4.3c0.2,2.6-0.5,5.4-1.2,7.9 c-0.6,1.6-1.6-0.1-2.2,0.8c-0.4-1-1.8,0.2-2-1.5c0-0.5,0.2-2.2,0.3-2.6c-0.5,1.4-2.4,3.7-2.5,0.9c0-0.4,0-0.7,0.1-1.1 c-2.1,0.9-1.1-3.2-0.6-4.5C400.1,454.8,401.1,452.1,403.1,450.5z"/> <path class="st61" d="M373.9,430.3c0,0,4.9-9.4-1.2-12.1c-6.1-2.7-10.7-3.4-14.1,2.5c-3.4,5.9-0.7,12.3,3.2,12.6 c3.9,0.2,12.9-7.6,9.7-11.1c-3.2-3.5-7-3-9,0.2c-1.9,3.2,0,6.4,1,5.4c1-1-0.2-3.7,1.2-4.4c1.5-0.7,3.7-0.2,3.4,1.5 c-0.2,1.7-3.6,7.4-6.3,5.9c-2.7-1.5-1.4-10.5,1-11.2c2.4-0.7,7.3-1.6,9.2,0.4c1.9,2,2.9,6.7,1.2,8.1c-1.7,1.5-2.9,3.9-1.2,3.9 C373.7,432,373.9,430.3,373.9,430.3z"/> <path class="st61" d="M364.6,525.6c0,0,4.9-9.4-1.2-12.1c-6.1-2.7-10.7-3.4-14.1,2.5c-3.4,5.9-0.7,12.3,3.2,12.6 c3.9,0.3,12.9-7.6,9.7-11.1c-3.2-3.4-7.1-3-9,0.2c-1.9,3.2,0,6.4,1,5.4c1-1-0.2-3.7,1.2-4.4c1.5-0.7,3.6-0.2,3.4,1.5 c-0.2,1.7-3.7,7.4-6.3,5.9c-2.7-1.5-2.7-10.6-0.2-11.3c2.4-0.7,8.5-1.5,10.5,0.5c1.9,2,2.9,6.7,1.2,8.1c-1.7,1.5-2.9,3.9-1.2,3.9 C364.3,527.3,364.6,525.6,364.6,525.6z"/> <path class="st62" d="M394,471.3c4.2,1.8,8.8,1.6,13.6,1.6c3.5,1.6,1.7,6.4,2.3,9.5c0.8,3.3-2.6,5.5-5.6,4.9c-2.2,0-4.3,0-6.5,0 c-0.4,0-1.8-0.1-2.2-0.1c-0.4,0-1.8-0.1-2.2-0.1c-2.8,0.6-3.2-2.1-2.8-4.2c-0.1-3.4,0.8-6.4,0.9-9.7 C391.7,471.9,393.1,471.5,394,471.3z"/> <path class="st63" d="M370,436c0,0,10.9-0.5,10.9,6.7c0,7.1-3.2,39.7-6.6,41.4c-3.4,1.7,0.4,8,1.6,8.3c1.2,0.2,7-21.1,8.1-26.1 c1.1-5.1,2.1-25.2-0.4-30.3c-2.4-5.2-5.7-2.6-5.7-2.6L370,436z"/> <path class="st63" d="M414.9,434.3c-0.4,1.6,0.6,24.4,0.8,27c0.2,2.6,5.8,12.2,5.8,12.2s0.5-1.9,0.2-2.6 c-0.2-0.7-3.7-14.2-3.3-16.9c0.4-2.7,1-17.3,0.4-17.8C418.3,435.8,414.9,433.8,414.9,434.3z"/> <path class="st53" d="M416,502.1c0,0-1.7,10,0.8,13.7c2.4,3.7,6.6,7,6.6,7l0.5,3.7c0,0-4.9-2.2-6.8-4.4c-2-2.2-4.3-10.9-4.1-14.1 C413.2,504.7,416,502.1,416,502.1z"/> <path class="st64" d="M391.8,471.4c0,0,13.2,2.3,17.7,0.6c0,0,1.3,12.5-0.2,14.5c-1.5,2-18.9,1.5-19.1,0.5 c-0.2-1,0.9-14.4,1.4-14.2c0.5,0.2,0.7,0.6,0.6,1.4c-0.1,0.8-2.2,12-0.7,12.1c1.5,0.1,7.3,0.8,8.1,0.2c0.8-0.7,0.4-11.6,0.9-12.1 c0.5-0.6,0.8-0.2,0.9,0.4c0.1,0.6-1.1,11.6-0.1,11.7c1,0.1,3.2,0.3,3.9-0.6c0.7-0.8,0.1-11.5,0.6-11.6c0.5-0.1,0.2,11.7,0.9,11.5 c0.7-0.2,2.1-1.1,2.3-2c0.2-0.8-0.2-10-0.5-10.4c-0.3-0.4-8.6,1.1-16.6-1.2L391.8,471.4z"/> <path class="st29" d="M359.6,484.5c-1.8,1.7,1.1,7.3,3.8,12.4c8.1,15.4,13.2,15.8,17.4,26.4c3.3,8.4,2.3,13.7,6,15 c3.6,1.3,8.9-2.1,8.9-4.7c0,0,0-1.3-8.2-6.7l0,0l2.5,0.6c0,0,0.3-2.7-1-4.1c-1.4-1.3-5.3-4.5-5.3-4.5c-1.4-6.4-3.9-14.3-8.3-22.7 c-1.8-3.3-3.7-6.3-5.6-9C367.2,485.8,361.4,482.7,359.6,484.5z"/> </g> <g> <path class="st65" d="M205.7,522.3c-2.3,1.4-5.4,3.8-5.5,6.9c-0.1,3.6,4,5,10,11.3c7.5,7.9,8.8,13.7,12,13.2 c2.3-0.4,3.9-3.9,4.2-6.3c0.5-3.5-1.5-4.9-4.2-13.2c-1.4-4.2-1-4.3-1.8-5.6C218.8,526,215.1,523,205.7,522.3z"/> <path class="st66" d="M256.7,313.7c-1.4,0-23.2-7.6-42.3,11.7c-19.1,19.2-30.8,96.2,8.2,91.3c6.3-0.8,14.8-89.9,24.5-97.8 C251.4,315.4,257.1,313.7,256.7,313.7z"/> <path class="st67" d="M275.9,399.2c8.8,2.1,5.6,22.6,7.8,33.7c2.6,18.5-2.5,27.5-0.6,47.8c2.6,15.2,0.3,33.2,1.2,48.5 c-6,1.3-12.1,2.6-18.1,3.8c-2.4-0.5-4.8-1-7.2-1.5c-0.5-6.1-0.9-12.3-1.4-18.4c-2.6-8.5-2.5-15.1-1.8-19.6 c1.2-8.4,4.4-11.8,4.2-19.7c-0.2-5.6-1.9-8.8-4.2-14.8c-5.5-13.8-14.1-35.5-5.9-48.3c1-1.6,2.9-3.9,6.2-6 C259.5,403.8,272,400.6,275.9,399.2z"/> <path class="st65" d="M260.3,533.9c0.1,2,0.4,4.2,0.9,6.6c0.4,2.1,0.9,4.1,1.5,5.8c4,0.7,8,1.3,12,2c0.3-0.8,0.7-1.5,1-2.3 c2,1,5,2.2,8.8,2.8c5.7,0.8,10.3-0.4,12.8-1.3c0.1-1,0-3-1.3-5c-1.1-1.7-2.6-2.4-3.8-3c-3.3-1.6-4.6-0.6-6.8-2.3 c-1.4-1.1-0.9-1.7-2.8-3.3c-0.6-0.5-2.3-1.9-4.5-2.3c-2.2-0.4-4,0.3-4.8,0.6C271,533.2,267,534.1,260.3,533.9z"/> <path class="st68" d="M248.5,307c11.2,0.2,21.6,2.5,31.3,7.2c4.1,3.3,1,8,0,11.7c-8.5,4.5-18.9,2.1-28.3,3.9 c-11.6,1.6-22.8,3.7-33.2,8.4c-2,0.6-4.3,0.8-6.5,0.8c-12.6-1.6-9-21.6,1.4-24.7C224.3,309.9,236.3,308.2,248.5,307z"/> <path class="st69" d="M241.6,399.9c8.1,0.4-5.2,7.2,2.9,7.6c11.8,0,23.7,3.6,22.1,8.7c-1.7,5.3-8.8,14.4-10.9,19.6 c-4.7,11.8-10.1,27.4-10.9,38.9c-0.6,9.7-4.7,16.9-9.2,22.8c-6.4,11.1-5.4,21-13.9,31.7c-1.3,0.3-5.5,1-10-1.3 c-3.5-1.8-5.3-4.4-6.1-5.6c0.4-6.9,1.4-15.3,3.8-24.6c3.3-12.4,8-22.4,12.2-29.6c2.5-10.3,0.4-17.8,0.4-29.9 c-0.4-13.8-3.8-29,10.2-34.3C235.7,401.2,238.2,402.1,241.6,399.9z"/> <path class="st70" d="M262.9,313.3c10.6,0.9,10.3,6.2,18.6,10.3c1.7,5.4-5.8,12.6-10.6,10.7c-7.7-1-8.7-7.1-13.4-13.7 C256.6,317.4,258.8,314.7,262.9,313.3z"/> <path class="st71" d="M253.6,315.4c2,0.2,2,5.8,3.3,7.1c5.4,5.5,13.2,16,16.2,3.6c3.3-13.8,22.1,16.6,19.2,26.9 c-4.7,17.4-1.6,32.3-7.9,48.8c-9.8,14.3-32.2,8.6-45.4,6.4c-12.7-6.7,3.4-22.4-1.7-33.2c0-12,8.9-20.9,8.9-33 C248.8,332.6,239.8,319.6,253.6,315.4z"/> <path class="st72" d="M243.1,321.5c5.5,4.6,4.7,20,1.9,28.8c-3,9.4-7.4,19.5-7.2,23.3c5.1,21.9,2.6,31.5-9.8,35.4 c-3.4,1.1-6-0.7-9.8-7.3c-8.9-12-17.9-15.3-7.4-40.2C215.4,343.7,224.8,328.2,243.1,321.5z"/> <path class="st73" d="M289.2,406c0,0,0.6,7.3-1.5,13c-2.1,5.6-5.6,5.8-5.6,5.8c-0.1-6.3-0.2-12.7-0.3-19 C282.1,405.7,275.8,407.4,289.2,406z"/> <path class="st72" d="M287.9,339.1c7.4,6,3.3,28.7,5.4,39.9c0.9,9.4,2.1,31.7-11.9,25.9c0.7-0.6,3.7-13.5,3.1-24 c0.6-12.9,0.9-18.3,1.7-29C287.5,350.5,287.5,339.5,287.9,339.1z"/> <path class="st32" d="M253.3,316.9c0,0-15,7.8-23.5,13.3c-8.5,5.5-23.3,40.2-23.3,49.5c0,9.4,20.4,27,20.4,27s11.6-4.7,11.6-7.7 c0-3,2.3-23.4-3.1-26.4c-5.4-3-9.7,3.9-11.3,1.4c-1.7-2.5,8.2-6.6,10.8-5.8c2.6,0.8,10.5-17.9,9.9-23.9c-0.6-6.1,0-9.6,1.4-8.5 c1.4,1.1,2,9.9,1.4,12.7c-0.6,2.7-5.7,20.1-8.5,21.2c0,0,0.3,3,1.7,9.6c1.4,6.6,2.5,19,0.9,21.2c-1.7,2.2-11.1,9.4-15.9,9.9 c-4.8,0.5-23.5-24.2-21.8-29.5c1.7-5.2,7.1-38,24.1-52.3c17-14.3,30.8-14.9,30.8-14.9s-1.5,6.8,4.8,11.5c6.2,4.7,5.7,6.2,7.6,2.1 c1.9-4.1,3.7,3.2,1.5,4.9c-2.3,1.7-3.6,2.4-8.4,0c-4.8-2.3-5.9-4.5-8.8-11.9C254.8,318.2,253.3,316.9,253.3,316.9z"/> <path class="st32" d="M279.1,325c0,0,12.5,12.4,13,17.3c0.6,5,6.5,56.4-1.1,62.2c-7.7,5.8-9.1,0.8-6.8-0.5c2.3-1.4,5.1,0.5,6.5-3.6 c1.4-4.1,1.6-45.2-0.3-49.7c-1.9-4.5,0.3,8.6-4.2,13.6c-4.5,5,1.9-17,0.2-22.5c-1.7-5.5,1.5-6.9-6.2-12.9 C280.3,328.8,277.7,323.6,279.1,325z"/> <path class="st32" d="M287.8,363.2c0,0,2.5,37.4-2.8,42.1c-5.4,4.7-32.6,5.2-37.2,0.3c-4.5-5-1.7-6.3,0.6-4.4 c2.3,1.9,26.4,6.6,32.9,1.9c6.5-4.7,2.8-38.2,4.5-39.4C287.5,362.6,287.8,363.2,287.8,363.2z"/> <path class="st74" d="M229.5,410.6c-2.5,6.5-0.5,13.2,4,15.7c5.7,3.3,13.9-1.2,13.8-3c-0.1-1.3-4.5-1.2-5.5-4.2 c-0.5-1.5,0-3.3,0.5-3.4c0.5-0.1,1.2,1.2,1.2,1.2s2.6,0.6,1.7-2.7c-0.9-3.3-6.5-10.8-8.2-10.2C235.2,404.5,229.3,408,229.5,410.6z"/> <path class="st75" d="M280.3,409.4c9.1,44.4,4.5,59.1,1.8,64.3c-0.7,1.4-4,7.6-5.2,7.2c-1.2-0.4-0.1-7.2,0.4-10 c1-5.8,2.4-10,2.6-10.5c2.2-6.7,2.1-14.2,1.8-29.1C281.6,425.6,281.3,418.2,280.3,409.4z"/> <path class="st75" d="M281,479.3c-1.7,4.9-1.8,9.1-1.8,11c0.1,7.5,1.2,13.4,1.5,15c1,5.5,1.8,13.7,0.2,24.6 c-6.4,0-12.8-0.1-19.2-0.1c-2.2-10.9-3.1-20-3.5-26.5c-0.1-1.7-0.6-4.8-0.4-8.8c0-0.7,0.1-2.1,0.4-3.7c0.8-5.8,2.8-11.6,4.8-19 c0.2-0.6,0.7-2.1,0-3.5c-1.4-3-7.3-1.7-7.1-21.6c0.3-25,13.6-23.9,13.6-23.9s2.8-3.3-0.8-3c-3.7,0.3-11.3,7.1-13.1,11 c-1.7,3.9-3.5,24.2-2.6,26.7c0.9,2.5,4.7,15.6,4.7,15.6c-1.5,11.2-2.4,23.9-2.3,37.9c0.1,8.5,0.6,16.6,1.3,24 c4.6-1.2,11-2.3,18.4-2c3.8,0.2,7.2,0.7,10.1,1.3c-0.6-6-1.4-15.4-1.6-27c-0.2-17.6,1.1-32.1-0.4-32.3 C282.6,474.7,281.7,477.1,281,479.3z"/> <path class="st75" d="M224.4,411.1c0,0-4.3,5-3.7,14c0.6,9.1,0.8,36.9,0.3,40.5c-0.6,3.6-1.4,1.9-4.8,8.5 c-3.4,6.6-16.2,43.6-14.3,47.4c2,3.9,18.8,11.5,21.9,7.1c3.1-4.4,5.6-19.5,18.3-38.7c2-3,4.4-12.2,3.8-16.6 c-0.6-4.4,8.9-17.6,9.5-30.3c0.6-12.7,1.5-15.2,0.4-13.6c-1.1,1.7-4.1,13.3-4.7,15.8c-0.6,2.5-8,25.5-8.6,27.7 c-0.6,2.2,1.2,8.4-0.8,10.6c-2,2.2-9.4-0.1-11.4,1c-2,1.1-1.4,1.9,1.1,2.2c2.6,0.3,5.6,3.5,4.8,4.6c-0.9,1.1-8.2,8.9-10.2,18.6 c-2,9.6-2,15.4-4.3,16.5c-2.3,1.1-13-2.5-12.7-6.4c0.3-3.9,7.1-43.2,15.3-49.8c8.2-6.6,8-11.2,5.7-10.9c-2.3,0.3-4.6,0-4.6,0 s0.2-37.4,1.9-40.4c1.7-3,0-8.3,0-8.3S226.5,408.7,224.4,411.1z"/> <path class="st76" d="M244.8,354.4c1.1-0.3,7.1-5.8,7.1-9.4c0-3.6,0-25-4.8-27.8c-4.8-2.7-7.4,3.9-7.4,3.9s4.5,3.9,5.4,8.2 c0.9,4.4,2.8,16.5,0.6,19.5C243.4,351.9,244.8,354.4,244.8,354.4z"/> <path class="st76" d="M281.3,357.1c0,0,5.1-23.7,1.1-29.7c-4-6.1,6.8,1.9,7.1,5.8c0.3,3.9-4,18.4-4.5,20.1 C284.5,354.9,281.3,357.1,281.3,357.1z"/> <g> <path class="st77" d="M288.8,311.2c0,0,6.3-3.1,6.1-5.4c-0.2-2.3-2.2-7.1-1.2-9.3c1-2.3,0-5.1-1.6-5.2c-1.5-0.2-4.3,1.3-4.3-0.8 c-0.1-2.1-1.6-3.9-3.4-4.1c-1.8-0.2-2.2,1.2-3.7,1c-1.5-0.2-4-1.7-5.3-0.8c-1.2,0.9-0.4,4.1-2.2,3.9c-1.8-0.2-4.9-0.3-5.6,1.7 c-0.7,2,0.8,4.4-1.1,5.1c-1.9,0.7-2.2,3.9-1.7,5.6c0.5,1.7,2.3,3.3,1.4,4.9c-0.9,1.7,1.1,3.8,2,4.1 C269.1,312,288.8,311.2,288.8,311.2z"/> <path class="st74" d="M277.8,321.8c0,0-5.5,7.6-7,7.9c-1.5,0.3-4.8-2.5-6.4-4c-1.6-1.5-4.2-5.3-2.6-7.4c1.6-2.1,5.9-8.1,6.2-7.8 C268.2,310.9,277.8,321.8,277.8,321.8z"/> <path class="st73" d="M290.3,305.1c0,0-1.6,5.3-2.8,6.8c-1.2,1.5-3.3,4.8-3.5,5.9c-0.2,1.1-6.9,6.4-8.5,6.1 c-1.6-0.3-4.3-2.7-4.7-3.3c-0.3-0.7-2.9-8.6-2.2-10c0.6-1.5-1-2.7-1-2.7s-1-5,0.2-5.3c1.1-0.3,3.2,1.8,3.2,1.8s4.3-1.7,5.4-2.9 c1.1-1.2,2.5-1.1,4.5,0.5c2,1.6,3,3.7,4.6,2c1.6-1.8,2.3,1.4,3.1,1.7C289.2,306,290.3,305.1,290.3,305.1z"/> <path class="st78" d="M284.9,304.1l-1.7,3.8l-5.7-2.9l-1.9,2.1l2.8,2.3l3.3,0.4l-1.1,3l-2.5,4.1l1.6,1l-1.4,1.1l-2-0.3l-1.6-0.3 l2.6,2.5l-1.1,1.3l-1.7-1.1l-1.9,1.9l2.3,1.1l3.9-1.5l4.3-4.1l1.8-2.9l3.1-3.8l2.6-6.6l-2.1,0.7c0,0-0.2-1.6-1.2-2.1 c-1-0.5-1.9,0.1-1.9,0.1L284.9,304.1z"/> </g> <path class="st79" d="M216.1,314.5c7.1-0.6,12.6,7.4,12,13.6c-0.4,0-0.8,0-1.1,0c-1.3-4.5-3.6-11.5-9.8-11.7 c-10.3-1.7-14.1,18.1-2.5,17.9c5.9-1.1,9.9-10.6,3.4-13.8c-5-0.8-8.8,5.7-5.9,9.8c0.6,0,1.3,0,2.1,0c1.7-0.8,3.2-3.2,1.3-4.7 c-0.2,0.2-1.3,0.7-1.7,0.7c0-0.4,1-2.1,1.5-2.5c8.2,1.9-2.5,13.8-5.5,6.2c-3.6-6.4,6.5-16.2,12-8.9c6.5,7.7-8,21.1-14.5,11.7 C203,326.2,207.5,314.8,216.1,314.5z"/> <path class="st80" d="M275.9,342c2.9-0.2,4.2,2.8,3.3,5.3c2.9,0.8,2.3,4.2,0.2,5.5c1.5,1.1,2.1,3.8,0.4,4.9 c4.8,0.7,1.7,5.9,2.5,8.9c-0.6,1.9-3.6,3.2-1.5,5.7c-1.9,2.3-1.9,5.5,1.3,7.2c1.3,3.8,0.4,8.1,1.1,12.3c-3.1,4-7.8,6-11.3,9.4 c-3.6-0.4-7.4-0.7-8.4-4.7c-1.9-1.5-1.3-4.7-4.2-4.3c-0.8-2.7-3.4-5.5-1.3-8.1c-1-2.3,2.5-4.3-0.4-5.9c0-0.7,0.2-1.3,0.2-1.9 c-4,0.4-4.4-4.9-1.1-6.4c-2.1,0.8-5.2-0.9-4.2-3.4c-5.9-2.8,0.4-7.6,4-8.7c6.3-3.2,14.3-6.6,17.6-14 C274.4,343.1,275.7,342.2,275.9,342z"/> <path class="st80" d="M227.8,373.3c4.2,0,6.9,3.8,9,7c-0.6,5.1,4.2,10.8-1,15.1c-2.5,1.9-7.4,6.6-9,1.5c-1.1-3-5-0.7-4.8-4.2 c-0.6-3.4-4.2-3.2-5.9-5.5c-5.3,0.9-4.4-6-0.6-7.4C219.2,376.4,223.4,374.5,227.8,373.3z"/> <path class="st80" d="M236.6,330.7c3.2,0.8,8.6,4.2,4.8,7.9c5,3.2-1,8.5-0.6,12.6c-0.4,3.8-1,7.2-4.6,9.8c-4.6,4-9.4,8.9-15.3,7.5 c-3.6-2.5-0.6-6.2-0.8-8.9c3-3.8,7.4-8.5,3.6-12.6c0.2-6.8,9.9-9.3,11.1-15.3C235.4,331.5,236.6,330.7,236.6,330.7z"/> </g> </svg>