<?xml version="1.0" encoding="UTF-8"?>
<svg viewBox="0 0 400 200" xmlns="http://www.w3.org/2000/svg" xmlns:xlink="http://www.w3.org/1999/xlink">
 <defs>
  <filter id="aa">
   <feGaussianBlur stdDeviation="2.17437"/>
  </filter>
  <linearGradient id="b">
   <stop stop-color="#fff" offset="0"/>
   <stop stop-color="#fff" stop-opacity="0" offset="1"/>
  </linearGradient>
  <linearGradient id="a">
   <stop stop-color="#fff6d5" offset="0"/>
   <stop stop-color="#fff6d5" stop-opacity="0" offset="1"/>
  </linearGradient>
  <linearGradient id="d">
   <stop stop-color="#fff" offset="0"/>
   <stop stop-color="#fff6d5" stop-opacity="0" offset="1"/>
  </linearGradient>
  <linearGradient id="f">
   <stop stop-color="#ff0" offset="0"/>
   <stop stop-color="#ff0" stop-opacity="0" offset="1"/>
  </linearGradient>
  <linearGradient id="x" x1="370.71" x2="422.86" y1="584.51" y2="704.5" gradientUnits="userSpaceOnUse">
   <stop stop-color="#a05a2c" offset="0"/>
   <stop stop-color="#a05a2c" stop-opacity="0" offset="1"/>
  </linearGradient>
  <linearGradient id="t" x1="377.86" x2="353.57" y1="743.08" y2="740.93" gradientUnits="userSpaceOnUse">
   <stop stop-color="#d4aa00" offset="0"/>
   <stop stop-color="#fff6d5" stop-opacity="0" offset="1"/>
  </linearGradient>
  <linearGradient id="s" x1="370" x2="340" y1="685.22" y2="715.93" gradientUnits="userSpaceOnUse">
   <stop stop-color="#b79024" offset="0"/>
   <stop stop-color="#b79024" stop-opacity="0" offset="1"/>
  </linearGradient>
  <linearGradient id="n" x1="482.86" x2="519.29" y1="768.79" y2="852.36" gradientUnits="userSpaceOnUse" spreadMethod="repeat">
   <stop stop-color="#fff6d5" stop-opacity=".18803" offset="0"/>
   <stop stop-color="#fff6d5" stop-opacity="0" offset="1"/>
  </linearGradient>
  <linearGradient id="m" x1="147.14" x2="144.29" y1="715.58" y2="870.22" gradientUnits="userSpaceOnUse" spreadMethod="repeat">
   <stop stop-color="#fff6d5" stop-opacity=".42308" offset="0"/>
   <stop stop-color="#fff6d5" stop-opacity="0" offset="1"/>
  </linearGradient>
  <linearGradient id="l" x1="317.14" x2="357.5" y1="771.29" y2="679.86" gradientUnits="userSpaceOnUse" spreadMethod="reflect">
   <stop stop-color="#dfc33c" offset="0"/>
   <stop stop-color="#776614" stop-opacity="0" offset="1"/>
  </linearGradient>
  <linearGradient id="k" x1="313.57" x2="339.29" y1="750.22" y2="750.93" gradientUnits="userSpaceOnUse">
   <stop stop-color="#ffd01b" offset="0"/>
   <stop stop-color="#504416" stop-opacity="0" offset="1"/>
  </linearGradient>
  <linearGradient id="z" x1="529.29" x2="457.14" y1="765.22" y2="650.22" gradientUnits="userSpaceOnUse" xlink:href="#f"/>
  <linearGradient id="y" x1="475.71" x2="443.57" y1="826.65" y2="571.65" gradientUnits="userSpaceOnUse" xlink:href="#f"/>
  <linearGradient id="w" x1="295" x2="460" y1="689.51" y2="638.79" gradientUnits="userSpaceOnUse" xlink:href="#a"/>
  <linearGradient id="v" x1="468.57" x2="370" y1="601.65" y2="834.51" gradientUnits="userSpaceOnUse" xlink:href="#a"/>
  <linearGradient id="u" x1="485" x2="407.86" y1="780.22" y2="675.93" gradientUnits="userSpaceOnUse" xlink:href="#a"/>
  <linearGradient id="e" x1="591.43" x2="489.29" y1="566.65" y2="717.36" gradientUnits="userSpaceOnUse" xlink:href="#a"/>
  <linearGradient id="r" x1="420" x2="427.14" y1="604.51" y2="755.22" gradientUnits="userSpaceOnUse" xlink:href="#a"/>
  <linearGradient id="q" x1="410" x2="394.29" y1="600.22" y2="665.93" gradientUnits="userSpaceOnUse" xlink:href="#d"/>
  <linearGradient id="p" x1="111.43" x2="235.71" y1="794.51" y2="668.08" gradientUnits="userSpaceOnUse" xlink:href="#a"/>
  <linearGradient id="o" x1="334.29" x2="345.71" y1="626.65" y2="750.22" gradientUnits="userSpaceOnUse" xlink:href="#d"/>
  <linearGradient id="j" x2="0" y1="670.93" y2="776.65" gradientUnits="userSpaceOnUse" xlink:href="#b"/>
  <linearGradient id="i" x1="-12.857" x2="344.29" y1="895.22" y2="705.22" gradientUnits="userSpaceOnUse" xlink:href="#b"/>
  <radialGradient id="h" cx="355.01" cy="725.69" r="24.786" gradientTransform="matrix(1.1152 0 0 5.8747 -44.484 -3477.1)" gradientUnits="userSpaceOnUse">
   <stop stop-color="#f4eed7" offset="0"/>
   <stop stop-color="#f4eed7" stop-opacity="0" offset="1"/>
  </radialGradient>
  <radialGradient id="c" cx="340.42" cy="697.8" r="43.437" gradientUnits="userSpaceOnUse" xlink:href="#b"/>
  <radialGradient id="g" cx="349.29" cy="798.01" r="174.04" gradientTransform="matrix(.88919 -.19289 .039777 .18336 6.9615 598.45)" gradientUnits="userSpaceOnUse" xlink:href="#b"/>
 </defs>
 <g transform="translate(-167.14 -419.04)">
  <path d="m170 552.36 138.57 60s18.571 11.429 50-4.2857 204.29-108.57 204.29-108.57 12.857-5.7143-25.714-5.7143c-100 0-288.57 31.429-298.57 31.429s-58.571 22.857-58.571 22.857-8.5714-2.8572-10 4.2857z" fill="#5f5705" fill-rule="evenodd" filter="url(#aa)"/>
  <g transform="translate(-11.285 -180.4)">
   <path d="m222.14 632.96 217.86-32.096 111.67 10.141-203.94 48.634-125.59-26.678z" fill="#c0a421" fill-rule="evenodd"/>
   <path d="m222.5 633.08-12.857 12.857 127.5 32.143 8.5714-19.643-123.21-25.357z" fill="#c0a421" fill-rule="evenodd"/>
   <path d="m337.06 678.08c0-5.7143 7.6479-18.737 7.6479-18.737l7.1428-1.1835 10.339 19.921h-25.13z" fill="#fff6d5" fill-rule="evenodd"/>
   <path d="m361.43 678.08 196.62-58.413-6.6229-8.7299-200 47.143 10 20z" fill="#c0a421" fill-rule="evenodd"/>
   <path d="m210 645.93-24.286 81.429 1.4286 5.7143 134.29 52.143 16.071-107.14-127.5-32.143z" fill="#c0a421" fill-rule="evenodd"/>
   <path d="m210 645.93-24.286 81.429 1.4286 5.7143 134.29 52.143 16.071-107.14-127.5-32.143z" fill="url(#m)" fill-rule="evenodd"/>
   <path d="m337.5 677.36-16.071 107.5s31.429 4.6429 48.571-3.9286c-1.4286-22.857-9.2857-103.21-9.2857-103.21l-23.214-0.35715z" fill="#c0a421" fill-rule="evenodd"/>
   <path d="m370 780.93 201.43-103.57-13.214-58.005-197.5 58.005 9.2857 103.57z" fill="#c0a421" fill-rule="evenodd"/>
   <path d="m370 780.93 201.43-103.57-13.214-58.005-197.5 58.005 9.2857 103.57z" fill="url(#z)" fill-rule="evenodd"/>
   <path d="m361.43 678.08 196.62-58.413-6.6229-8.7299-200 47.143 10 20z" fill="url(#y)" fill-rule="evenodd"/>
   <path d="m370 780.93 201.43-103.57-13.214-58.005-197.5 58.005 9.2857 103.57z" fill="url(#x)" fill-rule="evenodd"/>
   <path d="m361.43 678.08 196.62-58.413-6.6229-8.7299-200 47.143 10 20z" fill="url(#w)" fill-rule="evenodd"/>
   <path d="m222.14 632.96 217.86-32.096 111.67 10.141-203.94 48.634-125.59-26.678z" fill="url(#v)" fill-rule="evenodd"/>
   <path d="m370 780.93 201.43-103.57-13.214-58.005-197.5 58.005 9.2857 103.57z" fill="url(#u)" fill-rule="evenodd"/>
   <path d="m361.43 678.08 196.62-58.413-6.6229-8.7299-200 47.143 10 20z" fill="url(#e)" fill-rule="evenodd"/>
   <path d="m337.5 677.36-16.071 107.5s31.429 4.6429 48.571-3.9286c-1.4286-22.857-9.2857-103.21-9.2857-103.21l-23.214-0.35715z" fill="url(#h)" fill-rule="evenodd"/>
   <path d="m337.5 677.36-16.071 107.5s31.429 4.6429 48.571-3.9286c-1.4286-22.857-9.2857-103.21-9.2857-103.21l-23.214-0.35715z" fill="url(#t)" fill-rule="evenodd"/>
   <path d="m337.5 677.36-16.071 107.5s31.429 4.6429 48.571-3.9286c-1.4286-22.857-9.2857-103.21-9.2857-103.21l-23.214-0.35715z" fill="url(#s)" fill-rule="evenodd"/>
   <path d="m383.84 670.59-23.125 6.7812 9.2812 103.56 141.25-72.625c-51.367-4.82-96.197-18.535-127.41-37.719z" fill="url(#r)" fill-rule="evenodd"/>
   <path d="m361.43 678.08 128.05-38.413-48.766-2.3013-89.286 20.714 10 20z" fill="url(#e)" fill-rule="evenodd"/>
   <path d="m309.66 621.66c-3.9465 0-7.8497 0.06417-11.719 0.15625l-75.781 11.156 125.59 26.656 81.656-19.469c-26.963-11.214-70.552-18.5-119.75-18.5z" fill="url(#q)" fill-rule="evenodd"/>
   <path d="m210 645.93-24.286 81.429 1.4286 5.7143 134.29 52.143 16.071-107.14-127.5-32.143z" fill="url(#p)" fill-rule="evenodd"/>
   <path d="m222.5 633.08-12.857 12.857 127.5 32.143 8.5714-19.643-123.21-25.357z" fill="url(#o)" fill-rule="evenodd"/>
   <path d="m370 780.93 201.43-103.57-13.214-58.005-197.5 58.005 9.2857 103.57z" fill="url(#n)" fill-rule="evenodd"/>
   <path d="m210 645.93-24.286 81.429 1.4286 5.7143 134.29 52.143 16.071-107.14-127.5-32.143z" fill="url(#l)" fill-rule="evenodd"/>
   <path d="m337.5 677.36-16.071 107.5s31.429 4.6429 48.571-3.9286c-1.4286-22.857-9.2857-103.21-9.2857-103.21l-23.214-0.35715z" fill="url(#k)" fill-rule="evenodd"/>
   <path transform="matrix(.33289 .35912 -.66048 .69147 689.49 66.274)" d="m383.86 697.8a43.437 43.437 0 1 1 -86.873 0 43.437 43.437 0 1 1 86.873 0z" fill="url(#c)" fill-rule="evenodd"/>
   <path transform="matrix(-.29262 .39263 -.80001 -.52377 999.8 902.86)" d="m383.86 697.8a43.437 43.437 0 1 1 -86.873 0 43.437 43.437 0 1 1 86.873 0z" fill="url(#c)" fill-rule="evenodd"/>
   <path d="m557.14 618.79-195.71 60s-12.857 2.8572-21.429 0.71429-127.14-32.143-127.14-32.143" fill="none" stroke="url(#g)" stroke-width="3.8"/>
   <path d="m342.14 681.65s12.857 0 16.429-0.71429-5 104.29-5 104.29h-7.8571s-1.4286-97.143-3.5714-103.57z" fill="url(#j)" fill-rule="evenodd"/>
   <path d="m215.71 742.36 128.57-28.571v-30l-48.571-15.714-100 68.571 20 5.7143z" fill="url(#i)" fill-rule="evenodd"/>
  </g>
 </g>
</svg>
