<?xml version="1.0" encoding="UTF-8"?>
<svg viewBox="0 0 800 600" xmlns="http://www.w3.org/2000/svg">
 <g transform="matrix(.85934 0 0 .85934 -977.82 75.968)" fill="#f00" stroke="#ffe3e3" stroke-width="1.1">
  <path d="m1229.9 96.101c-6.821 0.24655-14.472 2.4912-18.554 7.2984-5.937 12.421 8.4852 6.6861 10.181 15.285s-8.4845 9.0748-8.4845 9.0748l-17.355 2.372c8.6988 45.39 22.875 87.932 55.221 121.03l43.615-0.12392v-44.989c0.6222-2.7991 2.6041-7.6924 8.9474-6.4859 8.7575 1.6656 2.9168 15.827 15.567 9.9974 4.1317-3.3825 6.406-9.2585 7.1662-15.037 0.012-0.0902 0.031-0.17146 0.042-0.26167 0.4338-2.0323 0.6537-4.3577 0.561-6.8302-0.2511-6.6978-2.5371-14.211-7.4327-18.218-12.65-5.8296-6.8092 8.3319-15.567 9.9975s-9.2419-8.3312-9.2419-8.3312l-0.042-43.116h-45.845c-2.8746-0.65306-7.6131-2.6404-6.409-8.7444 1.6963-8.5993 16.104-2.8642 10.168-15.285-3.4448-4.0571-9.4149-6.2903-15.3-7.0368l-0.2805-0.0414c-2.0698-0.42599-4.4379-0.64187-6.956-0.55083l-4e-4 1e-5z"/>
  <path d="m2018.7 128.56h-24.239c-2.7829-0.53689-8.186-2.4189-6.9138-8.8683 1.6963-8.5992 16.104-2.8642 10.167-15.285-3.4447-4.0571-9.4148-6.2903-15.3-7.0368l-0.2805-0.0414c-2.0697-0.42599-4.4379-0.64181-6.9559-0.55082-6.8211 0.24662-14.472 2.4912-18.554 7.2984-5.9369 12.421 8.4852 6.6861 10.181 15.285s-8.4845 9.0748-8.4845 9.0748l-43.615 0.12407 0.2804 43.295s0.4844 9.9968 9.2419 8.3313 2.9169-15.827 15.567-9.9974c4.8958 4.0079 7.1817 11.521 7.4328 18.218 0.093 2.4724-0.1272 4.7979-0.561 6.8302-0.011 0.0903-0.03 0.18513-0.042 0.27535-0.7602 5.779-3.0345 11.641-7.1663 15.024-2.3718 1.093-4.0954 1.4891-5.3852 1.3908-5.5893-0.42554-3.0659-10.021-10.181-11.374-8.1712-1.5542-9.0927 6.7595-9.1858 7.918v43.364h45.845c26.78-23.936 35.078-31.699 65.078-121.7 1.5033-4.5098-2.1855 0.73597-6.9287-1.5747z"/>
  <path d="m1886.1 69.619c0.2512 6.6978 2.5371 14.211 7.4328 18.219 12.65 5.8296 6.8092-8.3318 15.567-9.9974s9.2417 8.3312 9.2417 8.3312v43.074l43.503-0.0551s10.181-0.47551 8.4845-9.0748c-1.3782-6.9869-11.164-4.5092-11.598-9.9975-0.1-1.2665 0.3033-2.9589 1.4163-5.2879 4.0817-4.8073 11.733-7.0519 18.554-7.2984 2.518-0.0911 4.8862 0.12482 6.9559 0.55081l0.2805 0.0414c5.8853 0.74643 11.856 2.9796 15.3 7.0368 5.9369 12.421-8.4852 6.6861-10.181 15.285-1.236 6.2654 3.8046 8.2009 6.6473 8.7994l27.988 0.8859c8.1265-43.256-2.207-93.089-25.898-123.69 0 0-10.181 0.47557-8.4847 9.0748s16.118 2.8642 10.182 15.285c-4.0816 4.8072-11.733 7.0519-18.554 7.2984-2.5179 0.0911-4.8862-0.12485-6.9559-0.55083l-0.2804-0.0414c-5.8854-0.74643-11.856-2.9796-15.3-7.0368-1.1131-2.329-1.5165-4.0214-1.4164-5.2879 0.4334-5.4883 10.206-3.0105 11.584-9.9974 1.5828-8.0235-6.8839-8.9283-8.0637-9.0198h-44.162v45.016c-0.6653 2.8227-2.6892 7.4754-8.9054 6.2931-8.7576-1.6656-2.9169-15.813-15.567-9.9837-4.1317 3.3825-6.4062 9.2447-7.1663 15.024-0.012 0.0903-0.031 0.18522-0.042 0.27542-0.4338 2.0324-0.6538 4.3577-0.5611 6.8302v3e-5z"/>
  <path d="m1294.2 127.33v-43.694c0.1221-1.3791 1.1376-9.3497 9.1717-7.8217 8.7575 1.6656 2.917 15.813 15.567 9.9837 4.1319-3.3825 6.4062-9.2448 7.1663-15.024 0.012-0.0902 0.031-0.18522 0.042-0.27542 0.4338-2.0323 0.6536-4.3577 0.561-6.8302-0.2512-6.6977-2.5371-14.211-7.4328-18.218-12.65-5.8296-6.8092 8.3318-15.567 9.9974s-9.2418-8.3312-9.2418-8.3312l-0.2663-43.061-1.0174-7.0059c0.125-59.122-53.662-1.6251-80.715 6.8818-18.472 39.235-26.865 81.223-16.811 126.2l16.881-3.1178s10.181-0.47556 8.4845-9.0748-16.118-2.8642-10.182-15.285c4.0816-4.8072 11.733-7.0519 18.554-7.2984 2.5181-0.091 4.8861 0.12484 6.956 0.55083l0.2804 0.0414c5.8854 0.74643 11.856 2.9796 15.3 7.0368 5.9369 12.421-8.4713 6.6861-10.168 15.285-1.6695 8.4637 8.0619 9.0444 8.3724 9.061h44.064l-1e-4 4e-5h1e-4z"/>
  <path d="m1353.4 282.51c-6.8211-0.24655-14.472-2.4912-18.554-7.2984-5.937-12.421 8.4852-6.6861 10.181-15.285s-8.4846-9.0748-8.4846-9.0748h-43.867l0.055-42.716s0.4843-9.9968 9.2419-8.3312c7.1155 1.3533 4.5922 10.963 10.181 11.388 1.2899 0.0982 3.0134-0.29781 5.3853-1.3909 4.8957-4.0078 7.1816-11.521 7.4327-18.218 0.093-2.4725-0.1271-4.7979-0.5609-6.8302-0.011-0.0902-0.03-0.18517-0.042-0.27541-0.7603-5.779-3.0346-11.641-7.1663-15.024-12.65-5.8296-6.8092 8.3319-15.567 9.9975-6.3807 1.2135-8.3518-3.736-8.9615-6.5273v-45.347l44.022 0.34424s10.181 0.47556 8.4845 9.0748-16.104 2.8642-10.167 15.285c4.0816 4.8072 11.719 7.0518 18.54 7.2984 2.5179 0.091 4.8861-0.12484 6.9558-0.55083l0.2805-0.0414c5.8854-0.74649 11.87-2.9797 15.314-7.0368 5.937-12.421-8.4851-6.6861-10.181-15.285s8.4846-9.0748 8.4846-9.0748l43.615-0.0136v44.989c0.6222 2.7991 2.604 7.6924 8.9473 6.486 8.7575-1.6656 2.9168-15.827 15.567-9.9975 4.1317 3.3825 6.406 9.2585 7.1662 15.038 0.012 0.0902 0.031 0.17141 0.042 0.26161 0.4339 2.0324 0.6537 4.3577 0.5609 6.8302-0.251 6.6978-2.537 14.211-7.4326 18.219-12.65 5.8296-6.8092-8.3319-15.567-9.9974s-9.2419 8.3312-9.2419 8.3312l-0.042 43.116h-45.845c-2.8746 0.65297-7.6131 2.6403-6.409 8.7443 1.6963 8.5993 16.104 2.8642 10.168 15.285-3.4448 4.0571-9.4149 6.2903-15.3 7.0368l-0.2806 0.0414c-2.0697 0.42599-4.4379 0.64186-6.9559 0.55082z"/>
  <path d="m1354.4 160.22c-6.821-0.24655-14.472-2.4912-18.554-7.2984-5.937-12.421 8.4852-6.6861 10.182-15.285s-8.4846-9.0748-8.4846-9.0748h-43.867l0.057-42.716s0.4844-9.9968 9.2419-8.3312c7.1156 1.3533 4.5921 10.963 10.182 11.388 1.2898 0.0982 3.0134-0.2978 5.3852-1.3908 4.8958-4.0078 7.1816-11.521 7.4328-18.218 0.093-2.4725-0.1272-4.7979-0.561-6.8302-0.011-0.0902-0.03-0.18516-0.042-0.27541-0.7601-5.779-3.0344-11.641-7.1663-15.024-12.65-5.8296-6.8092 8.3318-15.567 9.9974-6.3808 1.2135-8.3517-3.736-8.9613-6.5273v-45.347l44.021 0.34425s10.181 0.47555 8.4846 9.0748-16.104 2.8642-10.168 15.285c4.0817 4.8072 11.719 7.0518 18.54 7.2984 2.5182 0.091 4.8863-0.12485 6.9561-0.55083l0.2804-0.0414c5.8853-0.74647 11.87-2.9796 15.314-7.0368 5.937-12.421-8.4852-6.6861-10.182-15.285s8.4846-9.0748 8.4846-9.0748l43.615-0.0136-0.2805 43.295s-0.4843 9.9968-9.2418 8.3312-2.917-15.827-15.567-9.9974c-4.8958 4.0078-7.1816 11.521-7.4328 18.219-0.093 2.4725 0.1272 4.7978 0.561 6.8302 0.011 0.0901 0.03 0.18512 0.042 0.27541 0.7601 5.779 3.0344 11.641 7.1663 15.024 2.3717 1.093 4.0953 1.489 5.3852 1.3908 5.5893-0.42558 3.0659-10.021 10.182-11.374 8.171-1.5541 9.0925 6.7596 9.1856 7.9181v43.364h-45.844c-2.8747 0.65297-7.613 2.6403-6.409 8.7443 1.6963 8.5993 16.104 2.8642 10.167 15.285-3.4448 4.0571-9.4149 6.2903-15.3 7.0368l-0.2804 0.0414c-2.0697 0.42598-4.4379 0.64186-6.956 0.55082z"/>
  <path d="m1295.7-69.868c-23.439 13.798-65 35-83.929 75.357l18.929-0.35715c2.3098-35.662 72.475-31.464 65 5l-0.7099-3.471h45.592c2.783 0.53686 8.186 2.4188 6.9139 8.8683-1.6963 8.5993-16.104 2.8642-10.168 15.285 3.4448 4.0572 9.4149 6.2904 15.3 7.0368l0.2805 0.0414c2.0698 0.42598 4.4378 0.64187 6.9559 0.55083 6.821-0.24656 14.472-2.4912 18.554-7.2984 5.937-12.421-8.4851-6.6861-10.182-15.285s8.4847-9.0748 8.4847-9.0748l43.615-0.12394v-44.989c0.6221-2.7991 2.604-7.6924 8.9473-6.486 8.7575 1.6656 2.9169 15.827 15.567 9.9974 4.1318-3.3825 6.4062-9.2585 7.1663-15.037 0.011-0.0902 0.031-0.17142 0.042-0.26162 0.4339-2.0324 0.6537-4.3577 0.561-6.8302-0.2511-6.6978-2.0247-8.9148-6.9204-12.923-22.016-9.6155-88.024-27.853-150 0v-1e-5h1e-4z"/>
  <path d="m1788.6 373.73 52.822 0.38945c10.401-7.4351 80.778-85.399 124.24-123.99l-51.522 0.51881h-45.816c-2.8506-0.6109-7.834-2.557-6.6054-8.7856 1.6963-8.5992 16.118-2.8642 10.182-15.285-3.4447-4.0571-9.4289-6.2904-15.314-7.0368l-0.2665-0.0414c-2.0697-0.42598-4.4379-0.6418-6.9559-0.55082-6.821 0.24652-14.472 2.4913-18.554 7.2984-5.9369 12.421 8.4852 6.686 10.181 15.285s-8.4845 9.0747-8.4845 9.0747l-43.909 0.0414 0.3226 42.896s0.4843 9.9967 9.2418 8.3312 2.9169-15.827 15.567-9.9975c4.8957 4.0078 7.1816 11.521 7.4327 18.218 0.093 2.4725-0.1271 4.7978-0.5609 6.8302-0.011 0.0903-0.03 0.18513-0.042 0.27536-0.7602 5.7791-3.0345 11.641-7.1663 15.024-12.65 5.8296-6.8091-8.3182-15.567-9.9838-8.6195-1.6394-9.2109 7.9162-9.2278 8.221v43.267-1.5e-4z"/>
  <path d="m1478.6-25c-6.821 0.24654-14.472 2.4912-18.554 7.2984-5.9369 12.421 8.4853 6.6861 10.181 15.285s-8.4845 9.0748-8.4845 9.0748h-43.867v43.694c-0.1222 1.3791-1.1376 9.3497-9.1717 7.8217-8.7576-1.6656-2.9169-15.813-15.567-9.9837-4.1318 3.3825-6.4061 9.2448-7.1664 15.024-0.011 0.0902-0.031 0.18521-0.042 0.27542-0.4338 2.0323-0.6536 4.3577-0.5609 6.8302 0.251 6.6978 2.537 14.211 7.4327 18.218 12.65 5.8296 6.8091-8.3319 15.567-9.9975s9.2418 8.3312 9.2418 8.3312l0.2665 43.061 44.021-0.34423s10.181-0.47556 8.4847-9.0749-16.104-2.8641-10.168-15.285c4.0816-4.8072 11.719-7.0518 18.54-7.2984 2.5179-0.091 4.8861 0.12485 6.9558 0.55082l0.2805 0.0414c5.8855 0.74643 11.87 2.9796 15.314 7.0368 5.9369 12.421-8.4852 6.6861-10.181 15.285s8.4845 9.0748 8.4845 9.0748l43.615 0.0136-0.2805-43.295s-0.4844-9.9968-9.2419-8.3312-2.9169 15.827-15.567 9.9975c-4.8956-4.0078-7.1816-11.521-7.4327-18.219-0.093-2.4725 0.1271-4.7978 0.5609-6.8302 0.011-0.0901 0.03-0.18512 0.042-0.27541 0.7602-5.779 3.0345-11.641 7.1662-15.024 2.372-1.0931 4.0955-1.489 5.3854-1.3908 5.5893 0.42558 3.0659 10.021 10.181 11.374 8.1712 1.5541 9.0926-6.7596 9.1857-7.9181v-43.364h-45.845c-2.8745-0.65296-7.613-2.6403-6.4089-8.7443 1.6963-8.5993 16.104-2.8642 10.167-15.285-3.4447-4.0571-9.4149-6.2903-15.3-7.0368l-0.2806-0.0414c-2.0698-0.42598-4.4379-0.64187-6.9559-0.55083z"/>
  <path d="m1700.8 65.103c-0.2511-6.6978-2.5371-14.211-7.4328-18.219-12.65-5.8296-6.8091 8.3318-15.567 9.9975s-9.2419-8.3312-9.2419-8.3312v-43.074l-43.502 0.0544-35.874-0.0552h-46.167v44.768c-0.5467 2.7327-2.4633 8.0382-9.0315 6.789-8.7575-1.6656-2.9168-15.813-15.567-9.9838-4.1317 3.3824-6.406 9.2448-7.1662 15.024-0.012 0.0903-0.031 0.18513-0.042 0.27536-0.4338 2.0323-0.6537 4.3577-0.5609 6.8302 0.251 6.6978 2.537 14.211 7.4327 18.218 12.65 5.8296 6.8091-8.3318 15.567-9.9975s9.2419 8.3312 9.2419 8.3312l0.1262 42.827h45.816c2.8507 0.611 7.8339 2.5571 6.6053 8.7857-1.6963 8.5992-16.118 2.8642-10.181 15.285 3.4447 4.0571 9.4289 6.2903 15.314 7.0367l0.2665 0.0414c2.0697 0.42609 4.4379 0.64192 6.9559 0.55093 6.821-0.24651 14.472-2.4913 18.554-7.2984 5.9369-12.421-8.4852-6.686-10.181-15.285s8.4845-9.0747 8.4845-9.0747l43.909-0.0414v-45.016c0.6651-2.8227 2.689-7.4754 8.9053-6.2931 8.7576 1.6656 2.9169 15.813 15.567 9.9836 4.1318-3.3824 6.4061-9.2447 7.1663-15.024 0.012-0.0903 0.031-0.18524 0.042-0.27546 0.4338-2.0323 0.6536-4.3577 0.5609-6.8302l1e-4 8.1e-4z"/>
  <path d="m1574.5 192.71c-0.2511 6.6978-2.537 14.211-7.4328 18.218-12.65 5.8297-6.8091-8.3318-15.567-9.9974s-9.2419 8.3313-9.2419 8.3313v43.074l-43.502-0.0544s-10.181-0.47551-8.4846-9.0749c1.3782-6.9869 11.164-4.5092 11.598-9.9974 0.1-1.2665-0.3033-2.9589-1.4164-5.2879-4.0816-4.8073-11.733-7.0518-18.554-7.2984-2.5181-0.0914-4.8862 0.12484-6.9559 0.55082l-0.2805 0.0414c-5.8854 0.7465-11.856 2.9797-15.3 7.0368-5.9369 12.421 8.4852 6.6861 10.182 15.285 1.2359 6.2654-3.8048 8.2009-6.6474 8.7995h-46.181l0.3505-43.226s0.4844-9.9968 9.2419-8.3312 2.9169 15.813 15.567 9.9836c4.8957-4.0079 7.1816-11.507 7.4327-18.205 0.093-2.4724-0.1271-4.7978-0.5609-6.8301-0.011-0.0903-0.03-0.18523-0.042-0.27546-0.7603-5.779-3.0345-11.655-7.1663-15.037-12.65-5.8297-6.8092 8.3318-15.567 9.9974s-9.2419-8.3313-9.2419-8.3313l-0.014-42.827h45.817c2.8506-0.6109 7.8339-2.5569 6.6053-8.7856-1.6963-8.5992-16.118-2.8641-10.181-15.285 3.4447-4.0571 9.4288-6.2903 15.314-7.0367l0.2664-0.0414c2.0698-0.42609 4.438-0.64191 6.956-0.55082 6.821 0.24652 14.472 2.4912 18.554 7.2983 5.9368 12.421-8.4853 6.6861-10.182 15.285s8.4845 9.0748 8.4845 9.0748l43.909 0.0414v45.016c0.665 2.8227 2.6889 7.4755 8.9052 6.2932 8.7576-1.6656 2.9169-15.813 15.567-9.9837 4.1318 3.3825 6.4061 9.2448 7.1663 15.024 0.012 0.0903 0.031 0.18524 0.042 0.27546 0.4338 2.0323 0.6537 4.3577 0.561 6.8302z"/>
  <path d="m1633.4 191.51c0.2511 6.6978 2.537 14.211 7.4327 18.219 12.65 5.8296 6.8091-8.3318 15.567-9.9975s9.2419 8.3312 9.2419 8.3312v43.074l43.503-0.0544s10.181-0.4755 8.4845-9.0748-16.118-2.8641-10.182-15.285c4.0816-4.8072 11.733-7.0519 18.554-7.2984 2.518-0.0914 4.8861 0.12484 6.9559 0.55082l0.2805 0.0414c5.8853 0.7464 11.856 2.9797 15.3 7.0368 5.9369 12.421-8.4852 6.686-10.181 15.285-1.2362 6.267 3.8201 8.2015 6.6614 8.7994h46.167v-44.768c0.5467-2.7326 2.4633-8.0382 9.0315-6.789 8.7575 1.6656 2.9168 15.813 15.567 9.9837 4.1317-3.3824 6.4061-9.2447 7.1662-15.024 0.012-0.0903 0.031-0.18513 0.042-0.27536 0.4339-2.0323 0.6537-4.3577 0.561-6.8302-0.2511-6.6978-2.5371-14.211-7.4328-18.218-12.65-5.8296-6.8091 8.3318-15.567 9.9975s-9.2418-8.3312-9.2418-8.3312l-0.1263-42.827h-45.816c-2.8506-0.61101-7.8339-2.5571-6.6053-8.7857 1.6963-8.5992 16.118-2.8642 10.182-15.285-3.4448-4.0571-9.429-6.2903-15.314-7.0367l-0.2665-0.0414c-2.0697-0.4261-4.4379-0.64192-6.9559-0.55093-6.821 0.24651-14.472 2.4912-18.554 7.2984-5.9369 12.421 8.4852 6.686 10.182 15.285s-8.4846 9.0747-8.4846 9.0747l-43.909 0.0414v45.016c-0.6651 2.8227-2.689 7.4754-8.9053 6.2931-8.7576-1.6656-2.9169-15.813-15.567-9.9836-4.1317 3.3824-6.4061 9.2447-7.1663 15.024-0.012 0.0903-0.031 0.18523-0.042 0.27546-0.4338 2.0323-0.6536 4.3577-0.5609 6.8302z"/>
  <path d="m1602.3 282.91c-6.8211-0.24654-14.472-2.4912-18.554-7.2984-5.937-12.421 8.4852-6.6861 10.181-15.285s-8.4846-9.0748-8.4846-9.0748h-43.867l0.056-42.716s0.4844-9.9968 9.2419-8.3312c7.1155 1.3533 4.5921 10.963 10.181 11.388 1.2899 0.0982 3.0134-0.2978 5.3853-1.3908 4.8957-4.0078 7.1816-11.521 7.4327-18.218 0.093-2.4725-0.1271-4.7979-0.5609-6.8302-0.011-0.0902-0.03-0.18516-0.042-0.27541-0.7602-5.779-3.0345-11.641-7.1663-15.024-12.65-5.8296-6.8092 8.3318-15.567 9.9974-6.3808 1.2135-8.3518-3.736-8.9614-6.5272v-45.347l44.021 0.34424s10.181 0.47556 8.4847 9.0748-16.104 2.8642-10.168 15.285c4.0816 4.8072 11.719 7.0518 18.54 7.2984 2.5181 0.091 4.8862-0.12485 6.956-0.55083l0.2804-0.0414c5.8854-0.74647 11.87-2.9796 15.314-7.0368 5.937-12.421-8.4852-6.6861-10.181-15.285s8.4846-9.0748 8.4846-9.0748l43.615-0.0136-0.2804 43.295s-0.4844 9.9968-9.2419 8.3312-2.9169-15.827-15.567-9.9974c-4.8957 4.0078-7.1815 11.521-7.4327 18.219-0.093 2.4725 0.1271 4.7978 0.5609 6.8302 0.011 0.0901 0.03 0.18512 0.042 0.27541 0.7602 5.779 3.0345 11.641 7.1663 15.024 2.3718 1.0931 4.0953 1.489 5.3853 1.3908 5.5892-0.42558 3.0659-10.021 10.181-11.374 8.1711-1.5541 9.0926 6.7596 9.1857 7.9181v43.364h-45.845c-2.8746 0.65298-7.613 2.6403-6.4089 8.7443 1.6963 8.5993 16.104 2.8642 10.167 15.285-3.4448 4.0571-9.4149 6.2903-15.3 7.0368l-0.2804 0.0414c-2.0697 0.42598-4.4379 0.64186-6.9559 0.55082z"/>
  <path d="m1667.8 127.07 43.502-0.0551s10.181-0.47556 8.4845-9.0748c-1.3781-6.9869-11.164-4.5091-11.598-9.9975-0.1-1.2665 0.3032-2.9589 1.4164-5.2879 4.0816-4.8072 11.733-7.0518 18.554-7.2984 2.5179-0.091 4.886 0.12488 6.9558 0.55082l0.2805 0.0414c5.8854 0.74643 11.856 2.9796 15.3 7.0368 5.9368 12.421-8.4853 6.6861-10.182 15.285-1.236 6.2654 3.8048 8.2008 6.6474 8.7994h46.181v-44.768c0.5466-2.7326 2.4632-8.0381 9.0315-6.7889 8.7575 1.6656 2.9168 15.813 15.567 9.9836 4.1318-3.3824 6.4061-9.2447 7.1663-15.024 0.012-0.0903 0.031-0.18525 0.042-0.27541 0.4339-2.0324 0.6536-4.3577 0.561-6.8302-0.2512-6.6978-2.5371-14.211-7.4328-18.219-12.65-5.8296-6.8091 8.3318-15.567 9.9975s-9.2419-8.3312-9.2419-8.3312l-0.1263-42.827h-45.816c-2.8507-0.61093-7.834-2.557-6.6053-8.7856 1.6961-8.5993 16.118-2.8642 10.181-15.285-3.4446-4.0571-9.4288-6.2903-15.314-7.0368l-0.2663-0.0414c-2.0698-0.42594-4.438-0.64182-6.9561-0.55082-6.821 0.24659-14.472 2.4912-18.554 7.2984-5.9368 12.421 8.4852 6.6861 10.182 15.285s-8.4845 9.0748-8.4845 9.0748l-43.909 0.0414 0.3225 42.895s0.4843 9.9968 9.2418 8.3312 2.9169-15.827 15.567-9.9974c4.8958 4.0078 7.1818 11.521 7.4328 18.218 0.093 2.4725-0.1271 4.7979-0.561 6.8302-0.011 0.0902-0.03 0.18517-0.042 0.27541-0.7601 5.779-3.0344 11.641-7.1661 15.024-12.65 5.8296-6.8092-8.3181-15.567-9.9837-8.6193-1.6393-9.2109 7.9162-9.2278 8.2211v43.267z"/>
  <path d="m1725.9 218.87c-6.821 0.24654-14.472 2.4912-18.554 7.2984-5.937 12.421 8.4852 6.6861 10.181 15.285s-8.4845 9.0748-8.4845 9.0748h-43.867l0.056 42.716s0.4844 9.9968 9.2419 8.3312 2.9169-15.827 15.567-9.9975c4.8958 4.0079 7.1816 11.521 7.4328 18.219 0.093 2.4725-0.1271 4.7978-0.561 6.8302-0.011 0.0902-0.03 0.18517-0.042 0.2754-0.7601 5.779-3.0344 11.641-7.1661 15.024-12.65 5.8296-6.8092-8.3319-15.567-9.9974-6.3824-1.2138-8.3524 3.7512-8.9615 6.541v45.333h45.592c2.7829 0.53682 8.1861 2.4188 6.9138 8.8683-1.6961 8.5993-16.104 2.8642-10.167 15.285 3.4447 4.0571 9.4149 6.2903 15.3 7.0368l0.2804 0.0414c2.0697 0.42599 4.4379 0.64186 6.956 0.55081 6.821-0.24653 14.472-2.4912 18.554-7.2984 5.937-12.421-8.4852-6.6861-10.181-15.285s8.4845-9.0748 8.4845-9.0748l43.615-0.12392v-44.989c0.6221-2.7991 2.6041-7.6924 8.9474-6.4859 8.7575 1.6656 2.9168 15.827 15.567 9.9975 4.1317-3.3825 6.406-9.2585 7.1662-15.038 0.012-0.0902 0.031-0.17146 0.042-0.26166 0.4338-2.0323 0.6537-4.3577 0.561-6.8302-0.2511-6.6978-2.5371-14.211-7.4327-18.218-12.65-5.8296-6.8092 8.3319-15.567 9.9975s-9.2419-8.3312-9.2419-8.3312l-0.042-43.116h-45.845c-2.8746-0.65306-7.6131-2.6404-6.409-8.7444 1.6963-8.5993 16.104-2.8642 10.168-15.285-3.4448-4.0571-9.4149-6.2903-15.3-7.0368l-0.2805-0.0414c-2.0698-0.42599-4.4379-0.64187-6.956-0.55083z"/>
  <path d="m1853.2-27.177c-6.821 0.24654-14.472 2.4912-18.554 7.2984-5.9369 12.421 8.4852 6.6861 10.182 15.285s-8.4846 9.0748-8.4846 9.0748h-43.867l0.056 42.716s0.4843 9.9968 9.2418 8.3312c7.1156-1.3533 4.5921-10.963 10.182-11.388 1.2898-0.0982 3.0134 0.2978 5.3852 1.3908 4.8958 4.0078 7.1816 11.521 7.4328 18.218 0.093 2.4725-0.1272 4.7979-0.561 6.8302-0.011 0.0902-0.03 0.18516-0.042 0.27541-0.7601 5.779-3.0344 11.641-7.1663 15.024-12.65 5.8296-6.8092-8.3318-15.567-9.9974-6.3807-1.2135-8.3517 3.736-8.9613 6.5272v45.347l44.021-0.34424s10.181-0.47556 8.4846-9.0748-16.104-2.8642-10.168-15.285c4.0817-4.8072 11.719-7.0518 18.54-7.2984 2.5182-0.091 4.8863 0.12485 6.9561 0.55083l0.2804 0.0414c5.8853 0.74647 11.87 2.9796 15.314 7.0368 5.937 12.421-8.4852 6.6861-10.182 15.285s8.4846 9.0748 8.4846 9.0748l43.615 0.0136-0.2805-43.295s-0.4843-9.9968-9.2418-8.3312-2.917 15.827-15.567 9.9974c-4.8958-4.0078-7.1816-11.521-7.4328-18.219-0.093-2.4725 0.1272-4.7978 0.561-6.8302 0.011-0.0901 0.03-0.18512 0.042-0.27541 0.7601-5.779 3.0344-11.641 7.1663-15.024 2.3717-1.0931 4.0953-1.489 5.3852-1.3908 5.5893 0.42558 3.066 10.021 10.182 11.374 8.171 1.5541 9.0926-6.7596 9.1857-7.9181v-43.364h-45.845c-2.8746-0.65298-7.613-2.6403-6.409-8.7443 1.6963-8.5993 16.104-2.8642 10.167-15.285-3.4447-4.0571-9.4149-6.2903-15.3-7.0368l-0.2804-0.0414c-2.0697-0.42598-4.4379-0.64186-6.956-0.55082z"/>
  <path d="m1663.9 372.35v43.694c-0.1221 1.3791-1.1375 9.3497-9.1718 7.8217-8.7574-1.6656-2.9168-15.813-15.567-9.9837-4.1317 3.3825-6.4059 9.2447-7.1662 15.024-0.012 0.0902-0.031 0.18521-0.042 0.2754-0.4338 2.0324-0.6537 4.3577-0.5609 6.8302 0.251 6.6978 2.537 14.211 7.4327 18.218 12.65 5.8296 6.8091-8.3318 15.567-9.9974s9.2418 8.3312 9.2418 8.3312l0.2665 43.061 44.021-0.34426c1.0911 10.554 26.189-14.022 37.727-25.145 8.1527-8.8662 14.278-15.274 40-40l60-60-100.09 2.5322s-10.181 0.47553-8.4845 9.0748 16.118 2.8642 10.181 15.285c-4.0816 4.8072-11.733 7.0518-18.554 7.2984-2.5181 0.091-4.8863-0.12484-6.956-0.55083l-0.2804-0.0414c-5.8853-0.74644-11.856-2.9796-15.3-7.0368-5.9369-12.421 8.4712-6.6861 10.167-15.285 1.6694-8.4636-8.0619-9.0444-8.3724-9.0611h-44.064l1e-4 -4e-5z"/>
  <path d="m1852.2 96.498c-6.821 0.24654-14.472 2.4912-18.554 7.2984-5.937 12.421 8.4852 6.6861 10.182 15.285s-8.4847 9.0748-8.4847 9.0748h-43.867l0.055 42.716s0.4843 9.9968 9.2419 8.3312c7.1155-1.3533 4.5922-10.963 10.182-11.388 1.2898-0.0982 3.0133 0.29781 5.3852 1.3909 4.8958 4.0078 7.1816 11.521 7.4327 18.218 0.093 2.4725-0.1271 4.7979-0.5609 6.8302-0.011 0.0902-0.03 0.18516-0.042 0.27541-0.7603 5.779-3.0346 11.641-7.1663 15.024-12.65 5.8296-6.8092-8.3318-15.567-9.9974-6.3807-1.2135-8.3518 3.736-8.9614 6.5273v45.347l44.021-0.34423s10.181-0.47556 8.4846-9.0748-16.104-2.8642-10.167-15.285c4.0816-4.8072 11.719-7.0518 18.54-7.2984 2.5179-0.091 4.8861 0.12485 6.9558 0.55083l0.2806 0.0414c5.8853 0.74648 11.87 2.9797 15.314 7.0368 5.937 12.421-8.4851 6.6861-10.181 15.285s8.4846 9.0748 8.4846 9.0748l43.615 0.0136v-44.989c0.6222-2.7991 2.604-7.6924 8.9473-6.486 8.7575 1.6656 2.9168 15.827 15.567 9.9974 4.1317-3.3825 6.406-9.2585 7.1662-15.038 0.012-0.0902 0.031-0.1714 0.042-0.2616 0.4339-2.0324 0.6537-4.3577 0.5609-6.8302-0.251-6.6978-2.537-14.211-7.4326-18.219-12.65-5.8296-6.8092 8.3319-15.567 9.9975s-9.2419-8.3312-9.2419-8.3312l-0.042-43.116h-45.844c-2.8747-0.65298-7.6131-2.6403-6.4091-8.7443 1.6963-8.5993 16.104-2.8642 10.168-15.285-3.4448-4.0571-9.4149-6.2903-15.3-7.0368l-0.2806-0.0414c-2.0697-0.42598-4.4378-0.64186-6.9559-0.55081z"/>
  <path d="m1715.7-59.868c-17.654 5.7864-101.12 55.13-111.43 66.429l65.28-1.0984 44.021-0.34425s10.181-0.47556 8.4846-9.0748-16.104-2.8642-10.168-15.285c4.0817-4.8072 11.719-7.0518 18.54-7.2984 2.5181-0.091 4.8862 0.12484 6.956 0.55083l0.2804 0.0414c5.8854 0.74648 11.87 2.9796 15.314 7.0368 5.937 12.421-8.4852 6.6861-10.181 15.285s8.4845 9.0748 8.4845 9.0748l43.615 0.0137v-44.989c0.6223-2.7991 2.6042-7.6924 8.9474-6.486 8.7575 1.6656 2.9168 15.827 15.567 9.9975 4.1318-3.3825 6.4061-9.2585 7.1663-15.037 0.012-0.0902 0.031-0.17143 0.042-0.26163 0.4338-2.0323 0.6537-4.3577 0.5609-6.8302-0.251-6.6978-1.482-16.724-7.4327-18.219l-19.049-3.5053c-35 0-59.621 11.265-85 20h1e-4z"/>
  <path d="m1475.1 219.63c-6.821 0.24654-14.472 2.4912-18.554 7.2984-5.9368 12.421 8.4853 6.6861 10.182 15.285s-8.4845 9.0748-8.4845 9.0748h-43.867v43.694c-0.1222 1.3791-1.1377 9.3497-9.1717 7.8217-8.7575-1.6656-2.917-15.813-15.567-9.9837-4.1318 3.3824-6.4062 9.2447-7.1663 15.024-0.012 0.0903-0.031 0.18521-0.042 0.27541-0.4339 2.0324-0.6538 4.3577-0.5611 6.8302 0.2512 6.6978 2.5371 14.211 7.4329 18.219 12.65 5.8296 6.8091-8.3318 15.567-9.9974s9.2417 8.3312 9.2417 8.3312l0.2665 43.061h45.592c2.7829 0.53681 8.1861 2.4188 6.9139 8.8683-1.6963 8.5993-16.104 2.8641-10.168 15.285 3.4448 4.0571 9.4149 6.2903 15.3 7.0368l0.2806 0.0414c2.0698 0.42599 4.4377 0.64186 6.9559 0.55082 6.821-0.24654 14.472-2.4912 18.554-7.2984 5.9369-12.421-8.4852-6.6861-10.182-15.285s8.4845-9.0748 8.4845-9.0748l43.615-0.12392-0.2806-43.295s-0.4842-9.9968-9.2418-8.3312-2.9169 15.827-15.567 9.9975c-4.8957-4.0078-7.1816-11.521-7.4328-18.218-0.093-2.4725 0.1273-4.7979 0.561-6.8302 0.011-0.0902 0.03-0.18516 0.042-0.27542 0.7602-5.779 3.0345-11.641 7.1663-15.024 12.65-5.8296 6.8092 8.3181 15.567 9.9837 8.1709 1.5541 9.0925-6.76 9.1855-7.9181v-43.364h-45.844c-2.8747-0.653-7.6129-2.6403-6.4089-8.7443 1.6962-8.5993 16.104-2.8642 10.167-15.285-3.4448-4.0571-9.4149-6.2903-15.3-7.0368l-0.2806-0.0414c-2.0696-0.42599-4.4378-0.64186-6.9558-0.55082z"/>
  <path d="m1610.7 605.13 105-110-94.647 0.81104s-10.181 0.47552-8.4847 9.0748 16.118 2.8642 10.182 15.285c-4.0815 4.8072-11.733 7.0519-18.554 7.2984-2.518 0.0911-4.8861-0.1248-6.9559-0.55084l-0.2805-0.0416c-5.8853-0.74641-11.856-2.9796-15.3-7.0367-5.9368-12.421 8.4711-6.6861 10.167-15.285 1.6696-8.4636-8.0619-9.0444-8.3723-9.0611l-82.755-0.494 110 110z"/>
  <path d="m1415.7-79.868c20 5 20 5 30 10 4.8957 4.0079 5.3947 6.4706 5.6458 13.168 0.093 2.4725-0.1272 4.7979-0.5609 6.8302-0.011 0.0902-0.03 0.18514-0.042 0.27538-0.7603 5.779-3.0346 11.641-7.1664 15.024-12.65 5.8296-6.8091-8.3318-15.567-9.9974-6.3807-1.2135-8.3517 3.736-8.9612 6.5272v45.347l44.021-0.34425s10.181-0.47557 8.4846-9.0748-16.104-2.8642-10.168-15.285c4.0816-4.8072 11.719-7.0518 18.54-7.2984 2.518-0.091 4.8862 0.1248 6.9559 0.55083l0.2805 0.0416c5.8854 0.74642 11.87 2.9796 15.314 7.0368 5.9369 12.421-8.4851 6.6861-10.181 15.285s8.4846 9.0748 8.4846 9.0748l43.615 0.0135 54.876-1.1026c-60.164-23.39-117.67-69.784-183.57-86.071h-1e-4z"/>
  <path d="m1818.9-75.839c6.6318 6.4212 8.5251 16.172 6.8718 25.035-0.011 0.0903-0.03 0.18524-0.042 0.27546-0.7601 5.7791-3.0344 11.655-7.1662 15.038-12.65 5.8296-6.8092-8.3319-15.567-9.9974s-9.2418 8.3312-9.2419 8.3312l-0.014 42.827 44.092-0.27547s10.181-0.47561 8.4845-9.0748-16.118-2.8642-10.181-15.285c4.0816-4.8072 11.733-7.0518 18.554-7.2984 2.518-0.0914 4.8861 0.12483 6.9559 0.55082l0.2805 0.0414c5.8853 0.7464 11.856 2.9796 15.3 7.0367 1.1132 2.3291 1.5164 4.0215 1.4164 5.288-0.4334 5.4883-10.206 3.0105-11.584 9.9974-1.5827 8.0235 6.884 8.9283 8.0638 9.0197h44.162l44.423-2.1619c4.0842 2.101-3.5298 27.184 1.9523 31.625 8.098 6.5601 43.499 6.0041 45-10 0.4378-4.668-12.612-18.963-15-25-11.206-13.749-22.429-27.466-36.923-35.297-61.822-45.805-112.79-43.529-163.08-44.703l23.241 4.0292z"/>
  <path d="m1507.8 315.18c0.2512 6.6978 2.5371 14.211 7.4328 18.219 12.65 5.8296 6.8091-8.3318 15.567-9.9975s9.2417 8.3312 9.2417 8.3312v43.074l43.503-0.0551s10.181-0.4755 8.4845-9.0748c-1.3782-6.9869-11.164-4.5092-11.598-9.9974-0.1-1.2666 0.3033-2.959 1.4163-5.2879 4.0817-4.8072 11.733-7.0519 18.554-7.2984 2.518-0.0911 4.8862 0.12483 6.9559 0.55081l0.2805 0.0414c5.8853 0.74643 11.856 2.9796 15.3 7.0367 5.9369 12.421-8.4852 6.6861-10.181 15.285-1.236 6.2654 3.8046 8.2009 6.6473 8.7994h46.181v-44.768c0.5468-2.7326 2.4634-8.0381 9.0315-6.7889 8.7575 1.6656 2.917 15.813 15.567 9.9837 4.1317-3.3824 6.406-9.2447 7.1663-15.024 0.012-0.0902 0.031-0.18521 0.042-0.27541 0.4338-2.0324 0.6536-4.3577 0.5609-6.8302-0.2511-6.6978-2.537-14.211-7.4327-18.219-12.65-5.8296-6.8092 8.3318-15.567 9.9974s-9.2418-8.3312-9.2418-8.3312l-0.1263-42.827-44.092 0.27541s-10.181 0.47557-8.4846 9.0748 16.118 2.8642 10.182 15.285c-4.0817 4.8072-11.733 7.0519-18.554 7.2984-2.5179 0.0911-4.8862-0.12484-6.9559-0.55083l-0.2805-0.0414c-5.8853-0.74643-11.855-2.9796-15.3-7.0368-1.1131-2.329-1.5165-4.0214-1.4164-5.2879 0.4334-5.4883 10.206-3.0105 11.584-9.9974 1.5828-8.0235-6.8839-8.9283-8.0638-9.0198h-44.162v45.016c-0.6652 2.8227-2.6892 7.4754-8.9053 6.2931-8.7577-1.6656-2.9169-15.813-15.567-9.9837-4.1318 3.3825-6.4062 9.2447-7.1663 15.024-0.012 0.0903-0.031 0.18522-0.042 0.27542-0.4339 2.0324-0.6538 4.3577-0.5611 6.8302z"/>
  <path d="m1599.9 340.75c-6.821 0.24656-14.472 2.4912-18.554 7.2984-5.9368 12.421 8.4852 6.6861 10.182 15.285s-8.4845 9.0749-8.4845 9.0749h-43.867l0.057 42.716s0.4842 9.9968 9.2417 8.3312c7.1156-1.3532 4.5922-10.963 10.182-11.388 1.2898-0.0982 3.0134 0.29776 5.3853 1.3908 4.8957 4.0079 7.1816 11.521 7.4327 18.219 0.093 2.4725-0.1272 4.7978-0.561 6.8302-0.011 0.0902-0.03 0.18516-0.042 0.27541-0.7601 5.779-3.0346 11.641-7.1663 15.024-12.65 5.8296-6.8092-8.3318-15.567-9.9974-6.3806-1.2135-8.3518 3.7361-8.9613 6.5273v45.347h45.592c2.7829 0.53682 8.186 2.4188 6.9139 8.8683-1.6963 8.5993-16.104 2.8642-10.168 15.285 3.4448 4.0571 9.4149 6.2903 15.3 7.0368l0.2806 0.0414c2.0697 0.42598 4.4379 0.64187 6.9559 0.55082 6.821-0.24654 14.472-2.4912 18.554-7.2984 5.9369-12.421-8.4853-6.6861-10.182-15.285s8.4845-9.0748 8.4845-9.0748l43.615-0.12391-0.2805-43.295s-0.4843-9.9968-9.2418-8.3312-2.917 15.827-15.567 9.9974c-4.8957-4.0078-7.1817-11.521-7.4328-18.218-0.093-2.4725 0.1272-4.7979 0.561-6.8302 0.011-0.0902 0.03-0.18517 0.042-0.27541 0.7602-5.779 3.0345-11.641 7.1663-15.024 2.3718-1.0931 4.0954-1.489 5.3853-1.3908 5.5893 0.42555 3.0659 10.021 10.181 11.375 8.1711 1.5541 9.0927-6.7596 9.1858-7.9181v-43.364h-45.845c-2.8746-0.65306-7.613-2.6404-6.409-8.7444 1.6963-8.5993 16.104-2.8642 10.167-15.285-3.4446-4.0571-9.4149-6.2903-15.3-7.0368l-0.2804-0.0414c-2.0698-0.42598-4.438-0.64186-6.956-0.55083z"/>
  <path d="m1375.7 375.13 70 70 50 50 43.239-0.36704v-44.989c0.6221-2.7991 2.604-7.6924 8.9473-6.486 8.7576 1.6656 2.9169 15.827 15.567 9.9975 4.1319-3.3825 6.4062-9.2585 7.1663-15.037 0.012-0.0902 0.031-0.17145 0.042-0.26164 0.4339-2.0324 0.6538-4.3577 0.561-6.8302-0.2511-6.6978-2.537-14.211-7.4328-18.218-12.65-5.8296-6.809 8.3318-15.567 9.9974s-9.2418-8.3312-9.2418-8.3312l-0.042-43.116-43.685 0.31675s-10.181 0.47551-8.4844 9.0748 16.118 2.8642 10.182 15.285c-4.0817 4.8072-11.733 7.0519-18.554 7.2984-2.518 0.091-4.8861-0.12484-6.9559-0.55083l-0.2804-0.0414c-5.8854-0.74643-11.856-2.9796-15.3-7.0368-5.9369-12.421 8.4712-6.6861 10.167-15.285 1.6696-8.4636-8.0618-9.0444-8.3723-9.061h-44.064l-37.892 3.6415z"/>
  <path d="m1372.5 372.82 43.853-0.26175-0.3506-43.226s-0.4843-9.9968-9.2419-8.3312-2.9169 15.813-15.567 9.9837c-4.8957-4.0079-7.1816-11.507-7.4327-18.205-0.093-2.4725 0.1271-4.7979 0.561-6.8302 0.011-0.0903 0.03-0.18524 0.042-0.27547 0.7601-5.779 3.0344-11.655 7.1662-15.037 12.65-5.8296 6.8092 8.3318 15.567 9.9975s9.2419-8.3312 9.2419-8.3312l0.014-42.827-44.092 0.27546s-10.181 0.47551-8.4845 9.0748 16.118 2.8642 10.181 15.285c-4.0816 4.8073-11.733 7.0519-18.554 7.2985-2.518 0.0914-4.8862-0.12495-6.9559-0.55082l-0.2805-0.0414c-5.8853-0.7465-11.856-2.9796-15.3-7.0368-1.1132-2.329-1.5165-4.0214-1.4164-5.2879 0.4333-5.4883 10.206-3.0105 11.584-9.9975 1.5827-8.0235-6.884-8.9284-8.0638-9.0198l-79.307 0.65481 35 40 81.835 82.688z"/>
 </g>
</svg>
