<?xml version="1.0" encoding="UTF-8"?>
<svg viewBox="0 0 2656 4591" xmlns="http://www.w3.org/2000/svg">
 <defs>
  <filter id="f">
   <feGaussianBlur stdDeviation="7.51601"/>
  </filter>
  <filter id="a" x="-2.0755" y="-.73496" width="5.151" height="2.4699">
   <feGaussianBlur stdDeviation="4.51732"/>
  </filter>
  <filter id="g" x="-.72725" y="-.13586" width="2.4545" height="1.2717">
   <feGaussianBlur stdDeviation="12.52632"/>
  </filter>
  <filter id="e" x="-.09638" y="-.98387" width="1.1928" height="2.9677">
   <feGaussianBlur stdDeviation="3.42037"/>
  </filter>
  <filter id="d" x="-.09393" y="-.26296" width="1.1878" height="1.5259">
   <feGaussianBlur stdDeviation="3.42037"/>
  </filter>
  <filter id="c" x="-.12295" y="-.75507" width="1.2459" height="2.5101">
   <feGaussianBlur stdDeviation="3.42037"/>
  </filter>
  <filter id="b" x="-.11659" y="-.24745" width="1.2332" height="1.4949">
   <feGaussianBlur stdDeviation="3.42037"/>
  </filter>
 </defs>
 <path d="m953.22 1777.6 102.13-99.699 184.81-51.065 211.56-19.453 286.94 29.18 138.61 19.453 158.06 43.77 97.267 201.83-9.7267 133.74-41.338 167.79-77.814 179.94-65.655 48.633-128.88 17.022-206.69 21.885-338-14.59-162.92-29.18-143.47-63.224-65.655-160.49-2.4317-182.38 41.338-211.56 21.885-31.612z" fill="#673827"/>
 <path d="m1460.7 931.04c-104.9-18.068-161.36 68.093-253.65 52.001-18.428 21.25 45.616 51.527 51.472 71.271 50.975 59.612 85.773 130.32 132.4 192.58 39.811 43.586 96.322 82.726 158.4 66.629 90.531-5.5309 153.16-86.097 227.21-129.49 40.365-30.703 116.53-60.642 150.59-97.399-19.072-21.798-49.67-31.574-88.687-47.266-63.394-41.812-71.065-31.023-199.09-88.417-47.21-30.938-125.74-26.529-178.65-19.908z" fill="#f60"/>
 <path d="m996.91 3682.3c2.0894 34.624 11.075 80.449-24.932 99.084-62.309 40.273-171.75 65.417-212.97 116.96 20.306 27.317 87.748-8.629 120.54 0.8514 50.828 0.4689 102.41 10.852 139.29 47.896 18.628 24.727 46.146 34.629 53.088-1.5045 14.197-28.956 35.513-57.217 71.357-54.593 43.723-12.028 92.2 16.559 134.55 16.765 5.2817-30.443-46.34-52.378-66.414-70.712-40.073-32.034-96.913-45.782-126.38-88.767-9.9361-30.063 32.636-81.643-2.4444-101.31-1.7099-35.342-88.716 0.8641-85.678 35.329z" fill="#f60"/>
 <path d="m1739.1 3698.4c-60.312-3.905-2.537 71.694-38.903 89.841-65.06 43.797-147.2 56.997-211.06 100.8-10.26 29.733 32.933 16.538 47.715 11.176 63.371-12.39 128.39 10.774 185.06 36.323 23.002 49.765 44.757 15.385 60.396-7.5226 64.267-51.626 168.98-21.122 244.2-36.201 17.477-26.052-50.945-40.332-65.182-49.972-57.208-23.799-125.51-33.619-172.36-75.885 4.6963-33.276 10.912-74.139-49.864-68.563z" fill="#f60"/>
 <g transform="matrix(1.101 0 0 .9994 -154.64 -2.2149)" fill="none" filter="url(#f)" opacity=".88" stroke="#1e120b" stroke-width="9.1">
  <path d="m980.09 1829.6c258.67-74.582 517.82-135.36 1062.6 48.145"/>
  <path d="m2056.5 1977.4c-364.01-111.94-732.96-144.43-1097-27.511"/>
  <path d="m949.14 2049.6c378.29 87.234 747.38 82.049 1107.3 13.756"/>
  <path d="m938.82 2142.5c370.36 53.448 733.39 82.493 1076.4 44.706"/>
  <path d="m1994.6 2314.4c-336.13 31.537-676.06 21.127-1021.4-48.145"/>
  <path d="m2008.3 1764.2c-450.22-99.173-752.78-81.456-983.53-6.8778"/>
  <path d="m976.65 2335.1c307.47 62.08 694.21 102.56 983.53 37.828"/>
  <path d="m966.33 2001.5c347.66-30.607 704.71-29.932 1079.8 30.95"/>
 </g>
 <path d="m890.51 1429.8c-23.778 10.229-42.913 42.034-41.052 65.554 63.025 56.603 118.19 124.89 187.85 172.38 24.521-2.5811 67.542-25.158 31.586-48.63-56.693-61.076-92.984-148.66-169.57-188.65-2.8624-0.7508-5.8652-1.2749-8.8122-0.6448z" fill="#c87137"/>
 <path d="m1472.6 417.38c-221.37 84.285-205.33 77.08-283.64 152.93-64.59 74.48-129.45 162.28-143.41 271.5-4.5708 104.44 34.204 206.86 23.129 310.73-30.421 87.405-134.54 156.75-153.91 248.46-5.0514 29.965 33.679 31.97 47.07 52.658 19.596 27.17 49.028 40.887 68.133 6.233 67.214-88.733 124.54-188.08 160.98-293.6 25.021-73.047-4.3512-152.33-20.204-219.88 21.485 20.934 53.63 46.619 36.538-13.111 15.582-85.564 24.254-191.64 111.33-237.28 58.816-39.499 137.25-9.5839 168.72 49.864 34.34 54.37 21.512 119.59 28.409 181.83 17.791 31.03 125.96 49.3 110.71-16.12 21.241-85.334 64.22-181.29 162.43-193.38 64.416 24.982 104.6 83.622 116.71 134.06 18.343 74.654-30.678 157.88 14.83 226.11 11.826 13.307 44.975-5.1837 29.016 24.287-36.408 96.751-53.711 207.83-11.606 306.49 21.278 46.591 22.39 120.36 56.54 159.09 35.205 8.6764 52.256-59.962 68.006-81.246 30.056-30.189 9.4188-63.168-5.044-94.61-38.518-99.278-56.363-214.32-7.9728-314.25 56.957-116.67 41.518-255.67-17.389-368.37-46.652-103.39-122.06-197.12-228.61-242.08-100.89-49.089-219.31-53.719-330.78-50.32z" fill="#11151f"/>
 <path d="m838.5 1526.1c-110.64 133.21-230.66 260.85-313.37 413.96-69.691 110.77-143.63 209.46-152.39 342.6-42.016 169.72-7.4119 361.58 13.756 522.28 22.275 98.093 78.112 183.01 53.948 286.07-6.6407 57.169-53.549 141.43-55.199 198.48 24.505 17.578 64.103-53.55 79.618-67.002 124.05-155.75 196.35-347.14 235.87-541.3 14.97-120.47 19.528-242.17 14.819-363.29 9.0637-126.67 110.04-217.24 161.84-326.91 29.92-69.609 5.4225-156.06 60.826-215.36 23.487-35.29 128.62-74.987 40.407-125.09-41.167-45.784-79.639-100.17-135.19-127.67l-4.9434 3.224z" fill="#11151f"/>
 <path d="m2153.2 1570.6c-31.579 42.84-75.022 79.983-105.32 123.8 65.416 85.745 96.171 192.63 89.221 300.04 6.7888 37.887-22.954 80.632-0.4539 114.56 33.866 30.319 69.807 69.036 59.536 119.29-33.644 171.09-30.98 339.7 27.511 500.58 32.135 81.568 60.896 163.82 68.348 251.47-4.1272 118.3 75.036 255.97 178.56 310.96 24.974-13.569-34.857-76.198-36.488-96.669-20.974-62.862-13.647-131.15 14.47-190.92 49.568-144.21 116.39-282.72 105.25-438.4 29.47-161.7-26.521-346.34-66.35-503.33-37.767-122.46-123.53-209.24-191.73-316.21-44.389-58.711-80.946-126.37-136.11-175.17l-0.8597-0.2149-5.5882 0.2149z" fill="#11151f"/>
 <path d="m623.14 3031c-26.116 58.743-64.452 111.07-97.579 164.85 0.41587 73.326 38.676 141.85 68.316 207.27 28.714 52.938 65.523 101.44 98.256 151.88 14.096 25.712 110.88 94.139 35.894-0.6448-66.265-116.08-77.49-254.02-85.523-385.58-3.2962-46.757 26.465-173.46 17.567-218.81-6.4997-3.6102-32.302 76.105-36.93 81.038z" fill="#11151f"/>
 <path d="m2204.8 2786.1c-21.566 25.303 7.9639 118.47 1.5354 149.71-1.2345 188.08-31.759 372.17-99.166 548.47-5.4823 14.175-60.014 153.03-27.839 140.6 70.928-63.251 163.51-232.44 194.65-322.18 14.254-42.554 42.478-81.315 56.527-123.16-49.308-90.152-70.574-189.16-84.038-289.94-6.7524-15.724-18.24-103.44-41.671-103.51z" fill="#11151f"/>
 <path d="m1383.6 700.42c-48.019 1.6933-88.243 37.637-109.92 78.258-27.922 58.56-34.336 124.23-59.338 183.64-2.4026 15.903 17.936 21.459 30.305 20.419 26.093-1.7758 50.726-11.552 75.119-20.58 12.198-8.68-0.5766-21.739-4.3524-31.38-9.7286-18.211-16.921-38.248-14.723-59.214-3.2404-26.839 18.948-48.577 41.052-59.858 20.729-10.039 45.109 0.0667 63.029 11.445 25.787 18.484 35.029 51.185 34.127 81.512 0.2554 10.304-2.6192 27.866 12.375 28.024 15.337 1.287 31.888 4.8136 46.671-0.67372 16.454-12.523 14.278-36.348 12.982-54.744-5.7893-42.689-18.982-84.791-39.634-122.63-17.241-32.156-50.333-55.614-87.692-54.216z" fill="#fff6f3"/>
 <path d="m1783.9 726c-27.94 2.2168-48.674 24.619-67.248 43.466-39.091 41.483-60.546 96.049-74.93 150.24-1.1921 11.419-7.9839 25.911 0.9134 35.571 14.152 7.1119 29.179 14.174 44.704 17.233 12.553-0.3259 11.524-14.819 10.587-23.681 0.4148-33.801 12.288-70.003 40.461-90.701 31.006-24.629 83.696-13.39 98.922 24.234 14.051 32.977 0.7127 71.571-21.923 97.471-5.4942 10.46-22.934 14.983-19.559 28.64 19.353 22.082 47.68 35.144 75.978 41.428 14.679 0.037 11.908-17.937 12.412-27.834-0.7457-50.826 16.464-100.62 11.23-151.74-2.7816-43.081-10.567-90.566-42.718-122.24-16.149-15.994-39.062-23.395-61.47-22.084-2.4508-0.0427-4.9139-0.13086-7.3614 0z" fill="#fff6f3"/>
 <path d="m1192.1 997.14c-12.161 7.135-2.7099 22.345-1.2358 32.723 13.886 54.538 22.439 113.57 4.9828 168.47-17.169 47.606-48.549 88.107-69.646 133.97-17.524 32.684-31.128 68.217-52.743 98.194-6.3937 9.1596-22.588 18.936-14.857 31.762 9.1902 9.4585 24.567 4.777 36.218 7.9882 53.044 6.2582 104.9 20.126 157.79 26.932 12.045 1.1964 14.915-12.795 10.37-21.386-1.8116-5.5986-1.1008-12.066 5.2659-14.508 9.906-8.2496 22.397-12.153 35.141-10.37 28.673-0.8014 53.085 15.684 77.064 29.33 13.458 6.096 21.318 18.589 29.22 30.259 10.59 10.149 21.961-3.565 30.413-9.6182 10.431-8.8739 26.722-9.8298 36.538 0.5373 11.583 12.079 30.557 19.618 45.888 9.5645 34.097-19.011 56.086-59.47 96.988-65.608 10.907-1.8499 25.444-4.2068 31.487 7.9525 4.2992 8.0327 11.434 16.485 11.069 25.846-4.4296 8.8213-0.8736 21.16 10.263 21.601 34.5 8.8756 70.872 5.6122 106.17 4.5966 53.206-4.9758 105.89-16.33 159.54-12.764 10.61 0.7786 14.274-12.358 8.4898-20.257-17.562-44.914-34.478-90.416-45.567-137.36-8.8754-48.505-12.272-99.164 0.6854-147.08 2.1606-14.947 8.4717-29.432 9.7939-44.236-1.4734-9.3623-14.23-10.3-21.117-5.0509-32.079 16.367-61.565 36.467-94.462 51.261-64.159 34.585-118.07 84.343-179.68 122.73-35.174 15.927-74.485 23.185-112.84 22.622-36.64-10.502-69.925-29.798-101.5-50.885-39.624-29.078-54.291-78.432-81.125-117.76-35.737-55.96-73.531-110.82-113.75-163.71-3.5208-4.777-8.7643-7.6679-14.846-5.7279z" fill="#fff6f3"/>
 <path d="m1959.3 1545.3c-94.479 17.364-191.41 19.479-287.42 14.615-12.159 0.4926-12.04 15.731-5.427 22.729 11.074 11.637 4.0581 30.515 14.4 42.18 10.378 4.8556 22.782 2.2041 33.852 5.6419 49.441 3.9916 99.599 0.6659 148.76 6.0917 21.452 3.3404 40.988 11.902 61.28 18.088 9.8505 1.2451 13.361-8.8105 16.335-16.174 11.589-18.957 31.665-31.439 43.896-49.642 0.2666-10.861-9.5611-19.626-10.636-30.742-1.6707-6.911-6.8867-14.423-15.045-12.788z" fill="#fff6f3"/>
 <path d="m1031.1 1509.2c-11.843 1.0257-13.744 16.608-5.8568 23.696 25.55 35.47 51.251 71.646 84.092 100.75 14.303 2.1941 27.723-6.8717 41.646-9.3081 34.284-9.0771 68.571-21.32 104.18-23.415 10.509 2.4995 28.161-1.4366 26.329-15.475-5.4167-11.415-4.4997-30.508-20.687-32.401-69.634-11.795-139.97-20.859-209.18-34.335-6.8874-3.1984-12.083-10.6-20.526-9.5107z" fill="#fff6f3"/>
 <path d="m861.99 2083.8c-8.4036 7.8859-10.697 20.548-19.273 28.652-21.903 24.061-42.61 49.932-58.254 78.911-29.176 51.894-38.486 112.06-43.521 170.6-6.5142 90.599-1.6375 181.76-9.2694 272.21-8.9498 82.296-19.628 164.91-39.855 245.14-9.4921 36.634-13.557 74.608-20.064 111.9-14.605 87.703-2.7503 176.68 1.9939 264.7 3.3699 54.451 9.9534 109.03 27.059 161.03 10.938 32.341 13.22 68.11 33.333 96.812 15.096 25.393 30.184 50.807 47.466 74.778 7.8154 20.043 32.134 24.645 51.154 26.652 38.736 2.7435 77.918-1.0902 116.44 3.0628 28.147 8.3827 57.886 16.197 87.349 10.32 41.138-6.3208 84.605-20.096 125.18-3.7394 22.979 6.9805 47.338 21.806 71.7 12.478 12.193-4.1856 24.387-7.581 37.15-7.2369 28.575-8.5226 40.593-38.781 61.148-57.548 15.264-14.879 18.005-36.858 24.556-56.044 28.259 15.463 61.869 25.389 93.711 15.426 7.0719-0.7219 15.138-7.2902 21.278-5.056 19.859 25.574 14.742 61.99 31.488 89.412 23.148 42.16 71.739 72.25 120.62 64.695 30.799-1.7159 60.135-15.079 91.085-13.326 25.983 1.7274 51.224 9.5018 77.214 11.338 29.858-8.0238 58.754-23.093 90.379-21.192 25.895-0.7606 51.612 0.5926 77.107 5.1798 23.888 3.9004 47.011-9.2124 59.858-28.854 46.62-65.21 66.328-144.24 94.69-218.14 40.215-100.04 46.612-208.91 62.326-314.51 7.718-53.205 14.887-106.77 11.39-160.66-4.5387-84.528-2.2965-169.84-7.1004-254.43-4.0251-39.891-13.795-78.852-14.466-119.06-2.2231-48.51-5.0474-97.2-7.2417-145.68-0.8669-52.619 11.1-104.33 15.242-156.62 5.3238-48.361-7.9285-99.687-41.48-135.81-6.6907-10.737-21.027-3.5476-20.995 7.7594-16.597 48.984-27.742 99.812-47.445 147.54-8.5366 18.368-22.383 33.752-29.66 52.873-14.596 29.49-24.12 62.589-45.404 88.122-20.307 3.5576-40.222 9.8161-60.181 15.045-39.071 6.4212-78.9 8.3462-118.15 14.556-97.138 11.125-195.05 19.041-292.64 24.93-96.41 4.1231-191.89-12.295-287.35-22.301-54.676-7.571-110.41-11.984-161.86-33.52-42.033-16.977-83.931-35.934-123.53-57.44-14.34-7.2333-13.591-25.722-21.469-38.042-16.817-33.446-29.433-69.012-39.07-104.99-2.9651-44.475-4.2841-89.316-8.4117-133.56-1.0203-6.7668-8.6479-8.6434-14.228-6.3631z" fill="#fff6f3"/>
 <path d="m1255.2 1808.9c-121.7 238.26-67.576 429.9-1.7195 555.38 185.62 33.239 296.61 5.588 453.94 0 114.02-214.65 44.369-413.73 22.353-536.47-208.01-40.06-269.71-35.563-474.57-18.914z" fill="#ececec" stroke="#000"/>
 <path d="m1047.1 3986.6c-1.4735-1.5125-3.7851-3.5103-5.1369-4.4396-30.352 8.9266-57.657-20.15-78.74-41.333-28.846-8.6168-65.06-8.9875-96.353-13.525-51.261-10.778-101.17 22.443-140.38-14.233-0.38874-20.612 28.161-45.036 39.618-56.382 19.487-12.828 34.652-25.932 55.143-37.056 28.667-14.826 52.293-31.206 82.122-43.501 25.937-8.9757 48.601-24.946 72.414-38.301 4.3471-35.274 7.0814-40.022 10.196-78.049-6.1502-4.4306-43.096-10.189-63.488-12.238-30.331-3.6991-60.551 1.2557-90.856 1.5444-42.641 14.925-53.072-6.4255-86.878-26.325-29.597-8.3187-42.672-18.185-64.579-41.015-17.041-19.822-29.055-43.173-41.212-66.14-30.633-49.39-64.465-81.917-87.482-138.5-11.501-32.478-25.686-63.282-33.382-97-2.7239-13.188-11.042-40.409-12.863-42.097-0.4114-0.3812-5.248 4.2645-10.748 10.324-23.952 27.06-50.971 50.706-76.336 75.766-18.32 19.093-41.352 27.556-67.549 23.446-0.3691-0.9617-1.4517-1.2221-3.4332-0.8258-2.104 0.4208-3.0613 0.1431-3.5066-1.0174-0.3369-0.8779-1.5267-1.5962-2.644-1.5962-5.4419-2.7697-10.924-10.729-12.028-16.75-0.80968-2.6196-1.3195-3.3011-0.255-6.2924 19.773-18.764 23.233-39.074 32.752-63.958 18.622-57.54 30.652-117.05 44.004-176 7.0773-33.175 10.094-71.117 7.1241-89.6-8.2278-66.18-36.814-127-53.719-190.9-14.809-47.944-15.327-97.805-14.597-147.5 5.7056-71.615-3.3224-146.77-8.9204-218.8 0.45299-42.953 14.18-90.512 7.608-133.2 4.3118-32.96 13.362-75.631 23.616-111.1 15.673-76.13 44.35-136.15 85.931-202.11 46.529-74.114 90.933-149.47 138.74-222.89 20.7-32.582 49.193-59.22 73.703-88.922 42.797-54.374 83.608-107.17 131.68-156.98 19.997-13.105 10.207-19.326 12.772-37.447 3.9238-20.706 14.012-39.018 25.448-56.502 8.9202-12.583 24.789-26.539 34.669-30.491 69.841-94.823 158.98-151.92 168.56-229.86 12.491-101.61 8.3721-69.72 0.7242-172.77-5.9142-70.999-18.42-132.19 5.0787-201.64 21.625-81.305 29.509-93.372 76.422-160.01 92.617-107.8 132.28-151.03 247.03-204.3 124.45-23.693 173.01-31.651 287.13-20.055 153.66 49.51 219.96 77.179 321.44 169.12 51.372 60.364 96.499 153.59 128.38 256.75 6.8022 120 5.3821 154.89-48.804 295.68-28.244 84.791-15.88 142.21 9.4125 218.52 19.603 42.432 26.244 90.16 64.732 97.855 25.698 5.1377 40.104 34.22 41.542 49.202 4.3096 30.136 12.583 53.665 31.715 76.444 18.02 21.46 36.299 42.725 52.717 65.454 46.201 60.009 91.268 115.22 129.84 181.05 19.685 36.033 41.209 69.858 62.698 104.5 16.614 21.62 28.42 45.931 41.043 69.87 25.37 43.576 33.525 92.682 45.76 140.63 13.304 73.887 27.871 148.88 40.018 223l14.511 225.42c6.0619 109.86-28.721 229-67.627 330.79-22.394 55.174-39.97 112.13-59.282 168.43-26.486 80.685 5.0646 145.1 54.188 209.28 7.9699 9.1689 8.7742 12.091 5.2363 19.026-12.238 16.69-37.435 16.141-54.931 9.0868-18.667-5.9713-33.503-18.092-48.13-30.471-27.657-16.606-48.661-43.886-69.743-68.548-22.928 36.511-40.138 75.999-53.241 116.99-15.423 53.023-40.382 95.912-68.339 142.25-23.106 41.581-67.444 66.775-88.082 109.74-8.9872 19.466-21.056 37.997-36.056 53.354-18.245 16.767-42.855 19.926-65.136 28.184-19.076 31.494-44.65 34.94-80.872 33.039-17.254-2.6774-42.415-6.6968-50.5-8.0674-40.519-10.344-59.375 11.945-92.976 21.494-31.961 17.171 13.876 53.531 34.655 59.568 45.298 23.268 88.461 36.693 137.32 52.624 24.988 13.29 49.384 26.695 66.856 49.565 7.2083 11.028 13.748 21.933 17.675 34.484-30.09 23.575-112.88 4.9469-152.53 7.2072-33.073 6.4818-64.825 23.134-98.758 24.93-16.354-0.3277-36.825 33.112-45.605 45.628-8.0321 12.618-17.066 13.134-29.884 1.7079-14.21-11.431-29.142-21.94-43.858-32.708-21.07-18.282-46.7-21.839-73.396-25.471-29.876-4.9658-36.695-5.5642-75.5-6.6267-43.11-1.1803-52.499-0.8594-63.72 2.1776-21.819 6.0382-33.812 13.564-45.11-10.324-5.9664-14.332-3.4978-21.864 9.3599-28.558 18.873-12.756 35.889-28.016 55.469-39.77 22.204-15.505 45.252-28.974 69.807-40.53 17.915-7.9247 35.043-17.678 53.683-23.898l60.183-29.913 4.4949-48.209c-17.389 3.5607-34.742 7.3325-52.169 10.736-38.92 6.8724-79.172-8.3737-114.91-23.446-17.641-22.05-34.38-44.763-47.841-69.668-8.1406-10.41-12.962-48.255-22.029-49.791-39.559-18.036-45.448-9.216-85.489-4.0838-10.998 29.663-51.272 77.551-77.765 104.27-26.252 16.389-55.543 1.1223-86.373-4.8248-33.839-22.67-70.092-17.289-107.06-18.646 9.5505 36.983-3.7234 52.313-6.0172 90.106 11.448 26.962 54.169 49.121 95.987 64.101 44.813 19.887 97.779 49.007 117.35 81.411 14.532 13.171 14.714 28.276-8.9751 39.308-13.833 2.6113-31.138-1.8253-45.416-3.648-24.061-2.7505-48.113-5.5614-72.084-9.0198-22.411-3.5743-59.5 0.5267-59.5 6.5789-3.0571 16.867-52.011 82.409-75.77 67.228h4e-4zm43.007-86.597c22.854-18.35 46.192-15.023 90.482-22.542l89.245 21.242c-27.574-56.84-153.84-93.721-192.9-142.69-6.0048-35.468-7.1921-34.404 0-69.408 1.6268-9.7878 5.8319-20.453 3.5482-30.5-27.681 7.0544-38.764 11.096-67.298 8.8038-3.6325 30.576-9.1908 52.935-3.8475 70.417 8.7349 26.811-33.524 58.597-53.484 67.018-30.214 12.582-38.594 16.132-40.222 17.039-13.9 4.2715-27.411 9.9473-40.932 15.374-31.995 12.632-42.713 17.949-78.12 38.754-11.8 6.9335-23.407 25.814-22.504 26.727 0.3221 0.3256 23.175-14.719 42.378-14.519 27.263-1.924 53.777 2.4914 80.414 6.6395 18.073 2.4126 46.444 2.1729 63.416 8.5707 1.1169 0.7824 4.3483 1.4209 7.1905 1.4209 22.197 5.5075 44.753 32.725 63.381 45.215 28.807 28.908 45.906-24.92 59.246-47.562zm670.93 34.631c6.1824-4.3473 11.396-17.034 20.736-15.681 5.1424-14.928 59.102-27.184 70.718-30.415 30.991-11.322 61.758-9.5525 94.5-10.245 17.325-0.3189 35.862-3.5143 36.939-3.0465 57.372 24.914 31.199-11.734-21-25.245-18.715-4.8443-55.465-17.896-58.835-17.896-47.564-20.435-86.253-23.868-114.92-51.935-23.089-14.697-1.6696-53.826-17.041-67.954-13.977-6.8231-33.686-6.0249-48.89-3.9748 7.6253 14.678 4.8408 26.256 1.5863 42.09-2.2269 25.67 4.1219 34.048-22.715 48.622-37.367 20.856-77.794 35.132-116.32 53.528-15.867 7.0664-84.672 25.455-93.152 43.211-6.7641 12.938 46.002-2.54 66.349-9.1113 17.205-5.5565 46.847 5.5007 76.256 10.436 34.92 12.929 42.479 9.7065 75.994 21.903 10.28 7.7474 20.919 15.024 30.699 23.41 9.3925 9.6718 10.321-1.286 19.096-7.6971zm-80.546-273.58c38.658-10.77 75.618 6.7294 112.86 9.0693 46.615-20.842 88.06-27.676 139.64-20.421 25.239 3.5967 38.044 10.979 59.809-2.0369 19.938-14.607 32.648-40.009 44.704-61.093 35.185-69.95 49.463-131.9 81.971-212.81 31.616-103.51 37.215-220.64 54.565-324.8 12.139-78.906-2.2849-163.38-0.038-243.06 1.7007-55.783 1.8552-107.17-9.2065-162.33-12.137-57.328-8.4278-113.49-12.33-170.47-8.8434-63.202 0.6965-126.5 10.685-188.93 8.4299-55.925 0.3098-106.41-37.526-149-1.4444-1.3313-2.8883-2.1585-3.2087-1.838s-1.6696 4.6564-2.9981 9.6356-3.0577 10.756-3.8427 12.838c-0.785 2.0818-4.2004 12.785-7.5898 23.785s-7.4585 23.825-9.0427 28.5c-2.8932 8.5383-7.9204 26.319-10.602 37.5-3.8108 15.887-10.826 33.666-22.094 56-31.346 35.706-40.295 101.4-73.544 133.87-31.283-0.074-49.393 16.536-84.212 18.03-26.107 1.2043-52.123 4.37-77.978 8.4109-0.5622 0.3538-1.8589 0.5054-2.8815 0.3369-35.689 5.8753-72.052 8.7283-108.14 11.857-46.041 4.5562-92.141 8.2705-138.33 10.987-98.845 11.389-189.78 2.0422-287.46-10.956-47.861-3.2585-95.268-12.249-142.71-17.612-74.105-10.958-140.39-46.732-207-78.783-20.45-11.907-18.056-19.826-24.568-37.772-20.424-35.262-33.318-74.648-44.18-114.25l-7.4675-139.03c-8.7526 31.073-36.306 48.011-52.621 73.162-14.549 20.776-27.165 42.278-37.609 65.438-43.183 120.02-27.261 255.87-33.592 383.31-11.122 99.508-19.97 192.51-47.64 289.34-17.309 107.15-28.63 150.63-20.561 241.24 5.7519 74.939 4.07 108.44 13.451 183.07 3.9353 54.86 26.151 96.194 35.161 149.44 7.6391 29.629 33.168 57.637 47.401 86.674 6.2812 11.092 19.322 20.162 20.635 33.531 35.001 26.983 102.77 9.4577 147.59 15.333 16.181 2.6441 21.02 3.8761 41.5 10.564 50.869 14.124 95.3-15.453 148.41-10.238 28.631 0.9324 55.895 20.479 83.333 23.618 18.705 2.4297 32.331-13.566 50.636-10.123 14.716 6.91 45.274-36.634 53.057-47.956 27.995-18.856 21.231-45.604 34.942-69.705 30.447 18.349 69.274 36.606 120.5 10.621 33.389 30.334 17.354 73.698 42.89 104.25 12.145 22.504 34.535 39.849 58.495 48.355 35.074 14.02 71.604 2.0512 106.74-5.5705h-1e-4zm439.35-126.58c24.744-29.512 53.411-55.18 75.951-86.589 44.862-57.926 61.631-130.32 89.585-196.78 9.0262-18.668 29.925-54.866 35.001-60.623 8.0939-13.075-14.483-42.017-20.893-57.399-23.227-48.134-36.92-93.717-46.942-146.48-1.7717-59.575-14.686-119.48-36.774-174.93-9.8065 71.479 8.2205 151.68-0.069 225.29-7.609 57.236-18.654 119.71-20.459 177.46-3.0528 69.244-24.689 128.35-43.328 195.18-14.387 43.868-28.001 87.971-46.071 130.5-6.4916 15.468-11.482 31.492-18.677 46.684-3.3173 6.1887 2.1652 0.2852 8.5348-9.1902 8.679-14.03 15.098-29.307 24.142-43.125h-5e-4zm-1395.8 25.476c-35.67-41.027-47.447-100.06-59.816-151.34-19.621-134.94-60.088-258.51-12.689-430.01-11.241 26.984-22.248 54.082-33.601 81.024-17.233 33.223-30.92 68.818-56.899 96.425-13.533 10.248-21.227 27.963-29.999 42.426-1.5798 36.623 25.198 101.44 38.499 136.86 9.7943 19.468 12.562 23.64 20.672 50.622 5.24 19.204 18.05 34.39 29.963 49.89 20.044 25.394 39.784 50.23 55.396 78.751-4.6097 21.695 79.077 84.484 48.475 45.346zm-310.08-293.34c1.9674-2.1942 14.891-15.289 28.719-29.099 24.198-21.177 39.401-44.91 55.896-71.411 18.417-27.896 33.552-57.926 53.179-85 26.33-34.917 36.166-78.42 56.263-116.5 1.337-1.7718 9.1556-19.756 12.173-28 22.228-49.815 29.358-104.88 49.46-155.37 0.3877-0.3459 0.4134 0.182 0.057 1.173 3.2347-12.814 11.777-43.128 15.713-61.302 22.156-50.516 16.44-126.46 19.56-181.54-0.5187-0.3206-0.9363-1.1189-0.9279-1.7739 0.012-0.916 0.1911-0.9146 0.7764 0.01 0.4495 0.7071 1.3043 0.8615 2.088 0.3772-1.4399-23.208-1.192-50.205 2.1667-74.034 2.0077 1.4308 0.49837-1.9682-0.0464-2.5408 2.9253-15.434 1.9352-68.167 0.6763-88-10.062-69.784 10.099-136.43 40.326-198.5 32.78-54.799 73.83-103.86 110-156.36 22.642-36.733 24.829-93.63 32.032-138.14-25.688-72.578 112.56-168.9 98.752-211.5-0.4314 0-0.7843-0.7004-0.7843-1.5564-14.152-14.566-29.4-29.325-43.866-44.182-32.151-32.38-60.65-68.968-99.878-93.266-22.775 29.227-50.382 54.617-73.256 83.965-17.373 20.134-33.052 41.687-50.376 61.852-39.121 47.198-79.255 89.082-112.1 141.18-30.095 41.992-53.803 87.924-81.123 131.66-44.234 63.257-80.34 132.31-107.99 204.34-17.296 56.1-26.221 113.21-37.145 170.5-2.0322 54.287-6.2645 108.83-3.258 163.19 26.695 106.89 3.1399 210.86 23.547 317.01 9.6198 33.548 20.951 67.664 31.513 101.3 17.81 52.562 24.607 97.77 20.51 153.5-4.9 33.367-12.503 66.338-20.843 99-6.5454 25.622-12.26 51.537-19.338 77.007-3.3864 11.742-10.314 37.739-10.366 38.898-0.052 1.1506 3.288-1.7704 7.8824-6.8946h4e-4zm2020.6-244.01c13.528-45.78 30.918-90.285 47.543-135 9.6749-24.832 16.138-50.717 24.38-76 9.0603-27.767 15.279-56.384 21.007-85 20.198-77.588 13.777-159.39 17.737-238.7-11.104-123.22-42.718-243.77-58.18-366.06-13.995-85.248-54.036-143.6-96.902-215.86-35.63-65.616-75.081-128.44-121.67-186.88-37.974-53.76-69.891-95.899-109.95-144.5-18.908 32.005-54.569 71.841-81.285 94.428-14.905 12.138-24.878 20.399-24.878 23.203 48.692 53.746 63.637 100.06 85.062 168.91 14.927 67.909 16.33 130.1 2.0199 198.66-4.147 16.613-7.3957 31.444-7.2193 32.958 0.2217 1.9023 1.7101 3.7791 4.8207 6.0787 16.849 12.456 24.037 19.389 37.594 36.258 19.841 22.272 29.732 41.806 33.397 71.5 4.0371 45.795 4.1062 47.147 3.126 61.11-1.5047 21.433-5.8574 57.555-9.7472 80.89-9.3157 39.385-7.6653 81.018-2.2956 121-0.6365 84.472 7.7598 162.55 27.43 244 7.9551 36.721 27.479 69.473 39.428 104.8 22.842 51.691 28.271 106.64 32.689 167.15 0.3276 0.8535 0.9974 1.5519 1.4886 1.5519 13.289 56.256 19.346 111.05 50.371 160.95 11.84 24.493 36.4 62.534 70.512 91.48l49.864 41.267c-46.462-35.221-81.652-183.93-36.343-258.2zm-929.01-578.53c43.513-16.613 224.74 22.882 235.5-34.395 29.569-63.886 47.752-130.4 60.572-199.38 16.023-66.291 23.508-115.84 16.847-183.83 9.9873-63.423 2.8081-128.15-9.3265-191.98-3.0496-15.496-15.939-55.035-29.626-90.885-6.8895-26.168-24.015-47.51-34.025-72.25-19.678-18.621-92.676-14.576-124.44-18.654-57.524-9.277-115.4-16.133-173-24.978l-174.93 11.58c-5.0788 11.439-11.102 22.121-17.994 32.658-22.737 32.813-42.031 67.003-56.523 104.14-60.354 128.55-69.634 258.74-62.557 398 3.4945 48.686 11.353 96.248 23.586 143.5-2.9852 35.241 36.945 67.002 39.422 96.868-0.9575 11.912 27.252 8.9511 36 9.648 90.873 12.808 178.89 24.289 270.5 19.955h3e-4zm-104.19-100.93c-57.4-20.235 3.1705-120.92-39.208-129.05-98.09-17.35-111.96 4.5092-143.69-78.78-27.845-139.3 43.338-127.41 142.64-140.62 48.6 3.6865 8.0854-122.16 25.573-143.57 20.959-25.657 100.89-12.601 159.66-8.7989 55.214 23.927 7.1372 98.555 46.057 145.49 48.226-7.8695 72.262 15.085 119.45 17.7 41.475 26.33 35.15 112.19 20.013 157.89-38.203 36.877-100.88 23.73-148.57 43.75-22.104 37.727 10.244 70.281-21.384 118.94-66.37 27.56-79.305 25.89-160.53 17.057zm127.96-28.114c30.614-33.984 8.6051-102.55 24.844-147.1 45.688 11.341 104.26-10.994 147.14-13.049 16.374-12.74 4.7044-90.721 4.4475-118.23-49.632-16.564-96.17-8.6037-147.73-23.983-20.666-35.186-12.593-78.388-12.662-121.22-10.219-33.272-102.86-20.213-137.81-19.981-4.3245 25.315 20.878 161.26-21.276 161.57-61.654-17.002-92.471 5.6526-126.7 10.302-36.018 13.531-9.4861 60.959-11.093 101.54 25.412 47.832 83.302 38.076 127.43 33.206 54.631 17.712 9.1145 95.913 32.581 136.11 46.894 16.629 75.528 10.157 120.83 0.8277zm292.77 84.082c37.269-44.39 46.243-113.42 61.706-165.99 14.818-78.775 24.475-161.87 21.165-246.3 0.4632-63.742-6.8916-134.9-30.827-194.72-12.472-38.955-24.947-76.809-39.155-115.26-2.2454-9.9601-36.216-8.8552-40.923-4.0811 8.0273 16.102 17.259 31.416 23.443 48.442 16.737 42.976 22.173 86.663 31.385 131.9 9.9582 62.541 6.2708 126.38 9.4138 189.5-3.4981 79.78-8.3098 137.92-21.15 205.22-14.957 52.595-28.655 108.43-46.592 166.28-1.7584 1.5532-1.191 3.9379-2.6836 5.6135-2.0415 1.2617 1.6002 1.9106 8.6897 1.5484 9.294-0.7566 22.102-13.174 25.526-22.156zm142.47-6.7874c2.5689-1.845 10.5-15.007 10.5-17.425 30.561-46.26 57.063-99.208 74.83-151.76 15.439-55.454 31.468-109.34 44.634-165.53 14.501-58.98 14.028-55.311 12.599-97.84-0.6105-18.172-1.3207-33.25-1.5781-33.508s0.04-1.0804 0.6613-1.8288c0.7275-28.552-15.877-78.482-24.813-106.82-10.85-30.493-35.89-81.349-62.205-99.5-25.029-7.9626-51.078-14.64-75.065-25.84-17.71-2.0268-45.422-14.247-61.574-15.983-19.777 0.7867 10.7 60.823 15.044 72.673 28.975 77.868 46.024 158.86 44.444 242.15-3.1087 31.945 1.4252 67.605-2.76 99.439-3.9099 42.311-13.256 81.199-16.737 123.56-16.553 99.828-39.058 137.82-66.096 197.25 14.874 17.108 87.888-11.786 108.11-19.032zm-813.85 13.512c0.5033-3.0452 0.344-3.6629-0.8288-3.2129-21.199-36.071-16.471-57.942-37.29-115.44-5.4168-59.141-14.65-109.61-15.301-164.9 1.9407-128.16 15.276-193.39 42.582-304.17 11.206-34.177 21.666-63.02 35.886-96.064 12.165-22.462 17.892-50.283 32.406-71.384 1.5968-2.1718 2.5652-4.2812 2.152-4.6875s-19.088-0.5326-26.788 1.8209c-42.9 6.2822-37.349 34.078-58.393 86.322-24.369 40.116-32.5 85.454-46.564 129.99-15.451 45.034-20.268 92.798-28.454 139.5-10.527 44.744-10.89 91.348-7.6744 137 4.8989 49.657 14.686 98.477 28.062 146.5 6.7621 43.623 35.506 77.198 51.024 115.83 5.4717 6.6555 27.047 16.539 29.182 2.8971zm-94.404-26.878c-15.708-47.678-20.706-71.689-33.938-127.58-26.127-95.293-24.428-185.81-5.2261-282.11 7.2481-58.58 23.536-118.93 43.326-174.44 14.346-39.316 26.566-76.682 44.597-114.34 0-1.5051-5.6889 1.1443-20 9.3141-21.156 11.165-41.664 23.498-62.691 34.895-116.43 77.604-106.48 269.45-112.41 392.91-3.2224 65.165 23.996 132.57 39.97 190.5 18.721 44.526 63.626 65.869 109.14 77.102-0.6385-2.1862-1.7405-4.2204-2.7591-6.2501zm981.64-732.95c22.52-16.91 43.622-35.425 76.39-76.486 14.214-26.181 32.951-23.972 30.872-50.96 12.012-25.602-28.525-60.373-40.205-50.45-31.163 80.977-112.54 115.35-132.18 186.57 10.93 2.41 16.44 4.3856 25.25 9.0539 6.6958 2.1172 30.772-10.138 39.878-17.725zm-965.13-13.181c-34.41-32.024-60.926-72.234-87.668-110.72-21.874-39.418-54.022-66.849-92.01-90-20.383 14.283-34.515 36.843-39.061 61.13 40.578 31.535 81.703 69.523 118.62 107.59 18.801 19.279 37.774 38.472 55.741 58.53 11.556 3.2124 63.625-12.138 44.38-26.534zm860.7-0.628c9.119-14.673 22.203-25.709 34.997-37.38l7.7617-7.6368c-2.0051-4.4508-4.1958-8.8067-7.2165-12.665-11.772-47.381-25.802-86.554-44.492-131.76-14.104-42.624-32.281-85.44-36.682-130.47-6.3324-37.055-8.1129-83.597 4.8076-125.38 3.6016-13.283 9.3766-49.448 16.9-60.757-26.261 8.1433-61.155 37.802-85.908 50.553-74.756 31.61-128.44 88.101-194.62 133.88-40.36 19.108-79 20.55-126.54 21.094-30.006-8.0563-53.194-16.577-80.078-31.656-33.895-36.206-49.329-44.465-71.258-87.484-15.534-34.01-52.468-75.415-72.44-106.74-24.61-31.854-66.638-92.392-85.944-112.36 8.9878 34.212 34.28 118.89 16.392 194.68-13.556 52.567-51.465 96.815-73.284 145.43-17.908 31.321-31.536 69.739-51.497 99.839-23.908 22.158-43.399 56.364-55.14 89.727 22.723 30.64 46.888 65.767 76.143 94.399l8.7882 7.899c19.965-6.4464 40.259-11.774 60.356-17.768 22.909-6.9131 56.502-14.35 72.5-16.051 7.4411-1.3339 31.005 4.8434 24.484-6.5191-2.8709-4.3814-7.5825-24.697-5.0981-23.161 2.5288-9.0339 16.802-31.84 12.666-40.178-12.286-17.061-44.51-57.005-13.747-69.758 18.413-18.503 59.061-11.106 80.432-1.9239 22.577 14.075 48.914 20.548 63.852 43.014 3.571 5.7143 4.5525 11.775 7.7656 12.297 11.201-2.3296 18.516-22.487 45.217-21.53 25.775 5.0712 22.876 24.389 46.965 22.238 10.364-0.1808 25.493-15.465 29.878-18.536 14.762-13.297 27.938-28.12 44.607-39.114 17.819-9.7281 38.264-16.648 58.662-13.764 16.724 5.5207 23.671 25.291 30.145 41.293-6.2256 26.735-23.337 38.342-20.784 60.902 2.6275 23.216 29.563 39.823 31.487 61.624 1.8243 20.673-4.6813 20.746 18.832 19.64 28.121 9.4426 88.63 4.7596 100.6 5.0216 38.528-1.3226 76.845 3.542 112.41 18.671 20.915 8.9744 9.2408 1.3044 18.083-9.6086zm-274.46-26.13c-1.9615-38.945-28.689-34.37-38.711-64.657-6.8261-20.63 33.206-59.212 20.526-67.657-14.203-9.4586-54.823 22.742-62.807 27.524-29.256 17.202-13.121 22.205-39.872 32.858-11.599 0.4261-11.093 20.362-17.466 32.846-8.923 25.192 55.049 34.158 74.333 36.6 4.8974-0.8643 69.154 10.753 63.996 2.4861zm-254.6-27.708c0.3479-0.9625 1.2937-2.875 2.1018-4.25 5.0739-13.447-4.3176-28.699-7.4815-41.711-0.7261-9.2246-20.445-30.258-27.223-37.289-17.891-15.685-36.451-25.691-59.943-30.04-15.073-2.0119-20.977 6.2817-29.123 5.3204-4.4863 14.654 27.572 45.942 34.715 58.537 11.792 18.218-11.578 29.197-14.966 51.091 9.197 18.538 80.28 2.9487 101.92-1.6585v2e-4zm622.36-42.75c21.152-26.118 34.831-57.734 46.864-88.899-31.844-49.354-40.361-115.91-58.791-170.98-17.759-89.355 5.2575-158.16 42.623-238.44 68.773-160.15-28.72-354.58-130.13-478.69-126.95-116.32-311.31-136.78-480.27-120.39-120.42 42.366-254.77 112.64-313.28 231.81-87.395 107.67-80.907 176.84-64.606 306.42 0.3827 66.522 12.168 148-1.2868 205.66-42.308 90.968-153.42 166.71-145.11 231.49 29.419 16.459 51.183 42.261 75.228 65.191 27.337-17.624 36.307-33.054 64.411-75.03 57.206-84.41 62.83-118.28 110.47-196.19 56.133-148.99-19.785-238.24-11.471-269.24 16.304 8.2302 26.89-6.4276 39.199 20.829-1.1593-22.843 6.9234-113.06 34.825-182.74 8.8808-35.433 38.418-60.536 67.063-80.23 2.75-1.4477 8.375-5.1512 12.5-8.2299 17.756-14.076 38.792-19.664 61-19.827 20.951-3e-3 39.974 3.4434 52.6 9.531 53.87 24.996 73.414 86.637 92.613 139.39 11.243 38.841 17.048 62.038 11.824 102.49 1.4829 20.827 81.285 25.647 75.828 16.669-11.367-24.037 14.029-72.817 22.485-94.09 29.556-76.166 85.428-126.3 171.01-129.39 41.385 11.234 72.293 50.488 87.21 59.871 19.26 41.336 27.071 80.047 28.433 125.41-0.01 23.058-3.6537 57.842-7.6054 72.612-14.975 40.334 6.0665 66.474 10.599 100.3 4.475 5.8532 8.4433 9.5327 16.277 10.566 50.478-36.643 11.746 37.545 11.743 53.968-26.272 61.77-35.343 116.36-28.947 183.17 8.015 48.856 26.532 94.537 43.931 140.5 11.161 30.7 28.599 58.471 37.444 90 0.9447 4.125 1.9234 8.146 2.1749 8.9355 0.5668 1.7792 12.295-9.5909 23.142-22.436h-2e-4zm-550.74 31.58c17.492-16.4 16.536-32.431 8.0094-43.198-7.1145-8.9841-22.021-18.869-36.095-7.4508-26.428 14.368 7.0811 61.524 28.086 50.649zm203.35-323.73c58.01-43.595 80.783-60.32 126.02-85.502 14.921-8.3052 31.022-22.452 49.467-35.223 11.648-9.2853 45.768-31.591 58.253-39.329-22.041-10.227-132.07-67.814-183.96-87.181-59.636-22.999-103.63-49.838-168.56-38.553-81.589-27.5-186.54-18.869-259.64 24.714-30.729 8.8581-58.908 7.772-82.576 6.1553 16.036 16.395 39.945 59.387 56.771 76.573 46.584 50.069 79.999 109.98 111.42 170.14 33.632 38.388 101.65 88.407 156.42 74.532l6.0792-2.4317c70.932-7.1653 82.002-26.607 130.29-63.897zm203.02-199.19c-1.2097-43.042 10.218-83.944 12.339-147.66-2.6494-66.534-14.659-192.78-172.94-125.3-43.939 18.733-76.334 99.007-83.384 148.34-2.9168 12.785 1.1368 27.313 9.2315 28.424 12.001 1.6464 29.533 13.185 41.302 16.165-3.9969-41.505-4.3017-95.137 43.19-121.31 31.189-6.124 59.499-9.4262 86.271 16.055 45.683 52.472-1.0754 122.56-3.9982 138.86 6.8265 18.957 68.19 53.544 67.99 46.438zm-565.42-91.221c-18.516-28.712-51.522-95.762 0.3885-137.18 32.244-25.727 53.113-18.686 70.467-12.302 65.494 24.091 63.53 96.499 59.216 118.65 8.3263 3.5325 35.8 2.7953 44.927 3.917 28.739-23.443-5.9438-117.93-18.45-147.87-25.989-57.68-68.617-84.051-129.89-59.182-63.251 37.095-75.002 89.914-92.731 157.03-7.862 30.418-14.395 61.304-28.108 89.691 14.526 20.552 75.298-5.5017 94.183-12.754zm-94.964 13.062c0-0.55-0.1984-1-0.441-1s-0.7191 0.45-1.059 1c0.012 1.5688 0.8208 0.88856 1.5 0z"/>
 <path d="m1661 1502.9c106.77 31.499 207.64-24.388 306.06 1e-4l10.317 34.389c-90.327 18.687-204.63 25.483-312.94 17.194-35.478-11.473-22.136-31.082-3.4389-51.584z" fill="#000080" stroke="#000" stroke-linecap="round" stroke-width="28.2"/>
 <path d="m1272.4 1502.9c29.967 29.886 18.928 39.268 13.756 51.584-74.704-13.619-125.17-19.17-233.85-37.828-17.331-15.764-34.333-14.466-6.8778-48.145 108.07 6.8778 151.81 27.511 226.97 34.389z" fill="#000080" stroke="#000" stroke-linecap="round" stroke-linejoin="round" stroke-width="24.5"/>
 <path transform="matrix(.89835 -.27776 .28237 .91326 -135.66 474.27)" d="m1442 1004.3v12.158c0 0.8106 0.8106 2.4317 0 2.4317s0.8106-2.4317 0-2.4317c-1.1463 0-1.4064 1.919-2.4317 2.4317-0.7249 0.3625-1.6211 0-2.4316 0" fill="none" filter="url(#a)" opacity=".84" stroke="#743f15" stroke-linecap="round" stroke-width="15.9"/>
 <path transform="matrix(.93514 -.09846 .10009 .95066 191.86 212.28)" d="m1442 1004.3v12.158c0 0.8106 0.8106 2.4317 0 2.4317s0.8106-2.4317 0-2.4317c-1.1463 0-1.4064 1.919-2.4317 2.4317-0.7249 0.3625-1.6211 0-2.4316 0" fill="none" filter="url(#a)" opacity=".84" stroke="#743f15" stroke-linecap="round" stroke-width="15.9"/>
 <path d="m1551.4 999.42c-35.289 75.373-36.328 125.79-41.338 221.28" fill="none" filter="url(#g)" opacity=".84" stroke="#743f15" stroke-linecap="round" stroke-width="15.074"/>
 <path transform="matrix(.72929 .32897 -.32897 .72928 738.61 -75.069)" d="m1166.1 733.16a18.238 24.317 0 1 1 -0.4389 -1.429" fill="#fff"/>
 <path transform="matrix(.72873 .33021 -.3302 .72873 1139 -37.166)" d="m1166.1 733.16a18.238 24.317 0 1 1 -0.4389 -1.429" fill="#fff"/>
 <path d="m1404.8 1865.5c-10.307 49.481 10.252 108.56-13.756 154.75-30.745 7.9558-66.423-4.3368-98.224 7.0927-34.4 1.247-66.939 28.13-58.461 65.339-2.7127 42.15 17.378 93.465 66.629 93.495 28.264 8.4642 72.447-10.376 90.701 18.699 12.477 37.803-8.8839 86.383 17.41 118 42.33 4.4102 96.589 17.163 131.54-13.97 24.877-38.591 2.3634-91.541 21.708-130.46 48.168-6.0361 105.72 0.457 147.23-27.941 15.24-35.821 8.3978-80.663-1.9344-116.92-45.226-21.023-102.03-12.818-146.58-32.884-14.389-39.844 5.4013-92.516-22.783-126.81-39.837-17.759-92.182-12.858-133.47-8.3824z" fill="#a00"/>
 <path d="m1631.8 1465c-45.972 20.194-97.233 50.61-118.43 98.009 0.5711 39.92 55.229 41.57 84.253 48.36 21.108 3.1811 83.853 29.793 62.975-25.147-13.939-24.484-47.387-48.498-21.063-78.45 6.2614-12.727 19.323-44.994-7.7375-42.771z" fill="#2e56d7"/>
 <path d="m2109.4 1460.1c-26.82 14.388-33.255 51.136-56.742 70.498-26.53 40.947-78.794 72.872-85.543 123.59 20.079 32.38 68.433 3.0902 90.271-13.97 37.749-36.353 86.481-75.069 95.644-129.17 2.539-25.854-18.006-50.486-43.631-50.939z" fill="#c87137"/>
 <path d="m1186.7 1641.9c-35.07 2.7079-56.702 31.733-61.284 64.265-66.907 173.76-121.9 367.16-69.914 552.39 16.763 54.216 31.882 115.63 72.952 156.45 29.286 13.836 28.278-30.267 16.55-44.706-70.476-226.33-38.696-476.99 58.098-690.28 14.604-18.858 13.752-43.764-16.402-38.124z" fill="#6c6c6c"/>
 <path d="m1804.4 1662.6c-34.823 8.955 1.9351 47.915 6.2331 67.488 51.191 148.59 41.311 312.68 26.007 467.69-9.5386 76.236-40.609 149.2-53.733 224.17 21.278 24.206 44.46-18.507 55.667-34.604 73.243-145.6 74.636-315.5 68.348-475.21-5.8069-82.168-37.001-161.06-68.348-236.21-6.4557-12.72-21.141-15.448-34.174-13.326z" fill="#6c6c6c"/>
 <path d="m1456.2 1507c-32.444 2.2364-31.225 41.646-8.3823 56.527 29.825 43.215 73.913-36.088 32.455-52.873-7.2894-3.9001-15.973-4.8657-24.072-3.6538z" fill="#000080"/>
 <path d="m1300.2 1458.4c-40.918 12.778-3.9103 57.332 10.532 77.375 2.2751 19.908-37.222 54.952-1.0747 56.957 32.734-4.9405 88.912 12.352 105.75-25.362-2.2852-55.505-60.68-107.82-115.2-108.97z" fill="#2e56d7"/>
 <path d="m852.85 1991.2-123.8 202.9c-13.565 113.86-40.522 200.95-37.828 347.33-4.5852 87.119-13.756 165.07-27.511 233.85-14.038 71.652-16.053 98.573-48.145 165.07-32.626 52.2-61.72 125.13-92.85 175.38l-58.461 99.728-44.706 44.706 51.584-82.534 89.412-233.85c30.384-61.892 63.939-124.14 68.778-220.09 0.0384-74.586-3.7363-141.55 13.756-251.04 7.3216-89.634-5.9107-168.99 34.389-275.11 75.656-153.56 218.23-278.81 175.38-206.33z" fill="#fff6f3"/>
 <path d="m2145.9 2094.4c10.569 29.59 21.049 59.12 58.461 106.61-20.247 108.89-29.051 217.72-10.317 326.7l51.584 244.16c14.42 50.92 4.7814 84.63 34.389 141 8.9263 73.363 6.625 112.34 37.828 178.82 23.222 69.777 63.899 130.83 123.8 182.26l34.389 13.756-61.9-82.534c-17.635-42.589-46.015-83.023-72.217-151.31-27.282-111.54-29.318-189.83-48.145-285.43-15.183-98.957-37.716-87.658-44.706-309.5-11.818-68.059-5.7946-109.65 6.8778-251.04-32.78-53.434-68.136-96.567-110.04-113.48z" fill="#fff6f3"/>
 <path d="m1537.2 1544.1c56.123-41.267 86.248-29.734 87.397-29.734" fill="none" filter="url(#d)" stroke="#2231c3" stroke-width="7.2"/>
 <path transform="matrix(.99854 0 0 1.0431 2.3048 -66.811)" d="m1537.2 1567.8c27.791-7.1314 61.833-10.349 86.392-1.3163" fill="none" filter="url(#e)" stroke="#2231c3" stroke-width="7.2"/>
 <path d="m1308.6 1497.2c25.215 6.881 58.65 12.838 70.411 33.173" fill="none" filter="url(#b)" stroke="#2231c3" stroke-width="7.2"/>
 <path d="m1322.6 1558.7c18.249-14.122 43.931-11.889 66.764-7.6764" fill="none" filter="url(#c)" stroke="#2231c3" stroke-width="7.2"/>
</svg>
