<?xml version="1.0" encoding="UTF-8"?>
<!DOCTYPE svg  PUBLIC '-//W3C//DTD SVG 1.0//EN'  'http://www.w3.org/TR/2001/REC-SVG-20010904/DTD/svg10.dtd'>
<svg width="28.542mm" height="28.542mm" clip-rule="evenodd" fill-rule="evenodd" image-rendering="optimizeQuality" shape-rendering="geometricPrecision" text-rendering="geometricPrecision" version="1.0" viewBox="0 0 1190 1190" xml:space="preserve" xmlns="http://www.w3.org/2000/svg">
 <defs>
  <style type="text/css">
   <![CDATA[
    .fil2 {fill:none}
    .fil1 {fill:#4D4D4D}
    .fil0 {fill:#6699FF}
    .fil3 {fill:#E80000;fill-rule:nonzero}
   ]]>
  </style>
    <clipPath id="d">
     <path d="m0 0h1190v1190h-1190v-1190z"/>
    </clipPath>
      <mask id="e">
  <linearGradient id="f" x1="615.7" x2="1652.5" y1="433.51" y2="1395.8" gradientUnits="userSpaceOnUse">
   <stop stop-color="#fff" offset="0"/>
   <stop stop-color="#fff" stop-opacity="0" offset="1"/>
  </linearGradient>
       <rect x="243" y="250" width="1781" height="1330" fill="url(#f)"/>
      </mask>
 </defs>
   <path class="fil0" d="m0 0h1190v1190h-1190v-1190z"/>
   <g clip-path="url(#d)">
     <path class="fil1" d="m1151 1580c193-19 387-38 532-107 146-69 244-189 342-309-369-305-738-609-1107-914l-675 345c303 328 605 656 908 985z" mask="url(#e)"/>
   </g>
   <path class="fil2" d="m0 0h1190v1190h-1190v-1190z"/>
   <path class="fil3" d="m595 358c51-95 103-142 206-142 114 0 206 85 206 189 0 190-206 379-412 568-207-189-413-378-413-568 0-104 93-189 206-189 104 0 155 47 207 142z"/>
</svg>
