<?xml version="1.0" encoding="UTF-8"?>
<!DOCTYPE svg  PUBLIC '-//W3C//DTD SVG 1.1//EN'  'http://www.w3.org/Graphics/SVG/1.1/DTD/svg11.dtd'>
<svg enable-background="new 0 0 1920 1230" version="1.1" viewBox="0 0 1920 1230" xml:space="preserve" xmlns="http://www.w3.org/2000/svg">
<rect x="-18.184" y="-192.93" width="1971.7" height="1262.5" fill="#98D5E9"/>
<path d="m-8.736 845.94c8.894 0 922.07-77.756 1369.8-77.756 447.7 0 595.95 40.52 595.95 40.52l11.86 465.59-1965.8 20.7-11.836-449.06z" fill="#C3E088"/>
	<path d="m350.94 669.64c18.298 0.12 38.784 18.249 52.472 52.471 6.284 15.714 34.219 59.315 34.219 59.315s36.944 15.249 61.347 9.856 5.234-13.363 20.829-17.46c15.594-4.088 27.407-9.427 23.676 1.919-3.728 11.346-19.842 11.915-19.842 11.915s28.444-2.381 26.733 10.467l-1.707 12.848s-28.962-1.139-23.938-3.679c5.027-2.537 24.456 7.201 15.182 17.564-9.275 10.36-27.46-3.161-27.46-3.161s-18.339 9.896-27.406 9.433c-9.066-0.466-20.725-18.545-20.725-18.545s-32.846 33.619-49.011 21.603l-14.238-5.92s-11.174 10.077-12.592 0.441l-1.416-9.631s-8.015-35.381-3.767-54.285" fill="#EEB461"/>
	<path d="m350.94 669.64c3.055 0.025 6.114 0.494 9.039 1.403 2.927 0.905 5.737 2.177 8.392 3.709 5.311 3.084 9.991 7.161 14.15 11.662 8.265 9.101 14.523 19.844 19.486 31.039 0.637 1.396 1.208 2.819 1.806 4.231 0.615 1.365 1.214 2.805 1.889 4.155 1.328 2.719 2.762 5.412 4.229 8.086 1.474 2.67 2.987 5.32 4.522 7.959 1.546 2.632 3.092 5.265 4.677 7.875 3.155 5.229 6.361 10.429 9.59 15.614 3.234 5.182 6.501 10.348 9.812 15.474l-0.493-0.411c2.396 0.939 4.871 1.806 7.337 2.628 2.472 0.82 4.962 1.59 7.465 2.307 5.008 1.423 10.067 2.671 15.172 3.611 5.101 0.951 10.251 1.627 15.396 1.838 1.286 0.068 2.571 0.067 3.854 0.067l1.921-0.033 1.914-0.097c0.64-0.021 1.271-0.099 1.906-0.155 0.634-0.056 1.268-0.117 1.894-0.218 1.262-0.152 2.499-0.405 3.738-0.649l-1.134 0.969c0.772-1.822 1.67-3.32 2.695-4.851 1.024-1.503 2.168-2.92 3.413-4.245 2.496-2.642 5.424-4.896 8.65-6.598 1.612-0.853 3.295-1.566 5.022-2.142 0.848-0.299 1.766-0.538 2.59-0.767l2.487-0.682c3.321-0.925 6.63-1.935 10.033-2.833 1.706-0.442 3.43-0.865 5.259-1.139 0.916-0.134 1.86-0.231 2.879-0.209 1.006 0.04 2.167 0.146 3.373 0.901 0.591 0.379 1.123 0.971 1.442 1.609 0.318 0.64 0.454 1.284 0.505 1.868 0.091 1.175-0.088 2.175-0.306 3.12-0.113 0.471-0.243 0.928-0.386 1.373l-0.075 0.23-0.057 0.152-0.113 0.305-0.231 0.615c-0.423 0.962-0.862 1.831-1.414 2.631-1.073 1.632-2.461 3.017-3.981 4.155-1.52 1.147-3.183 2.033-4.884 2.758-1.707 0.716-3.462 1.258-5.239 1.663-1.797 0.403-3.53 0.683-5.462 0.797l-0.209-3.521c1.006-0.079 1.945-0.121 2.914-0.152 0.962-0.03 1.924-0.043 2.887-0.038 1.925 0.01 3.854 0.09 5.787 0.262 1.933 0.173 3.871 0.439 5.808 0.867 1.935 0.435 3.879 1.016 5.764 1.984 0.941 0.48 1.862 1.083 2.712 1.836 0.84 0.762 1.611 1.701 2.125 2.808 0.535 1.097 0.767 2.327 0.787 3.495 2e-3 0.561-0.057 1.208-0.121 1.662l-0.183 1.399-1.507 11.188-0.222 1.65-1.65-0.074c-3.609-0.161-7.189-0.375-10.788-0.653-1.798-0.142-3.597-0.3-5.401-0.495-1.807-0.199-3.609-0.417-5.462-0.768-0.465-0.089-0.934-0.189-1.419-0.313-0.493-0.134-0.975-0.26-1.601-0.553-0.158-0.077-0.334-0.17-0.547-0.321-0.208-0.169-0.486-0.332-0.79-0.911-0.141-0.271-0.243-0.717-0.195-1.11 0.044-0.415 0.193-0.711 0.334-0.933 0.284-0.415 0.518-0.571 0.71-0.714 0.095-0.066 0.186-0.123 0.268-0.17l0.122-0.067 0.188-0.095c0.127-0.054 0.148-0.074 0.363-0.153 0.407-0.152 0.681-0.218 0.989-0.274 1.201-0.211 2.251-0.122 3.262 0.023 1.005 0.158 1.959 0.407 2.885 0.71 1.847 0.617 3.587 1.444 5.223 2.47 1.633 1.026 3.17 2.252 4.492 3.771 1.305 1.511 2.425 3.396 2.763 5.608 0.362 2.212-0.279 4.534-1.405 6.278-0.544 0.879-1.223 1.701-1.879 2.364-0.777 0.783-1.543 1.388-2.434 1.944-1.754 1.1-3.776 1.718-5.764 1.922-1.995 0.203-3.962 0.038-5.839-0.335-1.881-0.373-3.687-0.946-5.425-1.637-1.74-0.69-3.413-1.501-5.035-2.394-1.63-0.905-3.167-1.848-4.733-2.978l1.747 0.126c-2.184 1.152-4.354 2.206-6.57 3.227-2.213 1.014-4.453 1.978-6.735 2.858s-4.602 1.691-7.001 2.342c-2.402 0.637-4.865 1.182-7.564 1.144-1.335-0.01-2.858-0.397-4.062-0.923-1.24-0.526-2.364-1.193-3.42-1.917-2.093-1.474-3.932-3.17-5.645-4.951-1.717-1.779-3.298-3.657-4.809-5.583-0.752-0.965-1.485-1.943-2.198-2.936-0.716-0.998-1.402-1.987-2.086-3.044l2.193 0.222c-1.737 1.724-3.493 3.334-5.299 4.93-1.804 1.589-3.646 3.134-5.528 4.631-3.767 2.989-7.689 5.802-11.852 8.27-4.163 2.446-8.577 4.608-13.392 5.78-2.404 0.563-4.925 0.861-7.462 0.586-2.528-0.263-5.051-1.189-7.104-2.749l0.22 0.125-14.199-6.014 0.983-0.168c-0.874 0.757-1.748 1.42-2.684 2.054-0.932 0.626-1.902 1.209-2.945 1.695-1.042 0.479-2.157 0.893-3.416 0.988-0.626 0.043-1.298-9e-3 -1.946-0.245-0.648-0.229-1.237-0.661-1.658-1.177-0.847-1.051-1.149-2.266-1.318-3.403l-0.441-3.235-0.879-6.463 9e-3 0.05c-0.933-4.494-1.702-8.993-2.377-13.517-0.669-4.521-1.224-9.062-1.619-13.615-0.394-4.554-0.63-9.125-0.561-13.696 0.072-4.565 0.403-9.153 1.434-13.604-0.902 4.478-1.099 9.055-1.04 13.604 0.074 4.553 0.415 9.098 0.897 13.625 0.491 4.527 1.14 9.036 1.903 13.524 0.768 4.485 1.635 8.966 2.651 13.386l4e-3 0.021 5e-3 0.03 1.018 6.442 0.51 3.218c0.159 0.994 0.474 1.959 1.026 2.598 0.542 0.638 1.328 0.881 2.252 0.79 0.916-0.085 1.877-0.443 2.792-0.893 0.919-0.453 1.809-1.011 2.667-1.616 0.851-0.604 1.704-1.27 2.463-1.947l0.439-0.391 0.544 0.223 14.277 5.826 0.113 0.046 0.107 0.079c1.769 1.302 3.885 2.055 6.093 2.258 2.21 0.213 4.487-0.075 6.704-0.627 4.446-1.14 8.67-3.259 12.668-5.684 4.002-2.444 7.805-5.244 11.458-8.223 1.826-1.492 3.614-3.032 5.364-4.615 1.743-1.579 3.476-3.214 5.098-4.867l1.218-1.241 0.975 1.463c0.637 0.955 1.334 1.937 2.034 2.884 0.704 0.952 1.426 1.892 2.166 2.814 1.483 1.842 3.031 3.63 4.678 5.293 1.642 1.665 3.386 3.219 5.248 4.492 0.93 0.631 1.891 1.188 2.869 1.598 1.007 0.413 1.855 0.641 2.931 0.666 2.124 0.029 4.422-0.452 6.654-1.064 2.245-0.618 4.473-1.405 6.675-2.267 2.204-0.862 4.384-1.812 6.542-2.811 2.15-1.001 4.307-2.062 6.375-3.164l0.9-0.479 0.847 0.605c1.342 0.961 2.863 1.894 4.368 2.716 1.518 0.827 3.078 1.573 4.669 2.196 3.167 1.239 6.538 2.045 9.694 1.713 1.568-0.171 3.052-0.643 4.335-1.454 0.63-0.389 1.269-0.912 1.752-1.4 0.599-0.612 1.056-1.189 1.455-1.832 0.792-1.267 1.125-2.627 0.911-3.971-0.206-1.348-0.952-2.689-1.983-3.867-2.089-2.358-5.108-4.146-8.199-5.179-1.519-0.498-3.226-0.812-4.41-0.597-0.134 0.018-0.292 0.075-0.306 0.075 1e-3 -0.013-0.176 0.075-0.255 0.108-0.024 0.011 0.131-0.062 0.062-0.029l-7e-3 4e-3 -0.015 8e-3 -0.025 0.015c-0.016 9e-3 -0.02 0.012-0.016 0.01 0.01-0.015 0.069-0.025 0.228-0.253 0.083-0.128 0.18-0.32 0.217-0.623 0.039-0.283-0.047-0.613-0.134-0.785-0.205-0.375-0.305-0.389-0.335-0.427-0.03-0.021-0.01-6e-3 0.034 0.014 0.184 0.09 0.568 0.212 0.94 0.305 0.382 0.097 0.789 0.183 1.204 0.26 1.667 0.309 3.423 0.518 5.176 0.701 1.756 0.183 3.525 0.331 5.297 0.462 3.542 0.26 7.113 0.457 10.658 0.6l-1.872 1.576 1.466-11.193 0.189-1.398c0.067-0.479 0.086-0.769 0.095-1.149-0.017-0.708-0.136-1.372-0.429-1.972-0.548-1.208-1.745-2.225-3.208-2.981-1.462-0.763-3.148-1.293-4.879-1.686-1.736-0.393-3.532-0.65-5.346-0.82-1.814-0.169-3.648-0.253-5.486-0.271-0.919-9e-3 -1.839-1e-3 -2.758 0.024-0.911 0.024-1.853 0.064-2.723 0.129l-0.209-3.521c1.528-0.084 3.232-0.336 4.815-0.691 1.604-0.358 3.173-0.838 4.666-1.456 2.97-1.239 5.673-3.074 7.353-5.613 0.441-0.623 0.775-1.314 1.065-1.93l0.229-0.6 0.114-0.305 0.057-0.152c-0.042 0.121-8e-3 0.023-0.017 0.046l6e-3 -0.018 0.011-0.036 0.022-0.07c0.124-0.38 0.231-0.757 0.323-1.128 0.181-0.736 0.282-1.471 0.235-2.028-0.021-0.277-0.082-0.491-0.148-0.631-0.074-0.133-0.136-0.211-0.272-0.305-0.267-0.188-0.893-0.345-1.604-0.355-0.714-0.02-1.501 0.049-2.299 0.164-1.602 0.231-3.252 0.622-4.901 1.044-3.304 0.857-6.631 1.855-9.991 2.775l-2.529 0.681c-0.847 0.231-1.609 0.425-2.397 0.698-1.563 0.513-3.083 1.15-4.539 1.911-2.912 1.521-5.56 3.539-7.833 5.924-1.133 1.196-2.178 2.479-3.112 3.837-0.917 1.337-1.793 2.836-2.379 4.205l-0.35 0.817-0.784 0.151c-1.334 0.258-2.667 0.52-4.01 0.674-0.669 0.103-1.341 0.164-2.012 0.22s-1.342 0.132-2.013 0.15c-1.343 0.078-2.683 0.113-4.022 0.099-1.337-0.023-2.675-0.049-4.004-0.144-5.327-0.317-10.585-1.109-15.768-2.175-5.187-1.056-10.294-2.416-15.341-3.951-2.522-0.772-5.027-1.598-7.514-2.475-2.49-0.882-4.949-1.792-7.414-2.812l-0.316-0.131-0.178-0.282c-3.265-5.182-6.475-10.387-9.657-15.614-3.188-5.222-6.313-10.483-9.37-15.787-1.539-2.645-3.041-5.312-4.542-7.979-1.49-2.675-2.96-5.361-4.39-8.071-1.424-2.713-2.815-5.442-4.119-8.243-0.664-1.396-1.213-2.794-1.828-4.226-0.578-1.41-1.128-2.831-1.745-4.225-4.799-11.18-10.889-21.924-18.987-31.055-4.06-4.53-8.64-8.653-13.869-11.801-2.614-1.563-5.387-2.873-8.288-3.82-2.89-0.95-5.93-1.46-8.99-1.54z"/>
		<path d="m220.38 1074.8c0.124 0.214 12.43-7.565 12.599-7.273 0.407 0.704-24.167 24.264-23.82 24.864 0.614 1.064 51.502-31.206 52.14-30.103 0.964 1.67-73.382 52.283-72.346 54.077 1.321 2.288 88.787-54.25 90.082-52.008 1.368 2.368-107.26 68.094-105.42 71.284 1.574 2.727 128.71-78.672 130.6-75.4 2.096 3.631-137.69 85.317-135.31 89.444 1.99 3.447 144.14-87.753 146.1-84.351 1.83 3.169-137.76 84.893-135.65 88.552 2.537 4.395 153.98-94.422 156.37-90.28 2.091 3.622-157.97 98.488-155.75 102.33 2.56 4.433 170.06-104.39 172.74-99.734 2.736 4.739-156.01 96.432-153.5 100.77 2.835 4.911 176.06-108.62 179.08-103.39 2.162 3.744-153.5 94.335-150.82 98.98 2.875 4.979 183.75-111.66 186.16-107.48 2.812 4.87-187.43 113.18-184.89 117.56 2.59 4.487 191.09-116.21 193.64-111.8 2.314 4.008-165.86 101.16-163.12 105.91 2.699 4.675 192.53-117.34 195.21-112.7 2.618 4.535-176.33 108.09-173.79 112.48 2.378 4.12 184.72-113.27 187.58-108.3 2.73 4.729-173.21 106.95-170.89 110.97 2.499 4.328 197.33-120.57 200.21-115.59 3.083 5.341-191.31 114.38-188.58 119.11 2.401 4.158 198.48-120.58 201.08-116.09 2.919 5.057-174.48 105.21-171.77 109.91 2.555 4.425 199.16-122.38 202.36-116.83 3.208 5.556-199.52 118.09-196.21 123.83 2.932 5.078 204.03-124.26 206.83-119.41 3.188 5.522-185.3 111.03-182.11 116.55 2.921 5.06 197.33-121.6 200.65-115.85 2.445 4.236-178.36 109.6-176.22 113.32 3.207 5.554 196.99-119.56 199.51-115.19 2.308 3.997-175.75 105.67-172.78 110.81 3.228 5.59 198.82-120.59 201.33-116.24 2.655 4.598-185.99 111.62-182.96 116.87 3.117 5.398 201.8-123.68 204.91-118.3 2.523 4.37-181.85 108.09-178.72 113.5 2.81 4.866 188.49-115.67 191.45-110.54 2.295 3.976-184.16 112.34-181.94 116.19 3.048 5.279 205.94-124.3 208.28-120.25 3.062 5.304-190.96 114.81-188.1 119.76 2.43 4.21 200.98-123.64 204.27-117.94 2.254 3.905-172.02 104.34-169.58 108.56 2.719 4.709 194.62-119.46 197.7-114.14 2.354 4.077-178.16 106.77-175.29 111.75 2.485 4.305 187.42-113.63 189.76-109.56 2.818 4.881-171.47 105.04-169.11 109.14 3.075 5.326 187.74-115.06 190.62-110.06 2.494 4.319-167.39 102.24-164.98 106.42 2.946 5.103 187.53-115.02 190.45-109.96 2.978 5.158-185.53 111.69-182.98 116.1 2.518 4.36 194.43-118.92 197.32-113.92 2.436 4.219-170.33 102.33-167.41 107.38 2.472 4.281 186.44-113.88 189.14-109.2 2.907 5.035-171.87 105.65-169.27 110.16 2.237 3.875 184.59-113.31 187.51-108.26 2.563 4.439-165.48 102.32-163.2 106.26 2.29 3.966 190.4-116.04 193.04-111.45 2.749 4.761-172.84 104.48-170.38 108.74 3.197 5.537 192.86-117.96 195.73-113 2.339 4.051-176.75 107.88-174.34 112.05 2.22 3.846 185.68-114.62 188.89-109.06 2.352 4.073-163.94 101.69-161.69 105.58 2.222 3.85 189.15-115.21 191.75-110.71 2.412 4.178-172.42 105.22-169.9 109.58 3.298 5.713 176.2-108.33 179.06-103.38 2.203 3.815-169.29 103.06-166.84 107.3 3.15 5.456 190.54-116.46 193.34-111.62 2.718 4.707-171.38 104.65-168.75 109.21 2.308 3.997 186.22-115.05 189.48-109.4 2.894 5.011-167.57 100.89-164.9 105.53 2.308 3.998 177.61-108.77 180.31-104.1 2.326 4.029-164.16 100.32-161.52 104.88 2.26 3.915 187-113.32 189.32-109.31 2.072 3.591-170.98 104.48-168.29 109.14 3.022 5.234 183.4-112.24 186.15-107.47 2.553 4.422-177.43 105.91-174.45 111.07 2.758 4.778 188.99-114.97 191.52-110.58 2.248 3.893-160.02 97.839-157.23 102.66 3.01 5.213 172.77-107.1 175.95-101.58 2.77 4.798-158.11 96.801-155.76 100.86 3.065 5.309 178.86-110.12 181.82-104.98 2.354 4.078-176.75 107.92-174.54 111.75 2.543 4.405 189.29-115.83 192.12-110.92 2.479 4.295-168.94 102.58-166.4 106.99 2.774 4.806 196.92-119.72 199.53-115.2 2.999 5.193-172.14 104.84-169.45 109.5 2.235 3.872 175.51-106.49 177.74-102.62 2.512 4.352-166.59 102.38-164.38 106.22 3.12 5.404 195.99-119.92 198.92-114.85 3.052 5.286-185.95 110.92-182.74 116.47 2.514 4.354 193.32-117.08 195.69-112.98 2.536 4.393-157.83 99.127-155.94 102.4 2.877 4.982 184.67-112.66 187.29-108.13 2.885 4.996-181.28 107.78-178.2 113.12 3.199 5.541 193.79-117.9 196.39-113.39 2.848 4.932-179.16 108.18-176.43 112.92 3.033 5.254 188.96-115.35 191.67-110.66 2.413 4.18-164.22 100.83-161.69 105.21 3.154 5.465 176.36-108.67 179.32-103.53 2.536 4.392-168.1 101.86-165.47 106.42 2.148 3.721 178.01-109.54 180.94-104.46 2.285 3.956-162.37 100.12-159.84 104.51 2.618 4.535 196.13-119.42 198.8-114.78 2.964 5.133-172.31 104.7-169.5 109.56 2.479 4.292 184.19-112.7 186.94-107.93 2.202 3.814-172.26 105.16-170.15 108.79 2.273 3.938 174.94-105.9 177.06-102.23 1.949 3.375-156.22 96.74-154.37 99.944 2.28 3.951 177.53-108.91 180.31-104.1 2.422 4.195-163.29 101.86-161.19 105.49 2.795 4.84 181.33-110.4 183.8-106.12 2.358 4.084-151.71 94.245-149.39 98.267 2.575 4.46 173.73-105.47 175.97-101.59 2.142 3.71-170.9 103.42-167.91 108.59 2.408 4.171 186.52-114.59 189.5-109.41 2.009 3.479-154.62 95.648-152.2 99.84 2.508 4.344 169.64-103.34 171.98-99.293 2.397 4.151-159.44 98.412-156.91 102.81 2.32 4.02 182.25-112.22 185.28-106.98 2.761 4.781-160.75 98.096-158.43 102.12 2.899 5.021 167.13-102.57 169.76-98.012 2.531 4.385-146.63 91.15-144.14 95.459 2.495 4.322 171.99-105.49 174.67-100.85 2.349 4.067-161.27 100.15-158.93 104.19 2.507 4.343 176.53-108.33 179.31-103.52 2.635 4.563-161.91 98.704-159.46 102.95 2.078 3.601 169.67-103.95 172.26-99.457 2.042 3.537-149.77 91.267-147.32 95.522 2.425 4.2 171.78-104.27 173.99-100.45 2.232 3.867-160.33 97.907-158.01 101.92 2.655 4.599 172.07-104.7 174.39-100.69 2.631 4.558-158.54 95.842-155.77 100.64 2.633 4.56 173.3-105.44 175.63-101.4 2.322 4.022-151.38 95.377-149.55 98.559 2.232 3.867 163.47-99.271 165.59-95.601 1.738 3.01-143.48 88.769-141.6 92.02 1.872 3.241 150.99-93.437 153.7-88.739 1.706 2.954-135.09 84.113-132.72 88.229 1.955 3.387 153.5-94.592 156.09-90.116 1.637 2.834-135.7 85.947-133.74 89.327 2.375 4.113 149.48-91.473 151.72-87.595 1.784 3.091-126.66 80.332-124.95 83.281 1.906 3.302 136.47-83.415 138.47-79.948 1.46 2.528-114.44 73.704-113.03 76.146 1.724 2.984 115.97-70.806 117.64-67.917 1.481 2.565-97.996 64.24-96.412 66.984 1.86 3.222 112.84-68.234 114.18-65.921 1.128 1.955-92.429 62.577-91.237 64.642 1.402 2.429 94.079-57.407 95.418-55.09 0.927 1.606-67.651 48.903-66.616 50.695 1.357 2.351 86.94-53.271 88.272-50.965 1.284 2.225-72.97 51.734-71.893 53.6 1.009 1.747 80.637-48.743 81.584-47.103 0.927 1.605-52.195 39.139-51.369 40.568 0.902 1.564 65.946-40.114 66.83-38.584 0.877 1.52-52.699 38.707-51.75 40.351 0.592 1.024 57.836-34.974 58.521-33.787 0.311 0.537-13.912 17.793-13.58 18.369 0.207 0.357 17.129-10.377 17.34-10.012" fill="none" stroke="#ACC37E" stroke-linecap="round" stroke-linejoin="round" stroke-width="3.924"/>
<path d="m707.32 933.08s-57.673-21.006-74.431 25.657c0 0-93.441 48.68-97.321 35.794-3.88-12.885 109-118.71 31.249-172.64-49.501-34.333-112.33 45.18-112.33 45.18s-30.827-32.784-60.586-68.515c-1.89 14.878-3.497 29.795-4.684 44.745-0.602 7.577-1.154 15.161-1.579 22.752-0.246 4.346-0.483 8.696-0.671 13.049v6e-3c-2e-3 0.048-3e-3 0.088-3e-3 0.137-0.898 29.529-0.659 59.104 0.958 88.604 0.146 2.667 0.312 5.338 0.475 8.003 0.661-1.517 1.264-3.042 1.807-4.568 0 0 43.537 11.753 90.191-27.159 3.863-3.219 7.14-5.957 9.925-8.289 1.647 5.905 14.765 54.945 1.847 76.091 0 0-35.147 48.419-5.997 48.288 29.146-0.13 67.922-38.291 98.946-46.554 31.021-8.261 71.431-1.51 71.431-1.51s24.645 8.252 32.647-19.021c8.001-27.272-16.392-32.898-16.392-32.898s17.598 10.755 22.482 34.148c-0.01 0.05 36.92-50.37 12.03-61.25z" fill="#BC6124" stroke="#000" stroke-miterlimit="10" stroke-width="3.5188"/>
		<g enable-background="new    ">
				<polygon points="1220.7 1062.2 1154.8 1026.2 1019.7 845.23 1085.6 881.2" fill="#3D2108"/>
				<polygon points="1159.4 1026.2 1093.6 990.23 1021.5 893.72 1087.3 929.69" fill="#7E581E"/>
				<polygon points="956.71 1073.7 890.88 1037.8 1154.8 1026.2 1220.7 1062.2" fill="#49280A"/>
				<polygon points="1018.6 1032.4 952.79 996.39 1093.6 990.23 1159.4 1026.2" fill="#976A23"/>
				<polygon points="1148.1 1020.8 1082.2 984.87 1021.7 903.78 1087.5 939.76" fill="#3D2108"/>
				<polygon points="1029.8 1026 963.98 990.04 1082.2 984.87 1148.1 1020.8" fill="#49280A"/>
				<polygon points="1018.6 1032.4 952.79 996.39 1021.5 893.72 1087.3 929.69" fill="#3D2108"/>
				<polygon points="956.71 1073.7 890.88 1037.8 1019.7 845.23 1085.6 881.2" fill="#7F591E"/>
				<path d="m1085.6 881.2l135.1 180.99-263.98 11.541 128.88-192.5zm1.7 48.49l-68.723 102.67 140.78-6.156-72.1-96.51" fill="#DD9B34"/>
				<path d="m1085.4 871.13l146.62 196.43-286.48 12.521 139.88-208.97zm0.2 10.07l-128.89 192.5 263.98-11.54-135.1-181" fill="#6B3A0E"/>
				<path d="m1159.4 1026.2l-53.799-72.059-18.26-24.456-68.723 102.67 140.8-6.2zm-11.3-5.4l-118.27 5.173 57.736-86.257 60.6 81.06" fill="#6B3A0E"/>
				<polygon points="945.52 1080.1 879.69 1044.1 1019.5 835.15 1085.4 871.13" fill="#3D2108"/>
		</g>
<polygon points="365 990.08 1642.2 636.95 1804 648.72 267.89 1060.7" fill="#FBB03B" stroke="#000" stroke-miterlimit="10" stroke-width="5.8859"/>
<rect transform="matrix(.9653 -.2611 .2611 .9653 -192.15 301.27)" x="234.3" y="858.73" width="1607.2" height="30.283" fill="#BB7726" stroke="#000" stroke-miterlimit="10" stroke-width="6.9975"/>
<path d="m322.75 126.34c-10.07 0-19.582 2.188-28.031 6.063-16.466-20.744-44.256-34.373-75.77-34.373-40.261 0-74.423 22.25-86.678 53.154-25.021 2.75-44.492 23.951-44.492 49.704 0 9.083 2.436 17.592 6.667 24.933h273.42c11.195-10.556 18.11-25.015 18.11-40.976 0-32.3-28.31-58.49-63.22-58.49z" fill="#B8DDE1"/>
<path d="m367.1 604.62c-8.582 18.393-22.071 50.271-22.071 50.271 26.331 24.682 53.457 80.112 53.457 80.112 17.052 32.401 11.821-16.252 59.541 118.68 0 0 70.992-43.034 126.9 27.59 52.412 66.207-52.415 162.76-49.657 176.56 2.759 13.795 104.83-27.586 104.83-27.586 22.069-46.896 80.002-19.312 80.002-19.312 24.829 13.794-19.314 55.171-19.314 55.171-2.759-24.827-19.307-30.342-19.307-30.342s24.829 8.276 13.792 35.863c-11.034 27.589-35.864 16.552-35.864 16.552s-41.38-11.035-74.484-5.518-77.244 41.38-107.59 38.622c-30.346-2.76 11.032-49.656 11.032-49.656 16.554-22.068 5.518-80.001 5.518-80.001s41.382-27.589-11.034 8.274-96.555 19.312-96.555 19.312c-71.671 154.6-342.3 133.21-342.3 133.21 167.98-32.2 262.3-152.6 262.3-152.6-121.39-129.66-8.277-347.6-8.277-347.6s49.007-97.474 55.59-108.99" fill="#EEB461" stroke="#000" stroke-miterlimit="10" stroke-width="3.6785"/>
<path d="m342.16 732.31c-10.662 25.593-24.829 118.62 13.794 154.49 38.623 35.863 22.068 46.901 38.623 35.863 16.55-11.035 11.034-30.347 30.345-44.14 19.31-13.792 29.557-11.442 29.557-11.442s-48.868-112.7-65.42-132.01c-16.55-19.31-33.1-35.87-46.9-2.76z" fill="#FDDB83"/>
<path d="m405.61 919.9s17.361-60.538 66.613-71.649" fill="#EEB461" stroke="#000" stroke-miterlimit="10" stroke-width="3.6785"/>
	<path d="m313.59 698.32c18.086 2.781 16.694 18.082 13.912 34.775-2.782 16.692-18.38 56.236-18.38 56.236s62.316 17.803 87.241 16.021 7.124-12.462 23.149-14.244c16.023-1.777 28.487-5.34 23.145 5.342-5.341 10.684-21.367 8.902-21.367 8.902s28.489 1.781 24.927 14.245l-3.56 12.463s-28.487-5.341-23.145-7.121c5.341-1.78 23.145 10.681 12.461 19.583s-26.707-7.121-26.707-7.121-19.584 7.121-28.487 5.341-17.805-21.362-17.805-21.362-37.389 28.482-51.633 14.24l-13.228-7.93s-12.52 8.346-12.52-1.393v-9.737s-2.782-36.168 4.173-54.254" fill="#EEB461"/>
	<path d="m313.59 698.32c2.11 0.3 4.215 0.789 6.187 1.64 1.96 0.853 3.833 2.021 5.281 3.639 1.485 1.583 2.53 3.539 3.227 5.587 0.675 2.061 1.009 4.214 1.155 6.362 0.26 4.31-0.158 8.606-0.713 12.851l-0.452 3.179-0.243 1.586-0.331 1.591c-0.454 2.087-0.838 4.185-1.348 6.264l-1.7 6.217c-0.537 2.088-1.219 4.108-1.84 6.157-0.643 2.04-1.246 4.096-1.923 6.124l-2.03 6.086c-0.661 2.035-1.389 4.044-2.103 6.06-0.721 2.013-1.414 4.036-2.159 6.04-1.465 4.018-2.945 8.024-4.481 12.023l-0.702-1.422c7.127 1.953 14.314 3.772 21.508 5.504 3.601 0.856 7.204 1.698 10.817 2.498 1.803 0.415 3.613 0.791 5.422 1.177 1.81 0.382 3.616 0.781 5.431 1.129l5.439 1.077 5.453 0.982c1.815 0.345 3.64 0.612 5.462 0.903 1.822 0.286 3.642 0.594 5.47 0.809 1.826 0.227 3.65 0.499 5.477 0.688l5.479 0.529 5.466 0.271c1.812 0.021 3.606-0.072 5.41-0.099l-1.263 0.795c1.028-1.69 2.14-3.038 3.373-4.406 1.232-1.338 2.581-2.559 3.994-3.703 1.441-1.106 2.942-2.145 4.544-3.013 0.803-0.43 1.597-0.88 2.443-1.222 0.832-0.372 1.665-0.744 2.537-1.016 0.861-0.3 1.719-0.609 2.611-0.802 0.885-0.212 1.761-0.479 2.666-0.589 1.825-0.32 3.54-0.501 5.231-0.713 3.419-0.432 6.84-0.948 10.336-1.343 1.75-0.193 3.522-0.351 5.368-0.361 0.929 7e-3 1.875 0.043 2.879 0.211 0.987 0.183 2.125 0.457 3.204 1.39 0.543 0.441 0.95 1.122 1.198 1.79 0.203 0.673 0.267 1.338 0.224 1.919-0.079 1.176-0.395 2.149-0.755 3.043-0.169 0.464-0.382 0.874-0.578 1.306l-0.038 0.08-0.019 0.04-9e-3 0.021-0.074 0.138-0.083 0.14-0.167 0.278-0.334 0.558-0.334 0.557c-0.106 0.185-0.214 0.37-0.395 0.577l-0.981 1.196c-0.322 0.422-0.687 0.732-1.048 1.054-0.364 0.32-0.718 0.654-1.093 0.957-0.802 0.519-1.558 1.146-2.418 1.541l-1.265 0.653-1.306 0.526c-0.867 0.367-1.77 0.584-2.658 0.854-1.794 0.449-3.607 0.731-5.424 0.884-1.836 0.143-3.593 0.159-5.52-4e-3l0.305-3.515c1.007 0.068 1.941 0.164 2.905 0.273 0.957 0.108 1.909 0.24 2.861 0.383 1.902 0.293 3.799 0.649 5.687 1.101 1.887 0.45 3.766 0.997 5.62 1.705 0.926 0.358 1.849 0.742 2.753 1.209 0.91 0.443 1.797 0.987 2.661 1.592 0.852 0.631 1.692 1.327 2.41 2.22 0.74 0.853 1.336 1.925 1.693 3.08 0.403 1.162 0.385 2.404 0.281 3.571-0.111 0.537-0.231 1.188-0.361 1.628l-0.385 1.357-3.12 10.849-0.46 1.6-1.622-0.313c-3.546-0.684-7.056-1.416-10.575-2.216-1.758-0.4-3.514-0.819-5.271-1.274-1.758-0.46-3.509-0.938-5.291-1.554-0.447-0.157-0.896-0.322-1.358-0.517-0.467-0.202-0.926-0.398-1.505-0.781-0.068-0.044-0.147-0.101-0.233-0.171-0.085-0.07-0.154-0.118-0.263-0.229-0.104-0.108-0.179-0.17-0.312-0.358-0.059-0.083-0.114-0.168-0.165-0.255-0.061-0.111-0.126-0.269-0.17-0.409-0.096-0.232-0.13-0.759-0.036-1.098 0.048-0.18 0.119-0.359 0.208-0.523 0.088-0.158 0.153-0.23 0.244-0.343 0.198-0.231 0.317-0.307 0.458-0.411 0.158-0.115 0.244-0.151 0.355-0.211 0.114-0.06 0.215-0.104 0.294-0.132l0.131-0.05 0.065-0.024 0.033-0.013 0.176-0.052 0.327-0.075c0.15-0.052 0.618-0.103 0.964-0.127 1.293-0.041 2.266 0.205 3.259 0.495 0.976 0.298 1.884 0.682 2.752 1.122 1.745 0.868 3.334 1.956 4.81 3.2 1.468 1.25 2.802 2.696 3.896 4.383 1.063 1.693 1.901 3.711 1.913 5.952 0.021 2.23-0.926 4.451-2.306 5.998-0.342 0.395-0.687 0.786-1.072 1.112l-0.563 0.514-0.607 0.462-0.547 0.403-0.699 0.425c-0.47 0.304-0.937 0.504-1.405 0.719-1.89 0.844-3.983 1.153-5.977 1.06-2.001-0.088-3.929-0.524-5.729-1.173-1.805-0.646-3.506-1.476-5.127-2.408-1.624-0.932-3.154-1.985-4.633-3.099-1.479-1.135-2.865-2.288-4.249-3.635l1.71 0.38c-2.328 0.822-4.629 1.546-6.97 2.234-2.335 0.686-4.696 1.298-7.08 1.844-1.191 0.275-2.393 0.52-3.604 0.739-1.212 0.214-2.428 0.417-3.665 0.554-0.621 0.062-1.234 0.146-1.86 0.19l-1.89 0.095c-0.636 0.01-1.286-0.024-1.928-0.037-0.641-7e-3 -1.318-0.147-1.974-0.222-1.313-0.181-2.768-0.803-3.881-1.492-1.15-0.702-2.165-1.524-3.105-2.395-1.856-1.763-3.428-3.708-4.864-5.719-1.439-2.011-2.73-4.099-3.944-6.224-0.604-1.063-1.186-2.139-1.748-3.225-0.563-1.091-1.098-2.169-1.621-3.314l2.137 0.538c-1.969 1.452-3.941 2.789-5.96 4.105-2.015 1.311-4.062 2.569-6.143 3.775-4.158 2.414-8.455 4.612-12.926 6.458-1.128 0.439-2.248 0.896-3.399 1.283-1.138 0.417-2.308 0.758-3.473 1.106-1.178 0.316-2.359 0.621-3.566 0.848-0.596 0.138-1.208 0.215-1.816 0.307-0.607 0.098-1.217 0.178-1.837 0.213-1.229 0.124-2.479 0.13-3.728 0.072-0.625-0.064-1.252-0.087-1.875-0.19-0.621-0.125-1.247-0.222-1.862-0.377-0.607-0.196-1.223-0.37-1.821-0.593-0.582-0.273-1.173-0.528-1.741-0.825-0.541-0.352-1.09-0.691-1.617-1.06l-1.453-1.272 0.2 0.155-13.175-8.016 0.997-0.024c-0.975 0.622-1.936 1.15-2.953 1.642-1.015 0.481-2.057 0.922-3.161 1.248-1.1 0.326-2.265 0.564-3.522 0.482-0.627-0.056-1.281-0.207-1.889-0.528-0.616-0.312-1.117-0.844-1.464-1.406-0.368-0.57-0.525-1.188-0.665-1.784-0.051-0.299-0.081-0.597-0.12-0.895l-0.028-0.879 0.033-3.265 0.07-6.521 2e-3 0.051c-0.141-2.295-0.224-4.574-0.286-6.861-0.062-2.285-0.096-4.571-0.094-6.856 7e-3 -1.143-0.01-2.285 0.019-3.428l0.063-3.428 0.123-3.426c0.034-1.142 0.122-2.282 0.181-3.423 0.058-1.142 0.134-2.281 0.239-3.42 0.102-1.139 0.173-2.278 0.3-3.415l0.399-3.404c0.134-1.135 0.34-2.261 0.507-3.391 0.157-1.132 0.372-2.255 0.612-3.372 0.242-1.117 0.416-2.247 0.74-3.346 0.305-1.101 0.559-2.215 0.904-3.303l1.126-3.232-1.032 3.261c-0.313 1.095-0.535 2.215-0.807 3.319-0.291 1.102-0.432 2.236-0.642 3.354-0.207 1.12-0.388 2.243-0.512 3.376-0.133 1.131-0.306 2.256-0.407 3.39l-0.304 3.401c-0.102 1.133-0.149 2.271-0.226 3.407-0.08 1.135-0.131 2.271-0.164 3.41-0.034 1.138-0.098 2.274-0.107 3.413l-0.049 3.414 0.011 3.415c-4e-3 1.138 0.038 2.276 0.055 3.414 0.047 2.275 0.13 4.551 0.241 6.823 0.11 2.271 0.243 4.55 0.43 6.805l2e-3 0.02v0.031l0.07 6.521 0.037 3.258 0.04 0.75 0.113 0.719c0.119 0.452 0.245 0.907 0.487 1.247 0.231 0.346 0.505 0.636 0.871 0.808 0.36 0.178 0.784 0.274 1.238 0.307 0.921 0.043 1.92-0.163 2.892-0.479 0.976-0.311 1.936-0.739 2.874-1.209 0.93-0.477 1.87-1.01 2.72-1.568l0.491-0.323 0.506 0.3 13.279 7.843 0.055 0.032 0.145 0.123 1.249 1.064 1.381 0.879c0.489 0.244 0.998 0.452 1.494 0.684 0.519 0.183 1.056 0.323 1.581 0.491 0.539 0.128 1.095 0.202 1.641 0.309 0.552 0.085 1.12 0.094 1.678 0.146 1.128 0.036 2.266 0.02 3.404-0.112 0.57-0.038 1.138-0.12 1.706-0.221 0.568-0.093 1.137-0.17 1.7-0.31 1.133-0.228 2.253-0.532 3.371-0.848 1.11-0.35 2.224-0.688 3.317-1.106 1.102-0.385 2.181-0.844 3.266-1.282 4.311-1.846 8.485-4.048 12.53-6.469 2.024-1.209 4.018-2.472 5.979-3.783 1.953-1.31 3.906-2.673 5.751-4.072l1.386-1.051 0.751 1.589c0.49 1.038 1.038 2.109 1.592 3.149 0.558 1.044 1.136 2.078 1.733 3.1 1.2 2.037 2.471 4.031 3.858 5.916 1.381 1.887 2.881 3.678 4.538 5.208 0.829 0.76 1.698 1.451 2.606 1.998 0.939 0.551 1.735 0.914 2.809 1.075 0.539 0.049 1.047 0.171 1.61 0.172 0.561 6e-3 1.115 0.036 1.68 0.025l1.715-0.095c0.573-0.043 1.153-0.125 1.729-0.185 1.153-0.133 2.313-0.331 3.468-0.54 1.157-0.216 2.312-0.455 3.464-0.727 2.305-0.538 4.602-1.145 6.881-1.824 2.273-0.678 4.561-1.411 6.768-2.201l0.96-0.344 0.75 0.724c1.187 1.146 2.558 2.286 3.925 3.321 1.385 1.033 2.813 2.007 4.299 2.85 2.955 1.679 6.169 2.982 9.339 3.098 1.576 0.065 3.116-0.179 4.498-0.806 0.344-0.161 0.702-0.312 0.981-0.504l0.454-0.263 0.531-0.396 0.462-0.35 0.425-0.395c0.301-0.253 0.541-0.539 0.786-0.821 0.986-1.131 1.485-2.437 1.484-3.792-6e-3 -1.365-0.557-2.795-1.395-4.114-1.732-2.629-4.445-4.85-7.357-6.311-0.728-0.367-1.478-0.676-2.216-0.896-0.714-0.224-1.518-0.363-2.018-0.338-0.099 0.021-0.083-0.043-0.365 0.039l-0.327 0.077c-0.041 0.011 0.271-0.077 0.137-0.038l-6e-3 3e-3 -0.013 5e-3 -0.025 0.01c-0.027 8e-3 -0.027 0.01-0.012 5e-3 0.013-7e-3 -6e-3 0 0.066-0.042 0.051-0.038 0.074-0.054 0.207-0.193 0.057-0.067 0.076-0.103 0.142-0.21 0.067-0.112 0.118-0.24 0.145-0.368 0.083-0.233 0.027-0.638-0.017-0.77-0.023-0.089-0.073-0.191-0.109-0.253-0.019-0.041-0.042-0.08-0.069-0.117-0.077-0.091-0.062-0.081-0.09-0.108-0.028-0.029-0.018-0.01 0.029 0.017 0.167 0.113 0.527 0.291 0.883 0.437 0.364 0.15 0.755 0.294 1.153 0.432 1.604 0.547 3.311 1.009 5.017 1.446 1.711 0.436 3.439 0.84 5.173 1.228 3.466 0.771 6.969 1.486 10.455 2.144l-2.081 1.286 3.081-10.86 0.391-1.355c0.078-0.245 0.103-0.411 0.141-0.59l0.12-0.534c0.041-0.694 0.089-1.383-0.147-2.011-0.198-0.636-0.512-1.258-1.008-1.825-0.454-0.583-1.073-1.104-1.725-1.594-0.677-0.473-1.392-0.926-2.174-1.308-0.765-0.401-1.582-0.744-2.408-1.069-1.659-0.642-3.398-1.16-5.168-1.59-1.771-0.431-3.573-0.779-5.388-1.066-0.908-0.14-1.819-0.27-2.731-0.377-0.905-0.107-1.842-0.206-2.712-0.269l0.305-3.514c1.525 0.135 3.246 0.142 4.864 0.015 1.637-0.131 3.257-0.378 4.828-0.763 0.766-0.233 1.561-0.415 2.29-0.726l1.108-0.438 1.045-0.538c0.726-0.32 1.306-0.831 1.968-1.236 0.297-0.24 0.571-0.506 0.86-0.755 0.289-0.251 0.589-0.499 0.787-0.776l0.688-0.796c0.12-0.11 0.232-0.299 0.343-0.489l0.336-0.556 0.336-0.556 0.168-0.278 0.084-0.139c-0.126 0.229-0.031 0.054-0.057 0.101l8e-3 -0.017 0.016-0.033 0.031-0.067c0.162-0.356 0.352-0.716 0.478-1.067 0.298-0.703 0.494-1.413 0.529-1.969 0.027-0.284-0.019-0.487-0.049-0.649-0.077-0.125-0.09-0.237-0.236-0.338-0.228-0.229-0.824-0.476-1.528-0.588-0.706-0.122-1.497-0.163-2.299-0.171-1.621 2e-3 -3.306 0.139-5 0.32-3.393 0.367-6.829 0.869-10.287 1.291-1.748 0.21-3.48 0.391-5.071 0.667-0.821 0.09-1.608 0.335-2.408 0.521-0.807 0.167-1.58 0.445-2.356 0.713-0.788 0.237-1.538 0.572-2.289 0.904-0.766 0.301-1.481 0.708-2.208 1.092-1.45 0.775-2.81 1.71-4.122 2.705-1.284 1.032-2.515 2.135-3.637 3.343-1.097 1.192-2.187 2.543-2.966 3.812l-0.481 0.784-0.782 0.011c-1.902 0.025-3.815 0.113-5.708 0.081l-5.64-0.304-5.587-0.577c-1.858-0.217-3.699-0.516-5.548-0.771-1.852-0.243-3.684-0.577-5.521-0.89-1.835-0.318-3.676-0.613-5.499-0.983l-5.479-1.062-5.457-1.154c-1.821-0.373-3.63-0.799-5.443-1.206-1.812-0.411-3.626-0.812-5.43-1.253-3.617-0.85-7.222-1.742-10.823-2.648-7.199-1.833-14.367-3.746-21.514-5.807l-1.139-0.328 0.437-1.094c1.578-3.954 3.109-7.939 4.622-11.926 0.769-1.989 1.486-3.997 2.231-5.995l2.194-6.008 2.153-6.022c0.719-2.008 1.361-4.038 2.045-6.057 0.661-2.023 1.388-4.037 1.958-6.075l1.812-6.104c0.551-2.055 0.982-4.153 1.48-6.229l0.356-1.537 0.275-1.575 0.517-3.151c0.642-4.203 1.143-8.443 0.978-12.675-0.096-2.11-0.387-4.215-0.987-6.233-0.62-2.006-1.575-3.928-2.976-5.509-1.363-1.614-3.166-2.816-5.082-3.717-1.95-0.89-4.03-1.44-6.14-1.8z"/>
		<path d="m474.05 466.64s38.239-65.324 95.597-74.883c57.36-9.56 84.446 1.593 84.446 1.593s-19.119 70.104-74.885 89.225c-55.767 19.119-95.596 11.152-95.596 11.152" fill="#E89E6C" stroke="#000" stroke-miterlimit="10" stroke-width="4.7799"/>
			<path d="m515.48 460.26s19.12-52.577 133.84-60.544" fill="#EEB461"/>
			<path d="m515.48 460.26s0.166-0.576 0.581-1.626c0.417-1.047 1.069-2.578 2.102-4.422 1.027-1.845 2.344-4.066 4.119-6.427 1.759-2.369 3.854-4.982 6.402-7.587 2.545-2.601 5.4-5.353 8.694-7.922 0.799-0.676 1.65-1.303 2.507-1.947 0.862-0.636 1.712-1.315 2.614-1.938 1.802-1.249 3.647-2.525 5.602-3.692 0.973-0.591 1.938-1.217 2.94-1.793 1.007-0.568 2.021-1.14 3.042-1.715 2.023-1.188 4.174-2.185 6.304-3.267 2.163-1.009 4.357-1.998 6.569-2.967 2.241-0.893 4.466-1.86 6.738-2.697 2.289-0.787 4.553-1.652 6.855-2.359 2.305-0.698 4.58-1.467 6.873-2.095 2.293-0.629 4.567-1.258 6.831-1.806 2.271-0.509 4.515-1.013 6.721-1.507 2.211-0.468 4.396-0.87 6.537-1.25 1.071-0.185 2.126-0.391 3.176-0.551 1.05-0.152 2.088-0.303 3.112-0.451 2.048-0.286 4.033-0.61 5.964-0.839 1.934-0.197 3.802-0.388 5.596-0.571 3.578-0.425 6.884-0.559 9.802-0.746 1.46-0.079 2.822-0.195 4.088-0.223 1.265-0.026 2.428-0.051 3.478-0.073 2.098-0.055 3.748-0.044 4.871-0.06 1.123-9e-3 1.722-0.014 1.722-0.014s-0.592 0.095-1.703 0.272c-1.11 0.17-2.736 0.455-4.807 0.748-2.071 0.292-4.582 0.675-7.451 1.167-2.868 0.494-6.112 0.966-9.622 1.646-1.755 0.325-3.584 0.663-5.477 1.013-1.884 0.385-3.832 0.783-5.833 1.191-1 0.205-2.014 0.413-3.04 0.624-1.024 0.218-2.051 0.483-3.094 0.726-2.078 0.522-4.226 0.94-6.378 1.493-2.149 0.562-4.333 1.134-6.545 1.713-2.193 0.635-4.413 1.278-6.65 1.927-2.239 0.641-4.451 1.419-6.696 2.127-2.243 0.714-4.436 1.592-6.663 2.374-2.224 0.79-4.396 1.706-6.59 2.548-2.16 0.917-4.303 1.853-6.416 2.808-4.17 2.015-8.305 3.96-12.1 6.209-3.831 2.186-7.432 4.472-10.731 6.808-0.819 0.594-1.626 1.179-2.421 1.755-0.774 0.604-1.537 1.199-2.286 1.784-0.765 0.57-1.48 1.171-2.182 1.764-0.696 0.598-1.414 1.151-2.057 1.754-2.648 2.341-4.934 4.646-6.885 6.767-1.941 2.13-3.505 4.105-4.73 5.783-1.214 1.685-2.117 3.057-2.668 4.029-0.55 1.01-0.8 1.55-0.8 1.55z"/>
	<path d="m489.58 584.19c0.498 10.654-7.731 19.695-18.382 20.195-10.66 0.51-19.7-7.72-20.2-18.38-0.502-10.651 7.731-19.696 18.384-20.194 10.66-0.51 19.7 7.73 20.2 18.38z" fill="#fff" stroke="#000" stroke-miterlimit="10" stroke-width="1.8392"/>
	<path d="m511.78 703.18s-36.046-19.359-24.161-28.51c11.883-9.15 84.721-15.432 79.943 3.053-4.77 18.48-21.45 38.05-55.78 25.46z" fill="#944014" stroke="#000" stroke-miterlimit="10" stroke-width="1.8392"/>
	<circle cx="474.4" cy="594.15" r="13.988" fill="#944014" stroke="#000" stroke-miterlimit="10" stroke-width="1.8392"/>
	<path d="m342.78 649.4c8.584-14.714 28.203-64.984 34.333-64.984 41.219 0 55.177 115.26 99.32 153.27 44.14 38.01 107.9 12.262 111.58-35.559 3.678-47.819-82.155-117.71-82.155-117.71s31.881-26.978 30.25-56.919c-5.48-100.58-134.47-58.34-134.47-58.34" fill="#EEB461" stroke="#000" stroke-miterlimit="10" stroke-width="3.6785"/>
	<path d="m437.2 653.08" fill="#EEB461" stroke="#000" stroke-miterlimit="10" stroke-width="3.6785"/>
	<path d="m386.92 507.17" fill="#EEB461" stroke="#000" stroke-miterlimit="10" stroke-width="3.6785"/>
		<path d="m454.36 617.52s8.584 127.52 52.724 132.43" fill="#EEB461"/>
		<path d="m456.2 617.4s0.127 2.312 0.459 6.382c0.333 4.068 0.871 9.882 1.697 16.841 1.651 13.908 4.445 32.436 9.111 50.535 2.343 9.039 5.146 17.971 8.53 26.043 3.384 8.058 7.348 15.282 11.788 20.697 2.21 2.708 4.518 4.959 6.775 6.684s4.439 2.945 6.332 3.716c1.896 0.765 3.461 1.166 4.537 1.375 1.083 0.183 1.66 0.28 1.66 0.28s-0.58-0.083-1.667-0.239c-1.083-0.184-2.662-0.547-4.588-1.269-1.923-0.729-4.153-1.905-6.476-3.591-2.322-1.687-4.712-3.905-7.013-6.587-4.622-5.364-8.803-12.562-12.415-20.604-3.611-8.056-6.655-16.983-9.237-26.023-5.143-18.104-8.409-36.662-10.414-50.613-1.003-6.98-1.689-12.82-2.125-16.915s-0.625-6.46-0.625-6.46l3.68-0.26z"/>
		<path d="m482.86 621.85s-34.064 1.361-44.949-21.422" fill="#EEB461"/>
		<path d="m482.86 621.85s-0.814 0.19-2.262 0.367c-1.447 0.172-3.528 0.342-6.033 0.303-1.251-0.023-2.611-0.061-4.043-0.2-1.434-0.121-2.94-0.329-4.494-0.595-1.549-0.287-3.148-0.625-4.747-1.087-1.608-0.427-3.205-1.003-4.789-1.613-1.571-0.647-3.122-1.358-4.587-2.185-0.73-0.418-1.462-0.816-2.142-1.289-0.693-0.449-1.373-0.898-2.002-1.401-0.646-0.476-1.264-0.968-1.834-1.492-0.589-0.499-1.135-1.022-1.645-1.556-0.524-0.514-1.003-1.045-1.438-1.584-0.447-0.526-0.863-1.045-1.223-1.576-0.779-1.01-1.344-2.041-1.853-2.932-0.484-0.908-0.83-1.738-1.125-2.404-0.498-1.387-0.732-2.178-0.732-2.178s0.529 0.661 1.367 1.814c0.457 0.545 1.011 1.207 1.646 1.965 0.679 0.718 1.413 1.533 2.289 2.348 0.417 0.425 0.887 0.83 1.385 1.236 0.482 0.419 0.979 0.851 1.532 1.248 0.534 0.415 1.078 0.844 1.676 1.231 0.29 0.202 0.583 0.407 0.88 0.614 0.307 0.191 0.617 0.385 0.93 0.58 1.236 0.797 2.583 1.513 3.958 2.221 1.385 0.691 2.822 1.342 4.291 1.928 5.868 2.377 12.145 3.836 16.918 4.815 1.201 0.227 2.302 0.434 3.278 0.618 0.985 0.17 1.845 0.318 2.552 0.441 1.4 0.24 2.22 0.37 2.22 0.37z"/>
		<path d="m594.68 728.18s-13.643 25.164-45.388 8.017c-31.749-17.15-40.131-69.133-3.301-67.091 36.83 2.03 91.84 19.25 48.69 59.07z" fill="#88180F"/>
		<path d="m599.4 702.6c2.633 2.846-82.946-11.092-68.198-16.477 14.76-5.38 57.77 5.2 68.2 16.48z" fill="#B4614C"/>
		<ellipse transform="matrix(.8112 .5848 -.5848 .8112 421.41 -202.49)" cx="524.29" cy="551.36" rx="25.438" ry="39.236" fill="#fff" stroke="#000" stroke-miterlimit="10" stroke-width="3.6785"/>
		<ellipse transform="matrix(.9624 .2715 -.2715 .9624 164.49 -112.12)" cx="487.51" cy="538.49" rx="27.299" ry="41.673" fill="#fff" stroke="#000" stroke-miterlimit="10" stroke-width="3.6785"/>
		<ellipse transform="matrix(.9286 .3712 -.3712 .9286 235.33 -144.7)" cx="493.6" cy="539.05" rx="11.036" ry="14.714" fill="#88180F"/>
		<ellipse transform="matrix(.9286 .3712 -.3712 .9286 243.73 -156.32)" cx="527.94" cy="554.99" rx="11.035" ry="14.714" fill="#88180F"/>
		<path d="m428.62 629.79s-52.725-1.227-76.023-33.105c-23.299-31.881 4.904-74.797 12.263-80.926 7.357-6.131 19.618-28.203 19.618-28.203s12.26-14.715 25.749-6.131" fill="#EEB461"/>
		<path d="m428.62 629.79c-4.342-4e-3 -8.687-0.322-13.01-0.812-4.325-0.496-8.627-1.212-12.897-2.111-4.272-0.892-8.499-2.027-12.662-3.383-4.161-1.359-8.263-2.944-12.229-4.848-3.969-1.895-7.821-4.068-11.473-6.57-3.653-2.498-7.077-5.36-10.182-8.559-3.085-3.225-5.842-6.754-8.081-10.646-2.258-3.963-3.893-8.166-4.938-12.556-1.044-4.378-1.476-8.884-1.398-13.354 0.08-4.475 0.697-8.912 1.665-13.244 1.969-8.666 5.304-16.946 9.693-24.598 2.191-3.833 4.599-7.535 7.432-10.999 0.706-0.869 1.461-1.706 2.291-2.524 0.195-0.206 0.428-0.406 0.655-0.607l0.598-0.531 1.209-1.088c1.376-1.414 2.8-3.023 4.099-4.715 2.636-3.359 5.068-6.928 7.45-10.525 2.372-3.604 4.659-7.285 6.862-10.992l0.057-0.096 0.037-0.042c0.444-0.495 0.875-0.916 1.329-1.349 0.453-0.425 0.917-0.836 1.39-1.234 0.947-0.797 1.941-1.536 2.974-2.216s2.11-1.296 3.23-1.825c1.118-0.533 2.283-0.968 3.476-1.305 0.597-0.167 1.202-0.302 1.812-0.41 0.612-0.093 1.224-0.192 1.843-0.216 0.616-0.056 1.235-0.033 1.851-0.024 0.615 0.054 1.23 0.087 1.835 0.212 0.609 0.083 1.199 0.268 1.792 0.414 0.577 0.207 1.166 0.372 1.717 0.636 0.566 0.226 1.104 0.511 1.636 0.802 0.539 0.279 1.031 0.638 1.545 0.952-0.539-0.275-1.052-0.594-1.607-0.831-0.549-0.249-1.099-0.489-1.671-0.669-0.559-0.218-1.148-0.336-1.722-0.495-0.589-0.099-1.169-0.235-1.763-0.27-0.589-0.074-1.183-0.075-1.773-0.089-0.591 0.03-1.181 0.043-1.766 0.133-0.586 0.059-1.164 0.19-1.738 0.314-0.573 0.138-1.138 0.302-1.694 0.495-1.112 0.387-2.185 0.878-3.223 1.433-1.037 0.557-2.032 1.195-2.982 1.893s-1.861 1.45-2.722 2.255c-0.431 0.401-0.85 0.814-1.257 1.237-0.399 0.42-0.809 0.869-1.15 1.291l0.094-0.137c-2.051 3.853-4.212 7.623-6.456 11.363-2.242 3.739-4.603 7.414-7.222 10.958-1.297 1.784-2.687 3.484-4.299 5.213l-1.177 1.123-0.602 0.567c-0.174 0.165-0.35 0.32-0.522 0.515-0.696 0.723-1.368 1.523-2.016 2.348-2.605 3.299-4.886 6.934-6.932 10.666-2.059 3.732-3.833 7.619-5.379 11.581-1.539 3.965-2.802 8.032-3.706 12.167-1.79 8.254-2.188 16.848-0.298 24.996 0.932 4.055 2.468 8.014 4.471 11.603 2.017 3.666 4.576 7.07 7.433 10.161 2.878 3.089 6.12 5.841 9.547 8.348 3.435 2.502 7.096 4.713 10.9 6.664 3.809 1.943 7.743 3.668 11.773 5.164 4.029 1.498 8.151 2.76 12.318 3.877 4.169 1.107 8.397 2.008 12.654 2.785 4.26 0.75 8.55 1.39 12.88 1.73z"/>
	<path d="m440.88 480.19s7.359-55.177-17.164-87.056c-24.524-31.879-78.476-41.689-78.476-41.689s-29.428 91.962 50.272 139.78" fill="#EEB461" stroke="#000" stroke-miterlimit="10" stroke-width="3.6785"/>
	<path d="m456.82 574.61s29.43-14.716 74.797 34.331" fill="#EEB461" stroke="#000" stroke-miterlimit="10" stroke-width="3.6785"/>
		<path d="m385.04 388.6s44.141 11.771 41.198 85.343" fill="#E89E6C"/>
		<path d="m385.04 388.6s1.594 0.214 4.258 1.145c2.652 0.933 6.37 2.608 10.394 5.382 1.995 1.401 4.096 3.028 6.135 4.96 2.009 1.951 4.108 4.069 5.96 6.518 0.986 1.18 1.83 2.492 2.756 3.773 0.826 1.341 1.752 2.654 2.499 4.08 0.786 1.404 1.581 2.82 2.248 4.304 0.73 1.456 1.354 2.962 1.972 4.471 1.214 3.026 2.226 6.123 3.055 9.209 0.82 3.087 1.472 6.161 1.93 9.155 0.265 1.492 0.455 2.967 0.59 4.417 0.142 1.448 0.328 2.857 0.382 4.24 0.078 1.378 0.155 2.719 0.229 4.016 0.037 1.298 9e-3 2.553 0.017 3.754-0.017 1.203 0.033 2.352-0.039 3.445-0.064 1.092-0.125 2.128-0.182 3.102-0.063 0.973-0.099 1.881-0.175 2.72-0.096 0.837-0.185 1.607-0.265 2.302-0.325 2.776-0.567 4.35-0.567 4.35s-0.175-1.595-0.384-4.364c-0.051-0.691-0.107-1.457-0.168-2.29-0.083-0.831-0.174-1.729-0.27-2.689-0.185-1.917-0.381-4.075-0.69-6.415-0.151-1.17-0.273-2.391-0.464-3.645-0.189-1.252-0.385-2.546-0.586-3.877-0.169-1.333-0.472-2.682-0.732-4.064-0.13-0.691-0.261-1.39-0.393-2.095-0.127-0.706-0.313-1.406-0.468-2.118-0.605-2.853-1.38-5.757-2.227-8.681-0.89-2.911-1.856-5.844-3.027-8.691-0.571-1.429-1.146-2.857-1.821-4.23-0.333-0.688-0.628-1.395-0.973-2.073-0.35-0.675-0.7-1.348-1.047-2.019-0.335-0.679-0.708-1.331-1.09-1.973-0.373-0.649-0.743-1.295-1.111-1.938-0.399-0.622-0.796-1.241-1.191-1.854-0.389-0.619-0.779-1.23-1.206-1.809-1.614-2.384-3.374-4.543-5.104-6.545-1.778-1.957-3.555-3.729-5.276-5.293-1.757-1.516-3.423-2.859-4.965-3.976-1.56-1.085-2.955-2.001-4.143-2.7-1.196-0.678-2.152-1.203-2.823-1.524-0.69-0.33-1.06-0.49-1.06-0.49z"/>
	<path d="m348.19 680.84" fill="#EEB461" stroke="#000" stroke-miterlimit="10" stroke-width="3.6785"/>
<path d="m1287 234.01c0 76.388-61.925 138.31-138.32 138.31-76.387 0-138.31-61.927-138.31-138.31 0-76.388 61.925-138.31 138.31-138.31 76.4-4e-3 138.3 61.92 138.3 138.31z" fill="#F5E95B" stroke="#C3E088" stroke-miterlimit="10" stroke-width="1.7905"/>
<path d="m1188.5 302.86c-8.512 0-16.555 1.85-23.697 5.125-13.917-17.535-37.413-29.058-64.053-29.058-34.035 0-62.913 18.81-73.275 44.936-21.152 2.324-37.61 20.247-37.61 42.019 0 7.678 2.058 14.871 5.632 21.077h231.13c9.465-8.923 15.312-21.147 15.312-34.64 0-27.32-23.9-49.46-53.4-49.46z" fill="#F7F6F3"/>
<path d="m1799 184.2c-4.077 0-8.036 0.501-11.829 1.424-10.537-31.709-40.424-54.589-75.67-54.589-36.378 0-67.042 24.364-76.626 57.657-27.629 1.261-49.643 24.055-49.643 51.996 0 11.054 3.456 21.295 9.33 29.724 4.603 0.545 9.114 1.879 13.317 3.971h151.68c1.774-1.341 3.464-2.776 5.116-4.257 1.602 1.524 3.295 2.954 5.084 4.257h58.484c12.473-9.06 20.6-23.745 20.6-40.342 0-27.52-22.4-49.84-49.9-49.84z" fill="#B8DDE1"/>
</svg>
