<?xml version="1.0" encoding="UTF-8"?>
<svg viewBox="0 0 640 480" xmlns="http://www.w3.org/2000/svg">
 <defs>
  <linearGradient id="a" x1="116" x2="682" y1="12" y2="470" gradientTransform="matrix(1.0196 0 0 1.076 -5.0981 -11.836)" gradientUnits="userSpaceOnUse">
   <stop stop-color="#fff" offset="0"/>
   <stop stop-color="#19aeff" offset="1"/>
  </linearGradient>
 </defs>
 <path d="m11.925 0h616.15a11.925 11.925 0 0 1 11.925 11.925v456.15a11.925 11.925 0 0 1 -11.925 11.925h-616.15a11.925 11.925 0 0 1 -11.925 -11.925v-456.15a11.925 11.925 0 0 1 11.925 -11.925" fill="url(#a)"/>
 <path d="m355.36 287.12c2.6528-4.439 58.601-89.662 58.601-89.662l79.722 68.948c-44.787 12.953-45.778 53.986-66.818 82.165-16.59-27.652-32.567-55.91-71.505-61.451z" fill="#d76cff"/>
 <path d="m354.19 288.16c39.012-65.438 96.05-63.616 135.15-22.935" fill="none" stroke="#cbab13" stroke-width="1.6295"/>
 <path d="m427.27 344.85c-0.48056-8.7414-14.298-143.64-14.298-143.64" fill="none" stroke="#e4ca31" stroke-width="1.7508"/>
 <path d="m431.98 339.07c-14.81 54.524 1.9383 57.122 7.084 88.32 1.1988 8.5688-1.7626 27.725-1.7626 27.725s2.0929 6.287 3.6012-1.378c1.2099-6.1481 1.964-25.852 1.5558-30.616-26.624-13.433-8.0327-72.493-10.478-84.052z" fill="#005c94"/>
 <path d="m428.68 344.64c-14.81 54.524 5.2438 51.548 10.389 82.746 1.1988 8.5688-1.7626 27.725-1.7626 27.725s2.0929 6.287 3.6012-1.378c1.2099-6.1481 1.964-25.852 1.5558-30.616-26.624-13.433-16.753-69.218-19.199-80.778z" fill="#005c94"/>
 <path d="m425.79 348.23c-4.5966 49.959 8.2284 55.692 10.935 87.461 0.65942 8.6751-0.077 26.751-0.077 26.751s0.95934 6.6488 1.3807-0.5087c0.33797-5.7407 0.19738-24.869-0.0682-29.632-10.73-19.382-10.957-72.175-12.171-84.072z" fill="#005c94"/>
 <path d="m270.12 197.93c2.6373-2.183 60.847-43.236 60.847-43.236l37.909 52.81c-31.113 4.0412-41.206 24.681-60.977 37.627-6.3018-18.794-12.071-37.846-37.78-47.2z" fill="#ffc022"/>
 <path d="m269.13 198.36c38.814-32.195 77.631-22.179 96.985 7.7744" fill="none" stroke="#cbab13" stroke-width="1.0695"/>
 <path d="m308.32 243.56c1.2779-5.1938 22.803-88.317 22.803-88.317" fill="none" stroke="#e4ca31" stroke-width="1.1491"/>
 <path d="m304.29 257.04c-31.206 17.743-7.0148 25.117-4.8335 40.363 0.28358 4.1074-7.3821 11.18-7.3821 11.18s1.9932 3.4674 5.5361 0.75859c2.842-2.1727 7.3549-10.304 7.5773-12.491-36.849-15.695 0.70375-33.96-0.89775-39.81z" fill="#005c94"/>
 <path d="m307.82 244.31c-31.206 17.743-7.0148 25.117-4.8335 40.363 0.28358 4.1074-7.3821 11.18-7.3821 11.18s1.9932 3.4674 5.5361 0.75859c2.842-2.1727 7.3549-10.304 7.5773-12.491-36.849-15.695 0.70375-33.96-0.89775-39.81z" fill="#005c94"/>
 <path d="m309.21 245.79c-15.392 19.614-6.767 24.848-8.2718 39.426-0.52814 3.951-4.7339 11.394-4.7339 11.394s0.26302 3.198 2.1191 0.29923c1.489-2.325 4.5861-10.546 5.0182-12.679-12.439-12.29 5.6002-32.907 5.8685-38.441z" fill="#005c94"/>
 <path d="m197.52 165.25c1.697-2.3893 40.732-49.23 40.732-49.23l43.045 35.266c-27.265 7.7996-28.779 29.36-42.082 44.621-9.3743-14.143-18.366-28.619-41.695-30.657z" fill="#19aeff"/>
 <path d="m196.8 165.83c24.96-35.22 59.274-35.538 81.914-15.059" fill="none" stroke="#cbab13" stroke-width=".91552"/>
 <path d="m239.23 195.82c1.0939-4.446-0.98621-72.772-0.98621-72.772" fill="none" stroke="#e4ca31" stroke-width=".98364"/>
 <path d="m238.59 192.82c13.536 33.988 2.2775 12.385-6.9906 26.954-2.2777 4.0785-0.32242 15.217-0.32242 15.217s-3.1868 2.5576-4.3731-2.0148c-0.95165-3.6676-0.0999-14.303 0.8437-16.663 34.481 2.4688 8.1491-21.117 12.257-26.322z" fill="#005c94"/>
 <path d="m238.59 188.57c13.536 33.988 2.2775 16.628-6.9906 31.197-2.2777 4.0785-0.32242 15.217-0.32242 15.217s-3.1868 2.5576-4.3731-2.0148c-0.95165-3.6676-0.0999-14.303 0.8437-16.663 34.481 2.4688 8.8562-21.117 12.964-26.322z" fill="#005c94"/>
 <path d="m240.64 194.42c1.1936 27.928-0.59395 14.812-6.8676 30.555-1.6137 4.3274-2.3394 14.1-2.3394 14.1s-1.8038 3.1541-1.6784-0.76209c0.10033-3.1412 2.0176-13.154 2.7828-15.564 15.169-6.3529 6.2097-21.799 8.8098-27.622z" fill="#005c94"/>
 <path d="m145.99 126.93c1.2688-1.7865 30.455-36.809 30.455-36.809l32.184 26.368c-20.386 5.8316-21.518 21.952-31.464 33.362-7.009-10.575-13.732-21.398-31.175-22.922z" fill="#ff4141"/>
 <path d="m145.44 127.36c18.662-26.333 44.319-26.571 61.246-11.259" fill="none" stroke="#cbab13" stroke-width=".68452"/>
 <path d="m177.16 148.82c-0.0707-3.4227-0.53243-58.377-0.53243-58.377" fill="none" stroke="#e4ca31" stroke-width=".73545"/>
 <path d="m176.41 146.68c14.882 19.666 0.1602 20.338-3.3654 31.383-0.77877 3.0371 2.4678 9.9124 2.4678 9.9124s-1.6441 2.2097-3.229-0.54606c-1.2713-2.2105-2.5846-9.2474-2.38-10.94 23.097-4.3855 4.7235-25.725 6.5065-29.81z" fill="#005c94"/>
 <path d="m176.41 146.68c14.882 19.666 0.1602 20.338-3.3654 31.383-0.77877 3.0371 2.4678 9.9124 2.4678 9.9124s-1.6441 2.2097-3.229-0.54606c-1.2713-2.2105-2.5846-9.2474-2.38-10.94 23.097-4.3855 4.7235-25.725 6.5065-29.81z" fill="#005c94"/>
 <path d="m176.68 149.69c5.7028 17.883 0.0607 20.085-1.2896 31.371-0.29853 3.0832 0.94558 9.5395 0.94558 9.5395s-0.63006 2.3561-1.2373-0.20231c-0.48731-2.0522-0.99042-8.8704-0.91205-10.564 8.851-6.7478 1.8101-25.92 2.4934-30.144z" fill="#005c94"/>
 <path d="m106.68 115.37c0.58495-1.5742 15.244-33.292 15.244-33.292l29.057 13.137c-13.935 8.3612-11.576 20.52-16.675 30.94-7.2867-6.4384-14.411-13.117-27.626-10.785z" fill="#ccff42"/>
 <path d="m106.36 115.79c8.5922-23.197 27.539-28.463 43.108-20.485" fill="none" stroke="#cbab13" stroke-width=".52464"/>
 <path d="m134.09 125.39c-0.73131-2.5199-11.974-43.112-11.974-43.112" fill="none" stroke="#e4ca31" stroke-width=".56368"/>
 <path d="m133.6 123.83c-7.7569 19.477 4.3679 16.822 9.6789 25.171 1.3053 2.3372 0.18479 8.72 0.18479 8.72s1.8262 1.4656 2.506-1.1546c0.5453-2.1018 0.0572-8.1965-0.48345-9.5489-19.76 1.4148-9.5324-20.205-11.886-23.188z" fill="#005c94"/>
 <path d="m133.6 123.83c-7.7569 19.477 4.3679 16.822 9.6789 25.171 1.3053 2.3372 0.18479 8.72 0.18479 8.72s1.8262 1.4656 2.506-1.1546c0.5453-2.1018 0.0572-8.1965-0.48345-9.5489-19.76 1.4148-9.5324-20.205-11.886-23.188z" fill="#005c94"/>
 <path d="m134.04 126.37c-0.68397 16.004 4.3929 16.592 7.9875 25.614 0.92479 2.48 1.3407 8.0804 1.3407 8.0804s1.0337 1.8075 0.96176-0.43671c-0.0571-1.8001-1.1562-7.5377-1.5946-8.919-8.6927-3.6406-7.2055-21.001-8.6955-24.338z" fill="#005c94"/>
 <path d="m67.683 84.951c0.56378-1.4501 14.694-30.336 14.694-30.336l28.008 16.005c-13.432 6.4562-11.157 18.447-16.073 27.905-7.0235-7.0442-13.89-14.301-26.629-13.574z" fill="#9eabb0"/>
 <path d="m67.377 85.324c8.2821-21.371 26.545-24.267 41.552-14.786" fill="none" stroke="#cbab13" stroke-width=".50569"/>
 <path d="m94.11 111.76c-0.7049-2.513-11.542-42.933-11.542-42.933" fill="none" stroke="#e4ca31" stroke-width=".54332"/>
 <path d="m94.749 111.59c-1.8112 15.382 6.3334 11.169 11.72 16.111 1.3783 1.4183 1.7991 6.1871 1.7991 6.1871s1.5834 0.69661 1.5675-1.3031c-0.0129-1.604-1.5263-5.8599-2.1708-6.7214-13.83 4.7876-10.665-12.595-12.915-14.274z" fill="#005c94"/>
 <path d="m94.749 111.59c-1.8112 15.382 6.3334 11.169 11.72 16.111 1.3783 1.4183 1.7991 6.1871 1.7991 6.1871s1.5834 0.69661 1.5675-1.3031c-0.0129-1.604-1.5263-5.8599-2.1708-6.7214-13.83 4.7876-10.665-12.595-12.915-14.274z" fill="#005c94"/>
 <path d="m95.553 113.32c2.572 11.551 6.3072 11 10.597 16.75 1.1341 1.5928 2.5017 5.5097 2.5017 5.5097s1.0832 1.0921 0.60281-0.49556c-0.38526-1.2735-2.2663-5.1578-2.8432-6.0595-6.8991-0.93583-9.1572-13.608-10.859-15.705z" fill="#005c94"/>
 <path d="m45.159 63.035c0.63835-0.89874 15.322-18.518 15.322-18.518l16.192 13.266c-10.256 2.9339-10.826 11.044-15.829 16.784-3.5263-5.3201-6.9085-10.765-15.684-11.532z" fill="#005c94"/>
 <path d="m44.885 63.25c9.3889-13.248 22.296-13.368 30.813-5.6646" fill="none" stroke="#cbab13" stroke-width=".34438"/>
 <path d="m60.84 74.045c-0.03539-1.7219-0.26784-29.369-0.26784-29.369" fill="none" stroke="#e4ca31" stroke-width=".37"/>
 <path d="m60.791 72.971c-8.2272 11.031-0.08863 11.408 1.8605 17.604 0.43049 1.7036-1.3643 5.5601-1.3643 5.5601s0.90888 1.2396 1.7851-0.30628c0.70284-1.2399 1.4288-5.1872 1.3157-6.1365-12.769-2.46-2.6112-14.43-3.5969-16.721z" fill="#005c94"/>
 <path d="m60.791 72.971c-8.2272 11.031-0.08863 11.408 1.8605 17.604 0.43049 1.7036-1.3643 5.5601-1.3643 5.5601s0.90888 1.2396 1.7851-0.30628c0.70284-1.2399 1.4288-5.1872 1.3157-6.1365-12.769-2.46-2.6112-14.43-3.5969-16.721z" fill="#005c94"/>
 <path d="m60.642 74.658c-3.1527 10.031-0.03397 11.266 0.71297 17.597 0.16496 1.7294-0.5228 5.351-0.5228 5.351s0.3483 1.3216 0.68405-0.1135c0.26931-1.151 0.54751-4.9756 0.50411-5.9259-4.8929-3.785-1.0006-14.54-1.3783-16.909z" fill="#005c94"/>
 <path d="m32.43 50.999c0.47184-0.66429 11.325-13.688 11.325-13.688l11.968 9.8053c-7.5807 2.1686-8.0017 8.1631-11.7 12.406-2.6064-3.9323-5.1064-7.957-11.593-8.5237z" fill="#19aeff"/>
 <path d="m32.229 51.158c6.9398-9.7923 16.48-9.8808 22.775-4.187" fill="none" stroke="#cbab13" stroke-width=".25455"/>
 <path d="m44.021 59.137c-0.02616-1.2727-0.19797-21.708-0.19797-21.708" fill="none" stroke="#e4ca31" stroke-width=".27348"/>
 <path d="m43.985 58.343c-6.0811 8.1536-0.06553 8.4322 1.3752 13.012 0.31819 1.2592-1.0084 4.1098-1.0084 4.1098s0.6718 0.91624 1.3194-0.22639c0.5195-0.91649 1.0561-3.8341 0.97246-4.5358-9.438-1.8183-1.9301-10.666-2.6586-12.36z" fill="#005c94"/>
 <path d="m43.985 58.343c-6.0811 8.1536-0.06553 8.4322 1.3752 13.012 0.31819 1.2592-1.0084 4.1098-1.0084 4.1098s0.6718 0.91624 1.3194-0.22639c0.5195-0.91649 1.0561-3.8341 0.97246-4.5358-9.438-1.8183-1.9301-10.666-2.6586-12.36z" fill="#005c94"/>
 <path d="m43.875 59.59c-2.3303 7.4144-0.0251 8.3275 0.52699 13.007 0.12193 1.2783-0.38643 3.9552-0.38643 3.9552s0.25744 0.97687 0.50561-0.08389c0.19906-0.85079 0.40469-3.6777 0.37262-4.3801-3.6166-2.7977-0.73958-10.747-1.0188-12.498z" fill="#005c94"/>
 <path d="m32.43 50.999c0.47184-0.66429 11.325-13.688 11.325-13.688l11.968 9.8053c-7.5807 2.1686-8.0017 8.1631-11.7 12.406-2.6064-3.9323-5.1064-7.957-11.593-8.5237z" fill="#ff4141"/>
 <path d="m32.229 51.158c6.9398-9.7923 16.48-9.8808 22.775-4.187" fill="none" stroke="#cbab13" stroke-width=".25455"/>
 <path d="m44.021 59.137c-0.02616-1.2727-0.19797-21.708-0.19797-21.708" fill="none" stroke="#e4ca31" stroke-width=".27348"/>
 <path d="m43.985 58.343c-6.0811 8.1536-0.06553 8.4322 1.3752 13.012 0.31819 1.2592-1.0084 4.1098-1.0084 4.1098s0.6718 0.91624 1.3194-0.22639c0.5195-0.91649 1.0561-3.8341 0.97246-4.5358-9.438-1.8183-1.9301-10.666-2.6586-12.36z" fill="#005c94"/>
 <path d="m43.985 58.343c-6.0811 8.1536-0.06553 8.4322 1.3752 13.012 0.31819 1.2592-1.0084 4.1098-1.0084 4.1098s0.6718 0.91624 1.3194-0.22639c0.5195-0.91649 1.0561-3.8341 0.97246-4.5358-9.438-1.8183-1.9301-10.666-2.6586-12.36z" fill="#005c94"/>
 <path d="m43.875 59.59c-2.3303 7.4144-0.0251 8.3275 0.52699 13.007 0.12193 1.2783-0.38643 3.9552-0.38643 3.9552s0.25744 0.97687 0.50561-0.08389c0.19906-0.85079 0.40469-3.6777 0.37262-4.3801-3.6166-2.7977-0.73958-10.747-1.0188-12.498z" fill="#005c94"/>
 <path d="m20.991 37.781c0.36332-0.5115 8.7201-10.539 8.7201-10.539l9.2154 7.55c-5.8371 1.6698-6.1612 6.2856-9.0092 9.5527-2.0069-3.0279-3.9319-6.1268-8.9263-6.5632z" fill="#19aeff"/>
 <path d="m20.836 37.904c5.3436-7.54 12.69-7.6082 17.537-3.2239" fill="none" stroke="#cbab13" stroke-width=".196"/>
 <path d="m29.916 44.047c-0.02014-0.97998-0.15244-16.715-0.15244-16.715" fill="none" stroke="#e4ca31" stroke-width=".21058"/>
 <path d="m29.888 43.436c-4.6824 6.2783-0.05048 6.4928 1.0589 10.019 0.24501 0.96957-0.7765 3.1645-0.7765 3.1645s0.51728 0.7055 1.016-0.17431c0.40002-0.7057 0.81318-2.9522 0.74879-3.4925-7.2672-1.4001-1.4861-8.2129-2.0472-9.5168z" fill="#005c94"/>
 <path d="m29.888 43.436c-4.6824 6.2783-0.05048 6.4928 1.0589 10.019 0.24501 0.96957-0.7765 3.1645-0.7765 3.1645s0.51728 0.7055 1.016-0.17431c0.40002-0.7057 0.81318-2.9522 0.74879-3.4925-7.2672-1.4001-1.4861-8.2129-2.0472-9.5168z" fill="#005c94"/>
 <path d="m29.80351,44.39619c-1.79431,5.70908-.01932,6.41212.40578,10.01518 .09388.98429-.29755,3.04545-.29755,3.04545s.19823.75218.38932-.06457c.15327-.6551.31161-2.83181.28691-3.37264-2.78476-2.15422-.56947-8.27518-.78446-9.6235z" fill="#005c94"/>
 <path d="m20.991 37.781c0.36332-0.5115 8.7201-10.539 8.7201-10.539l9.2154 7.55c-5.8371 1.6698-6.1612 6.2856-9.0092 9.5527-2.0069-3.0279-3.9319-6.1268-8.9263-6.5632z" fill="#ffc022"/>
 <path d="m20.836 37.904c5.3436-7.54 12.69-7.6082 17.537-3.2239" fill="none" stroke="#cbab13" stroke-width=".196"/>
 <path d="m29.916 44.047c-0.02014-0.97998-0.15244-16.715-0.15244-16.715" fill="none" stroke="#e4ca31" stroke-width=".21058"/>
 <path d="m29.888 43.436c-4.6824 6.2783-0.05048 6.4928 1.0589 10.019 0.24501 0.96957-0.7765 3.1645-0.7765 3.1645s0.51728 0.7055 1.016-0.17431c0.40002-0.7057 0.81318-2.9522 0.74879-3.4925-7.2672-1.4001-1.4861-8.2129-2.0472-9.5168z" fill="#005c94"/>
 <path d="m29.888 43.436c-4.6824 6.2783-0.05048 6.4928 1.0589 10.019 0.24501 0.96957-0.7765 3.1645-0.7765 3.1645s0.51728 0.7055 1.016-0.17431c0.40002-0.7057 0.81318-2.9522 0.74879-3.4925-7.2672-1.4001-1.4861-8.2129-2.0472-9.5168z" fill="#005c94"/>
 <path d="m29.80351,44.39619c-1.79431,5.70908-.01932,6.41212.40578,10.01518 .09388.98429-.29755,3.04545-.29755,3.04545s.19823.75218.38932-.06457c.15327-.6551.31161-2.83181.28691-3.37264-2.78476-2.15422-.56947-8.27518-.78446-9.6235z" fill="#005c94"/>
 <path d="m519 432-91.373-170.12-106.44-61.272-88.485-45.636-61.536-32.828-50.05-10.879-41.121-25.263-25-17-15-8-15-12" fill="none" opacity=".42439" stroke="#d5cece"/>
 <path transform="translate(-42,16)" d="m182 67a53 51 0 1 1 -106 0 53 51 0 1 1 106 0z" fill="#fff" opacity=".12195"/>
 <path d="m82 153a16 13 0 1 1 -32 0 16 13 0 1 1 32 0z" fill="#fff" opacity=".32195"/>
 <path d="m124 209a30 19 0 1 1 -60 0 30 19 0 1 1 60 0z" fill="#fff" opacity=".32195"/>
 <path transform="matrix(.70909 0 0 .87097 65.782 39.613)" d="m178 307a55 31 0 1 1 -110 0 55 31 0 1 1 110 0z" fill="#fff" opacity=".32195"/>
</svg>
