<?xml version="1.0" encoding="UTF-8"?>
<svg width="1027" height="1027" viewBox="0 0 1026.9512 555.08093" xmlns="http://www.w3.org/2000/svg">
 <defs>
  <filter id="b">
   <feGaussianBlur stdDeviation=".53919"/>
  </filter>
  <filter id="a">
   <feGaussianBlur stdDeviation=".64636"/>
  </filter>
 </defs>
 <g transform="translate(144.81 -239.8)" stroke="#000">
  <path d="m78.156 502.29c1.7968 2.1562 330.52-225.82 334.7-221.94 12.664 11.775 248.19 307.4 248.19 306.66l-174.21-115.74-59.064-5.9661-33.41 20.881-20.881 48.922-4.7728-55.484-29.234-29.234-60.257-9.5457-180.18 51.905-20.881 9.5457z"/>
  <path d="m356.3 317.68s-1.051 10.51 2.1021 23.123 13.664 67.792 15.766 79.354 4.2042 32.582 6.3063 38.363 3.1531 11.561 3.1531 11.561 12.613-20.495 13.138-25.751 10.51-24.7 13.138-30.48 14.189-29.955 16.817-35.21 21.021-35.735 22.072-37.838 5.2552-6.8318 2.1021-9.9849-31.531-39.94-34.684-40.465-12.613-3.1531-15.24-1.051-42.567 28.378-44.669 28.378z" fill="#fdeb04"/>
  <path d="m340.01 329.77s5.2552 31.531 9.4594 45.195 13.664 79.354 13.664 79.354-48.874-59.384-55.18-65.69-21.021-19.97-21.021-19.97 30.48-22.597 35.21-26.276 16.817-12.613 17.868-12.613z" fill="#f2a438"/>
  <path d="m465.09 350.26s31.006 38.889 34.684 43.093 6.3063 7.8828 6.3063 7.8828-63.588 32.057-73.048 38.889-24.174 17.868-24.174 17.868 28.378-66.741 39.414-80.93 16.291-26.802 16.817-26.802z" fill="#6bb427"/>
  <path d="m272.75 378.12 56.231 56.231s-54.129-9.9849-61.486-11.561-31.006-2.6276-37.838-2.6276-24.7 1.051-24.7 1.051 47.822-33.108 54.129-36.261 13.138-6.8318 13.664-6.8318z" fill="#d44117"/>
  <path d="m517.64 414.9s-45.72 20.495-54.654 27.853-13.664 8.9339-13.664 8.9339 52.552 4.7297 65.69 8.9339 52.552 12.613 52.552 12.613-38.889-44.144-42.567-48.874-9.9849-9.4594-9.9849-9.4594h2.6276z" fill="#5775b1"/>
  <path d="m525.52 481.12 93.543 62.537 17.342 24.174 20.495 16.291s-65.165-78.303-67.267-85.135-17.342-16.291-17.342-16.291l4.2042 8.4084-50.976-9.9849z" fill="#392108"/>
  <path d="m186.56 432.25-64.114 40.991-24.7 17.342 17.868-6.8318 19.444-14.715 105.1-32.057-53.603-4.7297z" fill="#3b220d"/>
  <path d="m286.71 370.24-13.128 8.4019s27.801 18.528 58.288 58.813c15.378 20.319 37.283 42.009 37.283 42.009l-6.8265-25.731s-39.384-48.836-48.311-58.813-25.731-24.68-27.306-24.68z" fill="#765682"/>
  <path transform="matrix(1.0002 0 0 .98487 -.08828 4.315)" d="m411.49 287.84s-19.297 107.27-23.838 136.22-4.5406 47.109-4.5406 47.109l3.4054-1.7027s2.2703-40.865 6.8109-66.406 14.757-85.136 15.892-90.244 5.1082-26.108 5.1082-26.108l-2.8379 1.1351z" fill="#500" filter="url(#b)"/>
  <path d="m410.64 458.46-13.653 26.256s61.439-42.009 68.79-45.685 49.886-24.155 49.886-24.155l-9.4521-13.128s-48.311 26.256-57.238 31.507-21.005 11.027-25.731 15.754-12.078 10.502-12.603 9.4521z" fill="#765682"/>
  <path d="m327.15 434.3 12.603 15.228s-65.64-11.027-76.667-12.078-39.384-3.1507-47.26-3.1507-26.256-3.1507-26.256-3.1507l15.753-9.4521s34.133-3.6758 46.735-0.52512 46.735 8.4019 58.288 10.502 17.854 3.1507 16.804 2.6256z" fill="#765682"/>
  <path d="m108.7 490.49 27.831-19.954-23.63 16.804s57.763-16.279 66.69-19.954 57.238-16.279 57.238-16.279l39.909-11.027s-19.429-1.5754-26.256-1.5754h-12.603s-51.987 16.804-61.439 19.954-39.384 11.027-67.74 32.032z" fill="#765682"/>
  <path d="m448.97 453.2-17.329 10.502s38.334 4.726 49.886 5.7763 38.334 8.4019 51.987 11.027 37.808 7.3516 37.808 7.3516l-3.1507-12.078s-28.356-6.3014-38.859-9.9772-37.283-8.4019-49.361-9.9772-29.932-3.1507-30.982-2.6256z" fill="#765682"/>
  <path d="m492.03 473.16 29.932 6.8265s66.165 45.16 70.891 47.786 25.731 17.329 25.731 17.329l15.228 23.105s-51.987-33.607-58.288-38.859-32.032-24.155-40.434-28.356-25.731-16.279-28.356-17.854-13.128-9.4521-14.703-9.9772z" fill="#765682"/>
  <path d="m388.8 434.41s-5.0432 5.0432-5.0432 6.4617-0.1576 4.5704 1.1032 6.4616 1.576 5.8312 3.152 3.3096 4.8856-5.6736 4.8856-8.0377-1.576-6.9345-1.576-6.9345l-2.5216-1.2608z" fill="#fff"/>
  <path d="m388.95 432.03c-0.52279-0.0112-1.6244 1.4843-3.6875 3.9062-2.3579 2.7679-1.9699 3.282-2.6875 6.5625s2.0648 7.0533 3.5 9.7188 2.577-1.8304 6.0625-7.4688-3-12.625-3-12.625c-0.0513-0.0641-0.11282-0.0922-0.1875-0.0937zm-0.84375 4.2812c1.2164-0.23089 0.125 6.6875 0.125 6.6875-0.10252 0.10252 1.1273-3.6997 2.5625-5.75s1.0175 4.4222 0.8125 6.0625-2.6635 4.2024-4.4062 5.125-2.6574-3.6997-3.375-5.75 2.3598-4.9173 4-6.25c0.10252-0.0833 0.20016-0.10961 0.28125-0.125z"/>
  <path d="m351.26 323.09 107.87 21.397" fill="none" filter="url(#a)"/>
  <path d="m195.24 427.4c128.51 7.149 255.14 24.674 378.9 57.949" fill="none"/>
  <g transform="matrix(.92197 .38725 -.38725 .92197 198.61 8.891)">
   <path d="m79.346 503.18s-26.746 31.203-57.949 32.987-96.285 38.336-96.285 38.336l7.1322 12.481s32.095-24.963 55.275-32.095 51.709-8.9153 64.19-17.831 29.42-32.095 27.637-33.878z" fill="#fdeb04"/>
   <path d="m81.031 499.82s-17.758 37.063-47.437 46.861-83.082 61.95-83.082 61.95l10.12 10.21s24.541-32.419 45.084-45.308 47.639-21.995 57.388-33.837 20.111-38.616 17.927-39.877z" fill="#d44117"/>
  </g>
  <path d="m373.39 536.83s-12.054 39.29-39.947 53.39-72.954 73.608-72.954 73.608l11.524 8.5931s19.451-35.706 37.851-51.504 43.842-28.829 51.723-41.988 14.15-41.176 11.803-42.098z" fill="#fdeb04"/>
  <path d="m373.59 533.08s-1.4743 41.071-24.768 61.909-51.417 89.981-51.417 89.981l13.356 5.3175s9.5467-39.523 23.232-59.546 34.887-39.194 39.093-53.945 3.0106-43.435 0.50492-43.718z" fill="#5775b1"/>
  <path d="m204.25 419.44 100.86-16.391" fill="none"/>
  <path d="m344.2 327.4-39.085 76.909" fill="none"/>
  <path d="m474.06 690.51-168.95-286.2" fill="none"/>
  <path d="m465.24 352.61 25.216 75.649 79.431 44.128v-1.2608" fill="none"/>
  <path d="m387.07 443.39 102.13-12.608 127.34 239.55" fill="none"/>
  <g transform="matrix(-.96593 .25882 .25882 .96593 609.22 82.527)">
   <path d="m79.346 503.18s-26.746 31.203-57.949 32.987-96.285 38.336-96.285 38.336l7.1322 12.481s32.095-24.963 55.275-32.095 51.709-8.9153 64.19-17.831 29.42-32.095 27.637-33.878z" fill="#fdeb04"/>
   <path d="m81.031 499.82s-17.758 37.063-47.437 46.861-83.082 61.95-83.082 61.95l10.12 10.21s24.541-32.419 45.084-45.308 47.639-21.995 57.388-33.837 20.111-38.616 17.927-39.877z" fill="#d44117"/>
  </g>
 </g>
</svg>
