<?xml version="1.0" encoding="UTF-8"?>
<svg enable-background="new 0 0 360 252" viewBox="0 0 360 252" xmlns="http://www.w3.org/2000/svg">
 <path d="m142.737,9.308c.589-.269 1.188-.515 1.813-.663 1.176,1.442 1.952,3.192 2.908,4.799 9.459,16.342 19.886,32.002 29.394,48.31 5.204,9.081 12.043,16.915 17.114,26.091 1.324,2.359 2.389,4.88 3.684,7.258 1.996,3.664 4.307,7.115 6.807,10.395 1.01,1.311 1.967,2.724 3.277,3.715 3.85-7.275 6.014-15.391 8.58-23.254 1.795-5.928 4.172-11.618 6.348-17.391 6.145-16.72 11.443-33.795 17.84-50.416 .559-1.41 1.006-2.9 1.803-4.187 2.287-.054 4.543.467 6.807.771 4.412.758 8.832,1.485 13.232,2.305-.016,1.628-.605,3.152-1.004,4.697-2.705,9.918-4.916,19.98-7.484,29.94-1.588,6.388-3.711,12.597-5.307,18.983-4.867,18.427-9.527,36.931-13.467,55.621-2.328,10.02-5.766,19.676-8.709,29.494-3.551,11.354-5.211,23.345-9.547,34.427-.451-.455-.852-.961-1.217-1.489-7.76-11.821-14.324-24.61-23.301-35.448-.736-.894-1.225-1.998-1.363-3.183-.74-5.219-.221-10.528-.771-15.765-1.357-15.316-3.867-30.746-9.711-44.872-2.804-6.858-6.572-13.189-10.519-19.334-6.196-9.562-13.428-18.461-22.11-25.459-4.324-3.494-9.835-4.104-14.918-5.459-1.96-.547-4.076-1.045-5.584-2.625-2.984-3.063-4.784-7.142-6.66-11.035-.332-.758-.775-1.506-.82-2.369 1.168-1.129 2.572-1.908 3.896-2.797 6.142-4.04 12.393-7.933 18.989-11.06z" fill="#e54587"/>
 <path d="m22.683,38.773c11.087-1.976 22.326-4.046 33.601-3.089-.159,2.07-.695,4.079-1.1,6.103-4.136,18.66-10.402,36.742-13.486,55.676-3.563,24.67-9.607,48.843-12.912,73.561-.131,1.425-.463,3.047.373,4.31 .855,1.303 1.92,2.497 3.19,3.325 .608.033 1.063-.604 1.556-.914 6.181-5.499 13.479-9.492 21.19-11.778 12.319-3.776 23.982-9.699 35.085-16.543 1.46-.878 2.848-1.937 4.416-2.589 1.352,4.687 1.872,9.598 2.888,14.373 .88,4.56 1.929,9.102 3.492,13.454 .54,1.55 1.313,3.018 1.66,4.646-1.596,1.438-3.547,2.296-5.343,3.4-26.606,15.341-55.983,24.548-81.598,41.99-2.447,1.547-4.631,3.563-7.168,4.954-.1-2.469.248-4.916.354-7.375 .932-17.022.916-34.084 1.24-51.13 .314-21.118 2.375-42.146 4.179-63.162 1.804-20.76 3.58-41.559 3.812-62.427 .032-1.975-.1-3.966.225-5.919 1.418-.44 2.898-.585 4.346-.866z" fill="#df1669"/>
 <path d="m263.383,51.859c25.99-2.317 51.936-5.38 78.002-6.64 1.967-.062 3.943-.282 5.91-.065 .18,8.086-.363,16.166-.707,24.237-.156,2.272-.1,4.569-.432,6.825-9.596-.229-19.264-.348-28.762,1.386-10.623,1.688-21.547.204-32.043,3.011-2.02.602-4.109,1.121-5.947,2.25 .35,2.065 1.17,3.998 1.521,6.063 1.592,8.263.848,16.763.051,25.077-.496,5.167-1.299,10.337-1.146,15.546 6.477-1.681 11.814-6.417 18.189-8.418 6.813-2.572 14.158-2.894 21.285-2.199 .148,4.65-.094,9.344-.783,13.943-.268,1.397-.443,2.857-1.039,4.147-.443.295-.943.474-1.436.633-8.387,2.175-17.012,2.858-25.498,4.443-1.637.347-3.313.567-4.887,1.169-.266.888-.213,1.832-.201,2.75 .26,9.674 1.053,19.33.889,29.019 .1,4.446-.428,9.211 1.516,13.314 1.275,2.654 3.871,4.785 6.73,4.586 3.152-.182 5.92-1.979 8.801-3.178 2.254-.975 4.684-1.291 7.047-1.814 8.512-1.759 16.994-3.769 25.617-4.776 4.996-.516 10.064-1.009 15.07-.473 .461,7.241.332,14.523.371,21.786-.016,1.992.098,4.001-.162,5.98-4.756.351-9.535.402-14.295.749-24.201,1.551-48.283,4.642-72.463,6.474-.635.03-1.283.021-1.883-.204-3.623-22.65-5.301-45.605-6.813-68.519-1.576-16.096-1.049-32.409-3.736-48.379-.379-2.459-1.109-4.875-1.051-7.396 .061-4.244 1.496-8.244 2.51-12.289 2.258-8.255 4.387-16.547 6.756-24.762 .391-1.294.658-2.659 1.305-3.841 .489-.375 1.138-.331 1.714-.435z" fill="#f9d0e1"/>
 <path d="m115.383,48.633c5.432-1.096 10.979-2.035 16.519-1.43 4.192.434 8.388,1.798 11.819,4.508 2.504,2.021 4.688,4.456 6.943,6.777 10.516,11.215 19.643,24.375 24.658,39.531 5.155,15.655 7.455,32.297 7.722,48.877 .252,18.75-2.16,37.462-6.271,55.649-2.963,12.077-8.087,23.968-16.697,32.543-3.389,3.33-7.315,6.05-11.607,7.795-3.38,1.416-7.02,1.787-10.583,2.343-8.719,1.229-17.874.774-26.018-3.108-6.053-2.804-10.552-8.176-15.371-12.831-2.42-2.442-5.305-4.317-7.496-7.028-4.265-5.118-6.812-11.549-9.08-17.901-.42-1.199-.903-2.402-1-3.692 1.775-1.113 3.72-1.858 5.563-2.828 1.456-.676 2.849-1.577 4.416-1.933 2.433,3.026 4.393,6.482 6.879,9.476 3.173,4.015 6.948,7.69 11.575,9.569 3.148,1.272 6.349,2.398 9.575,3.423 6.411,1.974 13.315,3.15 19.89,1.448 11.012-4.1 20.516-13.491 24.398-25.501 3.1-8.781 4.332-18.192 4.724-27.546 .42-7.596-.027-15.198-.635-22.77-1.125-14.302-3.344-28.523-6.859-42.373-3.265-12.575-10.548-24.182-20.906-31.087-7.855-4.742-17.963-3.347-25.314,1.879-8.263,6.08-14.475,14.94-18.981,24.497-2.948,6.245-5.295,12.805-7.288,19.474-1.072,3.643-2.243,7.275-2.813,11.061-.852,5.375-.836,10.857-1.567,16.244-.28,2.459-2.58,3.701-4.433,4.638-2.646,1.082-5.372,1.979-8.115,2.716-.731-14.867 1.576-29.703 5.176-44.006 3.644-14.599 6.804-29.797 14.751-42.513 2.167-3.623 5.022-6.807 8.456-9.037 5.483-3.595 11.722-5.539 17.97-6.864z" fill="#f2a2c3"/>
 <path d="m117.255,77.412c4.5-2.551 10.008-3.235 14.831-1.381 4.964,2.121 8.476,6.725 11.667,11.158 5.355,7.684 7.734,17.149 9.643,26.398 1.765,8.859 3.517,17.75 4.38,26.78 1.479,14.761 1.236,29.801-1.496,44.381-.859,4.586-1.812,9.254-3.976,13.358-3.928,7.522-10.659,13.265-18.307,15.706-5.632,1.213-11.304-.766-16.546-2.85-3.543-1.521-7.292-2.74-10.371-5.262-3.761-3.043-6.561-7.235-8.86-11.613-.452-1-1.191-1.996-1.087-3.165 5.067-1.938 10.243-3.577 15.214-5.804 1.12-.242.452-1.508.216-2.234-5.875-14.039-9.808-29-11.902-44.238-.137-.996-.261-2.001-.492-2.976-3.731.421-7.127,2.335-10.735,3.316-.023-.836.017-1.672.108-2.499 2.18-16.242 7.375-32.04 15.401-45.979 2.981-5.393 7.093-10.212 12.312-13.096z" fill="#fff"/>
 <path d="m144.948,2.154c1.301-.459 2.593-1.018 3.968-1.156 .225.359.433.736.625,1.123 8.402,18.32 20.331,34.322 31.741,50.496 3.676,5.287 7.451,10.506 10.803,16.045 3.846,6.234 7.389,12.691 11.443,18.775 .973,1.447 1.896,2.945 3.086,4.197 2.418-6.717 4.572-13.555 7.059-20.249 7.619-21.063 15.754-41.966 21.555-63.726 3.539-.229 7.07.428 10.586.793 9.344,1.299 18.715,2.412 28.121,2.979-1.307,3.954-3.184,7.669-4.551,11.605-1.82,4.771-3.283,9.699-4.434,14.709-.264,1.171-.449,2.361-.463,3.561 8.123-.16 16.219-1.113 24.33-1.641 21.227-1.524 42.48-3.266 63.771-2.828 .277.029.834.086 1.113.113-.18,13.684-.238,27.375-.455,41.061-.158,4.529-4.49,6.924-8.154,7.475-9.947,1.303-20.002.094-29.975,1.043-7.799.767-15.539,2.151-23.346,2.789-1.053.104-2.121.15-3.129.502-.707,3.668-.789,7.439-1.051,11.168-.232,5.188-.721,10.379-.564,15.571 .955-.178 1.889-.498 2.813-.832 8.459-3.243 17.352-5.378 26.35-5.524 2.619.043 5.291-.169 7.871.45 .605.927.813,2.074 1.029,3.165 .658,3.988.375,8.072.059,12.082-.389,4.823-.551,9.665-.854,14.493-.146,1.967-.793,4.35-2.717,5.036-2.844.937-5.855.997-8.791,1.305-5.965.458-12.248.927-17.463,4.426-1.018.74-2.385,1.546-2.35,3.078-.387,8.221.072,16.474.988,24.64 .191,1.621.314,3.262.721,4.847 1.924-.308 3.736-1.143 5.619-1.648 15.291-4.417 31.193-5.313 46.641-8.912 1.611-.348 3.199-.94 4.863-.952 3.035.154 5.561,3.095 5.832,6.31 .9,10.071.551,20.231 1.615,30.29 .307,3.703 1.072,7.327 1.748,10.965-5.721-.575-11.455-1.174-17.211-.982-15.861.455-31.652,2.203-47.459,3.577-5.854.536-11.703,1.189-17.504,2.209-7.814,1.559-15.826,1.484-23.727,1-.76-5.592-.943-11.255-1.645-16.854-1.447-12.346-3.07-24.675-3.902-37.09-.531-9.414-1.404-18.797-1.934-28.212-.543-8.838-1.188-17.667-1.994-26.48-2.148,7.258-4.291,14.523-6.627,21.722-3.121,9.83-6.289,19.668-8.553,29.778-2.412,10.42-6,20.57-7.107,31.302-.32,2.706-.195,5.442-.455,8.152-2.16.271-4.396.32-6.523-.207-1.289-.334-1.92-1.724-2.439-2.901-5.557-13.008-12.418-25.367-20.418-36.785-.846-1.196-1.633-2.486-2.783-3.361-2.109,9.401-2.66,19.115-4.559,28.563-1.154,5.729-2.498,11.432-4.307,16.966-2.788,8.232-6.71,15.992-11.495,23.063-1.399,2.058-2.796,4.152-4.588,5.838-4.5,4.344-9.646,8.007-15.331,10.244-5.12,1.794-10.522,2.282-15.823,3.132-4.106.711-8.271.523-12.415.546-3.243.04-6.424-.845-9.511-1.835-3.636-1.306-7.24-2.852-10.455-5.128-6.184-4.262-11.171-10.138-16.599-15.391-7.451-6.941-11.931-16.992-13.688-27.351-.5.154-.976.385-1.439.632-15.852,9.024-33.445,14.078-48.717,24.35-5.383,3.514-10.066,8.232-15.834,11.042-1.432.685-2.916,1.313-4.483,1.513-.765-4.703-.36-9.505-.456-14.255 .46-8.947 1.448-17.877 1.305-26.85-.261-36.337 3.268-72.517 5.858-108.697 .58-9.375 1.433-18.738 1.524-28.135 .199-8.553 1.244-17.049 1.76-25.58 .208-2.359.152-4.75.52-7.093 2.209-.19 4.42.013 6.631-.035 14.08-.056 28.149-1.473 42.024-4.053 1.97-.347 3.916-.905 5.92-.931 .344,3.59.368,7.438-1.224,10.718-4.477,9.651-5.9,20.457-8.363,30.811-3.624,14.628-6.809,29.386-9.491,44.252-3.104,18.118-7.711,35.955-9.655,54.294 1.017-.169 1.992-.526 2.944-.938 5.392-2.407 10.946-4.382 16.229-7.067 1.32-.705 2.757-1.246 3.875-2.312 .629-.836.677-1.983.828-3.006 .389-4.703.185-9.433.477-14.14 .855-15.696 4.843-30.9 8.319-46.088 3.52-12.835 8.292-25.626 16.311-35.994 2.78-3.65 6.091-6.854 9.947-9.123 7.043-4.296 15.075-6.098 22.994-7.341-.145-1.606-1.088-2.944-1.7-4.368-1.947-4.154-4.28-8.09-6.1-12.304 1.695-2.949 4.415-5.069 7.128-6.842 8.429-4.942 16.761-10.238 25.867-13.599m-2.211,7.154c-6.596,3.126-12.847,7.021-18.994,11.06-1.324.889-2.729,1.668-3.896,2.797 .044.863.488,1.611.82,2.369 1.876,3.894 3.676,7.973 6.66,11.035 1.508,1.58 3.624,2.078 5.584,2.625 5.083,1.354 10.595,1.965 14.918,5.459 8.683,7 15.915,15.897 22.109,25.459 3.947,6.145 7.715,12.476 10.52,19.334 5.843,14.126 8.355,29.556 9.71,44.872 .553,5.235.033,10.546.771,15.765 .141,1.185.627,2.289 1.363,3.183 8.977,10.838 15.543,23.627 23.303,35.448 .363.528.764,1.034 1.215,1.489 4.338-11.082 5.996-23.072 9.549-34.427 2.941-9.817 6.379-19.475 8.707-29.494 3.939-18.69 8.6-37.194 13.467-55.621 1.596-6.387 3.721-12.596 5.309-18.983 2.566-9.96 4.779-20.022 7.482-29.94 .4-1.545.988-3.069 1.004-4.697-4.398-.819-8.82-1.547-13.23-2.305-2.264-.303-4.52-.822-6.807-.771-.797,1.286-1.244,2.774-1.805,4.187-6.396,16.621-11.695,33.695-17.84,50.416-2.176,5.771-4.551,11.463-6.348,17.391-2.566,7.863-4.73,15.979-8.578,23.254-1.313-.991-2.27-2.404-3.279-3.715-2.5-3.279-4.809-6.73-6.805-10.395-1.295-2.377-2.359-4.898-3.684-7.258-5.072-9.176-11.91-17.01-17.115-26.091-9.507-16.308-19.935-31.966-29.394-48.31-.956-1.606-1.732-3.356-2.908-4.799-.62.148-1.219.394-1.808.663m-120.054,29.465c-1.448.28-2.928.428-4.348.865-.324,1.953-.192,3.945-.224,5.919-.232,20.868-2.009,41.667-3.813,62.427-1.805,21.016-3.864,42.043-4.18,63.162-.323,17.046-.309,34.106-1.239,51.13-.104,2.459-.452,4.906-.353,7.375 2.535-1.391 4.719-3.407 7.168-4.954 25.613-17.442 54.99-26.649 81.597-41.99 1.796-1.104 3.748-1.963 5.343-3.4-.348-1.629-1.12-3.097-1.66-4.646-1.563-4.354-2.611-8.896-3.492-13.454-1.016-4.775-1.535-9.688-2.888-14.373-1.568.652-2.956,1.711-4.416,2.589-11.103,6.844-22.766,12.767-35.085,16.543-7.711,2.286-15.011,6.279-21.189,11.778-.492.312-.947.947-1.557.914-1.271-.828-2.335-2.022-3.191-3.325-.836-1.263-.504-2.886-.371-4.31 3.304-24.718 9.347-48.891 12.91-73.561 3.084-18.934 9.352-37.016 13.487-55.676 .404-2.022.94-4.031 1.101-6.103-11.274-.955-22.513,1.115-33.6,3.09m240.7,13.086c-.576.104-1.225.06-1.713.437-.646,1.182-.914,2.546-1.303,3.841-2.371,8.215-4.5,16.507-6.758,24.762-1.014,4.045-2.449,8.045-2.51,12.289-.061,2.521.672,4.938 1.051,7.396 2.689,15.971 2.16,32.284 3.736,48.379 1.512,22.912 3.189,45.867 6.813,68.519 .6.227 1.248.234 1.883.204 24.18-1.832 48.262-4.923 72.463-6.474 4.76-.347 9.539-.398 14.295-.749 .26-1.979.146-3.988.162-5.98-.039-7.263.09-14.545-.371-21.786-5.008-.536-10.074-.043-15.07.473-8.623,1.009-17.105,3.019-25.617,4.776-2.363.523-4.793.841-7.047,1.814-2.881,1.198-5.646,2.996-8.801,3.178-2.857.199-5.455-1.932-6.73-4.586-1.943-4.104-1.416-8.868-1.516-13.314 .164-9.688-.629-19.345-.889-29.019-.012-.918-.064-1.862.201-2.75 1.574-.602 3.25-.822 4.887-1.169 8.486-1.585 17.111-2.27 25.498-4.443 .492-.159.992-.338 1.436-.633 .596-1.29.771-2.75 1.039-4.147 .689-4.6.934-9.293.783-13.943-7.127-.692-14.473-.373-21.285,2.199-6.375,2.001-11.715,6.738-18.189,8.418-.152-5.209.65-10.38 1.146-15.546 .797-8.314 1.541-16.814-.051-25.077-.352-2.065-1.172-3.998-1.521-6.063 1.838-1.129 3.93-1.648 5.947-2.25 10.496-2.807 21.42-1.321 32.043-3.011 9.498-1.731 19.166-1.614 28.762-1.386 .332-2.256.275-4.551.432-6.825 .344-8.071.887-16.151.707-24.237-1.967-.215-3.943.006-5.91.065-26.068,1.258-52.013,4.321-78.003,6.638m-148-3.226c-6.248,1.326-12.487,3.27-17.97,6.863-3.433,2.23-6.288,5.414-8.456,9.037-7.947,12.715-11.107,27.914-14.75,42.513-3.601,14.303-5.907,29.139-5.175,44.006 2.743-.737 5.468-1.634 8.114-2.716 1.853-.937 4.152-2.179 4.433-4.639 .731-5.386.716-10.868 1.567-16.243 .568-3.784 1.74-7.417 2.813-11.061 1.992-6.668 4.34-13.229 7.288-19.474 4.508-9.557 10.719-18.417 18.981-24.497 7.352-5.228 17.459-6.621 25.314-1.879 10.358,6.907 17.642,18.513 20.905,31.087 3.517,13.85 5.735,28.071 6.86,42.373 .607,7.57 1.055,15.174.635,22.77-.392,9.354-1.624,18.765-4.724,27.546-3.883,12.01-13.387,21.401-24.398,25.501-6.574,1.702-13.479.524-19.89-1.448-3.228-1.023-6.427-2.149-9.575-3.423-4.627-1.879-8.402-5.556-11.575-9.569-2.487-2.992-4.446-6.448-6.879-9.476-1.566.354-2.959,1.257-4.416,1.933-1.844.97-3.788,1.715-5.563,2.828 .097,1.29.58,2.493 1,3.692 2.269,6.354 4.815,12.783 9.08,17.901 2.191,2.711 5.076,4.586 7.496,7.028 4.818,4.655 9.318,10.027 15.371,12.831 8.144,3.884 17.298,4.339 26.018,3.108 3.564-.556 7.204-.927 10.583-2.343 4.292-1.745 8.219-4.465 11.607-7.795 8.61-8.575 13.734-20.466 16.697-32.543 4.112-18.188 6.524-36.899 6.272-55.649-.27-16.58-2.568-33.223-7.724-48.877-5.015-15.156-14.143-28.316-24.657-39.531-2.255-2.321-4.439-4.754-6.943-6.777-3.432-2.71-7.627-4.074-11.819-4.508-5.54-.605-11.088.335-16.52,1.431m1.872,28.779c-5.219,2.884-9.331,7.703-12.312,13.1-8.026,13.939-13.223,29.736-15.401,45.979-.092.826-.132,1.662-.108,2.499 3.608-.982 7.003-2.896 10.735-3.317 .231.975.355,1.979.492,2.976 2.096,15.238 6.027,30.199 11.902,44.238 .235.729.903,1.992-.216,2.234-4.972,2.227-10.146,3.865-15.214,5.804-.104,1.169.635,2.165 1.087,3.165 2.3,4.378 5.1,8.57 8.86,11.613 3.08,2.521 6.828,3.74 10.371,5.262 5.243,2.084 10.915,4.063 16.546,2.85 7.646-2.441 14.379-8.184 18.307-15.706 2.164-4.104 3.116-8.772 3.977-13.358 2.731-14.58 2.976-29.62 1.495-44.381-.863-9.03-2.615-17.92-4.38-26.78-1.908-9.25-4.287-18.716-9.643-26.397-3.191-4.435-6.703-9.037-11.667-11.16-4.824-1.856-10.332-1.172-14.831,1.379z" fill="#0a0a0b"/>
</svg>
