<?xml version="1.0" encoding="UTF-8"?>
<!DOCTYPE svg  PUBLIC '-//W3C//DTD SVG 1.1//EN'  'http://www.w3.org/Graphics/SVG/1.1/DTD/svg11.dtd'>
<svg width="325" height="353.75" version="1.1" viewBox="0 0 260 283" xmlns="http://www.w3.org/2000/svg">
 <path d="m0 0h260v283h-260v-283m132.12 7.81c-1.07 4.67-0.59 9.5-0.68 14.24-0.12 2.99 0.49 5.92 1.32 8.76-0.1 2.73-0.24 5.47 0.13 8.18 0.96 6.75 0.51 13.58 0.61 20.36-1.66 1.54-2.35 3.59-0.63 5.42-0.29 1.88-0.77 3.8-0.49 5.72-0.46 1.3-0.89 2.61-1.21 3.95-1.63 0.86-3.24 1.76-4.82 2.7-0.35-0.36-1.06-1.06-1.41-1.41-1.8-1.17-3.59-2.34-5.38-3.51-1.3-0.68-2.59-1.37-3.87-2.07-2.3-0.77-5.34-1.95-7.2 0.32-2.04 3.1-3.22 6.81-3.57 10.5-0.1 3.04 2.61 4.86 4.82 6.39 1.31 0.2 2.63 0.4 3.95 0.62 1.4 1.75 3.08 3.58 5.36 4.08 3.21-0.01 6.32-0.94 9.46-1.51-2.89 3.35-6.07 6.91-6.75 11.45-0.57 3.21 0.55 6.36 1.49 9.39-0.15 0.64-0.44 1.91-0.58 2.55-2.09 4.14-1.56 8.89-2.42 13.32-0.93 0.02-1.86 0.05-2.79 0.08-0.93-1.64-1.87-3.26-2.81-4.88-2.84 10.63 0.64 21.64-1.66 32.37-5.99-0.41-11.96 0.21-17.91 0.81 1.53-3-0.03-5.92-1.59-8.52 1.58 0.3 3.17 0.58 4.75 0.87l-0.25 0.69c2.95 0.28 6.98 0.68 8.41-2.65-0.08-3.15-3.75-3.3-6.09-3.47-3.28-0.59-6.01 1.19-8.71 2.72-2.88-0.37-5.47-1.93-8.37-2.21-3.83-0.35-7.69-0.24-11.51-0.73 7.99-2.38 16.7 0.12 24.6-2.76l0.84-1.6c0.64-0.22 1.92-0.65 2.56-0.87-4.01-4.37-10.33-3.9-15.73-4.3-6.62-0.11-13.26-1.69-19.87-0.55-0.78-2.44-1.4-4.94-2.42-7.29l1.01 0.9c0.28-5.86-5.68-8.25-8.82-12.17 2.53-0.41 5.05-0.86 7.57-1.32 0.18-1.05 0.36-2.1 0.55-3.15-2.63-2.72-5.33-5.35-8.02-8.01 3.42-4.43 7.65-8.46 9.27-14 2.82-1.85 1.24-4.91 0.02-7.24-1.24-2.99-3.38-5.47-5.51-7.86 2.42-2.9 4.34-6.26 4.31-10.15-2.29 2.42-4.49 4.94-7.03 7.13-0.43-0.49-1.3-1.47-1.73-1.96 2.47-1.71 4.73-3.79 6.11-6.5-2.55 1.43-4.85 3.24-7.26 4.89-0.71-1.91-1.38-3.82-2.12-5.71 0.04 2.24 0.17 4.47 0.34 6.7-0.43 0.23-1.3 0.69-1.74 0.92-0.38-1.75-0.7-3.51-1-5.27-1.89 3.77-4.88 6.76-7.81 9.74-2.14 1.13-4.28 2.26-6.43 3.39-2.77-0.93-5.68-1.2-8.59-1.28-0.75 2.22-0.02 4.29 1.41 6.04-0.02 2.86-0.83 6.13 1.31 8.48 4.04 4.96 10.48 7.56 13.43 13.51-0.08-1.42-0.15-2.83-0.22-4.24 1.63 1.53 3.34 2.98 5.06 4.41 0.11 0.87 0.2 1.75 0.26 2.63-1.31 1.6-1.27 3.51-0.26 5.25-1.4 1.82-2.85 3.62-4.27 5.44-2.72 3.53-6.54 6.27-8.18 10.56-2.93-1.2-4.93-3.64-6.55-6.27 0.24 1.74 0.08 3.72 1.24 5.18 3.54 4.46 10.76 5.01 12.63 10.95-0.06 0.3-0.2 0.92-0.26 1.23 1.35 0.36 2.7 0.71 4.05 1.06-0.02 0.86-0.05 2.58-0.06 3.44-1.87 2.26-2.8 5.27-1.16 7.97 3.9 8.45 7.03 17.3 11.6 25.41 0.99 7.65 5.77 14.08 7.06 21.63-1.34 0.31-2.67 0.62-4 0.93-0.62 1.65-2.4 3.51-0.63 5.08 2.17 1.79 4.58-0.1 6.01-1.82 1.05 3.6 1.64 7.32 2.74 10.9-0.16 9.99 1.31 19.93 0.81 29.93-4.36 0.1-8.71 0.48-13.04 1.02-3.26 1.17-6.33 2.79-9.09 4.88 0.88 3.98 4.52 6.06 8.33 6.48 7.68 1 15.47 2.65 23.21 1.37 4.85-0.8 9.95-0.74 14.54-2.64 2.24-0.75 3.03-3.07 3.84-5.03-2.63-2.62-5.97-4.24-9.4-5.51-4.09-0.83-8.26-0.6-12.4-0.81-0.29-7.36 1.07-14.74-0.01-22.09 0.53-8.9 3.06-17.49 5.54-26 1.43-0.73 3.04-1.25 4.18-2.44-0.13-1.54-0.88-2.71-2.27-3.51 1.42-3.95 3.04-7.81 4.66-11.67 2.96 4.5 4.79 9.58 6.68 14.6-0.22 0.23-0.67 0.7-0.89 0.94-1.53 13.18 1.11 26.54 5.81 38.84 0.88-4.05 3.45-8.6 0.84-12.52-3.26-5.87-4.66-13-2.24-19.44 1.59 3.06 3.32 6.05 4.39 9.34 3.95 12.04 7.73 24.24 8.97 36.9l-0.5 0.68c-0.88 6.52 0.29 13.12-0.14 19.68-4.33-0.13-8.67 0.07-12.97 0.59-3.02 1.2-5.94 2.65-8.64 4.45 0.44 1.66 0.37 3.83 2.08 4.79 4.68 2.87 10.4 2.72 15.66 3.51 7.98 1.16 16.03-0.17 23.92-1.31 3.74-0.53 7.55-2.76 7.75-6.93-2.86-1.83-5.87-3.39-8.95-4.79-4.25-0.09-8.49-0.36-12.74-0.4-0.37-7.65 0.78-15.29 0.05-22.94 0.12-0.83 0.24-1.66 0.36-2.48 0.37-0.57 1.12-1.71 1.49-2.28 0.77-1.16 1.52-2.33 2.26-3.5 3.02 4.85 8.03 8.11 13.36 9.93 8.74 3 18.19 3.05 27.29 2.1 9.05-1.2 18.92-4.98 23.3-13.6 3.6-6.48 1.32-14.01 1.6-21 0.6 0.21 1.81 0.62 2.41 0.82 1.07 4.37 2.2 8.77 2.23 13.3 0.15 6.83 1.63 13.92 5.97 19.37 3.62 4.57 9.74 6.34 15.24 4.31-1.09 5.77 8.11 7 9.91 2.3-0.65-2.81-3.69-3.92-6.28-3.47 2.28-0.86 4.26-2.33 6.11-3.88-2.62-0.71-5.28-1.78-8.04-1.48-3.59 1.59-6.7 5.07-10.98 4.4-2.83 0.01-4.18-2.79-5.68-4.71 0.18-2.81-0.59-5.56-0.96-8.32-1.15-7.22-2.03-14.82-5.85-21.21-1.03-2.71-2.38-5.29-4.12-7.61 0.09-1.56 0.13-3.12 0.12-4.68 0.71-0.2 2.12-0.61 2.83-0.81-0.02-1.88-0.05-3.76-0.07-5.63-0.73-0.09-2.2-0.26-2.93-0.35-0.34-7.14-0.15-14.31-0.83-21.43 1.57-0.4 3.48-0.18 4.67-1.48 1.77-1.56 1.16-4.12 1.32-6.19-2.14 0.06-4.26 0.3-6.35 0.72-0.2-9.77-1.03-19.53-2.27-29.22-0.71 1.39-1.37 2.8-2 4.23-3.37 2.21-6.47 4.8-9.7 7.2-0.61-1.38-1.22-2.76-1.82-4.14 2.6-4.94 5-10.07 5.97-15.61l0.6-0.24c0.29-4.87 0.74-10.2-1.97-14.52-0.9-2.02-1.83-4.06-3.29-5.74 0.32-1.1 0.65-2.19 0.97-3.28 1.43 0.77 2.87 1.52 4.33 2.25 0.58 0.75 1.17 1.5 1.76 2.26-0.72-5.2-2.25-10.22-3.35-15.33 1.47 0.53 2.94 1.09 4.39 1.72 1.29 0.21 2.65 0.68 3.94 0.2 1.93 1.62 3.98 3.82 6.79 3.1 3.13 0.06 3.74-3.42 3.9-5.84-2.12-0.72-4.87-2.49-6.76-0.32-0.52-2.53-2.35-4.07-4.71-4.8-1.64-0.45-3.25-1.75-5.01-1.23-1.6 0.94-2.29 2.79-3.36 4.21-0.45-1.31-1.01-2.58-1.58-3.84 1.83-1.52 3.78-2.89 5.85-4.08 2.48-0.51 4.94-1.12 7.4-1.7 1.89-0.67 3.81-1.23 5.64-2.06 3.13-0.86 7.47-1.61 8.42-5.28 0.46-3.24-2.99-4.67-4.95-6.51-3.25-2.5-3.23-7.19-5.97-10.06-3.95-1.19-8.07 0.33-11.4 2.45-0.36 0.2-1.07 0.6-1.42 0.8-2.3 1.1-4.68 1.99-7.09 2.82l-0.06-0.87c-0.11-4.62-0.09-9.25 0.26-13.86 2.68-0.26 5.34-0.62 8-1.07-0.45-1.21-0.21-3.01-1.63-3.6-2.08-0.68-4.28-0.81-6.42-1.15-0.19-3.66-0.26-7.33-0.02-10.98 0.37-1.61 0.91-3.17 1.27-4.78 0.54-5.25 0.62-10.54 0.37-15.8-0.08-2.83-2.74-4.59-5.04-5.67-5.8-2.27-12.26-2.08-18.37-1.6-4.19 0.68-9.17 1.26-11.94 4.85m-100.12 10.03l0.52 2.84c2.53 0.12 5.07 0.23 7.62 0.23 4.08 0.82 8.25 1.2 12.41 1.39-3.3-5-10.26-3.52-15.37-4.29-1.73-0.08-3.45-0.13-5.18-0.17m160.35 3.66c-2.19 1.15-3.22 3.57-4.52 5.54 2.14 1.25 4.78 2.44 7.13 0.92 2.42-0.96 1.62-3.86 1.91-5.88-1.5-0.24-3-0.55-4.52-0.58m-151.52 6.72c-1.24 0.59-2.54 1.1-3.62 1.97-1.64 1.17-0.54 3.74 0.66 4.84 3.48 1.85 7.62 1.04 11.26 0.15 1.11-0.63 2.13-1.4 3.15-2.15-2.72-0.29-5.56-0.67-8.2 0.29-1.08-0.53-2.15-1.07-3.22-1.61l-0.01-0.62c3.95-2.11 9.07-2.96 11.52-7.1-4.12 0.57-7.71 2.78-11.54 4.23m138.57 7.27c-1.45 1.56-0.28 3.63-0.11 5.42 1.61-0.48 3.98 0.04 4.77-1.85 1.07-1.74 0.5-3.89 0.56-5.81-1.94 0.17-4.28 0.17-5.22 2.24m-105.09 4.21c0.37 0.68 1.11 2.03 1.48 2.71 3.25 0.7 6.76 0.49 8.97-2.32-1.23-5.12-8.25-4.32-10.45-0.39m140.51-0.94l0.68 3c2.82 0.55 5.7 0.58 8.55 0.14 0.07-1.32 0.1-2.63 0.1-3.95-3.14-0.78-6.45-0.86-9.33 0.81m-163.38 15.48c1.95-1.81 3.86-3.66 5.69-5.58 2.17 3.2 2.59 7.1 3.64 10.72 1.42-4.75-0.02-9.47-2.79-13.39 0.6-2.73 0.71-5.53 0.43-8.31-4.34 4.52-4.34 11.17-6.97 16.56m53.85-14.03c0.12 1.07 0.24 2.15 0.36 3.22 2.62 0.2 5.74 1.05 7.96-0.86 1.59-0.81 1.72-3.45 0.03-4.24-2.91-1.2-6.06-0.04-8.35 1.88m-61.72-2.01c-2.18 3.54-3.92 7.32-5.59 11.11-2.64-1.69-5.64-2.77-8.82-2.6 0.07 0.7 0.21 2.08 0.28 2.77 4.54 1.32 8.7 3.55 12.79 5.85-0.34 0.94-0.7 1.86-1.08 2.78-5.39-0.3-10.79-0.5-16.18-0.38-1.7-0.18-2.97 0.79-3.35 2.45l1.18 0.05c8.06 1.12 16.34 1.13 24.26-0.87 0.12-0.84 0.25-1.68 0.37-2.51l-0.76-0.2c-1.32-2.05-2.75-4.18-5.03-5.26 3.32-2.29 6.49-4.8 9.43-7.56-4.03 1.02-6.92 4.26-10.77 5.69 0.58-3.9 5.09-7.32 3.27-11.32m78.86 14.11c-0.97 3.92 4.6 5.66 7.12 3.29 2.28-1.39 1.61-4.13 1.16-6.27-3.01-0.9-7.32-0.66-8.28 2.98m73.85-2.31c0.17 2.32-0.15 5.25 2.22 6.61 1.54 1.7 4.76 0.68 4.28-1.81 0.78-3.77-3.2-6.24-6.5-4.8m-118.43 2.96c0.58 1.75 0.62 3.87 1.97 5.24 1.64 0.97 3.52 1.38 5.32 1.95 0.15-1.64 1.19-3.63-0.23-4.99-1.54-2.41-4.58-2.12-7.06-2.2m173.23 3.14c-1.94 0.88-1.4 3.22-1.66 4.93 2.84 1.53 7.89 1.91 8.74-2.1 0.65-3.73-4.7-4.36-7.08-2.83m-47.38 6.67c4.27 0.4 8.94-1.6 9.96-6.14-4.25-0.86-9.84 1.16-9.96 6.14m21.53 2.35c-0.04 2.61-0.44 6.43 2.78 7.36 3.21 1.37 4.34-3.05 2.78-5.16-0.71-2.5-3.59-1.95-5.56-2.2m-138.69 7.42c-1.95 1.29-0.82 3.93-1.01 5.85 2.25-0.12 5.01 0.71 6.75-1.18 1.6-1.32 2.13-4.48 0.12-5.67-1.96-0.6-4.3-0.46-5.86 1m144.29 2.63c-1.13 2.05 1.21 3.41 2.16 4.95 1.08-0.98 2.44-1.72 3.23-2.98 0.93-1.77 0.13-3.77-0.03-5.61-2.27 0.37-4.94 0.94-5.36 3.64m-161.68 2.72c0.07 2.15-0.47 4.93 1.86 6.11 1.59 1.65 3.81 0.96 5.77 0.63-0.12-2 0.41-4.52-1.69-5.7-1.58-1.65-3.91-1.14-5.94-1.04m148.47 10.59l-0.81-0.36c-1.29 1.93-1.61 4.22-1.66 6.5 1.58 0.64 3.1 1.56 4.83 1.76 3.13-0.3 3.86-5.79 0.65-6.54 3.27-2.45 7.29-3.41 11.2-4.32 0.15-1.1 0.3-2.2 0.44-3.3-5.31 0.94-10.29 3.1-14.65 6.26m18.39 1.02c0.65 1.82 1.21 3.68 2.06 5.42 0.74 2.08 3.32 1.98 5.02 2.85-2.91 2.39-5.46 5.18-8.12 7.84-1.41-1.36-3.02-2.46-4.98-2.78-3.7-0.75-6.79-2.98-10.07-4.7 0.73 2.07 1.91 3.96 3.8 5.15 0.42 1.22 0.79 2.47 1.34 3.64 2.02 1.28 4.61 1.07 6.89 1.51-0.15 0.49-0.47 1.47-0.63 1.96-1.27 0.27-2.55 0.53-3.82 0.8-3.67-4.13-8.36-7.21-11.93-11.45 0.56-1 0.47-2.78-0.8-3.17-1.73 0.45-1.42 3.84 0.17 4.28-0.32 4.97 5.78 7.06 8.47 10.51-2.3 0.43-4.65 0.69-6.9 1.36-0.74 1.18-1.26 2.47-1.83 3.74l0.75-0.04c2.84 2.94 6.35 5.45 7.99 9.33-2.84 3.24-6.06 6.33-7.66 10.42-1.44 1.09-2.47 2.7-1.82 4.55 0.2 2.35 0.2 4.79 1.05 7.03-0.93 0.75-1.86 1.49-2.73 2.29-1.61-1.08-3.15-2.79-5.26-2.58-1.84 0.19-3.55 0.95-5.28 1.54 1.51 3.69 6.57 4.87 9.45 2.06-0.05 1.63 0.03 3.27 0.1 4.91 1.41-0.1 2.83-0.13 4.23-0.37 0.8-1.2 1.39-2.52 2.02-3.81 0.77 1.07 1.61 2.07 2.53 3.02-2.77 2.77-4.87 6.28-4.31 10.35 1.07-1.24 2.1-2.53 3.21-3.75 0.28 0.68 0.86 2.03 1.14 2.71-0.36 0.41-1.09 1.23-1.45 1.64 2.92-1.39 6.14-1.35 9.29-1.07 0.11-1.74-1.07-4.29 1.17-5.11 0.62 1.23 1.23 2.48 1.84 3.72 2.06-2.49 4.21-4.93 5.99-7.65 5.19-3.52 11.38-5.52 15.92-9.94l0.72 0.33c-0.17-0.63-0.52-1.88-0.69-2.51 0.59-4.19-2.56-7.45-5.54-9.86-3.85-2.86-7.78-5.77-10.15-10.07 0.12-0.4 0.35-1.21 0.46-1.61 1.37-1.39 2.66-2.84 4.04-4.21 2.81 1 5.8 0.54 6.84-2.58-0.68-0.34-2.03-1.02-2.7-1.35 2.48-2.03 4.57-4.56 5.42-7.72 0.24-0.26 0.7-0.79 0.94-1.05-0.59-1.81-0.92-3.74-1.89-5.39-1.47-1.64-3.44-2.71-5.07-4.17-1.12-1.92-0.67-4.66-2.65-6.11-2.18-0.26-4.38 0.07-6.57 0.09m-161.92 7.78c-1.12 2.31-2.31 5.59 0.22 7.47 3.99 0.24 4-4.8 2.7-7.42-0.73-0.01-2.19-0.04-2.92-0.05m16.72 6.57c-0.79 1.58-0.96 4.73 1.42 4.87 2.37 0.94 4.87 0.13 7.25-0.29-0.04-2.41 0.81-5.64-1.91-6.95-2.43-0.17-5.06 0.55-6.76 2.37m-63.92 15.09c2.89-2.78 5.6-5.76 8.68-8.35 2.14-1.78 3.9-4 4.82-6.65-4.39 5.1-11.14 8.37-13.5 15m79.45-10.07c0.13 3.73 4.19 5.03 7.13 6.06 0.44-1.37 0.89-2.74 1.34-4.11-2.51-1.51-5.49-3.39-8.47-1.95m-28.81 3.53c-0.51 1.53-1.01 3.07-1.51 4.6 2.33 1.04 4.75 1.84 7.22 2.49l-0.64 1.84c4.58 0.65 5.37-4.39 4.62-7.77-0.43 0.22-1.3 0.67-1.73 0.9-2.24-1.96-5.12-2.29-7.96-2.06m25.55 3.88c-1.49 1.83 0.13 5.81 2.82 4.8 2.72-0.88 1.6-4.19 1.9-6.3-1.65 0.02-3.78-0.24-4.72 1.5m-37.8 3.46c0.29 0.72 0.86 2.14 1.15 2.85 2.55-0.24 5.62 0.44 7.6-1.61 1.06-0.78 0.5-2.28 0.41-3.36-3.26-0.84-6.72-0.33-9.16 2.12m-45.12 0.53c-1.6 2.57-1.48 5.38 0.06 7.95 1.07-0.59 2.33-0.93 3.18-1.85 0.73-1.86 0.31-3.85 0.09-5.75-1.11-0.12-2.22-0.23-3.33-0.35m163.54 1.86c-1.39 2.85 1.31 6.19 4.39 5.38 0.37 1.64 0.25 3.57 1.52 4.85 1.54 1.85 4.45 1.57 6.45 0.73 3.29-2.35-0.2-7.77-3.74-6.78-0.31-1.51 0.13-3.4-1.08-4.58-2.11-1.69-5.7-1.71-7.54 0.4m19.69 3.09c-2.04 1.36-2.37 4.04-1.87 6.25 2.32 3.16 7.76 0.26 7.13-3.44 0.12-2.8-3.01-4.06-5.26-2.81m-97.92 2.07c-0.51 2.22-0.81 4.49-0.64 6.77 1.19-0.19 2.37-0.45 3.54-0.76 1.7-1.39 1.61-3.87 1.15-5.81-1.28-0.63-2.7-0.31-4.05-0.2m-1.69 7.82c-0.59 1.9-1.2 3.79-1.8 5.68 1.87-0.07 3.74-0.14 5.61-0.23l0.3-4.2c-1.37-0.42-2.74-0.83-4.11-1.25m-83.95 16.66l3.24 0.16c1.45-2.67 2.43-6.33-1.06-7.89-2.06 2.11-2.96 4.85-2.18 7.73m8.56 8.63c-0.15 1.3-0.12 2.62-0.14 3.94 0.76 0.35 2.27 1.07 3.02 1.43 0.97-0.97 2.01-1.87 2.8-2.99 0.51-1.51-0.42-3.05-0.59-4.54-1.83 0.29-4.31 0-5.09 2.16m207.09-0.49c-0.28 2.51 0.52 6.17 3.81 5.72-0.49 0.66-1.47 1.99-1.96 2.66 6.21 0.82 12.54 1.63 18.79 0.77 0.15-0.53 0.44-1.61 0.58-2.14-4.49-1.13-9.17-1-13.77-1.21 0.47-1.67 2.31-3.61 0.6-5.14-2.05-2.34-5.48-1.46-8.05-0.66m-15.26 21.47c-1.46 3.6-1.08 7.54 0.86 10.87 0.54-3.19 1-6.4 1.75-9.55 0.48 0.19 1.43 0.57 1.91 0.76-0.3-0.38-0.92-1.14-1.22-1.52 1.34-3.51 3.07-6.86 4.47-10.35-2.88 1.8-5.17 4.33-7.25 6.97-2.44-3.1-2.49-7.2-3.36-10.88-1.93 4.68-0.64 10.11 2.84 13.7m11.26-11.65c0.23 0.38 0.7 1.14 0.93 1.52-1.29 2.85 0.58 4.56 2.89 5.85-2.81 1.77-5.31 3.97-7.75 6.21 4.18-0.54 6.95-4.09 10.71-5.65-1.19 3.51-2.99 6.75-4.48 10.14 0.42 0.31 1.24 0.93 1.66 1.24 1.72-3.65 3.72-7.17 5.14-10.95 2.78 1.94 6.24 2.35 9.53 2.69-0.64-4.61-6.06-4.44-9.39-6.09 1.82-4.03-2.86-4.42-5.61-4.29l-0.55-0.63-3.08-0.04m-41.55 1.49c0.48 4.28 4.88 8 9.22 6.96 0.27-4.65-5.02-7.63-9.22-6.96m11.42 8.11c-0.06 1.2-0.11 2.41-0.15 3.61 2.12 0.41 4.29 1.08 6.47 0.72 1.88-0.24 2.48-2.27 3.51-3.56-3.1-1.51-6.53-1.55-9.83-0.77m-198.02 9.76c3.68-0.68 5.69-4.67 4.68-8.15-3.31 1.32-5.34 4.58-4.68 8.15m248.12-2.67c-0.28 0.25-0.84 0.77-1.12 1.03-1.94 5.46 10.08 6.42 8.77 0.75-0.82-3.04-5.32-3.09-7.65-1.78m-27.59 7.63c4.08 0.69 8.21 0.87 12.33 0.69 0.26 0.72 0.76 2.15 1.02 2.86-3.65 0.67-7.08 2.46-10.22 4.38-0.88 1.64-1.34 3.46-1.94 5.21l-0.81-0.33c0.04 1.99-0.77 4.45 0.89 6.02 1.55 1.85 4.09 1.68 6.26 1.5l-0.17-1.11c0.29-1.19 0.59-2.37 0.89-3.55 4.4 0.2 8.85 0.87 13.24 0-1.14-1.01-2.46-1.87-4.01-1.98-4.88-0.65-9.81-1.05-14.6-2.21 4.42-2.82 9.55-4.5 13.44-8.12 1.1 0.13 1.77-0.36 2.03-1.46-0.19-1.95-1.95-3.01-3.27-4.18-5.06 0.53-10.08 1.37-15.08 2.28m-183.58 4.24c-0.44 2.4-0.48 4.85-0.07 7.26 0.73 0.06 2.2 0.17 2.94 0.22 0.48-2.35 0.59-4.75 0.42-7.14-1.1-0.11-2.19-0.23-3.29-0.34m-25.61 8.77c2.75 1.31 5.53 0.37 7.31-2.01-1.01-0.87-2.05-1.71-3.12-2.49-2.72-0.34-3.32 2.62-4.19 4.5m70.43 0.67c-1.61 2.03-1.01 5.15 0.91 6.76 2.1 0.69 3.9-1.38 3.67-3.39 0.24-2.45-2.3-4.23-4.58-3.37m123.27 3.51c-2.68 0.76-3.45 5.11-0.85 6.35 2.35 1.4 5.55 0.07 6.81-2.19 0.21-1.26 0.21-2.55 0.28-3.82-2.04-0.35-4.24-1.37-6.24-0.34m3.58 18.51c-0.37 1.73-1.29 3.69-0.12 5.34 1.01 1.98 3.44 2.36 5.26 3.28 0.32-1.82 1.4-3.89 0.19-5.61-1.22-1.75-3.51-2.14-5.33-3.01m-32.4 14.31c0.47 5.25 8.8 4.36 10.22-0.05-2.47-3.04-8.05-3.6-10.22 0.05m-49.64 14.67c4.2 1.53 8.86-0.05 11.12-3.94-4.03-2.24-9.57-0.51-11.12 3.94z" fill="#fff"/>
 <g fill="#efb851">
  <path d="m132.12 7.81c2.77-3.59 7.75-4.17 11.94-4.85 6.11-0.48 12.57-0.67 18.37 1.6 2.3 1.08 4.96 2.84 5.04 5.67 0.25 5.26 0.17 10.55-0.37 15.8 0.39-5.34 0.06-10.69-0.02-16.03-2.05 0.87-4.1 1.74-6.23 2.42-0.47 0.14-1.41 0.41-1.88 0.55-1.55 0.26-3.1 0.46-4.65 0.67-0.35 5.42-0.48 10.86-0.46 16.29-1.86 0.13-3.71 0.27-5.57 0.31 0.89-4.6 1.75-9.42 0.62-14.06-0.13-1.15-0.73-1.9-1.82-2.26-3.34-1.31-7.03-1.01-10.55-1.12-0.09 5.1-0.25 10.2-0.66 15.28-0.38-0.17-1.15-0.49-1.53-0.66-0.46-6.56-0.12-13.27-2.23-19.61z"/>
  <path d="m55.05 69.1c2.54-2.19 4.74-4.71 7.03-7.13 0.03 3.89-1.89 7.25-4.31 10.15-0.91-1.01-1.81-2.02-2.72-3.02z"/>
 </g>
 <g fill="#d8a23c">
  <path d="m131.44 22.05c0.09-4.74-0.39-9.57 0.68-14.24 2.11 6.34 1.77 13.05 2.23 19.61 0.38 0.17 1.15 0.49 1.53 0.66 1.33 0.5 2.68 0.96 4.04 1.37l0.93 0.13c2.47 0.34 4.95 0.59 7.44 0.66 1.86-0.04 3.71-0.18 5.57-0.31-0.02-5.43 0.11-10.87 0.46-16.29 1.55-0.21 3.1-0.41 4.65-0.67-1.23 5.73-1.06 11.62-1.34 17.45-4.74 0.12-9.45 0.58-14.16 1.06-0.67 0.03-2.02 0.08-2.69 0.11-2.66-0.36-5.34-0.55-8.02-0.78-0.83-2.84-1.44-5.77-1.32-8.76z"/>
  <path d="m241.69 117.78c1.34-1.35 2.73-2.65 4.14-3.93 0.67 0.33 2.02 1.01 2.7 1.35-1.04 3.12-4.03 3.58-6.84 2.58z"/>
 </g>
 <path d="m160.85 12.42c2.13-0.68 4.18-1.55 6.23-2.42 0.08 5.34 0.41 10.69 0.02 16.03-0.36 1.61-0.9 3.17-1.27 4.78-1.14 10.17-0.65 20.46-0.19 30.66l0.06 0.87c0.04 0.38 0.13 1.15 0.17 1.54-1.1 0.59-2.19 1.19-3.27 1.8-1.78-6.29-0.45-12.85-1.04-19.26-0.89-11.33 1.78-22.77-0.71-34z" fill="#b18216"/>
 <path d="m136.54 12.8c3.52 0.11 7.21-0.19 10.55 1.12 1.09 0.36 1.69 1.11 1.82 2.26 1.13 4.64 0.27 9.46-0.62 14.06-2.49-0.07-4.97-0.32-7.44-0.66 1.34-0.55 2.69-1.11 3.91-1.91 1.58-4.26 0.19-8.88-0.19-13.23-1.37-0.38-2.73-0.76-4.09-1.14-1.42 5.28-0.97 10.77-0.56 16.15-1.36-0.41-2.71-0.87-4.04-1.37 0.41-5.08 0.57-10.18 0.66-15.28z" fill="#f8d69f"/>
 <g fill="#c69326">
  <path d="m158.97 12.97c0.47-0.14 1.41-0.41 1.88-0.55 2.49 11.23-0.18 22.67 0.71 34 0.59 6.41-0.74 12.97 1.04 19.26-0.23 0.13-0.68 0.39-0.91 0.51-1.16-0.07-2.31-0.16-3.47-0.27-0.83-11.18-0.03-22.39-0.41-33.58-3.7-0.03-7.42 0.02-11.12-0.23-0.8-0.16-2.41-0.48-3.22-0.63 4.71-0.48 9.42-0.94 14.16-1.06 0.28-5.83 0.11-11.72 1.34-17.45z"/>
  <path d="m40.83 28.22c3.83-1.45 7.42-3.66 11.54-4.23-2.45 4.14-7.57 4.99-11.52 7.1-0.01-0.96-0.02-1.92-0.02-2.87z"/>
 </g>
 <path d="m139.92 29.45c-0.41-5.38-0.86-10.87 0.56-16.15 1.36 0.38 2.72 0.76 4.09 1.14 0.38 4.35 1.77 8.97 0.19 13.23-1.22 0.8-2.57 1.36-3.91 1.91l-0.93-0.13z" fill="#fdf5e7"/>
 <path d="m32 17.84c1.73 0.04 3.45 0.09 5.18 0.17 0.96 0.99 1.93 1.98 2.96 2.9-2.55 0-5.09-0.11-7.62-0.23l-0.52-2.84z" fill="#eded96"/>
 <path d="m37.18 18.01c5.11 0.77 12.07-0.71 15.37 4.29-4.16-0.19-8.33-0.57-12.41-1.39-1.03-0.92-2-1.91-2.96-2.9z" fill="#cdaa5d"/>
 <path d="m192.35 21.5c1.52 0.03 3.02 0.34 4.52 0.58-0.29 2.02 0.51 4.92-1.91 5.88-2.35 1.52-4.99 0.33-7.13-0.92 1.3-1.97 2.33-4.39 4.52-5.54z" fill="#f6e97a"/>
 <path d="m37.21 30.19c1.08-0.87 2.38-1.38 3.62-1.97 0 0.95 0.01 1.91 0.02 2.87l0.01 0.62c1.07 0.54 2.14 1.08 3.22 1.61-1.43 0.46-2.84 0.98-4.25 1.5 3.09 0.21 6.2 0.4 9.3 0.36-3.64 0.89-7.78 1.7-11.26-0.15-1.2-1.1-2.3-3.67-0.66-4.84z" fill="#efe79f"/>
 <path d="m132.76 30.81c2.68 0.23 5.36 0.42 8.02 0.78l-0.39 0.14c-1.5 0.64-3.66 0.91-3.68 2.99-1.01 6.38-0.08 12.88-0.64 19.3-0.56 6.39 0.87 12.76 0.15 19.14-0.35 3.17-0.36 6.37-0.07 9.55 2.76-0.1 5.53-0.2 8.3-0.28-1.03 2.99-1.68 6.31-4.14 8.53-1.93 1.42-3.86 2.83-5.75 4.29 0.02-1.29 0.04-2.59 0.07-3.88-1.54-0.5-3.08-1-4.64-1.44 1.81 0.08 3.62 0.17 5.43 0.25-1.99-6.4-1.66-13.17-3.04-19.69-0.28-1.92 0.2-3.84 0.49-5.72 0.33-1.79 0.57-3.6 0.63-5.42-0.1-6.78 0.35-13.61-0.61-20.36-0.37-2.71-0.23-5.45-0.13-8.18z" fill="#edb75a"/>
 <path d="m165.64 61.47c-0.46-10.2-0.95-20.49 0.19-30.66-0.24 3.65-0.17 7.32 0.02 10.98 2.14 0.34 4.34 0.47 6.42 1.15 1.42 0.59 1.18 2.39 1.63 3.6-2.66 0.45-5.32 0.81-8 1.07-0.35 4.61-0.37 9.24-0.26 13.86z" fill="#f4ea79"/>
 <path d="m136.71 34.72c0.02-2.08 2.18-2.35 3.68-2.99-0.9 5.7-0.93 11.48-0.77 17.24 0.27 10.68-0.44 21.38 0.3 32.05l3.4 0.28c3.16-8.78 1.71-18.19 1.94-27.3-0.3-7.51 1.3-15.39-1.79-22.52 0.81 0.15 2.42 0.47 3.22 0.63l3.3 0.63c-0.7 12.76-0.08 25.54-0.32 38.3 0.04 3.28-1.82 6.06-3.58 8.67-0.58 0.89-1.12 1.79-1.64 2.72-2.77 0.08-5.54 0.18-8.3 0.28-0.29-3.18-0.28-6.38 0.07-9.55 0.72-6.38-0.71-12.75-0.15-19.14 0.56-6.42-0.37-12.92 0.64-19.3z" fill="#f5d69a"/>
 <path d="m140.39 31.73l0.39-0.14c0.67-0.03 2.02-0.08 2.69-0.11 3.09 7.13 1.49 15.01 1.79 22.52-0.23 9.11 1.22 18.52-1.94 27.3l-3.4-0.28c-0.74-10.67-0.03-21.37-0.3-32.05-0.16-5.76-0.13-11.54 0.77-17.24z" fill="#fdf7e6"/>
 <path d="m146.69 32.11c3.7 0.25 7.42 0.2 11.12 0.23 0.38 11.19-0.42 22.4 0.41 33.58 1.16 0.11 2.31 0.2 3.47 0.27-0.84 0.73-1.67 1.47-2.49 2.22-1.67 0.18-3.35 0.36-5.02 0.54-0.86-11.83 0.28-23.68-0.35-35.51-1.28-0.23-2.56-0.46-3.84-0.7l-3.3-0.63z" fill="#dba53b"/>
 <path d="m44.08 33.32c2.64-0.96 5.48-0.58 8.2-0.29-1.02 0.75-2.04 1.52-3.15 2.15-3.1 0.04-6.21-0.15-9.3-0.36 1.41-0.52 2.82-1.04 4.25-1.5z" fill="#d1c279"/>
 <path d="m149.99 32.74c1.28 0.24 2.56 0.47 3.84 0.7 0.63 11.83-0.51 23.68 0.35 35.51 1.67-0.18 3.35-0.36 5.02-0.54 1.09 2.06 2.24 4.1 3.47 6.08-3.9 2.01-7.8 4.04-11.49 6.43-1.7-0.41-3.39-0.82-5.09-1.21 1.76-2.61 3.62-5.39 3.58-8.67 0.24-12.76-0.38-25.54 0.32-38.3z" fill="#ebb650"/>
 <path d="m179.4 35.49c0.94-2.07 3.28-2.07 5.22-2.24-0.06 1.92 0.51 4.07-0.56 5.81-0.79 1.89-3.16 1.37-4.77 1.85-0.17-1.79-1.34-3.86 0.11-5.42z" fill="#e5a541"/>
 <path d="m74.31 39.7c2.2-3.93 9.22-4.73 10.45 0.39-2.21 2.81-5.72 3.02-8.97 2.32-0.37-0.68-1.11-2.03-1.48-2.71z" fill="#cf1c29"/>
 <path d="m214.82 38.76c2.88-1.67 6.19-1.59 9.33-0.81 0 1.32-0.03 2.63-0.1 3.95-2.85 0.44-5.73 0.41-8.55-0.14l-0.68-3z" fill="#e76da0"/>
 <path d="m51.44 54.24c2.63-5.39 2.63-12.04 6.97-16.56 0.28 2.78 0.17 5.58-0.43 8.31-1.03-0.33-2.06-0.65-3.09-0.98 0.75 1.22 1.51 2.42 2.24 3.65-1.83 1.92-3.74 3.77-5.69 5.58z" fill="#baa936"/>
 <path d="m105.29 40.21c2.29-1.92 5.44-3.08 8.35-1.88 1.69 0.79 1.56 3.43-0.03 4.24-2.22 1.91-5.34 1.06-7.96 0.86-0.12-1.07-0.24-2.15-0.36-3.22z" fill="#144284"/>
 <g fill="#1d3771">
  <path d="m43.57 38.2c1.82 4-2.69 7.42-3.27 11.32 3.85-1.43 6.74-4.67 10.77-5.69-2.94 2.76-6.11 5.27-9.43 7.56-1.22-0.7-2.44-1.38-3.66-2.08 1.67-3.79 3.41-7.57 5.59-11.11z"/>
  <path d="m54.89 45.01c1.03 0.33 2.06 0.65 3.09 0.98 2.77 3.92 4.21 8.64 2.79 13.39-1.05-3.62-1.47-7.52-3.64-10.72-0.73-1.23-1.49-2.43-2.24-3.65z"/>
  <path d="m50.05 59.82c0.74 1.89 1.41 3.8 2.12 5.71 2.41-1.65 4.71-3.46 7.26-4.89-1.38 2.71-3.64 4.79-6.11 6.5-0.29 0.21-0.88 0.63-1.18 0.84-8.17 4.27-16.58 8.14-24.59 12.72-0.19 0.32-0.58 0.97-0.78 1.29 0.39 5.47 5.83 8.36 9.53 11.6 1.57 1.31 2.97 2.8 4.45 4.22 0.07 1.41 0.14 2.82 0.22 4.24-2.95-5.95-9.39-8.55-13.43-13.51-2.14-2.35-1.33-5.62-1.31-8.48 2.29-1.74 4.65-3.39 7.18-4.76 2.15-1.13 4.29-2.26 6.43-3.39 2.94-1.49 5.89-2.95 8.81-4.47 0.44-0.23 1.31-0.69 1.74-0.92-0.17-2.23-0.3-4.46-0.34-6.7z"/>
  <path d="m216.81 88.12l0.81 0.36c1 0.45 2.01 0.89 3.01 1.36 3.21 0.75 2.48 6.24-0.65 6.54-1.73-0.2-3.25-1.12-4.83-1.76 0.05-2.28 0.37-4.57 1.66-6.5z"/>
  <path d="m26.89 118.94c2.36-6.63 9.11-9.9 13.5-15-0.92 2.65-2.68 4.87-4.82 6.65-3.08 2.59-5.79 5.57-8.68 8.35z"/>
  <path d="m237.65 121.99c1.89-7.22 9.52-10.14 13.6-15.86-0.85 3.16-2.94 5.69-5.42 7.72-1.41 1.28-2.8 2.58-4.14 3.93-1.38 1.37-2.67 2.82-4.04 4.21z"/>
  <path d="m26.81 119.83c1.62 2.63 3.62 5.07 6.55 6.27 0.54 0.3 1.6 0.91 2.14 1.21 2.35 1.35 4.37 3.21 5.84 5.5l-0.66 3.15c-1.87-5.94-9.09-6.49-12.63-10.95-1.16-1.46-1-3.44-1.24-5.18z"/>
  <path d="m243.47 133.51c-3.41-2.2-6.74-5.48-6.28-9.91 2.37 4.3 6.3 7.21 10.15 10.07 2.98 2.41 6.13 5.67 5.54 9.86-2.36-3.99-5.51-7.48-9.41-10.02z"/>
  <path d="m251.53 145.09c0.33 0.15 0.99 0.46 1.32 0.62-4.54 4.42-10.73 6.42-15.92 9.94-2.59 1.34-5.27 2.52-7.83 3.93-2.24 0.82-1.06 3.37-1.17 5.11-3.15-0.28-6.37-0.32-9.29 1.07 0.36-0.41 1.09-1.23 1.45-1.64 2.03-0.22 4.06-0.48 6.09-0.75-0.92-1.49-1.84-2.99-2.77-4.47l0.76-0.15c0.56-0.11 1.7-0.32 2.26-0.43 4.34-1.55 8.15-4.23 12.31-6.15 0.58-0.28 1.73-0.83 2.3-1.11 3.68-1.67 7.06-3.87 10.49-5.97z"/>
  <path d="m220.22 181.38c-3.48-3.59-4.77-9.02-2.84-13.7 0.87 3.68 0.92 7.78 3.36 10.88 0.9 1.15 1.85 2.25 2.78 3.38 0.3 0.38 0.92 1.14 1.22 1.52-0.48-0.19-1.43-0.57-1.91-0.76-0.89-0.41-1.76-0.85-2.61-1.32z"/>
  <path d="m237.38 175.85c1.04 0.77 2.11 1.52 3.2 2.24-1.42 3.78-3.42 7.3-5.14 10.95-0.42-0.31-1.24-0.93-1.66-1.24 1.49-3.39 3.29-6.63 4.48-10.14-3.76 1.56-6.53 5.11-10.71 5.65 2.44-2.24 4.94-4.44 7.75-6.21 0.52-0.31 1.56-0.94 2.08-1.25z"/>
 </g>
 <path d="m29.16 46.71c3.18-0.17 6.18 0.91 8.82 2.6 1.22 0.7 2.44 1.38 3.66 2.08 2.28 1.08 3.71 3.21 5.03 5.26-1.49-0.38-2.99-0.78-4.44-1.32-4.09-2.3-8.25-4.53-12.79-5.85-0.07-0.69-0.21-2.07-0.28-2.77z" fill="#ebdd8d"/>
 <path d="m122.43 52.31c0.96-3.64 5.27-3.88 8.28-2.98 0.45 2.14 1.12 4.88-1.16 6.27-2.52 2.37-8.09 0.63-7.12-3.29z" fill="#0abeea"/>
 <path d="m196.28 50c3.3-1.44 7.28 1.03 6.5 4.8 0.48 2.49-2.74 3.51-4.28 1.81-2.37-1.36-2.05-4.29-2.22-6.61z" fill="#07b8e6"/>
 <path d="m77.85 52.96c2.48 0.08 5.52-0.21 7.06 2.2 1.42 1.36 0.38 3.35 0.23 4.99-1.8-0.57-3.68-0.98-5.32-1.95-1.35-1.37-1.39-3.49-1.97-5.24z" fill="#d7d6e0"/>
 <path d="m42.23 55.33c1.45 0.54 2.95 0.94 4.44 1.32l0.76 0.2c-0.12 0.83-0.25 1.67-0.37 2.51-7.92 2-16.2 1.99-24.26 0.87 5.89 0.17 11.83 0.32 17.66-0.59 0.17-0.38 0.52-1.15 0.69-1.53 0.38-0.92 0.74-1.84 1.08-2.78z" fill="#f9eebe"/>
 <path d="m251.08 56.1c2.38-1.53 7.73-0.9 7.08 2.83-0.85 4.01-5.9 3.63-8.74 2.1 0.26-1.71-0.28-4.05 1.66-4.93z" fill="#d31c2a"/>
 <path d="m174.21 58.72c3.33-2.12 7.45-3.64 11.4-2.45 2.74 2.87 2.72 7.56 5.97 10.06 1.96 1.84 5.41 3.27 4.95 6.51-0.95 3.67-5.29 4.42-8.42 5.28 1.11-1.47 2.12-3.01 3.14-4.55-1.8-1.45-3.72-2.79-5.21-4.56-2.13-2.82-2.69-6.51-4.83-9.31-1.97-1.52-4.68-1.09-7-0.98z" fill="#fbf1e3"/>
 <path d="m203.7 62.77c0.12-4.98 5.71-7 9.96-6.14-1.02 4.54-5.69 6.54-9.96 6.14z" fill="#154885"/>
 <path d="m21.62 60.18c0.38-1.66 1.65-2.63 3.35-2.45 5.39-0.12 10.79 0.08 16.18 0.38-0.17 0.38-0.52 1.15-0.69 1.53-5.83 0.91-11.77 0.76-17.66 0.59l-1.18-0.05z" fill="#e0d979"/>
 <path d="m174.21 58.72c2.32-0.11 5.03-0.54 7 0.98 2.14 2.8 2.7 6.49 4.83 9.31 1.49 1.77 3.41 3.11 5.21 4.56-1.02 1.54-2.03 3.08-3.14 4.55-1.83 0.83-3.75 1.39-5.64 2.06 0.34-1.31 0.78-2.6 0.87-3.96-1.46-2.55-4.01-4.28-5.43-6.86-0.72-2.09-0.72-4.33-0.93-6.51-1.4-1.11-2.8-2.22-4.19-3.33 0.35-0.2 1.06-0.6 1.42-0.8z" fill="#fae8c6"/>
 <path d="m132.87 64.77c-1.72-1.83-1.03-3.88 0.63-5.42-0.06 1.82-0.3 3.63-0.63 5.42z" fill="#93b187"/>
 <path d="m165.7 62.34c2.41-0.83 4.79-1.72 7.09-2.82 1.39 1.11 2.79 2.22 4.19 3.33 0.21 2.18 0.21 4.42 0.93 6.51 1.42 2.58 3.97 4.31 5.43 6.86-0.09 1.36-0.53 2.65-0.87 3.96-2.46 0.58-4.92 1.19-7.4 1.7-0.4-2.96-0.61-6.11-2.31-8.67-2.11-3.25-4.88-6.02-6.89-9.33-0.04-0.39-0.13-1.16-0.17-1.54z" fill="#f8d9a5"/>
 <g fill="#e2b24f">
  <path d="m39.84 71.91c2.93-2.98 5.92-5.97 7.81-9.74 0.3 1.76 0.62 3.52 1 5.27-2.92 1.52-5.87 2.98-8.81 4.47z"/>
  <path d="m169.95 184.67c4.64 6.64 8.77 13.63 13.68 20.08 1.74 2.32 3.09 4.9 4.12 7.61-0.42-0.15-1.25-0.46-1.67-0.61-0.6-0.2-1.81-0.61-2.41-0.82-0.09-0.98-0.21-1.96-0.36-2.93-5.06-5.3-10.1-10.64-15.65-15.42l0.07-0.81c0.59-2.41 1.4-4.76 2.22-7.1z"/>
 </g>
 <path d="m162.6 65.68c1.08-0.61 2.17-1.21 3.27-1.8 2.01 3.31 4.78 6.08 6.89 9.33 1.7 2.56 1.91 5.71 2.31 8.67-2.07 1.19-4.02 2.56-5.85 4.08-0.28-0.63-0.56-1.26-0.81-1.89-0.62-2.3-0.75-4.69-0.88-7.06 1.84-0.96 3.58-2.1 5.29-3.27-3.35-1.61-7.02-1.13-10.15 0.75-1.23-1.98-2.38-4.02-3.47-6.08 0.82-0.75 1.65-1.49 2.49-2.22 0.23-0.12 0.68-0.38 0.91-0.51z" fill="#f6c87e"/>
 <path d="m225.23 65.12c1.97 0.25 4.85-0.3 5.56 2.2 1.56 2.11 0.43 6.53-2.78 5.16-3.22-0.93-2.82-4.75-2.78-7.36z" fill="#0abcf7"/>
 <path d="m27.55 80.7c8.01-4.58 16.42-8.45 24.59-12.72 0.07 1.03 0.15 2.07 0.25 3.11-5.16 3.51-9.1 8.53-10.62 14.64 3.69-4.86 8.28-8.94 13.27-12.42 3.25 3.2 5.98 6.87 8.15 10.88 0.05-1.4 0.09-2.81 0.09-4.21 1.22 2.33 2.8 5.39-0.02 7.24-3.67 3.95-7.26 7.98-10.47 12.31-3.48-2.7-6.55-5.87-9.47-9.15-0.5 0.24-1.51 0.73-2.01 0.98-0.34 0.16-1.02 0.46-1.37 0.62-1.42-1.47-2.87-2.91-4.33-4.34 0.24 1.98 0.49 3.96 0.69 5.95-3.7-3.24-9.14-6.13-9.53-11.6 0.2-0.32 0.59-0.97 0.78-1.29m22.74-0.16c-0.48 1.99-1.13 3.99-1.01 6.07 1.21 1.13 3.01 1.06 4.52 1.47 0.09-2.68-0.14-5.35-0.68-7.97-0.71 0.11-2.13 0.32-2.83 0.43z" fill="#fcfbf7"/>
 <path d="m52.14 67.98c0.3-0.21 0.89-0.63 1.18-0.84 0.43 0.49 1.3 1.47 1.73 1.96 0.91 1 1.81 2.01 2.72 3.02 2.13 2.39 4.27 4.87 5.51 7.86 0 1.4-0.04 2.81-0.09 4.21-2.17-4.01-4.9-7.68-8.15-10.88-4.99 3.48-9.58 7.56-13.27 12.42 1.52-6.11 5.46-11.13 10.62-14.64-0.1-1.04-0.18-2.08-0.25-3.11z" fill="#af852c"/>
 <g fill="#fcefd7">
  <path d="m108.49 70.47c1.86-2.27 4.9-1.09 7.2-0.32-4.78 2.68-6.2 8.19-8.34 12.83 0.8 1.46 1.6 2.91 2.39 4.38-2.21-1.53-4.92-3.35-4.82-6.39 0.35-3.69 1.53-7.4 3.57-10.5z"/>
  <path d="m54.34 105.58c1.33 1.24 2.52 2.62 3.74 3.98-2 0.58-4 1.16-5.99 1.77 0.81-1.89 1.59-3.79 2.25-5.75z"/>
 </g>
 <path d="m86.54 72.54c1.56-1.46 3.9-1.6 5.86-1 2.01 1.19 1.48 4.35-0.12 5.67-1.74 1.89-4.5 1.06-6.75 1.18 0.19-1.92-0.94-4.56 1.01-5.85z" fill="#07bde9"/>
 <path d="m107.35 82.98c2.14-4.64 3.56-10.15 8.34-12.83 1.28 0.7 2.57 1.39 3.87 2.07-5.19 3.31-7.11 9.93-5.87 15.76-1.32-0.22-2.64-0.42-3.95-0.62-0.79-1.47-1.59-2.92-2.39-4.38z" fill="#f9ddb0"/>
 <path d="m132.38 70.49c1.38 6.52 1.05 13.29 3.04 19.69-1.81-0.08-3.62-0.17-5.43-0.25-0.41-0.01-1.23-0.05-1.64-0.06-2.49-3.22-5.89-5.5-9.49-7.3 3.68-0.46 7.34-1.06 10.95-1.92 0.44-2.07 0.87-4.14 1.36-6.21 0.32-1.34 0.75-2.65 1.21-3.95z" fill="#c59028"/>
 <path d="m162.67 74.49c3.13-1.88 6.8-2.36 10.15-0.75-1.71 1.17-3.45 2.31-5.29 3.27-5.04 2.14-10.14 4.17-15.17 6.34-1.5 0.24-3 0.38-4.51 0.54 1.09-1.01 2.18-2.03 3.33-2.97 3.69-2.39 7.59-4.42 11.49-6.43z" fill="#bb8724"/>
 <path d="m230.83 75.17c0.42-2.7 3.09-3.27 5.36-3.64 0.16 1.84 0.96 3.84 0.03 5.61-0.79 1.26-2.15 2-3.23 2.98-0.95-1.54-3.29-2.9-2.16-4.95z" fill="#e9a73d"/>
 <path d="m113.69 87.98c-1.24-5.83 0.68-12.45 5.87-15.76 1.79 1.17 3.58 2.34 5.38 3.51-2.52 1.81-5.38 3.62-6.58 6.63-1.02 2.72-0.98 5.68-1.17 8.53 3.75-0.04 7.45-0.54 11.16-1.02 0.41 0.01 1.23 0.05 1.64 0.06 1.56 0.44 3.1 0.94 4.64 1.44-0.03 1.29-0.05 2.59-0.07 3.88-1.88 1.47-3.72 2.99-5.44 4.64 0.36-3.13 0.22-6.3-0.61-9.34-3.14 0.57-6.25 1.5-9.46 1.51-2.28-0.5-3.96-2.33-5.36-4.08z" fill="#f4ce84"/>
 <path d="m24.82 74.02c2.91 0.08 5.82 0.35 8.59 1.28-2.53 1.37-4.89 3.02-7.18 4.76-1.43-1.75-2.16-3.82-1.41-6.04z" fill="#f2e884"/>
 <path d="m126.35 77.14c1.58-0.94 3.19-1.84 4.82-2.7-0.49 2.07-0.92 4.14-1.36 6.21-1.15-1.18-2.3-2.35-3.46-3.51z" fill="#b4552b"/>
 <path d="m118.36 82.36c1.2-3.01 4.06-4.82 6.58-6.63 0.35 0.35 1.06 1.05 1.41 1.41 1.16 1.16 2.31 2.33 3.46 3.51-3.61 0.86-7.27 1.46-10.95 1.92 3.6 1.8 7 4.08 9.49 7.3-3.71 0.48-7.41 0.98-11.16 1.02 0.19-2.85 0.15-5.81 1.17-8.53z" fill="#eeb448"/>
 <path d="m152.36 83.35c5.03-2.17 10.13-4.2 15.17-6.34 0.13 2.37 0.26 4.76 0.88 7.06-3.07 1.25-6.17 2.42-9.34 3.38-2.43-1.02-4.72-2.36-6.71-4.1z" fill="#f0b657"/>
 <path d="m69.15 77.89c2.03-0.1 4.36-0.61 5.94 1.04 2.1 1.18 1.57 3.7 1.69 5.7-1.96 0.33-4.18 1.02-5.77-0.63-2.33-1.18-1.79-3.96-1.86-6.11z" fill="#e41f28"/>
 <path d="m50.29 80.54c0.7-0.11 2.12-0.32 2.83-0.43 0.54 2.62 0.77 5.29 0.68 7.97-1.51-0.41-3.31-0.34-4.52-1.47-0.12-2.08 0.53-4.08 1.01-6.07z" fill="#f7e879"/>
 <path d="m144.45 82.43c0.52-0.93 1.06-1.83 1.64-2.72 1.7 0.39 3.39 0.8 5.09 1.21-1.15 0.94-2.24 1.96-3.33 2.97 1.51-0.16 3.01-0.3 4.51-0.54 1.99 1.74 4.28 3.08 6.71 4.1-3.42 0.88-6.88 1.61-10.32 2.43 1.15 0.86 2.3 1.72 3.47 2.55-0.39-0.02-1.18-0.06-1.58-0.09-3.3-1.19-6.81-2.51-10.33-1.38 2.46-2.22 3.11-5.54 4.14-8.53z" fill="#d5a436"/>
 <path d="m217.62 88.48c4.36-3.16 9.34-5.32 14.65-6.26-0.14 1.1-0.29 2.2-0.44 3.3-3.91 0.91-7.93 1.87-11.2 4.32-1-0.47-2.01-0.91-3.01-1.36z" fill="#9b1c29"/>
 <path d="m168.41 84.07c0.25 0.63 0.53 1.26 0.81 1.89 0.57 1.26 1.13 2.53 1.58 3.84 0.31 0.98 0.58 1.96 0.82 2.96 1.1 5.11 2.63 10.13 3.35 15.33-0.59-0.76-1.18-1.51-1.76-2.26-4.93-7-12.59-11.82-20.99-13.4-1.17-0.83-2.32-1.69-3.47-2.55 3.44-0.82 6.9-1.55 10.32-2.43 3.17-0.96 6.27-2.13 9.34-3.38z" fill="#739c04"/>
 <path d="m170.8 89.8c1.07-1.42 1.76-3.27 3.36-4.21 1.76-0.52 3.37 0.78 5.01 1.23-0.85 2.64-1.95 5.18-3.16 7.66-1.45-0.63-2.92-1.19-4.39-1.72-0.24-1-0.51-1.98-0.82-2.96z" fill="#104091"/>
 <path d="m52.79 99.53c3.21-4.33 6.8-8.36 10.47-12.31-1.62 5.54-5.85 9.57-9.27 14-0.83 1.16-1.63 2.34-2.42 3.53-1.19-0.03-2.38-0.03-3.56 0.01 1.14-0.87 2.18-1.87 3.09-2.99 0.57-0.74 1.14-1.49 1.69-2.24z" fill="#af6360"/>
 <path d="m179.17 86.82c2.36 0.73 4.19 2.27 4.71 4.8-1.31 1.02-2.58 2.09-3.93 3.06-1.29 0.48-2.65 0.01-3.94-0.2 1.21-2.48 2.31-5.02 3.16-7.66z" fill="#10baea"/>
 <g fill="#f1d983">
  <path d="m35.61 87.64c1.46 1.43 2.91 2.87 4.33 4.34 2.8 2.82 5.54 6.11 5.87 10.24-1.72-1.43-3.43-2.88-5.06-4.41-1.48-1.42-2.88-2.91-4.45-4.22-0.2-1.99-0.45-3.97-0.69-5.95z"/>
  <path d="m47.05 146.32c4.83-0.9 9.72-1.64 14.65-1.54-0.03 1.82-0.04 3.64-0.06 5.46l-0.97-0.06c-4.23-0.33-8.47-0.7-12.7-0.99-0.32-0.95-0.63-1.91-0.92-2.87z"/>
  <path d="m220.74 178.56c2.08-2.64 4.37-5.17 7.25-6.97-1.4 3.49-3.13 6.84-4.47 10.35-0.93-1.13-1.88-2.23-2.78-3.38z"/>
 </g>
 <path d="m236.01 89.5c2.19-0.02 4.39-0.35 6.57-0.09 1.98 1.45 1.53 4.19 2.65 6.11 1.63 1.46 3.6 2.53 5.07 4.17 0.97 1.65 1.3 3.58 1.89 5.39-2.16-2.37-4.32-4.81-7.1-6.46-0.5-0.22-1.5-0.64-2-0.85-1.7-0.87-4.28-0.77-5.02-2.85-0.85-1.74-1.41-3.6-2.06-5.42z" fill="#164886"/>
 <path d="m41.31 91.36c0.5-0.25 1.51-0.74 2.01-0.98 2.92 3.28 5.99 6.45 9.47 9.15-0.55 0.75-1.12 1.5-1.69 2.24-3.59-3.15-6.7-6.78-9.79-10.41z" fill="#dfc387"/>
 <path d="m140.31 90.96c3.52-1.13 7.03 0.19 10.33 1.38 6.07 4.45 12.6 8.46 17.27 14.52 1.46 1.68 2.39 3.72 3.29 5.74-2.19-1.39-4.44-2.68-6.69-3.96-1.73 1.15-3.58 2.31-5.73 2.45-8.79 0.91-17.51-2.87-26.27-0.89-3.38 0.86-7.64 0.48-9.84 3.74 0.14-0.64 0.43-1.91 0.58-2.55 0.85-4.3 2.37-8.63 5.87-11.5 1.72-1.65 3.56-3.17 5.44-4.64 1.89-1.46 3.82-2.87 5.75-4.29z" fill="#6c9501"/>
 <path d="m128.51 90.55c0.83 3.04 0.97 6.21 0.61 9.34-3.5 2.87-5.02 7.2-5.87 11.5-0.94-3.03-2.06-6.18-1.49-9.39 0.68-4.54 3.86-8.1 6.75-11.45z" fill="#f6e3b6"/>
 <path d="m183.88 91.62c1.89-2.17 4.64-0.4 6.76 0.32-0.16 2.42-0.77 5.9-3.9 5.84-2.81 0.72-4.86-1.48-6.79-3.1 1.35-0.97 2.62-2.04 3.93-3.06z" fill="#e9af44"/>
 <path d="m39.94 91.98c0.35-0.16 1.03-0.46 1.37-0.62 3.09 3.63 6.2 7.26 9.79 10.41-0.91 1.12-1.95 2.12-3.09 2.99-0.49 0.02-1.46 0.07-1.94 0.09-0.06-0.88-0.15-1.76-0.26-2.63-0.33-4.13-3.07-7.42-5.87-10.24z" fill="#fdfde6"/>
 <path d="m150.64 92.34c0.4 0.03 1.19 0.07 1.58 0.09 8.4 1.58 16.06 6.4 20.99 13.4-1.46-0.73-2.9-1.48-4.33-2.25-0.32 1.09-0.65 2.18-0.97 3.28-4.67-6.06-11.2-10.07-17.27-14.52z" fill="#f1efae"/>
 <path d="m214.94 100.85c-1.59-0.44-1.9-3.83-0.17-4.28 1.27 0.39 1.36 2.17 0.8 3.17-0.15 0.28-0.47 0.83-0.63 1.11z" fill="#b499a6"/>
 <path d="m74.09 97.28c0.73 0.01 2.19 0.04 2.92 0.05 1.3 2.62 1.29 7.66-2.7 7.42-2.53-1.88-1.34-5.16-0.22-7.47z" fill="#cf2433"/>
 <path d="m219.92 98.13c3.28 1.72 6.37 3.95 10.07 4.7 1.96 0.32 3.57 1.42 4.98 2.78-3.25 4.18-8.1-0.31-11.25-2.33-1.89-1.19-3.07-3.08-3.8-5.15z" fill="#c49b47"/>
 <path d="m234.97 105.61c2.66-2.66 5.21-5.45 8.12-7.84 0.5 0.21 1.5 0.63 2 0.85-3.18 4.3-6.39 8.59-9.79 12.72-1.7 2.2-4.37 3.17-6.86 4.14 0.46-1.55 0.32-3.17-0.94-4.29 1.27-0.27 2.55-0.53 3.82-0.8 0.16-0.49 0.48-1.47 0.63-1.96-2.28-0.44-4.87-0.23-6.89-1.51-0.55-1.17-0.92-2.42-1.34-3.64 3.15 2.02 8 6.51 11.25 2.33z" fill="#e2c864"/>
 <path d="m235.3 111.34c3.4-4.13 6.61-8.42 9.79-12.72 2.78 1.65 4.94 4.09 7.1 6.46-0.24 0.26-0.7 0.79-0.94 1.05-4.08 5.72-11.71 8.64-13.6 15.86-0.11 0.4-0.34 1.21-0.46 1.61-0.46 4.43 2.87 7.71 6.28 9.91 3.9 2.54 7.05 6.03 9.41 10.02 0.17 0.63 0.52 1.88 0.69 2.51l-0.72-0.33c-0.33-0.16-0.99-0.47-1.32-0.62-1.3-1.1-2.55-2.25-3.8-3.39-3.85 1.34-7.7 2.68-11.49 4.2 0.76 2.11 1.6 4.2 2.5 6.27-4.16 1.92-7.97 4.6-12.31 6.15-0.53-0.88-1.08-1.74-1.64-2.6 4.24-2.6 8.5-5.84 9.58-11.01-4.18 2.4-7.69 5.73-11.38 8.79-3.72-3.71-7.19-7.79-9.05-12.78-0.65-1.85 0.38-3.46 1.82-4.55 2.48-2.2 4.66-4.71 6.87-7.19 1.12 1.12 2.23 2.25 3.36 3.36 1.24-0.53 2.49-1.06 3.74-1.6 2.08 1.89 4.26 3.67 6.51 5.36-1.5-3.23-3.27-6.33-5.14-9.36-3.16-4.32-8.53-6.3-11.71-10.67 2.17-0.42 4.31-0.94 6.46-1.43 0.72 1.06 1.42 2.14 2.13 3.22 0.11-0.59 0.34-1.79 0.46-2.38 2.49-0.97 5.16-1.94 6.86-4.14m-3.49 12.46c2.11 5.82 6.69 10.25 11.32 14.15-2.77-5.39-6.52-10.4-11.32-14.15m-11.68 19.25c2 2.43 5.17 3.28 8.13 2.23 1.77-0.99 1.47-3.19 1.65-4.9-1.64-0.3-3.28-0.67-4.94-0.73-2.36-0.47-3.37 2.11-4.84 3.4z" fill="#fbfcf6"/>
 <path d="m214.94 100.85c0.16-0.28 0.48-0.83 0.63-1.11 3.57 4.24 8.26 7.32 11.93 11.45 1.26 1.12 1.4 2.74 0.94 4.29-0.12 0.59-0.35 1.79-0.46 2.38-0.71-1.08-1.41-2.16-2.13-3.22-0.77-1.12-1.57-2.22-2.44-3.28-2.69-3.45-8.79-5.54-8.47-10.51z" fill="#aa4641"/>
 <path d="m51.57 104.75c0.79-1.19 1.59-2.37 2.42-3.53 2.69 2.66 5.39 5.29 8.02 8.01-0.19 1.05-0.37 2.1-0.55 3.15-2.52 0.46-5.04 0.91-7.57 1.32-0.62-0.77-1.21-1.57-1.8-2.37 1.99-0.61 3.99-1.19 5.99-1.77-1.22-1.36-2.41-2.74-3.74-3.98-0.7-0.21-2.08-0.62-2.77-0.83z" fill="#d4b846"/>
 <path d="m90.81 103.85c1.7-1.82 4.33-2.54 6.76-2.37 2.72 1.31 1.87 4.54 1.91 6.95-2.38 0.42-4.88 1.23-7.25 0.29-2.38-0.14-2.21-3.29-1.42-4.87z" fill="#fae77f"/>
 <path d="m46.07 104.85c0.48-0.02 1.45-0.07 1.94-0.09 1.18-0.04 2.37-0.04 3.56-0.01 0.69 0.21 2.07 0.62 2.77 0.83-0.66 1.96-1.44 3.86-2.25 5.75 0.59 0.8 1.18 1.6 1.8 2.37 3.14 3.92 9.1 6.31 8.82 12.17l-1.01-0.9c-1.5-1.63-3.38-2.79-5.54-3.28-1.44-0.46-2.87-0.95-4.26-1.51-0.21-2.12-0.36-4.27-1-6.31-1.01-2.14-2.13-4.22-3.16-6.34-0.64 0.85-1.28 1.71-1.93 2.57-1.01-1.74-1.05-3.65 0.26-5.25z" fill="#d71a29"/>
 <g fill="#d2c05a">
  <path d="m45.81 110.1c0.65-0.86 1.29-1.72 1.93-2.57 1.03 2.12 2.15 4.2 3.16 6.34-1.51 0.17-3.01 0.34-4.51 0.51-0.25 0.97-0.49 1.94-0.74 2.92-0.28 0.11-0.85 0.34-1.13 0.46-0.11 0.51-0.21 1.03-0.32 1.55-3.52 1.91-6.35 4.79-8.7 8-0.54-0.3-1.6-0.91-2.14-1.21 1.64-4.29 5.46-7.03 8.18-10.56 1.42-1.82 2.87-3.62 4.27-5.44z"/>
  <path d="m231.81 123.8c4.8 3.75 8.55 8.76 11.32 14.15-4.63-3.9-9.21-8.33-11.32-14.15z"/>
  <path d="m228.44 129.52c0.89-0.93 1.77-1.85 2.66-2.78 1.87 3.03 3.64 6.13 5.14 9.36-2.25-1.69-4.43-3.47-6.51-5.36-0.33-0.31-0.97-0.91-1.29-1.22z"/>
  <path d="m114.37 239.28c0.26-2.18 0.55-4.35 0.91-6.51 0.22 1.41 0.41 2.81 0.58 4.23-0.37 0.57-1.12 1.71-1.49 2.28z"/>
 </g>
 <path d="m106.34 108.87c2.98-1.44 5.96 0.44 8.47 1.95-0.45 1.37-0.9 2.74-1.34 4.11-2.94-1.03-7-2.33-7.13-6.06z" fill="#c8242b"/>
 <path d="m164.51 108.64c2.25 1.28 4.5 2.57 6.69 3.96 2.71 4.32 2.26 9.65 1.97 14.52l-0.6 0.24c-3.02 0.82-5.15 3.12-6.98 5.52-1.49-1.06-2.98-2.12-4.47-3.17-7.9 3.7-16.78 2.02-25.19 2.33-5.56 0.24-10.77-1.84-15.82-3.89l0.14-0.89c0.86-4.43 0.33-9.18 2.42-13.32 2.2-3.26 6.46-2.88 9.84-3.74 8.76-1.98 17.48 1.8 26.27 0.89 2.15-0.14 4-1.3 5.73-2.45z" fill="#658801"/>
 <path d="m223.41 111.36c0.87 1.06 1.67 2.16 2.44 3.28-2.15 0.49-4.29 1.01-6.46 1.43-1.31 0.19-2.64 0.27-3.96 0.35l-0.75 0.04c0.57-1.27 1.09-2.56 1.83-3.74 2.25-0.67 4.6-0.93 6.9-1.36z" fill="#e5bc56"/>
 <path d="m77.53 112.4c2.84-0.23 5.72 0.1 7.96 2.06-0.88 1.61-1.61 3.3-2.25 5.03-2.47-0.65-4.89-1.45-7.22-2.49 0.5-1.53 1-3.07 1.51-4.6z" fill="#fae876"/>
 <path d="m46.39 114.38c1.5-0.17 3-0.34 4.51-0.51 0.64 2.04 0.79 4.19 1 6.31-2.11-0.9-4.18-1.9-6.25-2.88 0.25-0.98 0.49-1.95 0.74-2.92z" fill="#fff5f1"/>
 <path d="m85.49 114.46c0.43-0.23 1.3-0.68 1.73-0.9 0.75 3.38-0.04 8.42-4.62 7.77l0.64-1.84c0.64-1.73 1.37-3.42 2.25-5.03z" fill="#66c1b4"/>
 <path d="m103.08 116.28c0.94-1.74 3.07-1.48 4.72-1.5-0.3 2.11 0.82 5.42-1.9 6.3-2.69 1.01-4.31-2.97-2.82-4.8z" fill="#e5ac49"/>
 <path d="m215.43 116.42c1.32-0.08 2.65-0.16 3.96-0.35 3.18 4.37 8.55 6.35 11.71 10.67-0.89 0.93-1.77 1.85-2.66 2.78-1.62-1.61-2.66-3.65-3.33-5.81-0.56 0.69-1.12 1.37-1.69 2.04-1.64-3.88-5.15-6.39-7.99-9.33z" fill="#9e886d"/>
 <path d="m44.52 117.76c0.28-0.12 0.85-0.35 1.13-0.46 2.07 0.98 4.14 1.98 6.25 2.88 1.39 0.56 2.82 1.05 4.26 1.51 0.21 1.52 0.43 3.05 0.65 4.57-4.28-2.18-8.54-4.4-12.61-6.95 0.11-0.52 0.21-1.04 0.32-1.55z" fill="#c59e6a"/>
 <path d="m65.28 119.74c2.44-2.45 5.9-2.96 9.16-2.12 0.09 1.08 0.65 2.58-0.41 3.36-1.98 2.05-5.05 1.37-7.6 1.61-0.29-0.71-0.86-2.13-1.15-2.85z" fill="#09bbe9"/>
 <path d="m20.16 120.27c1.11 0.12 2.22 0.23 3.33 0.35 0.22 1.9 0.64 3.89-0.09 5.75-0.85 0.92-2.11 1.26-3.18 1.85-1.54-2.57-1.66-5.38-0.06-7.95z" fill="#e11a35"/>
 <path d="m35.5 127.31c2.35-3.21 5.18-6.09 8.7-8 4.07 2.55 8.33 4.77 12.61 6.95-0.22-1.52-0.44-3.05-0.65-4.57 2.16 0.49 4.04 1.65 5.54 3.28 1.02 2.35 1.64 4.85 2.42 7.29-0.61 0.09-1.82 0.26-2.42 0.35 0.13-0.42 0.4-1.27 0.54-1.69-0.98 0.71-1.94 1.45-2.9 2.18-2.53-0.1-5.06-0.21-7.6-0.31-0.06-1.34-0.14-2.68-0.22-4.01-2.57 0.26-4.59 1.66-5.64 4.04-1.1 0.58-2.18 1.2-3.26 1.82-0.32-0.46-0.96-1.37-1.28-1.83-1.47-2.29-3.49-4.15-5.84-5.5z" fill="#fafcf8"/>
 <path d="m183.7 122.13c1.84-2.11 5.43-2.09 7.54-0.4 1.21 1.18 0.77 3.07 1.08 4.58-1.42 0.36-2.82 0.82-4.23 1.2-3.08 0.81-5.78-2.53-4.39-5.38z" fill="#d61c22"/>
 <path d="m112.99 154.83c2.3-10.73-1.18-21.74 1.66-32.37 0.94 1.62 1.88 3.24 2.81 4.88 0.93-0.03 1.86-0.06 2.79-0.08l-0.14 0.89c-0.39 2.52-0.87 5.03-1.26 7.55-1.38 1.3-3.43 2.32-3.73 4.38-0.77 4.67-0.26 9.43-0.25 14.14 1.82 0 3.64 0 5.46-0.01-0.12-2.09-0.23-4.19-0.48-6.27 7.54 2.68 15.33 5.52 23.5 4.6 1.2 1.82 2.64 3.91 1.93 6.22-1.42 5.42-4.86 9.99-7.8 14.66-3.59 5.66-8.23 10.53-12.48 15.68 1.05-3.06 1.9-6.18 2.93-9.24 1.22-2.53 2.46-5.04 3.64-7.59-1.43-0.02-2.86-0.03-4.28-0.02-1.69-0.03-3.37-0.1-5.06-0.12-2.2-1.67-4.41-3.63-7.22-4.12-3.82-0.6-7.71-0.16-11.56-0.19-5.38-0.26-10.82-0.13-16.06 1.31 0.71 1.64 1.42 3.28 2.22 4.88 2.13 4.05 4.08 8.19 5.94 12.37-1.33 1.31-2.66 2.63-3.94 3.99-1.89-5.02-3.72-10.1-6.68-14.6-0.89-1.51-1.75-3.03-2.51-4.6-0.8-2.03-1.5-4.09-2.35-6.09-1.06-2.39-2.46-4.61-3.8-6.85 3.78-1.37 7.84-1.99 11.49-3.69 1.36-1.55 2.24-3.44 3.27-5.2-0.68 0.01-2.05 0.02-2.73 0.03-4.37-0.18-8.72-0.55-13.09-0.82 0.01-0.49 0.01-1.46 0.02-1.95 2.69-0.44 5.37-0.9 8.05-1.39-7.2 0.29-14.4 0.23-21.58-0.43-4.93-0.1-9.82 0.64-14.65 1.54 0.29 0.96 0.6 1.92 0.92 2.87 1.85 4.97 4.61 9.53 6.43 14.51 0.05 3.79-0.08 7.6 0.45 11.37-4.57-8.11-7.7-16.96-11.6-25.41-1.64-2.7-0.71-5.71 1.16-7.97 0.34-0.01 1.04-0.03 1.38-0.03 4.65-0.14 8.91-2.31 12.82-4.65 4.62 1.63 9.5 2.32 14.39 2.16 8.05-0.21 16.16-0.09 24.16-1.19l-0.84 1.6c-7.9 2.88-16.61 0.38-24.6 2.76 3.82 0.49 7.68 0.38 11.51 0.73 2.9 0.28 5.49 1.84 8.37 2.21 2.7-1.53 5.43-3.31 8.71-2.72-0.68 1.81-1.39 3.62-2.07 5.43-1.58-0.29-3.17-0.57-4.75-0.87 1.56 2.6 3.12 5.52 1.59 8.52-4.83 0.33-9.63 1.31-13.99 3.48 3.53 1.68 7.41 2.55 11.32 2.32 9.21-0.4 18.4 0.93 27.61 0.48 6.93-0.31 14.11-0.01 20.65-2.75-8.37-4.96-18.46-3.09-27.68-4.34z" fill="#f6f3f3"/>
 <path d="m223.42 125.75c0.57-0.67 1.13-1.35 1.69-2.04 0.67 2.16 1.71 4.2 3.33 5.81 0.32 0.31 0.96 0.91 1.29 1.22-1.25 0.54-2.5 1.07-3.74 1.6-1.13-1.11-2.24-2.24-3.36-3.36-2.21 2.48-4.39 4.99-6.87 7.19 1.6-4.09 4.82-7.18 7.66-10.42z" fill="#0d56a4"/>
 <path d="m203.39 125.22c2.25-1.25 5.38 0.01 5.26 2.81 0.63 3.7-4.81 6.6-7.13 3.44-0.5-2.21-0.17-4.89 1.87-6.25z" fill="#103f90"/>
 <path d="m188.09 127.51c1.41-0.38 2.81-0.84 4.23-1.2 3.54-0.99 7.03 4.43 3.74 6.78-2 0.84-4.91 1.12-6.45-0.73-1.27-1.28-1.15-3.21-1.52-4.85z" fill="#0cbbe9"/>
 <path d="m105.47 127.29c1.35-0.11 2.77-0.43 4.05 0.2 0.46 1.94 0.55 4.42-1.15 5.81-1.17 0.31-2.35 0.57-3.54 0.76-0.17-2.28 0.13-4.55 0.64-6.77z" fill="#14bbdf"/>
 <path d="m165.59 132.88c1.83-2.4 3.96-4.7 6.98-5.52-0.97 5.54-3.37 10.67-5.97 15.61-1.62 3.27-3.29 6.58-5.77 9.3-5.83-0.28-11.66 0.04-17.48 0.27-8.17 0.92-15.96-1.92-23.5-4.6-0.81-4.03-1.55-8.13-1-12.24 0.39-2.52 0.87-5.03 1.26-7.55 5.05 2.05 10.26 4.13 15.82 3.89 8.41-0.31 17.29 1.37 25.19-2.33 1.49 1.05 2.98 2.11 4.47 3.17z" fill="#5d7902"/>
 <path d="m45.88 132.82c1.05-2.38 3.07-3.78 5.64-4.04 0.08 1.33 0.16 2.67 0.22 4.01-1.95-0.07-3.91-0.08-5.86 0.03z" fill="#1fb2da"/>
 <path d="m59.34 133.1c0.96-0.73 1.92-1.47 2.9-2.18-0.14 0.42-0.41 1.27-0.54 1.69-0.87 1.57-1.94 3.03-3.09 4.4-3.91 2.34-8.17 4.51-12.82 4.65 0.02-0.64 0.06-1.92 0.07-2.56 4.75-1.34 9.6-2.83 13.48-6z" fill="#9a3a41"/>
 <path d="m51.74 132.79c2.54 0.1 5.07 0.21 7.6 0.31-3.88 3.17-8.73 4.66-13.48 6-0.01 0.64-0.05 1.92-0.07 2.56-0.34 0-1.04 0.02-1.38 0.03 0.01-0.86 0.04-2.58 0.06-3.44-1.35-0.35-2.7-0.7-4.05-1.06 0.06-0.31 0.2-0.93 0.26-1.23l0.66-3.15c0.32 0.46 0.96 1.37 1.28 1.83 1.08-0.62 2.16-1.24 3.26-1.82 1.95-0.11 3.91-0.1 5.86-0.03z" fill="#d8e1e7"/>
 <path d="m64.12 132.26c6.61-1.14 13.25 0.44 19.87 0.55 5.4 0.4 11.72-0.07 15.73 4.3-0.64 0.22-1.92 0.65-2.56 0.87-8 1.1-16.11 0.98-24.16 1.19-4.89 0.16-9.77-0.53-14.39-2.16 1.15-1.37 2.22-2.83 3.09-4.4 0.6-0.09 1.81-0.26 2.42-0.35z" fill="#dcdee9"/>
 <path d="m103.78 135.11c1.37 0.42 2.74 0.83 4.11 1.25l-0.3 4.2c-1.87 0.09-3.74 0.16-5.61 0.23 0.6-1.89 1.21-3.78 1.8-5.68z" fill="#f9e68c"/>
 <path d="m115.12 140.08c0.3-2.06 2.35-3.08 3.73-4.38-0.55 4.11 0.19 8.21 1 12.24 0.25 2.08 0.36 4.18 0.48 6.27-1.82 0.01-3.64 0.01-5.46 0.01-0.01-4.71-0.52-9.47 0.25-14.14z" fill="#f2d89f"/>
 <path d="m178.12 139.91c0.63-1.43 1.29-2.84 2-4.23 1.24 9.69 2.07 19.45 2.27 29.22-4.52-1.74-9.19-3.11-14.02-3.63-0.15-0.55-0.43-1.64-0.57-2.19l0.11-0.68c3.53-6.09 7.51-11.96 10.21-18.49z" fill="#566f04"/>
 <path d="m168.42 147.11c3.23-2.4 6.33-4.99 9.7-7.2-2.7 6.53-6.68 12.4-10.21 18.49-3.07 0.55-6.17 0.97-9.28 1.28 0.77-2.46 1.45-4.95 2.2-7.41 2.48-2.72 4.15-6.03 5.77-9.3 0.6 1.38 1.21 2.76 1.82 4.14z" fill="#f9e7c5"/>
 <path d="m220.13 143.05c1.47-1.29 2.48-3.87 4.84-3.4 1.66 0.06 3.3 0.43 4.94 0.73-0.18 1.71 0.12 3.91-1.65 4.9-2.96 1.05-6.13 0.2-8.13-2.23z" fill="#09bbea"/>
 <path d="m213.94 140.72c1.86 4.99 5.33 9.07 9.05 12.78 0.62 0.72 1.22 1.46 1.8 2.22 0.56 0.86 1.11 1.72 1.64 2.6-0.56 0.11-1.7 0.32-2.26 0.43-1.39-1.3-2.79-2.59-4.12-3.94-0.92-0.95-1.76-1.95-2.53-3.02-0.92-1.3-1.77-2.64-2.53-4.04-0.85-2.24-0.85-4.68-1.05-7.03z" fill="#a44443"/>
 <g fill="#f2cb5f">
  <path d="m236.24 145.9c3.79-1.52 7.64-2.86 11.49-4.2 1.25 1.14 2.5 2.29 3.8 3.39-3.43 2.1-6.81 4.3-10.49 5.97 0.12-1.27 0.25-2.53 0.37-3.8-1.73-0.45-3.45-0.91-5.17-1.36z"/>
  <path d="m229.1 159.58c2.56-1.41 5.24-2.59 7.83-3.93-1.78 2.72-3.93 5.16-5.99 7.65-0.61-1.24-1.22-2.49-1.84-3.72z"/>
 </g>
 <path d="m100.31 142.56c2.34 0.17 6.01 0.32 6.09 3.47-1.43 3.33-5.46 2.93-8.41 2.65l0.25-0.69c0.68-1.81 1.39-3.62 2.07-5.43z" fill="#da1f24"/>
 <path d="m61.7 144.78c7.18 0.66 14.38 0.72 21.58 0.43-2.68 0.49-5.36 0.95-8.05 1.39-0.01 0.49-0.01 1.46-0.02 1.95 4.37 0.27 8.72 0.64 13.09 0.82-1.7 0.17-3.38 0.42-5.07 0.62-7.18 0.49-14.39 0.6-21.59 0.25 0.02-1.82 0.03-3.64 0.06-5.46z" fill="#f6e8af"/>
 <path d="m19.83 151.77c-0.78-2.88 0.12-5.62 2.18-7.73 3.49 1.56 2.51 5.22 1.06 7.89l-3.24-0.16z" fill="#0c3f86"/>
 <path d="m222.99 153.5c3.69-3.06 7.2-6.39 11.38-8.79-1.08 5.17-5.34 8.41-9.58 11.01-0.58-0.76-1.18-1.5-1.8-2.22z" fill="#aa8933"/>
 <path d="m236.24 145.9c1.72 0.45 3.44 0.91 5.17 1.36-0.12 1.27-0.25 2.53-0.37 3.8-0.57 0.28-1.72 0.83-2.3 1.11-0.9-2.07-1.74-4.16-2.5-6.27z" fill="#ee8233"/>
 <path d="m201.72 149c1.73-0.59 3.44-1.35 5.28-1.54 2.11-0.21 3.65 1.5 5.26 2.58-0.27 0.26-0.82 0.76-1.09 1.02-2.88 2.81-7.94 1.63-9.45-2.06z" fill="#f8eb70"/>
 <path d="m212.26 150.04c0.87-0.8 1.8-1.54 2.73-2.29 0.76 1.4 1.61 2.74 2.53 4.04-0.63 1.29-1.22 2.61-2.02 3.81-1.4 0.24-2.82 0.27-4.23 0.37-0.07-1.64-0.15-3.28-0.1-4.91 0.27-0.26 0.82-0.76 1.09-1.02z" fill="#09bbe7"/>
 <path d="m47.97 149.19c4.23 0.29 8.47 0.66 12.7 0.99 7.5 0.6 15.09 0.92 22.56-0.19 1.69-0.2 3.37-0.45 5.07-0.62 0.68-0.01 2.05-0.02 2.73-0.03-1.03 1.76-1.91 3.65-3.27 5.2-3.65 1.7-7.71 2.32-11.49 3.69 1.34 2.24 2.74 4.46 3.8 6.85 0.72 3.07 0.34 6.24-0.69 9.19-2.65 0.4-5.3 0.79-7.95 1.15 0.57-1.45 1.15-2.9 1.68-4.36 0.62-1.78 1.12-3.6 1.63-5.42-2.48-0.12-4.97-0.19-7.45-0.23 0.55 2.23 1.13 4.46 1.76 6.68-2.23 1.49-4.96 3.28-7.72 2.02-2.63-1.93-4.09-5.02-5.79-7.73-0.38-0.89-0.76-1.78-1.14-2.68-1.82-4.98-4.58-9.54-6.43-14.51m15.74 11.67c1 2.08 2.66 3.63 5.09 3.62l1.2-3.87c-2.09-0.54-4.24-0.45-6.29 0.25z" fill="#eec707"/>
 <g fill="#98740c">
  <path d="m60.67 150.18l0.97 0.06c7.2 0.35 14.41 0.24 21.59-0.25-7.47 1.11-15.06 0.79-22.56 0.19z"/>
  <path d="m194.56 241.89c1.5 1.92 2.85 4.72 5.68 4.71 4.28 0.67 7.39-2.81 10.98-4.4 2.76-0.3 5.42 0.77 8.04 1.48-1.85 1.55-3.83 3.02-6.11 3.88-1.21 0.4-2.42 0.8-3.63 1.17-5.5 2.03-11.62 0.26-15.24-4.31 0.07-0.63 0.21-1.9 0.28-2.53z"/>
 </g>
 <path d="m143.35 152.54c5.82-0.23 11.65-0.55 17.48-0.27-0.75 2.46-1.43 4.95-2.2 7.41-0.33 1.02-0.66 2.04-1 3.07-2.88 6.42-2.37 13.55-3.08 20.38-2.05-2.42-4.33-4.63-6.82-6.59-0.29 3.36-0.52 6.73-0.74 10.1-2.42-0.21-4.83-0.43-7.24-0.65 0.39 1.89 0.77 3.79 1.15 5.68-4.34 3.23-8.28 7.02-11.2 11.61-0.99-0.58-1.98-1.16-2.97-1.73-0.42 3.41-0.82 6.83-1.25 10.24-0.92 0.03-1.85 0.06-2.77 0.09 0.17-3.38-0.4-6.72-0.51-10.09 0.27-3.13 1.18-6.16 1.59-9.27 0.39-1.15 0.79-2.29 1.21-3.42 4.25-5.15 8.89-10.02 12.48-15.68 2.94-4.67 6.38-9.24 7.8-14.66 0.71-2.31-0.73-4.4-1.93-6.22z" fill="#e0e3ed"/>
 <g fill="#dcdfea">
  <path d="m95.08 155.64c5.95-0.6 11.92-1.22 17.91-0.81 9.22 1.25 19.31-0.62 27.68 4.34-6.54 2.74-13.72 2.44-20.65 2.75-9.21 0.45-18.4-0.88-27.61-0.48-3.91 0.23-7.79-0.64-11.32-2.32 4.36-2.17 9.16-3.15 13.99-3.48z"/>
  <path d="m82.06 243.58c0.79-0.33 2.38-0.97 3.17-1.29 3.43 1.27 6.77 2.89 9.4 5.51-3.77 2.29-7.71 4.47-12.08 5.37-0.8-3.14-0.79-6.39-0.49-9.59z"/>
 </g>
 <path d="m220.05 154.81c1.33 1.35 2.73 2.64 4.12 3.94l-0.76 0.15c-1.77 0.25-3.33 1.14-4.46 2.51-1.11 1.22-2.14 2.51-3.21 3.75-0.56-4.07 1.54-7.58 4.31-10.35z" fill="#dcc377"/>
 <path d="m28.39 160.4c0.78-2.16 3.26-1.87 5.09-2.16 0.17 1.49 1.1 3.03 0.59 4.54-0.79 1.12-1.83 2.02-2.8 2.99-0.75-0.36-2.26-1.08-3.02-1.43 0.02-1.32-0.01-2.64 0.14-3.94z" fill="#0dbbe4"/>
 <path d="m158.63 159.68c3.11-0.31 6.21-0.73 9.28-1.28l-0.11 0.68c-1.03 6.15-0.11 12.43-0.79 18.62-1.91-2.4-3.85-4.79-5.66-7.27-1.03-0.11-2.06-0.23-3.09-0.34 0.34 3.74 0.72 7.49 1.44 11.18-2.96-5.71-2.72-12.31-2.07-18.52 0.34-1.03 0.67-2.05 1-3.07z" fill="#edd9a8"/>
 <path d="m167.01 177.7c0.68-6.19-0.24-12.47 0.79-18.62 0.14 0.55 0.42 1.64 0.57 2.19 4.83 0.52 9.5 1.89 14.02 3.63 0.12 2.32 0.23 4.63 0.36 6.95 0.68 7.12 0.49 14.29 0.83 21.43 0.08 2.26 0.15 4.53 0.17 6.79 0.01 1.56-0.03 3.12-0.12 4.68-4.91-6.45-9.04-13.44-13.68-20.08-1.26-2.19-2.17-4.56-2.94-6.97z" fill="#4d5e03"/>
 <path d="m218.95 161.41c1.13-1.37 2.69-2.26 4.46-2.51 0.93 1.48 1.85 2.98 2.77 4.47-2.03 0.27-4.06 0.53-6.09 0.75-0.28-0.68-0.86-2.03-1.14-2.71z" fill="#144994"/>
 <path d="m235.48 159.91c2.57-0.8 6-1.68 8.05 0.66 1.71 1.53-0.13 3.47-0.6 5.14-1.22-0.03-2.43-0.04-3.64-0.08-3.29 0.45-4.09-3.21-3.81-5.72z" fill="#d92026"/>
 <path d="m63.71 160.86c2.05-0.7 4.2-0.79 6.29-0.25l-1.2 3.87c-2.43 0.01-4.09-1.54-5.09-3.62z" fill="#fdde77"/>
 <path d="m154.55 183.13c0.71-6.83 0.2-13.96 3.08-20.38-0.65 6.21-0.89 12.81 2.07 18.52 1.17 2.72 2.64 5.3 4.3 7.76-1.82-1.24-3.68-2.38-5.54-3.54-1.11 1.86-2.12 3.81-3.62 5.4-2.52 2.5-5.88 3.98-8.27 6.64-1.92 2.18-3.26 4.79-5.04 7.08-4.01 5.18-10.86 7.31-14.64 12.71-0.94 2.94-0.05 6.11 0.16 9.11-3.26-1.82-6.11-4.26-8.93-6.69-1.33 4.47-3.09 9.55 0 13.76-0.74 1.17-1.49 2.34-2.26 3.5-0.17-1.42-0.36-2.82-0.58-4.23-0.36 2.16-0.65 4.33-0.91 6.51-0.12 0.82-0.24 1.65-0.36 2.48-1.86 0.85-3.72 1.69-5.52 2.67-1.24-12.66-5.02-24.86-8.97-36.9-1.07-3.29-2.8-6.28-4.39-9.34-0.58-2.25-1.22-4.48-1.88-6.7-0.63-0.05-1.89-0.13-2.53-0.18 0.22-0.24 0.67-0.71 0.89-0.94 1.28-1.36 2.61-2.68 3.94-3.99l0.32 0.71c2.03 5.97 4.14 11.91 6.14 17.88 1.25 4.09 2.18 8.29 3.8 12.26 1.44 3.88 3.28 7.6 5.34 11.19 1.14-3.33 2.19-6.68 3.22-10.05 1.19-3.81 2.39-7.62 3.59-11.43 1.49-4.98 3.27-9.88 5.83-14.42-0.41 3.11-1.32 6.14-1.59 9.27 0.11 3.37 0.68 6.71 0.51 10.09 0.92-0.03 1.85-0.06 2.77-0.09 0.43-3.41 0.83-6.83 1.25-10.24 0.99 0.57 1.98 1.15 2.97 1.73 2.92-4.59 6.86-8.38 11.2-11.61-0.38-1.89-0.76-3.79-1.15-5.68 2.41 0.22 4.82 0.44 7.24 0.65 0.22-3.37 0.45-6.74 0.74-10.1 2.49 1.96 4.77 4.17 6.82 6.59z" fill="#d7dbe6"/>
 <path d="m54.4 163.7c0.38 0.9 0.76 1.79 1.14 2.68 1.89 5.72 3.95 11.37 6.13 16.99 0.78 2.32 1.38 4.7 1.96 7.08 0.86 4.02 2.38 7.85 4.43 11.41 0.73 0.01 2.19 0.02 2.92 0.03 1.29-3.44 2.41-6.93 3.39-10.47 2.1-6.95 4.67-13.81 8.05-20.25 0.76 1.57 1.62 3.09 2.51 4.6-1.62 3.86-3.24 7.72-4.66 11.67-0.7 1.96-1.34 3.94-1.91 5.95-2.48 8.51-5.01 17.1-5.54 26-1.33-0.09-2.65-0.17-3.98-0.26-0.97-2.43-1.97-4.85-2.81-7.34-1.1-3.58-1.69-7.3-2.74-10.9-0.18-0.64-0.54-1.91-0.72-2.54-1.56-0.25-3.11-0.49-4.66-0.72 1.33-0.31 2.66-0.62 4-0.93-1.29-7.55-6.07-13.98-7.06-21.63-0.53-3.77-0.4-7.58-0.45-11.37z" fill="#dddce7"/>
 <path d="m182.39 164.9c2.09-0.42 4.21-0.66 6.35-0.72-0.16 2.07 0.45 4.63-1.32 6.19-1.19 1.3-3.1 1.08-4.67 1.48-0.13-2.32-0.24-4.63-0.36-6.95z" fill="#09bfe6"/>
 <path d="m67.29 165.41c2.48 0.04 4.97 0.11 7.45 0.23-0.51 1.82-1.01 3.64-1.63 5.42-1.36 0.33-2.71 0.68-4.06 1.03-0.63-2.22-1.21-4.45-1.76-6.68z" fill="#fcdc62"/>
 <path d="m80.07 165.08c0.85 2 1.55 4.06 2.35 6.09-3.38 6.44-5.95 13.3-8.05 20.25-1.73 0.87-3.45 1.84-5.34 2.34-2.03-0.66-3.69-2.08-5.4-3.31-0.58-2.38-1.18-4.76-1.96-7.08 0.83 0.35 1.65 0.7 2.48 1.05 0.69-2.58 1.79-5.14 4.5-6.11 1.51 3.32 2.95 6.67 4.45 10 2.56-4.46 4.68-9.16 6.28-14.04 1.03-2.95 1.41-6.12 0.69-9.19z" fill="#f6e06c"/>
 <path d="m239.29 165.63c1.21 0.04 2.42 0.05 3.64 0.08 4.6 0.21 9.28 0.08 13.77 1.21-0.14 0.53-0.43 1.61-0.58 2.14-6.25 0.86-12.58 0.05-18.79-0.77 0.49-0.67 1.47-2 1.96-2.66z" fill="#e6d580"/>
 <path d="m55.54 166.38c1.7 2.71 3.16 5.8 5.79 7.73 2.76 1.26 5.49-0.53 7.72-2.02 1.35-0.35 2.7-0.7 4.06-1.03-0.53 1.46-1.11 2.91-1.68 4.36 2.65-0.36 5.3-0.75 7.95-1.15-1.6 4.88-3.72 9.58-6.28 14.04-1.5-3.33-2.94-6.68-4.45-10-2.71 0.97-3.81 3.53-4.5 6.11-0.83-0.35-1.65-0.7-2.48-1.05-2.18-5.62-4.24-11.27-6.13-16.99z" fill="#f3d337"/>
 <path d="m87.39 169.13c5.24-1.44 10.68-1.57 16.06-1.31 1.15 1.4 1.81 3.63 3.81 4.02 4.93 1.02 9.99 0.24 14.97 0.29 1.69 0.02 3.37 0.09 5.06 0.12-7.44 0.41-14.88 1.37-22.33 0.83-4.6-0.33-9.19-0.77-13.78-1.22-0.39 0.54-1.18 1.61-1.57 2.15-0.8-1.6-1.51-3.24-2.22-4.88z" fill="#f4d989"/>
 <path d="m103.45 167.82c3.85 0.03 7.74-0.41 11.56 0.19 2.81 0.49 5.02 2.45 7.22 4.12-4.98-0.05-10.04 0.73-14.97-0.29-2-0.39-2.66-2.62-3.81-4.02z" fill="#f8e8c3"/>
 <path d="m158.26 170.09c1.03 0.11 2.06 0.23 3.09 0.34 1.81 2.48 3.75 4.87 5.66 7.27 0.77 2.41 1.68 4.78 2.94 6.97-0.82 2.34-1.63 4.69-2.22 7.1-1.25-0.91-2.5-1.82-3.73-2.74-1.66-2.46-3.13-5.04-4.3-7.76-0.72-3.69-1.1-7.44-1.44-11.18z" fill="#f2c272"/>
 <path d="m231.48 169.73l3.08 0.04 0.55 0.63c1.51 1.85 3.33 3.47 5.61 4.29 3.33 1.65 8.75 1.48 9.39 6.09-3.29-0.34-6.75-0.75-9.53-2.69-1.09-0.72-2.16-1.47-3.2-2.24-1.79-1.39-3.45-2.93-4.97-4.6-0.23-0.38-0.7-1.14-0.93-1.52z" fill="#e4d078"/>
 <path d="m235.11 170.4c2.75-0.13 7.43 0.26 5.61 4.29-2.28-0.82-4.1-2.44-5.61-4.29z" fill="#4bb7b2"/>
 <path d="m189.93 171.22c4.2-0.67 9.49 2.31 9.22 6.96-4.34 1.04-8.74-2.68-9.22-6.96z" fill="#c9212f"/>
 <path d="m89.61 174.01c0.39-0.54 1.18-1.61 1.57-2.15 4.59 0.45 9.18 0.89 13.78 1.22 7.45 0.54 14.89-0.42 22.33-0.83 1.42-0.01 2.85 0 4.28 0.02-1.18 2.55-2.42 5.06-3.64 7.59-4.4 6.95-6.02 15.3-11.04 21.89-4.6-1.3-9.4-1.12-14.08-1.82-2.88-3.93-4.42-8.67-6.94-12.84l-0.32-0.71c-1.86-4.18-3.81-8.32-5.94-12.37m15.91 9.54c0.2 0.84 0.6 2.53 0.8 3.37 1.45-0.02 2.91-0.04 4.37-0.06-0.02-1.31-0.03-2.63-0.04-3.95-1.75-0.35-3.51-0.1-5.13 0.64m4.68 4.4c-3.73 1.5 0.16 8.71 3.38 5.83 1.32-1.03 2.64-2.6 2.2-4.39-1.14-1.9-3.67-2.14-5.58-1.44z" fill="#efc906"/>
 <path d="m232.41 171.25c1.52 1.67 3.18 3.21 4.97 4.6-0.52 0.31-1.56 0.94-2.08 1.25-2.31-1.29-4.18-3-2.89-5.85z" fill="#6fb8bd"/>
 <path d="m201.35 179.33c3.3-0.78 6.73-0.74 9.83 0.77-1.03 1.29-1.63 3.32-3.51 3.56-2.18 0.36-4.35-0.31-6.47-0.72 0.04-1.2 0.09-2.41 0.15-3.61z" fill="#ed69a1"/>
 <path d="m116.89 201.75c5.02-6.59 6.64-14.94 11.04-21.89-1.03 3.06-1.88 6.18-2.93 9.24-0.42 1.13-0.82 2.27-1.21 3.42-2.56 4.54-4.34 9.44-5.83 14.42-1.83 2.69-4 6.54-7.83 5.95-4.3-0.23-6.32-4.64-8.12-7.92-2-5.97-4.11-11.91-6.14-17.88 2.52 4.17 4.06 8.91 6.94 12.84 4.68 0.7 9.48 0.52 14.08 1.82m-9.67 0.58c-0.43 0.95-0.85 1.89-1.28 2.84 1.32 0.4 2.63 0.8 3.95 1.2 0-1.43-0.01-2.86-0.02-4.29-0.66 0.06-1.99 0.19-2.65 0.25z" fill="#f3db58"/>
 <path d="m3.33 189.09c-0.66-3.57 1.37-6.83 4.68-8.15 1.01 3.48-1 7.47-4.68 8.15z" fill="#143472"/>
 <path d="m105.52 183.55c1.62-0.74 3.38-0.99 5.13-0.64 0.01 1.32 0.02 2.64 0.04 3.95-1.46 0.02-2.92 0.04-4.37 0.06-0.2-0.84-0.6-2.53-0.8-3.37z" fill="#fff077"/>
 <path d="m220.22 181.38c0.85 0.47 1.72 0.91 2.61 1.32-0.75 3.15-1.21 6.36-1.75 9.55-1.94-3.33-2.32-7.27-0.86-10.87z" fill="#c9ad38"/>
 <path d="m158.46 185.49c1.86 1.16 3.72 2.3 5.54 3.54 1.23 0.92 2.48 1.83 3.73 2.74l-0.07 0.81c0.08 10.29-0.13 20.6 0.66 30.86-3.39 5.1-9.75 6.78-15.43 7.77-8.81 0.96-17.92-0.85-25.84-4.78-0.21-3-1.1-6.17-0.16-9.11 3.78-5.4 10.63-7.53 14.64-12.71 1.78-2.29 3.12-4.9 5.04-7.08 2.39-2.66 5.75-4.14 8.27-6.64 1.5-1.59 2.51-3.54 3.62-5.4z" fill="#cfd2e3"/>
 <path d="m251.45 186.42c2.33-1.31 6.83-1.26 7.65 1.78 1.31 5.67-10.71 4.71-8.77-0.75 0.28-0.26 0.84-0.78 1.12-1.03z" fill="#d01f24"/>
 <path d="m78.36 193.39c0.57-2.01 1.21-3.99 1.91-5.95 1.39 0.8 2.14 1.97 2.27 3.51-1.14 1.19-2.75 1.71-4.18 2.44z" fill="#58b3d3"/>
 <path d="m110.2 187.95c1.91-0.7 4.44-0.46 5.58 1.44 0.44 1.79-0.88 3.36-2.2 4.39-3.22 2.88-7.11-4.33-3.38-5.83z" fill="#fde352"/>
 <path d="m63.63 190.45c1.71 1.23 3.37 2.65 5.4 3.31 1.89-0.5 3.61-1.47 5.34-2.34-0.98 3.54-2.1 7.03-3.39 10.47-0.73-0.01-2.19-0.02-2.92-0.03-2.05-3.56-3.57-7.39-4.43-11.41z" fill="#f9eba1"/>
 <path d="m90.72 191.31c0.64 0.05 1.9 0.13 2.53 0.18 0.66 2.22 1.3 4.45 1.88 6.7-2.42 6.44-1.02 13.57 2.24 19.44 2.61 3.92 0.04 8.47-0.84 12.52-4.7-12.3-7.34-25.66-5.81-38.84z" fill="#b2882a"/>
 <path d="m223.86 194.05c5-0.91 10.02-1.75 15.08-2.28-0.92 0.99-1.83 1.98-2.75 2.97-4.12 0.18-8.25 0-12.33-0.69z" fill="#caaa46"/>
 <path d="m238.94 191.77c1.32 1.17 3.08 2.23 3.27 4.18-0.26 1.1-0.93 1.59-2.03 1.46-1 0.06-1.99 0.12-2.97 0.19-0.26-0.71-0.76-2.14-1.02-2.86 0.92-0.99 1.83-1.98 2.75-2.97z" fill="#f7e7ab"/>
 <path d="m167.66 192.58c5.55 4.78 10.59 10.12 15.65 15.42-0.39 3.92-0.64 8.6-4.19 11.09-3.46 1.9-8.6 0.3-10.8 4.35-0.79-10.26-0.58-20.57-0.66-30.86z" fill="#414702"/>
 <path d="m183.58 193.28c0.73 0.09 2.2 0.26 2.93 0.35 0.02 1.87 0.05 3.75 0.07 5.63-0.71 0.2-2.12 0.61-2.83 0.81-0.02-2.26-0.09-4.53-0.17-6.79z" fill="#e3cf6c"/>
 <path d="m226.99 201.98c3.14-1.92 6.57-3.71 10.22-4.38 0.98-0.07 1.97-0.13 2.97-0.19-3.89 3.62-9.02 5.3-13.44 8.12 4.79 1.16 9.72 1.56 14.6 2.21 1.55 0.11 2.87 0.97 4.01 1.98-4.39 0.87-8.84 0.2-13.24 0-0.3 1.18-0.6 2.36-0.89 3.55-0.22-1.29-0.44-2.56-0.66-3.84-1.84-0.75-3.67-1.51-5.51-2.24 0.6-1.75 1.06-3.57 1.94-5.21z" fill="#d0ad51"/>
 <path d="m40.28 198.29c1.1 0.11 2.19 0.23 3.29 0.34 0.17 2.39 0.06 4.79-0.42 7.14-0.74-0.05-2.21-0.16-2.94-0.22-0.41-2.41-0.37-4.86 0.07-7.26z" fill="#e1ba4e"/>
 <path d="m57.91 197.63c1.55 0.23 3.1 0.47 4.66 0.72 0.18 0.63 0.54 1.9 0.72 2.54-1.43 1.72-3.84 3.61-6.01 1.82-1.77-1.57 0.01-3.43 0.63-5.08z" fill="#1c3b8f"/>
 <path d="m107.22 202.33c0.66-0.06 1.99-0.19 2.65-0.25 0.01 1.43 0.02 2.86 0.02 4.29-1.32-0.4-2.63-0.8-3.95-1.2 0.43-0.95 0.85-1.89 1.28-2.84z" fill="#fdec8d"/>
 <path d="m14.67 207.06c0.87-1.88 1.47-4.84 4.19-4.5 1.07 0.78 2.11 1.62 3.12 2.49-1.78 2.38-4.56 3.32-7.31 2.01z" fill="#d8ac55"/>
 <path d="m102.01 204.97c1.8 3.28 3.82 7.69 8.12 7.92 3.83 0.59 6-3.26 7.83-5.95-1.2 3.81-2.4 7.62-3.59 11.43-1.74 0.54-3.47 1.08-5.2 1.62-1.14-0.91-2.27-1.81-3.36-2.76-1.62-3.97-2.55-8.17-3.8-12.26z" fill="#f8e68b"/>
 <path d="m224.24 206.86l0.81 0.33c1.84 0.73 3.67 1.49 5.51 2.24 0.22 1.28 0.44 2.55 0.66 3.84l0.17 1.11c-2.17 0.18-4.71 0.35-6.26-1.5-1.66-1.57-0.85-4.03-0.89-6.02z" fill="#f11c25"/>
 <path d="m85.1 207.73c2.28-0.86 4.82 0.92 4.58 3.37 0.23 2.01-1.57 4.08-3.67 3.39-1.92-1.61-2.52-4.73-0.91-6.76z" fill="#d72224"/>
 <path d="m183.31 208c0.15 0.97 0.27 1.95 0.36 2.93-0.28 6.99 2 14.52-1.6 21-4.38 8.62-14.25 12.4-23.3 13.6-9.1 0.95-18.55 0.9-27.29-2.1-5.33-1.82-10.34-5.08-13.36-9.93-3.09-4.21-1.33-9.29 0-13.76 2.82 2.43 5.67 4.87 8.93 6.69 7.92 3.93 17.03 5.74 25.84 4.78 5.68-0.99 12.04-2.67 15.43-7.77 2.2-4.05 7.34-2.45 10.8-4.35 3.55-2.49 3.8-7.17 4.19-11.09z" fill="#353404"/>
 <path d="m208.37 211.24c2-1.03 4.2-0.01 6.24 0.34-0.07 1.27-0.07 2.56-0.28 3.82-1.26 2.26-4.46 3.59-6.81 2.19-2.6-1.24-1.83-5.59 0.85-6.35z" fill="#08bbed"/>
 <path d="m66.03 211.79c0.84 2.49 1.84 4.91 2.81 7.34 1.33 0.09 2.65 0.17 3.98 0.26 1.08 7.35-0.28 14.73 0.01 22.09 4.14 0.21 8.31-0.02 12.4 0.81-0.79 0.32-2.38 0.96-3.17 1.29-0.3 3.2-0.31 6.45 0.49 9.59-7.78 1.58-15.77 0.96-23.57-0.04-0.46-2.85-0.94-5.7-1.44-8.54-1.25-0.62-2.5-1.23-3.74-1.85 4.33-0.54 8.68-0.92 13.04-1.02 0.5-10-0.97-19.94-0.81-29.93z" fill="#f1f1f6"/>
 <path d="m186.08 211.75c0.42 0.15 1.25 0.46 1.67 0.61 3.82 6.39 4.7 13.99 5.85 21.21 0.37 2.76 1.14 5.51 0.96 8.32-0.07 0.63-0.21 1.9-0.28 2.53-4.34-5.45-5.82-12.54-5.97-19.37-0.03-4.53-1.16-8.93-2.23-13.3z" fill="#b28925"/>
 <path d="m105.81 217.23c1.09 0.95 2.22 1.85 3.36 2.76 1.73-0.54 3.46-1.08 5.2-1.62-1.03 3.37-2.08 6.72-3.22 10.05-2.06-3.59-3.9-7.31-5.34-11.19z" fill="#f9efb8"/>
 <path d="m211.95 229.75c1.82 0.87 4.11 1.26 5.33 3.01 1.21 1.72 0.13 3.79-0.19 5.61-1.82-0.92-4.25-1.3-5.26-3.28-1.17-1.65-0.25-3.61 0.12-5.34z" fill="#d8d6e0"/>
 <path d="m108.49 244.43c1.8-0.98 3.66-1.82 5.52-2.67 0.73 7.65-0.42 15.29-0.05 22.94 4.25 0.04 8.49 0.31 12.74 0.4-2.87 2.69-3.25 6.57-2.85 10.28-7.27 1.24-14.71 1.79-22.04 0.71-1.6-2.99-2.72-6.19-3.61-9.44-1.11-0.43-2.22-0.85-3.32-1.27 4.3-0.52 8.64-0.72 12.97-0.59 0.43-6.56-0.74-13.16 0.14-19.68l0.5-0.68z" fill="#f0f1f6"/>
 <path d="m179.55 244.06c2.17-3.65 7.75-3.09 10.22-0.05-1.42 4.41-9.75 5.3-10.22 0.05z" fill="#103f93"/>
 <path d="m44.71 247.62c2.76-2.09 5.83-3.71 9.09-4.88 1.24 0.62 2.49 1.23 3.74 1.85 0.5 2.84 0.98 5.69 1.44 8.54-5.24-0.34-9.89-2.84-14.27-5.51z" fill="#dedceb"/>
 <path d="m209.52 248.73c1.21-0.37 2.42-0.77 3.63-1.17 2.59-0.45 5.63 0.66 6.28 3.47-1.8 4.7-11 3.47-9.91-2.3z" fill="#d91a28"/>
 <path d="m44.71 247.62c4.38 2.67 9.03 5.17 14.27 5.51 7.8 1 15.79 1.62 23.57 0.04 4.37-0.9 8.31-3.08 12.08-5.37-0.81 1.96-1.6 4.28-3.84 5.03-4.59 1.9-9.69 1.84-14.54 2.64-7.74 1.28-15.53-0.37-23.21-1.37-3.81-0.42-7.45-2.5-8.33-6.48z" fill="#b1abb2"/>
 <path d="m129.91 258.73c1.55-4.45 7.09-6.18 11.12-3.94-2.26 3.89-6.92 5.47-11.12 3.94z" fill="#18457f"/>
 <path d="m86.24 269.83c2.7-1.8 5.62-3.25 8.64-4.45 1.1 0.42 2.21 0.84 3.32 1.27 0.89 3.25 2.01 6.45 3.61 9.44-5.75-0.37-11.38-2.17-15.57-6.26z" fill="#dedce8"/>
 <path d="m123.85 275.38c-0.4-3.71-0.02-7.59 2.85-10.28 3.08 1.4 6.09 2.96 8.95 4.79-3.47 2.69-7.33 5.03-11.8 5.49z" fill="#ddddea"/>
 <path d="m86.24 269.83c4.19 4.09 9.82 5.89 15.57 6.26 7.33 1.08 14.77 0.53 22.04-0.71 4.47-0.46 8.33-2.8 11.8-5.49-0.2 4.17-4.01 6.4-7.75 6.93-7.89 1.14-15.94 2.47-23.92 1.31-5.26-0.79-10.98-0.64-15.66-3.51-1.71-0.96-1.64-3.13-2.08-4.79z" fill="#b3abb1"/>
</svg>
