<?xml version="1.0" encoding="UTF-8"?>
<svg viewBox="0 0 128 128" xmlns="http://www.w3.org/2000/svg">
 <defs>
  <filter id="a" x="-.12514" y="-.32663" width="1.2503" height="1.6533">
   <feGaussianBlur stdDeviation="1.9634"/>
  </filter>
 </defs>
 <path transform="matrix(-1 0 0 1 113.24 0)" d="m39.913 111.73c-1.872 0.60541-4.5226 1.4824-7.3041 0.78706-4.7873-0.48302-9.145 2.6652-8.5303 7.1217 2.8746 3.851 10.4 2.5083 15.007 4.0762 2.2763 0.56909 7.3631-3.0393 8.8786-5.4567 1.6624-2.6516 9.8001 6.9007 12.677 5.4623 5.9259-0.66409 14.136-6.5387 6.0442-10.132-2.161-1.0805-4.8457-5.5401-6.5002-5.1265-1.7733 0.44332-10.354 2.3724-12.819 2.3724-1.9994 0-4.0646 0.89513-7.4527 0.89513z" fill-opacity=".7284" fill-rule="evenodd" filter="url(#a)"/>
 <path d="m46.87 115.01-1.591 1.9446 1.6794 2.8284 1.6794-1.0607v2.4749l4.1542 0.44194 0.26517-1.591 1.591 1.7678 3.5355-2.0329-0.53033-2.1213 1.5026 0.70711 2.2097-2.5633-0.70711-2.3865 1.5026 0.17678 0.70711-2.9168-0.7955-2.0329 0.97227 0.17678-0.26516-2.5633-1.2374-0.44195-14.672 9.1924z" fill="#241c1c" fill-rule="evenodd"/>
 <path d="m51.755 106.79c-1.3564 2.5283-4.1424 5.2159-5.0527 8.3578 0.5463 2.5044 1.016 3.7807 3.4627 4.2448 2.8633 1.4496 6.4194 0.13804 8.6808-3.4945 1.99-1.9642 2.5664-4.5879 2.9265-6.9301 0.77482-3.2916-0.78583-4.8873-2.7839-7.4218-2.3514 1.8374-4.7506 3.5897-7.2335 5.2438z" fill="#483737" fill-rule="evenodd" stroke="#241c1c"/>
 <path d="m56.872 84.409c-2.1771 2.7245-1.9621 3.7971-4.8248 8.1857 0.51869 2.5453 0.91146 5.5858 0.73223 8.1036 0.51509 2.2088-1.4939 5.0946 0.01777 6.6464 2.63 1.9878 6.6648 1.8948 8.125-0.625-0.16659-9.207 3.8129-13.171 4.648-20.68-2.1674-0.80087-7.3301-3.2263-8.6982-1.6302z" fill="#00325c" fill-rule="evenodd" stroke="#00192e"/>
 <path d="m67.25,114.625-2,3.625 2.625,1.5 1.25-1.125 .5,2 3.625,1 1.125-2 .875,2.25 3.5.125 1.25-1.75 .75,1.375 3.875-.625v-1.5l1.75.5 1.5-2.625-3.5-2.125-17.125-.625z" fill="#241c1c" fill-rule="evenodd"/>
 <path d="m76.44 110.21c3.1758 0.62413 5.789 1.221 8.4853 3.182 0.60016 0.71893 0.57293 1.4127 0.53033 2.2981-0.23729 0.76404-0.51067 1.5124-0.7071 2.2981-2.7521 0.257-5.7924 1.9055-8.6664 0.98007-3.0187 0.03857-6.0698-1.0184-8.5693-2.8362-0.57749-1.7095 0.04237-4.0274 0.17678-5.922 2.784 0.87485 5.9486 0.73312 8.7504 0z" fill="#483737" fill-rule="evenodd" stroke="#241c1c"/>
 <path d="m73.09 86.619c0.14516 0.77903 3.1877 5.6303 2.9231 6.9534-0.94346 2.7951 0.16342 5.0526 0.86244 7.8964-0.01593 2.7897 0.87222 7.4496-1.125 9.5-2.8456 1.127-5.7063 1.8453-8.125-0.625 1.2455-3.8518 0.45964-7.5402-0.13388-11.552-0.02888-3.8005-2.8897-6.5459-2.7463-10.366 2.1674-0.80087 6.9766-3.4031 8.3447-1.807z" fill="#00325c" fill-rule="evenodd" stroke="#00192e"/>
 <path d="m50.191 91.349c2.8051-3.4613 1.2605-9.4559 0.90273-13.42 1.2281-4.957-0.30642-9.8421 0.74632-14.797 0.46577-3.1058-2.3963-5.9754-0.83579-8.6835 1.7843-2.4131 6.2922-3.536 9.3211-3.6908 3.886 0.56917 7.8086 0.0447 11.667 0.88388 2.8473 1.2389 7.8096 2.166 8.1265 5.239 0.13753 2.7739-2.756 7.1915-1.4697 9.6961 0.38715 4.4514 1.7086 9.4799 1.0821 13.944-0.89447 5.1934 0.63974 7.3554 0.06435 12.535-4.4819-2.5658-9.7338-0.03021-14.823-0.59988-4.2681-1.5258-12.134 2.1302-14.782-1.1062z" fill="#262d26" fill-rule="evenodd" stroke="#142214"/>
 <path d="m70.359 54.914c-0.65632 4.859-9.3883 5.3358-13.349 1.7774 0.62594-2.6888 0.79313-5.7822 3.0995-7.6497 2.1494-0.76498 4.435-0.64883 6.6794-0.52494 1.9998 0.92717 3.5552 4.6132 3.5704 6.3973z" fill="#e9d2af" fill-rule="evenodd" stroke="#3f2d10"/>
 <path d="m78.887 17.291c1.4092 4.8005-0.63339 10.454-1.8915 15.156 1.8233 5.8541 1.5862 11.191-3.9662 15.861-6.4249 2.0885-20.155 3.0546-22.354-5.99-1.3665-11.377 1.1132-4.8249-1.4729-14.329-0.85484-12.314 3.5141-20.66 15.09-19.766 8.0018-0.26212 11.436 3.8646 14.595 9.0676z" fill="#e9d2af" fill-rule="evenodd" stroke="#3f2d10"/>
 <path d="m74.425 20.561s-7.1595-4.5078-7.0711-2.5633 7.0711 2.6516 7.0711 2.5633z" fill="#372416" fill-rule="evenodd" stroke="#120a04"/>
 <path d="m60.676 24.017c1.4154 2.9755 0.38772 4.7508-2.5442 4.3659-0.8919 0.41043-2.8-1.7502-2.3945-3.2108-0.38615-3.8983 2.9965-4.039 4.9387-1.1551z" fill="#fff" fill-rule="evenodd" stroke="#333"/>
 <path d="m68.589 21.886c2.5919 0.48575 3.8339 2.2631 3.3752 4.9448-2.8992 5.0666-8.6901-2.0583-3.3752-4.9448z" fill="#fff" fill-rule="evenodd" stroke="#333"/>
 <path d="m57.299 25.719c-0.62268 0.01986 0.72203-2.0486 2.3054-0.52562 1.2272 1.1804-0.05182 2.7812-0.95085 2.9149-1.8057 0.26841-2.1301-2.1789-1.3545-2.3893z" fill-rule="evenodd" stroke="#000"/>
 <path d="m69.18 25.101c-0.47298-0.94101 2.1738-0.22367 1.5329 1.9749-0.44229 1.5173-2.1148 0.61602-2.2414 0.53717-1.6981-1.0574-0.38522-3.8464 0.70852-2.5121z" fill-rule="evenodd" stroke="#000"/>
 <path d="m64.979 29.568c0.61306 1.8321 1.4448 6.9106-3.8119 5.582-1.0353-3.5985 0.44138-6.6406 1.9441-7.5177" fill="#e9d2af" fill-rule="evenodd" stroke="#3f2d10"/>
 <path d="m67.121 42.159c-1.2497 1.8358-5.8573 1.8132-6.9652-0.88445" fill="none" stroke="#3f2d10"/>
 <path d="m49.912 22.41c-7.4133-2.9572-4.337 7.1769-0.15066 6.0033" fill="#e9d2af" fill-rule="evenodd" stroke="#3f2d10"/>
 <path d="m48.937 23.926c-2.1276-1.5829-2.9414 1.6037 0.17464 2.9975" fill="#e9d2af" fill-rule="evenodd" stroke="#3f2d10"/>
 <path d="m77.428 24.488c7.747-1.9203 3.3194 7.7006-0.66816 5.9679" fill="#e9d2af" fill-rule="evenodd" stroke="#3f2d10"/>
 <path d="m78.187 26.123c2.3233-1.2785 2.6956 1.9892-0.58116 2.9458" fill="#e9d2af" fill-rule="evenodd" stroke="#3f2d10"/>
 <path d="m92.397 38.903c2.0579-2.5896 3.8274-5.9215 3.9493-9.2414-2.5728-2.6688-3.0507-4.566 1.1302-3.0879 0.07315-2.0793-0.75147-5.4669 1.8874-6.3886 0.78207 1.0746 0.50682 3.4408-0.19505 5.672 0.81324-1.1922 2.5426-1.7136 1.8705 0.07987 0.93943-0.71626 2.1614-0.56168 1.4388 1.4578 1.7002-0.91322 3.5058-4.4853 4.6028-1.8009-0.48509 1.1692-3.2065 3.4987-4.261 4.0505-0.76172 1.0282-1.7122 2.3234-2.1389 3.5469 0.09577 3.1286-0.95622 5.9738-2.0323 8.8703-2.7922 2.8027-4.3004 8.5003-7.9353 10.485-2.8538-0.653-5.7017-3.1829-5.5546-6.0824 0.35538-3.7427 5.3081-5.4159 7.2381-7.5616z" fill="#e9d2af" fill-rule="evenodd" stroke="#3f2d10"/>
 <path d="m75.918 53.058c1.7061-1.86 8.3336-8.111 9.5055-10.328 4.947 0.02477 5.7154 7.3853 8.8429 10.485-1.3404 1.6384-5.7313 2.0757-7.0447 3.7436-2.964 2.4191-7.0422 5.635-11.008 5.1954" fill="#262d26" fill-rule="evenodd" stroke="#142214"/>
 <path d="m55.532 75.497 1.7678-1.8562 4.1542 0.53033 1.149-1.591 2.5633-1.3258 7.3362 0.88388c1.9082 5.2225 3.583 7.755 1.4142 14.407 0 0-3.182 2.4749-3.3588 1.6794s-14.672-12.816-15.026-12.728z" fill="#1a1a1a" fill-rule="evenodd" stroke="#000"/>
 <path d="m55.086 75.966-1.625 10.875c4.0677 1.2647 9.5207 1.8997 17.25 1.5 2.1477-3.1644 2.5605-6.5023 1.375-10l-1.25-4.875-8.125-0.625-1.375 3.375c-4.1893-1.0406-5.7088-0.86762-6.25-0.25z" fill="#1a1a1a" fill-rule="evenodd" stroke="#000"/>
 <path d="m63.752 8.9748c-2.0543-1.0869 1.2138-2.1735 8-0.90693 17.474 3.2613 4.2581 14.193 10.875 15.93-3.1672-0.06086-5.0244 1.4765-4.375 1.4195 0.13726-2.1745-4.7349-4.1339-5-0.70977-3.9789-2.4141 4.2354-4.149 2.7286-6.8034-0.58303 1.2124-0.72263 2.282-3.6036 2.8996-12.44-11.267 3.4364-8.7313-4.25-11.317 2.7658 1.2409 2.732 2.1607 3 3.1151-1.3743-1.5023-2.7771-2.997-7.375-3.6277z" fill="#372416" fill-rule="evenodd" stroke="#120a04"/>
 <path d="m52.857 20.561s7.1595-4.5078 7.0711-2.5633-7.0711 2.6516-7.0711 2.5633z" fill="#372416" fill-rule="evenodd" stroke="#120a04"/>
 <path d="m43.712 72.237c2.4931 2.1739 3.1195 4.2799 6.4304 4.553 1.5375-0.346 3.0325-1.1185 4.849-0.96067-0.8917-0.08743-1.1126 0.89323-1.037 1.4218-0.60046 0.35855-0.55102 0.0367-0.77882 0.80878 2.0738 0.16792 3.2453 0.30359 4.0458 2.9818-1.1617 0.70837-1.6857-0.16671-2.9095-0.52792 1.1538 0.86678 4.2209 1.3223 1.8173 3.0172-1.8217-0.88998-2.4196-0.71462-3.6967-1.3829 0.83472 1.7401 4.2172 3.036 1.1005 2.7532-1.1459-0.53792-3.0449-1.2672-3.548-2.3458-0.99242-0.80783-2.3634-1.1141-3.5662-1.5961-4.9595-1.5752-9.9084-2.4618-13-10.057 0.91529-4.0952 2.6293-5.5622 4.3791-7.3679 0.78249-2.821 6.6688 0.7818 10.309 2.811-1.5274 3.1507-1.8246 2.9907-4.3941 5.8916z" fill="#e9d2af" fill-rule="evenodd" stroke="#3f2d10"/>
 <path d="m52.379 64.501c-2.5912 2.4084-4.3034 4.3891-5.8373 7.5984-3.6861-2.071-7.7409-4.7475-11.077-7.6218 2.4159-4.1009 8.6922-8.9162 12.425-11.579 2.1293-0.97295 3.4687-1.0516 5.9211-0.84684" fill="#262d26" fill-rule="evenodd" stroke="#142214"/>
 <path d="m63.291 9.2483c2.695-2.9927-11.654-1.5957-16.125 2.3433-2.75 3.9543-4.125 10.398-3.625 12.693s2.625 3.2709 2.625 3.2709c-1.047-1.7433-2.3092-3.5706-0.125-4.052l3.25 4.8331c-0.18398-1.812-2.5941-3.8414-0.375-5.4189 2.0852-0.99536 2.6438 1.9158 2.25 2.0992 1.1608-0.56791 2.3982-4.1494 0.125-4.9307-2.3982-0.82424 1.6302 4.2058 12-10.838z" fill="#372416" fill-rule="evenodd" stroke="#120a04"/>
 <path d="m102.43 27.313c-1.0607 2.1213-2.9686 1.7312-1.5544-1.3624-0.10076 2.8781-4.6531 1.9116-1.4508-0.51333" fill="none" stroke="#3f2d10"/>
 <g transform="translate(-5.6568 17.147)">
  <path d="m100.17 9.3986 10.75-18.25 13.875 7.25-12.375 18.25z" fill="#fff" stroke="#000"/>
  <path d="m101.86 8.678 9.0584-15.029 11.692 5.9706-10.428 15.029z" fill="#2a9cad"/>
 </g>
 <path d="m97.484 26.379c3.0851 2.4766 1.2026 4.4132-1.5107 2.4893" fill="none" stroke="#3f2d10"/>
 <path d="m51.168 11.202c-2.6456 0.97396-3.3102 3.1829-4.6964 4.9419 1.3047-1.7755-0.0341-5.9104 5.002-5.3583l-0.30555 0.41634z" fill="#6f5e51" fill-rule="evenodd"/>
 <path d="m74.567 10.478c3.7144 3.2395 3.5923 3.0779 4.7248 6.3324-1.3798-2.6994-3.4635-4.2083-6.136-6.1314l1.4113-0.20103z" fill="#6f5e51" fill-rule="evenodd"/>
 <path d="m78.916 38.891c7.5668 6.043-0.87074 13.921 1.4363 19.992-2.8109-5.0354 1.7973-13.728-1.7721-19.316l0.33579-0.67678z" fill="#6f5e51" fill-rule="evenodd"/>
 <path d="m58.583 82c1.3062-1.5155 2.2879-3.2165 5.1667-3.8333 3.7734-0.92166 6.6144 1.3448 7 4.5-0.65077 3.7699-3.7099 5.1922-6.197 6.6667l-5.9697-7.3333z" fill-rule="evenodd" stroke="#000"/>
 <path d="m59.542 83.698-0.125 3.2188 1.625 0.90625 2.375-0.34375 1-1.5938s-0.28125-2.5312-0.5625-2.7188-2.375-0.40625-2.375-0.40625l-1.9375 0.9375z" fill="#150d25" fill-rule="evenodd"/>
 <path d="m61.925 80.996c-2.821-0.01358-4.1162 1.3069-4.4797 3.9818 0.02216 2.8883 1.3722 4.3624 4.1284 4.8015 2.9195-0.05875 4.4533-1.4951 4.9189-4.2745-0.10574-2.9551-1.8384-4.1659-4.5676-4.5088zm0 1.6142c1.0496-0.0513 2.3209 0.72912 2.5998 2.8946 0.02485 1.4435-0.92988 2.0748-3.0395 2.3068-1.0785-0.32407-1.8726-0.66704-2.0722-2.7454 0.00508-1.0096 0.48844-2.2722 2.512-2.456z" stroke="#4d4d4d" stroke-width="1.0673"/>
 <path d="m53.676 50.218c-4.6458 1.8692-1.1417 16.603 1.149 25.544l0.97227-0.17678c-1.2247-7.5258-5.0857-17.536-1.5468-24.572l-0.57452-0.79549z" fill-rule="evenodd"/>
 <path d="m78.904 55.964c2.8925 4.4042-0.01071 8.9442-6.2756 17.854l-0.26516-1.0607c1.6666-7.6141 6.3988-8.804 6.0104-17.943l0.53033 1.149z" fill-rule="evenodd"/>
 <path d="m70.514 73.862 1.8562-1.5026" fill="none" stroke="#000"/>
 <path d="m67.7 62.208 2.0126-1.5214 5.216 0.89016c-0.39035 2.3268-0.29604 3.8987-0.68934 6.1058-0.09681 0.5433-0.93953 1.2073-1.0588 1.764l-0.07952 2.2766-1.5 0.75-3.9009-10.265z" fill="#1a1a1a" fill-rule="evenodd" stroke="#000"/>
 <path d="m67.6631,62.34813 5.125.875c-.02206,1.70581-.03017,3.39766-.21343,5.26467l-.9179,1.05823-.05617,2.92711-3.0625-.1875 .0602-3.12224-.78171-.75236-.15349-6.0629z" fill="#1a1a1a" fill-rule="evenodd" stroke="#000"/>
 <path d="m72.797 63.408 2.3865-1.7678" fill="none" stroke="#000"/>
 <path d="m68.554 63.512 0.20267 3.8373 2.7142 0.125 0.26517-3.2855-3.182-0.67678z" fill="#808080" fill-rule="evenodd"/>
 <path d="m71.922 69.658 2.3865-1.7678" fill="none" stroke="#000"/>
 <path d="m63.001 75.63 0.70711-1.37 0.92808 1.591 0.97227-1.37 0.88388 1.591 0.88388-1.5026 0.88388 1.7678 1.0165-1.4584" fill="none" stroke="#808080" stroke-linejoin="bevel"/>
 <path d="m74.01 17.727c2.0543 0.6939-1.2138 1.3876-8 0.57898-17.474-2.082-4.2581-9.0608-10.875-10.17 3.1672 0.03885 5.0244-0.9426 4.375-0.90623 21.169 0.46926 9.398 7.4029 14.5 10.497z" fill="#372416" fill-rule="evenodd" stroke="#120a04"/>
</svg>
