<?xml version="1.0" encoding="UTF-8"?>
<svg enable-background="new 0 0 774 567" viewBox="0 0 763.69098 553.289" xmlns="http://www.w3.org/2000/svg">
 <g transform="translate(-6.69,-7.341)">
  <path d="m597.651,341.15c-.86,14.52.71,36.19-25.601,35.76l-.359-.1-55.931.03-.01-34.58c-.03,4.29.08-19.04-4.99-25.93-12.949-17.64-37.649-4.69-41.18-4.69-3.52,0-48.22,20.02-47.07-36.45 1.141-56.47 38.811-31.78 56.45-32.97 14.51-.97 36.931-.37 36.29-26.67l-.01-22.75 76.47-.04c8.181.1 16.431-1.34 21.04-4.68 17.74-12.82 4.96-37.61 4.98-41.14 .029-3.53-19.681-48.37 36.779-46.82s31.511,39.03 32.57,56.69c.87,14.52.95,36.3 27.26,35.85l55.45-.03 .01,23.53 .061,120 .02,40.55-77.189.04c-8.17.1-16.08-1.02-20.7-4.36-17.74-12.82-4.97-37.61-5-41.14-.021-3.53 19.66-48.38-36.8-46.8s-31.49,39.05-32.54,56.7z" fill="#b8619e"/>
  <path d="m692.691,376.75c-8.17.1-16.08-1.02-20.7-4.36-17.74-12.82-4.97-37.61-5-41.14-.021-3.53 19.66-48.38-36.8-46.8s-31.49,39.05-32.54,56.7c-.86,14.52.71,36.19-25.601,35.76" fill="none" stroke="#000"/>
  <path d="m713.511,192.66h.83l55.45-.03 .01,23.53 .06,120 .02,40.55-77.19.04" fill="none" stroke="#000"/>
  <path d="m571.691,376.81-55.93.03-.01-34.58" fill="none" stroke="#000"/>
  <path d="m515.751,342.26c-.03,4.29.08-19.04-4.99-25.93-12.949-17.64-37.649-4.69-41.18-4.69-3.52,0-48.22,20.02-47.07-36.45 1.141-56.47 38.811-31.78 56.45-32.97 14.51-.97 36.931-.37 36.29-26.67" fill="none" stroke="#000"/>
  <path d="m515.251,216.33v-.78l-.01-22.75 76.47-.04" fill="none" stroke="#000"/>
  <path d="m591.711,192.76c8.181.1 16.431-1.34 21.04-4.68 17.74-12.82 4.96-37.61 4.98-41.14 .029-3.53-19.681-48.37 36.779-46.82s31.511,39.03 32.57,56.69c.87,14.52.95,36.3 27.26,35.85" fill="none" stroke="#000"/>
  <path d="m343.111,341.15c-.87,14.52.7,36.19-25.6,35.76l-.36-.1-55.93.03-.02-34.58c-.02,4.29.08-19.04-4.98-25.94-12.95-17.64-37.65-4.68-41.18-4.68s-48.22,20.02-47.08-36.45c1.15-56.47 38.81-31.78 56.46-32.97 14.51-.97 36.92-.37 36.29-26.67l-.01-22.75 76.47-.04c8.18.1 16.42-1.34 21.04-4.68 17.729-12.82 4.96-37.61 4.979-41.14s-19.68-48.37 36.78-46.82 31.5,39.03 32.57,56.68c.87,14.53.949,36.31 27.26,35.86l55.439-.03 .021,23.53c.62,26.31-21.79,24.92-36.3,25.89-17.65,1.19-55.311-23.5-56.45,32.97-1.15,56.47 43.55,36.45 47.07,36.45 3.529,0 28.229-12.96 41.18,4.69 3.37,4.59 4.59,11.81 4.55,19.99l.01.01 .021,40.55-77.19.03c-8.18.11-16.08-1.01-20.7-4.35-17.739-12.82-4.979-37.61-5-41.14-.029-3.53 19.65-48.38-36.81-46.8s-31.48,39.05-32.53,56.7z" fill="#365ba2"/>
  <path d="m438.15,376.74c-8.18.11-16.08-1.01-20.7-4.35-17.739-12.82-4.979-37.61-5-41.14-.029-3.53 19.65-48.38-36.81-46.8s-31.48,39.05-32.53,56.7c-.87,14.52.7,36.19-25.6,35.76" fill="none" stroke="#000"/>
  <path d="m458.961,192.66h.84l55.439-.03 .021,23.53" fill="none" stroke="#000"/>
  <path d="m317.151,376.81-55.93.03-.02-34.58" fill="none" stroke="#000"/>
  <path d="m515.32,336.16 .021,40.55-77.191.03" fill="none" stroke="#000"/>
  <path d="m515.311,336.15c.04-8.18-1.18-15.4-4.55-19.99-12.95-17.65-37.65-4.69-41.18-4.69-3.521,0-48.221,20.02-47.07-36.45 1.14-56.47 38.8-31.78 56.45-32.97 14.51-.97 36.92.42 36.3-25.89" fill="none" stroke="#000"/>
  <path d="m261.201,342.26c-.02,4.29.08-19.04-4.98-25.94-12.95-17.64-37.65-4.68-41.18-4.68s-48.22,20.02-47.08-36.45c1.15-56.47 38.81-31.78 56.46-32.97 14.51-.97 36.92-.37 36.29-26.67" fill="none" stroke="#000"/>
  <path d="m260.71,216.33v-.78l-.009-22.75 76.47-.04" fill="none" stroke="#000"/>
  <path d="m337.171,192.76c8.18.1 16.42-1.34 21.04-4.68 17.729-12.82 4.96-37.61 4.979-41.14s-19.68-48.37 36.78-46.82 31.5,39.03 32.57,56.68c.87,14.53.949,36.31 27.26,35.86" fill="none" stroke="#000"/>
  <path d="m89.6,341.15c-.87,14.52.7,36.19-25.6,35.76l-.36-.11-55.93.03-.02-34.57-.49-125.93-.01-23.53 76.47-.04c8.18.1 16.42-1.34 21.04-4.68 17.73-12.83 4.96-37.62 4.98-41.15s-19.68-48.36 36.78-46.81c56.46,1.54 31.51,39.03 32.57,56.68 .87,14.52.95,36.3 27.26,35.86l55.44-.03 .02,23.53c.63,26.3-21.79,24.92-36.3,25.89-17.65,1.19-55.31-23.5-56.45,32.97-1.15,56.47 43.55,36.45 47.08,36.45 3.52-.01 28.22-12.96 41.17,4.68 3.37,4.6 4.59,11.82 4.55,20l.01.01 .02,40.54-77.19.04c-8.18.1-16.08-1.02-20.7-4.35-17.74-12.82-4.98-37.62-5-41.15-.03-3.52 19.66-48.37-36.81-46.79-56.46,1.58-31.48,39.04-32.53,56.7z" fill="#47c0eb"/>
  <path d="m184.64,376.74c-8.18.1-16.08-1.02-20.7-4.35-17.74-12.82-4.98-37.62-5-41.15-.03-3.52 19.66-48.37-36.81-46.79-56.46,1.58-31.48,39.04-32.53,56.7-.87,14.52.7,36.19-25.6,35.76" fill="none" stroke="#000"/>
  <path d="m205.46,192.66h.83l55.44-.03 .02,23.53" fill="none" stroke="#000"/>
  <path d="m63.64,376.8-55.93.03-.02-34.57" fill="none" stroke="#000"/>
  <path d="m261.81,336.16 .02,40.54-77.19.04" fill="none" stroke="#000"/>
  <path d="m261.8,336.15c.04-8.18-1.18-15.4-4.55-20-12.95-17.64-37.65-4.69-41.17-4.68-3.53,0-48.23,20.02-47.08-36.45 1.14-56.47 38.8-31.78 56.45-32.97 14.51-.97 36.93.41 36.3-25.89" fill="none" stroke="#000"/>
  <path d="m83.66,192.76-76.47.04 .01,23.53 .49,125.93" fill="none" stroke="#000"/>
  <path d="m83.66,192.76c8.18.1 16.42-1.34 21.04-4.68 17.73-12.83 4.96-37.62 4.98-41.15s-19.68-48.36 36.78-46.81c56.46,1.54 31.51,39.03 32.57,56.68 .87,14.52.95,36.3 27.26,35.86" fill="none" stroke="#000"/>
  <path d="m769.086,128.841v63.07h-56.59c-26.29.74-24.79-22.38-25.83-36.89-1.261-17.64 23.279-55.4-33.19-56.32-56.479-.92-36.28,43.7-36.26,47.22 .01,3.53 13.07,28.18-4.521,41.2-4.58,3.39-11.8,4.64-19.979,4.63l-77.75.16v-64.07l.03-.03c-.04-8.18 1.18-15.41 4.55-20 12.939-17.65 37.64-4.71 41.17-4.71s48.24,20 47.06-36.47-38.819-31.76-56.47-32.94c-14.51-.97-36.19.45-35.58-25.85h253.36v121z" fill="#76b41f"/>
  <path d="m515 127.81c-0.04-8.18 1.18-15.41 4.55-20 12.939-17.65 37.64-4.71 41.17-4.71s48.24 20 47.06-36.47-38.819-31.76-56.47-32.94c-14.51-0.97-36.19 0.45-35.58-25.85" fill="none" stroke="#000"/>
  <path d="m592.716,191.75c8.18.01 15.399-1.24 19.979-4.63 17.591-13.02 4.53-37.67 4.521-41.2-.021-3.52-20.22-48.14 36.26-47.22 56.47.92 31.93,38.68 33.19,56.32 1.04,14.51-.46,37.63 25.83,36.89" fill="none" stroke="#000"/>
  <path d="m514.97 127.84v64.07l77.75-0.161" fill="none" stroke="#000"/>
  <path d="m769.09 7.841h-254.12" fill="none" stroke="#000"/>
  <path d="m712.5 191.91h56.59v-184.07" fill="none" stroke="#000"/>
  <path d="m517.375,8.329c-.61,26.31 21.06,24.89 35.58,25.86 17.649,1.17 55.29-23.53 56.47,32.94s-43.53,36.47-47.061,36.47-28.229-12.94-41.18,4.7c-3.229,4.42-4.45,12.84-4.5,20.73v1 62.08h-56.59c-26.3.73-24.8-22.38-25.83-36.89-1.26-17.64 23.28-55.4-33.2-56.32-56.47-.92-36.27,43.69-36.26,47.22 .02,3.53 13.07,28.18-4.52,41.2-4.57,3.39-11.801,4.64-19.971,4.63l-77.75.16v-64.07l.03-.04c-.04-8.17 1.17-15.4 4.54-19.99 12.94-17.65 37.65-4.71 41.18-4.71s48.23,20 47.061-36.47c-1.181-56.47-38.831-31.77-56.47-32.94-14.52-.97-36.19.45-35.58-25.85h253.36l.691.29z" fill="#ede439"/>
  <path d="m262.6 128c-0.04-8.17 1.17-15.4 4.54-19.99 12.94-17.65 37.65-4.71 41.18-4.71s48.23 20 47.061-36.47c-1.181-56.47-38.831-31.77-56.47-32.94-14.52-0.97-36.19 0.45-35.58-25.85" fill="none" stroke="#000"/>
  <path d="m516.685,129.028c.05-7.89 1.271-16.31 4.5-20.73 12.95-17.64 37.65-4.7 41.18-4.7s48.24,20 47.061-36.47-38.82-31.77-56.47-32.94c-14.521-.97-36.19.45-35.58-25.86" fill="none" stroke="#000"/>
  <path d="m340.314,191.949c8.17.01 15.4-1.24 19.971-4.63 17.59-13.02 4.539-37.67 4.52-41.2-.01-3.53-20.21-48.14 36.26-47.22 56.48.92 31.94,38.68 33.2,56.32 1.03,14.51-.47,37.62 25.83,36.89" fill="none" stroke="#000"/>
  <path d="m262.56 128.04v64.069l77.75-0.159" fill="none" stroke="#000"/>
  <path d="m516.68 8.039h-254.12" fill="none" stroke="#000"/>
  <path d="m460.1 192.11h56.59v-63.08" fill="none" stroke="#000"/>
  <path d="m264.019,8.332c-.62,26.3 21.06,24.89 35.57,25.85 17.65,1.18 55.29-23.53 56.47,32.94s-43.53,36.47-47.06,36.47-28.23-12.94-41.17,4.71c-3.23,4.42-4.46,12.83-4.51,20.73v1 62.08h-56.59c-26.3.73-24.8-22.39-25.83-36.89-1.26-17.65 23.28-55.4-33.2-56.32-56.47-.93-36.27,43.69-36.25,47.22 .01,3.53 13.07,28.17-4.52,41.2-4.58,3.39-11.8,4.63-19.98,4.63l-77.75.16v-184.08h254.12l.7.3z" fill="#de3918"/>
  <path d="m263.319,129.032c.05-7.9 1.28-16.31 4.51-20.73 12.94-17.65 37.64-4.71 41.17-4.71s48.24,20 47.06-36.47-38.82-31.76-56.47-32.94c-14.51-.96-36.19.45-35.57-25.85" fill="none" stroke="#000"/>
  <path d="m86.949,191.952c8.18,0 15.4-1.24 19.98-4.63 17.59-13.03 4.53-37.67 4.52-41.2-.02-3.53-20.22-48.15 36.25-47.22 56.48.92 31.94,38.67 33.2,56.32 1.03,14.5-.47,37.62 25.83,36.89" fill="none" stroke="#000"/>
  <path d="m263.32 8.032h-254.12v184.08l77.75-0.16" fill="none" stroke="#000"/>
  <path d="m206.73 192.11h56.59v-63.08" fill="none" stroke="#000"/>
  <path d="m261.584,520.09c.01-.07.01-.16.01-.28v40.32h-254.12v-184.07l56.67-.15h.23c.38.01.75.01 1.11,0 .02.01.03.01.04,0 24.87-.34 23.37-21.5 24.21-35.76 1.05-17.65-23.92-55.12 32.54-56.7s36.78,43.27 36.81,46.8c.02,3.53-12.74,28.32 5,41.14 4.61,3.33 12.86,4.77 21.04,4.67h76.47v22.75c-.62,26.3 21.79,25.69 36.3,26.65 17.65,1.18 55.299-23.53 56.48,32.94 1.17,56.471-43.53,36.471-47.06,36.471s-28.24-12.94-41.18,4.71c-3.94,5.369-4.49,17.079-4.54,20v.01c-.01.219-.01.388-.01.499z" fill="#e64363"/>
  <path d="m261.594,519.58c.05-2.921.6-14.631 4.54-20 12.94-17.65 37.65-4.71 41.18-4.71s48.23,20 47.06-36.471c-1.181-56.47-38.83-31.76-56.48-32.94-14.51-.96-36.92-.35-36.3-26.65" fill="none" stroke="#000"/>
  <path d="m261.584,520.09c0-.11 0-.28.01-.5" fill="none" stroke="#000"/>
  <path d="m261.594,519.81c0,.12 0,.21-.01.28 .01.109.01.16 0,.16" fill="none" stroke="#000"/>
  <path d="m261.59 519.59v-0.01001" fill="none" stroke="#000"/>
  <path d="m64.144 375.91-56.67 0.15v184.07h254.12v-40.54" fill="none" stroke="#000"/>
  <path d="m65.484 375.91h-1.11" fill="none" stroke="#000"/>
  <path d="m261.59 399.59v-23.53h-76.47" fill="none" stroke="#000"/>
  <path d="m185.124,376.06c-8.18.1-16.43-1.34-21.04-4.67-17.74-12.82-4.98-37.61-5-41.14-.03-3.53 19.65-48.38-36.81-46.8s-31.49,39.05-32.54,56.7c-.84,14.26.66,35.42-24.21,35.76-.01.01-.02.01-.04,0-.36.01-.73.01-1.11,0h-.23" fill="none" stroke="#000"/>
  <path d="m607.41,458.424c1.18,56.47-43.53,36.47-47.061,36.47s-28.229-12.94-41.18,4.7c-5.06,6.899-4.939,30.229-4.96,25.939v34.58h-254.119v-40.54-.02c-.05-8.17 1.17-15.4 4.54-19.99 12.94-17.65 37.65-4.71 41.18-4.71s48.23,20 47.06-36.47c-1.18-56.47-38.83-31.77-56.48-32.94-14.51-.97-36.92.43-36.3-25.88v-23.52h55.44c26.31.43 26.38-21.35 27.25-35.88 1.05-17.65-23.93-55.12 32.53-56.7s36.78,43.27 36.811,46.8c.02,3.53-12.74,28.33 5,41.14 4.62,3.34 12.86,4.78 21.04,4.67h76.47v22.75c-.62,26.3 21.79,25.69 36.311,26.66 17.648,1.171 55.288-23.528 56.468,32.941z" fill="#e99d00"/>
  <path d="m316.37 376.04h-56.28v23.52" fill="none" stroke="#000"/>
  <path d="m260.09 519.57v40.54h254.12v-34.58" fill="none" stroke="#000"/>
  <path d="m260.09,519.555c-.05-8.17 1.17-15.4 4.54-19.99 12.94-17.65 37.65-4.71 41.18-4.71s48.23,20 47.06-36.47c-1.18-56.47-38.83-31.77-56.48-32.94-14.51-.97-36.92.43-36.3-25.88" fill="none" stroke="#000"/>
  <path d="m514.21,525.534c.021,4.29-.1-19.04 4.96-25.939 12.95-17.641 37.65-4.7 41.18-4.7s48.24,20 47.061-36.47-38.82-31.77-56.47-32.94c-14.521-.97-36.931-.36-36.311-26.66" fill="none" stroke="#000"/>
  <path d="m514.63 399.6v-23.53h-76.47" fill="none" stroke="#000"/>
  <path d="m438.16,376.074c-8.18.11-16.42-1.33-21.04-4.67-17.74-12.81-4.98-37.61-5-41.14-.03-3.53 19.649-48.38-36.811-46.8s-31.479,39.05-32.53,56.7c-.87,14.53-.94,36.31-27.25,35.88" fill="none" stroke="#000"/>
  <path d="m769.247,376.075v23.53l-.431,125.93v34.58h-254.12v-40.55l.011-.01c-.051-8.181 1.17-15.4 4.54-20 12.939-17.65 37.64-4.7 41.17-4.7s48.239,20 47.06-36.48c-1.17-56.47-38.82-31.76-56.47-32.94-14.51-.96-36.92.43-36.311-25.87v-23.53h55.45c26.311.43 26.38-21.35 27.24-35.87 1.05-17.65-23.92-55.12 32.54-56.7s36.78,43.27 36.8,46.8c.03,3.53-12.729,28.32 5,41.14 4.62,3.34 12.87,4.78 21.05,4.67h76.471z" fill="#bebfc0"/>
  <path d="m570.98 376.04h-56.281v23.53" fill="none" stroke="#000"/>
  <path d="m514.7 519.56v40.55h254.12v-34.58l0.431-125.93" fill="none" stroke="#000"/>
  <path d="m514.707,519.556c-.051-8.181 1.17-15.4 4.54-20 12.939-17.65 37.64-4.7 41.17-4.7s48.239,20 47.06-36.48c-1.17-56.47-38.82-31.76-56.47-32.94-14.51-.96-36.92.43-36.311-25.87" fill="none" stroke="#000"/>
  <path d="m769.25 376.08h-76.471" fill="none" stroke="#000"/>
  <path d="m769.25 376.08v23.53" fill="none" stroke="#000"/>
  <path d="m692.776,376.075c-8.18.11-16.43-1.33-21.05-4.67-17.729-12.82-4.97-37.61-5-41.14-.02-3.53 19.66-48.38-36.8-46.8s-31.49,39.05-32.54,56.7c-.86,14.52-.93,36.3-27.24,35.87" fill="none" stroke="#000"/>
 </g>
</svg>
