<?xml version="1.0" encoding="UTF-8"?>
<svg enable-background="new 0 0 329.343 430.559" viewBox="0 0 329.343 430.559" xmlns="http://www.w3.org/2000/svg">
 <path d="m161.07 299.57c1.224-19.44 0.612-44.28-1.98-76.032-2.7-31.896-7.02-75.996-13.5-113-6.624-36.972-14.94-72.036-25.524-106.99 1.224-2.16 2.772-3.24 4.5-3.528 1.728-0.216 3.78 0.36 6.012 2.016 9.54 28.08 17.568 57.564 24.516 90 6.948 32.472 12.636 68.292 16.488 103.03 3.636 34.632 5.472 68.364 5.508 103l-16.02 1.511z" stroke="#000" stroke-miterlimit="10" stroke-width=".036"/>
 <path d="m163.587,298.063c1.908-16.382 1.872-39.602-.504-70.488-2.484-31.176-6.984-77.004-13.5-114.012-6.624-36.972-14.94-71.712-25.524-106.02-.756-2.196-.828-3.312.072-3.636 .828-.36 2.484.36 4.968,1.872 8.676,27.756 16.2,56.916 22.968,89.28 6.732,32.328 13.428,68.976 17.028,102.996 3.42,33.948 4.536,66.348 3.492,99-2.988.323-5.976.647-9,1.008z" fill="#c0c0c0" stroke="#000" stroke-miterlimit="10" stroke-width=".036"/>
 <path d="m112.432,278.73 6.336,2.158c.936-.684 1.944-1.114 3.024-1.15 1.008-.108 2.376.358 3.276.576 .828.144 1.044.144 2.016,0 .972-.36 2.916-1.802 3.744-1.55 .72.252.972,1.226.756,3.062 2.592.792 4.824,1.836 6.84,3.275 2.016,1.331 4.788,4.213 4.968,5.039-.036.648-2.772.182-4.716-.432-2.016-.612-4.284-1.548-6.948-2.952 .432.72.648,1.368.252,1.944-.288.576-1.188.864-2.304,1.26 .792.756.864,1.332.216,1.729-.792.432-2.844.61-4.212.54-1.44-.218-2.736-.793-3.744-1.585-1.116-.973-1.512-2.376-2.304-3.385-.864-.936-1.656-1.69-2.52-2.268l-7.128-2.88c.324-.864.576-1.692 1.044-2.196 .395-.573.864-.969 1.404-1.185z" stroke="#000" stroke-miterlimit="10" stroke-width=".036"/>
 <path d="m112.792,279.378 5.724,1.98c-.216,1.548-.252,2.268-.108,2.304 .036-.18.324-1.764.864-2.376 .468-.648 1.368-1.152 2.304-1.116 .864-.106 2.052.792 3.168.9 .936-.072 2.268-.469 3.168-.756 1.008-.36 1.908-1.116 2.556-1.01 .576,0 .792.828.792,1.368-.072.434-.432.938-.936,1.513-.72.575-1.512,1.261-2.376,1.765-.9.358-1.908.396-2.592.646-.792.108-1.296.252-1.656.434-.36.071-.576.358-.504.468-.432,0-.72.18-.864.54s-.36.9-.252,1.62c-.324.106-.612.144-.72.396-.18.218-.288.36-.324.722-.288-.9-.72-1.729-1.44-2.484-.72-.792-1.656-1.512-2.952-2.16-1.368-.756-3.348-1.404-5.544-2.088-.036-.72.144-1.296.396-1.728s.684-.794 1.296-.938z" fill="#e2b79c" stroke="#000" stroke-miterlimit="10" stroke-width=".036"/>
 <path d="m131.08,282.546c1.44.324 2.808.938 4.5,1.836 1.584.828 4.14,2.592 5.184,3.492 .972.828 1.584,1.764.72,1.692-1.116-.218-4.644-1.692-6.696-2.342-2.088-.684-3.744-1.224-5.364-1.618 1.26.792 2.052,1.584 2.232,2.088 .144.468-.36.792-1.08,1.114-.9.396-2.628.938-3.816,1.046-1.26-.072-2.52-.576-3.204-1.08-.684-.648-.828-1.692-.72-2.16 .144-.576.468-.864 1.116-.722 .468.146 1.26,1.514 1.98,1.584 .612-.07 2.232-1.438 2.232-1.584-.072-.18-1.512.648-2.088.686-.684-.108-1.224-.686-1.332-.9-.108-.322.144-.432.756-.61 .54-.182 1.656-.108 2.664-.47 .899-.432 1.872-1.116 2.916-2.052z" fill="#e2b79c" stroke="#000" stroke-miterlimit="10" stroke-width=".036"/>
 <path d="m128.956,290.286c.432.144.576.216.576.504-.036.216-.18.648-.864.864-1.044.144-2.952.036-4.176-.182-1.188-.322-2.268-1.26-2.556-1.69-.396-.576-.216-1.116.54-1.62 .144.828.648,1.548 1.8,1.872 1.116.288 2.627.468 4.68.252z" fill="#e2b79c" stroke="#000" stroke-miterlimit="10" stroke-width=".036"/>
 <path d="m198.543,213.57 .504-3.528c-.576-.216-.612-1.98-.396-5.436 .181-3.528.899-8.604 1.872-15.372 2.411.252 4.429,0 6.048-.612 1.513-.72 3.601-2.592 3.492-3.384-.145-.9-2.952-1.692-4.393-1.692-1.512-.036-3.168.396-4.824,1.44 1.404-1.8 2.557-3.852 3.313-6.012 .646-2.268 1.548-5.328 1.15-7.092-.432-1.836-2.23-4.248-3.455-3.492-1.332.72-2.771,3.204-4.465,7.74-.396-3.132-1.15-5.364-2.124-6.696-1.079-1.476-3.239-1.872-3.96-1.476-.72.324-.504,1.98-.468,3.996-.107,2.052-.18,4.572-.072,7.956-1.079-2.988-2.23-5.184-3.456-6.444-1.296-1.368-3.274-1.656-4.14-1.404-.937.108-1.656,1.224-1.332,2.52 .252,1.224 1.188,2.916 2.952,5.076-2.232-1.512-4.104-2.448-5.616-2.808-1.656-.396-3.42-.144-3.78.468-.504.504.253,1.656 1.44,2.916 1.224,1.116 4.464,2.34 5.976,4.212 1.478,1.836 2.018,3.24 2.988,6.732 .937,3.42 2.124,10.08 2.592,13.752 .36,3.564 0,6.12-.684,7.668l10.838.972z" stroke="#000" stroke-miterlimit="10" stroke-width=".036"/>
 <path d="m196.456,212.058c-.864.216-2.018.288-3.168.216-1.188-.144-2.664-.324-4.141-.684 .827-2.16 1.188-4.536 1.079-7.416-.18-2.988-1.15-6.732-1.8-9.72-.792-3.096-1.368-6.048-2.268-7.884-.828-1.944-1.908-2.016-3.098-3.132-1.367-1.224-4.14-2.664-4.822-3.636-.757-1.044-.253-1.872.539-1.944 .611-.108 2.195.72 3.637,1.512 1.512.756 4.5,3.132 5.076,2.952 .396-.324-1.62-3.06-2.306-4.464-.862-1.512-2.052-3.492-2.016-4.14 .036-.756 1.368-.828 2.483-.072 1.009.648 2.916,3.06 3.779,4.464 .756,1.332.108,3.276.686,3.744 .358.252 1.764-.144 2.124-1.584 .252-1.44-.108-5.112.035-6.732 .145-1.764.505-3.204.937-3.492 .468-.288.972.252 1.656,1.62 .432,1.26.756,5.004 1.402,5.94 .505.72 1.262.396 2.27-.828 .936-1.296 2.483-5.652 3.527-6.408 .863-.792 2.053.504 2.053,1.944-.146,1.368-1.226,3.816-2.124,6.228-1.008,2.34-1.908,4.932-3.24,7.92 1.765-.576 3.276-1.008 4.536-1.296 1.296-.396 2.16-.792 3.023-.648 .792.072 1.691.54 1.584,1.26-.359.576-1.477,1.908-2.916,2.484-1.439.504-3.239.612-5.545.468-.574,1.548-.936,4.104-1.476,8.064-.535,3.888-1.039,8.928-1.506,15.264z" fill="#e2b79c" stroke="#000" stroke-miterlimit="10" stroke-width=".036"/>
 <path d="m194.691,188.838c.145.792.035,1.764-.181,2.772-.288.972-.756,2.088-1.403,3.348 1.225.324 2.088.036 2.735-.468 .504-.72 1.152-2.124.973-3.096-.18-.936-.936-1.836-2.124-2.556z" stroke="#000" stroke-miterlimit="10" stroke-width=".036"/>
 <path d="m278.751,270.126c1.188,2.196 2.34,4.032 3.456,5.508 1.044,1.296 1.656,2.018 3.24,3.132 1.619,1.152 3.96,3.024 6.19,3.674 2.16.538 4.429-.108 6.408-.434 1.8-.468 3.061-1.872 4.607-2.124 1.585-.432 3.491-.358 4.607.216 .938.576 1.872,1.908 1.44,3.602-.54,1.69-2.34,5.146-4.032,6.479-1.764,1.188-3.78,1.332-6.192.576-.684,2.376-1.548,4.248-2.592,5.616-1.188,1.332-2.7,2.16-3.852,2.483-1.188.287-2.196.071-3.024-.647-.468,1.224-1.08,1.764-1.979,1.62-.938-.18-2.018-1.044-3.386-2.592-1.871.61-3.096.792-4.212.396-1.044-.468-1.69-1.438-2.088-2.628-.646-1.26-.936-3.456-.864-4.5 .072-1.08.54-1.8 1.404-2.016v-4.284c-2.016-2.088-3.744-4.176-5.184-6.696-1.514-2.52-2.593-5.184-3.528-8.136l9.581.755z" stroke="#000" stroke-miterlimit="10" stroke-width=".036"/>
 <path d="m278.463,271.134c.9,1.944 2.304,3.89 4.068,5.688 1.69,1.872 4.392,3.924 6.442,5.184 1.944,1.08 3.35,1.729 5.616,1.656 2.232-.216 5.58-1.836 7.524-2.34 1.764-.612 2.34-.828 3.384-.648 .936.182 2.483.864 2.7,1.908 .106.972-.54,2.521-1.404,3.816-.937,1.188-2.628,2.808-3.672,3.49-1.152.54-1.729.288-2.7.072-1.044-.396-2.16-.899-3.348-1.908 .216,1.656.07,3.313-.288,4.682-.434,1.366-1.261,2.734-2.088,3.708-.974.827-2.376,1.619-3.386,1.548-1.079-.146-2.446-1.188-2.986-2.305-.686-1.297-1.261-3.779-.9-4.933 .36-1.332 1.98-2.52 2.916-2.196 .756.434 1.368,3.996 1.836,4.465 .396.359.864-1.477.576-2.447-.504-1.116-1.836-3.672-2.88-3.924-1.008-.36-2.16.287-3.313,1.942-.432-.323-.898-.576-1.548-.756-.72-.288-1.764-.576-2.304-.432-.648.144-.864.575-1.044,1.296-.468-.792-.864-1.226-1.332-1.296-.504-.182-.972.036-1.404.504-.144-.828-.144-1.584 0-2.27 .036-.756.216-1.296.54-1.907-1.908-1.367-3.384-2.845-4.824-4.823-1.438-1.944-2.556-4.177-3.491-6.696l7.31-1.078z" fill="#e2b79c" stroke="#000" stroke-miterlimit="10" stroke-width=".036"/>
 <path d="m288.076,296.946c.252.828.144,1.296-.182,1.548-.432.18-1.296.252-2.052-.216-.864-.648-1.943-1.802-2.556-3.062-.612-1.332-1.116-3.456-.973-4.57 0-1.226.433-2.412 1.151-2.448 .72-.108 1.548.468 2.916,1.872-.18,1.62-.107,2.952.216,4.14 .327,1.152.688,2.016 1.48,2.736z" fill="#e2b79c" stroke="#000" stroke-miterlimit="10" stroke-width=".036"/>
 <path d="m282.711,296.334c-.756.396-1.477.396-2.017.396-.647-.108-1.115-.396-1.548-.864-.469-.54-.863-1.332-1.045-2.232-.287-1.008-.396-2.482-.18-3.312 .216-.9.685-1.514 1.404-1.692 .504-.216 1.332.072 2.088.72-.146,1.262-.108,2.306.107,3.564 .22,1.116.615,2.304 1.191,3.42z" fill="#e2b79c" stroke="#000" stroke-miterlimit="10" stroke-width=".036"/>
 <path d="m174.748,300.222c-.324-5.76.359-11.628 2.195-18.144 1.801-6.48 4.607-13.284 8.567-20.556-2.7-.722-4.932-1.55-6.552-2.772-1.692-1.26-3.528-2.124-3.42-4.392-.036-2.27.863-5.762 3.815-9.36 2.951-3.744 7.668-7.956 14.147-12.78 3.132-1.836 5.76-3.778 8.172-6.372 2.304-2.664 4.068-7.164 5.977-8.783 1.801-1.583 2.735-1.333 5.185-.611 2.376.611 4.212,2.016 9,4.606 4.752,2.594 13.464,8.316 19.332,10.944 5.796,2.484 11.771,3.168 15.156,4.392 3.238,1.188 3.384,1.908 4.606,2.988 1.225,1.044 2.232,2.16 2.593,3.204 .181.828-.181,1.656-1.225,2.196 3.456,3.274 6.516,6.264 9.18,9.358 2.593,2.916 4.32,5.186 6.589,8.604 2.195,3.348 4.5,7.271 6.769,11.771-.54,1.585-1.908,2.772-3.96,3.96-2.088,1.046-5.004,1.908-8.604,2.594-4.176-5.004-7.848-8.82-11.159-11.736-3.385-2.916-6.265-4.788-8.783-5.616-.828,2.232-1.908,4.429-3.385,6.588-1.549,2.16-3.313,4.284-5.579,6.372l-3.78-1.979c.216-.974.972-2.306 1.979-3.996 1.044-1.692 4.247-5.868 4.212-6.156-.252-.504-3.239,2.052-5.221,3.78-2.052,1.656-4.104,3.78-6.552,6.372l-6.588-.792c-.973,7.38-2.305,13.354-3.996,18.358-1.765,4.934-3.888,8.604-6.372,11.16-7.704-1.438-14.832-2.482-21.96-2.986-7.163-.576-13.751-.648-20.338-.216z" stroke="#000" stroke-miterlimit="10" stroke-width=".036"/>
 <path d="m187.708,262.53c4.607,2.268 9.899,4.284 16.164,6.19 6.264,1.836 13.067,3.492 20.952,4.97-.072,1.836-.828,5.11-2.412,9.972-1.656,4.824-3.854,10.979-6.984,18.756-3.852-.646-7.056-1.224-9.756-1.584-2.808-.432-4.752-.647-6.372-.792 1.008-7.344 1.225-11.052.792-10.979-.504.035-1.656,3.709-3.6,11.159-4.717-.504-8.568-.828-11.952-.972-3.349-.18-6.013-.18-7.992,0-.72-4.896-.072-10.224 1.8-16.38 1.799-6.156 4.967-12.888 9.36-20.34z" fill="#616161" stroke="#000" stroke-miterlimit="10" stroke-width=".036"/>
 <path d="m200.667,265.734c-4.212-1.332-7.884-2.736-11.557-4.212-3.743-1.585-8.425-3.24-10.151-4.97-1.8-1.836-1.62-3.492-.433-5.796 1.08-2.412 3.779-5.472 6.983-8.352 3.204-2.952 8.676-6.408 11.988-9 3.168-2.664 5.184-4.464 7.164-6.77 1.728-2.412 2.735-5.832 3.996-7.198 1.188-1.44 1.619-1.44 3.779-.974 2.123.396 5.185,1.584 9.181,3.564-.36,4.5-1.226,8.676-2.196,12.384-1.188,3.672-1.008,4.68-4.176,9.972-3.165,5.26-8.026,12.28-14.578,21.352z" fill="#f88011" stroke="#000" stroke-miterlimit="10" stroke-width=".036"/>
 <path d="m206.859,265.734c1.332-2.628 3.313-5.51 6.372-8.784 2.916-3.349 5.832-7.38 11.376-10.98 5.615-3.708 12.527-7.198 21.563-10.764 2.844.612 5.437,1.368 7.776,2.412 2.304,1.044 4.354,2.088 6.154,3.563-2.194,1.368-5.11,3.638-8.352,7.2-3.456,3.528-8.388,9.686-11.592,13.752-3.313,3.96-5.652,7.092-7.562,9.792-4.031.396-8.063-.036-12.384-1.008-4.351-1.043-8.707-2.771-13.351-5.183z" fill="#f88011" stroke="#000" stroke-miterlimit="10" stroke-width=".036"/>
 <path d="m243.58,274.302c.899-.898 2.088-2.376 3.563-4.57 1.44-2.196 3.168-5.112 5.186-8.604l-3.168-1.188c-.757,2.23-1.801,4.534-2.988,6.768-1.224,2.268-2.736,4.32-4.392,6.588 .573.322 1.186.646 1.799,1.006z" fill="#f88011" stroke="#000" stroke-miterlimit="10" stroke-width=".036"/>
 <path d="m259.527,245.79c2.593,1.476 4.969,3.204 6.983,5.184 1.98,1.944 2.557,2.7 5.185,6.589 2.557,3.779 6.013,9.107 10.368,16.129-1.08,1.548-2.341,2.698-3.779,3.6-1.549.828-3.276,1.296-5.186,1.404-1.979-3.313-4.932-6.624-9-10.368-4.176-3.78-9.106-7.562-15.336-11.772 1.656-3.168 3.385-5.58 5.186-7.38 1.836-1.838 3.599-2.918 5.579-3.386z" fill="#c9c7a1" stroke="#000" stroke-miterlimit="10" stroke-width=".036"/>
 <path d="m224.21 224.84c0.107 2.196-0.36 5.004-1.404 8.568-1.08 3.526-2.735 7.668-4.968 12.563 4.14-3.132 8.208-5.544 12.349-7.38 4.031-1.872 8.137-3.06 12.168-3.563-6.049-3.384-12.097-6.768-18.145-10.188z" fill="#c9c7a1" stroke="#000" stroke-miterlimit="10" stroke-width=".036"/>
 <path d="m192.891,233.622c-1.115-.54-2.124-2.988-3.168-7.2-1.008-4.354-2.052-10.332-2.987-18.324 .863-1.224 2.376-2.088 4.969-2.592 2.483-.612 5.76-.684 9.972-.612-.359,2.412-.252,4.752.612,7.164 .828,2.304 2.124,4.68 4.176,6.984-.828,3.456-2.304,6.336-4.572,8.784-2.306,2.448-5.258,4.284-9.002,5.796z" stroke="#000" stroke-miterlimit="10" stroke-width=".036"/>
 <path d="m204.483,220.662c-1.549,1.728-3.097,3.24-4.788,4.968-1.691,1.62-3.42,3.168-5.185,4.788-1.26-3.708-2.124-7.344-2.592-10.764-.468-3.492-.54-6.769-.216-9.972l6.982-1.98c-.504,1.512-.432,3.42.612,5.58 .939,2.16 2.667,4.572 5.187,7.38z" fill="#c9c7a1" stroke="#000" stroke-miterlimit="10" stroke-width=".036"/>
 <path d="m99.076,271.314c1.332.468 3.456,1.114 6.372,1.8 2.952.646 6.48,1.438 10.98,2.376-.972,1.296-1.692,2.734-2.016,4.606-.36,1.766-.468,3.816-.18,6.156l-5.4-2.16c-3.241-4.246-6.48-8.494-9.756-12.778z" stroke="#000" stroke-miterlimit="10" stroke-width=".036"/>
 <path d="m104.259,274.122 9.756,2.16c-.828.898-1.404,2.016-1.584,3.204-.288,1.26-.18,2.412.18,3.996l-3.168-.792c-1.728-2.844-3.456-5.688-5.184-8.568z" fill="#c9c7a1" stroke="#000" stroke-miterlimit="10" stroke-width=".036"/>
 <path d="m148.936,319.986c.108-3.816-1.44-6.77-4.788-9.396-3.456-2.592-10.152-4.066-15.372-5.976-5.292-1.98-10.476-3.854-15.948-5.761 1.764-1.188 2.988-2.305 3.384-3.203 .468-.974.252-.288-.792-2.412-1.26-2.232-3.456-6.77-6.192-10.548-2.88-3.854-7.56-10.116-10.152-11.988-2.556-1.908-3.492.324-5.184,1.008-1.836.648-2.664,2.196-5.4,2.988-2.916.684-7.56,1.08-11.16,1.584-3.564.288-7.308.468-9.972,1.224-2.736.792-4.752,2.052-6.192,3.78-1.548,1.728-3.708,4.5-2.592,6.372 .972,1.62 6.048,1.836 8.964,3.996 2.988,2.16 6.156,5.508 8.388,8.784 1.872,3.096 2.484,7.848 3.78,10.366 1.26,2.484 1.944,3.96 3.996,4.572 1.98.54 4.644.146 7.992-1.188 .288,2.446 2.304,4.932 5.76,7.596 3.564,2.664 8.424,5.256 15.156,8.172 4.896-1.728 10.26-3.348 16.38-5.004 6.084-1.69 12.635-3.346 19.944-4.966z" stroke="#000" stroke-miterlimit="10" stroke-width=".036"/>
 <path d="m113.439,294.462c-1.692-3.852-3.744-7.271-6.012-10.8-2.412-3.564-5.472-8.28-7.776-9.972s-4.032-.828-5.76-.182c-1.944.468-3.888,1.478-5.004,3.602-1.08,2.124-1.944,5.938-1.188,9.358 .576,3.35 3.096,7.488 5.184,10.766 2.052,3.204 4.392,6.012 7.164,8.566 1.224-.756 2.952-2.124 5.184-3.96 2.232-1.942 4.969-4.354 8.208-7.378z" fill="#f88011" stroke="#000" stroke-miterlimit="10" stroke-width=".036"/>
 <path d="m97.275,306.81c.612,2.196-2.088,2.378-3.816,3.602-1.908,1.116-5.004,3.204-6.768,3.204-1.692-.036-2.196-1.044-3.6-3.42-1.548-2.558-3.204-7.956-5.364-11.34-2.34-3.422-4.824-6.806-7.596-8.784-2.88-2.054-8.028-1.296-8.784-2.988-.684-1.872 2.808-6.084 4.788-7.38 1.908-1.296 3.708-1.512 6.804-.216 3.06,1.15 8.424,4.606 11.376,7.596 2.736,2.916 3.132,6.804 5.364,10.152 2.233,3.274 6.841,7.342 7.596,9.574z" fill="#f88011" stroke="#000" stroke-miterlimit="10" stroke-width=".036"/>
 <path d="m74.919,278.082c2.304,1.296 4.248,2.521 5.976,3.816 1.764,1.224 2.988,2.482 4.212,3.778-.216-2.34-.108-4.318.18-5.796 .288-1.584.828-2.664 1.62-3.384-3.995.506-7.991,1.046-11.988,1.586z" fill="#c9c7a1" stroke="#000" stroke-miterlimit="10" stroke-width=".036"/>
 <path d="m111.64,300.834c-1.26.648-3.276,1.836-6.192,3.996-2.916,2.052-6.588,4.788-11.16,8.352 .144,1.872 1.404,3.674 3.78,5.796 2.34,1.944 7.164,4.718 10.152,6.372 2.772,1.656 5.04,2.7 6.804,3.422l12.96-3.996c1.008-1.478.72-2.882-1.008-4.213-1.836-1.513-9.54-3.349-9.36-3.96 .216-.647 8.1-.505 10.584.575 2.376.974 3.636,2.88 3.78,5.58 2.808-.61 5.328-1.008 7.956-1.584 2.556-.611 4.968-1.008 7.38-1.584-.108-3.348-1.764-6.12-4.968-8.172-3.24-2.124-9.324-2.664-14.364-4.392-5.256-1.8-10.477-3.816-16.344-6.192z" fill="#616161" stroke="#000" stroke-miterlimit="10" stroke-width=".036"/>
 <path d="m168.09 298.82c-3.636-0.288-9 0.216-16.488 1.512-7.56 1.224-18.144 2.844-28.008 5.976s-21.564 7.452-30.528 12.528c-9.036 4.932-16.56 10.548-23.004 16.992 21.96 12.204 40.428 25.056 56.52 38.988 16.056 13.968 28.728 28.366 38.988 44.026 25.848-7.02 47.988-14.328 67.536-22.5 19.478-8.208 35.316-16.739 48.492-26.026 1.477-2.342 3.313-5.868 5.508-10.98 2.16-5.184 4.608-11.556 7.488-19.512-9.324-9.146-19.548-16.416-31.5-22.5-11.988-6.084-23.58-10.44-39.492-13.5-16.056-3.132-34.235-4.752-55.512-5.004z" stroke="#000" stroke-miterlimit="10" stroke-width=".036"/>
 <path d="m163.84 300.58c2.916 8.82 5.256 18.144 7.021 28.944 1.729 10.654 4.465 20.951 3.491 34.774-1.115 13.824-4.464 29.34-10.043 47.376l1.872 4.646 7.704-2.34c2.592-9.506 4.464-19.55 5.616-30.564 1.116-11.052 2.844-21.456 1.151-35.244-1.943-13.932-5.797-29.448-12.133-47.376l-4.679-0.216z" fill="#2cb0cf" stroke="#000" stroke-miterlimit="10" stroke-width=".036"/>
 <path d="m172.479,305.262c18.612.686 34.776,2.448 49.465,5.832 14.544,3.313 25.704,8.028 37.367,13.752 11.521,5.616 21.89,12.024 31.5,19.62l1.152-5.146c-15.336-11.916-29.592-20.664-43.884-26.82-14.221-6.084-28.009-7.704-40.824-9.576-12.96-2.016-24.84-2.628-36.18-2.124 .648,2.23 1.116,3.67 1.404,4.462 .181.72.181.72 0,0z" fill="#2cb0cf" stroke="#000" stroke-miterlimit="10" stroke-width=".036"/>
 <path d="m161.5,300.798c-5.688.434-11.808,1.368-18.648,2.81-6.984,1.366-14.004,2.734-22.176,5.614-8.316,2.916-18.396,6.841-26.352,11.196-7.956,4.176-14.58,8.712-20.556,13.752l4.896,4.68c9.9-7.522 19.908-13.534 30.564-18.432 10.62-4.86 23.508-8.172 32.688-10.512 9.036-2.34 16.272-3.672 21.708-3.708-.685-1.8-1.405-3.6-2.124-5.4z" fill="#2cb0cf" stroke="#000" stroke-miterlimit="10" stroke-width=".036"/>
 <path d="m82.624 340c7.236-6.048 15.228-10.979 24.516-15.372s20.952-7.848 30.564-10.512c9.54-2.7 21.42-4.752 25.92-5.616 4.285-0.936 4.285-0.936 0 0 1.368 7.056 2.808 14.22 4.176 22.176 1.404 7.85 3.564 16.094 3.996 24.732 0.252 8.567-0.504 17.314-2.124 26.388-1.656 8.964-4.176 17.964-7.704 27.288-6.66-9.576-14.724-18.792-24.48-28.224-9.936-9.576-24.588-21.132-33.84-28.009-9.252-6.839-16.128-11.123-21.024-12.851z" fill="#fff" stroke="#000" stroke-miterlimit="10" stroke-width=".036"/>
 <path d="m175.288,308.754c11.195-.036 21.636.612 31.752,2.088 10.008,1.368 19.115,3.602 28.438,6.553 9.288,2.915 17.856,6.371 27.072,11.195 9.145,4.824 18.072,10.514 27.324,17.496l-9.36,22.176c-18.18,10.044-35.388,18.576-52.739,26.138-17.353,7.486-33.876,13.5-50.399,18.432 2.016-8.748 3.527-18.036 4.68-28.008 1.152-10.044 2.845-19.044 1.872-31.716-1.224-12.818-3.961-27.326-8.64-44.354z" fill="#f0ebe6" stroke="#000" stroke-miterlimit="10" stroke-width=".036"/>
 <path d="m96.627,409.806c12.276,9.792 18.144,12.528 37.368,16.094 19.332,3.526 57.457,5.866 78.876,3.96 21.275-1.944 35.964-9.252 48.06-15.408 11.988-6.156 13.86-18.036 23.58-21.24 9.721-3.096 20.952-2.268 34.309,2.592 .469-6.84-.504-11.16-3.061-13.536-2.628-2.268-6.695-2.446-12.348-.252-2.988-2.304-2.196-4.318 2.088-6.048 4.392-1.764 12.132-3.24 23.796-4.428-9.685-7.128-17.641-10.692-24.264-10.98-6.624-.252-11.629,2.81-15.156,9.324-9.108-3.348-16.776-5.076-23.58-5.58-6.876-.54-11.7.252-16.813,2.772-5.111,2.556-9.575,6.552-13.535,12.384-.434-3.024-2.484-4.536-6.301-4.68-3.961-.146-10.729.684-16.561,3.996-5.724,3.203-10.872,9.504-17.964,15.154-7.236,5.616-15.588,11.594-25.2,18.217-3.132-6.589-6.588-12.455-10.512-17.747-4.068-5.328-9.072-11.846-13.068-14.006-4.032-2.122-7.56-1.942-10.728.938-2.268-6.768-4.86-12.708-8.172-17.964-3.348-5.292-7.812-12.168-11.448-13.536-3.672-1.404-7.164.252-10.476,5.112-1.044-4.248-4.032-8.138-9.36-11.664-5.436-3.672-13.176-8.424-22.392-9.792-9.396-1.368-22.644.144-32.652,1.62-9.972,1.332-19.764,2.664-26.604,6.768-6.948,4.14-11.628,10.08-14.472,17.964 3.744-2.988 7.344-4.066 10.944-3.24s10.296,3.602 10.512,8.174c.072,4.5-3.096,10.8-9.792,18.898 14.184-5.688 27.108-3.528 39.42-3.06 12.312.54 15.984,8.352 27.792,16.596 11.775,8.206 5.475,2.771 17.714,12.598z" stroke="#000" stroke-miterlimit="10" stroke-width=".036"/>
 <path d="m167.583,417.726c8.027-5.724 15.731-11.592 23.796-17.747 8.028-6.229 16.884-15.371 23.796-19.115 6.769-3.89 13.896-5.796 16.813-3.492 2.7,2.34 1.943,12.24.253,17.496-1.729,5.146-5.112,9.324-10.297,13.066-4.429-3.06-8.531-4.354-12.601-3.742-4.032.54-4.824,4.644-11.664,7.02-7.019,2.267-16.956,4.392-30.096,6.514z" fill="#7fc0db" stroke="#000" stroke-miterlimit="10" stroke-width=".036"/>
 <path d="m237.135,382.734c2.053-4.068 5.112-7.346 9.324-9.828 4.176-2.628 9.899-4.608 15.624-5.364 5.508-.792 13.176.072 17.748.937 4.536.757 8.244,1.943 9.576,3.995 1.26,1.98 2.446,5.544-1.872,7.92-4.536,2.306-15.444,3.276-24.518,5.832-9.144,2.484-18.792,5.474-29.628,9.108 1.836-2.7 3.132-4.86 3.744-7.02 .615-2.088.615-3.996.002-5.58z" fill="#7fc0db" stroke="#000" stroke-miterlimit="10" stroke-width=".036"/>
 <path d="m292.431,370.818c.469-2.81 1.801-4.824 4.429-6.049 2.521-1.261 6.372-2.195 10.729-1.403 4.248.646 9.107,2.556 14.725,5.58-6.731.646-11.735,1.584-15.408,2.808-3.743,1.116-5.473,2.27-6.3,4.428-.863,2.054-.396,4.824 1.403,8.174 2.017-1.01 4.248-1.44 6.3-1.152 2.089.18 5.112,1.08 6.301,2.556 1.188,1.368 1.367,3.313.685,5.832-3.96-1.656-8.028-2.592-12.349-2.808-4.319-.324-7.487.646-13.535,1.402-6.301.722-21.673,3.674-23.328,3.024-1.584-.828 9.575-5.76 13.752-7.452 4.067-1.654 8.027-1.15 10.512-2.808 2.232-1.944 3.168-5.832 3.492-7.92 .321-2.124-.148-3.384-1.408-4.212z" fill="#7fc0db" stroke="#000" stroke-miterlimit="10" stroke-width=".036"/>
 <path d="m166.647,426.582c-17.641-1.368-31.789-3.492-43.417-6.768-11.556-3.313-17.712-7.562-25.668-12.602-8.136-5.184-15.876-13.176-22.392-17.712-6.48-4.608-9.792-7.704-16.344-9.576-6.732-1.836-14.328-2.304-23.328-1.402 9.504-1.44 17.964-3.024 25.668-4.896 7.74-1.908 16.38-3.96 20.088-6.3 3.456-2.484 1.764-5.328.9-7.704-.936-2.376-2.988-4.428-6.3-6.3 4.428.036 8.82.216 13.32.684 4.5.434 8.964,1.008 13.536,1.872-4.716,7.38-7.272,13.032-7.956,17.496-.684,4.428.648,7.128 3.996,8.64 3.42,1.296 12.924-1.69 15.876-.216 2.664,1.404-1.08,6.624.432,8.856 1.44,2.16 4.248,3.384 8.424,3.96-.432,7.848 1.044,12.814 4.428,15.19 3.384,2.16 12.384-2.376 15.876-1.402 3.276,1.044 2.484,6.12 4.428,7.451 1.836,1.079 3.888-1.297 6.984-.469 3.024.864 6.84,2.521 11.448,5.364 17.641-3.996 29.987-7.056 37.584-9.324 7.345-2.412 4.752-4.14 7.235-4.212 2.521-.036 5.112,1.296 7.92,3.996 4.5-.646 8.064-2.088 10.98-4.464 2.808-2.376 4.823-5.688 6.048-9.792 4.536-1.584 9.18-3.348 14.472-4.896 5.185-1.584 10.656-3.348 16.562-4.896-7.093,4.284-9.686,7.056-7.921,8.172 1.801,1.116 7.849.648 18.433-1.404-2.16,4.646-6.408,9.108-12.601,13.536-6.336,4.356-15.372,9.072-24.731,12.602-9.433,3.384-19.188,6.768-31.5,7.92-12.456,1.08-26.387.612-42.48-1.404z" fill="#1c7ab5" stroke="#000" stroke-miterlimit="10" stroke-width=".036"/>
 <path d="m167.799,411.678c-.324-3.132-5.796-9.468-9.324-14.004-3.672-4.536-8.28-10.26-11.88-12.6-3.744-2.305-6.696-2.376-9.828-1.188-3.204,1.116-7.812,4.142-9.108,7.956-1.404,3.816-1.656,12.168 1.188,14.222 2.844,1.728 12.348-3.996 15.876-3.024 3.312.936 2.736,7.271 4.644,8.855 1.98,1.439 5.148-.685 7.02,0 1.62.647 1.62,3.385 3.492,3.491 1.909,0 8.064-.864 7.92-3.708z" fill="#7fc0db" stroke="#000" stroke-miterlimit="10" stroke-width=".036"/>
 <path d="m131.188,379.242c-.216-3.672-1.584-7.344-3.96-11.448-2.484-4.212-7.236-10.908-10.512-12.852-3.384-1.872-6.516-.757-9.108,1.402-2.628,1.98-5.4,6.984-6.516,10.729-1.296,3.672-3.528,9.288-.468,11.448 3.168,1.906 16.164-.47 19.116.936 2.7,1.548-3.132,5.76-2.34,7.92 .864,2.088 3.132,3.313 7.236,4.212 .756-3.24 1.692-5.832 2.808-7.92s2.267-3.563 3.744-4.427z" fill="#7fc0db" stroke="#000" stroke-miterlimit="10" stroke-width=".036"/>
 <path d="m103.396,354.006c-3.924-5.076-8.388-8.854-13.536-11.88-5.292-2.988-9.792-4.932-17.244-5.832-7.56-1.044-19.26-.646-27.324.216-8.136.828-15.48,2.988-20.772,4.682-5.292,1.618-8.064,2.698-10.944,4.896-3.024,2.124-5.184,4.646-6.768,7.704 4.068-.288 7.2-.108 9.792.684 2.484.686 3.996,1.836 5.364,3.744 1.26,1.872 2.16,4.32 2.556,7.488 4.068-5.796 9.936-10.044 17.748-12.6 7.884-2.7 18.504-3.204 28.944-3.062 10.331.108 20.735,1.476 32.184,3.96z" fill="#7fc0db" stroke="#000" stroke-miterlimit="10" stroke-width=".036"/>
 <path d="m24.771 368.95c-0.468 1.224-1.044 2.628-1.872 4.212s-1.836 3.204-3.024 5.146c3.816-1.188 10.368-2.698 20.052-4.68 9.684-2.052 32.436-3.996 37.584-7.236 4.824-3.456-3.06-10.224-7.704-12.384-4.788-2.088-13.572-1.438-19.836 0-6.336 1.368-13.068 5.58-17.28 8.172-4.212 2.45-6.803 4.754-7.92 6.77z" fill="#7fc0db" stroke="#000" stroke-miterlimit="10" stroke-width=".036"/>
 <path d="m78.195,340.254c1.62-.864-7.668-1.438-12.6-1.872-4.932-.54-10.584-1.296-16.56-.468-6.192,1.008-16.416,3.744-19.152,5.832-2.628,1.764-.756,5.544 3.528,5.364 4.212-.288 13.86-5.004 21.456-6.518 7.488-1.51 21.421-1.69 23.328-2.338z" fill="#f0ebe6"/>
 <path d="m54.868,356.13c-3.384-.252-6.372.324-9.108,1.872-2.88,1.512-7.956,6.516-7.452,7.236 .54.468 6.336-2.448 10.728-3.744 4.356-1.296 9.144-2.664 14.94-3.96-3.024-.468-6.049-.936-9.108-1.404z" fill="#e1ddd8"/>
 <path d="m121.828,364.518c-1.008-1.654-2.916-5.146-4.896-6.048-2.196-.936-5.328-1.402-7.452.686-2.196,2.088-5.796,10.836-5.364,11.664 .396.574 4.536-6.948 7.704-7.452 3.132-.54 9.18,4.176 10.944,4.428 1.548.034.071-1.658-.936-3.278z" fill="#e1ddd8"/>
 <path d="m153.111,396.018c-2.7-4.282-5.4-6.946-8.388-8.388-3.024-1.438-7.164-1.438-9.36,0-2.232,1.404-3.42,4.032-3.708,8.172 1.476-3.563 4.068-4.932 8.172-3.96 4.032.938 9.18,4.068 15.84,9.54-.828-1.764-1.691-3.564-2.556-5.364z" fill="#f0ebe6"/>
 <path d="m205.635,391.374c5.76-4.968 10.584-8.244 14.473-9.828 3.815-1.656 7.235-1.476 8.604.252 1.26,1.729 1.08,5.148-.685,10.26-.359-3.814-2.341-5.76-6.084-5.832-3.852-.072-9.108,1.512-16.308,5.148z" fill="#f0ebe6"/>
 <path d="m250.204,374.563c-.973-.792 7.956-3.78 14.004-3.96 5.976-.288 20.664,1.402 21.708,2.304 .899.828-9.9,2.196-15.876,2.592-6.157.215-18.792-.145-19.836-.936z" fill="#f0ebe6"/>
 <path d="m314.354,367.326c.612-.9-5.256-1.584-8.172-1.62-2.987.036-8.279.72-9.071,1.62-.685.756 1.655,2.664 4.645,2.808 2.843-.144 11.771-2.052 12.598-2.808z" fill="#f0ebe6"/>
 <path d="m68.547,302.922c-.468,2.304-.648,4.934-.54,7.488 .036,2.52.504,5.364 1.008,8.136 .468,2.772 1.296,5.58 1.8,8.568 .324,2.952.432,6.912.756,8.964 .252,1.872.396,2.268 1.116,2.556 .756.216 2.304.288 3.096-.898 .684-1.296.972-3.528 1.008-6.696 1.224.828 2.376,1.26 3.456,1.296 1.008-.072 2.34-.864 2.736-1.404 .288-.684.144-1.8-.576-2.52-.756-.756-1.944-1.44-3.708-2.052 1.224.432 2.16.396 3.096.034 .864-.396 1.548-1.26 2.196-2.446 1.692-.288 2.556-.864 2.988-1.584 .324-.9-.072-2.306-.9-2.952-.972-.612-3.24.072-4.428-.434-1.26-.684-1.62-2.375-2.628-2.986-1.116-.648-2.124-.648-3.456-.396-.216-2.194-.252-4.536-.252-7.164 0-2.664.036-5.58.252-8.748-1.008,1.01-2.088,1.729-3.24,2.306-1.187.5-2.448.86-3.78.932z" stroke="#000" stroke-miterlimit="10" stroke-width=".036"/>
 <path d="m69.124,303.786c-.108,3.78-.036,7.056.216,9.972 .18,2.772.684,4.824 1.116,7.128 .36,2.196.936,4.068 1.296,6.444 .288,2.376.108,5.76.432,7.632 .216,1.62.576,2.376 1.08,2.7 .504.252 1.224-.072 1.728-.972 .324-1.08.648-3.24.576-4.97-.18-1.872-1.584-4.282-1.296-5.688 .252-1.44 1.044-2.232 2.916-2.664 1.8-.432 6.372.072 7.884-.288 1.368-.648 1.26-2.16.792-2.736-.576-.504-2.916-.106-3.96-.358-1.044-.396-1.764-1.226-2.448-1.801-.792-.611-.9-1.619-2.124-1.765-1.26-.252-5.076.648-5.472.612-.54-.18 2.268-.792 2.448-1.26 .036-.505-1.908-1.514-1.8-1.656 .072-.252.756.036 2.196.576-.288-.252-.54-1.368-.468-3.638 .036-2.268.108-5.544.504-9.827-1.692,1.079-2.988,1.907-3.888,2.341-.973.434-1.548.506-1.728.218z" fill="#e2b79c" stroke="#000" stroke-miterlimit="10" stroke-width=".036"/>
 <path d="m76.107,325.134c.828.54 1.584.686 2.412.828 .72.036 1.476-.216 2.268-.468 .648-.324 1.368-.792 2.016-1.404-1.656-.432-3.024-.432-4.104-.288-1.152.108-2.015.648-2.592,1.332z" fill="#e2b79c" stroke="#000" stroke-miterlimit="10" stroke-width=".036"/>
 <path d="m75.567,326.142c-.468.9-.576,1.908-.18,2.63 .252.684 1.296,1.476 2.16,1.979 .9.432 2.016.864 2.916.756 .648-.252 1.656-1.15 1.476-1.872-.18-.756-1.044-1.512-2.592-2.412-.576,0-1.224-.144-1.8-.288-.684-.217-1.296-.433-1.98-.793z" fill="#e2b79c" stroke="#000" stroke-miterlimit="10" stroke-width=".036"/>
 <path d="m62.355,288.414c-1.692.864-2.16,2.88-1.404,6.192 .648,3.312 2.52,7.774 5.616,13.534 .72.396 2.124.648 4.356.612 2.196-.072 5.076-.288 8.784-.792-.036-4.354-1.548-8.1-4.392-11.376-2.987-3.346-7.164-5.938-12.96-8.17z" stroke="#000" stroke-miterlimit="10" stroke-width=".036"/>
 <path d="m62.355,290.214c-.756.612-.684,2.27.216,4.968 .828,2.736 2.484,6.372 4.968,11.196 1.044.324 2.448.36 4.212.396 1.692-.108 3.744-.218 6.156-.612-1.404-5.076-3.348-8.928-5.976-11.556-2.663-2.736-5.76-4.068-9.576-4.392z" fill="#c9c7a1" stroke="#000" stroke-miterlimit="10" stroke-width=".036"/>
 <path d="m27.436,229.374c6.084-.432 12.96.18 20.772,1.692 7.776,1.366 15.408,3.274 25.812,7.271 10.404,3.96 20.484,6.66 35.928,16.849 15.372,10.188 33.624,24.589 55.584,43.775-1.764-27.504-3.78-53.604-6.192-79.704-2.448-26.244-4.644-49.212-8.244-75.708-3.708-26.604-8.712-58.752-13.5-82.008-4.932-23.292-9.972-41.76-15.516-56.52-11.88,8.352-23.832,21.672-36.828,40.788-13.068,19.188-30.564,49.392-40.392,72.972-9.72,23.508-15.192,48.096-17.964,66.816-2.917,18.505-2.736,32.905.54,43.777z" stroke="#000" stroke-miterlimit="10" stroke-width=".036"/>
 <path d="m31.863,224.046c5.688-.432 11.952.216 19.188,1.548 7.128,1.44 14.292,2.916 23.832,6.77 9.504,3.744 18.936,6.048 33.156,15.516 14.22,9.396 30.996,22.68 51.3,40.428 .468-23.11-.072-45.828-1.764-69.264-1.836-23.472-4.716-44.748-8.496-70.488-3.816-25.956-9.36-60.084-14.004-83.52-4.752-23.508-9.288-41.724-14.004-56.016-11.664,10.188-23.184,24.048-35.244,42.408-12.204,18.36-27.288,45.396-36.504,66.816-9.252,21.348-15.156,42.48-18.108,60.336-2.951,17.782-2.736,32.614.648,45.466z" fill="#2cb0cf" stroke="#000" stroke-miterlimit="10" stroke-width=".036"/>
 <path d="m34.383,236.898c2.052-6.444 5.58-11.988 8.28-13.788 2.736-1.802 3.492-2.412 6.804-2.88s5.904-1.262 9.432-.036c.972-4.032 3.852-6.336 6.588-8.244 2.7-1.908 6.264-1.836 9.54-1.836 3.24.036 7.128,1.62 10.368,3.492s8.208,5.184 10.836,7.166 1.368,1.26 4.752,4.606c3.42,3.313 6.3,6.552 8.676,10.08s4.644,6.804 5.472,10.836c.828,3.996.648,8.28-.54,13.068l-3.456-5.688c.18,1.729-.036,3.313-.504,4.752-.576,1.44-1.44,2.592-2.592,3.744 .468-1.224.432-2.23.288-3.312-.324-1.08-.756-2.089-1.692-3.024-.432,1.908-1.224,3.313-2.376,4.212-1.224.864-2.772,1.225-4.788,1.08-3.852,5.868-7.164,10.368-10.08,13.5-2.952,3.061-4.608,4.176-7.344,5.148-2.88.756-6.3,1.079-9.576.574-3.384-.468-6.804-1.366-10.404-2.986 .72,2.304 1.116,4.212.792,5.868-.216,1.618-1.152,2.734-2.412,3.636-1.656-.576-3.096-1.656-4.608-2.952-1.476-1.332-2.88-3.168-4.212-5.22 .972,2.376 1.98,4.248 3.024,6.012 1.008,1.62 1.944,2.952 2.952,3.996-1.584-.146-3.276-.828-5.472-2.196-2.16-1.403-4.608-3.348-7.344-5.976 1.26,2.23 2.376,4.212 3.492,5.796 1.152,1.512 1.98,2.771 3.024,3.636-2.664-.144-5.436-1.656-8.46-4.607-3.024-2.987-7.812-7.271-9.504-13.067s-1.8-10.478-1.332-19.548 .361-9.398 2.376-15.842z" stroke="#000" stroke-miterlimit="10" stroke-width=".036"/>
 <path d="m56.56,235.242c-.864,1.296-1.836,2.844-3.312,4.644-1.584,1.766-3.672,4.032-5.292,5.832-1.62,1.692-3.06,3.024-4.32,4.142 .648,2.916 1.908,6.048 3.636,9.106 1.8,3.132 4.14,6.552 6.732,9.434 2.412,2.771 5.472,5.508 7.92,7.234 2.268,1.62 4.032,2.088 6.408,2.664 2.376.468 5.652.54 8.028.504 2.232-.106 3.744-.288 5.796-1.114 2.088-1.01 4.104-2.054 6.444-4.248 2.16-2.27 5.292-6.05 7.02-8.856 1.656-2.772 2.772-4.68 3.204-8.1 .432-3.744.252-8.532-.54-13.248-.864-4.646-2.412-9.47-4.644-14.474 0,0-2.556-.898-5.04-.468s-3.924.108-6.084.324c-2.196.216-4.572,1.438-7.056,1.151s-4.14.757-7.668-.253c-3.528-1.044-6.12-2.915-6.12-2.915-1.693,2.881-3.384,5.761-5.112,8.641z" fill="#e2b79c" stroke="#000" stroke-miterlimit="10" stroke-width=".036"/>
 <path d="m54.724,248.67c1.764,3.24 3.24,5.328 4.572,6.372s2.448,1.404 3.276-.216c.828-1.656 2.124-6.624 1.692-9.576-.432-2.916-2.844-6.66-4.212-7.776-1.404-1.114-3.06.036-4.068,1.188s-1.62,3.023-1.908,5.652l.648,4.356z" stroke="#000" stroke-miterlimit="10" stroke-width=".036"/>
 <path d="m55.516,246.366c.612,0 1.368-.072 2.268-.216 .9-.182 1.908-.504 2.88-.828 .828-.36 1.584-.721 2.268-1.226-1.62-3.384-2.808-5.362-3.996-6.084-1.224-.72-2.304.396-2.844,1.836-.541,1.406-.828,3.53-.576,6.518z" fill="#fff" stroke="#000" stroke-miterlimit="10" stroke-width=".036"/>
 <path d="m59.764,248.598c-.252.54-.396,2.7 0,3.276 .36.54 1.62.144 2.232-.072 .432-.396.9-1.224.72-1.8-.396-.72-1.512-1.439-2.088-1.728-.541-.36-.829-.252-.864.324z" fill="#fff" stroke="#000" stroke-miterlimit="10" stroke-width=".036"/>
 <path d="m78.268,238.878c.684,3.24.864,5.508.576,6.984s-.864,2.376-2.376,1.728-5.256-3.274-6.66-5.508c-1.368-2.232-1.908-6.192-1.584-7.74 .324-1.584 2.088-1.764 3.456-1.548 1.332.216 2.808,1.116 4.536,2.772l2.052,3.312z" stroke="#000" stroke-miterlimit="10" stroke-width=".036"/>
 <path d="m76.396,237.762c-.468.36-.972.756-1.656,1.188-.792.288-1.656.792-2.448,1.08-.756.18-1.548.468-2.232.468-.936-3.132-1.152-5.328-.792-6.444 .288-1.188 1.8-1.044 2.988-.396 1.187.576 2.519,1.946 4.14,4.104z" fill="#fff" stroke="#000" stroke-miterlimit="10" stroke-width=".036"/>
 <path d="m75.063,241.182c-.072.612.18,2.664.612,3.24 .432.36 1.62-.072 2.16-.468 .432-.504.612-1.332.396-1.908-.324-.612-1.944-1.188-2.376-1.332-.503-.252-.863-.144-.792.468z" fill="#fff" stroke="#000" stroke-miterlimit="10" stroke-width=".036"/>
 <path d="m68.547,249.174c-.396,1.116-.54,4.176-.288,5.726 .072,1.402.288,2.808 1.62,2.844 1.368-.036 5.508-1.656 6.588-2.772 .9-1.26.36-3.168-.648-4.318-1.152-1.188-4.284-2.306-5.508-2.521-1.26-.327-1.476-.075-1.764,1.041z" stroke="#000" stroke-miterlimit="10" stroke-width=".036"/>
 <path d="m69.124,250.002c-.36.864-.432,3.384-.216,4.646 .144,1.188.072,2.23 1.296,2.304 1.116-.108 4.428-1.226 5.364-2.232 .72-1.044.36-2.592-.504-3.526-.864-1.044-3.564-1.872-4.5-2.054-.973-.326-1.26-.036-1.44.862z" fill="#e2b79c" stroke="#000" stroke-miterlimit="10" stroke-width=".036"/>
 <path d="m59.835,260.334c-.864,3.06-1.26,5.076-1.044,6.048 .144.828 1.26-.18 1.98-.396 .648-.324.576-.864 1.872-.792 1.188.106 2.88,1.402 5.22,1.654 2.232.146 5.58.253 8.244-.504 2.592-.828 5.4-2.052 7.164-4.354 1.656-2.448 2.664-5.832 2.88-10.152 1.656.468 2.52.54 2.592.216 .072-.432-1.404-1.548-2.34-2.23-1.152-.756-3.6-2.124-3.852-1.872-.324.18.54,1.152 2.304,3.06-.18,2.232-.864,4.284-2.052,6.553-1.296,2.125-3.204,5.111-5.436,6.479-2.304,1.188-5.58,1.26-8.028,1.188-2.52-.218-5.112-.974-6.516-1.729s-1.296-2.268-1.764-2.736c-.539-.541-.899-.685-1.224-.433z" stroke="#000" stroke-miterlimit="10" stroke-width=".036"/>
 <path d="m60.771,276.678c-1.98-1.548-3.78-3.096-5.544-4.932-1.944-1.872-3.564-3.816-5.148-5.832-1.476-2.196-2.772-3.78-3.888-6.552-1.296-2.772-2.52-5.978-3.672-9.756 .396-.182 1.296-.9 2.844-2.448 1.44-1.62 4.104-4.104 6.192-6.624 2.088-2.628 4.176-5.688 6.12-8.496 1.764-2.772 3.348-5.472 4.752-8.101-1.476-1.943-3.528-3.097-6.3-3.313-2.808-.288-7.488.072-10.296,1.62-2.952,1.439-5.148,3.78-7.02,7.02-2.016,3.134-3.384,7.416-4.392,11.736-.972,4.176-1.476,9.36-1.512,13.752-.252,4.394.036,8.894.432,12.24 .288,3.132.576,4.464 1.692,6.912 1.08,2.376 2.34,4.788 4.752,7.38 2.376,2.556 5.328,4.896 9.252,7.56-1.548-1.548-2.736-2.986-3.564-4.716-.9-1.728-1.368-3.492-1.548-5.436 1.404,1.438 2.988,2.664 4.896,4.212 1.908,1.402 3.96,2.916 6.444,4.392-1.944-1.62-3.168-3.42-3.816-5.004-.684-1.62-.792-3.42-.18-5.004 .828,1.332 1.944,2.771 3.492,4.176 1.512,1.44 3.312,2.844 5.544,4.356 .792-.648 1.224-1.656 1.296-3.168 .072-1.582-.251-3.526-.828-5.974z" fill="#b0722e"/>
 <path d="m57.748,225.054c.828-.106 2.268.182 4.32.864 1.98.612 5.04,2.7 7.92,3.204 2.844.36 5.868-.18 9.216-.504 3.276-.433 7.704-1.26 10.368-1.368 2.556-.072 4.104.144 4.788.792 .684.937 1.44,2.844 2.412,5.58 .972,2.844 2.664,6.372 3.276,10.979 .504,4.393.396,9.575-.18,15.553 1.728.18 3.06-.36 4.284-1.478 1.08-1.26 2.052-2.952 2.628-5.508 .648.9 1.26,1.872 1.692,2.916 .396,1.044.756,2.16.936,3.348 .432-1.15.684-2.34.9-3.563 .144-1.296.108-2.521.036-3.816 .756.434 1.512,1.188 2.124,1.98 .612.864 1.188,1.764 1.728,2.988 .432-2.196.504-4.5.216-7.058-.288-2.52-.576-5.184-1.98-8.136-1.656-3.24-4.428-6.912-7.2-10.332-2.844-3.42-6.12-7.021-9.288-9.685-3.312-2.771-6.696-4.787-9.864-6.587-3.204-1.872-5.76-3.888-9.072-4.248-3.528-.54-7.884-.684-11.124,1.656-3.277,2.343-5.941,6.483-8.136,12.423z" fill="#b0722e"/>
 <path d="m231.412,170.838c2.304-1.98 7.56.648 7.56.648s-1.26-4.356 1.044-4.464c2.341-.144 2.089-.432 4.646.036s2.447.252 5.398,1.26c2.916,1.044 6.444,1.836 10.478,3.492 3.996,1.692 3.96,1.764 6.048,2.844 2.052,1.08 3.744,2.592 4.859,3.708 1.115,1.08 3.204,4.104 4.212,6.12 1.009,1.98 1.872,3.492.647,6.588-2.483,6.408-3.132,8.136-5.184,9.864-.181.576-.434,1.044-.36,2.088s.072,2.088.072,2.088c1.439-1.26 2.628-1.944 3.563-2.088 .899-.144 1.331-.252 2.017,1.224 .684,1.476 2.628,4.356 2.052,7.596-.612,3.24-4.248,9.9-5.652,11.736-1.402,1.8-2.268,1.476-2.663-.972-1.584,3.06-3.349,5.472-5.473,7.38-2.088,1.872-4.319,2.628-7.056,3.778-2.7,1.188-6.77,2.124-9.181,3.168-2.376,1.044-2.952,2.736-5.075,3.098-2.196.358-5.148.144-7.74-.938-2.628-1.116-6.048-3.814-7.884-5.544-1.801-1.764-1.514-3.312-2.952-4.788-1.44-1.512-3.96-1.872-5.688-4.03-1.728-2.196-3.384-5.474-4.5-9-1.15-3.528-2.268-8.604-2.268-11.988 .036-3.348.792-6.012 2.34-8.064-1.26-.432-2.088-1.188-2.483-2.268-.396-1.116-.793-2.916.145-4.284s4.032-2.268 5.508-3.78c1.477-1.548 2.16-4.212 3.204-5.292 1.08-1.08 2.124-1.476 3.132-1.116 1.008.396 1.908,1.476 2.809,3.348-.288-2.34-.071-4.284.685-5.94 .787-1.656 1.471-3.528 3.74-5.508z" stroke="#000" stroke-miterlimit="10" stroke-width=".036"/>
 <path d="m244.695,183.186c-1.188-.108-2.269.072-3.672.396-1.368.324-2.916.792-4.5,1.548 .647-.936 1.548-1.764 2.699-2.628s2.341-1.656 3.96-2.376c-.72-.576-1.69-.756-2.771-.54-1.188.144-2.232.828-3.96,1.656-1.836.792-4.717,1.908-6.553,2.916-1.801.828-3.313,1.656-4.393,2.34 .288-1.296.324-2.268.108-3.348-.288-1.044-.828-2.52-1.478-2.88-.72-.504-2.088-.504-2.699.144-.685.648-.863,2.412-1.513,3.636-.828,1.08-1.908,2.16-3.096,3.096-1.296.9-3.168,1.332-3.816,2.268-.611.9-.036,2.016.36,2.916 .288.756.756,1.368 1.548,1.692 .72.144 1.872.036 3.168-.468 1.26-.612 3.853-2.628 4.284-2.592 .18.072-1.044,1.944-2.124,2.844-1.044.756-2.196,1.44-3.744,2.052-1.296,1.692-2.088,3.672-2.521,5.796-.469,2.124-.469,4.248 0,6.912 .433,2.484 1.225,5.868 2.377,8.352 .936,2.27 2.016,4.248 3.636,6.084 1.62,1.764 4.464,3.42 5.903,4.824 1.225,1.296.899,2.23 2.089,3.636 1.188,1.26 3.06,3.276 5.04,4.536 1.906,1.224 4.248,2.664 6.479,2.916 2.196.036 4.284-1.26 6.12-1.944 1.584-.684 2.124-1.15 3.853-1.8 1.729-.684 4.465-1.404 6.553-2.16 1.942-.684 3.708-1.368 5.436-2.34 1.62-1.152 3.204-2.7 4.608-4.354 1.403-1.802 2.808-4.753 3.779-5.798 .792-1.15 1.044-.646 1.296-.286 .107.358-.433,2.194-.107,2.592 .216.252.972.504 1.836-.612 .864-1.296 2.376-4.068 3.276-6.084 .792-1.944 1.512-3.672 1.476-5.58-.216-2.124-1.476-5.616-2.412-6.444-1.08-.828-2.124.396-3.132,1.584-.972,1.116-1.979,2.844-2.88,5.184 .324-3.348.756-6.156.899-8.568 .181-2.376.359-4.068.253-5.76-.146-1.872-.686-3.42-1.332-5.04l-1.766-1.044c.434.684.721,1.584.721,2.556 0,.936-.287,2.088-.721,3.312-.252-1.152-.684-2.088-1.296-3.096-.72-.936-1.62-1.944-2.7-2.736 .974,1.404 1.44,3.06 1.549,5.256 .035,2.124-.575,5.148-1.296,7.524-.792,2.34-1.943,5.04-3.456,6.444-1.691,1.26-4.429,1.692-5.867,1.296-1.478-.576-2.053-2.196-2.412-3.888-.434-1.728-.54-3.528.359-6.228 .863-2.808 2.699-6.264 5.221-10.512-.792.144-1.766.216-2.772.216-1.151-.108-2.195-.108-3.563-.396-.146,2.304-.505,4.536-1.226,6.84-.72,2.232-1.188,4.788-2.951,6.552-1.801,1.62-5.797,3.564-7.956,3.492-2.412-.252-4.717-2.124-5.509-4.212-.756-2.16 0-5.616 1.009-7.992 .973-2.376 2.845-4.212 4.788-5.904 1.871-1.692 3.924-3.204 6.3-4.392-.249-.47-.501-.938-.789-1.406z" fill="#e2b79c" stroke="#000" stroke-miterlimit="10" stroke-width=".036"/>
 <path d="m246.135,185.598c-1.116.468-2.16,1.116-3.275,1.944-1.225.828-2.341,1.836-3.491,3.024-1.261,1.188-2.196,2.448-3.35,3.924 1.872-.864 3.456-1.224 5.04-1.08 1.478.036 2.952.648 3.996,1.98 .9,1.224 1.549,3.312 1.801,5.868 .827-1.224 1.367-2.556 1.907-4.536 .469-1.944.792-4.212.973-6.948-1.115-.756-2.088-1.476-2.628-2.16-.612-.684-.937-1.404-.973-2.016z" fill="#fff" stroke="#000" stroke-miterlimit="10" stroke-width=".036"/>
 <path d="m253.263,201.798c.828-1.26 1.729-2.016 2.7-2.412 .972-.468 2.052-.072 2.952.072 .684.036 1.296.36 1.836.972 .432.576.792,1.548 1.08,2.772 1.26-2.268 1.836-4.5 1.872-6.552-.036-2.16-.648-4.14-1.836-6.084-.434-.036-1.009,0-1.584-.036-.648-.036-1.332-.108-2.053-.216-.937,1.404-1.729,2.664-2.377,3.924-.684,1.152-1.224,2.088-1.619,3.384-.467,1.224-.791,2.664-.971,4.176z" fill="#fff" stroke="#000" stroke-miterlimit="10" stroke-width=".036"/>
 <path d="m241.564,199.89c-.54.324-2.305,1.404-2.376,2.124-.181.612.863,1.368 1.477,1.584 .504.144 1.368-.216 1.764-.684 .181-.612.108-2.124-.071-2.592-.11-.612-.326-.756-.794-.432z" fill="#fff" stroke="#000" stroke-miterlimit="10" stroke-width=".036"/>
 <path d="m258.051,205.902c-.54.324-2.304,1.404-2.376,2.124-.18.54.864,1.332 1.477,1.548 .504.072 1.368-.144 1.765-.648 .216-.612 0-2.124-.108-2.592-.109-.612-.361-.756-.758-.432z" fill="#fff" stroke="#000" stroke-miterlimit="10" stroke-width=".036"/>
 <path d="m233.104,213.318c-.433-.108-1.477.216-2.735.684-1.44.396-4.429.864-5.076,1.404-.648.324.684.756 1.476,1.15 .686.324 2.124.504 2.81,1.368 .504.938.358,2.16.972,3.816 .54,1.548 1.225,3.6 3.023,5.328 1.801,1.62 5.363,4.031 7.775,4.606 2.232.396 5.186-1.188 5.94-1.69 .576-.576-.181-1.116-1.44-1.226-1.224-.18-3.96,1.009-5.724.504-1.98-.72-3.924-2.016-5.437-3.888-1.439-1.979-3.097-5.328-3.313-7.128-.324-1.8 1.008-2.844 1.368-3.564 .253-.788.648-1.292.361-1.364z" stroke="#000" stroke-miterlimit="10" stroke-width=".036"/>
 <path d="m259.635,219.474c-.468.505-1.584,2.521-1.836,3.708-.288,1.044-.468,2.196.036,2.916 .396.54 2.124,1.152 2.412.864 .18-.396-1.478-1.438-1.368-2.592-.072-1.296 1.152-3.276 1.296-4.14 .109-.864-.216-1.296-.54-.756z" stroke="#000" stroke-miterlimit="10" stroke-width=".036"/>
 <path d="m226.408,198.378c-.324.144-.792,3.312-1.549,4.5-.899,1.152-1.872,1.908-2.916,2.412-1.151.324-3.385.036-3.203.252 .106.252 3.022,1.656 4.318,1.152 1.226-.72 2.628-3.312 3.24-4.716 .541-1.476.253-3.78.11-3.6z" stroke="#000" stroke-miterlimit="10" stroke-width=".036"/>
 <path d="m243.255,210.402c-1.296.936-3.132,2.844-3.996,4.32-.972,1.404-1.439,2.52-1.26,3.744 .144,1.008 1.8,2.018 2.483,2.736 .575.684.396,1.26 1.261,1.584 .827.324 2.699.324 3.814.54 1.044.18 2.089.936 2.845.324 .685-.938 1.261-3.564 1.439-4.97 .036-1.548-.792-2.23-.828-3.418-.144-1.296 1.08-2.412.612-3.492-.504-1.08-2.376-2.304-3.384-2.556-1.114-.324-1.833.216-2.986,1.188z" stroke="#000" stroke-miterlimit="10" stroke-width=".036"/>
 <path d="m243.471,211.374c-1.008.792-2.556,2.34-3.239,3.528-.792,1.116-1.188,2.088-1.044,3.06 .181.864 1.331,1.548 1.943,2.196 .36.576.36,1.008.972,1.296 .722.216 2.018.252 3.062.396 .828.146 1.62.722 2.23.218 .576-.648.974-2.916 1.188-4.032 0-1.226-.576-1.872-.612-2.772-.071-1.08.792-1.98.504-2.844-.432-.864-1.836-1.872-2.664-2.052-.863-.218-1.512.214-2.34,1.006z" fill="#e2b79c" stroke="#000" stroke-miterlimit="10" stroke-width=".036"/>
 <path d="m222.843,187.506c.36-.648.973-2.16 1.008-2.88-.106-.756-.646-1.692-1.188-1.548-.612.072-1.404,1.332-2.232,2.268-.898.864-2.771,2.124-3.132,2.952-.432.72-.216,1.476.36,1.44 .358-.288 1.728-1.512 2.447-2.304 .721-.828 1.765-2.412 2.017-2.232 .18.036-1.044,2.7-.9,3.132 .072.288 1.116-.18 1.62-.828z" stroke="#000" stroke-miterlimit="10" stroke-width=".036"/>
 <path d="m272.416,211.878c.468-.54 1.044-1.944 1.438-1.728 .182.108.288,1.692.324,2.808-.036,1.044-.756,3.708-.359,3.672 .288-.18 2.231-3.276 2.341-4.572 .035-1.404-1.549-3.024-2.124-3.348-.721-.396-1.549.396-1.944,1.116-.468.756-1.188,2.448-1.044,2.988-.001.216.827-.468 1.368-.936z" stroke="#000" stroke-miterlimit="10" stroke-width=".036"/>
 <path d="m228.387,183.798c-.324-.648-.468-1.512-.432-2.736-.072-1.332.144-3.096.646-4.608 .612-1.62 1.656-3.528 2.736-4.464 .864-.936 1.477-1.224 2.809-1.008 1.332.144 3.42.936 4.896,2.232 1.332,1.296 2.412,3.24 3.24,5.688-1.368-.432-2.772-.504-4.356.072-1.62.504-3.6,2.16-5.111,3.024-1.62.756-3.096,1.404-4.428,1.8z" fill="#f7f619" stroke="#000" stroke-miterlimit="10" stroke-width=".036"/>
 <path d="m271.12,199.422c.288-.252.756-.792 1.26-1.62 .396-.9 1.152-2.016 1.691-3.492 .576-1.512 1.439-3.888 1.62-5.58 .035-1.8-.217-3.06-1.439-5.04-1.404-2.124-2.88-5.004-6.372-7.236-3.563-2.412-10.872-4.86-14.832-6.372-4.176-1.548-7.056-2.232-9.18-2.484-2.124-.36-2.558.036-3.24.648-.756.54-1.62.972-1.08,2.7 .433,1.62 2.484,5.076 3.672,7.164 1.044,1.908 1.656,3.528 2.521,5.004 .61,1.512 1.331,2.628 2.016,3.744 .647.972 1.332,1.692 2.448,2.16 1.08.36 2.268.468 4.104.468 1.765,0 4.284-.18 6.301-.144 1.907-.108 3.673-.036 5.292.216 1.549.324 2.809.828 3.925,1.656 .468.648.756,1.548 1.008,2.988 .176,1.404.32,3.096.285,5.22z" fill="#f7f619" stroke="#000" stroke-miterlimit="10" stroke-width=".036"/>
</svg>
