<?xml version="1.0" encoding="UTF-8"?>
<svg viewBox="0 0 418.948 417.10498" xmlns="http://www.w3.org/2000/svg" xmlns:xlink="http://www.w3.org/1999/xlink">
 <defs>
  <linearGradient id="b">
   <stop stop-color="#4de543" offset="0"/>
   <stop stop-color="#358623" offset="1"/>
  </linearGradient>
  <linearGradient id="d" x1="107.52" x2="261.97" y1="153.29" y2="87.059" gradientUnits="userSpaceOnUse" xlink:href="#b"/>
  <linearGradient id="c" x1="397.24" x2="315.4" y1="240.99" y2="136.84" gradientUnits="userSpaceOnUse" xlink:href="#b"/>
  <radialGradient id="a" cx="176.41" cy="159.24" r="16.521" gradientTransform="matrix(-1.4965 0 0 -1.3949 439.26 384.89)" gradientUnits="userSpaceOnUse">
   <stop stop-color="#e0b3ff" offset="0"/>
   <stop stop-color="#6d1fc5" offset=".22519"/>
   <stop stop-color="#2a1d44" offset=".75968"/>
   <stop stop-color="#5500b4" offset="1"/>
  </radialGradient>
 </defs>
 <g transform="translate(-28.156 -30.989)" fill-rule="evenodd">
  <path d="m292.95 106.2c4.5515 5.2407 10.495 9.9751 20.554 13.213l0.48937-5.3831c6.002-1.0029 11.142 3.1688 16.149 8.1306 16.717-0.31564 40.174 12.911 54.321 24.168-6.284 0.84397-12.801 1.6031-13.703 4.4044 2.2206 6.1374 14.041 9.6266 30.831 11.745 7.6786 2.6548 15.327 6.0365 22.511 20.554-10.145-2.3192-14.659-1.51-20.554-1.4681 8.8901 4.4834 17.998 10.932 26.426 11.256 3.5776 5.3016 7.4062 12.16 9.236 23.476 1.2033 7.4416 7.8155 15.113 7.8921 22.036-5.2366 1.0173-14.842-6.1484-19.575-5.3831 2.8914 6.2535 5.3394 12.562 12.115 18.33 3.6152 11.044 2.0689 21.689-0.95974 31.144-2.5677 8.0166-3.7202 15.803-7.0245 18.591-4.6504-8.4104-12.287-16.239-18.812-19.128l-0.75534 8.0109c-10.572-0.58348-18.9-2.2321-26.985-10.277 0.24368-4.4374-0.4122-6.5155-2.6011-11.926-11.049-4.2774-35.592-6.1026-38.661-19.086-3.1852-1.3565-5.0188 6.6845-3.4256 8.8088-13.544 0.2324-19.462-6.3981-23.001-15.171-2.3332-7.8448-1.7642-17.029 2.4469-27.894-7.5038 4.4183-15.008 11.009-22.511 7.83-3.4429-7.9273-5.9464-16.481-4.8938-27.405 1.4484-5.0569 3.4511-10.114 5.3831-15.171-4.868 1.8973-7.7326 10.675-13.703 9.2982-1.0655-8.1494-1.4453-17.213 0.48936-29.363 0.87052-8.8804 3.0204-15.629 5.3832-22.022-2.2838-1.387-4.5675-3.9072-6.8513-8.8088 3.4282-1.3094 5.3875-0.17036 7.3406 0.97875-3.7618-9.0802-3.7161-16.43-1.9575-23.001l4.4044-0.48937z" fill="url(#c)"/>
  <path transform="matrix(1.66 -.34652 .34652 1.66 -166.01 118.21)" d="m187.89 168.24a16.521 16.521 0 1 1 -33.042 0 16.521 16.521 0 1 1 33.042 0z" fill="url(#a)"/>
  <path transform="matrix(1.6084 .53736 -.53736 1.6084 -27.589 -12.506)" d="m187.89 168.24a16.521 16.521 0 1 1 -33.042 0 16.521 16.521 0 1 1 33.042 0z" fill="url(#a)"/>
  <path transform="matrix(1.593 .58138 -.58138 1.593 -2.523 31.389)" d="m187.89 168.24a16.521 16.521 0 1 1 -33.042 0 16.521 16.521 0 1 1 33.042 0z" fill="url(#a)"/>
  <path transform="matrix(.94565 -1.4077 1.4077 .94565 -175.15 502.21)" d="m187.89 168.24a16.521 16.521 0 1 1 -33.042 0 16.521 16.521 0 1 1 33.042 0z" fill="url(#a)"/>
  <path transform="matrix(.70968 -1.5402 1.5402 .70968 -161.38 399.89)" d="m187.89 168.24a16.521 16.521 0 1 1 -33.042 0 16.521 16.521 0 1 1 33.042 0z" fill="url(#a)"/>
  <path transform="matrix(.79451 -1.4982 1.4982 .79451 -137.48 398.16)" d="m187.89 168.24a16.521 16.521 0 1 1 -33.042 0 16.521 16.521 0 1 1 33.042 0z" fill="url(#a)"/>
  <path transform="matrix(1.2539 -1.1417 1.1417 1.2539 -181.75 324.03)" d="m187.89 168.24a16.521 16.521 0 1 1 -33.042 0 16.521 16.521 0 1 1 33.042 0z" fill="url(#a)"/>
  <path transform="matrix(1.6922 .1112 -.1112 1.6922 -75.917 47.819)" d="m187.89 168.24a16.521 16.521 0 1 1 -33.042 0 16.521 16.521 0 1 1 33.042 0z" fill="url(#a)"/>
  <path transform="matrix(.087855 -1.6935 1.6935 .087855 -50.981 622.15)" d="m187.89 168.24a16.521 16.521 0 1 1 -33.042 0 16.521 16.521 0 1 1 33.042 0z" fill="url(#a)"/>
  <path transform="matrix(.61902 -1.5788 1.5788 .61902 -129.62 546)" d="m187.89 168.24a16.521 16.521 0 1 1 -33.042 0 16.521 16.521 0 1 1 33.042 0z" fill="url(#a)"/>
  <path transform="matrix(1.6958 0 0 1.6958 -84.87 102.6)" d="m187.89 168.24a16.521 16.521 0 1 1 -33.042 0 16.521 16.521 0 1 1 33.042 0z" fill="url(#a)"/>
  <path transform="matrix(.050729 -1.695 1.695 .050729 -10.766 543.57)" d="m187.89 168.24a16.521 16.521 0 1 1 -33.042 0 16.521 16.521 0 1 1 33.042 0z" fill="url(#a)"/>
  <path transform="matrix(.41961 -1.6431 1.6431 .41961 -90.001 513.74)" d="m187.89 168.24a16.521 16.521 0 1 1 -33.042 0 16.521 16.521 0 1 1 33.042 0z" fill="url(#a)"/>
  <path transform="matrix(1.5328 -.72546 .72546 1.5328 -153.03 13.495)" d="m187.89 168.24a16.521 16.521 0 1 1 -33.042 0 16.521 16.521 0 1 1 33.042 0z" fill="url(#a)"/>
  <path transform="matrix(1.3789 .98707 -.98707 1.3789 84.281 -192.84)" d="m187.89 168.24a16.521 16.521 0 1 1 -33.042 0 16.521 16.521 0 1 1 33.042 0z" fill="url(#a)"/>
  <path transform="matrix(1.6724 .28067 -.28067 1.6724 -91.432 -156.46)" d="m187.89 168.24a16.521 16.521 0 1 1 -33.042 0 16.521 16.521 0 1 1 33.042 0z" fill="url(#a)"/>
  <path transform="matrix(.050729 -1.695 1.695 .050729 -58.849 477.35)" d="m187.89 168.24a16.521 16.521 0 1 1 -33.042 0 16.521 16.521 0 1 1 33.042 0z" fill="url(#a)"/>
  <path transform="matrix(1.6908 -.12965 .12965 1.6908 -121.49 -94.408)" d="m187.89 168.24a16.521 16.521 0 1 1 -33.042 0 16.521 16.521 0 1 1 33.042 0z" fill="url(#a)"/>
  <path transform="matrix(.88192 1.4484 -1.4484 .88192 233.58 -130.5)" d="m187.89 168.24a16.521 16.521 0 1 1 -33.042 0 16.521 16.521 0 1 1 33.042 0z" fill="url(#a)"/>
  <path transform="matrix(1.2558 1.1397 -1.1397 1.2558 138.67 -131.83)" d="m187.89 168.24a16.521 16.521 0 1 1 -33.042 0 16.521 16.521 0 1 1 33.042 0z" fill="url(#a)"/>
  <path transform="matrix(1.6006 .56015 -.56015 1.6006 -16.537 -59.739)" d="m187.89 168.24a16.521 16.521 0 1 1 -33.042 0 16.521 16.521 0 1 1 33.042 0z" fill="url(#a)"/>
  <path transform="matrix(1.6887 -.15535 .15535 1.6887 -106.75 46.777)" d="m187.89 168.24a16.521 16.521 0 1 1 -33.042 0 16.521 16.521 0 1 1 33.042 0z" fill="url(#a)"/>
  <path transform="matrix(1.5469 .69491 -.69491 1.5469 19.149 -132.97)" d="m187.89 168.24a16.521 16.521 0 1 1 -33.042 0 16.521 16.521 0 1 1 33.042 0z" fill="url(#a)"/>
  <path transform="matrix(1.6955 .031122 -.031122 1.6955 -92.734 -29.686)" d="m187.89 168.24a16.521 16.521 0 1 1 -33.042 0 16.521 16.521 0 1 1 33.042 0z" fill="url(#a)"/>
  <path transform="matrix(.36617 -1.6558 1.6558 .36617 -58.458 436.84)" d="m187.89 168.24a16.521 16.521 0 1 1 -33.042 0 16.521 16.521 0 1 1 33.042 0z" fill="url(#a)"/>
  <path transform="matrix(1.0535 -1.3288 1.3288 1.0535 -204.94 258.43)" d="m187.89 168.24a16.521 16.521 0 1 1 -33.042 0 16.521 16.521 0 1 1 33.042 0z" fill="url(#a)"/>
  <path transform="matrix(.050729 -1.695 1.695 .050729 -52.487 517.23)" d="m187.89 168.24a16.521 16.521 0 1 1 -33.042 0 16.521 16.521 0 1 1 33.042 0z" fill="url(#a)"/>
  <path transform="matrix(1.6879 -.16389 .16389 1.6879 -36.176 -88.429)" d="m187.89 168.24a16.521 16.521 0 1 1 -33.042 0 16.521 16.521 0 1 1 33.042 0z" fill="url(#a)"/>
  <path transform="matrix(1.4808 -.82635 .82635 1.4808 -147.95 69.977)" d="m187.89 168.24a16.521 16.521 0 1 1 -33.042 0 16.521 16.521 0 1 1 33.042 0z" fill="url(#a)"/>
  <path d="m319.66 34.12c2.3511-4.5691 10.918-2.118 8.507 3.6834-9.5721 25.358-24.901 39.203-39.278 54.951 1.0313 5.3229 1.8912 10.617 5.8539 16.429l-4.3432 4.9097c-4.4215-5.2874-7.9995-10.575-7.931-15.862-5.4701 5.1228-11.409 8.3715-17.373 11.519-5.0992 9.5054-6.6221 15.434-9.4417 22.66l-5.665-2.4548c3.1215-11.324 8.8128-22.219 14.918-33.046 5.4719-1.1885 12.501-5.1011 23.982-16.806l-7.931 1.133-2.6437-5.2874c5.3331-1.152 10.575-2.182 17.373-5.2874 7.8132-8.7465 16.642-20.076 23.972-36.541z" fill="#5b7d39" stroke="#5b7d39" stroke-width="1.5107"/>
  <path d="m281.52 81.475c-5.0238 3.4183-11.533 4.7942-12.818 13.353-3.9622 2.7588-4.8542 8.1491-5.341 13.887l-8.5457 10.682c-7.9894 11.047-16.328 23.63-21.898 24.035-5.0268 0.7431-8.7215-5.1742-12.818-9.0798-9.0468 19.299-18.887 34.312-30.444 40.058-4.9935 1.5428-10.003 2.9762-15.489 1.0682-2.2076-2.5508 1.6967-8.4353 4.8069-13.887-12.936 0.47744-20.554 10.458-30.789 16.336-15.173 6.3556-29.332 17.26-44.989 14.426-3.3487-4.2738 6.1916-13.059 12.22-20.614-13.862 4.6787-24.947 13.292-44.331 10.148 1.629-2.9702-0.34066-5.5406-3.2046-8.0116-11.323 3.8218-32.306 10.278-39.718 8.7937 0.28217-8.3085 17.828-19.494 29.036-29.624-3.6377-9.1709 5.5119-15.65 10.682-22.966 5.0588-0.27416 7.183-1.9177 19.228 1.0682 8.5467-4.6268 15.337-12.766 21.898-21.364l-2.6705-10.682c-0.01775-1.9883 3.9154-4.5154 14.955-8.0116l-11.216-2.6705c4.7601-13.137 13.819-13.379 21.898-16.557 13.091-1.0972 19.859 5.7098 29.376 9.0798 2.0295-2.1064-1.4414-12.439-0.53411-15.489 5.3873-4.0808 11.793-0.01227 18.16 3.7387 4.7639 2.2128 7.554-1.5119 11.34-5.6539-1.5051-3.0306-4.2324-4.4391-6.5333-5.5623 4.2019-4.5724 8.8752-8.3369 16.557-6.9434l9.0798 8.5457c11.461-4.3221 16.163 9.9411 24.035 15.489 5.2319 3.366 11.029-4.0202 17.625-5.341 4.0613 1.3375 2.5679 7.0277 6.4092 7.4775 4.2921 0.4918 6.4618-6.6601 11.75-5.8752 4.129 0.06161 6.9769 2.2585 9.6139 4.8069l2.6705 5.341z" fill="url(#d)"/>
 </g>
</svg>
