<?xml version="1.0" encoding="UTF-8"?>
<svg viewBox="0 0 500 450" xmlns="http://www.w3.org/2000/svg">
 <g transform="translate(-126.13 -376.71)">
  <path d="m234.27 389.84s-7.7188 64.205-7.7188 113c0 43.333 24.337 73.5 66.281 73.5 40.875-1e-5 66.281-30.167 66.281-73.5 0-48.795-7.7188-113-7.7188-113h-117.12zm3.3125 3.125h110.53c0 1e-5 7.2812 67.411 7.2812 109.16 0 37.072-28.034 55.531-62.562 55.531s-62.562-18.459-62.562-55.531c0-41.746 7.3125-109.16 7.3125-109.16zm171.84 29.031s4.0455 18.241 3.8438 39.188-5.9375 25.14-5.9375 50.031c1e-5 44.209 30.302 65.094 73.031 65.094 41.64-2e-5 72.969-20.884 72.969-65.094-1e-5 -24.891-5.6733-29.084-5.875-50.031s3.875-39.188 3.875-39.188h-141.91zm3.9688 3.5h133.88c1e-5 -1e-5 -3.7845 18.716-3.5938 39.5s5.5 24.205 5.5 45.5c2e-5 37.822-33.638 48.156-68.812 48.156s-68.875-10.334-68.875-48.156c-3e-5 -21.295 5.3405-24.716 5.5312-45.5s-3.625-39.5-3.625-39.5zm-135.06 152.84c2.5041 2.437 4.7023 4.9497 6.1875 7.8438 0.0436 0.085 0.0514 0.19564 0.0937 0.28125 0.96772 2.2735 1.5801 4.7277 1.9062 7.3438v103.75c-1.5636 0.58435-3.0715 1.2562-4.5312 2-2.3947-1.7331-4.3437-6.9375-4.3438-6.9375-1.1305 4.8511-7-3.1563-7-3.1562-0.18018 4.8434-8.125-0.96875-8.125-0.96875-5.6777 6.355-18.281 2.625-18.281 2.625 0.30093 3.519-4.7188 2.4062-4.7188 2.4062-1.8162 4.7099-14.688 5.0938-14.688 5.0938 9.8948 6.8164 2.4375 7.3125 2.4375 7.3125 2.6887 0.85871 8.4358-1.8323 14 5.3125s-3.3213 5.0199-6.9062 3.875-10.121-11.956-12.406-8.5625-9.5625 0.375-9.5625 0.375c-0.81178 4.4083-9.4063 2.1562-9.4062 2.1562-0.97413 5.29-7.25 3.2813-7.25 3.2812 2.3158 1.5953 0.1875 2.7813 0.1875 2.7812-9.2389-0.0723-11.719 3.1562-11.719 3.1562 2.2498 4.5304-5.5938 5.7812-5.5938 5.7812 7.4464-0.50016 1.375 2.9375 1.375 2.9375-9.0343 1.3933-16.188 8.0312-16.188 8.0312 11.2-1.5575 13 6.6562 13 6.6562-4.5472 1.5039-4.125 3.0937-4.125 3.0938 7.9816-2.1185 25.074 3.0306 14.5 6.3438s-14.375 9.6562-14.375 9.6562c5.287-1.6566 10.221 0.0826 9.3125 2.4375s-8.3867 6.7983-6.125 8.6875 5.1114 0.56307 6.8438 2.75-3.1199 1.4931-1.9375 7.9375c6.3908-1.2273-3.5312 7.5-3.5312 7.5 6.0268-1.8093-2.0312 7.2188-2.0312 7.2188 15.699-4.0881 11.688 1.0625 11.688 1.0625 7.9757-0.79787 10.531-3.3125 10.531-3.3125s-0.57386 5.8863 4.4062 2.0312 9.2813 1.0937 9.2812 1.0938c18.832-8.2216 14.062-0.25 14.062-0.25 3.8615-1.6451 5.375 5.375 5.375 5.375 12.402-10.664 15.312-7.0312 15.312-7.0312 2.1832-4.1259 7.1875-0.34375 7.1875-0.34375 2.1291-3.832-1.4496-8.9227-1.2812-11.125s7.52-6.078 13.312-2.75-2.2188 16-2.2188 16c4.6673-4.7328 1.6562 6.4375 1.6562 6.4375 6.5198-5.7748 7.3438 9.0312 7.3438 9.0312 6.2611-6.9466 12.062-3.5938 12.062-3.5938 5.8282-4.5955 5.4687-0.21875 5.4688-0.21875s6.2665-2.9812 8.125-5.3438 7 1.875 7 1.875c2.7184-5.7442 7.4062-4.1875 7.4062-4.1875 3.4101-6.9236 5.6562-2.375 5.6562-2.375 1.3292-2.0649 1.3379-2.058 2.7812-6.0312 0.56241-1.5482 2.3338-1.6212 4.2812-1.125-0.041 0.22628-0.0679 0.4463-0.125 0.6875l1.0312-0.4375c2.7938 0.91491 5.625 2.6875 5.625 2.6875-0.0833-1.529 0.0664-2.7726 0.375-3.8125 0.51913 0.19364 0.88214 0.5752 0.96875 1.2188 0.44357 3.2958 0.41877 3.2909 1.0625 5.0625 0 0 2.276-3.3653 3.6875 2.4688 0 0 3.5955-0.76648 4.6875 4.0625 1e-5 0 4.3038-2.8114 5.2812-0.75s4.9688 5.0625 4.9688 5.0625 0.42574-3.5469 3.9062 0.6875c0 0 4.62-2.0481 8.0625 4.0938 0-1e-5 2.7625-11.646 6.5625-6.4062 0 0-0.47564-9.1628 2.1562-4.9375 0 1e-5 -3.8743-10.857 0.75-12.906s9.2986 1.7687 9.0938 3.5312-3.4849 5.434-2.5312 8.6875c0 0 4.1136-2.492 5.0625 1 1e-5 0 2.5993-2.5873 9.875 7.125 0 0 2.1437-5.4149 4.6562-3.7188 0-1e-5 -2.2243-6.7733 10 1.6562 0 0 3.7966-3.4989 6.7812 0.0625s3.4375-1.1562 3.4375-1.1562 1.458 2.2449 7.0312 3.6875c-2e-5 0-2.1296-4.4912 8.4688 0.34375-1e-5 0-4.4084-7.9838-0.375-5.9375-2e-5 0-5.7853-7.9032-1.4062-6.2812 1.7947-4.9877-1.7776-4.9426-0.21875-6.5 1.2853-1.2841 2.7709-0.63457 4.3125-1.0625 2.1182 2.354 4.9874 4.1374 8.4062 4.9688 3.8755 0.94243 7.7967 0.49105 11.156-1 2.09 3.4285 5.5904 6.0915 9.9688 7.1562 7.5005 1.824 15.134-1.6608 18.5-7.9375 2.1062 2.4865 5.0448 4.3633 8.5625 5.2188 8.171 1.9871 16.518-2.2907 19.312-9.6562 1.0791 5.6883 5.4979 10.558 11.812 12.094 7.1219 1.7319 14.373-1.2849 17.969-6.9688 1.5555 1.0378 3.3268 1.806 5.2812 2.2812 5.5804 1.357 11.237-0.18002 15.156-3.6562 1.7648 1.7962 4.05 3.1559 6.75 3.8125 7.5187 1.8284 15.2-2.4624 17.156-9.5625s-2.5748-14.359-10.094-16.188c-4.1708-1.0143-8.3882-0.152-11.656 2.0312-1.0526-1.417-2.3832-2.6386-3.9062-3.6562 0.43731-0.73816 0.79527-1.5502 1.0312-2.4062 1.2258-4.4479-0.89331-8.9551-4.875-11.188 0.19053-0.48415 0.3594-0.95832 0.5-1.4688 2.2498-8.1667-2.9446-16.522-11.594-18.625-3.9244-0.95434-7.8793-0.45994-11.25 1.125 2.854-2.0104 5.0354-4.905 6-8.4062 2.2498-8.1668-2.9444-16.522-11.594-18.625-5.6134-1.3651-11.297 0.26153-15.219 3.7812-0.83731-0.37879-1.7229-0.71061-2.6562-0.9375-1.1717-0.28482-2.3413-0.3973-3.5-0.40625 0.25244-0.58499 0.45211-1.1535 0.625-1.7812 2.1134-7.6718-2.7188-15.493-10.844-17.469-1.5234-0.37048-3.0994-0.50759-4.5938-0.4375-2.8319 0.13284-5.5257 0.99713-7.8125 2.4688v-101.53c0.32617-2.616 0.93852-5.0702 1.9062-7.3438 0.0364-0.0856 0.0876-0.19622 0.125-0.28125 1.4852-2.894 3.6521-5.4068 6.1562-7.8438-4.7948 0.60384-9.6228 1.0526-14.438 1.125h-0.0312c-4.8147-0.0724-9.6427-0.52115-14.438-1.125 2.5041 2.437 4.7023 4.9497 6.1875 7.8438 0.0436 0.085 0.0827 0.19564 0.125 0.28125 0.96771 2.2735 1.5488 4.7277 1.875 7.3438v102c-7.9525-1.371-15.807 3.1795-17.969 10.594h-0.0312c-9.3658-2.2776-18.951 3.0127-21.375 11.812-1.202 4.3636-0.42069 8.7594 1.8125 12.375-3.2198 1.6452-5.8785 4.2262-7.5 7.4688-3e-3 -0.0882-2e-3 -0.15688 0-0.25 0 0-6.4776 0.92022-6.4062-2.6562 0 0-5.6199 1.6403-6.75-1.2812s-7.398 4.988-10.125 5.5312-9.3684 1.3164-4.3438-3.7812 8.7048-2.3738 10.75-2.7812c0 0-5.2226-1.1651 2.8438-5.5625 0 0-9.1491-1.6137-9.75-5.5312 1e-5 0-3.734 0.38357-3-2.375 0 0-3.3672 0.60198-6.75-0.0937-2.7476-8.1709-8.2184-15.102-15.344-19.688 0.70155-3.3137 1.8391-6.6456 3.4688-9.9062 8.0993-16.205 27.132-25.697 41.875-18.906 11.509 5.3014 17.206 20.244 10.344 33.531-2.6422 5.1158-7.0409 9.2029-11.906 11.406s-10.107 2.5276-14.688 0.3125c-6.8875-3.3305-10.346-12.452-6-20.531a1.7758 1.7758 0 1 0 -3.125 -1.6875c-5.2497 9.7585-1.1883 21.175 7.5625 25.406 5.6586 2.7363 12.057 2.2686 17.688-0.28125s10.605-7.1525 13.625-13c7.7294-14.965 1.3687-32.203-12.031-38.375-4.2238-1.9456-8.662-2.7417-13.125-2.5625-13.389 0.53768-26.744 9.8578-33.375 23.125-1.581 3.1634-2.7295 6.3953-3.5 9.625-5.1311-2.6304-10.942-4.125-17.094-4.125-0.45961 0-0.91933 0.0148-1.375 0.0312 0.18311-2.1562 0.22769-4.3235 0.0937-6.4688-0.63762-10.213-5.0782-20.081-14.469-26.219-4.6134-3.0152-10.485-4.5948-16.125-4.1562s-11.144 3.0061-14.438 8.3438c-1.5652 2.5371-2.3549 5.7016-2.0625 8.7812s1.8066 6.1857 4.8438 7.9375c1.4134 0.81528 3.1061 1.1952 4.8125 1s3.5147-1.115 4.4688-2.9062c0.44495-0.83545 0.63705-1.7766 0.5-2.7812s-0.78084-2.1906-1.9375-2.75c-0.55521-0.26854-1.0851-0.3574-1.75-0.25s-1.5676 0.60702-1.9375 1.4688c-0.18373 0.42808-0.22179 0.80371-0.125 1.3125s0.53392 1.2559 1.2812 1.5312c0.20315 0.0747 0.4047 0.0536 0.59375 0.0625-0.34845 0.43476-0.80767 0.70206-1.5 0.78125-0.84938 0.0972-1.905-0.14722-2.625-0.5625-1.9539-1.127-2.8832-2.97-3.0938-5.1875s0.42343-4.7162 1.5625-6.5625c2.6476-4.2914 6.9136-6.3163 11.688-6.6875s9.9805 1.028 13.906 3.5938c8.3766 5.4746 12.292 14.125 12.875 23.469 0.13494 2.1613 0.0951 4.3721-0.125 6.5625-8.9128 1.1747-16.839 5.4854-22.656 11.781-7.2628-6.5854-17.302-10.74-28.375-11.031-0.36575-0.69401-0.59375-1.1875-0.59375-1.1875-0.0667 0.41513-0.16715 0.78882-0.28125 1.1562h-0.375c-1.1922 0-2.3636 0.0682-3.5312 0.15625v-101.03c0.32617-2.616 0.93852-5.0702 1.9062-7.3438 0.0364-0.0856 0.0563-0.19622 0.0937-0.28125 1.4852-2.894 3.6834-5.4068 6.1875-7.8438-4.7948 0.60384-9.6228 1.0526-14.438 1.125h-0.0312c-4.8146-0.0724-9.6427-0.52115-14.438-1.125zm45.438 98.094c0.0133 0.1147-0.014 0.21844-0.0312 0.3125h-0.6875a1.7718 1.7718 0 0 0 0.71875 -0.3125zm0.3125 0.0937c0.0135 0.10852 0.0312 0.21875 0.0312 0.21875h-0.0312c-9.4e-4 -0.0679 0.0117-0.14355 0-0.21875zm-1.75 0.21875a1.7718 1.7718 0 0 0 0.0312 0l0.1875 0.0312 0.4375 0.0625 0.34375 0.0625 0.375 0.0312c-0.0142 0.0397 0.019 0.0807 0 0.125-0.15931 0.37113-0.60513 0.59655-0.78125 0.625-0.0967 0.0156-0.14026-0.0213-0.1875-0.0312-0.0326-0.076-0.0296-0.0796-0.0625-0.15625-0.14753-0.34427-0.29012-0.63526-0.3125-0.6875-8.5e-4 -2e-3 5.1e-4 -0.0301 0-0.0312h-0.0312c-3.6e-4 -8.3e-4 0-0.0312 0-0.0312zm-0.53125 1.625c0.0771 0.0237 0.0858 0.0101 0.15625 0.0312v0.0625c-0.0626-0.0148-0.0975-0.0714-0.15625-0.0937zm0.1875 0.0625c0.0531 0.0163 0.0927 0.0214 0.125 0.0312-0.0403-7e-3 -0.0812 0.01-0.125 0v-0.0312zm172.22 16.719c1.6068 0.0746 2.2702 1.9894 0.59375 2.9688-2.6685 2.8043-4.6862-3.3676-1.3125-2.875 0.26395-0.0722 0.48921-0.10441 0.71875-0.0937zm-134.41 2c5.9441 0 11.515 1.5429 16.375 4.2188-0.88736 5.935-0.46319 11.812 1.0312 17.281-1.3886 2.1375-4.0549 5.5615-5.4688 2.9375-1e-5 0-12.364 1.8877-12.031-6.3125 1e-5 1e-5 -3.4902 5.6831-4.625 3 1e-5 1e-5 -1.2593 3.2843-2.9375 2.3125s-4.2216-0.99057-3.4062 0.6875 3.6347 4.3618 1.9375 4.3438-2.2211 1.4466-1.0625 2.9375 0.45906 1.8759-2.4062 0.84375c-1e-5 0 3.126 3.3837 6.5 5.7812-6.2508-0.88603-7.2812-3.7812-7.2812-3.7812-0.9993 0.29999-1.8319 0.44672-2.5312 0.5 5e-3 -0.22754 0.0312-0.45892 0.0312-0.6875 0-2.2334-0.22283-4.4117-0.65625-6.5312 2.6197-2.5023 5.009-5.2953 7.125-8.375 3.8389-5.5872 6.4728-12.224 7.5938-19.094 0.60132-0.0316 1.2033-0.0625 1.8125-0.0625zm-5.5 0.46875c-1.1254 6.0093-3.4734 11.828-6.8125 16.688-1.5921 2.3171-3.3675 4.4658-5.2812 6.4375-1.5677-4.6379-4.1674-8.8748-7.5312-12.531 5.0545-5.5182 11.906-9.3403 19.625-10.594zm114.81 0.34375c3.9267-0.19677 4.2418 2.4763 1.625 3.75-3.0491 2.58-5.2903-3.8569-1.625-3.75zm-168.78 0.34375c-0.40209 0.28033-0.82801 0.51079-1.2812 0.71875v-0.65625c0.42964-0.0348 0.84738-0.0404 1.2812-0.0625zm6.3125 0.125c0.5328 0.0498 1.068 0.0874 1.5938 0.15625-0.5021 0.29909-1.068 0.18496-1.5938-0.15625zm2.3438 0.25c8.1887 1.22 15.462 4.7418 20.938 9.75-4.8393 6.3277-7.7188 14.217-7.7188 22.781 0 0.80715 0.0434 1.6116 0.0937 2.4062-1.794 0.68335-3.6117 1.2952-5.4688 1.8125 0.31371-0.52284 0.81249-1 0.8125-1-0.60921 0.4592-1.4924 0.94705-2.5 1.4375-4.51 1.1264-9.1429 1.7663-13.812 1.9375-0.71171-0.19472-1.4768-0.3923-2.2812-0.59375v-16.188c6.09 0.23233 17.656-7.9375 17.656-7.9375-4.1743 0.76726-4.992 0.16104-3.0312-1.4688s1.5718-3.5377-0.75-3.8125 2.2415-3.0802 3.7812-5-1.9305-2.3383-4.4688-1.4375c-1.9037 0.67561-2.8825-1.534-3.25-2.6875zm-70.562 3.3438h0.46875c38.213 14.071 42.219 31.062 42.219 31.062s-13.599-18.972-42.688-31.062zm141.03 1.4062c4.8342 3.4313 8.7414 8.0933 11.25 13.531-0.45222-0.44034-0.85934-0.93957-1.1875-1.5312-1e-5 0-6.5237 3.7946-5.9375-0.0625 0 0-1.5335 1.6008-2.9688 2.5312-1.2691-4.5713-1.7045-9.4873-1.1562-14.469zm98.531 4.3438c0.89498 0.0259 1.7934 0.20788 2.625 0.5625 4.3759 1.4539 1.7432 6.7016-1.875 6.9688-5.1275 1.7669-6.53-6.7438-1.625-7.5 0.29885-0.0242 0.57667-0.0399 0.875-0.0312zm-28.5 0.4375c0.86716 9e-3 1.7266 0.12407 2.5312 0.4375 4.9129 1.0804 2.0918 7.077-1.8125 7.1562-4.9677 1.4056-6.0794-6.636-1.5938-7.5625 0.28551-0.013 0.58595-0.0342 0.875-0.0312zm-117.06 2.75c3.2444 3.6379 5.6277 7.8945 6.9062 12.5-4.0609 3.5749-8.6377 6.4827-13.562 8.7188-9e-3 -0.32333-0.0312-0.64321-0.0312-0.96875 0-7.5876 2.4934-14.588 6.6875-20.25zm191.88 1.0625c3.2374-0.17674 5.9281 2.4912 2.0938 4.6562-3.5796 2.9422-6.2503-3.0984-2.75-4.5938 0.21898-0.038 0.44043-0.0507 0.65625-0.0625zm-17.156 2.9375c0.6148-0.0698 1.3725 0.055 1.8125 0.46875 0.50499 3.2392-4.754 0.4628-1.8125-0.46875zm-220.62 4.1875v10.75c-0.66692-0.75852-1.2812-1.25-1.2812-1.25-0.90168-4.7352-0.19523-7.7829 1.2812-9.5zm53.625 8.2812c0.11021 0.83664 0.15076 1.6777 0.1875 2.5312-0.0141-0.0891-0.0312-0.125-0.0312-0.125-6.1436 3.1359-9.0145 4.114-10.312 4.2188 3.5938-1.8536 7.014-4.0511 10.156-6.625zm154.97 2.625c0.2008 0.65391 0.41905 1.2908 0.71875 1.9062-0.90179 0.13062-1.7677 0.3564-2.625 0.625 0.70975-0.78124 1.3562-1.6217 1.9062-2.5312zm-90.75 0.28125 0.34375 0.0312c-22.54 6.49-35.031 19.875-35.031 19.875s5.344-12.787 34.688-19.906zm38.75 0.59375c0.48973 0.0174 0.9703 0.0921 1.4375 0.21875 5.3099 0.18369 3.1986 7.7617-1.25 7.3125-4.7817 1.2842-5.9371-6.4532-1.6562-7.5 0.48089-0.0294 0.97902-0.0487 1.4688-0.0312zm29.312 0.1875c1.8274 0.0867 3.2081 1.5507 1.6562 3.2188-3.1339 3.9654-6.9253-3.0778-2.4688-3.1562 0.2714-0.0476 0.55144-0.0749 0.8125-0.0625zm-288.91 0.0937c13.783-0.0826 31.974 2.5103 41.875 4.2188 8.7988 1.5182 31.811 1.0256 44 0.625 4.4237-0.22204 7.5269-0.35938 7.9062-0.28125 0 0-3.2136 0.127-7.9062 0.28125-11.566 0.58051-32.978 1.6875-44.469 0.71875-15.885-1.3393-41.355-5.9632-50.125-4.7188l0.0312-0.3125c2.5556-0.35072 5.5068-0.51218 8.6875-0.53125zm334.69 1.8125c3.4719 0.20678 3.6969 3.9218 0.65625 5.125-3.54 2.0189-5.581-3.7293-2.3438-4.9688 0.62867-0.13107 1.1915-0.18579 1.6875-0.15625zm-21.562 1.1562c0.17284 0.011 0.32758 0.0328 0.5 0.0312 3.6394-0.40525 3.443 4.3721 0.34375 5-3.8232 2.1681-5.2171-4.9678-1.375-5 0.17198-0.0424 0.35841-0.0422 0.53125-0.0312zm-132.16 1.25c3.0412-0.0973 5.3836 2.6876 2.875 9.5312 0 0-0.84273 0.5367-1.625 1.375-0.4126 0.44215-0.78257 0.9633-1.0312 1.5312-0.83419-1.23 1.0312-1.5312 1.0312-1.5312-7.8074-1.4044-3-3.0625-3-3.0625-5.2269 0.0421-8.2812-2.7188-8.2812-2.7188 1.2578-0.70747 2.4413-2.0548 3.2812-3.2188 0.96997 0.27722 1.8509 0.29084 2.5625-0.0937 1.2789-1.1087 2.8051-1.7683 4.1875-1.8125zm176.97 2.4375c0.12394-5e-3 0.25583 0.0287 0.375 0.0625 3.8785-0.51558 4.178 4.1337 0.65625 5.0312-3.8623 2.0633-5.1883-4.9388-1.4062-5.0312 0.12018-0.0135 0.25106-0.0574 0.375-0.0625zm-259.44 0.75c-5.1056 3.9181-10.878 9.8142-19.875 14.875-9.7919 5.5078-82.031 41.156-82.031 41.156s69.665-35.786 78.188-40.844c7.9594-4.723 18.523-12.266 23.719-15.188zm11.344 1.2188c1.2159 0.59976 2.9335 1.4392 4.9375 2.375 7.4872 3.229 12.658 4.0356 17.594 4.8125 0.10635 0.11753 0.1998 0.24591 0.3125 0.34375 0 0-1.0473 0.78144-2.7812 1.1875-5.0817-1.7955-10.793-4.3209-15.125-6.3438-1.5483-0.66774-3.1858-1.4841-4.9375-2.375zm-6.4688 0.53125 0.40625 0.3125c0.0994 0.16157 0.21797 0.33239 0.3125 0.5 8.3155 9.6989 6.1997 25.476 1.5938 32.938-4.7333 7.6679-12.844 29.875-12.844 29.875s5.5146-21.006 9.875-27.938c4.2838-6.8095 6.6612-25.499 1.375-34.875-0.22993-0.26815-0.47278-0.55394-0.71875-0.8125zm154.41 10.094c2.4284 0.01 5.6205 1.6054 3.0312 4.125-0.0745 0.10565-0.17328 0.18744-0.25 0.28125-0.44254-0.19183-0.87654-0.37986-1.3438-0.53125 0 0-3.8333-3.3404 1.4062-2.1875 0 0-1.7546-0.56693-2.8438-1.6875zm19.406 1.5c0.0763 0.10232 0.13974 0.212 0.21875 0.3125h-0.375l0.15625-0.3125zm-88.719 0.71875c0.28224-0.0229 2.47 0.4189 5.5938 1.0312 8.6383 1.5234 24.998 4.2093 31.5 3.9062 9.0058-0.41969 27.176-0.68248 36.625 2.125l-0.0312 0.25c-6.0739-1.8382-24.936-0.77175-36.469-1.3125-8.342-0.39114-23.458-3.3677-31.625-4.9688-3.3257-0.58651-5.5938-1.0312-5.5938-1.0312zm-10.562 1.0312c-1.9943 0.79207-3.7385 1.3797-5.375 1.875-5.6647 1.9037-14.274 4.535-18.312 4.3125-5.8489-0.32229-15.518 5.6108-19.188 8.8125 2.3318-2.1442 10.498-9.3311 17.156-10.531 6.6816-1.2043 10.886 0.26899 20.344-2.5938 3.1361-1.0539 5.375-1.875 5.375-1.875zm147.69 0.1875c4.595-0.26637 4.9006 3.5663 1.125 5.0625-4.0143 1.9111-5.0119-5.0869-1.125-5.0625zm-140.91 0.53125c3.2764 2.7845 9.7051 9.699 14.688 14.156 5.3351 4.7728 49.75 39.469 49.75 39.469s-46.295-34.845-52.469-40.094c-5.6732-4.8227-8.9039-9.9826-11.969-13.531zm114.28 0.125c0.74322-0.0569 1.4391-0.0144 2.1562 0.0937 0.96187 2.3931-4.2837 2.3239-2.1562-0.0937zm-23.594 0.0625c0.75134 0.0239 1.4934 0.22108 2.1875 0.5 4.726 1.5638 1.3528 7.3728-2.5312 7.0938-5.2446 1.0152-5.2346-7.8889-0.40625-7.5625 0.25116-0.0364 0.49955-0.0392 0.75-0.0312zm-94.406 0.6875c-0.21367 0.17622-0.45261 0.37726-0.65625 0.5625-5.1556 6.7511-6.2081 21.477-4.1562 27.188 2.0885 5.8131 2.9063 22.688 2.9062 22.688s-2.5041-18.047-4.75-24.469c-2.1854-6.2491-1.3648-18.706 6-25.406 0.0922-0.12069 0.18645-0.25949 0.28125-0.375l0.375-0.1875zm169.94 3.5938c0.25184 7e-3 0.50263 0.0238 0.75 0.0625 3.5673 0.0294 3.2206 4.2854 0.15625 5-3.764 2.0697-5.3074-4.7001-1.6562-5.0312 0.24892-0.0323 0.49816-0.038 0.75-0.0312zm-8.5 1.125c-0.0504 0.0386-0.13757 0.0545-0.1875 0.0937l-0.0312-0.0312c0.0658-0.0265 0.15331-0.0352 0.21875-0.0625zm-195.09 7.125c0.12495-0.0142 0.25538-7e-3 0.375 0 0.46131 0.026 0.89719 0.22774 1.25 0.625 2e-5 0 5.5339 2.721 5.4375 4.8125-4.3103-0.0629-8.7692-0.2086-13.094-0.65625 1.7339-2.0728 4.157-4.5678 6.0312-4.7812zm118.06 0.5c0.29861 2e-3 0.58861 0.024 0.875 0.0937 3.947 0.0892 2.9429 4.8522-0.125 5.4062-4.0162 1.9363-5.5123-5.176-1.6562-5.4375 0.29013-0.045 0.60764-0.0647 0.90625-0.0625zm102.59 1.625c3.2279 0.032 4.6648 2.6243 1.4062 4.7188-3.9198 3.059-6.4125-4.3681-2.0938-4.6875 0.23028-0.0217 0.47231-0.0334 0.6875-0.0312zm-54.938 2.2188c5.636 0.12581 4.1108 3.84 1.5312 5-3.8511 2.5064-5.7671-5.137-1.5312-5zm75.969 1.8438c0.35768 6e-3 0.74186 0.0983 1.0938 0.0312 1.0953 1.1288-2.7002 1.9638-1.4375 0 0.11302-0.027 0.22452-0.0332 0.34375-0.0312zm-44.094 0.5625c2.9105 0.059 4.2664 2.364 1.6562 4.5312-3.9358 3.7396-7.1322-4.3612-2.25-4.5 0.20722-0.0166 0.39972-0.0352 0.59375-0.0312zm-58.75 0.25c4.3108-0.20749 4.5402 3.436 1.375 5-3.6598 2.2012-5.6176-3.6684-2.3125-4.9062 0.32374-0.0499 0.65011-0.0799 0.9375-0.0937zm-140.09 1.5938h3.9062c-0.58834 0.29693-1.2042 0.60661-1.875 0.90625-0.69033-0.27462-1.3603-0.59076-2.0312-0.90625z"/>
 </g>
</svg>
