<?xml version="1.0" encoding="UTF-8" standalone="no"?>
<svg
   xmlns:dc="http://purl.org/dc/elements/1.1/"
   xmlns:cc="http://creativecommons.org/ns#"
   xmlns:rdf="http://www.w3.org/1999/02/22-rdf-syntax-ns#"
   xmlns:svg="http://www.w3.org/2000/svg"
   xmlns="http://www.w3.org/2000/svg"
   viewBox="0 0 272.12 370.39999"
   height="370.39999"
   width="272.12"
   xml:space="preserve"
   id="svg2"
   version="1.1"><metadata
     id="metadata8"><rdf:RDF><cc:Work
         rdf:about=""><dc:format>image/svg+xml</dc:format><dc:type
           rdf:resource="http://purl.org/dc/dcmitype/StillImage" /></cc:Work></rdf:RDF></metadata><defs
     id="defs6"><clipPath
       id="clipPath18"
       clipPathUnits="userSpaceOnUse"><path
         id="path16"
         d="M 0,277.8 H 204.09 V 0 H 0 Z" /></clipPath><clipPath
       id="clipPath26"
       clipPathUnits="userSpaceOnUse"><path
         id="path24"
         d="M 9.52158,216.909 H 54.7759 V 130.655 H 9.52158 Z" /></clipPath><clipPath
       id="clipPath42"
       clipPathUnits="userSpaceOnUse"><path
         id="path40"
         d="M 55.6221,192.583 H 93.004 v -61.98 H 55.6221 Z" /></clipPath><clipPath
       id="clipPath58"
       clipPathUnits="userSpaceOnUse"><path
         id="path56"
         d="M 84.4542,169.438 H 107.398 V 130.681 H 84.4542 Z" /></clipPath><clipPath
       id="clipPath74"
       clipPathUnits="userSpaceOnUse"><path
         id="path72"
         d="m 88.315,249.863 h 57.491 V 130.787 H 88.315 Z" /></clipPath><clipPath
       id="clipPath90"
       clipPathUnits="userSpaceOnUse"><path
         id="path88"
         d="m 146.251,171.886 h 24.335 v -41.231 h -24.335 z" /></clipPath><clipPath
       id="clipPath106"
       clipPathUnits="userSpaceOnUse"><path
         id="path104"
         d="m 165.707,185.63 h 26.454 v -54.791 h -26.454 z" /></clipPath><clipPath
       id="clipPath122"
       clipPathUnits="userSpaceOnUse"><path
         id="path120"
         d="M 5.17574,127.072 H 197.784 v -3.707 H 5.17574 Z" /></clipPath><clipPath
       id="clipPath138"
       clipPathUnits="userSpaceOnUse"><path
         id="path136"
         d="M 5.48715,78.5429 H 198.096 V 74.8354 H 5.48715 Z" /></clipPath><clipPath
       id="clipPath154"
       clipPathUnits="userSpaceOnUse"><path
         id="path152"
         d="M 6.40234,122.05 H 194.729 V 80.3156 H 6.40234 Z" /></clipPath></defs><g
     transform="matrix(1.3333333,0,0,-1.3333333,0,370.4)"
     id="g10"><g
       id="g12"><g
         clip-path="url(#clipPath18)"
         id="g14"><g
           id="g20"><g
             id="g22" /><g
             id="g34"><g
               style="opacity:0.69999701"
               id="g32"
               clip-path="url(#clipPath26)"><g
                 id="g30"
                 transform="translate(32.5542,130.6887)"><path
                   id="path28"
                   style="fill:#ed1c24;fill-opacity:1;fill-rule:nonzero;stroke:none"
                   d="m 0,0 c 0.457,3.916 0.773,7.176 0.988,9.618 0.269,3.042 0.371,4.679 0.433,5.851 0.136,2.557 0.078,2.795 0.183,5.31 0.185,4.462 0.443,5.521 0.607,10.192 0.114,3.217 0.044,4.201 -0.148,5.283 -0.221,1.241 -0.617,3.352 -1.98,5.337 -0.998,1.453 -1.676,1.618 -4.5,3.784 -3.63,2.783 -5.223,4.376 -6.869,5.968 -3.193,3.088 -3.805,3.851 -4.519,4.367 -0.296,0.215 -0.654,0.407 -0.654,0.407 -0.586,0.353 -1.776,1.071 -2.981,1.587 -2.114,0.904 -3.088,0.678 -3.466,1.525 -0.016,0.035 -0.232,0.536 -0.061,1.038 0.595,1.746 5.638,2.773 9.001,0.854 1.334,-0.761 1.14,-1.265 3.771,-3.113 1.546,-1.086 2.775,-1.881 4.126,-1.584 0.174,0.039 1.127,0.248 1.59,1.035 0.504,0.855 0.101,1.831 -0.364,3.357 -0.837,2.743 -0.294,2.085 -1.156,4.883 -0.916,2.972 -1.33,3.069 -1.885,5.37 -0.13,0.536 -0.125,0.606 -0.608,4.029 -0.431,3.048 -0.639,4.445 -0.73,6.469 -0.128,2.846 0.11,3.973 0.79,4.333 0.202,0.107 0.717,0.293 1.217,0.122 0.601,-0.205 0.661,-0.749 1.094,-0.793 0.57,-0.058 0.791,0.848 1.399,0.977 0.914,0.193 2.002,-1.513 2.311,-2.015 1.402,-2.275 1.79,-4.172 2.372,-6.286 0.867,-3.144 2.117,-6.605 2.433,-6.53 0.245,0.057 -0.046,2.245 -0.243,3.723 -0.274,2.052 -0.41,3.078 -0.609,3.844 -0.353,1.367 -0.658,1.925 -0.364,2.686 0.239,0.62 0.835,1.268 1.581,1.343 0.737,0.074 1.324,-0.44 1.581,-0.672 1.417,-1.276 1.476,-3.398 1.886,-6.408 0.267,-1.964 0.758,-4.858 1.82,-7.919 0.437,-1.259 1.354,-3.899 2.072,-3.799 0.618,0.085 0.806,2.157 0.843,2.567 0.11,1.205 -0.129,2.822 -0.613,6.005 -0.189,1.245 -0.321,2.109 0.196,2.597 0.374,0.353 1.005,0.429 1.459,0.305 1.591,-0.437 1.872,-3.578 2.737,-8.178 0.235,-1.247 0.704,-3.273 1.642,-7.324 1.656,-7.149 3.143,-10.362 3.771,-15.93 0.457,-4.05 0.015,-5.41 -0.547,-6.286 -0.261,-0.406 -0.941,-1.323 -1.277,-2.746 -0.214,-0.907 -0.203,-1.657 -0.183,-2.076 0.238,-5.044 3.095,-21.334 3.095,-21.334 C 21.728,9 22.245,4.98 22.221,-0.033 14.814,-0.022 7.407,-0.011 0,0" /></g></g></g></g><g
           id="g36"><g
             id="g38" /><g
             id="g50"><g
               style="opacity:0.69999701"
               id="g48"
               clip-path="url(#clipPath42)"><g
                 id="g46"
                 transform="translate(68.0986,182.7268)"><path
                   id="path44"
                   style="fill:#f26521;fill-opacity:1;fill-rule:nonzero;stroke:none"
                   d="M 0,0 C 0.225,0.792 0.165,1.492 0.036,2.859 -0.033,3.584 -0.116,4.126 -0.108,5.03 -0.104,5.515 -0.075,5.938 0.18,6.369 0.275,6.528 0.506,6.906 0.974,7.092 1.054,7.124 1.701,7.373 2.091,7.056 2.333,6.86 2.353,6.546 2.38,5.971 2.464,4.156 2.426,4.069 2.488,3.546 2.506,3.396 2.489,3.568 2.921,1.701 3.001,1.354 3.05,1.136 3.245,0.941 3.572,0.615 4.124,0.537 4.543,0.687 5.028,0.862 5.271,1.321 5.373,1.52 6.189,3.117 7.209,6.081 7.86,7.671 8.38,8.939 8.756,9.554 9.411,9.77 9.908,9.934 10.602,9.879 10.925,9.48 11.18,9.166 11.15,8.705 10.42,6.622 9.657,4.44 9.275,3.35 9.195,3.148 8.762,2.059 8.44,1.349 8.762,0.977 8.975,0.731 9.368,0.75 9.555,0.76 c 0.484,0.025 0.978,0.259 2.308,1.664 0.512,0.543 0.856,0.906 1.334,1.52 0.572,0.736 0.936,1.315 1.514,2.243 0.997,1.6 1.317,2.289 2.164,2.714 0.354,0.179 0.651,0.235 0.937,0.182 C 18.294,8.992 18.744,8.587 18.894,8.142 19.087,7.568 18.71,7.145 17.235,4.74 16.894,4.184 16.491,3.517 16.045,2.605 15.682,1.861 15.248,0.972 15.396,0.869 c 0.161,-0.112 0.896,0.752 2.633,2.532 2.05,2.103 2.749,2.667 3.425,2.497 0.368,-0.092 0.709,-0.396 0.866,-0.76 0.316,-0.735 -0.18,-1.577 -3.57,-5.862 -1.662,-2.1 -2.502,-3.154 -2.885,-3.437 -0.918,-0.678 -1.974,-1.183 -1.947,-1.954 0.014,-0.388 0.298,-0.732 0.577,-0.905 0.542,-0.335 1.123,-0.063 2.524,0.326 0,0 1.37,0.385 2.885,0.652 1.209,0.211 1.831,0.315 2.668,0.18 0.532,-0.085 1.698,-0.289 2.163,-1.158 0.078,-0.145 0.231,-0.429 0.145,-0.723 -0.169,-0.573 -1.116,-0.74 -1.731,-0.869 -1.254,-0.262 -2.433,-0.819 -3.678,-1.121 -0.619,-0.151 -2.5,-1.007 -6.238,-2.714 0,0 -0.961,-0.439 -4.002,-1.954 C 7.375,-15.326 6.904,-15.586 6.418,-16.174 5.987,-16.696 5.714,-17.269 5.12,-19.72 4.613,-21.814 4.606,-21.538 4.33,-23.388 3.92,-26.137 2.797,-37.156 1.483,-52.123 l -13.96,0.085 c 0.289,2.429 0.738,5.72 1.443,9.594 0.225,1.232 0.887,4.805 2.055,9.589 0.59,2.412 3.295,13.277 4.58,17.622 0.169,0.569 0.47,1.56 0.613,2.93 0.144,1.387 -0.068,1.78 0.108,2.895 0.171,1.087 0.487,1.919 1.118,3.582 0.85,2.24 1.274,3.359 1.947,4.524 C -0.369,-0.88 -0.157,-0.552 0,0" /></g></g></g></g><g
           id="g52"><g
             id="g54" /><g
             id="g66"><g
               style="opacity:0.69999701"
               id="g64"
               clip-path="url(#clipPath58)"><g
                 id="g62"
                 transform="translate(107.3984,130.6887)"><path
                   id="path60"
                   style="fill:#ffde17;fill-opacity:1;fill-rule:nonzero;stroke:none"
                   d="m 0,0 c -3.428,-0.003 -6.854,-0.006 -10.282,-0.008 -1.16,5.222 -1.465,8.152 -1.487,9.921 -0.006,0.524 10e-4,1.803 -0.672,3.201 -0.388,0.806 -0.928,1.373 -1.993,2.474 -1.972,2.041 -3.463,3.025 -4.211,3.479 -0.862,0.524 -1.306,0.788 -1.876,0.871 -0.956,0.139 -1.68,-0.186 -2.145,0.29 -0.196,0.199 -0.284,0.477 -0.278,0.713 0.017,0.644 0.738,1.061 1.044,1.238 0.879,0.508 1.784,0.482 2.138,0.461 2.657,-0.156 3.952,-1.79 4.475,-1.401 0.842,0.627 -1.673,5.482 -2.023,6.158 -1.32,2.55 -2.238,5.291 -3.466,7.887 -0.112,0.236 -0.422,0.886 -0.147,1.363 0.232,0.402 0.78,0.477 0.846,0.485 0.106,0.014 0.511,0.051 1.046,-0.293 0.648,-0.415 0.85,-0.979 1.561,-2.483 0.166,-0.353 0.439,-0.921 0.795,-1.631 -0.165,1.015 -0.304,1.809 -0.393,2.317 -0.066,0.375 -0.173,0.973 -0.219,1.772 -0.072,1.255 0.092,1.509 0.225,1.64 0.292,0.289 0.834,0.377 1.256,0.215 0.619,-0.237 0.85,-0.964 1.49,-3.331 0.451,-1.671 0.472,-1.821 0.596,-2.247 0.693,-2.384 2.059,-5.007 2.625,-4.857 0.299,0.08 0.304,0.975 0.317,2.766 0.01,1.696 0.22,3.391 0.161,5.085 -0.008,0.238 -0.03,0.761 0.297,1.027 0.309,0.25 0.82,0.185 1.156,0.009 0.414,-0.215 0.627,-0.628 0.792,-1.153 0.338,-1.079 0.201,-1.774 0.195,-3.035 -0.008,-1.729 0.245,-1.449 0.231,-3.171 -0.011,-1.303 -0.159,-1.84 0.225,-2.591 0.066,-0.128 0.588,-1.12 1.267,-1.081 0.17,0.01 0.395,0.087 0.744,0.484 0.619,0.704 0.694,1.356 1.233,2.978 0.326,0.982 0.515,1.395 0.939,1.612 0.098,0.05 0.483,0.231 0.849,0.075 0.439,-0.186 0.564,-0.738 0.621,-0.984 0.093,-0.414 0.086,-0.889 -0.389,-2.323 -0.124,-0.373 -0.228,-0.651 -0.499,-1.369 -0.719,-1.905 -0.827,-2.044 -0.931,-2.533 -0.152,-0.721 -0.074,-1.332 0.089,-2.524 0.264,-1.921 0.531,-2.075 0.815,-3.814 0.206,-1.265 0.38,-2.401 0.157,-3.819 -0.169,-1.068 -0.726,-1.464 -0.75,-2.566 -0.022,-0.94 0.279,-1.643 0.414,-1.97 C -2.507,7.748 -1.438,4.537 0,0" /></g></g></g></g><g
           id="g68"><g
             id="g70" /><g
             id="g82"><g
               style="opacity:0.69999701"
               id="g80"
               clip-path="url(#clipPath74)"><g
                 id="g78"
                 transform="translate(88.3491,216.1716)"><path
                   id="path76"
                   style="fill:#8cc63f;fill-opacity:1;fill-rule:nonzero;stroke:none"
                   d="M 0,0 C -0.333,1.051 1.841,2.836 3.832,3.662 5.489,4.35 6.939,4.339 7.237,4.333 11.17,4.26 12.066,1.427 15.751,1.282 c 0.476,-0.019 2.934,-0.116 4.684,1.465 1.744,1.575 1.878,4.186 1.885,7.079 0.004,1.688 -0.28,3.366 -0.851,6.653 -0.086,0.492 -0.484,4.587 -1.277,12.755 -0.047,0.478 -0.18,1.85 0.607,3.052 0.154,0.233 0.949,1.446 2.129,1.404 0.926,-0.033 1.543,-0.818 1.764,-1.099 0.791,-1.005 0.835,-2.193 0.851,-2.563 0.062,-1.399 0.528,-4.005 1.46,-9.216 0.932,-5.209 1.867,-5.831 2.372,-5.92 0.071,-0.013 0.287,-0.051 0.487,0.061 0.776,0.433 0.289,2.551 0,4.211 -0.407,2.332 -0.373,4.851 -0.304,9.887 0.026,1.972 0.119,3.256 1.033,3.907 0.642,0.456 1.624,0.542 2.372,0.183 1.328,-0.639 1.633,-2.548 2.129,-5.921 0.055,-0.375 0.181,-1.268 0.304,-2.746 0.351,-4.196 0.116,-6.328 1.217,-9.094 0.54,-1.359 0.798,-1.351 0.851,-1.342 0.342,0.051 0.403,1.307 0.608,4.943 0.242,4.29 0.244,4.057 0.244,4.211 -0.002,3.541 -0.565,4.844 0.426,6.042 0.186,0.227 0.799,0.897 1.702,0.977 1.099,0.097 1.948,-0.738 2.129,-0.916 0.884,-0.869 1.102,-2.084 0.972,-7.018 -0.049,-1.912 -0.062,-3.825 -0.121,-5.737 -0.087,-2.824 -0.163,-4.221 0.791,-5.005 0.808,-0.663 1.91,-0.522 2.128,-0.488 0.729,0.111 1.457,0.514 3.346,2.93 1.216,1.556 1.323,1.913 2.433,3.356 1.68,2.188 2.54,3.28 3.466,3.174 0.907,-0.104 1.64,-1.196 1.825,-2.136 0.189,-0.965 -0.23,-1.616 -1.278,-3.662 C 54.331,11.184 54.757,11.524 53.946,10.253 52.332,7.725 51.485,7.854 50.784,6.164 49.991,4.258 50.252,2.798 50.358,0.549 c 0.175,-3.743 -0.182,-6.536 -0.791,-10.253 -1.025,-6.256 -2.741,-7.093 -2.919,-12.512 -0.03,-0.908 0.122,-2.497 0.426,-5.676 0.468,-4.899 0.819,-6.922 1.946,-15.319 0.666,-4.964 0.561,-5.952 1.276,-14.281 1.967,-22.889 1.338,-27.892 1.338,-27.892 h -25.36 c 0.302,6.471 0.621,13.238 0.851,18.065 1.111,23.338 1.315,26.756 0.851,31.493 -0.488,4.999 -1.601,10.012 -1.277,15.441 0.03,0.493 0.079,1.128 -0.121,1.953 -0.637,2.624 -2.927,3.599 -8.637,7.629 -2.197,1.552 -3.296,2.327 -4.014,2.991 -2.042,1.888 -2.767,3.235 -5.23,5.004 C 7.548,-1.982 6.662,-1.525 5.595,-1.343 4.666,-1.184 4.398,-1.369 3.223,-1.221 2.129,-1.083 0.269,-0.849 0,0" /></g></g></g></g><g
           id="g84"><g
             id="g86" /><g
             id="g98"><g
               style="opacity:0.69999701"
               id="g96"
               clip-path="url(#clipPath90)"><g
                 id="g94"
                 transform="translate(146.251,130.6887)"><path
                   id="path92"
                   style="fill:#21409a;fill-opacity:1;fill-rule:nonzero;stroke:none"
                   d="m 0,0 c 3.689,-0.011 7.379,-0.022 11.067,-0.033 1.187,5.558 1.485,8.673 1.493,10.554 0.002,0.556 -0.018,1.915 0.686,3.407 0.404,0.859 0.974,1.466 2.095,2.646 2.077,2.185 3.652,3.244 4.442,3.734 0.912,0.565 1.381,0.849 1.988,0.942 1.013,0.156 1.785,-0.183 2.275,0.326 0.206,0.214 0.297,0.51 0.289,0.761 -0.023,0.684 -0.794,1.12 -1.12,1.305 -0.939,0.532 -1.9,0.497 -2.276,0.471 -2.822,-0.189 -4.183,-1.937 -4.742,-1.528 -0.9,0.659 1.729,5.839 2.095,6.561 1.38,2.72 2.33,5.641 3.612,8.409 0.117,0.252 0.441,0.946 0.144,1.45 -0.249,0.425 -0.833,0.499 -0.902,0.508 -0.114,0.013 -0.543,0.049 -1.11,-0.321 -0.684,-0.447 -0.894,-1.047 -1.636,-2.651 -0.173,-0.376 -0.458,-0.984 -0.831,-1.741 0.167,1.08 0.307,1.925 0.398,2.465 0.067,0.4 0.175,1.036 0.217,1.885 0.065,1.334 -0.112,1.602 -0.253,1.74 -0.314,0.305 -0.891,0.393 -1.337,0.217 -0.656,-0.257 -0.895,-1.031 -1.553,-3.552 -0.465,-1.779 -0.486,-1.938 -0.614,-2.392 -0.714,-2.539 -2.143,-5.338 -2.745,-5.184 -0.319,0.082 -0.333,1.034 -0.362,2.937 -0.026,1.801 -0.263,3.6 -0.216,5.4 0.006,0.253 0.025,0.809 -0.326,1.088 -0.33,0.264 -0.871,0.189 -1.227,0 C 9.113,39.171 8.891,38.731 8.72,38.171 8.37,37.022 8.521,36.286 8.539,34.945 8.563,33.108 8.292,33.404 8.322,31.575 8.346,30.191 8.508,29.621 8.105,28.82 8.037,28.684 7.491,27.624 6.77,27.66 6.589,27.669 6.349,27.749 5.975,28.167 5.312,28.91 5.226,29.602 4.639,31.321 4.283,32.36 4.079,32.798 3.627,33.024 3.522,33.077 3.11,33.265 2.724,33.097 2.26,32.895 2.131,32.308 2.074,32.046 1.978,31.605 1.99,31.101 2.507,29.581 2.642,29.186 2.755,28.892 3.049,28.131 3.83,26.114 3.946,25.967 4.061,25.449 4.229,24.684 4.151,24.034 3.988,22.767 3.726,20.723 3.442,20.556 3.157,18.707 2.95,17.36 2.773,16.152 3.023,14.648 3.213,13.515 3.808,13.099 3.844,11.928 3.874,10.938 3.565,10.193 3.421,9.832 2.73,8.114 1.563,4.689 0,0" /></g></g></g></g><g
           id="g100"><g
             id="g102" /><g
             id="g114"><g
               style="opacity:0.69999701"
               id="g112"
               clip-path="url(#clipPath106)"><g
                 id="g110"
                 transform="translate(165.7227,170.1276)"><path
                   id="path108"
                   style="fill:#7f3f98;fill-opacity:1;fill-rule:nonzero;stroke:none"
                   d="M 0,0 C -0.153,0.484 0.848,1.305 1.764,1.685 2.526,2.001 3.193,1.997 3.33,1.994 5.14,1.96 5.553,0.657 7.248,0.59 7.467,0.581 8.598,0.536 9.403,1.264 10.206,1.989 10.268,3.19 10.271,4.521 10.272,5.298 10.142,6.07 9.879,7.583 9.84,7.809 9.656,9.693 9.291,13.452 c -0.021,0.219 -0.082,0.851 0.28,1.404 0.071,0.107 0.437,0.665 0.98,0.646 0.426,-0.015 0.71,-0.377 0.811,-0.505 0.365,-0.463 0.384,-1.01 0.392,-1.18 0.028,-0.644 0.243,-1.843 0.672,-4.241 0.428,-2.396 0.858,-2.683 1.091,-2.724 0.033,-0.005 0.132,-0.023 0.224,0.028 0.358,0.2 0.133,1.174 0,1.938 -0.187,1.073 -0.172,2.232 -0.14,4.55 0.012,0.907 0.055,1.498 0.476,1.797 0.295,0.21 0.747,0.25 1.091,0.084 0.611,-0.293 0.752,-1.172 0.979,-2.724 0.026,-0.173 0.083,-0.584 0.141,-1.264 0.16,-1.93 0.053,-2.911 0.56,-4.184 0.248,-0.625 0.367,-0.621 0.391,-0.618 0.157,0.024 0.186,0.602 0.28,2.275 0.112,1.974 0.112,1.867 0.112,1.937 -0.001,1.63 -0.26,2.229 0.196,2.781 0.086,0.104 0.367,0.413 0.783,0.449 0.506,0.045 0.897,-0.339 0.98,-0.421 0.406,-0.4 0.507,-0.959 0.448,-3.23 C 20.015,9.371 20.009,8.49 19.981,7.61 19.942,6.311 19.906,5.668 20.346,5.308 c 0.371,-0.306 0.879,-0.241 0.979,-0.225 0.335,0.051 0.67,0.236 1.539,1.348 0.56,0.716 0.61,0.881 1.119,1.545 0.774,1.006 1.169,1.509 1.596,1.46 0.417,-0.048 0.754,-0.55 0.839,-0.983 C 26.505,8.009 26.312,7.709 25.83,6.768 25,5.146 25.196,5.303 24.823,4.718 24.08,3.554 23.69,3.613 23.368,2.836 23.003,1.959 23.124,1.287 23.172,0.252 c 0.081,-1.722 -0.083,-3.007 -0.363,-4.717 -0.472,-2.879 -1.262,-3.264 -1.344,-5.758 -0.014,-0.417 0.056,-1.149 0.196,-2.611 0.215,-2.254 0.377,-3.186 0.896,-7.049 0.306,-2.284 0.257,-2.739 0.587,-6.572 0.905,-10.532 0.616,-12.834 0.616,-12.834 H 12.09 c 0.139,2.978 0.286,6.091 0.391,8.313 0.511,10.738 0.606,12.311 0.392,14.491 -0.225,2.3 -0.736,4.607 -0.587,7.105 0.013,0.227 0.036,0.519 -0.057,0.899 -0.292,1.207 -1.346,1.655 -3.973,3.51 -1.011,0.714 -1.517,1.071 -1.847,1.376 -0.94,0.869 -1.273,1.489 -2.407,2.303 -0.528,0.38 -0.937,0.59 -1.427,0.674 C 2.147,-0.545 2.024,-0.63 1.483,-0.562 0.979,-0.499 0.124,-0.391 0,0" /></g></g></g></g><g
           id="g116"><g
             id="g118" /><g
             id="g130"><g
               style="opacity:0.80000299"
               id="g128"
               clip-path="url(#clipPath122)"><g
                 id="g126"
                 transform="translate(5.1812,124.8645)"><path
                   id="path124"
                   style="fill:#231f20;fill-opacity:1;fill-rule:nonzero;stroke:#231f20;stroke-width:3;stroke-linecap:butt;stroke-linejoin:miter;stroke-miterlimit:10;stroke-dasharray:none;stroke-opacity:1"
                   d="M 0,0 192.597,0.708" /></g></g></g></g><g
           id="g132"><g
             id="g134" /><g
             id="g146"><g
               style="opacity:0.80000299"
               id="g144"
               clip-path="url(#clipPath138)"><g
                 id="g142"
                 transform="translate(5.4927,76.3352)"><path
                   id="path140"
                   style="fill:#231f20;fill-opacity:1;fill-rule:nonzero;stroke:#231f20;stroke-width:3;stroke-linecap:butt;stroke-linejoin:miter;stroke-miterlimit:10;stroke-dasharray:none;stroke-opacity:1"
                   d="M 0,0 192.597,0.708" /></g></g></g></g><g
           id="g148"><g
             id="g150" /><g
             id="g198"><g
               style="opacity:0.80000299"
               id="g196"
               clip-path="url(#clipPath154)"><text
                 id="text158"
                 style="font-variant:normal;font-weight:normal;font-stretch:normal;font-size:37.47460175px;font-family:'Myriad Pro';-inkscape-font-specification:AgencyFB-Reg;writing-mode:lr-tb;fill:#231f20;fill-opacity:1;fill-rule:nonzero;stroke:none"
                 transform="matrix(0.99649896,0,0,-1,7.2529,90.1836)"><tspan
                   id="tspan156"
                   y="0"
                   x="0 20.910828 46.730827 63.069752 87.315819 111.97411 130.59898 149.03648 167.47398">VOLUNTEER</tspan></text>
<g
                 id="g162"
                 transform="translate(19.2026,90.1836)"><path
                   id="path160"
                   style="fill:none;stroke:#231f20;stroke-width:1;stroke-linecap:butt;stroke-linejoin:miter;stroke-miterlimit:10;stroke-dasharray:none;stroke-opacity:1"
                   d="M 0,0 9,25.258 H 5.527 L 1.27,12.779 C 0.149,9.481 -0.896,6.296 -1.605,3.373 H -1.68 c -0.673,2.96 -1.606,6.033 -2.689,9.443 L -8.29,25.258 H -11.8 L -3.585,0 Z" /></g><g
                 id="g166"
                 transform="translate(41.123,115.8535)"><path
                   id="path164"
                   style="fill:none;stroke:#231f20;stroke-width:1;stroke-linecap:butt;stroke-linejoin:miter;stroke-miterlimit:10;stroke-dasharray:none;stroke-opacity:1"
                   d="m 0,0 c -6.722,0 -11.688,-5.246 -11.688,-13.266 0,-7.645 4.667,-12.816 11.315,-12.816 6.423,0 11.688,4.609 11.688,13.304 C 11.315,-5.284 6.872,0 0,0 Z m -0.149,-2.66 c 5.415,0 8.028,-5.247 8.028,-10.269 0,-5.733 -2.912,-10.493 -8.066,-10.493 -5.116,0 -8.028,4.835 -8.028,10.232 0,5.545 2.688,10.53 8.066,10.53 z" /></g><g
                 id="g170"
                 transform="translate(56.6577,90.1836)"><path
                   id="path168"
                   style="fill:none;stroke:#231f20;stroke-width:1;stroke-linecap:butt;stroke-linejoin:miter;stroke-miterlimit:10;stroke-dasharray:none;stroke-opacity:1"
                   d="M 0,0 H 14.004 V 2.735 H 3.249 V 25.258 H 0 Z" /></g><g
                 id="g174"
                 transform="translate(72.9019,115.4414)"><path
                   id="path172"
                   style="fill:none;stroke:#231f20;stroke-width:1;stroke-linecap:butt;stroke-linejoin:miter;stroke-miterlimit:10;stroke-dasharray:none;stroke-opacity:1"
                   d="m 0,0 v -14.877 c 0,-7.833 3.884,-10.793 9.037,-10.793 5.452,0 9.523,3.186 9.523,10.942 V 0 h -3.287 v -14.952 c 0,-5.584 -2.39,-8.058 -6.124,-8.058 -3.361,0 -5.863,2.399 -5.863,8.058 L 3.286,0 Z" /></g><g
                 id="g178"
                 transform="translate(100.1626,90.1836)"><path
                   id="path176"
                   style="fill:none;stroke:#231f20;stroke-width:1;stroke-linecap:butt;stroke-linejoin:miter;stroke-miterlimit:10;stroke-dasharray:none;stroke-opacity:1"
                   d="m 0,0 v 10.793 c 0,4.197 -0.075,7.232 -0.262,10.418 l 0.113,0.037 C 1.12,18.513 2.801,15.627 4.556,12.816 L 12.547,0 h 3.286 V 25.258 H 12.771 V 14.69 c 0,-3.935 0.075,-7.007 0.374,-10.38 L 13.07,4.272 C 11.875,6.857 10.418,9.519 8.551,12.479 L 0.485,25.258 H -3.063 L -3.063,0 Z" /></g><g
                 id="g182"
                 transform="translate(126.4521,90.1836)"><path
                   id="path180"
                   style="fill:none;stroke:#231f20;stroke-width:1;stroke-linecap:butt;stroke-linejoin:miter;stroke-miterlimit:10;stroke-dasharray:none;stroke-opacity:1"
                   d="m 0,0 h 3.286 v 22.484 h 7.693 v 2.774 H -7.655 V 22.484 H 0 Z" /></g><g
                 id="g186"
                 transform="translate(153.2646,104.7236)"><path
                   id="path184"
                   style="fill:none;stroke:#231f20;stroke-width:1;stroke-linecap:butt;stroke-linejoin:miter;stroke-miterlimit:10;stroke-dasharray:none;stroke-opacity:1"
                   d="M 0,0 H -9.784 V 7.982 H 0.56 v 2.736 H -13.033 V -14.54 H 1.12 v 2.735 H -9.784 v 9.107 H 0 Z" /></g><g
                 id="g190"
                 transform="translate(171.6367,104.7236)"><path
                   id="path188"
                   style="fill:none;stroke:#231f20;stroke-width:1;stroke-linecap:butt;stroke-linejoin:miter;stroke-miterlimit:10;stroke-dasharray:none;stroke-opacity:1"
                   d="M 0,0 H -9.784 V 7.982 H 0.56 v 2.736 H -13.033 V -14.54 H 1.12 v 2.735 H -9.784 v 9.107 H 0 Z" /></g><g
                 id="g194"
                 transform="translate(176.9766,90.1836)"><path
                   id="path192"
                   style="fill:none;stroke:#231f20;stroke-width:1;stroke-linecap:butt;stroke-linejoin:miter;stroke-miterlimit:10;stroke-dasharray:none;stroke-opacity:1"
                   d="M 0,0 H 3.249 V 10.942 H 6.312 C 9.262,10.83 10.605,9.519 11.353,6.033 12.063,2.886 12.622,0.712 13.033,0 h 3.361 c -0.523,0.975 -1.121,3.41 -1.942,6.933 -0.598,2.623 -1.755,4.421 -3.697,5.096 v 0.113 c 2.651,0.899 4.743,3.11 4.743,6.446 0,1.948 -0.71,3.672 -1.979,4.796 -1.569,1.425 -3.809,2.061 -7.283,2.061 -2.24,0 -4.592,-0.187 -6.236,-0.524 z m 3.249,22.635 c 0.522,0.149 1.644,0.3 3.212,0.3 3.435,-0.038 5.788,-1.462 5.788,-4.722 0,-2.886 -2.203,-4.797 -5.677,-4.797 H 3.249 Z" /></g></g></g></g></g></g></g></svg>