<?xml version='1.0' encoding='utf-8'?>
<svg xmlns="http://www.w3.org/2000/svg" width="841.89" height="595.276"><path fill="#D5D4D2" d="M0 0h841.89v595.276H0z"/><g fill="#FFF"><path d="M367.577 309.01c-4.272-3.02-10.762-1.662-14.212-5.789.054-.305-.006-.643-.25-.985l-1.351-1.909a1.534 1.534 0 0 0-.152-.215c-2.529-3.576-5.06-7.148-7.708-10.638-1.593-2.099-3.335-4.081-4.887-6.211-2.364-3.245-.821-5.56-.251-8.747.207-1.157-1.018-2.534-2.203-1.694-1.939 1.373-4.308 1.391-5.9-.566-.332-.407-.917-.893-1.444-1.084-2.495-.907-5.055-.423-7.649-.304-1.926.088-1.935 3.089 0 3l.056-.003c.005.155.03.31.077.459-1.006.502-1.675 1.618-1.805 3.691-.348 5.566-1.311 11.024-1.237 16.621.068 5.245 1.09 8.769 4.724 12.479.2.205.417.324.637.39 1.523 3.067 2.366 5.829 2.533 9.519.136 2.997 1.68 6.039 1.328 8.969a.982.982 0 0 0 .021.323c-.406.155-.811.322-1.215.507-2.812 1.279-4.819 4.162-6.679 6.484-1.197 1.494.912 3.631 2.121 2.121 2.517-3.143 4.67-5.609 8.597-7.052 3.717-1.365 7.749-1.744 11.51-3.09 3.603-1.289 7.073-2.996 10.719-4.157 2.371-.754 4.546-1.498 6.299-3.326.054-.057.094-.115.137-.174.311-.137.627-.264.935-.404 3.125-1.421 4.947-3.838 7.554-5.859.824-.641.396-1.861-.305-2.356zM345.425 510.279c-1.507-2.396-5.368-1.937-7.78-2.482-2.286-.518-4.242-2.047-6.341-3.018-2.023-.937-4.245-1.467-6.382-2.069-5.072-1.43-9.985-4.08-14.365-7.001-2.83-1.888-3.498-4.212-5.37-6.762-.636-.865-1.136-1.633-2.258-1.909-3.332-.822-7.173-.433-10.568-.17a1.52 1.52 0 0 0-.794.289c-.91-.406-2.188.019-2.122 1.294.216 4.151-.857 8.111-2.713 11.832-1.155 2.315-2.623 3.655-3.316 6.259-.93 3.493-2.272 9.022 2.042 10.818 5.708 2.377 12.161 1.729 18.11.86 3.396-.497 6.816-.919 10.19-1.544 3.166-.587 6.335-1.544 9.466-1.409-.076.574.144 1.186.715 1.479 5.785 2.972 13.862.525 19.076-2.466 1.181-.678 3.496-2.275 2.41-4.001zM210.808 162.933c.515-1.539 1.899-2.764 2.252-4.347.404-1.807-.078-3.188-.995-4.752-.811-1.381-2.012-2.377-3.273-3.319-1.855-1.387-2.985-3.483-4.787-4.958a1.55 1.55 0 0 0-.803-.348 17.43 17.43 0 0 1-.521-1.105c-.926-2.171-2.774-3.688-3.953-5.696-1.104-1.879-1.52-3.683-2.821-5.465-1.333-1.823-2.253-3.31-2.7-5.516-.465-2.299-1.055-3.444-3.43-3.821-1.616-.256-3.2-.246-4.813-.048-3.21.393-3.371.216-5.345-1.237-.79-.581-1.974.032-2.204.896-.715 2.693-2.209 4.299-2.453 6.823-1.452 2.442-1.033 5.905.277 8.677 3.658 7.741 10.072 14.231 14.833 21.309 2.089 3.105 3.237 6.139 4.54 9.6.671 1.784 1.778 4.066 3.536 5.049 5.915 3.307 9.685-1.717 13.69-5.332.611-.551.551-1.561 0-2.121-1.041-.867-1.734-1.974-2.12-3.293.47-.101.896-.416 1.09-.996zM276.985 298.059c-.035-.043-.063-.086-.105-.127-1.183-1.17-2.172-2.486-3.25-3.75-1.084-1.271-3.004-1.954-4.401-2.79-3.86-2.309-6.454-6.809-9.724-9.835-1.417-1.312-3.544.805-2.121 2.121 2.99 2.768 5.41 6.07 8.421 8.817 1.322 1.206 2.856 2.038 4.41 2.9 1.905 1.055 3.021 3.152 4.544 4.658.034.033.069.055.104.084-3.246 5.053-3.395 11.672-.838 17.112.822 1.75 3.408.226 2.591-1.514-2.214-4.713-1.895-10.985 1.515-15.058.939-1.122-.065-2.624-1.146-2.618zM216.141 247.219c-1.068-3.988-3.458-7.582-3.946-11.726-.224-1.897-3.226-1.919-3 0 .019.156.055.306.078.46a1.394 1.394 0 0 0-.078.665c.466 4.317-.349 11.765 5.5 12.5.993.125 1.674-1.048 1.446-1.899zM352.516 229.844c-3.113-7.531-18.909-6.529-25.035-6.407-7.3.146-14.625 1.076-21.911 1.565-3.524.237-6.955.767-10.453 1.209-4.386.555-9.092-1.158-13.414-1.827-14.805-2.29-29.937 2.283-44.758 1.108-.584-.046-.987.199-1.216.563-.916.565-1.268 1.959-.041 2.482 2.699 1.149 2.452 5.289 5.608 6.026 1.856.434 3.23.343 5.149.179 2.555-.219 5.558.918 7.978 1.652 8.564 2.594 17.154 5.5 26.063 6.675 9.848 1.3 20.105 1.043 30.034 1.205 5.76.093 11.456.185 17.151 1.165 3.892.669 10.262 3.672 10.774 8.304.208 1.879 2.973 1.978 3 0 .035-2.55 3.968-3.2 5.349-4.684 1.487-1.598 2.307-3.624 3.135-5.617 1.136-2.733 1.027-5.697 1.652-8.533.305-1.386 1.548-3.583.935-5.065z"/><path d="M354.445 267.368c-.092-.861-.909-1.848-1.899-1.446-3.645 1.479-5.987 3.31-8.759 5.799a16.825 16.825 0 0 0-.443-.174c-.744-.278-1.674.303-1.845 1.047-.783 3.409 1.415 6.479 4.488 7.737 1.165 1.49 2.169 3.026 3.038 4.794.642 1.308 2.934.721 2.795-.757-.306-3.271.043-6.463.688-9.675.541-2.703 2.244-4.44 1.937-7.325zM557.07 248.493c-2.07.235-4.124.351-6.169.187-.054-.405-.264-.776-.699-.982-3.881-1.834-8.599-1.351-12.764-2.62-5.285-1.609-10.923-2.159-16.307-3.35-4.667-1.032-10.246.06-14.761 1.344-1.051.299-2.068.708-3.076 1.149a1.966 1.966 0 0 0-1.123-.175c-9.138 1.48-18.198 3.397-27.264 5.259a1.446 1.446 0 0 0-1.486-.509c-8.316 1.823-16.753 2.642-25.17 3.818-4.726.661-9.264 1.936-14.044 2.406-4.286.421-8.612.445-12.914.47-8.152.046-16.508 1.209-24.552-.518-5.407-1.161-11.98-5.738-17.428-3.15-.436.207-.661.512-.736.845-7.521.537-14.753 3.275-19.692 9.39-.847 1.049-.053 2.412.916 2.606-.729 7.606-2.868 15.256-3.153 22.844-.147 3.919 2.854 6.731 6.15 8.188 10.656 4.709 20.77-1.136 28.689-8.117 3.121-2.751 5.777-4.745 9.95-5.627 4-.845 8.262-.911 12.318-1.55 7.51-1.184 15.097-.999 22.45-3.03 7.447-2.056 14.68-5.239 21.9-7.967 6.705-2.533 13.615-5.641 20.753-6.954.186.495.629.859 1.336.793 2.413-.223 4.415-.915 6.59-1.964.346-.167.687-.319 1.028-.473.204.707.857 1.271 1.781 1.008 3.278-.935 6.615-1.623 9.875-2.625.656-.202.995-.783 1.041-1.376 4.854-1.974 9.631-4.066 14.619-5.923 2.901-1.08 7.936 3.067 10.68 4.26 3.572 1.552 6.776 7.2 9.701 10.029 1.263 1.222 3.107-.315 2.356-1.817-1.191-2.383-2.326-4.698-3.844-6.891-2.156-3.116 1.637-4.503 3.886-5.528 3.365-1.534 6.478-.287 9.889.247 2.981.466 6.305-.379 9.274-.696 1.895-.217 1.927-3.207 0-3.001z"/><path d="M422.615 211.236c-2.124-3.159-4.28-5.016-3.208-9.297.476-1.899.433-3.433-.243-5.257-.826-2.231-1.964-4.019-2.334-6.419-.322-2.091-.859-3.435-2.45-4.83-.583-.512-1.556-.643-2.121 0-2.259 2.567-2.771 5.7-4.508 8.59-1.826 3.039-2.277 9.918-7.283 9.024a1.61 1.61 0 0 0-.609.007c-1.941-2.536-5.715-4.217-8.375-1.674-2.391 2.287-3.929 5.3-5.648 8.09-1.481 2.404-2.799 4.562-5.247 6.061-1.541.944-3.158 1.583-4.62 2.674-4.779 3.566-4.402 11.213-7.413 15.992-2.321 3.683-4.569 7.466-6.801 11.208-1.06 1.776-1.569 3.706-2.233 5.523a25.225 25.225 0 0 1-1.512 2.329c-1.032.858-1.928 1.837-2.612 2.979-.268.447-.271.889-.118 1.261.107 1.003 1.114 1.895 2.17 1.167 1.692-1.168 2.747-2.469 3.533-3.881 2.774-1.767 6.438-2.524 9.432-3.259 5.953-1.461 11.508-1.63 17.537-.932 1.117.129 4.159-.436 3.945-2.176-.603-4.92.222-9.255.947-14.017.581.162 1.241.015 1.645-.648 3.299-5.419 10.051-4.748 15.929-4.385.009 0 .017.003.026.003h.021a59.21 59.21 0 0 0 2.854.125c.726.01 1.174-.381 1.354-.884.438-.161.819-.375 1.081-.681 1.381-1.615 1.958-3.616 3.235-5.304.551-.729.242-1.458-.352-1.861.415-1.318.772-2.69.521-3.891-.632-3.015.883-2.148 2.917-3.585.635-.448 1.025-1.331.54-2.052zM600.51 115.287l.287-.17.001-.084zM600.797 115.117l-.629 104.185 15.174-4.293-.064-108.423zM600.03 223.303l-.342 104.015 15.496 2.041-.239-109.241zM619.611 110.444l-.493 103.693 14.911-4.269.367-113.957-14.767 8.7zM599.987 435.573l13.702 5.982.686-107.351-14.626-2.469zM618.578 443.155l13.701 5.981.623-111.85-14.626-2.468zM617.822 329.655l15.012 2.296.755-116.521-14.582 3.415zM701.612 345.368l38.098 6.642 1.601-197.762-37.94 11.221zM698.905 556.252l38.79 22.116 1.338-214.104-38.04-6.777zM704.687 0l-1.633 154.221 38.436-12.225L742.649 0zM619.652 0l-.301 87.779 13.599-8.934L632.529 0zM601.45 0l-.335 98.777 13.596-8.935L614.232 0z"/></g><path fill="#F79723" d="M325.895 313.173c-5.6-12.891-8.927-27.736-3.254-41.189 1.234-2.928-2.952-4.631-4.909-2.86-.103.098-.211.187-.315.281-4.711-5.123-13.511-5.626-20.55-7.598a224.409 224.409 0 0 0-5.125-3.598c-.03-.022-.042-.051-.072-.071-.14-.096-.289-.174-.43-.27-.347-.236-.689-.479-1.039-.71a3.214 3.214 0 0 0-.511-.267c-6.909-4.177-14.886-6.153-22.16-9.664a511.182 511.182 0 0 1-24.309-12.542c-.952-.844-1.903-1.683-2.856-2.527h-.001c-4.201-5.274-6.044-15.202-7.95-22.826-.106-2.104-.281-4.19-.597-6.234-1.317-8.528-9.689-14.604-12.241-22.768-.323-1.035-1.024-1.634-1.83-1.892-.833-1.707-1.632-3.431-2.333-5.207-.025-.064-.061-.117-.088-.177l-.541-2.469c.321-3.56-4.654-3.622-5.77-.782-2.438 4.856-5.966 6.54-10.585 5.048-3.57-1.297-5.094 4.382-1.562 5.666.249.091.497.136.744.212 5.706 9.737 9.909 20.36 12.632 31.308.368 1.483.646 2.958.876 4.425a3.212 3.212 0 0 0-.007.638c.873 9.812-.107 19.838 5.542 28.411 2.246 3.408 5.091 6.458 8.21 9.299 2.175 4.157 5.07 7.955 8.857 11.354 3.704 3.325 8.26 5.379 12.309 8.304.145.14.286.295.432.424 1.146 1.027 2.35 1.987 3.568 2.934a38.725 38.725 0 0 0 4.51 3.46 78.47 78.47 0 0 1 2.801 2.266c6.37 5.438 12.901 10.626 19.015 16.313-2.114 6.909-3.54 12.208-3.062 19.856.446 7.13 1.986 14.172 3.195 21.23.623 8.352.452 16.734 1.598 25.05a3.172 3.172 0 0 0-.039 1.209c1.387 8.695 2.884 17.374 4.109 26.09a3.15 3.15 0 0 0 .052.84c1.635 7.959-1.145 16.165 1.47 23.992.089.271.216.519.365.745-.019 2.919-.066 5.834-.225 8.756-.052.955.282 1.667.815 2.137-.687 4.46-2.52 8.76-3.02 13.286-.771 6.993 2.255 14.661 2.267 21.814.011 6.619-2.656 17.404 4.286 21.764 5.33 3.35 11.449 4.132 16.963.821 4.479-2.688 3.888-11.26 3.924-15.544.095-10.895.877-21.73 1.335-32.619.482-11.47 2.971-22.314 5.13-33.443.481-.467.818-1.114.858-1.962.052-1.091.085-2.181.119-3.272l.02-.108a3.19 3.19 0 0 0 .019-.932c.292-10.613-.078-21.154.71-31.813.498-6.713.819-13.432 1.344-20.146.637-8.164 1.051-12.885 8.088-18.209 5.095-3.853 1.145-11.792-.782-16.234z"/><path fill="#F269A7" d="M390.906 286.947c-4.333 4.604-10.65 9.317-16.66 9.954-3.892.412-8.312-.619-11.787-2.244-4.493-2.098-4.313-5.588-4.625-9.745-.008-.111-.037-.209-.054-.312.091-1.29.148-2.59.168-3.919.058-3.813.871-7.647.539-11.437a3.126 3.126 0 0 0-.146-.709c.012-.048.032-.091.041-.142 1.522-8.62 7.748-12.763 15.593-15.308 1.63-.53 3.208-.824 4.744-.934 3.651-.788 7.857-.697 11.268.622 1.706.66 2.818 1.198 4.438 2.04 5.059 2.622.139-3.411-1.218-4.055-13.003-6.167-24.296-3.038-35.067 5.604-2.828 3.475-4.689 7.282-9.316 8.697-1.987.609-3.517-1.011-3.719-2.831-.554-4.995-.463-9.789.776-14.625-1.103-.313-2.4-.008-3.313 1.228-4.65 6.285-2.613 12.544-3.507 19.833a44.377 44.377 0 0 1-1.031 3.228 3.13 3.13 0 0 0-.13.923c-.506.335-.887.88-1.013 1.687-1.056 6.817 2.921 11.766 7.187 16.856 3.24 3.865 6.342 7.889 9.727 11.625 2.79 3.084 7.644 3.156 10.609 6.039 1.082 1.052 2.388 1.018 3.402.439a7.44 7.44 0 0 0 2.279.723c3.945.582 7.896-2.711 10.92-4.718 5.827-3.871 11.363-6.494 14.518-11.901-.006-.16-.013-.317.008-.492.245-2.159.226-4.348.592-6.493.114-.661.311-1.282.525-1.899a3.35 3.35 0 0 0-.947-.635c-1.471 1.164-3.056 2.156-4.801 2.901zm-38.652-3.537c-.218.41-.341.903-.295 1.502l.005.088a6.329 6.329 0 0 0-1.938-.963c-1.001-.301-6.287-7.507-7.306-9.22a3.04 3.04 0 0 0 .972-1.363c.999-3.32 5.084-5.01 8.945-6.405l-.026.565a2.68 2.68 0 0 0 .069.71 2.926 2.926 0 0 0-.069.92c.353 4.017.283 9.348-.357 14.166z"/><path fill="#FFDA90" d="M412.359 181.391c-5.09-2.473-8.019-5.578-13.686-6.142-.476-.562-1.178-.963-2.158-.991-4.613-.123-8.629.712-12.829 2.601-2.884 1.298-5.232 2.993-8.384 3.698-2.719.607-5.553.773-8.293 1.315-1.739.342-2.308 1.766-2.052 3.108-1.479 2.046-2.124 4.979-2.67 7.708-3.986 6.785-3.762 14.182-5.04 21.831-1.545 9.247-7.132 17.722-10.241 26.526-.415 1.172-.079 2.118.596 2.744-2.211 5.447-5.636 15.96-.993 20.841.706.744 1.877 1.046 2.858.756 6.61-1.954 9.918-10.868 13.471-16.066 4.899-7.168 8.1-14.5 7.383-22.937.215-.182.409-.405.583-.661.648-.311 1.184-.905 1.432-1.843.131-.495.236-.992.352-1.489.597-1.284 1.173-2.578 1.923-3.808a2.59 2.59 0 0 0 .319-1.956c1.123.378 2.327.442 3.709.062 2.231-.613 4.568-2.078 5.676-4.197a20.576 20.576 0 0 0 1.485-2.979l2.775-5.308c2.542-2.908 5.243-3.709 8.102-2.405.174 1.844 1.75 3.415 3.719 2.832 9.395-2.777 5.436-13.663 11.962-18.166 1.667-1.149 2.136-4.035.001-5.074z"/><path fill="#88CC2E" d="M536.677 529.799c-.118-.729-.505-1.433-1.26-1.961-13.575-9.514-30.251-26.168-35.86-42.637-.547-1.604-1.968-2.371-3.613-2.052-34.441 6.691-82.688 6.149-117.226 4.257-24.652-1.35-49.154.584-73.688 1.994 1.002.484 1.812 1.483 1.681 2.619-.302 2.619 1.946 4.649 4.123 6.348 2.338 1.065 5.29 1.805 6.816 2.361 3.103 1.134 6.089 2.325 8.836 4.099 3.757 1.344 7.412 2.94 9.312 4.799 1.788-.053 3.533-.231 5.384-.854 3.204-1.079 5.114 3.737 2.264 5.368-10.121 5.798-21.137.093-32.063 2.294-9.724 1.962-18.62 3.867-27.696-1.192-.031-.019-.049-.037-.08-.056-.307-.861-.553-1.746-.633-2.704-.144-1.741.394-3.635 1.001-5.486 1.161-3.324 2.854-6.449 4.287-9.727.1-.227.216-.423.344-.597.013-1.036-.042-2.074-.272-3.14-.351-1.617.539-2.828 1.717-3.363-6.565.275-13.137.461-19.717.479-34.494.088-68.946-7.881-103.414-2.932-13.751 1.975-23.331.146-33.712 10.783-10.641 10.906-20.267 22.804-30.908 33.713-.988 1.013-1.027 2.228-.552 3.207-.599 1.783.268 4.001 2.629 3.768 17.596-1.756 35.243-.151 52.879-.655 19.012-.544 37.754-4.316 56.796-4.569 18.026-.237 35.944 3.274 53.898 4.411 20.409 1.292 41.094.773 61.531.523 38.519-.464 90.62-3.765 129.119-4.344 15.367-.23 30.534.614 45.789 2.311 9.917 1.104 23.277 3.576 32.333-1.995 2.146-1.32 1.547-4.004-.045-5.07z"/><g fill-rule="evenodd" clip-rule="evenodd" fill="#3D352B"><path d="M177.908 133.22c2.013-.667 2.552-1.896 2.411-3.577-.039-.463.271-.962.449-1.432.599-1.579.702-3.143-.197-4.639-.5-.834-1.304-1.457-2.24-1.095-.494.19-.918 1.01-1.044 1.613-.304 1.44-.604 2.824-1.696 3.924-.212.216-.223.709-.196 1.066.12 1.627.415 3.252.403 4.878-.013 1.374.191 2.562 1.186 3.553.334.33.612.722.961 1.035 3.249 2.92 5.272 6.611 7.169 10.505 3.018 6.2 6.462 12.192 9.71 18.283.571 1.069 1.121 2.157 1.582 3.277 1.55 3.766 4.158 5.286 8.844 5.087 3.372-.143 5.418-1.922 6.565-5.706.034-.11.071-.218.197-.611.082.488.167.714.149.935-.283 3.573-3.042 6.289-6.708 6.557-2.828.208-5.576-.017-7.921-1.846-.79.5-.51 1.046-.227 1.645 4.482 9.52 8.248 19.317 11.353 29.371 2.183 7.065 3.097 14.321 3.396 21.682.18 4.408.749 8.754 2.427 12.889 1.805 4.448 4.952 7.844 8.427 11.032a26370.242 26370.242 0 0 1 48.594 44.753c1.065.982 1.989 2.113 3.12 3.33 5.155-9.377 13.253-13.221 23.281-13.74-2.611.646-5.275 1.129-7.825 1.968-8.175 2.682-13.508 8.301-15.904 16.482-.657 2.243-.544 4.864-.183 7.216 1.244 8.102 2.88 16.141 4.126 24.242.953 6.199 1.668 12.445 2.265 18.69 1.004 10.552 2.054 21.092 3.881 31.54 1.241 7.091 1.802 14.26 1.808 21.447.004 6.784-.153 13.578-.533 20.352-.202 3.585-1.021 7.134-1.575 10.697-.817 5.252-.066 10.39 1.017 15.524.928 4.41 2.087 8.818 2.445 13.281.431 5.38.166 10.817.113 16.227-.019 1.951-.134 1.995 1.744 2.193 4.665.489 9.325.459 13.973-.213 1.748-.251 2.123-.595 2.163-2.321.051-2.116-.133-4.237-.045-6.353.319-7.641.596-15.288 1.105-22.917a711.365 711.365 0 0 1 2.025-24.05c.562-5.579 1.541-11.115 2.152-16.691.849-7.76 1.795-15.525 2.225-23.316.83-15.003 1.286-30.028 2.001-45.042.106-2.238.706-4.463 1.197-6.666.301-1.347.412-2.619-.163-3.905-.692-1.55-.46-2.411 1.107-3.148 1.409-.661 2.92-1.122 4.408-1.606a64.993 64.993 0 0 1 4.293-1.243c1.167-.29 1.691-1.071 1.563-2.146-.282-2.368-.422-4.803-1.112-7.061-2.016-6.593-3.979-13.229-6.512-19.634-3.283-8.299-2.479-16.272.706-24.269.607-1.524 1.278-3.023 1.934-4.565-.602-.676-1.247-.498-1.685.083a11.08 11.08 0 0 0-1.326 2.326c-1.033 2.432-2.65 4.337-4.907 5.701a4.57 4.57 0 0 1-.516.276c-.054.023-.138-.026-.291-.061 2.453-1.698 4.248-3.838 5.246-6.644.314-.885.146-1.362-.543-1.878-2.906-2.174-6.263-3.152-9.759-3.851a464.575 464.575 0 0 1-13.093-2.805c-1.051-.242-2.035-.812-3.023-1.285-9.124-4.363-18.245-8.727-27.361-13.102-5.867-2.818-11.717-5.668-17.586-8.481-1.985-.949-3.49-2.22-4.167-4.467-.524-1.743-1.681-3.143-3.229-4.23-1.728-1.216-2.488-3.119-3.011-5.065-1.029-3.823-1.912-7.684-2.926-11.514-1.514-5.711-3.87-11.08-6.492-16.369-4.198-8.46-8.198-17.024-12.292-25.538-.697-1.45-1.371-2.918-2.193-4.294-.483-.808-1.237-1.455-1.787-2.078.668-.132 1.331.341 1.782 1.158 1.515 2.747 3.073 5.471 4.498 8.263 4.203 8.245 8.323 16.532 12.528 24.775 3.38 6.622 5.495 13.662 7.098 20.88.095.42.143.871.337 1.244.128.243.477.515.733.522 2.901.099 5.811.307 8.705.175 3.838-.173 7.672-.532 11.491-.965 8.728-.988 17.313-.158 25.82 1.838 1.831.429 3.639.95 5.455 1.439.098.026.177.126.223.37-2.302-.368-4.609-.702-6.905-1.11-9.274-1.644-18.562-1.836-27.893-.458-3.76.554-7.541.977-11.373.594-1.784-.177-3.599-.03-5.559-.03.57 1.906 1.061 3.735 2.648 4.851 1.956 1.373 3.243 3.199 4.021 5.374.474 1.326 1.283 2.185 2.504 2.771 5.512 2.649 10.997 5.358 16.532 7.958 8.624 4.05 17.456 7.698 25.862 12.154 5.811 3.08 11.878 4.551 18.218 5.517 4.313.655 8.438 1.828 11.845 4.768.138.117.337.241.504.236 1.222-.041 2.444-.167 3.665-.164 2.149.006 4.063.779 5.819 1.972.551.373 1.075.79 1.598 1.204 2.06 1.638 2.058 1.642 4.296.42 1.382-.754 2.225-1.647 2.95-2.998a61.13 61.13 0 0 1 2.332-3.976c-.248.788-.469 1.583-.75 2.358-.447 1.234-.887 2.478-1.419 3.677-.427.962-.908 1.918-1.505 2.777-.786 1.132-.875 2.25-.236 3.415 1.374 2.506 2.646 5.085 4.209 7.474 4.229 6.453 8.964 12.515 14.821 17.602 2.937 2.552 6.234 4.49 10.155 5.162 3.177.55 6.055-.196 8.448-2.3 1.871-1.644 4.005-2.696 6.247-3.67 2.836-1.234 5.627-2.577 8.404-3.944 5.289-2.6 6.452-9.655 5.66-13.56-1.699 1.237-3.347 2.416-4.97 3.628-2.86 2.137-5.639 4.392-8.576 6.418-3.734 2.577-7.818 3.588-12.284 2.063a5.387 5.387 0 0 1-.437-.168.455.455 0 0 1-.279-.281c.692.143 1.383.297 2.078.431 3.469.666 6.701-.097 9.516-2.087 3.458-2.446 6.762-5.109 10.085-7.737 4.194-3.32 8.62-6.247 13.972-7.229 3.773-.692 7.602-1.242 11.429-1.474 12.582-.764 24.659-3.441 36.156-8.723 8.077-3.713 16.633-5.9 25.425-7.027 9.807-1.258 18.967-4.473 27.928-8.47 4.218-1.884 8.463-3.829 13.107-4.417 2.239-.283 4.583-.429 6.794-.087 5.713.885 11.177.061 16.581-1.687 1.258-.407 2.507-.833 3.74-1.476-.28-.015-.559-.036-.837-.041-2.096-.033-4.066-.539-6.078-1.172-3.015-.955-6.14-1.613-9.257-2.175-3.586-.647-7.199-1.234-10.83-1.518-4.605-.364-9.042.874-13.412 2.147-8.136 2.368-16.488 3.503-24.849 4.653-4.117.566-8.224 1.222-12.328 1.884a9.297 9.297 0 0 0-2.35.723c-2.86 1.294-5.851 1.878-8.972 2.213-5.141.553-10.252 1.39-15.377 2.114-4.309.608-8.6 1.448-12.93 1.766-2.899.211-5.849-.344-8.779-.499-5.366-.283-10.737-.501-16.104-.8-2.499-.136-5.015-.254-7.484-.64-2.029-.317-3.893-1.23-5.424-2.515 2.068.771 4.2 1.568 6.329 2.363.06-.124.118-.249.175-.374-.224-.154-.437-.331-.676-.459-3.732-1.979-7.566-3.715-11.903-3.632-1.465.027-3.043.201-4.359.785-4.618 2.045-9.167 4.253-13.699 6.484-4.918 2.424-6.923 6.737-7.337 11.93-.461 5.787-.795 11.585-1.201 17.376-.066.92-.219 1.833-.332 2.75a32.59 32.59 0 0 0-.309-.007c-.058-1.328-.194-2.656-.164-3.979.135-6.003.267-12.008.494-18.008.175-4.563 2.671-7.846 6.172-10.483 3.288-2.476 7.029-4.115 10.806-5.669.941-.389 1.919-.704 2.832-1.147 5.026-2.453 10-1.954 14.85.395 2.068 1.001 3.907 2.462 5.929 3.57.73.401 1.691.547 2.541.532 7.976-.147 15.918.079 23.865.93 2.947.316 6.032-.224 9.004-.683 6.356-.988 12.672-2.228 19.021-3.261 2.509-.408 5.066-.516 7.598-.825.766-.092 1.562-.29 2.254-.628 3.952-1.922 8.224-2.54 12.5-3.104 11.284-1.49 22.528-3.14 33.479-6.406 5.878-1.756 11.85-1.62 17.826-.398 3.496.717 7.025 1.283 10.509 2.05 1.595.352 3.098 1.101 4.68 1.529 2.375.639 4.75.321 7.113-.19.572-.121 1.19-.28 1.739-.173.501.098 1.208.452 1.328.841.117.389-.331 1.002-.629 1.448-.179.263-.551.395-.83.904 2.345.349 4.693.673 7.03 1.054 1.119.182 2.25.396 3.316.757.419.142.951.735.943 1.113-.007.387-.559 1.015-.962 1.098-1.723.352-3.472.68-5.224.763-5.232.255-10.427-.161-15.598-1.018-.725-.121-1.678.24-2.317.682-1.344.93-2.551 2.062-3.85 3.137 1.39 1.922 2.865 3.856 4.215 5.872.578.863 1.077 1.862 1.283 2.868.161.773.007 1.75-.353 2.466-.697 1.392-2.289 1.516-3.303.335-2.665-3.095-5.269-6.24-7.949-9.319-.454-.523-1.139-.87-1.766-1.208-1.027-.554-2.136-.973-3.131-1.575-.489-.301-.806-.89-1.128-1.5 4.476 2.813 8.682 2.758 12.482-.58-3.646-.259-7.444-.6-11.246-.774-3.713-.173-7.24.805-10.647 2.178-5.237 2.105-10.433 4.314-15.681 6.39-5.871 2.316-12.008 3.615-18.25 4.42-10.401 1.337-20.254 4.503-29.838 8.658-8.766 3.805-18 5.622-27.493 6.399a254.188 254.188 0 0 0-16.591 1.892c-2.049.302-3.979 1.377-5.974 2.074-.768.269-.931.749-.856 1.531.285 3.006.02 5.958-1.098 8.793-1.106 2.812-2.93 5.033-5.646 6.373-3.021 1.491-6.14 2.779-9.156 4.277-1.772.883-3.401 2.049-5.135 3.014-1.633.906-3.32 1.713-4.979 2.565-.333.171-.767.28-.969.554-4.317 5.854-10.271 9.199-17.099 11.227-7.674 2.283-15.413 4.287-23.322 5.586-.336.057-.813.264-.922.529-.493 1.189-1.455 1.662-2.589 2.006-2.401.727-4.8 1.463-7.175 2.271-1.51.513-1.351.547-1.072 2.042.239 1.277.486 2.759.071 3.913-1.213 3.379-1.194 6.859-1.325 10.338-.453 12.117-.83 24.236-1.275 36.354-.47 12.722-1.84 25.347-3.755 37.936-.908 5.964-1.264 12.02-1.754 18.042-.662 8.136-1.329 16.275-1.77 24.425-.278 5.124-.109 10.271-.219 15.407-.034 1.631.006 3.389-.589 4.841-.524 1.276-1.101 2.364-.896 3.811.381 2.695.671 5.426 2.469 7.612.642.779 1.602 1.413 2.544 1.81 6.032 2.537 12.095 4.994 18.157 7.458 2.753 1.119 5.427 2.537 8.488 2.638 1.289.043 2.583-.068 3.875-.116.233-.01.469-.098.7-.088.959.044 1.941.149 2.384 1.161.459 1.043-.132 1.838-.875 2.468-.49.412-1.11.673-1.818.808.445-.376.987-.685 1.307-1.147.347-.503.486-1.15.717-1.732-.632-.199-1.262-.553-1.896-.561-.93-.012-1.858.278-2.794.346-2.299.165-4.549-.129-6.708-.952-7.028-2.68-14.021-5.455-21.087-8.033-4.398-1.604-6.297-4.897-6.96-9.213-.194-1.275-.325-2.562-.467-3.708-4.869.145-9.7.286-14.634.431-.003.076-.037.332-.031.587.111 6.108-.066 12.17-2.413 17.952-.38.935-.562 1.963-.726 2.963-.389 2.349.748 3.852 3.174 3.927 2.189.07 4.4-.024 6.579-.261 4.171-.456 8.276-.099 12.432.36 5.176.57 10.401.699 15.606.985.616.032 1.331.032 1.85-.239 1.488-.775 2.833-.514 4.257.155.653.307 1.434.408 2.165.445.342.018.703-.337 1.056-.522-.22-.328-.371-.752-.671-.965-.835-.592-1.732-1.098-2.479-1.826 1.362 1.107 3.861.574 4.341 3.008 1.119.08 2.269.366 3.05-.913l-2.722-1.994c.06-.104.119-.21.177-.317 1.026.466 2.094.852 3.06 1.417.725.423.846 1.286.229 1.811-.674.576-1.553 1.094-2.409 1.234-1.363.221-2.785.193-4.172.109-.961-.061-1.9-.439-2.864-.577-.62-.089-1.275-.056-1.9.032-1.387.192-2.761.624-4.148.661-5.932.162-11.835-.248-17.747-.819-3.361-.326-6.798.149-10.201.253-2.149.062-4.319.283-6.449.092-3.053-.273-4.919-2.687-4.554-5.746.207-1.738.559-3.509 1.172-5.14 1.902-5.053 1.907-10.296 1.845-15.562-.012-1.086-.015-2.003-1.339-2.482-.464-.167-.866-1.202-.864-1.84.009-3.06.166-6.117.271-9.178.214-6.316-.478-12.522-2.044-18.65-1.146-4.489-2.134-9.036-2.068-13.697.036-2.533.293-5.101.789-7.587 1.117-5.606 1.529-11.269 1.746-16.958.345-9.113.147-18.217-.872-27.28-.556-4.951-1.509-9.854-2.104-14.8-.781-6.503-1.53-13.022-2.037-19.554-.837-10.81-2.138-21.544-4.134-32.205-.894-4.778-1.57-9.601-2.189-14.425-.5-3.893-.063-7.688 2.185-11.145-1.646-1.394-3.217-2.678-4.736-4.021a43197.62 43197.62 0 0 1-46.501-41.114c-2.056-1.821-4.003-3.764-6.021-5.627-.19-.173-.561-.33-.787-.268-3.885 1.042-5.083-1.438-4.555-4.535-.289-.124-.608-.233-.904-.389-.908-.481-1.573-1.137-1.687-2.24-.145-1.405-.249-2.824-.546-4.201-.307-1.433.113-2.615.825-3.791.211-.349.451-.788.417-1.164-.491-5.507-.798-11.045-1.607-16.508-1.158-7.795-3.86-15.188-6.764-22.481-2.219-5.566-4.632-11.06-7.041-16.55-.589-1.344-.182-2.359.555-3.375.359-.496.439-.859.116-1.451-3.703-6.779-7.365-13.579-11.036-20.373-.298-.552-.623-1.097-.854-1.678-1.59-3.986-3.706-7.618-6.983-10.476-2.158-1.881-2.703-4.261-2.442-7.014.104-1.094-.321-2.228-.329-3.346-.005-.764.076-1.702.511-2.256.753-.963 1.251-1.945 1.479-3.136.236-1.242.531-2.567 2.012-2.903 1.588-.358 2.837.308 3.746 1.625.637.925 1.555.482 2.189.236 1.011-.392 1.841-.492 2.913-.12.923.323 2.064.327 3.042.132 2.552-.507 4.263 1.182 3.638 3.72-.074.302-.072.71.073.967a652.44 652.44 0 0 0 4.351 7.522c.913 1.557 1.892 3.077 2.754 4.661 2.266 4.161 5.75 7.206 9.2 10.311 1.879 1.692 3.48 3.629 3.856 6.292.441 3.127-1.006 5.897-3.861 7.24-1.737.817-3.572 1.084-5.816.844 1.396-.241 2.483-.355 3.532-.619 5.307-1.327 7.084-6.468 3.685-10.766-.943-1.194-2.01-2.344-3.213-3.262-4.273-3.259-7.38-7.453-9.995-12.065-1.315-2.321-2.584-4.667-3.885-6.993-.305-.55-.585-1.134-1.001-1.588-.908-.994-1.448-1.957-.806-3.367.333-.731-.162-1.356-.972-1.59-.922-.267-1.72-.172-2.154.824-.417.959-.961 1.745-2.273 1.831.572-.94 1.55-1.583.987-3.068-.8 1.231-.808 2.898-2.234 3.04.161-.947.341-1.903.444-2.865.007-.071-.545-.203-.934-.341.497 2.371-.33 4.067-2.632 5.293.629-1.106 1.194-1.98 1.634-2.912.474-1 .021-1.841-.902-1.712-.308.044-.781.51-.793.801-.065 1.431-.208 2.801-1.033 4.045-.211.319-.137.829-.184 1.252-.204 1.771-1.244 2.786-3.245 2.764zm189.988 177.353c-5.603-.519-9.918-3.189-13.731-6.787-5.839-5.502-10.588-11.883-14.726-18.721-1.212-2.006-2.159-4.17-3.178-6.289-.724-1.503-.595-2.951.498-4.282.325-.397.557-.87.988-1.553-.551.279-.838.394-1.092.562-.424.28-.842.576-1.233.901-1.142.948-1.816 1.052-3.075.265-1.095-.686-2.112-1.497-3.201-2.196-1.472-.941-3.05-1.576-4.844-1.613-.732-.014-1.18.198-1.417.905-1.088 3.227-2.371 6.398-3.25 9.68-1.424 5.316-1.248 10.609.825 15.807 1.421 3.566 2.696 7.193 3.927 10.83 2.116 6.246 4.775 12.367 4.721 19.16.123-.005.246.012.355-.02 6.247-1.807 12.509-3.562 18.733-5.445 4.235-1.279 8.501-2.518 12.327-4.85 2.757-1.68 5.233-3.686 7.373-6.354zm164.915-55.298c-1.134.414-2.372.86-3.757 1.363 2.554 3.087 5.072 6.134 7.593 9.183.153-.014.307-.026.461-.039.112-.588.393-1.199.302-1.752-.12-.75-.449-1.498-.824-2.172-1.226-2.213-2.513-4.394-3.775-6.583zm10.53-5.414c3.957.849 12.714 1.063 15.16.356-.402-.124-.688-.218-.977-.297-2.719-.731-5.434-1.465-8.154-2.182-.208-.058-.466-.074-.66 0-1.746.673-3.485 1.373-5.369 2.123zm-332.711-13.7c.112 1.998.16 3.828.336 5.647.102 1.053 1.061 1.582 2.131 1.397l-2.467-7.044zm5.088 11.094c-.631-.999-1.152-1.914-1.776-2.753-.168-.224-.646-.219-1.121-.363.61 3.137.921 3.46 2.897 3.116z"/><path d="M278.532 227.523c1.75.486 3.521 1.085 5.338 1.455 2.452.501 4.883.111 7.133-.91 3.689-1.669 7.566-2.233 11.556-2.393 9.368-.372 18.735-.833 28.105-1.16 5.692-.198 11.401-.232 16.943 1.394 1.979.583 3.889 1.404 6.123 2.223 1.05-2.671 2.261-5.462 3.245-8.333 1.206-3.515 1.595-7.173 1.579-10.893-.025-6.627.649-13.167 2.93-19.448.835-2.299 1.905-4.481 3.722-6.203 2.412-2.282 5.262-3.377 8.408-2.081 2.972 1.226 5.26.54 7.698-1.256 3.646-2.684 7.554-5.021 12.127-5.723 7.724-1.185 14.347 1.061 19.678 6.825.672.726 1.174 1.683 1.514 2.622.533 1.469-.131 2.656-1.58 2.745-1.047.069-1.432.91-1.649 1.76-.503 1.975-.94 3.967-1.399 5.953-1.171 5.071-4.076 8.667-9.019 10.478-.801.294-1.682.544-2.52.526-2.079-.046-3.257 1.159-4.244 2.727l-.297-.165c.332-.592.594-1.239 1.015-1.76.333-.414.939-.609 1.276-1.022.291-.357.53-.9.49-1.334-.019-.208-.733-.353-1.381-.635.592-.073 1.344-.335 1.478-.15.386.536.527 1.249.818 2.045 3.034-.266 5.648-1.831 7.902-4.141 2.498-2.561 3.179-5.863 3.812-9.198.261-1.382.549-2.769.947-4.117.348-1.176 1.037-2.119 2.401-2.298.824-.111.854-.676.508-1.191-.689-1.035-1.347-2.15-2.253-2.975-5.72-5.203-14.942-7.604-23.582-2.626a93.935 93.935 0 0 0-6.551 4.164c-2.001 1.384-4.002 1.657-6.336.895-4.867-1.584-7.822-.263-10.185 4.363-1.826 3.571-2.783 7.424-3.229 11.37a123.851 123.851 0 0 0-.718 10.912c-.159 6.676-2.202 12.788-5.251 18.624-2.179 4.169-4.583 8.227-6.62 12.462-2.699 5.609-3.99 11.556-3.223 17.821.222 1.815.605 3.608.844 5.424-1.315-2.931-1.842-6.025-1.921-9.213-.17-6.751 1.955-12.889 5.033-18.768 1.09-2.083 2.227-4.142 3.417-6.348-.589-.327-1.132-.685-1.719-.945a30.507 30.507 0 0 0-12.816-2.651c-6.78.066-13.558.438-20.339.591-5.023.114-10.05.102-15.075.107-3.841.007-7.546.563-11.166 1.968-4.039 1.566-8.074 1.332-11.919-.798-.393-.22-.747-.51-1.048-.719z"/><path d="M390.003 202.458c-2.571 2.131-3.521 4.709-3.93 7.73-.632 4.667-3.875 7.371-9.021 7.911-.987.104-1.338.512-1.69 1.385-1.012 2.499-2.184 4.934-3.277 7.401-.167.382-.39.809-.354 1.194.696 7.448-1.64 13.903-6.302 19.634-2.057 2.525-4.054 5.101-6.038 7.684-.898 1.173-1.695 2.422-2.759 3.54.396-.914.677-1.9 1.209-2.725 1.555-2.402 3.216-4.738 4.825-7.107 1.323-1.944 2.675-3.875 3.938-5.86 3.016-4.745 3.762-9.991 3.244-15.481-.254-2.693-.633-5.377-.841-8.074-.296-3.829.253-7.606 1.097-11.321.95-4.17.807-8.32.246-12.51-.303-2.25-.552-4.521-.581-6.787-.027-2.119 1.287-3.681 3.066-4.104.238-.058.499-.032.817.03-2.829 1.125-3.219 3.31-2.781 5.921.514 3.053 1.03 6.109 1.422 9.181.486 3.791-.335 7.494-.93 11.213-.482 3.033 1.464 5.183 4.572 5.156 5.081-.045 8.277-2.742 9.094-7.719.427-2.589 1.701-4.601 3.904-6.022.166-.104.346-.186.525-.263.06-.027.139-.007.545-.007zm-18.692 22.477l.344.037c.76-2.277 1.522-4.555 2.273-6.798l-3.323-1.832.706 8.593zM340.483 263.735c-.304-1.59-.489-3.218-.94-4.768-.667-2.285-1.397-4.569-2.334-6.752-.979-2.282-2.752-3.82-5.141-4.71-4.005-1.497-8.183-2.125-12.377-2.724-8.336-1.19-16.715-1.433-25.124-1.351-5.37.052-10.746-.091-16.112-.312-4.701-.194-9.151-1.73-13.638-2.989-5.734-1.61-11.453-3.276-17.182-4.904-.584-.166-1.192-.249-1.791-.368l.078-.437c2.087.346 4.203.573 6.255 1.062 6.898 1.653 13.773 3.407 20.661 5.106 3.838.947 7.765 1.068 11.688 1.092 7.733.05 15.48-.246 23.196.128 7.196.348 14.34 1.397 21.393 3.081 6.394 1.525 9.77 5.554 10.881 11.773.415 2.318.623 4.672.925 7.012-.146.022-.292.044-.438.061zM419.481 215.262c.229 1.668 1.951 3.098.083 4.573 1.083.923 1.266 1.691.26 2.54-1.372 1.154-1.63 2.519-1.563 4.173.071 1.788-.864 3.199-2.674 3.53-2.052.375-4.192.417-6.29.379-2.426-.039-4.855-.536-7.271-.452-4.855.164-7.804 3.2-9.648 7.33-.913 2.046-1.27 4.341-1.876 6.52-.056.206-.087.419-.13.628-.111 0-.222-.004-.333-.005 0-1.179-.111-2.372.022-3.537.343-3.023 1.487-5.75 3.33-8.18 2.841-3.749 6.74-4.903 11.238-4.582 2.62.187 5.238.401 7.858.58a7.1 7.1 0 0 0 1.527-.077c2.029-.304 2.725-1.004 2.593-3.04-.125-1.909.717-3.215 2.412-4.414-.871-.199-1.477-.272-2.027-.492-.334-.133-.577-.495-.858-.753.263-.24.485-.588.796-.704.814-.308 1.986-.273 2.414-.834.386-.508-.02-1.623-.083-2.469-.008-.113-.057-.221-.088-.33-1.63.237-2.354-.078-2.542-1.091-.225-1.212.559-2.244 2.112-2.607-.373.502-.751.88-.959 1.332-.14.304-.04.717-.045 1.08.324-.018.666.025.967-.067.925-.28 1.839-.607 2.752-.929.429-.15.849-.33 1.489-.581-.679-1.131-1.258-2.138-1.878-3.118-.795-1.259-1.646-2.483-2.436-3.747-1.056-1.688-1.175-3.377.1-5.032.115-.149.175-.339.346-.683-2.485-.532-4.359 1.369-6.635 1.235 2.076-1.26 4.041-2.786 7.057-2.605-1.419-4.204-2.8-8.286-4.24-12.55.35.12.495.122.533.188 2.161 3.695 4.075 7.503 5.143 11.679.341 1.329.118 2.597-.677 3.699-.746 1.038-.726 2.021-.067 3.055.841 1.323 1.694 2.64 2.515 3.976.452.735.897 1.479 1.259 2.259.944 2.023.191 3.346-2.025 3.681-.831.124-1.653.295-2.461.442zM340.769 272.546c4.021 3.593 6.592 8.367 10.049 12.607l2.093-18.075c-.471.177-1.101.373-1.699.646-2.389 1.082-4.764 2.193-7.153 3.276-.407.184-.852.28-1.375.186 1.066-.558 2.139-1.106 3.199-1.675 1.966-1.058 3.891-2.203 5.898-3.177 1.86-.899 2.691-.241 2.41 1.785-.486 3.492-1.061 6.973-1.488 10.47-.241 1.98-.25 3.988-.398 5.98-.031.419-.16.854-.339 1.24-.4.859-1.077.988-1.794.37a3.675 3.675 0 0 1-.634-.691c-2.929-4.311-5.848-8.628-8.769-12.942zM398.406 212.192c.098.695.381 1.353.203 1.84-.162.442-.787.876-1.284.989-.521.118-1.184-.034-1.695-.265-4.284-1.931-6.309-8.094-4.05-12.204 1.501-2.729 4.172-2.896 6.219-.229-.825-.338-1.484-.661-2.175-.876-1.286-.404-2-.154-2.676 1.01-1.372 2.359-1.684 4.801-.26 7.254.591 1.016 1.287 1.968 1.981 2.915.274.373.616.771 1.021.952.605.271 1.352.59 1.922.441.347-.091.471-1.026.794-1.827z"/><path d="M393.975 208.896l3.559 1.597c-.173-.291-.291-.662-.542-.881-.755-.662-.697-1.304-.297-1.808.353.543.64 1.161 1.087 1.624.579.598.678 1.137.083 1.709-.658.632-1.062.183-1.511-.36-.273-.334-.717-.537-1.104-.766-.484-.283-.989-.534-1.484-.8l.209-.315z"/></g></svg>